<?xml version="1.0" standalone="no"?>
 <!DOCTYPE svg PUBLIC "-//W3C//DTD SVG 1.1//EN" 
 "http://www.w3.org/Graphics/SVG/1.1/DTD/svg11.dtd"> 
<svg
  xmlns:svg="http://www.w3.org/2000/svg"
  xmlns="http://www.w3.org/2000/svg"
  xmlns:xlink="http://www.w3.org/1999/xlink"
  version="1.1"
  width="29.700220cm" height="21.000720cm" viewBox="0 0 116930 82680">
<title>SVG Picture created as canbus_connector-CANBUS CONN.svg date 2021/06/17 14:10:14 </title>
  <desc>Picture generated by Eeschema-SVG </desc>
<g style="fill:#000000; fill-opacity:1;stroke:#000000; stroke-opacity:1;
stroke-linecap:round; stroke-linejoin:round;"
 transform="translate(0 0) scale(1 1)">
</g>
<g style="fill:#000000; fill-opacity:0.0; 
stroke:#000000; stroke-width:-10; stroke-opacity:1; 
stroke-linecap:round; stroke-linejoin:round;">
</g>
<g style="fill:#840000; fill-opacity:0.0; 
stroke:#840000; stroke-width:-10; stroke-opacity:1; 
stroke-linecap:round; stroke-linejoin:round;">
</g>
<g style="fill:#840000; fill-opacity:0.0; 
stroke:#840000; stroke-width:100; stroke-opacity:1; 
stroke-linecap:round; stroke-linejoin:round;">
</g>
<g style="fill:#840000; fill-opacity:0.0; 
stroke:#840000; stroke-width:60; stroke-opacity:1; 
stroke-linecap:round; stroke-linejoin:round;">
<rect x="69690" y="65360" width="42520" height="12600" rx="0" />
</g>
<g style="fill:#840000; fill-opacity:0.0; 
stroke:#840000; stroke-width:100; stroke-opacity:1; 
stroke-linecap:round; stroke-linejoin:round;">
</g>
<g style="fill:#840000; fill-opacity:0.0; 
stroke:#840000; stroke-width:60; stroke-opacity:1; 
stroke-linecap:round; stroke-linejoin:round;">
<rect x="3940" y="3940" width="109050" height="74800" rx="0" />
</g>
<g style="fill:#840000; fill-opacity:0.0; 
stroke:#840000; stroke-width:100; stroke-opacity:1; 
stroke-linecap:round; stroke-linejoin:round;">
</g>
<g style="fill:#840000; fill-opacity:0.0; 
stroke:#840000; stroke-width:60; stroke-opacity:1; 
stroke-linecap:round; stroke-linejoin:round;">
<rect x="4720" y="4720" width="107490" height="73240" rx="0" />
</g>
<g style="fill:#840000; fill-opacity:0.0; 
stroke:#840000; stroke-width:100; stroke-opacity:1; 
stroke-linecap:round; stroke-linejoin:round;">
</g>
<g style="fill:#840000; fill-opacity:0.0; 
stroke:#840000; stroke-width:60; stroke-opacity:1; 
stroke-linecap:round; stroke-linejoin:round;">
<path d="M23620 4720
L23620 3940
" />
</g>
<g style="fill:#840000; fill-opacity:0.0; 
stroke:#840000; stroke-width:100; stroke-opacity:1; 
stroke-linecap:round; stroke-linejoin:round;">
</g>
<g style="fill:#840000; fill-opacity:0.0; 
stroke:#840000; stroke-width:60; stroke-opacity:1; 
stroke-linecap:round; stroke-linejoin:round;">
<path d="M43310 4720
L43310 3940
" />
</g>
<g style="fill:#840000; fill-opacity:0.0; 
stroke:#840000; stroke-width:100; stroke-opacity:1; 
stroke-linecap:round; stroke-linejoin:round;">
</g>
<g style="fill:#840000; fill-opacity:0.0; 
stroke:#840000; stroke-width:60; stroke-opacity:1; 
stroke-linecap:round; stroke-linejoin:round;">
<path d="M62990 4720
L62990 3940
" />
</g>
<g style="fill:#840000; fill-opacity:0.0; 
stroke:#840000; stroke-width:100; stroke-opacity:1; 
stroke-linecap:round; stroke-linejoin:round;">
</g>
<g style="fill:#840000; fill-opacity:0.0; 
stroke:#840000; stroke-width:60; stroke-opacity:1; 
stroke-linecap:round; stroke-linejoin:round;">
<path d="M82680 4720
L82680 3940
" />
</g>
<g style="fill:#840000; fill-opacity:0.0; 
stroke:#840000; stroke-width:100; stroke-opacity:1; 
stroke-linecap:round; stroke-linejoin:round;">
</g>
<g style="fill:#840000; fill-opacity:0.0; 
stroke:#840000; stroke-width:60; stroke-opacity:1; 
stroke-linecap:round; stroke-linejoin:round;">
<path d="M102360 4720
L102360 3940
" />
</g>
<g style="fill:#840000; fill-opacity:0.0; 
stroke:#840000; stroke-width:100; stroke-opacity:1; 
stroke-linecap:round; stroke-linejoin:round;">
</g>
<g style="fill:#840000; fill-opacity:0.0; 
stroke:#840000; stroke-width:60; stroke-opacity:1; 
stroke-linecap:round; stroke-linejoin:round;">
<text x="13780" y="4580"
textLength="550" font-size="680" lengthAdjust="spacingAndGlyphs"
text-anchor="start" opacity="0">1</text>
<path d="M14190 4560
L13900 4560
" />
<path d="M14050 4560
L14050 4050
L14000 4120
L13950 4170
L13900 4190
" />
</g>
<g style="fill:#840000; fill-opacity:0.0; 
stroke:#840000; stroke-width:100; stroke-opacity:1; 
stroke-linecap:round; stroke-linejoin:round;">
</g>
<g style="fill:#840000; fill-opacity:0.0; 
stroke:#840000; stroke-width:60; stroke-opacity:1; 
stroke-linecap:round; stroke-linejoin:round;">
<text x="33460" y="4580"
textLength="550" font-size="680" lengthAdjust="spacingAndGlyphs"
text-anchor="start" opacity="0">2</text>
<path d="M33580 4090
L33610 4070
L33660 4050
L33780 4050
L33830 4070
L33850 4090
L33870 4140
L33870 4190
L33850 4260
L33560 4560
L33870 4560
" />
</g>
<g style="fill:#840000; fill-opacity:0.0; 
stroke:#840000; stroke-width:100; stroke-opacity:1; 
stroke-linecap:round; stroke-linejoin:round;">
</g>
<g style="fill:#840000; fill-opacity:0.0; 
stroke:#840000; stroke-width:60; stroke-opacity:1; 
stroke-linecap:round; stroke-linejoin:round;">
<text x="53150" y="4580"
textLength="550" font-size="680" lengthAdjust="spacingAndGlyphs"
text-anchor="start" opacity="0">3</text>
<path d="M53250 4050
L53560 4050
L53390 4240
L53470 4240
L53520 4260
L53540 4290
L53560 4340
L53560 4460
L53540 4510
L53520 4530
L53470 4560
L53320 4560
L53270 4530
L53250 4510
" />
</g>
<g style="fill:#840000; fill-opacity:0.0; 
stroke:#840000; stroke-width:100; stroke-opacity:1; 
stroke-linecap:round; stroke-linejoin:round;">
</g>
<g style="fill:#840000; fill-opacity:0.0; 
stroke:#840000; stroke-width:60; stroke-opacity:1; 
stroke-linecap:round; stroke-linejoin:round;">
<text x="72830" y="4580"
textLength="550" font-size="680" lengthAdjust="spacingAndGlyphs"
text-anchor="start" opacity="0">4</text>
<path d="M73200 4220
L73200 4560
" />
<path d="M73070 4020
L72950 4390
L73270 4390
" />
</g>
<g style="fill:#840000; fill-opacity:0.0; 
stroke:#840000; stroke-width:100; stroke-opacity:1; 
stroke-linecap:round; stroke-linejoin:round;">
</g>
<g style="fill:#840000; fill-opacity:0.0; 
stroke:#840000; stroke-width:60; stroke-opacity:1; 
stroke-linecap:round; stroke-linejoin:round;">
<text x="92520" y="4580"
textLength="550" font-size="680" lengthAdjust="spacingAndGlyphs"
text-anchor="start" opacity="0">5</text>
<path d="M92910 4050
L92670 4050
L92640 4290
L92670 4260
L92720 4240
L92840 4240
L92890 4260
L92910 4290
L92930 4340
L92930 4460
L92910 4510
L92890 4530
L92840 4560
L92720 4560
L92670 4530
L92640 4510
" />
</g>
<g style="fill:#840000; fill-opacity:0.0; 
stroke:#840000; stroke-width:100; stroke-opacity:1; 
stroke-linecap:round; stroke-linejoin:round;">
</g>
<g style="fill:#840000; fill-opacity:0.0; 
stroke:#840000; stroke-width:60; stroke-opacity:1; 
stroke-linecap:round; stroke-linejoin:round;">
<text x="112200" y="4580"
textLength="550" font-size="680" lengthAdjust="spacingAndGlyphs"
text-anchor="start" opacity="0">6</text>
<path d="M112570 4050
L112470 4050
L112420 4070
L112400 4090
L112350 4170
L112320 4260
L112320 4460
L112350 4510
L112370 4530
L112420 4560
L112520 4560
L112570 4530
L112590 4510
L112610 4460
L112610 4340
L112590 4290
L112570 4260
L112520 4240
L112420 4240
L112370 4260
L112350 4290
L112320 4340
" />
</g>
<g style="fill:#840000; fill-opacity:0.0; 
stroke:#840000; stroke-width:100; stroke-opacity:1; 
stroke-linecap:round; stroke-linejoin:round;">
</g>
<g style="fill:#840000; fill-opacity:0.0; 
stroke:#840000; stroke-width:60; stroke-opacity:1; 
stroke-linecap:round; stroke-linejoin:round;">
<path d="M23620 77960
L23620 78740
" />
</g>
<g style="fill:#840000; fill-opacity:0.0; 
stroke:#840000; stroke-width:100; stroke-opacity:1; 
stroke-linecap:round; stroke-linejoin:round;">
</g>
<g style="fill:#840000; fill-opacity:0.0; 
stroke:#840000; stroke-width:60; stroke-opacity:1; 
stroke-linecap:round; stroke-linejoin:round;">
<path d="M43310 77960
L43310 78740
" />
</g>
<g style="fill:#840000; fill-opacity:0.0; 
stroke:#840000; stroke-width:100; stroke-opacity:1; 
stroke-linecap:round; stroke-linejoin:round;">
</g>
<g style="fill:#840000; fill-opacity:0.0; 
stroke:#840000; stroke-width:60; stroke-opacity:1; 
stroke-linecap:round; stroke-linejoin:round;">
<path d="M62990 77960
L62990 78740
" />
</g>
<g style="fill:#840000; fill-opacity:0.0; 
stroke:#840000; stroke-width:100; stroke-opacity:1; 
stroke-linecap:round; stroke-linejoin:round;">
</g>
<g style="fill:#840000; fill-opacity:0.0; 
stroke:#840000; stroke-width:60; stroke-opacity:1; 
stroke-linecap:round; stroke-linejoin:round;">
<path d="M82680 77960
L82680 78740
" />
</g>
<g style="fill:#840000; fill-opacity:0.0; 
stroke:#840000; stroke-width:100; stroke-opacity:1; 
stroke-linecap:round; stroke-linejoin:round;">
</g>
<g style="fill:#840000; fill-opacity:0.0; 
stroke:#840000; stroke-width:60; stroke-opacity:1; 
stroke-linecap:round; stroke-linejoin:round;">
<path d="M102360 77960
L102360 78740
" />
</g>
<g style="fill:#840000; fill-opacity:0.0; 
stroke:#840000; stroke-width:100; stroke-opacity:1; 
stroke-linecap:round; stroke-linejoin:round;">
</g>
<g style="fill:#840000; fill-opacity:0.0; 
stroke:#840000; stroke-width:60; stroke-opacity:1; 
stroke-linecap:round; stroke-linejoin:round;">
<text x="13780" y="78600"
textLength="550" font-size="680" lengthAdjust="spacingAndGlyphs"
text-anchor="start" opacity="0">1</text>
<path d="M14190 78580
L13900 78580
" />
<path d="M14050 78580
L14050 78070
L14000 78140
L13950 78190
L13900 78210
" />
</g>
<g style="fill:#840000; fill-opacity:0.0; 
stroke:#840000; stroke-width:100; stroke-opacity:1; 
stroke-linecap:round; stroke-linejoin:round;">
</g>
<g style="fill:#840000; fill-opacity:0.0; 
stroke:#840000; stroke-width:60; stroke-opacity:1; 
stroke-linecap:round; stroke-linejoin:round;">
<text x="33460" y="78600"
textLength="550" font-size="680" lengthAdjust="spacingAndGlyphs"
text-anchor="start" opacity="0">2</text>
<path d="M33580 78110
L33610 78090
L33660 78070
L33780 78070
L33830 78090
L33850 78110
L33870 78160
L33870 78210
L33850 78280
L33560 78580
L33870 78580
" />
</g>
<g style="fill:#840000; fill-opacity:0.0; 
stroke:#840000; stroke-width:100; stroke-opacity:1; 
stroke-linecap:round; stroke-linejoin:round;">
</g>
<g style="fill:#840000; fill-opacity:0.0; 
stroke:#840000; stroke-width:60; stroke-opacity:1; 
stroke-linecap:round; stroke-linejoin:round;">
<text x="53150" y="78600"
textLength="550" font-size="680" lengthAdjust="spacingAndGlyphs"
text-anchor="start" opacity="0">3</text>
<path d="M53250 78070
L53560 78070
L53390 78260
L53470 78260
L53520 78280
L53540 78310
L53560 78360
L53560 78480
L53540 78530
L53520 78550
L53470 78580
L53320 78580
L53270 78550
L53250 78530
" />
</g>
<g style="fill:#840000; fill-opacity:0.0; 
stroke:#840000; stroke-width:100; stroke-opacity:1; 
stroke-linecap:round; stroke-linejoin:round;">
</g>
<g style="fill:#840000; fill-opacity:0.0; 
stroke:#840000; stroke-width:60; stroke-opacity:1; 
stroke-linecap:round; stroke-linejoin:round;">
<text x="72830" y="78600"
textLength="550" font-size="680" lengthAdjust="spacingAndGlyphs"
text-anchor="start" opacity="0">4</text>
<path d="M73200 78240
L73200 78580
" />
<path d="M73070 78040
L72950 78410
L73270 78410
" />
</g>
<g style="fill:#840000; fill-opacity:0.0; 
stroke:#840000; stroke-width:100; stroke-opacity:1; 
stroke-linecap:round; stroke-linejoin:round;">
</g>
<g style="fill:#840000; fill-opacity:0.0; 
stroke:#840000; stroke-width:60; stroke-opacity:1; 
stroke-linecap:round; stroke-linejoin:round;">
<text x="92520" y="78600"
textLength="550" font-size="680" lengthAdjust="spacingAndGlyphs"
text-anchor="start" opacity="0">5</text>
<path d="M92910 78070
L92670 78070
L92640 78310
L92670 78280
L92720 78260
L92840 78260
L92890 78280
L92910 78310
L92930 78360
L92930 78480
L92910 78530
L92890 78550
L92840 78580
L92720 78580
L92670 78550
L92640 78530
" />
</g>
<g style="fill:#840000; fill-opacity:0.0; 
stroke:#840000; stroke-width:100; stroke-opacity:1; 
stroke-linecap:round; stroke-linejoin:round;">
</g>
<g style="fill:#840000; fill-opacity:0.0; 
stroke:#840000; stroke-width:60; stroke-opacity:1; 
stroke-linecap:round; stroke-linejoin:round;">
<text x="112200" y="78600"
textLength="550" font-size="680" lengthAdjust="spacingAndGlyphs"
text-anchor="start" opacity="0">6</text>
<path d="M112570 78070
L112470 78070
L112420 78090
L112400 78110
L112350 78190
L112320 78280
L112320 78480
L112350 78530
L112370 78550
L112420 78580
L112520 78580
L112570 78550
L112590 78530
L112610 78480
L112610 78360
L112590 78310
L112570 78280
L112520 78260
L112420 78260
L112370 78280
L112350 78310
L112320 78360
" />
</g>
<g style="fill:#840000; fill-opacity:0.0; 
stroke:#840000; stroke-width:100; stroke-opacity:1; 
stroke-linecap:round; stroke-linejoin:round;">
</g>
<g style="fill:#840000; fill-opacity:0.0; 
stroke:#840000; stroke-width:60; stroke-opacity:1; 
stroke-linecap:round; stroke-linejoin:round;">
<path d="M3940 23620
L4720 23620
" />
</g>
<g style="fill:#840000; fill-opacity:0.0; 
stroke:#840000; stroke-width:100; stroke-opacity:1; 
stroke-linecap:round; stroke-linejoin:round;">
</g>
<g style="fill:#840000; fill-opacity:0.0; 
stroke:#840000; stroke-width:60; stroke-opacity:1; 
stroke-linecap:round; stroke-linejoin:round;">
<path d="M3940 43310
L4720 43310
" />
</g>
<g style="fill:#840000; fill-opacity:0.0; 
stroke:#840000; stroke-width:100; stroke-opacity:1; 
stroke-linecap:round; stroke-linejoin:round;">
</g>
<g style="fill:#840000; fill-opacity:0.0; 
stroke:#840000; stroke-width:60; stroke-opacity:1; 
stroke-linecap:round; stroke-linejoin:round;">
<path d="M3940 62990
L4720 62990
" />
</g>
<g style="fill:#840000; fill-opacity:0.0; 
stroke:#840000; stroke-width:100; stroke-opacity:1; 
stroke-linecap:round; stroke-linejoin:round;">
</g>
<g style="fill:#840000; fill-opacity:0.0; 
stroke:#840000; stroke-width:60; stroke-opacity:1; 
stroke-linecap:round; stroke-linejoin:round;">
<text x="4330" y="14030"
textLength="500" font-size="680" lengthAdjust="spacingAndGlyphs"
text-anchor="middle" opacity="0">A</text>
<path d="M4200 13860
L4450 13860
" />
<path d="M4160 14010
L4330 13500
L4500 14010
" />
</g>
<g style="fill:#840000; fill-opacity:0.0; 
stroke:#840000; stroke-width:100; stroke-opacity:1; 
stroke-linecap:round; stroke-linejoin:round;">
</g>
<g style="fill:#840000; fill-opacity:0.0; 
stroke:#840000; stroke-width:60; stroke-opacity:1; 
stroke-linecap:round; stroke-linejoin:round;">
<text x="4330" y="33710"
textLength="570" font-size="680" lengthAdjust="spacingAndGlyphs"
text-anchor="middle" opacity="0">B</text>
<path d="M4360 33420
L4430 33440
L4460 33470
L4480 33520
L4480 33590
L4460 33640
L4430 33660
L4390 33690
L4190 33690
L4190 33180
L4360 33180
L4410 33200
L4430 33220
L4460 33270
L4460 33320
L4430 33370
L4410 33390
L4360 33420
L4190 33420
" />
</g>
<g style="fill:#840000; fill-opacity:0.0; 
stroke:#840000; stroke-width:100; stroke-opacity:1; 
stroke-linecap:round; stroke-linejoin:round;">
</g>
<g style="fill:#840000; fill-opacity:0.0; 
stroke:#840000; stroke-width:60; stroke-opacity:1; 
stroke-linecap:round; stroke-linejoin:round;">
<text x="4330" y="53400"
textLength="570" font-size="680" lengthAdjust="spacingAndGlyphs"
text-anchor="middle" opacity="0">C</text>
<path d="M4480 53330
L4460 53350
L4390 53380
L4340 53380
L4260 53350
L4220 53300
L4190 53250
L4170 53160
L4170 53080
L4190 52990
L4220 52940
L4260 52890
L4340 52870
L4390 52870
L4460 52890
L4480 52910
" />
</g>
<g style="fill:#840000; fill-opacity:0.0; 
stroke:#840000; stroke-width:100; stroke-opacity:1; 
stroke-linecap:round; stroke-linejoin:round;">
</g>
<g style="fill:#840000; fill-opacity:0.0; 
stroke:#840000; stroke-width:60; stroke-opacity:1; 
stroke-linecap:round; stroke-linejoin:round;">
<text x="4330" y="73080"
textLength="570" font-size="680" lengthAdjust="spacingAndGlyphs"
text-anchor="middle" opacity="0">D</text>
<path d="M4190 73060
L4190 72550
L4310 72550
L4390 72570
L4430 72620
L4460 72670
L4480 72760
L4480 72840
L4460 72930
L4430 72980
L4390 73030
L4310 73060
L4190 73060
" />
</g>
<g style="fill:#840000; fill-opacity:0.0; 
stroke:#840000; stroke-width:100; stroke-opacity:1; 
stroke-linecap:round; stroke-linejoin:round;">
</g>
<g style="fill:#840000; fill-opacity:0.0; 
stroke:#840000; stroke-width:60; stroke-opacity:1; 
stroke-linecap:round; stroke-linejoin:round;">
<path d="M112990 23620
L112210 23620
" />
</g>
<g style="fill:#840000; fill-opacity:0.0; 
stroke:#840000; stroke-width:100; stroke-opacity:1; 
stroke-linecap:round; stroke-linejoin:round;">
</g>
<g style="fill:#840000; fill-opacity:0.0; 
stroke:#840000; stroke-width:60; stroke-opacity:1; 
stroke-linecap:round; stroke-linejoin:round;">
<path d="M112990 43310
L112210 43310
" />
</g>
<g style="fill:#840000; fill-opacity:0.0; 
stroke:#840000; stroke-width:100; stroke-opacity:1; 
stroke-linecap:round; stroke-linejoin:round;">
</g>
<g style="fill:#840000; fill-opacity:0.0; 
stroke:#840000; stroke-width:60; stroke-opacity:1; 
stroke-linecap:round; stroke-linejoin:round;">
<path d="M112990 62990
L112210 62990
" />
</g>
<g style="fill:#840000; fill-opacity:0.0; 
stroke:#840000; stroke-width:100; stroke-opacity:1; 
stroke-linecap:round; stroke-linejoin:round;">
</g>
<g style="fill:#840000; fill-opacity:0.0; 
stroke:#840000; stroke-width:60; stroke-opacity:1; 
stroke-linecap:round; stroke-linejoin:round;">
<text x="112600" y="14030"
textLength="500" font-size="680" lengthAdjust="spacingAndGlyphs"
text-anchor="middle" opacity="0">A</text>
<path d="M112470 13860
L112720 13860
" />
<path d="M112430 14010
L112600 13500
L112770 14010
" />
</g>
<g style="fill:#840000; fill-opacity:0.0; 
stroke:#840000; stroke-width:100; stroke-opacity:1; 
stroke-linecap:round; stroke-linejoin:round;">
</g>
<g style="fill:#840000; fill-opacity:0.0; 
stroke:#840000; stroke-width:60; stroke-opacity:1; 
stroke-linecap:round; stroke-linejoin:round;">
<text x="112600" y="33710"
textLength="570" font-size="680" lengthAdjust="spacingAndGlyphs"
text-anchor="middle" opacity="0">B</text>
<path d="M112630 33420
L112700 33440
L112730 33470
L112750 33520
L112750 33590
L112730 33640
L112700 33660
L112660 33690
L112460 33690
L112460 33180
L112630 33180
L112680 33200
L112700 33220
L112730 33270
L112730 33320
L112700 33370
L112680 33390
L112630 33420
L112460 33420
" />
</g>
<g style="fill:#840000; fill-opacity:0.0; 
stroke:#840000; stroke-width:100; stroke-opacity:1; 
stroke-linecap:round; stroke-linejoin:round;">
</g>
<g style="fill:#840000; fill-opacity:0.0; 
stroke:#840000; stroke-width:60; stroke-opacity:1; 
stroke-linecap:round; stroke-linejoin:round;">
<text x="112600" y="53400"
textLength="570" font-size="680" lengthAdjust="spacingAndGlyphs"
text-anchor="middle" opacity="0">C</text>
<path d="M112750 53330
L112730 53350
L112660 53380
L112610 53380
L112530 53350
L112490 53300
L112460 53250
L112440 53160
L112440 53080
L112460 52990
L112490 52940
L112530 52890
L112610 52870
L112660 52870
L112730 52890
L112750 52910
" />
</g>
<g style="fill:#840000; fill-opacity:0.0; 
stroke:#840000; stroke-width:100; stroke-opacity:1; 
stroke-linecap:round; stroke-linejoin:round;">
</g>
<g style="fill:#840000; fill-opacity:0.0; 
stroke:#840000; stroke-width:60; stroke-opacity:1; 
stroke-linecap:round; stroke-linejoin:round;">
<text x="112600" y="73080"
textLength="570" font-size="680" lengthAdjust="spacingAndGlyphs"
text-anchor="middle" opacity="0">D</text>
<path d="M112460 73060
L112460 72550
L112580 72550
L112660 72570
L112700 72620
L112730 72670
L112750 72760
L112750 72840
L112730 72930
L112700 72980
L112660 73030
L112580 73060
L112460 73060
" />
</g>
<g style="fill:#840000; fill-opacity:0.0; 
stroke:#840000; stroke-width:100; stroke-opacity:1; 
stroke-linecap:round; stroke-linejoin:round;">
</g>
<g style="fill:#840000; fill-opacity:0.0; 
stroke:#840000; stroke-width:60; stroke-opacity:1; 
stroke-linecap:round; stroke-linejoin:round;">
<text x="78740" y="76320"
textLength="2760" font-size="780" lengthAdjust="spacingAndGlyphs"
text-anchor="start" opacity="0">Date: </text>
<path d="M78910 76290
L78910 75700
L79050 75700
L79130 75730
L79190 75790
L79210 75840
L79240 75950
L79240 76040
L79210 76150
L79190 76210
L79130 76260
L79050 76290
L78910 76290
" />
<path d="M79750 76290
L79750 75980
L79720 75930
L79660 75900
L79550 75900
L79500 75930
" />
<path d="M79750 76260
L79690 76290
L79550 76290
L79500 76260
L79470 76210
L79470 76150
L79500 76100
L79550 76070
L79690 76070
L79750 76040
" />
<path d="M79950 75900
L80170 75900
" />
<path d="M80030 75700
L80030 76210
L80060 76260
L80110 76290
L80170 76290
" />
<path d="M80590 76260
L80540 76290
L80420 76290
L80370 76260
L80340 76210
L80340 75980
L80370 75930
L80420 75900
L80540 75900
L80590 75930
L80620 75980
L80620 76040
L80340 76100
" />
<path d="M80870 76240
L80900 76260
L80870 76290
L80840 76260
L80870 76240
L80870 76290
" />
<path d="M80870 75930
L80900 75950
L80870 75980
L80840 75950
L80870 75930
L80870 75980
" />
</g>
<g style="fill:#840000; fill-opacity:0.0; 
stroke:#840000; stroke-width:100; stroke-opacity:1; 
stroke-linecap:round; stroke-linejoin:round;">
</g>
<g style="fill:#840000; fill-opacity:0.0; 
stroke:#840000; stroke-width:60; stroke-opacity:1; 
stroke-linecap:round; stroke-linejoin:round;">
<path d="M69690 76580
L112210 76580
" />
</g>
<g style="fill:#840000; fill-opacity:0.0; 
stroke:#840000; stroke-width:100; stroke-opacity:1; 
stroke-linecap:round; stroke-linejoin:round;">
</g>
<g style="fill:#840000; fill-opacity:0.0; 
stroke:#840000; stroke-width:60; stroke-opacity:1; 
stroke-linecap:round; stroke-linejoin:round;">
<text x="70080" y="77420"
textLength="21950" font-size="780" lengthAdjust="spacingAndGlyphs"
text-anchor="start" opacity="0">KiCad E.D.A.  eeschema 5.1.9+dfsg1-1~bpo10+1</text>
<path d="M70250 77390
L70250 76800
" />
<path d="M70580 77390
L70330 77050
" />
<path d="M70580 76800
L70250 77140
" />
<path d="M70840 77390
L70840 77000
" />
<path d="M70840 76800
L70810 76830
L70840 76860
L70860 76830
L70840 76800
L70840 76860
" />
<path d="M71450 77340
L71430 77360
L71340 77390
L71290 77390
L71200 77360
L71140 77310
L71120 77250
L71090 77140
L71090 77050
L71120 76940
L71140 76890
L71200 76830
L71290 76800
L71340 76800
L71430 76830
L71450 76860
" />
<path d="M71960 77390
L71960 77080
L71930 77030
L71880 77000
L71760 77000
L71710 77030
" />
<path d="M71960 77360
L71900 77390
L71760 77390
L71710 77360
L71680 77310
L71680 77250
L71710 77200
L71760 77170
L71900 77170
L71960 77140
" />
<path d="M72490 77390
L72490 76800
" />
<path d="M72490 77360
L72440 77390
L72320 77390
L72270 77360
L72240 77340
L72210 77280
L72210 77110
L72240 77050
L72270 77030
L72320 77000
L72440 77000
L72490 77030
" />
<path d="M73220 77080
L73420 77080
" />
<path d="M73500 77390
L73220 77390
L73220 76800
L73500 76800
" />
<path d="M73760 77340
L73790 77360
L73760 77390
L73730 77360
L73760 77340
L73760 77390
" />
<path d="M74040 77390
L74040 76800
L74180 76800
L74260 76830
L74320 76890
L74350 76940
L74380 77050
L74380 77140
L74350 77250
L74320 77310
L74260 77360
L74180 77390
L74040 77390
" />
<path d="M74630 77340
L74660 77360
L74630 77390
L74600 77360
L74630 77340
L74630 77390
" />
<path d="M74880 77220
L75160 77220
" />
<path d="M74830 77390
L75020 76800
L75220 77390
" />
<path d="M75420 77340
L75440 77360
L75420 77390
L75390 77360
L75420 77340
L75420 77390
" />
<path d="M76820 77360
L76760 77390
L76650 77390
L76600 77360
L76570 77310
L76570 77080
L76600 77030
L76650 77000
L76760 77000
L76820 77030
L76850 77080
L76850 77140
L76570 77200
" />
<path d="M77330 77360
L77270 77390
L77160 77390
L77100 77360
L77070 77310
L77070 77080
L77100 77030
L77160 77000
L77270 77000
L77330 77030
L77350 77080
L77350 77140
L77070 77200
" />
<path d="M77580 77360
L77630 77390
L77750 77390
L77800 77360
L77830 77310
L77830 77280
L77800 77220
L77750 77200
L77660 77200
L77610 77170
L77580 77110
L77580 77080
L77610 77030
L77660 77000
L77750 77000
L77800 77030
" />
<path d="M78340 77360
L78280 77390
L78170 77390
L78110 77360
L78080 77340
L78060 77280
L78060 77110
L78080 77050
L78110 77030
L78170 77000
L78280 77000
L78340 77030
" />
<path d="M78590 77390
L78590 76800
" />
<path d="M78840 77390
L78840 77080
L78810 77030
L78760 77000
L78670 77000
L78620 77030
L78590 77050
" />
<path d="M79350 77360
L79290 77390
L79180 77390
L79120 77360
L79100 77310
L79100 77080
L79120 77030
L79180 77000
L79290 77000
L79350 77030
L79380 77080
L79380 77140
L79100 77200
" />
<path d="M79630 77390
L79630 77000
" />
<path d="M79630 77050
L79660 77030
L79710 77000
L79800 77000
L79850 77030
L79880 77080
L79880 77390
" />
<path d="M79880 77080
L79910 77030
L79970 77000
L80050 77000
L80110 77030
L80140 77080
L80140 77390
" />
<path d="M80670 77390
L80670 77080
L80640 77030
L80580 77000
L80470 77000
L80420 77030
" />
<path d="M80670 77360
L80610 77390
L80470 77390
L80420 77360
L80390 77310
L80390 77250
L80420 77200
L80470 77170
L80610 77170
L80670 77140
" />
<path d="M81680 76800
L81400 76800
L81370 77080
L81400 77050
L81460 77030
L81600 77030
L81650 77050
L81680 77080
L81710 77140
L81710 77280
L81680 77340
L81650 77360
L81600 77390
L81460 77390
L81400 77360
L81370 77340
" />
<path d="M81960 77340
L81990 77360
L81960 77390
L81930 77360
L81960 77340
L81960 77390
" />
<path d="M82550 77390
L82210 77390
" />
<path d="M82380 77390
L82380 76800
L82330 76890
L82270 76940
L82210 76970
" />
<path d="M82800 77340
L82830 77360
L82800 77390
L82780 77360
L82800 77340
L82800 77390
" />
<path d="M83110 77390
L83230 77390
L83280 77360
L83310 77340
L83370 77250
L83390 77140
L83390 76910
L83370 76860
L83340 76830
L83280 76800
L83170 76800
L83110 76830
L83090 76860
L83060 76910
L83060 77050
L83090 77110
L83110 77140
L83170 77170
L83280 77170
L83340 77140
L83370 77110
L83390 77050
" />
<path d="M83650 77170
L84100 77170
" />
<path d="M83870 77390
L83870 76940
" />
<path d="M84630 77390
L84630 76800
" />
<path d="M84630 77360
L84570 77390
L84460 77390
L84410 77360
L84380 77340
L84350 77280
L84350 77110
L84380 77050
L84410 77030
L84460 77000
L84570 77000
L84630 77030
" />
<path d="M84830 77000
L85050 77000
" />
<path d="M84910 77390
L84910 76890
L84940 76830
L85000 76800
L85050 76800
" />
<path d="M85220 77360
L85280 77390
L85390 77390
L85450 77360
L85470 77310
L85470 77280
L85450 77220
L85390 77200
L85300 77200
L85250 77170
L85220 77110
L85220 77080
L85250 77030
L85300 77000
L85390 77000
L85450 77030
" />
<path d="M85980 77000
L85980 77480
L85950 77530
L85920 77560
L85870 77590
L85780 77590
L85730 77560
" />
<path d="M85980 77360
L85920 77390
L85810 77390
L85750 77360
L85730 77340
L85700 77280
L85700 77110
L85730 77050
L85750 77030
L85810 77000
L85920 77000
L85980 77030
" />
<path d="M86570 77390
L86230 77390
" />
<path d="M86400 77390
L86400 76800
L86340 76890
L86290 76940
L86230 76970
" />
<path d="M86820 77170
L87270 77170
" />
<path d="M87860 77390
L87520 77390
" />
<path d="M87690 77390
L87690 76800
L87640 76890
L87580 76940
L87520 76970
" />
<path d="M87970 76640
L88510 76640
" />
<path d="M88110 77390
L88110 76800
" />
<path d="M88110 77030
L88170 77000
L88280 77000
L88340 77030
L88370 77050
L88400 77110
L88400 77280
L88370 77340
L88340 77360
L88280 77390
L88170 77390
L88110 77360
" />
<path d="M88510 76640
L89040 76640
" />
<path d="M88650 77000
L88650 77590
" />
<path d="M88650 77030
L88700 77000
L88820 77000
L88870 77030
L88900 77050
L88930 77110
L88930 77280
L88900 77340
L88870 77360
L88820 77390
L88700 77390
L88650 77360
" />
<path d="M89040 76640
L89580 76640
" />
<path d="M89270 77390
L89210 77360
L89180 77340
L89150 77280
L89150 77110
L89180 77050
L89210 77030
L89270 77000
L89350 77000
L89410 77030
L89430 77050
L89460 77110
L89460 77280
L89430 77340
L89410 77360
L89350 77390
L89270 77390
" />
<path d="M89580 76640
L90140 76640
" />
<path d="M90020 77390
L89690 77390
" />
<path d="M89860 77390
L89860 76800
L89800 76890
L89740 76940
L89690 76970
" />
<path d="M90140 76640
L90700 76640
" />
<path d="M90390 76800
L90450 76800
L90500 76830
L90530 76860
L90560 76910
L90590 77030
L90590 77170
L90560 77280
L90530 77340
L90500 77360
L90450 77390
L90390 77390
L90330 77360
L90310 77340
L90280 77280
L90250 77170
L90250 77030
L90280 76910
L90310 76860
L90330 76830
L90390 76800
" />
<path d="M90700 76640
L91430 76640
" />
<path d="M90840 77170
L91290 77170
" />
<path d="M91060 77390
L91060 76940
" />
<path d="M91430 76640
L91990 76640
" />
<path d="M91880 77390
L91540 77390
" />
<path d="M91710 77390
L91710 76800
L91650 76890
L91600 76940
L91540 76970
" />
</g>
<g style="fill:#840000; fill-opacity:0.0; 
stroke:#840000; stroke-width:100; stroke-opacity:1; 
stroke-linecap:round; stroke-linejoin:round;">
</g>
<g style="fill:#840000; fill-opacity:0.0; 
stroke:#840000; stroke-width:60; stroke-opacity:1; 
stroke-linecap:round; stroke-linejoin:round;">
<path d="M69690 75400
L112210 75400
" />
</g>
<g style="fill:#840000; fill-opacity:0.0; 
stroke:#840000; stroke-width:100; stroke-opacity:1; 
stroke-linecap:round; stroke-linejoin:round;">
</g>
<g style="fill:#840000; fill-opacity:0.0; 
stroke:#840000; stroke-width:120; stroke-opacity:1; 
stroke-linecap:round; stroke-linejoin:round;">
<text x="103540" y="76320"
textLength="2340" font-size="780" lengthAdjust="spacingAndGlyphs"
text-anchor="start" opacity="0">Rev: </text>
<path d="M104090 76290
L103890 76010
" />
<path d="M103750 76290
L103750 75700
L103980 75700
L104030 75730
L104060 75760
L104090 75810
L104090 75900
L104060 75950
L104030 75980
L103980 76010
L103750 76010
" />
<path d="M104570 76260
L104510 76290
L104400 76290
L104340 76260
L104320 76210
L104320 75980
L104340 75930
L104400 75900
L104510 75900
L104570 75930
L104600 75980
L104600 76040
L104320 76100
" />
<path d="M104790 75900
L104930 76290
L105070 75900
" />
<path d="M105300 76240
L105330 76260
L105300 76290
L105270 76260
L105300 76240
L105300 76290
" />
<path d="M105300 75930
L105330 75950
L105300 75980
L105270 75950
L105300 75930
L105300 75980
" />
</g>
<g style="fill:#840000; fill-opacity:0.0; 
stroke:#840000; stroke-width:100; stroke-opacity:1; 
stroke-linecap:round; stroke-linejoin:round;">
</g>
<g style="fill:#840000; fill-opacity:0.0; 
stroke:#840000; stroke-width:60; stroke-opacity:1; 
stroke-linecap:round; stroke-linejoin:round;">
<text x="70080" y="76320"
textLength="3780" font-size="780" lengthAdjust="spacingAndGlyphs"
text-anchor="start" opacity="0">Size: A4</text>
<path d="M70220 76260
L70300 76290
L70440 76290
L70500 76260
L70530 76240
L70550 76180
L70550 76120
L70530 76070
L70500 76040
L70440 76010
L70330 75980
L70270 75950
L70250 75930
L70220 75870
L70220 75810
L70250 75760
L70270 75730
L70330 75700
L70470 75700
L70550 75730
" />
<path d="M70810 76290
L70810 75900
" />
<path d="M70810 75700
L70780 75730
L70810 75760
L70840 75730
L70810 75700
L70810 75760
" />
<path d="M71030 75900
L71340 75900
L71030 76290
L71340 76290
" />
<path d="M71790 76260
L71730 76290
L71620 76290
L71570 76260
L71540 76210
L71540 75980
L71570 75930
L71620 75900
L71730 75900
L71790 75930
L71820 75980
L71820 76040
L71540 76100
" />
<path d="M72070 76240
L72100 76260
L72070 76290
L72040 76260
L72070 76240
L72070 76290
" />
<path d="M72070 75930
L72100 75950
L72070 75980
L72040 75950
L72070 75930
L72070 75980
" />
<path d="M72770 76120
L73060 76120
" />
<path d="M72720 76290
L72910 75700
L73110 76290
" />
<path d="M73560 75900
L73560 76290
" />
<path d="M73420 75670
L73280 76100
L73650 76100
" />
</g>
<g style="fill:#840000; fill-opacity:0.0; 
stroke:#840000; stroke-width:100; stroke-opacity:1; 
stroke-linecap:round; stroke-linejoin:round;">
</g>
<g style="fill:#840000; fill-opacity:0.0; 
stroke:#840000; stroke-width:60; stroke-opacity:1; 
stroke-linecap:round; stroke-linejoin:round;">
<text x="103540" y="77420"
textLength="3350" font-size="780" lengthAdjust="spacingAndGlyphs"
text-anchor="start" opacity="0">Id: 4/7</text>
<path d="M103710 77390
L103710 76800
" />
<path d="M104240 77390
L104240 76800
" />
<path d="M104240 77360
L104180 77390
L104070 77390
L104010 77360
L103990 77340
L103960 77280
L103960 77110
L103990 77050
L104010 77030
L104070 77000
L104180 77000
L104240 77030
" />
<path d="M104520 77340
L104550 77360
L104520 77390
L104490 77360
L104520 77340
L104520 77390
" />
<path d="M104520 77030
L104550 77050
L104520 77080
L104490 77050
L104520 77030
L104520 77080
" />
<path d="M105500 77000
L105500 77390
" />
<path d="M105360 76770
L105220 77200
L105590 77200
" />
<path d="M106230 76770
L105730 77530
" />
<path d="M106370 76800
L106770 76800
L106520 77390
" />
</g>
<g style="fill:#840000; fill-opacity:0.0; 
stroke:#840000; stroke-width:100; stroke-opacity:1; 
stroke-linecap:round; stroke-linejoin:round;">
</g>
<g style="fill:#840000; fill-opacity:0.0; 
stroke:#840000; stroke-width:60; stroke-opacity:1; 
stroke-linecap:round; stroke-linejoin:round;">
<path d="M69690 73820
L112210 73820
" />
</g>
<g style="fill:#840000; fill-opacity:0.0; 
stroke:#840000; stroke-width:100; stroke-opacity:1; 
stroke-linecap:round; stroke-linejoin:round;">
</g>
<g style="fill:#840000; fill-opacity:0.0; 
stroke:#840000; stroke-width:160; stroke-opacity:1; 
stroke-linecap:round; stroke-linejoin:round;">
<text x="70080" y="74920"
textLength="3710" font-size="1050" lengthAdjust="spacingAndGlyphs"
text-anchor="start" opacity="0">Title: </text>
<path d="M70360 74090
L70810 74090
" />
<path d="M70480 74880
L70580 74090
" />
<path d="M70970 74880
L71040 74360
" />
<path d="M71070 74090
L71030 74130
L71060 74170
L71110 74130
L71070 74090
L71060 74170
" />
<path d="M71300 74360
L71600 74360
" />
<path d="M71450 74090
L71360 74770
L71390 74840
L71460 74880
L71540 74880
" />
<path d="M71910 74880
L71840 74840
L71820 74770
L71900 74090
" />
<path d="M72520 74840
L72440 74880
L72290 74880
L72220 74840
L72190 74770
L72230 74470
L72280 74390
L72360 74360
L72510 74360
L72580 74390
L72610 74470
L72600 74540
L72210 74620
" />
<path d="M72900 74810
L72930 74840
L72890 74880
L72860 74840
L72900 74810
L72890 74880
" />
<path d="M72950 74390
L72990 74430
L72940 74470
L72910 74430
L72950 74390
L72940 74470
" />
</g>
<g style="fill:#840000; fill-opacity:0.0; 
stroke:#840000; stroke-width:100; stroke-opacity:1; 
stroke-linecap:round; stroke-linejoin:round;">
</g>
<g style="fill:#840000; fill-opacity:0.0; 
stroke:#840000; stroke-width:60; stroke-opacity:1; 
stroke-linecap:round; stroke-linejoin:round;">
<text x="70080" y="73400"
textLength="12260" font-size="780" lengthAdjust="spacingAndGlyphs"
text-anchor="start" opacity="0">File: canbus_connector.sch</text>
<path d="M70440 73060
L70250 73060
" />
<path d="M70250 73370
L70250 72780
L70530 72780
" />
<path d="M70750 73370
L70750 72980
" />
<path d="M70750 72780
L70720 72810
L70750 72840
L70780 72810
L70750 72780
L70750 72840
" />
<path d="M71120 73370
L71060 73340
L71030 73290
L71030 72780
" />
<path d="M71570 73340
L71510 73370
L71400 73370
L71340 73340
L71310 73290
L71310 73060
L71340 73010
L71400 72980
L71510 72980
L71570 73010
L71590 73060
L71590 73120
L71310 73180
" />
<path d="M71850 73320
L71880 73340
L71850 73370
L71820 73340
L71850 73320
L71850 73370
" />
<path d="M71850 73010
L71880 73030
L71850 73060
L71820 73030
L71850 73010
L71850 73060
" />
<path d="M72830 73340
L72770 73370
L72660 73370
L72610 73340
L72580 73320
L72550 73260
L72550 73090
L72580 73030
L72610 73010
L72660 72980
L72770 72980
L72830 73010
" />
<path d="M73340 73370
L73340 73060
L73310 73010
L73250 72980
L73140 72980
L73080 73010
" />
<path d="M73340 73340
L73280 73370
L73140 73370
L73080 73340
L73060 73290
L73060 73230
L73080 73180
L73140 73150
L73280 73150
L73340 73120
" />
<path d="M73620 72980
L73620 73370
" />
<path d="M73620 73030
L73650 73010
L73700 72980
L73790 72980
L73840 73010
L73870 73060
L73870 73370
" />
<path d="M74150 73370
L74150 72780
" />
<path d="M74150 73010
L74210 72980
L74320 72980
L74380 73010
L74400 73030
L74430 73090
L74430 73260
L74400 73320
L74380 73340
L74320 73370
L74210 73370
L74150 73340
" />
<path d="M74940 72980
L74940 73370
" />
<path d="M74680 72980
L74680 73290
L74710 73340
L74770 73370
L74850 73370
L74910 73340
L74940 73320
" />
<path d="M75190 73340
L75250 73370
L75360 73370
L75420 73340
L75440 73290
L75440 73260
L75420 73200
L75360 73180
L75270 73180
L75220 73150
L75190 73090
L75190 73060
L75220 73010
L75270 72980
L75360 72980
L75420 73010
" />
<path d="M75560 73430
L76010 73430
" />
<path d="M76400 73340
L76340 73370
L76230 73370
L76170 73340
L76150 73320
L76120 73260
L76120 73090
L76150 73030
L76170 73010
L76230 72980
L76340 72980
L76400 73010
" />
<path d="M76740 73370
L76680 73340
L76650 73320
L76620 73260
L76620 73090
L76650 73030
L76680 73010
L76740 72980
L76820 72980
L76880 73010
L76900 73030
L76930 73090
L76930 73260
L76900 73320
L76880 73340
L76820 73370
L76740 73370
" />
<path d="M77190 72980
L77190 73370
" />
<path d="M77190 73030
L77210 73010
L77270 72980
L77350 72980
L77410 73010
L77440 73060
L77440 73370
" />
<path d="M77720 72980
L77720 73370
" />
<path d="M77720 73030
L77750 73010
L77800 72980
L77890 72980
L77940 73010
L77970 73060
L77970 73370
" />
<path d="M78480 73340
L78420 73370
L78310 73370
L78250 73340
L78220 73290
L78220 73060
L78250 73010
L78310 72980
L78420 72980
L78480 73010
L78510 73060
L78510 73120
L78220 73180
" />
<path d="M79010 73340
L78960 73370
L78840 73370
L78790 73340
L78760 73320
L78730 73260
L78730 73090
L78760 73030
L78790 73010
L78840 72980
L78960 72980
L79010 73010
" />
<path d="M79180 72980
L79400 72980
" />
<path d="M79260 72780
L79260 73290
L79290 73340
L79350 73370
L79400 73370
" />
<path d="M79690 73370
L79630 73340
L79600 73320
L79570 73260
L79570 73090
L79600 73030
L79630 73010
L79690 72980
L79770 72980
L79830 73010
L79850 73030
L79880 73090
L79880 73260
L79850 73320
L79830 73340
L79770 73370
L79690 73370
" />
<path d="M80140 73370
L80140 72980
" />
<path d="M80140 73090
L80160 73030
L80190 73010
L80250 72980
L80300 72980
" />
<path d="M80500 73320
L80530 73340
L80500 73370
L80470 73340
L80500 73320
L80500 73370
" />
<path d="M80750 73340
L80810 73370
L80920 73370
L80980 73340
L81010 73290
L81010 73260
L80980 73200
L80920 73180
L80840 73180
L80780 73150
L80750 73090
L80750 73060
L80780 73010
L80840 72980
L80920 72980
L80980 73010
" />
<path d="M81510 73340
L81460 73370
L81340 73370
L81290 73340
L81260 73320
L81230 73260
L81230 73090
L81260 73030
L81290 73010
L81340 72980
L81460 72980
L81510 73010
" />
<path d="M81760 73370
L81760 72780
" />
<path d="M82020 73370
L82020 73060
L81990 73010
L81930 72980
L81850 72980
L81790 73010
L81760 73030
" />
</g>
<g style="fill:#840000; fill-opacity:0.0; 
stroke:#840000; stroke-width:100; stroke-opacity:1; 
stroke-linecap:round; stroke-linejoin:round;">
</g>
<g style="fill:#840000; fill-opacity:0.0; 
stroke:#840000; stroke-width:60; stroke-opacity:1; 
stroke-linecap:round; stroke-linejoin:round;">
<path d="M69690 71460
L112210 71460
" />
</g>
<g style="fill:#840000; fill-opacity:0.0; 
stroke:#840000; stroke-width:100; stroke-opacity:1; 
stroke-linecap:round; stroke-linejoin:round;">
</g>
<g style="fill:#840000; fill-opacity:0.0; 
stroke:#840000; stroke-width:60; stroke-opacity:1; 
stroke-linecap:round; stroke-linejoin:round;">
<text x="70080" y="72340"
textLength="10850" font-size="780" lengthAdjust="spacingAndGlyphs"
text-anchor="start" opacity="0">Sheet: /CANBUS CONN/</text>
<path d="M70220 72280
L70300 72310
L70440 72310
L70500 72280
L70530 72260
L70550 72200
L70550 72140
L70530 72090
L70500 72060
L70440 72030
L70330 72000
L70270 71970
L70250 71950
L70220 71890
L70220 71830
L70250 71780
L70270 71750
L70330 71720
L70470 71720
L70550 71750
" />
<path d="M70810 72310
L70810 71720
" />
<path d="M71060 72310
L71060 72000
L71030 71950
L70980 71920
L70890 71920
L70840 71950
L70810 71970
" />
<path d="M71570 72280
L71510 72310
L71400 72310
L71340 72280
L71310 72230
L71310 72000
L71340 71950
L71400 71920
L71510 71920
L71570 71950
L71590 72000
L71590 72060
L71310 72120
" />
<path d="M72070 72280
L72020 72310
L71900 72310
L71850 72280
L71820 72230
L71820 72000
L71850 71950
L71900 71920
L72020 71920
L72070 71950
L72100 72000
L72100 72060
L71820 72120
" />
<path d="M72270 71920
L72490 71920
" />
<path d="M72350 71720
L72350 72230
L72380 72280
L72440 72310
L72490 72310
" />
<path d="M72690 72260
L72720 72280
L72690 72310
L72660 72280
L72690 72260
L72690 72310
" />
<path d="M72690 71950
L72720 71970
L72690 72000
L72660 71970
L72690 71950
L72690 72000
" />
<path d="M73840 71690
L73340 72450
" />
<path d="M74380 72260
L74350 72280
L74260 72310
L74210 72310
L74120 72280
L74070 72230
L74040 72170
L74010 72060
L74010 71970
L74040 71860
L74070 71810
L74120 71750
L74210 71720
L74260 71720
L74350 71750
L74380 71780
" />
<path d="M74600 72140
L74880 72140
" />
<path d="M74540 72310
L74740 71720
L74940 72310
" />
<path d="M75130 72310
L75130 71720
L75470 72310
L75470 71720
" />
<path d="M75950 72000
L76030 72030
L76060 72060
L76090 72120
L76090 72200
L76060 72260
L76030 72280
L75980 72310
L75750 72310
L75750 71720
L75950 71720
L76010 71750
L76030 71780
L76060 71830
L76060 71890
L76030 71950
L76010 71970
L75950 72000
L75750 72000
" />
<path d="M76340 71720
L76340 72200
L76370 72260
L76400 72280
L76450 72310
L76570 72310
L76620 72280
L76650 72260
L76680 72200
L76680 71720
" />
<path d="M76930 72280
L77020 72310
L77160 72310
L77210 72280
L77240 72260
L77270 72200
L77270 72140
L77240 72090
L77210 72060
L77160 72030
L77040 72000
L76990 71970
L76960 71950
L76930 71890
L76930 71830
L76960 71780
L76990 71750
L77040 71720
L77190 71720
L77270 71750
" />
<path d="M78310 72260
L78280 72280
L78200 72310
L78140 72310
L78060 72280
L78000 72230
L77970 72170
L77940 72060
L77940 71970
L77970 71860
L78000 71810
L78060 71750
L78140 71720
L78200 71720
L78280 71750
L78310 71780
" />
<path d="M78670 71720
L78790 71720
L78840 71750
L78900 71810
L78930 71920
L78930 72120
L78900 72230
L78840 72280
L78790 72310
L78670 72310
L78620 72280
L78560 72230
L78530 72120
L78530 71920
L78560 71810
L78620 71750
L78670 71720
" />
<path d="M79180 72310
L79180 71720
L79520 72310
L79520 71720
" />
<path d="M79800 72310
L79800 71720
L80140 72310
L80140 71720
" />
<path d="M80840 71690
L80330 72450
" />
</g>
<g style="fill:#840000; fill-opacity:0.0; 
stroke:#840000; stroke-width:100; stroke-opacity:1; 
stroke-linecap:round; stroke-linejoin:round;">
</g>
<g style="fill:#840000; fill-opacity:0.0; 
stroke:#840000; stroke-width:60; stroke-opacity:1; 
stroke-linecap:round; stroke-linejoin:round;">
<path d="M77560 75400
L77560 76580
" />
</g>
<g style="fill:#840000; fill-opacity:0.0; 
stroke:#840000; stroke-width:100; stroke-opacity:1; 
stroke-linecap:round; stroke-linejoin:round;">
</g>
<g style="fill:#840000; fill-opacity:0.0; 
stroke:#840000; stroke-width:60; stroke-opacity:1; 
stroke-linecap:round; stroke-linejoin:round;">
<path d="M102760 75400
L102760 77960
" />
</g>
<g style="fill:#840000; fill-opacity:0.0; 
stroke:#840000; stroke-width:0; stroke-opacity:1; 
stroke-linecap:round; stroke-linejoin:round;">
<g >
</g>
<g style="fill:#840000; fill-opacity:0.0; 
stroke:#840000; stroke-width:60; stroke-opacity:1; 
stroke-linecap:round; stroke-linejoin:round;">
<path style="fill:#840000; fill-opacity:0.0; 
stroke:#840000; stroke-width:60; stroke-opacity:1; 
stroke-linecap:round; stroke-linejoin:round;fill:none"
d="M 49500,46000
49500,46500
50000,46500
49500,47000
49000,46500
49500,46500
" /> 
</g>
<g style="fill:#008484; fill-opacity:0.0; 
stroke:#008484; stroke-width:60; stroke-opacity:1; 
stroke-linecap:round; stroke-linejoin:round;">
<text x="50000" y="48270"
textLength="1580" font-size="660" lengthAdjust="spacingAndGlyphs"
text-anchor="middle" opacity="0">GND</text>
<path d="M49610 47770
L49570 47740
L49500 47740
L49420 47770
L49380 47810
L49350 47860
L49330 47960
L49330 48030
L49350 48120
L49380 48170
L49420 48220
L49500 48240
L49540 48240
L49610 48220
L49640 48190
L49640 48030
L49540 48030
" />
<path d="M49850 48240
L49850 47740
L50140 48240
L50140 47740
" />
<path d="M50380 48240
L50380 47740
L50500 47740
L50570 47770
L50610 47810
L50640 47860
L50660 47960
L50660 48030
L50640 48120
L50610 48170
L50570 48220
L50500 48240
L50380 48240
" />
</g>
</g>
<g style="fill:#008484; fill-opacity:0.0; 
stroke:#008484; stroke-width:0; stroke-opacity:1; 
stroke-linecap:round; stroke-linejoin:round;">
<g >
</g>
<g style="fill:#840000; fill-opacity:0.0; 
stroke:#840000; stroke-width:0; stroke-opacity:1; 
stroke-linecap:round; stroke-linejoin:round;">
</g>
<g style="fill:#FFFFC2; fill-opacity:0.0; 
stroke:#FFFFC2; stroke-width:0; stroke-opacity:1; 
stroke-linecap:round; stroke-linejoin:round;">
</g>
<g style="fill:#FFFFC2; fill-opacity:0.6; 
stroke:#FFFFC2; stroke-width:0; stroke-opacity:1; 
stroke-linecap:round; stroke-linejoin:round;">
<rect x="72000" y="29000" width="6000" height="9000" rx="0" />
</g>
<g style="fill:#840000; fill-opacity:0.6; 
stroke:#840000; stroke-width:0; stroke-opacity:1; 
stroke-linecap:round; stroke-linejoin:round;">
</g>
<g style="fill:#840000; fill-opacity:0.0; 
stroke:#840000; stroke-width:100; stroke-opacity:1; 
stroke-linecap:round; stroke-linejoin:round;">
<rect x="72000" y="29000" width="6000" height="9000" rx="0" />
<rect x="72000" y="29000" width="6000" height="9000" rx="0" />
</g>
<g style="fill:#840000; fill-opacity:0.0; 
stroke:#840000; stroke-width:60; stroke-opacity:1; 
stroke-linecap:round; stroke-linejoin:round;">
<path style="fill:#840000; fill-opacity:0.0; 
stroke:#840000; stroke-width:60; stroke-opacity:1; 
stroke-linecap:round; stroke-linejoin:round;fill:none"
d="M 77000,32250
77500,32250
" /> 
<path style="fill:#840000; fill-opacity:0.0; 
stroke:#840000; stroke-width:60; stroke-opacity:1; 
stroke-linecap:round; stroke-linejoin:round;fill:none"
d="M 77000,31750
77500,31750
" /> 
<path style="fill:#840000; fill-opacity:0.0; 
stroke:#840000; stroke-width:60; stroke-opacity:1; 
stroke-linecap:round; stroke-linejoin:round;fill:none"
d="M 77500,35250
77000,35250
77000,35250
" /> 
<path style="fill:#840000; fill-opacity:0.0; 
stroke:#840000; stroke-width:60; stroke-opacity:1; 
stroke-linecap:round; stroke-linejoin:round;fill:none"
d="M 77500,34750
77000,34750
77000,34750
" /> 
<path style="fill:#840000; fill-opacity:0.0; 
stroke:#840000; stroke-width:60; stroke-opacity:1; 
stroke-linecap:round; stroke-linejoin:round;fill:none"
d="M 77500,34250
77000,34250
77000,34250
" /> 
<path style="fill:#840000; fill-opacity:0.0; 
stroke:#840000; stroke-width:60; stroke-opacity:1; 
stroke-linecap:round; stroke-linejoin:round;fill:none"
d="M 77500,33750
77000,33750
77000,33750
" /> 
<path style="fill:#840000; fill-opacity:0.0; 
stroke:#840000; stroke-width:60; stroke-opacity:1; 
stroke-linecap:round; stroke-linejoin:round;fill:none"
d="M 77500,33250
77000,33250
77000,33250
" /> 
<path style="fill:#840000; fill-opacity:0.0; 
stroke:#840000; stroke-width:60; stroke-opacity:1; 
stroke-linecap:round; stroke-linejoin:round;fill:none"
d="M 77000,32750
77500,32750
77500,32750
" /> 
<path style="fill:#840000; fill-opacity:0.0; 
stroke:#840000; stroke-width:60; stroke-opacity:1; 
stroke-linecap:round; stroke-linejoin:round;fill:none"
d="M 77500,35750
77500,31250
73500,31250
73500,32250
73000,32250
73000,32750
72500,32750
72500,34250
73000,34250
73000,34750
73500,34750
73500,35750
77500,35750
Z" /> 
<path d="M72000 37000
L71000 37000
" />
<text x="71500" y="36900"
textLength="540" font-size="660" lengthAdjust="spacingAndGlyphs"
text-anchor="middle" opacity="0">1</text>
<path d="M71640 36870
L71350 36870
" />
<path d="M71500 36870
L71500 36370
L71450 36440
L71400 36490
L71350 36510
" />
<path d="M72000 36000
L71000 36000
" />
<text x="71500" y="35900"
textLength="540" font-size="660" lengthAdjust="spacingAndGlyphs"
text-anchor="middle" opacity="0">2</text>
<path d="M71350 35420
L71380 35400
L71420 35370
L71540 35370
L71590 35400
L71610 35420
L71640 35470
L71640 35510
L71610 35590
L71330 35870
L71640 35870
" />
<path d="M72000 35000
L71000 35000
" />
<text x="71500" y="34900"
textLength="540" font-size="660" lengthAdjust="spacingAndGlyphs"
text-anchor="middle" opacity="0">3</text>
<path d="M71330 34370
L71640 34370
L71470 34560
L71540 34560
L71590 34590
L71610 34610
L71640 34660
L71640 34780
L71610 34820
L71590 34850
L71540 34870
L71400 34870
L71350 34850
L71330 34820
" />
<path d="M72000 34000
L71000 34000
" />
<text x="71500" y="33900"
textLength="540" font-size="660" lengthAdjust="spacingAndGlyphs"
text-anchor="middle" opacity="0">4</text>
<path d="M71590 33540
L71590 33870
" />
<path d="M71470 33350
L71350 33700
L71660 33700
" />
<path d="M72000 33000
L71000 33000
" />
<text x="71500" y="32900"
textLength="540" font-size="660" lengthAdjust="spacingAndGlyphs"
text-anchor="middle" opacity="0">5</text>
<path d="M71610 32370
L71380 32370
L71350 32610
L71380 32590
L71420 32560
L71540 32560
L71590 32590
L71610 32610
L71640 32660
L71640 32780
L71610 32820
L71590 32850
L71540 32870
L71420 32870
L71380 32850
L71350 32820
" />
<path d="M72000 32000
L71000 32000
" />
<text x="71500" y="31900"
textLength="540" font-size="660" lengthAdjust="spacingAndGlyphs"
text-anchor="middle" opacity="0">6</text>
<path d="M71590 31370
L71500 31370
L71450 31400
L71420 31420
L71380 31490
L71350 31590
L71350 31780
L71380 31820
L71400 31850
L71450 31870
L71540 31870
L71590 31850
L71610 31820
L71640 31780
L71640 31660
L71610 31610
L71590 31590
L71540 31560
L71450 31560
L71400 31590
L71380 31610
L71350 31660
" />
<path d="M72000 31000
L71000 31000
" />
<text x="71500" y="30900"
textLength="540" font-size="660" lengthAdjust="spacingAndGlyphs"
text-anchor="middle" opacity="0">7</text>
<path d="M71330 30370
L71660 30370
L71450 30870
" />
<path d="M72000 30000
L71000 30000
" />
<text x="71500" y="29900"
textLength="540" font-size="660" lengthAdjust="spacingAndGlyphs"
text-anchor="middle" opacity="0">8</text>
<path d="M71450 29590
L71400 29560
L71380 29540
L71350 29490
L71350 29470
L71380 29420
L71400 29400
L71450 29370
L71540 29370
L71590 29400
L71610 29420
L71640 29470
L71640 29490
L71610 29540
L71590 29560
L71540 29590
L71450 29590
L71400 29610
L71380 29630
L71350 29680
L71350 29780
L71380 29820
L71400 29850
L71450 29870
L71540 29870
L71590 29850
L71610 29820
L71640 29780
L71640 29680
L71610 29630
L71590 29610
L71540 29590
" />
<path d="M75000 38000
L75000 39000
" />
<g transform="rotate(-90 74900 38500)">
<text x="74900" y="38500"
textLength="1060" font-size="660" lengthAdjust="spacingAndGlyphs"
text-anchor="middle" opacity="0">SH</text>
</g>
<path d="M74850 38900
L74870 38830
L74870 38710
L74850 38660
L74820 38640
L74780 38610
L74730 38610
L74680 38640
L74660 38660
L74630 38710
L74610 38800
L74590 38850
L74560 38880
L74510 38900
L74470 38900
L74420 38880
L74400 38850
L74370 38800
L74370 38690
L74400 38610
" />
<path d="M74870 38400
L74370 38400
" />
<path d="M74610 38400
L74610 38110
" />
<path d="M74870 38110
L74370 38110
" />
</g>
<g style="fill:#008484; fill-opacity:0.0; 
stroke:#008484; stroke-width:60; stroke-opacity:1; 
stroke-linecap:round; stroke-linejoin:round;">
<text x="72990" y="28770"
textLength="1870" font-size="660" lengthAdjust="spacingAndGlyphs"
text-anchor="middle" opacity="0">J602</text>
<path d="M72340 28240
L72340 28600
L72320 28670
L72270 28720
L72200 28740
L72150 28740
" />
<path d="M72790 28240
L72700 28240
L72650 28270
L72630 28290
L72580 28360
L72560 28460
L72560 28650
L72580 28690
L72600 28720
L72650 28740
L72750 28740
L72790 28720
L72820 28690
L72840 28650
L72840 28530
L72820 28480
L72790 28460
L72750 28430
L72650 28430
L72600 28460
L72580 28480
L72560 28530
" />
<path d="M73150 28240
L73200 28240
L73250 28270
L73270 28290
L73290 28340
L73320 28430
L73320 28550
L73290 28650
L73270 28690
L73250 28720
L73200 28740
L73150 28740
L73100 28720
L73080 28690
L73060 28650
L73030 28550
L73030 28430
L73060 28340
L73080 28290
L73100 28270
L73150 28240
" />
<path d="M73510 28290
L73530 28270
L73580 28240
L73700 28240
L73750 28270
L73770 28290
L73790 28340
L73790 28380
L73770 28460
L73490 28740
L73790 28740
" />
<text x="76490" y="28770"
textLength="1890" font-size="660" lengthAdjust="spacingAndGlyphs"
text-anchor="middle" opacity="0">RJ45</text>
<path d="M75970 28740
L75810 28500
" />
<path d="M75690 28740
L75690 28240
L75880 28240
L75930 28270
L75950 28290
L75970 28340
L75970 28410
L75950 28460
L75930 28480
L75880 28500
L75690 28500
" />
<path d="M76330 28240
L76330 28600
L76310 28670
L76260 28720
L76190 28740
L76140 28740
" />
<path d="M76780 28410
L76780 28740
" />
<path d="M76660 28220
L76540 28570
L76850 28570
" />
<path d="M77280 28240
L77040 28240
L77020 28480
L77040 28460
L77090 28430
L77210 28430
L77260 28460
L77280 28480
L77310 28530
L77310 28650
L77280 28690
L77260 28720
L77210 28740
L77090 28740
L77040 28720
L77020 28690
" />
</g>
</g>
<g style="fill:#008484; fill-opacity:0.0; 
stroke:#008484; stroke-width:0; stroke-opacity:1; 
stroke-linecap:round; stroke-linejoin:round;">
<g >
</g>
<g style="fill:#840000; fill-opacity:0.0; 
stroke:#840000; stroke-width:0; stroke-opacity:1; 
stroke-linecap:round; stroke-linejoin:round;">
</g>
<g style="fill:#840000; fill-opacity:0.0; 
stroke:#840000; stroke-width:60; stroke-opacity:1; 
stroke-linecap:round; stroke-linejoin:round;">
<path style="fill:#840000; fill-opacity:0.0; 
stroke:#840000; stroke-width:60; stroke-opacity:1; 
stroke-linecap:round; stroke-linejoin:round;fill:none"
d="M 32000,38000
32000,38500
32500,38500
32000,39000
31500,38500
32000,38500
" /> 
</g>
<g style="fill:#008484; fill-opacity:0.0; 
stroke:#008484; stroke-width:60; stroke-opacity:1; 
stroke-linecap:round; stroke-linejoin:round;">
<text x="32500" y="40270"
textLength="1580" font-size="660" lengthAdjust="spacingAndGlyphs"
text-anchor="middle" opacity="0">GND</text>
<path d="M32110 39770
L32070 39740
L32000 39740
L31920 39770
L31880 39810
L31850 39860
L31830 39960
L31830 40030
L31850 40120
L31880 40170
L31920 40220
L32000 40240
L32040 40240
L32110 40220
L32140 40190
L32140 40030
L32040 40030
" />
<path d="M32350 40240
L32350 39740
L32640 40240
L32640 39740
" />
<path d="M32880 40240
L32880 39740
L33000 39740
L33070 39770
L33110 39810
L33140 39860
L33160 39960
L33160 40030
L33140 40120
L33110 40170
L33070 40220
L33000 40240
L32880 40240
" />
</g>
</g>
<g style="fill:#008484; fill-opacity:0.0; 
stroke:#008484; stroke-width:0; stroke-opacity:1; 
stroke-linecap:round; stroke-linejoin:round;">
<g >
</g>
<g style="fill:#840000; fill-opacity:0.0; 
stroke:#840000; stroke-width:0; stroke-opacity:1; 
stroke-linecap:round; stroke-linejoin:round;">
</g>
<g style="fill:#FFFFC2; fill-opacity:0.0; 
stroke:#FFFFC2; stroke-width:0; stroke-opacity:1; 
stroke-linecap:round; stroke-linejoin:round;">
</g>
<g style="fill:#FFFFC2; fill-opacity:0.6; 
stroke:#FFFFC2; stroke-width:0; stroke-opacity:1; 
stroke-linecap:round; stroke-linejoin:round;">
<rect x="56500" y="29000" width="6000" height="9000" rx="0" />
</g>
<g style="fill:#840000; fill-opacity:0.6; 
stroke:#840000; stroke-width:0; stroke-opacity:1; 
stroke-linecap:round; stroke-linejoin:round;">
</g>
<g style="fill:#840000; fill-opacity:0.0; 
stroke:#840000; stroke-width:100; stroke-opacity:1; 
stroke-linecap:round; stroke-linejoin:round;">
<rect x="56500" y="29000" width="6000" height="9000" rx="0" />
<rect x="56500" y="29000" width="6000" height="9000" rx="0" />
</g>
<g style="fill:#840000; fill-opacity:0.0; 
stroke:#840000; stroke-width:60; stroke-opacity:1; 
stroke-linecap:round; stroke-linejoin:round;">
<path style="fill:#840000; fill-opacity:0.0; 
stroke:#840000; stroke-width:60; stroke-opacity:1; 
stroke-linecap:round; stroke-linejoin:round;fill:none"
d="M 61500,32250
62000,32250
" /> 
<path style="fill:#840000; fill-opacity:0.0; 
stroke:#840000; stroke-width:60; stroke-opacity:1; 
stroke-linecap:round; stroke-linejoin:round;fill:none"
d="M 61500,31750
62000,31750
" /> 
<path style="fill:#840000; fill-opacity:0.0; 
stroke:#840000; stroke-width:60; stroke-opacity:1; 
stroke-linecap:round; stroke-linejoin:round;fill:none"
d="M 62000,35250
61500,35250
61500,35250
" /> 
<path style="fill:#840000; fill-opacity:0.0; 
stroke:#840000; stroke-width:60; stroke-opacity:1; 
stroke-linecap:round; stroke-linejoin:round;fill:none"
d="M 62000,34750
61500,34750
61500,34750
" /> 
<path style="fill:#840000; fill-opacity:0.0; 
stroke:#840000; stroke-width:60; stroke-opacity:1; 
stroke-linecap:round; stroke-linejoin:round;fill:none"
d="M 62000,34250
61500,34250
61500,34250
" /> 
<path style="fill:#840000; fill-opacity:0.0; 
stroke:#840000; stroke-width:60; stroke-opacity:1; 
stroke-linecap:round; stroke-linejoin:round;fill:none"
d="M 62000,33750
61500,33750
61500,33750
" /> 
<path style="fill:#840000; fill-opacity:0.0; 
stroke:#840000; stroke-width:60; stroke-opacity:1; 
stroke-linecap:round; stroke-linejoin:round;fill:none"
d="M 62000,33250
61500,33250
61500,33250
" /> 
<path style="fill:#840000; fill-opacity:0.0; 
stroke:#840000; stroke-width:60; stroke-opacity:1; 
stroke-linecap:round; stroke-linejoin:round;fill:none"
d="M 61500,32750
62000,32750
62000,32750
" /> 
<path style="fill:#840000; fill-opacity:0.0; 
stroke:#840000; stroke-width:60; stroke-opacity:1; 
stroke-linecap:round; stroke-linejoin:round;fill:none"
d="M 62000,35750
62000,31250
58000,31250
58000,32250
57500,32250
57500,32750
57000,32750
57000,34250
57500,34250
57500,34750
58000,34750
58000,35750
62000,35750
Z" /> 
<path d="M56500 37000
L55500 37000
" />
<text x="56000" y="36900"
textLength="540" font-size="660" lengthAdjust="spacingAndGlyphs"
text-anchor="middle" opacity="0">1</text>
<path d="M56140 36870
L55850 36870
" />
<path d="M56000 36870
L56000 36370
L55950 36440
L55900 36490
L55850 36510
" />
<path d="M56500 36000
L55500 36000
" />
<text x="56000" y="35900"
textLength="540" font-size="660" lengthAdjust="spacingAndGlyphs"
text-anchor="middle" opacity="0">2</text>
<path d="M55850 35420
L55880 35400
L55920 35370
L56040 35370
L56090 35400
L56110 35420
L56140 35470
L56140 35510
L56110 35590
L55830 35870
L56140 35870
" />
<path d="M56500 35000
L55500 35000
" />
<text x="56000" y="34900"
textLength="540" font-size="660" lengthAdjust="spacingAndGlyphs"
text-anchor="middle" opacity="0">3</text>
<path d="M55830 34370
L56140 34370
L55970 34560
L56040 34560
L56090 34590
L56110 34610
L56140 34660
L56140 34780
L56110 34820
L56090 34850
L56040 34870
L55900 34870
L55850 34850
L55830 34820
" />
<path d="M56500 34000
L55500 34000
" />
<text x="56000" y="33900"
textLength="540" font-size="660" lengthAdjust="spacingAndGlyphs"
text-anchor="middle" opacity="0">4</text>
<path d="M56090 33540
L56090 33870
" />
<path d="M55970 33350
L55850 33700
L56160 33700
" />
<path d="M56500 33000
L55500 33000
" />
<text x="56000" y="32900"
textLength="540" font-size="660" lengthAdjust="spacingAndGlyphs"
text-anchor="middle" opacity="0">5</text>
<path d="M56110 32370
L55880 32370
L55850 32610
L55880 32590
L55920 32560
L56040 32560
L56090 32590
L56110 32610
L56140 32660
L56140 32780
L56110 32820
L56090 32850
L56040 32870
L55920 32870
L55880 32850
L55850 32820
" />
<path d="M56500 32000
L55500 32000
" />
<text x="56000" y="31900"
textLength="540" font-size="660" lengthAdjust="spacingAndGlyphs"
text-anchor="middle" opacity="0">6</text>
<path d="M56090 31370
L56000 31370
L55950 31400
L55920 31420
L55880 31490
L55850 31590
L55850 31780
L55880 31820
L55900 31850
L55950 31870
L56040 31870
L56090 31850
L56110 31820
L56140 31780
L56140 31660
L56110 31610
L56090 31590
L56040 31560
L55950 31560
L55900 31590
L55880 31610
L55850 31660
" />
<path d="M56500 31000
L55500 31000
" />
<text x="56000" y="30900"
textLength="540" font-size="660" lengthAdjust="spacingAndGlyphs"
text-anchor="middle" opacity="0">7</text>
<path d="M55830 30370
L56160 30370
L55950 30870
" />
<path d="M56500 30000
L55500 30000
" />
<text x="56000" y="29900"
textLength="540" font-size="660" lengthAdjust="spacingAndGlyphs"
text-anchor="middle" opacity="0">8</text>
<path d="M55950 29590
L55900 29560
L55880 29540
L55850 29490
L55850 29470
L55880 29420
L55900 29400
L55950 29370
L56040 29370
L56090 29400
L56110 29420
L56140 29470
L56140 29490
L56110 29540
L56090 29560
L56040 29590
L55950 29590
L55900 29610
L55880 29630
L55850 29680
L55850 29780
L55880 29820
L55900 29850
L55950 29870
L56040 29870
L56090 29850
L56110 29820
L56140 29780
L56140 29680
L56110 29630
L56090 29610
L56040 29590
" />
<path d="M59500 38000
L59500 39000
" />
<g transform="rotate(-90 59400 38500)">
<text x="59400" y="38500"
textLength="1060" font-size="660" lengthAdjust="spacingAndGlyphs"
text-anchor="middle" opacity="0">SH</text>
</g>
<path d="M59350 38900
L59370 38830
L59370 38710
L59350 38660
L59320 38640
L59280 38610
L59230 38610
L59180 38640
L59160 38660
L59130 38710
L59110 38800
L59090 38850
L59060 38880
L59010 38900
L58970 38900
L58920 38880
L58900 38850
L58870 38800
L58870 38690
L58900 38610
" />
<path d="M59370 38400
L58870 38400
" />
<path d="M59110 38400
L59110 38110
" />
<path d="M59370 38110
L58870 38110
" />
</g>
<g style="fill:#008484; fill-opacity:0.0; 
stroke:#008484; stroke-width:60; stroke-opacity:1; 
stroke-linecap:round; stroke-linejoin:round;">
<text x="57490" y="28770"
textLength="1870" font-size="660" lengthAdjust="spacingAndGlyphs"
text-anchor="middle" opacity="0">J601</text>
<path d="M56840 28240
L56840 28600
L56820 28670
L56770 28720
L56700 28740
L56650 28740
" />
<path d="M57290 28240
L57200 28240
L57150 28270
L57130 28290
L57080 28360
L57060 28460
L57060 28650
L57080 28690
L57100 28720
L57150 28740
L57250 28740
L57290 28720
L57320 28690
L57340 28650
L57340 28530
L57320 28480
L57290 28460
L57250 28430
L57150 28430
L57100 28460
L57080 28480
L57060 28530
" />
<path d="M57650 28240
L57700 28240
L57750 28270
L57770 28290
L57790 28340
L57820 28430
L57820 28550
L57790 28650
L57770 28690
L57750 28720
L57700 28740
L57650 28740
L57600 28720
L57580 28690
L57560 28650
L57530 28550
L57530 28430
L57560 28340
L57580 28290
L57600 28270
L57650 28240
" />
<path d="M58290 28740
L58010 28740
" />
<path d="M58150 28740
L58150 28240
L58100 28310
L58060 28360
L58010 28380
" />
<text x="60990" y="28770"
textLength="1890" font-size="660" lengthAdjust="spacingAndGlyphs"
text-anchor="middle" opacity="0">RJ45</text>
<path d="M60470 28740
L60310 28500
" />
<path d="M60190 28740
L60190 28240
L60380 28240
L60430 28270
L60450 28290
L60470 28340
L60470 28410
L60450 28460
L60430 28480
L60380 28500
L60190 28500
" />
<path d="M60830 28240
L60830 28600
L60810 28670
L60760 28720
L60690 28740
L60640 28740
" />
<path d="M61280 28410
L61280 28740
" />
<path d="M61160 28220
L61040 28570
L61350 28570
" />
<path d="M61780 28240
L61540 28240
L61520 28480
L61540 28460
L61590 28430
L61710 28430
L61760 28460
L61780 28480
L61810 28530
L61810 28650
L61780 28690
L61760 28720
L61710 28740
L61590 28740
L61540 28720
L61520 28690
" />
</g>
</g>
<g style="fill:#008484; fill-opacity:0.0; 
stroke:#008484; stroke-width:60; stroke-opacity:1; 
stroke-linecap:round; stroke-linejoin:round;">
</g>
<g style="fill:#008400; fill-opacity:0.0; 
stroke:#008400; stroke-width:60; stroke-opacity:1; 
stroke-linecap:round; stroke-linejoin:round;">
<path d="M55500 31000
L54500 31000
" />
<path d="M65000 35000
L65000 45000
" />
<path d="M59500 45000
L59500 39000
" />
<path d="M50000 36000
L55500 36000
" />
<path d="M55500 37000
L50000 37000
" />
<path d="M50000 34000
L54500 34000
" />
<path d="M31000 34000
L32000 34000
" />
<path d="M75000 45000
L75000 39000
" />
<path d="M55500 30000
L54500 30000
" />
<path d="M49500 30000
L49500 35000
" />
<path d="M49500 45000
L59500 45000
" />
<path d="M31000 35000
L32000 35000
" />
<path d="M54500 31000
L54500 30000
" />
<path d="M54500 30000
L49500 30000
" />
<path d="M55500 32000
L54500 32000
" />
<path d="M55500 33000
L54500 33000
" />
<path d="M54500 33000
L54500 34000
" />
<path d="M49500 45000
L49500 46000
" />
<path d="M54500 34000
L55500 34000
" />
<path d="M49500 35000
L55500 35000
" />
<path d="M49500 35000
L49500 45000
" />
<path d="M59500 45000
L65000 45000
" />
<path d="M65000 30000
L65000 35000
" />
<path d="M65500 36000
L71000 36000
" />
<path d="M71000 37000
L65500 37000
" />
<path d="M65500 34000
L70000 34000
" />
<path d="M70000 32000
L70000 31000
" />
<path d="M54500 32000
L54500 31000
" />
<path d="M32000 37000
L32000 38000
" />
<path d="M31000 37000
L32000 37000
" />
<path d="M71000 30000
L70000 30000
" />
<path d="M65000 45000
L75000 45000
" />
<path d="M71000 31000
L70000 31000
" />
<path d="M70000 31000
L70000 30000
" />
<path d="M70000 30000
L65000 30000
" />
<path d="M71000 32000
L70000 32000
" />
<path d="M71000 33000
L70000 33000
" />
<path d="M70000 33000
L70000 34000
" />
<path d="M32000 36000
L31000 36000
" />
<path d="M70000 34000
L71000 34000
" />
<path d="M65000 35000
L71000 35000
" />
</g>
<g style="fill:#848400; fill-opacity:0.0; 
stroke:#848400; stroke-width:60; stroke-opacity:1; 
stroke-linecap:round; stroke-linejoin:round;">
<text x="30300" y="37300"
textLength="4090" font-size="800" lengthAdjust="spacingAndGlyphs"
text-anchor="end" opacity="0">CAN_GND</text>
<path d="M26720 37210
L26690 37240
L26610 37270
L26550 37270
L26470 37240
L26410 37180
L26380 37120
L26350 37010
L26350 36920
L26380 36810
L26410 36750
L26470 36700
L26550 36670
L26610 36670
L26690 36700
L26720 36720
" />
<path d="M26950 37100
L27240 37100
" />
<path d="M26890 37270
L27090 36670
L27290 37270
" />
<path d="M27490 37270
L27490 36670
L27840 37270
L27840 36670
" />
<path d="M27980 37320
L28440 37320
" />
<path d="M28890 36700
L28840 36670
L28750 36670
L28670 36700
L28610 36750
L28580 36810
L28550 36920
L28550 37010
L28580 37120
L28610 37180
L28670 37240
L28750 37270
L28810 37270
L28890 37240
L28920 37210
L28920 37010
L28810 37010
" />
<path d="M29180 37270
L29180 36670
L29520 37270
L29520 36670
" />
<path d="M29810 37270
L29810 36670
L29950 36670
L30040 36700
L30090 36750
L30120 36810
L30150 36920
L30150 37010
L30120 37120
L30090 37180
L30040 37240
L29950 37270
L29810 37270
" />
</g>
<g style="fill:#848400; fill-opacity:0.0; 
stroke:#848400; stroke-width:100; stroke-opacity:1; 
stroke-linecap:round; stroke-linejoin:round;">
<path style="fill:#848400; fill-opacity:0.0; 
stroke:#848400; stroke-width:100; stroke-opacity:1; 
stroke-linecap:round; stroke-linejoin:round;fill:none"
d="M 31000,37000
30700,36700
30400,37000
30700,37300
Z" /> 
</g>
<g style="fill:#848400; fill-opacity:0.0; 
stroke:#848400; stroke-width:60; stroke-opacity:1; 
stroke-linecap:round; stroke-linejoin:round;">
<text x="30300" y="34300"
textLength="3920" font-size="800" lengthAdjust="spacingAndGlyphs"
text-anchor="end" opacity="0">CAN_18V</text>
<path d="M26890 34210
L26870 34240
L26780 34270
L26720 34270
L26640 34240
L26580 34180
L26550 34120
L26520 34010
L26520 33920
L26550 33810
L26580 33750
L26640 33700
L26720 33670
L26780 33670
L26870 33700
L26890 33720
" />
<path d="M27120 34100
L27410 34100
" />
<path d="M27070 34270
L27270 33670
L27470 34270
" />
<path d="M27670 34270
L27670 33670
L28010 34270
L28010 33670
" />
<path d="M28150 34320
L28610 34320
" />
<path d="M29070 34270
L28720 34270
" />
<path d="M28890 34270
L28890 33670
L28840 33750
L28780 33810
L28720 33840
" />
<path d="M29410 33920
L29350 33900
L29320 33870
L29290 33810
L29290 33780
L29320 33720
L29350 33700
L29410 33670
L29520 33670
L29580 33700
L29610 33720
L29640 33780
L29640 33810
L29610 33870
L29580 33900
L29520 33920
L29410 33920
L29350 33950
L29320 33980
L29290 34040
L29290 34150
L29320 34210
L29350 34240
L29410 34270
L29520 34270
L29580 34240
L29610 34210
L29640 34150
L29640 34040
L29610 33980
L29580 33950
L29520 33920
" />
<path d="M29810 33670
L30010 34270
L30210 33670
" />
</g>
<g style="fill:#848400; fill-opacity:0.0; 
stroke:#848400; stroke-width:100; stroke-opacity:1; 
stroke-linecap:round; stroke-linejoin:round;">
<path style="fill:#848400; fill-opacity:0.0; 
stroke:#848400; stroke-width:100; stroke-opacity:1; 
stroke-linecap:round; stroke-linejoin:round;fill:none"
d="M 30400,34000
30700,34300
31000,34300
31000,33700
30700,33700
Z" /> 
</g>
<g style="fill:#848400; fill-opacity:0.0; 
stroke:#848400; stroke-width:60; stroke-opacity:1; 
stroke-linecap:round; stroke-linejoin:round;">
<text x="30300" y="36300"
textLength="2750" font-size="800" lengthAdjust="spacingAndGlyphs"
text-anchor="end" opacity="0">CAN_L</text>
<path d="M28070 36210
L28040 36240
L27950 36270
L27890 36270
L27810 36240
L27750 36180
L27720 36120
L27690 36010
L27690 35920
L27720 35810
L27750 35750
L27810 35700
L27890 35670
L27950 35670
L28040 35700
L28070 35720
" />
<path d="M28290 36100
L28580 36100
" />
<path d="M28240 36270
L28440 35670
L28640 36270
" />
<path d="M28840 36270
L28840 35670
L29180 36270
L29180 35670
" />
<path d="M29320 36320
L29780 36320
" />
<path d="M30210 36270
L29920 36270
L29920 35670
" />
</g>
<g style="fill:#848400; fill-opacity:0.0; 
stroke:#848400; stroke-width:100; stroke-opacity:1; 
stroke-linecap:round; stroke-linejoin:round;">
<path style="fill:#848400; fill-opacity:0.0; 
stroke:#848400; stroke-width:100; stroke-opacity:1; 
stroke-linecap:round; stroke-linejoin:round;fill:none"
d="M 31000,36000
30700,35700
30400,36000
30700,36300
Z" /> 
</g>
<g style="fill:#848400; fill-opacity:0.0; 
stroke:#848400; stroke-width:60; stroke-opacity:1; 
stroke-linecap:round; stroke-linejoin:round;">
<text x="30300" y="35300"
textLength="2890" font-size="800" lengthAdjust="spacingAndGlyphs"
text-anchor="end" opacity="0">CAN_H</text>
<path d="M27920 35210
L27890 35240
L27810 35270
L27750 35270
L27670 35240
L27610 35180
L27580 35120
L27550 35010
L27550 34920
L27580 34810
L27610 34750
L27670 34700
L27750 34670
L27810 34670
L27890 34700
L27920 34720
" />
<path d="M28150 35100
L28440 35100
" />
<path d="M28090 35270
L28290 34670
L28490 35270
" />
<path d="M28690 35270
L28690 34670
L29040 35270
L29040 34670
" />
<path d="M29180 35320
L29640 35320
" />
<path d="M29780 35270
L29780 34670
" />
<path d="M29780 34950
L30120 34950
" />
<path d="M30120 35270
L30120 34670
" />
</g>
<g style="fill:#848400; fill-opacity:0.0; 
stroke:#848400; stroke-width:100; stroke-opacity:1; 
stroke-linecap:round; stroke-linejoin:round;">
<path style="fill:#848400; fill-opacity:0.0; 
stroke:#848400; stroke-width:100; stroke-opacity:1; 
stroke-linecap:round; stroke-linejoin:round;fill:none"
d="M 31000,35000
30700,34700
30400,35000
30700,35300
Z" /> 
</g>
<g style="fill:#848400; fill-opacity:0.0; 
stroke:#848400; stroke-width:60; stroke-opacity:1; 
stroke-linecap:round; stroke-linejoin:round;">
</g>
<g style="fill:#000000; fill-opacity:0.0; 
stroke:#000000; stroke-width:60; stroke-opacity:1; 
stroke-linecap:round; stroke-linejoin:round;">
<text x="50000" y="36900"
textLength="2890" font-size="800" lengthAdjust="spacingAndGlyphs"
text-anchor="start" opacity="0">CAN_H</text>
<path d="M50510 36810
L50480 36840
L50400 36870
L50340 36870
L50250 36840
L50200 36780
L50170 36720
L50140 36610
L50140 36520
L50170 36410
L50200 36350
L50250 36300
L50340 36270
L50400 36270
L50480 36300
L50510 36320
" />
<path d="M50740 36700
L51030 36700
" />
<path d="M50680 36870
L50880 36270
L51080 36870
" />
<path d="M51280 36870
L51280 36270
L51630 36870
L51630 36270
" />
<path d="M51770 36920
L52230 36920
" />
<path d="M52370 36870
L52370 36270
" />
<path d="M52370 36550
L52710 36550
" />
<path d="M52710 36870
L52710 36270
" />
<text x="32000" y="33900"
textLength="3920" font-size="800" lengthAdjust="spacingAndGlyphs"
text-anchor="start" opacity="0">CAN_18V</text>
<path d="M32510 33810
L32480 33840
L32400 33870
L32340 33870
L32250 33840
L32200 33780
L32170 33720
L32140 33610
L32140 33520
L32170 33410
L32200 33350
L32250 33300
L32340 33270
L32400 33270
L32480 33300
L32510 33320
" />
<path d="M32740 33700
L33030 33700
" />
<path d="M32680 33870
L32880 33270
L33080 33870
" />
<path d="M33280 33870
L33280 33270
L33630 33870
L33630 33270
" />
<path d="M33770 33920
L34230 33920
" />
<path d="M34680 33870
L34340 33870
" />
<path d="M34510 33870
L34510 33270
L34450 33350
L34400 33410
L34340 33440
" />
<path d="M35030 33520
L34970 33500
L34940 33470
L34910 33410
L34910 33380
L34940 33320
L34970 33300
L35030 33270
L35140 33270
L35200 33300
L35230 33320
L35250 33380
L35250 33410
L35230 33470
L35200 33500
L35140 33520
L35030 33520
L34970 33550
L34940 33580
L34910 33640
L34910 33750
L34940 33810
L34970 33840
L35030 33870
L35140 33870
L35200 33840
L35230 33810
L35250 33750
L35250 33640
L35230 33580
L35200 33550
L35140 33520
" />
<path d="M35430 33270
L35630 33870
L35830 33270
" />
<text x="32000" y="35900"
textLength="2750" font-size="800" lengthAdjust="spacingAndGlyphs"
text-anchor="start" opacity="0">CAN_L</text>
<path d="M32510 35810
L32480 35840
L32400 35870
L32340 35870
L32250 35840
L32200 35780
L32170 35720
L32140 35610
L32140 35520
L32170 35410
L32200 35350
L32250 35300
L32340 35270
L32400 35270
L32480 35300
L32510 35320
" />
<path d="M32740 35700
L33030 35700
" />
<path d="M32680 35870
L32880 35270
L33080 35870
" />
<path d="M33280 35870
L33280 35270
L33630 35870
L33630 35270
" />
<path d="M33770 35920
L34230 35920
" />
<path d="M34650 35870
L34370 35870
L34370 35270
" />
<text x="32000" y="34900"
textLength="2890" font-size="800" lengthAdjust="spacingAndGlyphs"
text-anchor="start" opacity="0">CAN_H</text>
<path d="M32510 34810
L32480 34840
L32400 34870
L32340 34870
L32250 34840
L32200 34780
L32170 34720
L32140 34610
L32140 34520
L32170 34410
L32200 34350
L32250 34300
L32340 34270
L32400 34270
L32480 34300
L32510 34320
" />
<path d="M32740 34700
L33030 34700
" />
<path d="M32680 34870
L32880 34270
L33080 34870
" />
<path d="M33280 34870
L33280 34270
L33630 34870
L33630 34270
" />
<path d="M33770 34920
L34230 34920
" />
<path d="M34370 34870
L34370 34270
" />
<path d="M34370 34550
L34710 34550
" />
<path d="M34710 34870
L34710 34270
" />
<text x="65500" y="33900"
textLength="3920" font-size="800" lengthAdjust="spacingAndGlyphs"
text-anchor="start" opacity="0">CAN_18V</text>
<path d="M66010 33810
L65980 33840
L65900 33870
L65840 33870
L65750 33840
L65700 33780
L65670 33720
L65640 33610
L65640 33520
L65670 33410
L65700 33350
L65750 33300
L65840 33270
L65900 33270
L65980 33300
L66010 33320
" />
<path d="M66240 33700
L66530 33700
" />
<path d="M66180 33870
L66380 33270
L66580 33870
" />
<path d="M66780 33870
L66780 33270
L67130 33870
L67130 33270
" />
<path d="M67270 33920
L67730 33920
" />
<path d="M68180 33870
L67840 33870
" />
<path d="M68010 33870
L68010 33270
L67950 33350
L67900 33410
L67840 33440
" />
<path d="M68530 33520
L68470 33500
L68440 33470
L68410 33410
L68410 33380
L68440 33320
L68470 33300
L68530 33270
L68640 33270
L68700 33300
L68730 33320
L68750 33380
L68750 33410
L68730 33470
L68700 33500
L68640 33520
L68530 33520
L68470 33550
L68440 33580
L68410 33640
L68410 33750
L68440 33810
L68470 33840
L68530 33870
L68640 33870
L68700 33840
L68730 33810
L68750 33750
L68750 33640
L68730 33580
L68700 33550
L68640 33520
" />
<path d="M68930 33270
L69130 33870
L69330 33270
" />
<text x="65500" y="34900"
textLength="4090" font-size="800" lengthAdjust="spacingAndGlyphs"
text-anchor="start" opacity="0">CAN_GND</text>
<path d="M66010 34810
L65980 34840
L65900 34870
L65840 34870
L65750 34840
L65700 34780
L65670 34720
L65640 34610
L65640 34520
L65670 34410
L65700 34350
L65750 34300
L65840 34270
L65900 34270
L65980 34300
L66010 34320
" />
<path d="M66240 34700
L66530 34700
" />
<path d="M66180 34870
L66380 34270
L66580 34870
" />
<path d="M66780 34870
L66780 34270
L67130 34870
L67130 34270
" />
<path d="M67270 34920
L67730 34920
" />
<path d="M68180 34300
L68130 34270
L68040 34270
L67950 34300
L67900 34350
L67870 34410
L67840 34520
L67840 34610
L67870 34720
L67900 34780
L67950 34840
L68040 34870
L68100 34870
L68180 34840
L68210 34810
L68210 34610
L68100 34610
" />
<path d="M68470 34870
L68470 34270
L68810 34870
L68810 34270
" />
<path d="M69100 34870
L69100 34270
L69240 34270
L69330 34300
L69380 34350
L69410 34410
L69440 34520
L69440 34610
L69410 34720
L69380 34780
L69330 34840
L69240 34870
L69100 34870
" />
<text x="65500" y="35900"
textLength="2750" font-size="800" lengthAdjust="spacingAndGlyphs"
text-anchor="start" opacity="0">CAN_L</text>
<path d="M66010 35810
L65980 35840
L65900 35870
L65840 35870
L65750 35840
L65700 35780
L65670 35720
L65640 35610
L65640 35520
L65670 35410
L65700 35350
L65750 35300
L65840 35270
L65900 35270
L65980 35300
L66010 35320
" />
<path d="M66240 35700
L66530 35700
" />
<path d="M66180 35870
L66380 35270
L66580 35870
" />
<path d="M66780 35870
L66780 35270
L67130 35870
L67130 35270
" />
<path d="M67270 35920
L67730 35920
" />
<path d="M68150 35870
L67870 35870
L67870 35270
" />
<text x="50000" y="35900"
textLength="2750" font-size="800" lengthAdjust="spacingAndGlyphs"
text-anchor="start" opacity="0">CAN_L</text>
<path d="M50510 35810
L50480 35840
L50400 35870
L50340 35870
L50250 35840
L50200 35780
L50170 35720
L50140 35610
L50140 35520
L50170 35410
L50200 35350
L50250 35300
L50340 35270
L50400 35270
L50480 35300
L50510 35320
" />
<path d="M50740 35700
L51030 35700
" />
<path d="M50680 35870
L50880 35270
L51080 35870
" />
<path d="M51280 35870
L51280 35270
L51630 35870
L51630 35270
" />
<path d="M51770 35920
L52230 35920
" />
<path d="M52650 35870
L52370 35870
L52370 35270
" />
<text x="50000" y="34900"
textLength="4090" font-size="800" lengthAdjust="spacingAndGlyphs"
text-anchor="start" opacity="0">CAN_GND</text>
<path d="M50510 34810
L50480 34840
L50400 34870
L50340 34870
L50250 34840
L50200 34780
L50170 34720
L50140 34610
L50140 34520
L50170 34410
L50200 34350
L50250 34300
L50340 34270
L50400 34270
L50480 34300
L50510 34320
" />
<path d="M50740 34700
L51030 34700
" />
<path d="M50680 34870
L50880 34270
L51080 34870
" />
<path d="M51280 34870
L51280 34270
L51630 34870
L51630 34270
" />
<path d="M51770 34920
L52230 34920
" />
<path d="M52680 34300
L52630 34270
L52540 34270
L52450 34300
L52400 34350
L52370 34410
L52340 34520
L52340 34610
L52370 34720
L52400 34780
L52450 34840
L52540 34870
L52600 34870
L52680 34840
L52710 34810
L52710 34610
L52600 34610
" />
<path d="M52970 34870
L52970 34270
L53310 34870
L53310 34270
" />
<path d="M53600 34870
L53600 34270
L53740 34270
L53830 34300
L53880 34350
L53910 34410
L53940 34520
L53940 34610
L53910 34720
L53880 34780
L53830 34840
L53740 34870
L53600 34870
" />
<text x="50000" y="33900"
textLength="3920" font-size="800" lengthAdjust="spacingAndGlyphs"
text-anchor="start" opacity="0">CAN_18V</text>
<path d="M50510 33810
L50480 33840
L50400 33870
L50340 33870
L50250 33840
L50200 33780
L50170 33720
L50140 33610
L50140 33520
L50170 33410
L50200 33350
L50250 33300
L50340 33270
L50400 33270
L50480 33300
L50510 33320
" />
<path d="M50740 33700
L51030 33700
" />
<path d="M50680 33870
L50880 33270
L51080 33870
" />
<path d="M51280 33870
L51280 33270
L51630 33870
L51630 33270
" />
<path d="M51770 33920
L52230 33920
" />
<path d="M52680 33870
L52340 33870
" />
<path d="M52510 33870
L52510 33270
L52450 33350
L52400 33410
L52340 33440
" />
<path d="M53030 33520
L52970 33500
L52940 33470
L52910 33410
L52910 33380
L52940 33320
L52970 33300
L53030 33270
L53140 33270
L53200 33300
L53230 33320
L53250 33380
L53250 33410
L53230 33470
L53200 33500
L53140 33520
L53030 33520
L52970 33550
L52940 33580
L52910 33640
L52910 33750
L52940 33810
L52970 33840
L53030 33870
L53140 33870
L53200 33840
L53230 33810
L53250 33750
L53250 33640
L53230 33580
L53200 33550
L53140 33520
" />
<path d="M53430 33270
L53630 33870
L53830 33270
" />
<text x="65500" y="36900"
textLength="2890" font-size="800" lengthAdjust="spacingAndGlyphs"
text-anchor="start" opacity="0">CAN_H</text>
<path d="M66010 36810
L65980 36840
L65900 36870
L65840 36870
L65750 36840
L65700 36780
L65670 36720
L65640 36610
L65640 36520
L65670 36410
L65700 36350
L65750 36300
L65840 36270
L65900 36270
L65980 36300
L66010 36320
" />
<path d="M66240 36700
L66530 36700
" />
<path d="M66180 36870
L66380 36270
L66580 36870
" />
<path d="M66780 36870
L66780 36270
L67130 36870
L67130 36270
" />
<path d="M67270 36920
L67730 36920
" />
<path d="M67870 36870
L67870 36270
" />
<path d="M67870 36550
L68210 36550
" />
<path d="M68210 36870
L68210 36270
" />
</g>
<g style="fill:#000000; fill-opacity:0.0; 
stroke:#000000; stroke-width:0; stroke-opacity:1; 
stroke-linecap:round; stroke-linejoin:round;">
</g>
<g style="fill:#008400; fill-opacity:0.0; 
stroke:#008400; stroke-width:0; stroke-opacity:1; 
stroke-linecap:round; stroke-linejoin:round;">
</g>
<g style="fill:#008400; fill-opacity:1.0; 
stroke:#008400; stroke-width:100; stroke-opacity:1; 
stroke-linecap:round; stroke-linejoin:round;">
<circle cx="65000" cy="35000" r="200" /> 
</g>
<g style="fill:#008400; fill-opacity:1.0; 
stroke:#008400; stroke-width:0; stroke-opacity:1; 
stroke-linecap:round; stroke-linejoin:round;">
</g>
<g style="fill:#008400; fill-opacity:1.0; 
stroke:#008400; stroke-width:100; stroke-opacity:1; 
stroke-linecap:round; stroke-linejoin:round;">
<circle cx="70000" cy="31000" r="200" /> 
</g>
<g style="fill:#008400; fill-opacity:1.0; 
stroke:#008400; stroke-width:0; stroke-opacity:1; 
stroke-linecap:round; stroke-linejoin:round;">
</g>
<g style="fill:#008400; fill-opacity:1.0; 
stroke:#008400; stroke-width:100; stroke-opacity:1; 
stroke-linecap:round; stroke-linejoin:round;">
<circle cx="54500" cy="31000" r="200" /> 
</g>
<g style="fill:#008400; fill-opacity:1.0; 
stroke:#008400; stroke-width:0; stroke-opacity:1; 
stroke-linecap:round; stroke-linejoin:round;">
</g>
<g style="fill:#008400; fill-opacity:1.0; 
stroke:#008400; stroke-width:100; stroke-opacity:1; 
stroke-linecap:round; stroke-linejoin:round;">
<circle cx="70000" cy="30000" r="200" /> 
</g>
<g style="fill:#008400; fill-opacity:1.0; 
stroke:#008400; stroke-width:0; stroke-opacity:1; 
stroke-linecap:round; stroke-linejoin:round;">
</g>
<g style="fill:#008400; fill-opacity:1.0; 
stroke:#008400; stroke-width:100; stroke-opacity:1; 
stroke-linecap:round; stroke-linejoin:round;">
<circle cx="70000" cy="34000" r="200" /> 
</g>
<g style="fill:#008400; fill-opacity:1.0; 
stroke:#008400; stroke-width:0; stroke-opacity:1; 
stroke-linecap:round; stroke-linejoin:round;">
</g>
<g style="fill:#008400; fill-opacity:1.0; 
stroke:#008400; stroke-width:100; stroke-opacity:1; 
stroke-linecap:round; stroke-linejoin:round;">
<circle cx="59500" cy="45000" r="200" /> 
</g>
<g style="fill:#008400; fill-opacity:1.0; 
stroke:#008400; stroke-width:0; stroke-opacity:1; 
stroke-linecap:round; stroke-linejoin:round;">
</g>
<g style="fill:#008400; fill-opacity:1.0; 
stroke:#008400; stroke-width:100; stroke-opacity:1; 
stroke-linecap:round; stroke-linejoin:round;">
<circle cx="54500" cy="30000" r="200" /> 
</g>
<g style="fill:#008400; fill-opacity:1.0; 
stroke:#008400; stroke-width:0; stroke-opacity:1; 
stroke-linecap:round; stroke-linejoin:round;">
</g>
<g style="fill:#008400; fill-opacity:1.0; 
stroke:#008400; stroke-width:100; stroke-opacity:1; 
stroke-linecap:round; stroke-linejoin:round;">
<circle cx="49500" cy="45000" r="200" /> 
</g>
<g style="fill:#008400; fill-opacity:1.0; 
stroke:#008400; stroke-width:0; stroke-opacity:1; 
stroke-linecap:round; stroke-linejoin:round;">
</g>
<g style="fill:#008400; fill-opacity:1.0; 
stroke:#008400; stroke-width:100; stroke-opacity:1; 
stroke-linecap:round; stroke-linejoin:round;">
<circle cx="54500" cy="34000" r="200" /> 
</g>
<g style="fill:#008400; fill-opacity:1.0; 
stroke:#008400; stroke-width:0; stroke-opacity:1; 
stroke-linecap:round; stroke-linejoin:round;">
</g>
<g style="fill:#008400; fill-opacity:1.0; 
stroke:#008400; stroke-width:100; stroke-opacity:1; 
stroke-linecap:round; stroke-linejoin:round;">
<circle cx="49500" cy="35000" r="200" /> 
</g>
<g style="fill:#008400; fill-opacity:1.0; 
stroke:#008400; stroke-width:0; stroke-opacity:1; 
stroke-linecap:round; stroke-linejoin:round;">
</g>
<g style="fill:#008400; fill-opacity:1.0; 
stroke:#008400; stroke-width:100; stroke-opacity:1; 
stroke-linecap:round; stroke-linejoin:round;">
<circle cx="65000" cy="45000" r="200" /> 
</g> 
</svg>
