G04 #@! TF.GenerationSoftware,KiCad,Pcbnew,5.1.4*
G04 #@! TF.CreationDate,2019-10-26T00:18:29-03:00*
G04 #@! TF.ProjectId,MCB19,4d434231-392e-46b6-9963-61645f706362,rev?*
G04 #@! TF.SameCoordinates,Original*
G04 #@! TF.FileFunction,Other,Fab,Bot*
%FSLAX46Y46*%
G04 Gerber Fmt 4.6, Leading zero omitted, Abs format (unit mm)*
G04 Created by KiCad (PCBNEW 5.1.4) date 2019-10-26 00:18:29*
%MOMM*%
%LPD*%
G04 APERTURE LIST*
%ADD10C,0.150000*%
%ADD11C,0.100000*%
%ADD12C,0.080000*%
%ADD13C,0.075000*%
%ADD14C,0.120000*%
G04 APERTURE END LIST*
D10*
X211779000Y-112516000D02*
X218279000Y-112516000D01*
X218279000Y-112516000D02*
X218279000Y-100916000D01*
X218279000Y-100916000D02*
X210779000Y-100916000D01*
X210779000Y-100916000D02*
X210779000Y-111516000D01*
X210779000Y-111516000D02*
X211779000Y-112516000D01*
D11*
X173475000Y-107650000D02*
X171475000Y-107650000D01*
X173475000Y-108850000D02*
X173475000Y-107650000D01*
X171475000Y-108850000D02*
X173475000Y-108850000D01*
X171475000Y-107650000D02*
X171475000Y-108850000D01*
X170475000Y-84100000D02*
X172475000Y-84100000D01*
X170475000Y-82900000D02*
X170475000Y-84100000D01*
X172475000Y-82900000D02*
X170475000Y-82900000D01*
X172475000Y-84100000D02*
X172475000Y-82900000D01*
X147500000Y-86100000D02*
X149500000Y-86100000D01*
X147500000Y-84900000D02*
X147500000Y-86100000D01*
X149500000Y-84900000D02*
X147500000Y-84900000D01*
X149500000Y-86100000D02*
X149500000Y-84900000D01*
X150050000Y-80600000D02*
X146950000Y-80600000D01*
X146950000Y-80600000D02*
X146950000Y-82400000D01*
X149400000Y-82400000D02*
X146950000Y-82400000D01*
X150050000Y-80600000D02*
X150050000Y-81750000D01*
X149400000Y-82400000D02*
X150050000Y-81750000D01*
X137665000Y-67450000D02*
G75*
G03X137665000Y-67450000I-1805000J0D01*
G01*
X121080000Y-59500000D02*
X142030000Y-59500000D01*
X142030000Y-59500000D02*
X142030000Y-75400000D01*
X142030000Y-75400000D02*
X121080000Y-75400000D01*
X121080000Y-75400000D02*
X121080000Y-59500000D01*
X121080000Y-62000000D02*
X116000000Y-62000000D01*
X121080000Y-67450000D02*
X116000000Y-67450000D01*
X121080000Y-72900000D02*
X116000000Y-72900000D01*
X137665000Y-85950000D02*
G75*
G03X137665000Y-85950000I-1805000J0D01*
G01*
X121080000Y-78000000D02*
X142030000Y-78000000D01*
X142030000Y-78000000D02*
X142030000Y-93900000D01*
X142030000Y-93900000D02*
X121080000Y-93900000D01*
X121080000Y-93900000D02*
X121080000Y-78000000D01*
X121080000Y-80500000D02*
X116000000Y-80500000D01*
X121080000Y-85950000D02*
X116000000Y-85950000D01*
X121080000Y-91400000D02*
X116000000Y-91400000D01*
X169800000Y-81100000D02*
X170775000Y-82075000D01*
X169800000Y-73425000D02*
X169800000Y-81100000D01*
X173700000Y-73425000D02*
X169800000Y-73425000D01*
X173700000Y-82075000D02*
X173700000Y-73425000D01*
X170775000Y-82075000D02*
X173700000Y-82075000D01*
X121900000Y-110475000D02*
X121900000Y-112475000D01*
X123100000Y-110475000D02*
X121900000Y-110475000D01*
X123100000Y-112475000D02*
X123100000Y-110475000D01*
X121900000Y-112475000D02*
X123100000Y-112475000D01*
X123100000Y-108500000D02*
X123100000Y-106500000D01*
X121900000Y-108500000D02*
X123100000Y-108500000D01*
X121900000Y-106500000D02*
X121900000Y-108500000D01*
X123100000Y-106500000D02*
X121900000Y-106500000D01*
X144850000Y-78100000D02*
X151150000Y-78100000D01*
X144850000Y-74900000D02*
X144850000Y-78100000D01*
X151150000Y-74900000D02*
X144850000Y-74900000D01*
X151150000Y-78100000D02*
X151150000Y-74900000D01*
X173475000Y-105025000D02*
X171475000Y-105025000D01*
X173475000Y-106225000D02*
X173475000Y-105025000D01*
X171475000Y-106225000D02*
X173475000Y-106225000D01*
X171475000Y-105025000D02*
X171475000Y-106225000D01*
X171475000Y-114100000D02*
X173475000Y-114100000D01*
X171475000Y-112900000D02*
X171475000Y-114100000D01*
X173475000Y-112900000D02*
X171475000Y-112900000D01*
X173475000Y-114100000D02*
X173475000Y-112900000D01*
X173475000Y-102400000D02*
X171475000Y-102400000D01*
X173475000Y-103600000D02*
X173475000Y-102400000D01*
X171475000Y-103600000D02*
X173475000Y-103600000D01*
X171475000Y-102400000D02*
X171475000Y-103600000D01*
X171475000Y-111475000D02*
X173475000Y-111475000D01*
X171475000Y-110275000D02*
X171475000Y-111475000D01*
X173475000Y-110275000D02*
X171475000Y-110275000D01*
X173475000Y-111475000D02*
X173475000Y-110275000D01*
X210900000Y-66525000D02*
X210900000Y-68525000D01*
X212100000Y-66525000D02*
X210900000Y-66525000D01*
X212100000Y-68525000D02*
X212100000Y-66525000D01*
X210900000Y-68525000D02*
X212100000Y-68525000D01*
X208100000Y-58500000D02*
X206900000Y-58500000D01*
X206900000Y-58500000D02*
X206900000Y-60500000D01*
X206900000Y-60500000D02*
X208100000Y-60500000D01*
X208100000Y-60500000D02*
X208100000Y-58500000D01*
X205900000Y-63050000D02*
X209100000Y-63050000D01*
X205900000Y-69050000D02*
X205900000Y-63050000D01*
X208300000Y-69050000D02*
X205900000Y-69050000D01*
X209100000Y-68250000D02*
X208300000Y-69050000D01*
X209100000Y-63050000D02*
X209100000Y-68250000D01*
X209900000Y-63950000D02*
X209900000Y-58750000D01*
X209900000Y-58750000D02*
X210700000Y-57950000D01*
X210700000Y-57950000D02*
X213100000Y-57950000D01*
X213100000Y-57950000D02*
X213100000Y-63950000D01*
X213100000Y-63950000D02*
X209900000Y-63950000D01*
X220650000Y-59300000D02*
X220650000Y-57700000D01*
X220650000Y-57700000D02*
X217350000Y-57700000D01*
X217350000Y-57700000D02*
X217350000Y-59300000D01*
X217350000Y-59300000D02*
X220650000Y-59300000D01*
X219250000Y-58500000D02*
X219750000Y-58500000D01*
X219250000Y-58100000D02*
X218650000Y-58500000D01*
X219250000Y-58900000D02*
X219250000Y-58100000D01*
X218650000Y-58500000D02*
X219250000Y-58900000D01*
X218650000Y-58500000D02*
X218650000Y-57950000D01*
X218650000Y-58500000D02*
X218650000Y-59050000D01*
X218250000Y-58500000D02*
X218650000Y-58500000D01*
X186374000Y-63500000D02*
G75*
G03X186374000Y-63500000I-1850000J0D01*
G01*
X188124000Y-58500000D02*
X181724000Y-58500000D01*
X181724000Y-58500000D02*
X181724000Y-68500000D01*
X181724000Y-68500000D02*
X188124000Y-68500000D01*
X188124000Y-68500000D02*
X188124000Y-58500000D01*
X197374000Y-58500000D02*
X188124000Y-58500000D01*
X188124000Y-58500000D02*
X188124000Y-68500000D01*
X188124000Y-68500000D02*
X197374000Y-68500000D01*
X197374000Y-68500000D02*
X197374000Y-58500000D01*
X197374000Y-60960000D02*
X201184000Y-60960000D01*
X197374000Y-63500000D02*
X201184000Y-63500000D01*
X197374000Y-66040000D02*
X201184000Y-66040000D01*
X192800000Y-121550000D02*
X192800000Y-120350000D01*
X192800000Y-120350000D02*
X190800000Y-120350000D01*
X190800000Y-120350000D02*
X190800000Y-121550000D01*
X190800000Y-121550000D02*
X192800000Y-121550000D01*
X198900000Y-94525000D02*
X200100000Y-94525000D01*
X200100000Y-94525000D02*
X200100000Y-92525000D01*
X200100000Y-92525000D02*
X198900000Y-92525000D01*
X198900000Y-92525000D02*
X198900000Y-94525000D01*
X191000000Y-87650000D02*
X192700000Y-87650000D01*
X192700000Y-87650000D02*
X193000000Y-87950000D01*
X193000000Y-87950000D02*
X193000000Y-88850000D01*
X193000000Y-88850000D02*
X191000000Y-88850000D01*
X191000000Y-88850000D02*
X191000000Y-87650000D01*
X189675000Y-89950000D02*
X189675000Y-91150000D01*
X189675000Y-91150000D02*
X191675000Y-91150000D01*
X191675000Y-91150000D02*
X191675000Y-89950000D01*
X191675000Y-89950000D02*
X189675000Y-89950000D01*
X176400000Y-63950000D02*
X176400000Y-58750000D01*
X176400000Y-58750000D02*
X177200000Y-57950000D01*
X177200000Y-57950000D02*
X179600000Y-57950000D01*
X179600000Y-57950000D02*
X179600000Y-63950000D01*
X179600000Y-63950000D02*
X176400000Y-63950000D01*
X172400000Y-63000000D02*
X175600000Y-63000000D01*
X172400000Y-69000000D02*
X172400000Y-63000000D01*
X174800000Y-69000000D02*
X172400000Y-69000000D01*
X175600000Y-68200000D02*
X174800000Y-69000000D01*
X175600000Y-63000000D02*
X175600000Y-68200000D01*
X163874000Y-66040000D02*
X167684000Y-66040000D01*
X163874000Y-63500000D02*
X167684000Y-63500000D01*
X163874000Y-60960000D02*
X167684000Y-60960000D01*
X163874000Y-68500000D02*
X163874000Y-58500000D01*
X154624000Y-68500000D02*
X163874000Y-68500000D01*
X154624000Y-58500000D02*
X154624000Y-68500000D01*
X163874000Y-58500000D02*
X154624000Y-58500000D01*
X154624000Y-68500000D02*
X154624000Y-58500000D01*
X148224000Y-68500000D02*
X154624000Y-68500000D01*
X148224000Y-58500000D02*
X148224000Y-68500000D01*
X154624000Y-58500000D02*
X148224000Y-58500000D01*
X152874000Y-63500000D02*
G75*
G03X152874000Y-63500000I-1850000J0D01*
G01*
X225250000Y-85630000D02*
X226650000Y-85630000D01*
X226650000Y-88670000D02*
X226650000Y-85630000D01*
X225250000Y-88100000D02*
X225800000Y-88670000D01*
X225800000Y-88670000D02*
X226650000Y-88670000D01*
X225250000Y-88100000D02*
X225250000Y-85650000D01*
X225400000Y-55200000D02*
X225400000Y-56800000D01*
X225400000Y-56800000D02*
X228600000Y-56800000D01*
X228600000Y-56800000D02*
X228600000Y-55200000D01*
X228600000Y-55200000D02*
X225400000Y-55200000D01*
X200100000Y-88265000D02*
X198900000Y-88265000D01*
X198900000Y-88265000D02*
X198900000Y-90265000D01*
X198900000Y-90265000D02*
X200100000Y-90265000D01*
X200100000Y-90265000D02*
X200100000Y-88265000D01*
X218000000Y-114600000D02*
X218000000Y-113400000D01*
X218000000Y-113400000D02*
X216000000Y-113400000D01*
X216000000Y-113400000D02*
X216000000Y-114600000D01*
X216000000Y-114600000D02*
X218000000Y-114600000D01*
X205124000Y-104776000D02*
X205124000Y-103576000D01*
X205124000Y-103576000D02*
X203124000Y-103576000D01*
X203124000Y-103576000D02*
X203124000Y-104776000D01*
X203124000Y-104776000D02*
X205124000Y-104776000D01*
X205274000Y-99766000D02*
X205274000Y-100966000D01*
X205274000Y-100966000D02*
X207274000Y-100966000D01*
X207274000Y-100966000D02*
X207274000Y-99766000D01*
X207274000Y-99766000D02*
X205274000Y-99766000D01*
X220000000Y-116600000D02*
X220000000Y-115400000D01*
X220000000Y-115400000D02*
X218000000Y-115400000D01*
X218000000Y-115400000D02*
X218000000Y-116600000D01*
X218000000Y-116600000D02*
X220000000Y-116600000D01*
X188900000Y-106500000D02*
X190100000Y-106500000D01*
X190100000Y-106500000D02*
X190100000Y-104500000D01*
X190100000Y-104500000D02*
X188900000Y-104500000D01*
X188900000Y-104500000D02*
X188900000Y-106500000D01*
X181400000Y-105500000D02*
X182600000Y-105500000D01*
X182600000Y-105500000D02*
X182600000Y-103500000D01*
X182600000Y-103500000D02*
X181400000Y-103500000D01*
X181400000Y-103500000D02*
X181400000Y-105500000D01*
X192096000Y-97524000D02*
X192096000Y-98724000D01*
X192096000Y-98724000D02*
X194096000Y-98724000D01*
X194096000Y-98724000D02*
X194096000Y-97524000D01*
X194096000Y-97524000D02*
X192096000Y-97524000D01*
X192826000Y-103169000D02*
X192826000Y-101969000D01*
X192826000Y-101969000D02*
X190826000Y-101969000D01*
X190826000Y-101969000D02*
X190826000Y-103169000D01*
X190826000Y-103169000D02*
X192826000Y-103169000D01*
X188250000Y-124150000D02*
X188250000Y-122950000D01*
X188250000Y-122950000D02*
X186250000Y-122950000D01*
X186250000Y-122950000D02*
X186250000Y-124150000D01*
X186250000Y-124150000D02*
X188250000Y-124150000D01*
X174600000Y-58500000D02*
X173400000Y-58500000D01*
X173400000Y-58500000D02*
X173400000Y-60500000D01*
X173400000Y-60500000D02*
X174600000Y-60500000D01*
X174600000Y-60500000D02*
X174600000Y-58500000D01*
X177400000Y-68475000D02*
X178600000Y-68475000D01*
X178600000Y-68475000D02*
X178600000Y-66475000D01*
X178600000Y-66475000D02*
X177400000Y-66475000D01*
X177400000Y-66475000D02*
X177400000Y-68475000D01*
X188400000Y-125350000D02*
X188400000Y-126950000D01*
X188400000Y-126950000D02*
X191700000Y-126950000D01*
X191700000Y-126950000D02*
X191700000Y-125350000D01*
X191700000Y-125350000D02*
X188400000Y-125350000D01*
X189800000Y-126150000D02*
X189300000Y-126150000D01*
X189800000Y-126550000D02*
X190400000Y-126150000D01*
X189800000Y-125750000D02*
X189800000Y-126550000D01*
X190400000Y-126150000D02*
X189800000Y-125750000D01*
X190400000Y-126150000D02*
X190400000Y-126700000D01*
X190400000Y-126150000D02*
X190400000Y-125600000D01*
X190800000Y-126150000D02*
X190400000Y-126150000D01*
X220650000Y-56800000D02*
X220650000Y-55200000D01*
X220650000Y-55200000D02*
X217350000Y-55200000D01*
X217350000Y-55200000D02*
X217350000Y-56800000D01*
X217350000Y-56800000D02*
X220650000Y-56800000D01*
X219250000Y-56000000D02*
X219750000Y-56000000D01*
X219250000Y-55600000D02*
X218650000Y-56000000D01*
X219250000Y-56400000D02*
X219250000Y-55600000D01*
X218650000Y-56000000D02*
X219250000Y-56400000D01*
X218650000Y-56000000D02*
X218650000Y-55450000D01*
X218650000Y-56000000D02*
X218650000Y-56550000D01*
X218250000Y-56000000D02*
X218650000Y-56000000D01*
X208050000Y-120950000D02*
X210950000Y-120950000D01*
X210950000Y-120950000D02*
X210950000Y-116050000D01*
X210950000Y-116050000D02*
X207050000Y-116050000D01*
X207050000Y-116050000D02*
X207050000Y-119950000D01*
X207050000Y-119950000D02*
X208050000Y-120950000D01*
X220000000Y-113400000D02*
X220000000Y-114600000D01*
X220000000Y-114600000D02*
X222000000Y-114600000D01*
X222000000Y-114600000D02*
X222000000Y-113400000D01*
X222000000Y-113400000D02*
X220000000Y-113400000D01*
X211500000Y-123100000D02*
X211500000Y-121900000D01*
X211500000Y-121900000D02*
X209500000Y-121900000D01*
X209500000Y-121900000D02*
X209500000Y-123100000D01*
X209500000Y-123100000D02*
X211500000Y-123100000D01*
X228100000Y-117500000D02*
X226900000Y-117500000D01*
X226900000Y-117500000D02*
X226900000Y-119500000D01*
X226900000Y-119500000D02*
X228100000Y-119500000D01*
X228100000Y-119500000D02*
X228100000Y-117500000D01*
X192920000Y-122900000D02*
X192920000Y-124100000D01*
X192920000Y-124100000D02*
X194920000Y-124100000D01*
X194920000Y-124100000D02*
X194920000Y-122900000D01*
X194920000Y-122900000D02*
X192920000Y-122900000D01*
X190826000Y-117844000D02*
X190826000Y-119044000D01*
X190826000Y-119044000D02*
X192826000Y-119044000D01*
X192826000Y-119044000D02*
X192826000Y-117844000D01*
X192826000Y-117844000D02*
X190826000Y-117844000D01*
X190826000Y-115304000D02*
X190826000Y-116504000D01*
X190826000Y-116504000D02*
X192826000Y-116504000D01*
X192826000Y-116504000D02*
X192826000Y-115304000D01*
X192826000Y-115304000D02*
X190826000Y-115304000D01*
D10*
X219790904Y-100293380D02*
X219790904Y-99293380D01*
X219457571Y-100007666D01*
X219124238Y-99293380D01*
X219124238Y-100293380D01*
X218076619Y-100198142D02*
X218124238Y-100245761D01*
X218267095Y-100293380D01*
X218362333Y-100293380D01*
X218505190Y-100245761D01*
X218600428Y-100150523D01*
X218648047Y-100055285D01*
X218695666Y-99864809D01*
X218695666Y-99721952D01*
X218648047Y-99531476D01*
X218600428Y-99436238D01*
X218505190Y-99341000D01*
X218362333Y-99293380D01*
X218267095Y-99293380D01*
X218124238Y-99341000D01*
X218076619Y-99388619D01*
X217648047Y-100293380D02*
X217648047Y-99293380D01*
X217267095Y-99293380D01*
X217171857Y-99341000D01*
X217124238Y-99388619D01*
X217076619Y-99483857D01*
X217076619Y-99626714D01*
X217124238Y-99721952D01*
X217171857Y-99769571D01*
X217267095Y-99817190D01*
X217648047Y-99817190D01*
X216695666Y-99388619D02*
X216648047Y-99341000D01*
X216552809Y-99293380D01*
X216314714Y-99293380D01*
X216219476Y-99341000D01*
X216171857Y-99388619D01*
X216124238Y-99483857D01*
X216124238Y-99579095D01*
X216171857Y-99721952D01*
X216743285Y-100293380D01*
X216124238Y-100293380D01*
X215219476Y-99293380D02*
X215695666Y-99293380D01*
X215743285Y-99769571D01*
X215695666Y-99721952D01*
X215600428Y-99674333D01*
X215362333Y-99674333D01*
X215267095Y-99721952D01*
X215219476Y-99769571D01*
X215171857Y-99864809D01*
X215171857Y-100102904D01*
X215219476Y-100198142D01*
X215267095Y-100245761D01*
X215362333Y-100293380D01*
X215600428Y-100293380D01*
X215695666Y-100245761D01*
X215743285Y-100198142D01*
X214219476Y-100293380D02*
X214790904Y-100293380D01*
X214505190Y-100293380D02*
X214505190Y-99293380D01*
X214600428Y-99436238D01*
X214695666Y-99531476D01*
X214790904Y-99579095D01*
X213314714Y-99293380D02*
X213790904Y-99293380D01*
X213838523Y-99769571D01*
X213790904Y-99721952D01*
X213695666Y-99674333D01*
X213457571Y-99674333D01*
X213362333Y-99721952D01*
X213314714Y-99769571D01*
X213267095Y-99864809D01*
X213267095Y-100102904D01*
X213314714Y-100198142D01*
X213362333Y-100245761D01*
X213457571Y-100293380D01*
X213695666Y-100293380D01*
X213790904Y-100245761D01*
X213838523Y-100198142D01*
X212838523Y-99912428D02*
X212076619Y-99912428D01*
X211695666Y-100293380D02*
X211171857Y-99626714D01*
X211695666Y-99626714D02*
X211171857Y-100293380D01*
X210838523Y-100245761D02*
X210695666Y-100293380D01*
X210457571Y-100293380D01*
X210362333Y-100245761D01*
X210314714Y-100198142D01*
X210267095Y-100102904D01*
X210267095Y-100007666D01*
X210314714Y-99912428D01*
X210362333Y-99864809D01*
X210457571Y-99817190D01*
X210648047Y-99769571D01*
X210743285Y-99721952D01*
X210790904Y-99674333D01*
X210838523Y-99579095D01*
X210838523Y-99483857D01*
X210790904Y-99388619D01*
X210743285Y-99341000D01*
X210648047Y-99293380D01*
X210409952Y-99293380D01*
X210267095Y-99341000D01*
X209648047Y-99293380D02*
X209457571Y-99293380D01*
X209362333Y-99341000D01*
X209267095Y-99436238D01*
X209219476Y-99626714D01*
X209219476Y-99960047D01*
X209267095Y-100150523D01*
X209362333Y-100245761D01*
X209457571Y-100293380D01*
X209648047Y-100293380D01*
X209743285Y-100245761D01*
X209838523Y-100150523D01*
X209886142Y-99960047D01*
X209886142Y-99626714D01*
X209838523Y-99436238D01*
X209743285Y-99341000D01*
X209648047Y-99293380D01*
X216243285Y-106168380D02*
X216243285Y-106977904D01*
X216195666Y-107073142D01*
X216148047Y-107120761D01*
X216052809Y-107168380D01*
X215862333Y-107168380D01*
X215767095Y-107120761D01*
X215719476Y-107073142D01*
X215671857Y-106977904D01*
X215671857Y-106168380D01*
X215243285Y-106263619D02*
X215195666Y-106216000D01*
X215100428Y-106168380D01*
X214862333Y-106168380D01*
X214767095Y-106216000D01*
X214719476Y-106263619D01*
X214671857Y-106358857D01*
X214671857Y-106454095D01*
X214719476Y-106596952D01*
X215290904Y-107168380D01*
X214671857Y-107168380D01*
X214052809Y-106168380D02*
X213957571Y-106168380D01*
X213862333Y-106216000D01*
X213814714Y-106263619D01*
X213767095Y-106358857D01*
X213719476Y-106549333D01*
X213719476Y-106787428D01*
X213767095Y-106977904D01*
X213814714Y-107073142D01*
X213862333Y-107120761D01*
X213957571Y-107168380D01*
X214052809Y-107168380D01*
X214148047Y-107120761D01*
X214195666Y-107073142D01*
X214243285Y-106977904D01*
X214290904Y-106787428D01*
X214290904Y-106549333D01*
X214243285Y-106358857D01*
X214195666Y-106263619D01*
X214148047Y-106216000D01*
X214052809Y-106168380D01*
X213338523Y-106263619D02*
X213290904Y-106216000D01*
X213195666Y-106168380D01*
X212957571Y-106168380D01*
X212862333Y-106216000D01*
X212814714Y-106263619D01*
X212767095Y-106358857D01*
X212767095Y-106454095D01*
X212814714Y-106596952D01*
X213386142Y-107168380D01*
X212767095Y-107168380D01*
X173594047Y-107052380D02*
X174165476Y-107052380D01*
X173879761Y-107052380D02*
X173879761Y-106052380D01*
X173975000Y-106195238D01*
X174070238Y-106290476D01*
X174165476Y-106338095D01*
X172975000Y-106052380D02*
X172879761Y-106052380D01*
X172784523Y-106100000D01*
X172736904Y-106147619D01*
X172689285Y-106242857D01*
X172641666Y-106433333D01*
X172641666Y-106671428D01*
X172689285Y-106861904D01*
X172736904Y-106957142D01*
X172784523Y-107004761D01*
X172879761Y-107052380D01*
X172975000Y-107052380D01*
X173070238Y-107004761D01*
X173117857Y-106957142D01*
X173165476Y-106861904D01*
X173213095Y-106671428D01*
X173213095Y-106433333D01*
X173165476Y-106242857D01*
X173117857Y-106147619D01*
X173070238Y-106100000D01*
X172975000Y-106052380D01*
X172022619Y-106052380D02*
X171927380Y-106052380D01*
X171832142Y-106100000D01*
X171784523Y-106147619D01*
X171736904Y-106242857D01*
X171689285Y-106433333D01*
X171689285Y-106671428D01*
X171736904Y-106861904D01*
X171784523Y-106957142D01*
X171832142Y-107004761D01*
X171927380Y-107052380D01*
X172022619Y-107052380D01*
X172117857Y-107004761D01*
X172165476Y-106957142D01*
X172213095Y-106861904D01*
X172260714Y-106671428D01*
X172260714Y-106433333D01*
X172213095Y-106242857D01*
X172165476Y-106147619D01*
X172117857Y-106100000D01*
X172022619Y-106052380D01*
X171260714Y-106385714D02*
X171260714Y-107052380D01*
X171260714Y-106480952D02*
X171213095Y-106433333D01*
X171117857Y-106385714D01*
X170975000Y-106385714D01*
X170879761Y-106433333D01*
X170832142Y-106528571D01*
X170832142Y-107052380D01*
D12*
X173034523Y-108428571D02*
X173058333Y-108452380D01*
X173129761Y-108476190D01*
X173177380Y-108476190D01*
X173248809Y-108452380D01*
X173296428Y-108404761D01*
X173320238Y-108357142D01*
X173344047Y-108261904D01*
X173344047Y-108190476D01*
X173320238Y-108095238D01*
X173296428Y-108047619D01*
X173248809Y-108000000D01*
X173177380Y-107976190D01*
X173129761Y-107976190D01*
X173058333Y-108000000D01*
X173034523Y-108023809D01*
X172605952Y-108142857D02*
X172605952Y-108476190D01*
X172725000Y-107952380D02*
X172844047Y-108309523D01*
X172534523Y-108309523D01*
X172248809Y-107976190D02*
X172201190Y-107976190D01*
X172153571Y-108000000D01*
X172129761Y-108023809D01*
X172105952Y-108071428D01*
X172082142Y-108166666D01*
X172082142Y-108285714D01*
X172105952Y-108380952D01*
X172129761Y-108428571D01*
X172153571Y-108452380D01*
X172201190Y-108476190D01*
X172248809Y-108476190D01*
X172296428Y-108452380D01*
X172320238Y-108428571D01*
X172344047Y-108380952D01*
X172367857Y-108285714D01*
X172367857Y-108166666D01*
X172344047Y-108071428D01*
X172320238Y-108023809D01*
X172296428Y-108000000D01*
X172248809Y-107976190D01*
X171915476Y-107976190D02*
X171582142Y-107976190D01*
X171796428Y-108476190D01*
D10*
X173022619Y-85602380D02*
X173594047Y-85602380D01*
X173308333Y-85602380D02*
X173308333Y-84602380D01*
X173403571Y-84745238D01*
X173498809Y-84840476D01*
X173594047Y-84888095D01*
X172403571Y-84602380D02*
X172308333Y-84602380D01*
X172213095Y-84650000D01*
X172165476Y-84697619D01*
X172117857Y-84792857D01*
X172070238Y-84983333D01*
X172070238Y-85221428D01*
X172117857Y-85411904D01*
X172165476Y-85507142D01*
X172213095Y-85554761D01*
X172308333Y-85602380D01*
X172403571Y-85602380D01*
X172498809Y-85554761D01*
X172546428Y-85507142D01*
X172594047Y-85411904D01*
X172641666Y-85221428D01*
X172641666Y-84983333D01*
X172594047Y-84792857D01*
X172546428Y-84697619D01*
X172498809Y-84650000D01*
X172403571Y-84602380D01*
X171451190Y-84602380D02*
X171355952Y-84602380D01*
X171260714Y-84650000D01*
X171213095Y-84697619D01*
X171165476Y-84792857D01*
X171117857Y-84983333D01*
X171117857Y-85221428D01*
X171165476Y-85411904D01*
X171213095Y-85507142D01*
X171260714Y-85554761D01*
X171355952Y-85602380D01*
X171451190Y-85602380D01*
X171546428Y-85554761D01*
X171594047Y-85507142D01*
X171641666Y-85411904D01*
X171689285Y-85221428D01*
X171689285Y-84983333D01*
X171641666Y-84792857D01*
X171594047Y-84697619D01*
X171546428Y-84650000D01*
X171451190Y-84602380D01*
X170689285Y-84935714D02*
X170689285Y-85602380D01*
X170689285Y-85030952D02*
X170641666Y-84983333D01*
X170546428Y-84935714D01*
X170403571Y-84935714D01*
X170308333Y-84983333D01*
X170260714Y-85078571D01*
X170260714Y-85602380D01*
X169451190Y-85078571D02*
X169784523Y-85078571D01*
X169784523Y-85602380D02*
X169784523Y-84602380D01*
X169308333Y-84602380D01*
D12*
X172034523Y-83678571D02*
X172058333Y-83702380D01*
X172129761Y-83726190D01*
X172177380Y-83726190D01*
X172248809Y-83702380D01*
X172296428Y-83654761D01*
X172320238Y-83607142D01*
X172344047Y-83511904D01*
X172344047Y-83440476D01*
X172320238Y-83345238D01*
X172296428Y-83297619D01*
X172248809Y-83250000D01*
X172177380Y-83226190D01*
X172129761Y-83226190D01*
X172058333Y-83250000D01*
X172034523Y-83273809D01*
X171605952Y-83226190D02*
X171701190Y-83226190D01*
X171748809Y-83250000D01*
X171772619Y-83273809D01*
X171820238Y-83345238D01*
X171844047Y-83440476D01*
X171844047Y-83630952D01*
X171820238Y-83678571D01*
X171796428Y-83702380D01*
X171748809Y-83726190D01*
X171653571Y-83726190D01*
X171605952Y-83702380D01*
X171582142Y-83678571D01*
X171558333Y-83630952D01*
X171558333Y-83511904D01*
X171582142Y-83464285D01*
X171605952Y-83440476D01*
X171653571Y-83416666D01*
X171748809Y-83416666D01*
X171796428Y-83440476D01*
X171820238Y-83464285D01*
X171844047Y-83511904D01*
X171082142Y-83726190D02*
X171367857Y-83726190D01*
X171225000Y-83726190D02*
X171225000Y-83226190D01*
X171272619Y-83297619D01*
X171320238Y-83345238D01*
X171367857Y-83369047D01*
X170891666Y-83273809D02*
X170867857Y-83250000D01*
X170820238Y-83226190D01*
X170701190Y-83226190D01*
X170653571Y-83250000D01*
X170629761Y-83273809D01*
X170605952Y-83321428D01*
X170605952Y-83369047D01*
X170629761Y-83440476D01*
X170915476Y-83726190D01*
X170605952Y-83726190D01*
D10*
X150047619Y-87602380D02*
X150619047Y-87602380D01*
X150333333Y-87602380D02*
X150333333Y-86602380D01*
X150428571Y-86745238D01*
X150523809Y-86840476D01*
X150619047Y-86888095D01*
X149428571Y-86602380D02*
X149333333Y-86602380D01*
X149238095Y-86650000D01*
X149190476Y-86697619D01*
X149142857Y-86792857D01*
X149095238Y-86983333D01*
X149095238Y-87221428D01*
X149142857Y-87411904D01*
X149190476Y-87507142D01*
X149238095Y-87554761D01*
X149333333Y-87602380D01*
X149428571Y-87602380D01*
X149523809Y-87554761D01*
X149571428Y-87507142D01*
X149619047Y-87411904D01*
X149666666Y-87221428D01*
X149666666Y-86983333D01*
X149619047Y-86792857D01*
X149571428Y-86697619D01*
X149523809Y-86650000D01*
X149428571Y-86602380D01*
X148476190Y-86602380D02*
X148380952Y-86602380D01*
X148285714Y-86650000D01*
X148238095Y-86697619D01*
X148190476Y-86792857D01*
X148142857Y-86983333D01*
X148142857Y-87221428D01*
X148190476Y-87411904D01*
X148238095Y-87507142D01*
X148285714Y-87554761D01*
X148380952Y-87602380D01*
X148476190Y-87602380D01*
X148571428Y-87554761D01*
X148619047Y-87507142D01*
X148666666Y-87411904D01*
X148714285Y-87221428D01*
X148714285Y-86983333D01*
X148666666Y-86792857D01*
X148619047Y-86697619D01*
X148571428Y-86650000D01*
X148476190Y-86602380D01*
X147714285Y-86935714D02*
X147714285Y-87602380D01*
X147714285Y-87030952D02*
X147666666Y-86983333D01*
X147571428Y-86935714D01*
X147428571Y-86935714D01*
X147333333Y-86983333D01*
X147285714Y-87078571D01*
X147285714Y-87602380D01*
X146476190Y-87078571D02*
X146809523Y-87078571D01*
X146809523Y-87602380D02*
X146809523Y-86602380D01*
X146333333Y-86602380D01*
D12*
X149059523Y-85678571D02*
X149083333Y-85702380D01*
X149154761Y-85726190D01*
X149202380Y-85726190D01*
X149273809Y-85702380D01*
X149321428Y-85654761D01*
X149345238Y-85607142D01*
X149369047Y-85511904D01*
X149369047Y-85440476D01*
X149345238Y-85345238D01*
X149321428Y-85297619D01*
X149273809Y-85250000D01*
X149202380Y-85226190D01*
X149154761Y-85226190D01*
X149083333Y-85250000D01*
X149059523Y-85273809D01*
X148630952Y-85226190D02*
X148726190Y-85226190D01*
X148773809Y-85250000D01*
X148797619Y-85273809D01*
X148845238Y-85345238D01*
X148869047Y-85440476D01*
X148869047Y-85630952D01*
X148845238Y-85678571D01*
X148821428Y-85702380D01*
X148773809Y-85726190D01*
X148678571Y-85726190D01*
X148630952Y-85702380D01*
X148607142Y-85678571D01*
X148583333Y-85630952D01*
X148583333Y-85511904D01*
X148607142Y-85464285D01*
X148630952Y-85440476D01*
X148678571Y-85416666D01*
X148773809Y-85416666D01*
X148821428Y-85440476D01*
X148845238Y-85464285D01*
X148869047Y-85511904D01*
X148107142Y-85726190D02*
X148392857Y-85726190D01*
X148250000Y-85726190D02*
X148250000Y-85226190D01*
X148297619Y-85297619D01*
X148345238Y-85345238D01*
X148392857Y-85369047D01*
X147630952Y-85726190D02*
X147916666Y-85726190D01*
X147773809Y-85726190D02*
X147773809Y-85226190D01*
X147821428Y-85297619D01*
X147869047Y-85345238D01*
X147916666Y-85369047D01*
D10*
X146052380Y-76380952D02*
X145052380Y-76380952D01*
X146052380Y-76857142D02*
X145052380Y-76857142D01*
X146052380Y-77428571D01*
X145052380Y-77428571D01*
X145766666Y-77857142D02*
X145766666Y-78333333D01*
X146052380Y-77761904D02*
X145052380Y-78095238D01*
X146052380Y-78428571D01*
X145147619Y-78714285D02*
X145100000Y-78761904D01*
X145052380Y-78857142D01*
X145052380Y-79095238D01*
X145100000Y-79190476D01*
X145147619Y-79238095D01*
X145242857Y-79285714D01*
X145338095Y-79285714D01*
X145480952Y-79238095D01*
X146052380Y-78666666D01*
X146052380Y-79285714D01*
X146052380Y-80238095D02*
X146052380Y-79666666D01*
X146052380Y-79952380D02*
X145052380Y-79952380D01*
X145195238Y-79857142D01*
X145290476Y-79761904D01*
X145338095Y-79666666D01*
X146052380Y-81190476D02*
X146052380Y-80619047D01*
X146052380Y-80904761D02*
X145052380Y-80904761D01*
X145195238Y-80809523D01*
X145290476Y-80714285D01*
X145338095Y-80619047D01*
X146147619Y-81380952D02*
X146147619Y-82142857D01*
X146052380Y-82380952D02*
X145052380Y-82380952D01*
X145052380Y-82619047D01*
X145100000Y-82761904D01*
X145195238Y-82857142D01*
X145290476Y-82904761D01*
X145480952Y-82952380D01*
X145623809Y-82952380D01*
X145814285Y-82904761D01*
X145909523Y-82857142D01*
X146004761Y-82761904D01*
X146052380Y-82619047D01*
X146052380Y-82380952D01*
X145957142Y-83952380D02*
X146004761Y-83904761D01*
X146052380Y-83761904D01*
X146052380Y-83666666D01*
X146004761Y-83523809D01*
X145909523Y-83428571D01*
X145814285Y-83380952D01*
X145623809Y-83333333D01*
X145480952Y-83333333D01*
X145290476Y-83380952D01*
X145195238Y-83428571D01*
X145100000Y-83523809D01*
X145052380Y-83666666D01*
X145052380Y-83761904D01*
X145100000Y-83904761D01*
X145147619Y-83952380D01*
X146052380Y-84380952D02*
X145052380Y-84380952D01*
X146052380Y-84952380D02*
X145480952Y-84523809D01*
X145052380Y-84952380D02*
X145623809Y-84380952D01*
X146147619Y-85142857D02*
X146147619Y-85904761D01*
X145052380Y-86571428D02*
X145052380Y-86380952D01*
X145100000Y-86285714D01*
X145147619Y-86238095D01*
X145290476Y-86142857D01*
X145480952Y-86095238D01*
X145861904Y-86095238D01*
X145957142Y-86142857D01*
X146004761Y-86190476D01*
X146052380Y-86285714D01*
X146052380Y-86476190D01*
X146004761Y-86571428D01*
X145957142Y-86619047D01*
X145861904Y-86666666D01*
X145623809Y-86666666D01*
X145528571Y-86619047D01*
X145480952Y-86571428D01*
X145433333Y-86476190D01*
X145433333Y-86285714D01*
X145480952Y-86190476D01*
X145528571Y-86142857D01*
X145623809Y-86095238D01*
D13*
X149357142Y-81226190D02*
X149357142Y-81630952D01*
X149333333Y-81678571D01*
X149309523Y-81702380D01*
X149261904Y-81726190D01*
X149166666Y-81726190D01*
X149119047Y-81702380D01*
X149095238Y-81678571D01*
X149071428Y-81630952D01*
X149071428Y-81226190D01*
X148619047Y-81226190D02*
X148714285Y-81226190D01*
X148761904Y-81250000D01*
X148785714Y-81273809D01*
X148833333Y-81345238D01*
X148857142Y-81440476D01*
X148857142Y-81630952D01*
X148833333Y-81678571D01*
X148809523Y-81702380D01*
X148761904Y-81726190D01*
X148666666Y-81726190D01*
X148619047Y-81702380D01*
X148595238Y-81678571D01*
X148571428Y-81630952D01*
X148571428Y-81511904D01*
X148595238Y-81464285D01*
X148619047Y-81440476D01*
X148666666Y-81416666D01*
X148761904Y-81416666D01*
X148809523Y-81440476D01*
X148833333Y-81464285D01*
X148857142Y-81511904D01*
X148261904Y-81226190D02*
X148214285Y-81226190D01*
X148166666Y-81250000D01*
X148142857Y-81273809D01*
X148119047Y-81321428D01*
X148095238Y-81416666D01*
X148095238Y-81535714D01*
X148119047Y-81630952D01*
X148142857Y-81678571D01*
X148166666Y-81702380D01*
X148214285Y-81726190D01*
X148261904Y-81726190D01*
X148309523Y-81702380D01*
X148333333Y-81678571D01*
X148357142Y-81630952D01*
X148380952Y-81535714D01*
X148380952Y-81416666D01*
X148357142Y-81321428D01*
X148333333Y-81273809D01*
X148309523Y-81250000D01*
X148261904Y-81226190D01*
X147904761Y-81273809D02*
X147880952Y-81250000D01*
X147833333Y-81226190D01*
X147714285Y-81226190D01*
X147666666Y-81250000D01*
X147642857Y-81273809D01*
X147619047Y-81321428D01*
X147619047Y-81369047D01*
X147642857Y-81440476D01*
X147928571Y-81726190D01*
X147619047Y-81726190D01*
D10*
X120402380Y-64069047D02*
X119402380Y-64069047D01*
X120402380Y-65116666D02*
X119926190Y-64783333D01*
X120402380Y-64545238D02*
X119402380Y-64545238D01*
X119402380Y-64926190D01*
X119450000Y-65021428D01*
X119497619Y-65069047D01*
X119592857Y-65116666D01*
X119735714Y-65116666D01*
X119830952Y-65069047D01*
X119878571Y-65021428D01*
X119926190Y-64926190D01*
X119926190Y-64545238D01*
X119878571Y-65878571D02*
X119878571Y-65545238D01*
X120402380Y-65545238D02*
X119402380Y-65545238D01*
X119402380Y-66021428D01*
X120402380Y-66402380D02*
X119402380Y-66402380D01*
X119402380Y-66783333D01*
X119450000Y-66878571D01*
X119497619Y-66926190D01*
X119592857Y-66973809D01*
X119735714Y-66973809D01*
X119830952Y-66926190D01*
X119878571Y-66878571D01*
X119926190Y-66783333D01*
X119926190Y-66402380D01*
X119497619Y-67354761D02*
X119450000Y-67402380D01*
X119402380Y-67497619D01*
X119402380Y-67735714D01*
X119450000Y-67830952D01*
X119497619Y-67878571D01*
X119592857Y-67926190D01*
X119688095Y-67926190D01*
X119830952Y-67878571D01*
X120402380Y-67307142D01*
X120402380Y-67926190D01*
X119402380Y-68783333D02*
X119402380Y-68592857D01*
X119450000Y-68497619D01*
X119497619Y-68450000D01*
X119640476Y-68354761D01*
X119830952Y-68307142D01*
X120211904Y-68307142D01*
X120307142Y-68354761D01*
X120354761Y-68402380D01*
X120402380Y-68497619D01*
X120402380Y-68688095D01*
X120354761Y-68783333D01*
X120307142Y-68830952D01*
X120211904Y-68878571D01*
X119973809Y-68878571D01*
X119878571Y-68830952D01*
X119830952Y-68783333D01*
X119783333Y-68688095D01*
X119783333Y-68497619D01*
X119830952Y-68402380D01*
X119878571Y-68354761D01*
X119973809Y-68307142D01*
X119402380Y-69497619D02*
X119402380Y-69592857D01*
X119450000Y-69688095D01*
X119497619Y-69735714D01*
X119592857Y-69783333D01*
X119783333Y-69830952D01*
X120021428Y-69830952D01*
X120211904Y-69783333D01*
X120307142Y-69735714D01*
X120354761Y-69688095D01*
X120402380Y-69592857D01*
X120402380Y-69497619D01*
X120354761Y-69402380D01*
X120307142Y-69354761D01*
X120211904Y-69307142D01*
X120021428Y-69259523D01*
X119783333Y-69259523D01*
X119592857Y-69307142D01*
X119497619Y-69354761D01*
X119450000Y-69402380D01*
X119402380Y-69497619D01*
X120402380Y-70259523D02*
X119402380Y-70259523D01*
X120402380Y-70830952D01*
X119402380Y-70830952D01*
X113097619Y-66402380D02*
X113050000Y-66307142D01*
X112954761Y-66211904D01*
X112811904Y-66069047D01*
X112764285Y-65973809D01*
X112764285Y-65878571D01*
X113002380Y-65926190D02*
X112954761Y-65830952D01*
X112859523Y-65735714D01*
X112669047Y-65688095D01*
X112335714Y-65688095D01*
X112145238Y-65735714D01*
X112050000Y-65830952D01*
X112002380Y-65926190D01*
X112002380Y-66116666D01*
X112050000Y-66211904D01*
X112145238Y-66307142D01*
X112335714Y-66354761D01*
X112669047Y-66354761D01*
X112859523Y-66307142D01*
X112954761Y-66211904D01*
X113002380Y-66116666D01*
X113002380Y-65926190D01*
X112002380Y-67211904D02*
X112002380Y-67021428D01*
X112050000Y-66926190D01*
X112097619Y-66878571D01*
X112240476Y-66783333D01*
X112430952Y-66735714D01*
X112811904Y-66735714D01*
X112907142Y-66783333D01*
X112954761Y-66830952D01*
X113002380Y-66926190D01*
X113002380Y-67116666D01*
X112954761Y-67211904D01*
X112907142Y-67259523D01*
X112811904Y-67307142D01*
X112573809Y-67307142D01*
X112478571Y-67259523D01*
X112430952Y-67211904D01*
X112383333Y-67116666D01*
X112383333Y-66926190D01*
X112430952Y-66830952D01*
X112478571Y-66783333D01*
X112573809Y-66735714D01*
X112002380Y-67926190D02*
X112002380Y-68021428D01*
X112050000Y-68116666D01*
X112097619Y-68164285D01*
X112192857Y-68211904D01*
X112383333Y-68259523D01*
X112621428Y-68259523D01*
X112811904Y-68211904D01*
X112907142Y-68164285D01*
X112954761Y-68116666D01*
X113002380Y-68021428D01*
X113002380Y-67926190D01*
X112954761Y-67830952D01*
X112907142Y-67783333D01*
X112811904Y-67735714D01*
X112621428Y-67688095D01*
X112383333Y-67688095D01*
X112192857Y-67735714D01*
X112097619Y-67783333D01*
X112050000Y-67830952D01*
X112002380Y-67926190D01*
X113002380Y-69211904D02*
X113002380Y-68640476D01*
X113002380Y-68926190D02*
X112002380Y-68926190D01*
X112145238Y-68830952D01*
X112240476Y-68735714D01*
X112288095Y-68640476D01*
X120402380Y-82569047D02*
X119402380Y-82569047D01*
X120402380Y-83616666D02*
X119926190Y-83283333D01*
X120402380Y-83045238D02*
X119402380Y-83045238D01*
X119402380Y-83426190D01*
X119450000Y-83521428D01*
X119497619Y-83569047D01*
X119592857Y-83616666D01*
X119735714Y-83616666D01*
X119830952Y-83569047D01*
X119878571Y-83521428D01*
X119926190Y-83426190D01*
X119926190Y-83045238D01*
X119878571Y-84378571D02*
X119878571Y-84045238D01*
X120402380Y-84045238D02*
X119402380Y-84045238D01*
X119402380Y-84521428D01*
X120402380Y-84902380D02*
X119402380Y-84902380D01*
X119402380Y-85283333D01*
X119450000Y-85378571D01*
X119497619Y-85426190D01*
X119592857Y-85473809D01*
X119735714Y-85473809D01*
X119830952Y-85426190D01*
X119878571Y-85378571D01*
X119926190Y-85283333D01*
X119926190Y-84902380D01*
X119497619Y-85854761D02*
X119450000Y-85902380D01*
X119402380Y-85997619D01*
X119402380Y-86235714D01*
X119450000Y-86330952D01*
X119497619Y-86378571D01*
X119592857Y-86426190D01*
X119688095Y-86426190D01*
X119830952Y-86378571D01*
X120402380Y-85807142D01*
X120402380Y-86426190D01*
X119402380Y-87283333D02*
X119402380Y-87092857D01*
X119450000Y-86997619D01*
X119497619Y-86950000D01*
X119640476Y-86854761D01*
X119830952Y-86807142D01*
X120211904Y-86807142D01*
X120307142Y-86854761D01*
X120354761Y-86902380D01*
X120402380Y-86997619D01*
X120402380Y-87188095D01*
X120354761Y-87283333D01*
X120307142Y-87330952D01*
X120211904Y-87378571D01*
X119973809Y-87378571D01*
X119878571Y-87330952D01*
X119830952Y-87283333D01*
X119783333Y-87188095D01*
X119783333Y-86997619D01*
X119830952Y-86902380D01*
X119878571Y-86854761D01*
X119973809Y-86807142D01*
X119402380Y-87997619D02*
X119402380Y-88092857D01*
X119450000Y-88188095D01*
X119497619Y-88235714D01*
X119592857Y-88283333D01*
X119783333Y-88330952D01*
X120021428Y-88330952D01*
X120211904Y-88283333D01*
X120307142Y-88235714D01*
X120354761Y-88188095D01*
X120402380Y-88092857D01*
X120402380Y-87997619D01*
X120354761Y-87902380D01*
X120307142Y-87854761D01*
X120211904Y-87807142D01*
X120021428Y-87759523D01*
X119783333Y-87759523D01*
X119592857Y-87807142D01*
X119497619Y-87854761D01*
X119450000Y-87902380D01*
X119402380Y-87997619D01*
X120402380Y-88759523D02*
X119402380Y-88759523D01*
X120402380Y-89330952D01*
X119402380Y-89330952D01*
X113097619Y-84902380D02*
X113050000Y-84807142D01*
X112954761Y-84711904D01*
X112811904Y-84569047D01*
X112764285Y-84473809D01*
X112764285Y-84378571D01*
X113002380Y-84426190D02*
X112954761Y-84330952D01*
X112859523Y-84235714D01*
X112669047Y-84188095D01*
X112335714Y-84188095D01*
X112145238Y-84235714D01*
X112050000Y-84330952D01*
X112002380Y-84426190D01*
X112002380Y-84616666D01*
X112050000Y-84711904D01*
X112145238Y-84807142D01*
X112335714Y-84854761D01*
X112669047Y-84854761D01*
X112859523Y-84807142D01*
X112954761Y-84711904D01*
X113002380Y-84616666D01*
X113002380Y-84426190D01*
X112002380Y-85711904D02*
X112002380Y-85521428D01*
X112050000Y-85426190D01*
X112097619Y-85378571D01*
X112240476Y-85283333D01*
X112430952Y-85235714D01*
X112811904Y-85235714D01*
X112907142Y-85283333D01*
X112954761Y-85330952D01*
X113002380Y-85426190D01*
X113002380Y-85616666D01*
X112954761Y-85711904D01*
X112907142Y-85759523D01*
X112811904Y-85807142D01*
X112573809Y-85807142D01*
X112478571Y-85759523D01*
X112430952Y-85711904D01*
X112383333Y-85616666D01*
X112383333Y-85426190D01*
X112430952Y-85330952D01*
X112478571Y-85283333D01*
X112573809Y-85235714D01*
X112002380Y-86426190D02*
X112002380Y-86521428D01*
X112050000Y-86616666D01*
X112097619Y-86664285D01*
X112192857Y-86711904D01*
X112383333Y-86759523D01*
X112621428Y-86759523D01*
X112811904Y-86711904D01*
X112907142Y-86664285D01*
X112954761Y-86616666D01*
X113002380Y-86521428D01*
X113002380Y-86426190D01*
X112954761Y-86330952D01*
X112907142Y-86283333D01*
X112811904Y-86235714D01*
X112621428Y-86188095D01*
X112383333Y-86188095D01*
X112192857Y-86235714D01*
X112097619Y-86283333D01*
X112050000Y-86330952D01*
X112002380Y-86426190D01*
X112097619Y-87140476D02*
X112050000Y-87188095D01*
X112002380Y-87283333D01*
X112002380Y-87521428D01*
X112050000Y-87616666D01*
X112097619Y-87664285D01*
X112192857Y-87711904D01*
X112288095Y-87711904D01*
X112430952Y-87664285D01*
X113002380Y-87092857D01*
X113002380Y-87711904D01*
X173440476Y-72922380D02*
X173916666Y-72922380D01*
X173916666Y-71922380D01*
X173107142Y-72922380D02*
X173107142Y-71922380D01*
X172773809Y-72636666D01*
X172440476Y-71922380D01*
X172440476Y-72922380D01*
X172059523Y-71922380D02*
X171440476Y-71922380D01*
X171773809Y-72303333D01*
X171630952Y-72303333D01*
X171535714Y-72350952D01*
X171488095Y-72398571D01*
X171440476Y-72493809D01*
X171440476Y-72731904D01*
X171488095Y-72827142D01*
X171535714Y-72874761D01*
X171630952Y-72922380D01*
X171916666Y-72922380D01*
X172011904Y-72874761D01*
X172059523Y-72827142D01*
X171059523Y-72017619D02*
X171011904Y-71970000D01*
X170916666Y-71922380D01*
X170678571Y-71922380D01*
X170583333Y-71970000D01*
X170535714Y-72017619D01*
X170488095Y-72112857D01*
X170488095Y-72208095D01*
X170535714Y-72350952D01*
X171107142Y-72922380D01*
X170488095Y-72922380D01*
X169630952Y-72255714D02*
X169630952Y-72922380D01*
X169869047Y-71874761D02*
X170107142Y-72589047D01*
X169488095Y-72589047D01*
X173430000Y-77213333D02*
X173430000Y-78006666D01*
X173383333Y-78100000D01*
X173336666Y-78146666D01*
X173243333Y-78193333D01*
X173056666Y-78193333D01*
X172963333Y-78146666D01*
X172916666Y-78100000D01*
X172870000Y-78006666D01*
X172870000Y-77213333D01*
X171983333Y-77213333D02*
X172170000Y-77213333D01*
X172263333Y-77260000D01*
X172310000Y-77306666D01*
X172403333Y-77446666D01*
X172450000Y-77633333D01*
X172450000Y-78006666D01*
X172403333Y-78100000D01*
X172356666Y-78146666D01*
X172263333Y-78193333D01*
X172076666Y-78193333D01*
X171983333Y-78146666D01*
X171936666Y-78100000D01*
X171890000Y-78006666D01*
X171890000Y-77773333D01*
X171936666Y-77680000D01*
X171983333Y-77633333D01*
X172076666Y-77586666D01*
X172263333Y-77586666D01*
X172356666Y-77633333D01*
X172403333Y-77680000D01*
X172450000Y-77773333D01*
X171283333Y-77213333D02*
X171190000Y-77213333D01*
X171096666Y-77260000D01*
X171050000Y-77306666D01*
X171003333Y-77400000D01*
X170956666Y-77586666D01*
X170956666Y-77820000D01*
X171003333Y-78006666D01*
X171050000Y-78100000D01*
X171096666Y-78146666D01*
X171190000Y-78193333D01*
X171283333Y-78193333D01*
X171376666Y-78146666D01*
X171423333Y-78100000D01*
X171470000Y-78006666D01*
X171516666Y-77820000D01*
X171516666Y-77586666D01*
X171470000Y-77400000D01*
X171423333Y-77306666D01*
X171376666Y-77260000D01*
X171283333Y-77213333D01*
X170630000Y-77213333D02*
X170023333Y-77213333D01*
X170350000Y-77586666D01*
X170210000Y-77586666D01*
X170116666Y-77633333D01*
X170070000Y-77680000D01*
X170023333Y-77773333D01*
X170023333Y-78006666D01*
X170070000Y-78100000D01*
X170116666Y-78146666D01*
X170210000Y-78193333D01*
X170490000Y-78193333D01*
X170583333Y-78146666D01*
X170630000Y-78100000D01*
X121302380Y-110879761D02*
X121302380Y-110308333D01*
X121302380Y-110594047D02*
X120302380Y-110594047D01*
X120445238Y-110498809D01*
X120540476Y-110403571D01*
X120588095Y-110308333D01*
X121302380Y-111308333D02*
X120302380Y-111308333D01*
X120921428Y-111403571D02*
X121302380Y-111689285D01*
X120635714Y-111689285D02*
X121016666Y-111308333D01*
X120302380Y-112594047D02*
X120302380Y-112117857D01*
X120778571Y-112070238D01*
X120730952Y-112117857D01*
X120683333Y-112213095D01*
X120683333Y-112451190D01*
X120730952Y-112546428D01*
X120778571Y-112594047D01*
X120873809Y-112641666D01*
X121111904Y-112641666D01*
X121207142Y-112594047D01*
X121254761Y-112546428D01*
X121302380Y-112451190D01*
X121302380Y-112213095D01*
X121254761Y-112117857D01*
X121207142Y-112070238D01*
D12*
X122726190Y-110915476D02*
X122488095Y-110748809D01*
X122726190Y-110629761D02*
X122226190Y-110629761D01*
X122226190Y-110820238D01*
X122250000Y-110867857D01*
X122273809Y-110891666D01*
X122321428Y-110915476D01*
X122392857Y-110915476D01*
X122440476Y-110891666D01*
X122464285Y-110867857D01*
X122488095Y-110820238D01*
X122488095Y-110629761D01*
X122226190Y-111344047D02*
X122226190Y-111248809D01*
X122250000Y-111201190D01*
X122273809Y-111177380D01*
X122345238Y-111129761D01*
X122440476Y-111105952D01*
X122630952Y-111105952D01*
X122678571Y-111129761D01*
X122702380Y-111153571D01*
X122726190Y-111201190D01*
X122726190Y-111296428D01*
X122702380Y-111344047D01*
X122678571Y-111367857D01*
X122630952Y-111391666D01*
X122511904Y-111391666D01*
X122464285Y-111367857D01*
X122440476Y-111344047D01*
X122416666Y-111296428D01*
X122416666Y-111201190D01*
X122440476Y-111153571D01*
X122464285Y-111129761D01*
X122511904Y-111105952D01*
X122726190Y-111867857D02*
X122726190Y-111582142D01*
X122726190Y-111725000D02*
X122226190Y-111725000D01*
X122297619Y-111677380D01*
X122345238Y-111629761D01*
X122369047Y-111582142D01*
X122226190Y-112177380D02*
X122226190Y-112225000D01*
X122250000Y-112272619D01*
X122273809Y-112296428D01*
X122321428Y-112320238D01*
X122416666Y-112344047D01*
X122535714Y-112344047D01*
X122630952Y-112320238D01*
X122678571Y-112296428D01*
X122702380Y-112272619D01*
X122726190Y-112225000D01*
X122726190Y-112177380D01*
X122702380Y-112129761D01*
X122678571Y-112105952D01*
X122630952Y-112082142D01*
X122535714Y-112058333D01*
X122416666Y-112058333D01*
X122321428Y-112082142D01*
X122273809Y-112105952D01*
X122250000Y-112129761D01*
X122226190Y-112177380D01*
D10*
X123935714Y-106238095D02*
X124602380Y-106238095D01*
X123554761Y-106000000D02*
X124269047Y-105761904D01*
X124269047Y-106380952D01*
X123602380Y-106666666D02*
X123602380Y-107333333D01*
X124602380Y-106904761D01*
X123602380Y-107904761D02*
X123602380Y-108000000D01*
X123650000Y-108095238D01*
X123697619Y-108142857D01*
X123792857Y-108190476D01*
X123983333Y-108238095D01*
X124221428Y-108238095D01*
X124411904Y-108190476D01*
X124507142Y-108142857D01*
X124554761Y-108095238D01*
X124602380Y-108000000D01*
X124602380Y-107904761D01*
X124554761Y-107809523D01*
X124507142Y-107761904D01*
X124411904Y-107714285D01*
X124221428Y-107666666D01*
X123983333Y-107666666D01*
X123792857Y-107714285D01*
X123697619Y-107761904D01*
X123650000Y-107809523D01*
X123602380Y-107904761D01*
X124602380Y-109238095D02*
X124126190Y-108904761D01*
X124602380Y-108666666D02*
X123602380Y-108666666D01*
X123602380Y-109047619D01*
X123650000Y-109142857D01*
X123697619Y-109190476D01*
X123792857Y-109238095D01*
X123935714Y-109238095D01*
X124030952Y-109190476D01*
X124078571Y-109142857D01*
X124126190Y-109047619D01*
X124126190Y-108666666D01*
D12*
X122726190Y-106940476D02*
X122488095Y-106773809D01*
X122726190Y-106654761D02*
X122226190Y-106654761D01*
X122226190Y-106845238D01*
X122250000Y-106892857D01*
X122273809Y-106916666D01*
X122321428Y-106940476D01*
X122392857Y-106940476D01*
X122440476Y-106916666D01*
X122464285Y-106892857D01*
X122488095Y-106845238D01*
X122488095Y-106654761D01*
X122226190Y-107369047D02*
X122226190Y-107273809D01*
X122250000Y-107226190D01*
X122273809Y-107202380D01*
X122345238Y-107154761D01*
X122440476Y-107130952D01*
X122630952Y-107130952D01*
X122678571Y-107154761D01*
X122702380Y-107178571D01*
X122726190Y-107226190D01*
X122726190Y-107321428D01*
X122702380Y-107369047D01*
X122678571Y-107392857D01*
X122630952Y-107416666D01*
X122511904Y-107416666D01*
X122464285Y-107392857D01*
X122440476Y-107369047D01*
X122416666Y-107321428D01*
X122416666Y-107226190D01*
X122440476Y-107178571D01*
X122464285Y-107154761D01*
X122511904Y-107130952D01*
X122226190Y-107726190D02*
X122226190Y-107773809D01*
X122250000Y-107821428D01*
X122273809Y-107845238D01*
X122321428Y-107869047D01*
X122416666Y-107892857D01*
X122535714Y-107892857D01*
X122630952Y-107869047D01*
X122678571Y-107845238D01*
X122702380Y-107821428D01*
X122726190Y-107773809D01*
X122726190Y-107726190D01*
X122702380Y-107678571D01*
X122678571Y-107654761D01*
X122630952Y-107630952D01*
X122535714Y-107607142D01*
X122416666Y-107607142D01*
X122321428Y-107630952D01*
X122273809Y-107654761D01*
X122250000Y-107678571D01*
X122226190Y-107726190D01*
X122726190Y-108130952D02*
X122726190Y-108226190D01*
X122702380Y-108273809D01*
X122678571Y-108297619D01*
X122607142Y-108345238D01*
X122511904Y-108369047D01*
X122321428Y-108369047D01*
X122273809Y-108345238D01*
X122250000Y-108321428D01*
X122226190Y-108273809D01*
X122226190Y-108178571D01*
X122250000Y-108130952D01*
X122273809Y-108107142D01*
X122321428Y-108083333D01*
X122440476Y-108083333D01*
X122488095Y-108107142D01*
X122511904Y-108130952D01*
X122535714Y-108178571D01*
X122535714Y-108273809D01*
X122511904Y-108321428D01*
X122488095Y-108345238D01*
X122440476Y-108369047D01*
D10*
X149595238Y-79572380D02*
X150166666Y-79572380D01*
X149880952Y-79572380D02*
X149880952Y-78572380D01*
X149976190Y-78715238D01*
X150071428Y-78810476D01*
X150166666Y-78858095D01*
X149119047Y-79524761D02*
X149119047Y-79572380D01*
X149166666Y-79667619D01*
X149214285Y-79715238D01*
X148214285Y-78572380D02*
X148690476Y-78572380D01*
X148738095Y-79048571D01*
X148690476Y-79000952D01*
X148595238Y-78953333D01*
X148357142Y-78953333D01*
X148261904Y-79000952D01*
X148214285Y-79048571D01*
X148166666Y-79143809D01*
X148166666Y-79381904D01*
X148214285Y-79477142D01*
X148261904Y-79524761D01*
X148357142Y-79572380D01*
X148595238Y-79572380D01*
X148690476Y-79524761D01*
X148738095Y-79477142D01*
X147738095Y-79572380D02*
X147738095Y-78905714D01*
X147738095Y-79000952D02*
X147690476Y-78953333D01*
X147595238Y-78905714D01*
X147452380Y-78905714D01*
X147357142Y-78953333D01*
X147309523Y-79048571D01*
X147309523Y-79572380D01*
X147309523Y-79048571D02*
X147261904Y-78953333D01*
X147166666Y-78905714D01*
X147023809Y-78905714D01*
X146928571Y-78953333D01*
X146880952Y-79048571D01*
X146880952Y-79572380D01*
X145833333Y-79572380D02*
X146166666Y-79096190D01*
X146404761Y-79572380D02*
X146404761Y-78572380D01*
X146023809Y-78572380D01*
X145928571Y-78620000D01*
X145880952Y-78667619D01*
X145833333Y-78762857D01*
X145833333Y-78905714D01*
X145880952Y-79000952D01*
X145928571Y-79048571D01*
X146023809Y-79096190D01*
X146404761Y-79096190D01*
X149119047Y-76952380D02*
X149452380Y-76476190D01*
X149690476Y-76952380D02*
X149690476Y-75952380D01*
X149309523Y-75952380D01*
X149214285Y-76000000D01*
X149166666Y-76047619D01*
X149119047Y-76142857D01*
X149119047Y-76285714D01*
X149166666Y-76380952D01*
X149214285Y-76428571D01*
X149309523Y-76476190D01*
X149690476Y-76476190D01*
X148261904Y-75952380D02*
X148452380Y-75952380D01*
X148547619Y-76000000D01*
X148595238Y-76047619D01*
X148690476Y-76190476D01*
X148738095Y-76380952D01*
X148738095Y-76761904D01*
X148690476Y-76857142D01*
X148642857Y-76904761D01*
X148547619Y-76952380D01*
X148357142Y-76952380D01*
X148261904Y-76904761D01*
X148214285Y-76857142D01*
X148166666Y-76761904D01*
X148166666Y-76523809D01*
X148214285Y-76428571D01*
X148261904Y-76380952D01*
X148357142Y-76333333D01*
X148547619Y-76333333D01*
X148642857Y-76380952D01*
X148690476Y-76428571D01*
X148738095Y-76523809D01*
X147547619Y-75952380D02*
X147452380Y-75952380D01*
X147357142Y-76000000D01*
X147309523Y-76047619D01*
X147261904Y-76142857D01*
X147214285Y-76333333D01*
X147214285Y-76571428D01*
X147261904Y-76761904D01*
X147309523Y-76857142D01*
X147357142Y-76904761D01*
X147452380Y-76952380D01*
X147547619Y-76952380D01*
X147642857Y-76904761D01*
X147690476Y-76857142D01*
X147738095Y-76761904D01*
X147785714Y-76571428D01*
X147785714Y-76333333D01*
X147738095Y-76142857D01*
X147690476Y-76047619D01*
X147642857Y-76000000D01*
X147547619Y-75952380D01*
X146357142Y-75952380D02*
X146547619Y-75952380D01*
X146642857Y-76000000D01*
X146690476Y-76047619D01*
X146785714Y-76190476D01*
X146833333Y-76380952D01*
X146833333Y-76761904D01*
X146785714Y-76857142D01*
X146738095Y-76904761D01*
X146642857Y-76952380D01*
X146452380Y-76952380D01*
X146357142Y-76904761D01*
X146309523Y-76857142D01*
X146261904Y-76761904D01*
X146261904Y-76523809D01*
X146309523Y-76428571D01*
X146357142Y-76380952D01*
X146452380Y-76333333D01*
X146642857Y-76333333D01*
X146738095Y-76380952D01*
X146785714Y-76428571D01*
X146833333Y-76523809D01*
X173165476Y-103427380D02*
X173355952Y-103427380D01*
X173451190Y-103475000D01*
X173498809Y-103522619D01*
X173594047Y-103665476D01*
X173641666Y-103855952D01*
X173641666Y-104236904D01*
X173594047Y-104332142D01*
X173546428Y-104379761D01*
X173451190Y-104427380D01*
X173260714Y-104427380D01*
X173165476Y-104379761D01*
X173117857Y-104332142D01*
X173070238Y-104236904D01*
X173070238Y-103998809D01*
X173117857Y-103903571D01*
X173165476Y-103855952D01*
X173260714Y-103808333D01*
X173451190Y-103808333D01*
X173546428Y-103855952D01*
X173594047Y-103903571D01*
X173641666Y-103998809D01*
X172641666Y-104427380D02*
X172641666Y-103427380D01*
X172546428Y-104046428D02*
X172260714Y-104427380D01*
X172260714Y-103760714D02*
X172641666Y-104141666D01*
X171689285Y-103855952D02*
X171784523Y-103808333D01*
X171832142Y-103760714D01*
X171879761Y-103665476D01*
X171879761Y-103617857D01*
X171832142Y-103522619D01*
X171784523Y-103475000D01*
X171689285Y-103427380D01*
X171498809Y-103427380D01*
X171403571Y-103475000D01*
X171355952Y-103522619D01*
X171308333Y-103617857D01*
X171308333Y-103665476D01*
X171355952Y-103760714D01*
X171403571Y-103808333D01*
X171498809Y-103855952D01*
X171689285Y-103855952D01*
X171784523Y-103903571D01*
X171832142Y-103951190D01*
X171879761Y-104046428D01*
X171879761Y-104236904D01*
X171832142Y-104332142D01*
X171784523Y-104379761D01*
X171689285Y-104427380D01*
X171498809Y-104427380D01*
X171403571Y-104379761D01*
X171355952Y-104332142D01*
X171308333Y-104236904D01*
X171308333Y-104046428D01*
X171355952Y-103951190D01*
X171403571Y-103903571D01*
X171498809Y-103855952D01*
D12*
X173034523Y-105851190D02*
X173201190Y-105613095D01*
X173320238Y-105851190D02*
X173320238Y-105351190D01*
X173129761Y-105351190D01*
X173082142Y-105375000D01*
X173058333Y-105398809D01*
X173034523Y-105446428D01*
X173034523Y-105517857D01*
X173058333Y-105565476D01*
X173082142Y-105589285D01*
X173129761Y-105613095D01*
X173320238Y-105613095D01*
X172605952Y-105517857D02*
X172605952Y-105851190D01*
X172725000Y-105327380D02*
X172844047Y-105684523D01*
X172534523Y-105684523D01*
X172248809Y-105351190D02*
X172201190Y-105351190D01*
X172153571Y-105375000D01*
X172129761Y-105398809D01*
X172105952Y-105446428D01*
X172082142Y-105541666D01*
X172082142Y-105660714D01*
X172105952Y-105755952D01*
X172129761Y-105803571D01*
X172153571Y-105827380D01*
X172201190Y-105851190D01*
X172248809Y-105851190D01*
X172296428Y-105827380D01*
X172320238Y-105803571D01*
X172344047Y-105755952D01*
X172367857Y-105660714D01*
X172367857Y-105541666D01*
X172344047Y-105446428D01*
X172320238Y-105398809D01*
X172296428Y-105375000D01*
X172248809Y-105351190D01*
X171844047Y-105851190D02*
X171748809Y-105851190D01*
X171701190Y-105827380D01*
X171677380Y-105803571D01*
X171629761Y-105732142D01*
X171605952Y-105636904D01*
X171605952Y-105446428D01*
X171629761Y-105398809D01*
X171653571Y-105375000D01*
X171701190Y-105351190D01*
X171796428Y-105351190D01*
X171844047Y-105375000D01*
X171867857Y-105398809D01*
X171891666Y-105446428D01*
X171891666Y-105565476D01*
X171867857Y-105613095D01*
X171844047Y-105636904D01*
X171796428Y-105660714D01*
X171701190Y-105660714D01*
X171653571Y-105636904D01*
X171629761Y-105613095D01*
X171605952Y-105565476D01*
D10*
X173070238Y-115602380D02*
X173641666Y-115602380D01*
X173355952Y-115602380D02*
X173355952Y-114602380D01*
X173451190Y-114745238D01*
X173546428Y-114840476D01*
X173641666Y-114888095D01*
X172641666Y-115602380D02*
X172641666Y-114602380D01*
X172546428Y-115221428D02*
X172260714Y-115602380D01*
X172260714Y-114935714D02*
X172641666Y-115316666D01*
X171355952Y-114602380D02*
X171832142Y-114602380D01*
X171879761Y-115078571D01*
X171832142Y-115030952D01*
X171736904Y-114983333D01*
X171498809Y-114983333D01*
X171403571Y-115030952D01*
X171355952Y-115078571D01*
X171308333Y-115173809D01*
X171308333Y-115411904D01*
X171355952Y-115507142D01*
X171403571Y-115554761D01*
X171498809Y-115602380D01*
X171736904Y-115602380D01*
X171832142Y-115554761D01*
X171879761Y-115507142D01*
D12*
X173034523Y-113726190D02*
X173201190Y-113488095D01*
X173320238Y-113726190D02*
X173320238Y-113226190D01*
X173129761Y-113226190D01*
X173082142Y-113250000D01*
X173058333Y-113273809D01*
X173034523Y-113321428D01*
X173034523Y-113392857D01*
X173058333Y-113440476D01*
X173082142Y-113464285D01*
X173129761Y-113488095D01*
X173320238Y-113488095D01*
X172605952Y-113392857D02*
X172605952Y-113726190D01*
X172725000Y-113202380D02*
X172844047Y-113559523D01*
X172534523Y-113559523D01*
X172248809Y-113226190D02*
X172201190Y-113226190D01*
X172153571Y-113250000D01*
X172129761Y-113273809D01*
X172105952Y-113321428D01*
X172082142Y-113416666D01*
X172082142Y-113535714D01*
X172105952Y-113630952D01*
X172129761Y-113678571D01*
X172153571Y-113702380D01*
X172201190Y-113726190D01*
X172248809Y-113726190D01*
X172296428Y-113702380D01*
X172320238Y-113678571D01*
X172344047Y-113630952D01*
X172367857Y-113535714D01*
X172367857Y-113416666D01*
X172344047Y-113321428D01*
X172320238Y-113273809D01*
X172296428Y-113250000D01*
X172248809Y-113226190D01*
X171796428Y-113440476D02*
X171844047Y-113416666D01*
X171867857Y-113392857D01*
X171891666Y-113345238D01*
X171891666Y-113321428D01*
X171867857Y-113273809D01*
X171844047Y-113250000D01*
X171796428Y-113226190D01*
X171701190Y-113226190D01*
X171653571Y-113250000D01*
X171629761Y-113273809D01*
X171605952Y-113321428D01*
X171605952Y-113345238D01*
X171629761Y-113392857D01*
X171653571Y-113416666D01*
X171701190Y-113440476D01*
X171796428Y-113440476D01*
X171844047Y-113464285D01*
X171867857Y-113488095D01*
X171891666Y-113535714D01*
X171891666Y-113630952D01*
X171867857Y-113678571D01*
X171844047Y-113702380D01*
X171796428Y-113726190D01*
X171701190Y-113726190D01*
X171653571Y-113702380D01*
X171629761Y-113678571D01*
X171605952Y-113630952D01*
X171605952Y-113535714D01*
X171629761Y-113488095D01*
X171653571Y-113464285D01*
X171701190Y-113440476D01*
D10*
X173070238Y-101802380D02*
X173641666Y-101802380D01*
X173355952Y-101802380D02*
X173355952Y-100802380D01*
X173451190Y-100945238D01*
X173546428Y-101040476D01*
X173641666Y-101088095D01*
X172641666Y-101802380D02*
X172641666Y-100802380D01*
X172546428Y-101421428D02*
X172260714Y-101802380D01*
X172260714Y-101135714D02*
X172641666Y-101516666D01*
X171355952Y-100802380D02*
X171832142Y-100802380D01*
X171879761Y-101278571D01*
X171832142Y-101230952D01*
X171736904Y-101183333D01*
X171498809Y-101183333D01*
X171403571Y-101230952D01*
X171355952Y-101278571D01*
X171308333Y-101373809D01*
X171308333Y-101611904D01*
X171355952Y-101707142D01*
X171403571Y-101754761D01*
X171498809Y-101802380D01*
X171736904Y-101802380D01*
X171832142Y-101754761D01*
X171879761Y-101707142D01*
D12*
X173034523Y-103226190D02*
X173201190Y-102988095D01*
X173320238Y-103226190D02*
X173320238Y-102726190D01*
X173129761Y-102726190D01*
X173082142Y-102750000D01*
X173058333Y-102773809D01*
X173034523Y-102821428D01*
X173034523Y-102892857D01*
X173058333Y-102940476D01*
X173082142Y-102964285D01*
X173129761Y-102988095D01*
X173320238Y-102988095D01*
X172605952Y-102892857D02*
X172605952Y-103226190D01*
X172725000Y-102702380D02*
X172844047Y-103059523D01*
X172534523Y-103059523D01*
X172248809Y-102726190D02*
X172201190Y-102726190D01*
X172153571Y-102750000D01*
X172129761Y-102773809D01*
X172105952Y-102821428D01*
X172082142Y-102916666D01*
X172082142Y-103035714D01*
X172105952Y-103130952D01*
X172129761Y-103178571D01*
X172153571Y-103202380D01*
X172201190Y-103226190D01*
X172248809Y-103226190D01*
X172296428Y-103202380D01*
X172320238Y-103178571D01*
X172344047Y-103130952D01*
X172367857Y-103035714D01*
X172367857Y-102916666D01*
X172344047Y-102821428D01*
X172320238Y-102773809D01*
X172296428Y-102750000D01*
X172248809Y-102726190D01*
X171915476Y-102726190D02*
X171582142Y-102726190D01*
X171796428Y-103226190D01*
D10*
X174022619Y-112977380D02*
X174594047Y-112977380D01*
X174308333Y-112977380D02*
X174308333Y-111977380D01*
X174403571Y-112120238D01*
X174498809Y-112215476D01*
X174594047Y-112263095D01*
X173403571Y-111977380D02*
X173308333Y-111977380D01*
X173213095Y-112025000D01*
X173165476Y-112072619D01*
X173117857Y-112167857D01*
X173070238Y-112358333D01*
X173070238Y-112596428D01*
X173117857Y-112786904D01*
X173165476Y-112882142D01*
X173213095Y-112929761D01*
X173308333Y-112977380D01*
X173403571Y-112977380D01*
X173498809Y-112929761D01*
X173546428Y-112882142D01*
X173594047Y-112786904D01*
X173641666Y-112596428D01*
X173641666Y-112358333D01*
X173594047Y-112167857D01*
X173546428Y-112072619D01*
X173498809Y-112025000D01*
X173403571Y-111977380D01*
X172451190Y-111977380D02*
X172355952Y-111977380D01*
X172260714Y-112025000D01*
X172213095Y-112072619D01*
X172165476Y-112167857D01*
X172117857Y-112358333D01*
X172117857Y-112596428D01*
X172165476Y-112786904D01*
X172213095Y-112882142D01*
X172260714Y-112929761D01*
X172355952Y-112977380D01*
X172451190Y-112977380D01*
X172546428Y-112929761D01*
X172594047Y-112882142D01*
X172641666Y-112786904D01*
X172689285Y-112596428D01*
X172689285Y-112358333D01*
X172641666Y-112167857D01*
X172594047Y-112072619D01*
X172546428Y-112025000D01*
X172451190Y-111977380D01*
X171689285Y-112310714D02*
X171689285Y-112977380D01*
X171689285Y-112405952D02*
X171641666Y-112358333D01*
X171546428Y-112310714D01*
X171403571Y-112310714D01*
X171308333Y-112358333D01*
X171260714Y-112453571D01*
X171260714Y-112977380D01*
X170451190Y-112453571D02*
X170784523Y-112453571D01*
X170784523Y-112977380D02*
X170784523Y-111977380D01*
X170308333Y-111977380D01*
D12*
X173034523Y-111053571D02*
X173058333Y-111077380D01*
X173129761Y-111101190D01*
X173177380Y-111101190D01*
X173248809Y-111077380D01*
X173296428Y-111029761D01*
X173320238Y-110982142D01*
X173344047Y-110886904D01*
X173344047Y-110815476D01*
X173320238Y-110720238D01*
X173296428Y-110672619D01*
X173248809Y-110625000D01*
X173177380Y-110601190D01*
X173129761Y-110601190D01*
X173058333Y-110625000D01*
X173034523Y-110648809D01*
X172605952Y-110767857D02*
X172605952Y-111101190D01*
X172725000Y-110577380D02*
X172844047Y-110934523D01*
X172534523Y-110934523D01*
X172248809Y-110601190D02*
X172201190Y-110601190D01*
X172153571Y-110625000D01*
X172129761Y-110648809D01*
X172105952Y-110696428D01*
X172082142Y-110791666D01*
X172082142Y-110910714D01*
X172105952Y-111005952D01*
X172129761Y-111053571D01*
X172153571Y-111077380D01*
X172201190Y-111101190D01*
X172248809Y-111101190D01*
X172296428Y-111077380D01*
X172320238Y-111053571D01*
X172344047Y-111005952D01*
X172367857Y-110910714D01*
X172367857Y-110791666D01*
X172344047Y-110696428D01*
X172320238Y-110648809D01*
X172296428Y-110625000D01*
X172248809Y-110601190D01*
X171796428Y-110815476D02*
X171844047Y-110791666D01*
X171867857Y-110767857D01*
X171891666Y-110720238D01*
X171891666Y-110696428D01*
X171867857Y-110648809D01*
X171844047Y-110625000D01*
X171796428Y-110601190D01*
X171701190Y-110601190D01*
X171653571Y-110625000D01*
X171629761Y-110648809D01*
X171605952Y-110696428D01*
X171605952Y-110720238D01*
X171629761Y-110767857D01*
X171653571Y-110791666D01*
X171701190Y-110815476D01*
X171796428Y-110815476D01*
X171844047Y-110839285D01*
X171867857Y-110863095D01*
X171891666Y-110910714D01*
X171891666Y-111005952D01*
X171867857Y-111053571D01*
X171844047Y-111077380D01*
X171796428Y-111101190D01*
X171701190Y-111101190D01*
X171653571Y-111077380D01*
X171629761Y-111053571D01*
X171605952Y-111005952D01*
X171605952Y-110910714D01*
X171629761Y-110863095D01*
X171653571Y-110839285D01*
X171701190Y-110815476D01*
D10*
X210302380Y-65977380D02*
X210302380Y-65405952D01*
X210302380Y-65691666D02*
X209302380Y-65691666D01*
X209445238Y-65596428D01*
X209540476Y-65501190D01*
X209588095Y-65405952D01*
X209302380Y-66596428D02*
X209302380Y-66691666D01*
X209350000Y-66786904D01*
X209397619Y-66834523D01*
X209492857Y-66882142D01*
X209683333Y-66929761D01*
X209921428Y-66929761D01*
X210111904Y-66882142D01*
X210207142Y-66834523D01*
X210254761Y-66786904D01*
X210302380Y-66691666D01*
X210302380Y-66596428D01*
X210254761Y-66501190D01*
X210207142Y-66453571D01*
X210111904Y-66405952D01*
X209921428Y-66358333D01*
X209683333Y-66358333D01*
X209492857Y-66405952D01*
X209397619Y-66453571D01*
X209350000Y-66501190D01*
X209302380Y-66596428D01*
X209302380Y-67548809D02*
X209302380Y-67644047D01*
X209350000Y-67739285D01*
X209397619Y-67786904D01*
X209492857Y-67834523D01*
X209683333Y-67882142D01*
X209921428Y-67882142D01*
X210111904Y-67834523D01*
X210207142Y-67786904D01*
X210254761Y-67739285D01*
X210302380Y-67644047D01*
X210302380Y-67548809D01*
X210254761Y-67453571D01*
X210207142Y-67405952D01*
X210111904Y-67358333D01*
X209921428Y-67310714D01*
X209683333Y-67310714D01*
X209492857Y-67358333D01*
X209397619Y-67405952D01*
X209350000Y-67453571D01*
X209302380Y-67548809D01*
X209635714Y-68310714D02*
X210302380Y-68310714D01*
X209730952Y-68310714D02*
X209683333Y-68358333D01*
X209635714Y-68453571D01*
X209635714Y-68596428D01*
X209683333Y-68691666D01*
X209778571Y-68739285D01*
X210302380Y-68739285D01*
X209778571Y-69548809D02*
X209778571Y-69215476D01*
X210302380Y-69215476D02*
X209302380Y-69215476D01*
X209302380Y-69691666D01*
D12*
X211678571Y-66965476D02*
X211702380Y-66941666D01*
X211726190Y-66870238D01*
X211726190Y-66822619D01*
X211702380Y-66751190D01*
X211654761Y-66703571D01*
X211607142Y-66679761D01*
X211511904Y-66655952D01*
X211440476Y-66655952D01*
X211345238Y-66679761D01*
X211297619Y-66703571D01*
X211250000Y-66751190D01*
X211226190Y-66822619D01*
X211226190Y-66870238D01*
X211250000Y-66941666D01*
X211273809Y-66965476D01*
X211226190Y-67132142D02*
X211226190Y-67441666D01*
X211416666Y-67275000D01*
X211416666Y-67346428D01*
X211440476Y-67394047D01*
X211464285Y-67417857D01*
X211511904Y-67441666D01*
X211630952Y-67441666D01*
X211678571Y-67417857D01*
X211702380Y-67394047D01*
X211726190Y-67346428D01*
X211726190Y-67203571D01*
X211702380Y-67155952D01*
X211678571Y-67132142D01*
X211226190Y-67751190D02*
X211226190Y-67798809D01*
X211250000Y-67846428D01*
X211273809Y-67870238D01*
X211321428Y-67894047D01*
X211416666Y-67917857D01*
X211535714Y-67917857D01*
X211630952Y-67894047D01*
X211678571Y-67870238D01*
X211702380Y-67846428D01*
X211726190Y-67798809D01*
X211726190Y-67751190D01*
X211702380Y-67703571D01*
X211678571Y-67679761D01*
X211630952Y-67655952D01*
X211535714Y-67632142D01*
X211416666Y-67632142D01*
X211321428Y-67655952D01*
X211273809Y-67679761D01*
X211250000Y-67703571D01*
X211226190Y-67751190D01*
X211226190Y-68084523D02*
X211226190Y-68394047D01*
X211416666Y-68227380D01*
X211416666Y-68298809D01*
X211440476Y-68346428D01*
X211464285Y-68370238D01*
X211511904Y-68394047D01*
X211630952Y-68394047D01*
X211678571Y-68370238D01*
X211702380Y-68346428D01*
X211726190Y-68298809D01*
X211726190Y-68155952D01*
X211702380Y-68108333D01*
X211678571Y-68084523D01*
D10*
X209602380Y-57952380D02*
X209602380Y-57380952D01*
X209602380Y-57666666D02*
X208602380Y-57666666D01*
X208745238Y-57571428D01*
X208840476Y-57476190D01*
X208888095Y-57380952D01*
X208602380Y-58571428D02*
X208602380Y-58666666D01*
X208650000Y-58761904D01*
X208697619Y-58809523D01*
X208792857Y-58857142D01*
X208983333Y-58904761D01*
X209221428Y-58904761D01*
X209411904Y-58857142D01*
X209507142Y-58809523D01*
X209554761Y-58761904D01*
X209602380Y-58666666D01*
X209602380Y-58571428D01*
X209554761Y-58476190D01*
X209507142Y-58428571D01*
X209411904Y-58380952D01*
X209221428Y-58333333D01*
X208983333Y-58333333D01*
X208792857Y-58380952D01*
X208697619Y-58428571D01*
X208650000Y-58476190D01*
X208602380Y-58571428D01*
X208602380Y-59523809D02*
X208602380Y-59619047D01*
X208650000Y-59714285D01*
X208697619Y-59761904D01*
X208792857Y-59809523D01*
X208983333Y-59857142D01*
X209221428Y-59857142D01*
X209411904Y-59809523D01*
X209507142Y-59761904D01*
X209554761Y-59714285D01*
X209602380Y-59619047D01*
X209602380Y-59523809D01*
X209554761Y-59428571D01*
X209507142Y-59380952D01*
X209411904Y-59333333D01*
X209221428Y-59285714D01*
X208983333Y-59285714D01*
X208792857Y-59333333D01*
X208697619Y-59380952D01*
X208650000Y-59428571D01*
X208602380Y-59523809D01*
X208935714Y-60285714D02*
X209602380Y-60285714D01*
X209030952Y-60285714D02*
X208983333Y-60333333D01*
X208935714Y-60428571D01*
X208935714Y-60571428D01*
X208983333Y-60666666D01*
X209078571Y-60714285D01*
X209602380Y-60714285D01*
X209078571Y-61523809D02*
X209078571Y-61190476D01*
X209602380Y-61190476D02*
X208602380Y-61190476D01*
X208602380Y-61666666D01*
D12*
X207678571Y-58940476D02*
X207702380Y-58916666D01*
X207726190Y-58845238D01*
X207726190Y-58797619D01*
X207702380Y-58726190D01*
X207654761Y-58678571D01*
X207607142Y-58654761D01*
X207511904Y-58630952D01*
X207440476Y-58630952D01*
X207345238Y-58654761D01*
X207297619Y-58678571D01*
X207250000Y-58726190D01*
X207226190Y-58797619D01*
X207226190Y-58845238D01*
X207250000Y-58916666D01*
X207273809Y-58940476D01*
X207226190Y-59107142D02*
X207226190Y-59416666D01*
X207416666Y-59250000D01*
X207416666Y-59321428D01*
X207440476Y-59369047D01*
X207464285Y-59392857D01*
X207511904Y-59416666D01*
X207630952Y-59416666D01*
X207678571Y-59392857D01*
X207702380Y-59369047D01*
X207726190Y-59321428D01*
X207726190Y-59178571D01*
X207702380Y-59130952D01*
X207678571Y-59107142D01*
X207226190Y-59726190D02*
X207226190Y-59773809D01*
X207250000Y-59821428D01*
X207273809Y-59845238D01*
X207321428Y-59869047D01*
X207416666Y-59892857D01*
X207535714Y-59892857D01*
X207630952Y-59869047D01*
X207678571Y-59845238D01*
X207702380Y-59821428D01*
X207726190Y-59773809D01*
X207726190Y-59726190D01*
X207702380Y-59678571D01*
X207678571Y-59654761D01*
X207630952Y-59630952D01*
X207535714Y-59607142D01*
X207416666Y-59607142D01*
X207321428Y-59630952D01*
X207273809Y-59654761D01*
X207250000Y-59678571D01*
X207226190Y-59726190D01*
X207273809Y-60083333D02*
X207250000Y-60107142D01*
X207226190Y-60154761D01*
X207226190Y-60273809D01*
X207250000Y-60321428D01*
X207273809Y-60345238D01*
X207321428Y-60369047D01*
X207369047Y-60369047D01*
X207440476Y-60345238D01*
X207726190Y-60059523D01*
X207726190Y-60369047D01*
D10*
X205402380Y-65454761D02*
X205402380Y-64883333D01*
X205402380Y-65169047D02*
X204402380Y-65169047D01*
X204545238Y-65073809D01*
X204640476Y-64978571D01*
X204688095Y-64883333D01*
X204735714Y-66311904D02*
X205402380Y-66311904D01*
X204735714Y-65883333D02*
X205259523Y-65883333D01*
X205354761Y-65930952D01*
X205402380Y-66026190D01*
X205402380Y-66169047D01*
X205354761Y-66264285D01*
X205307142Y-66311904D01*
X204878571Y-67121428D02*
X204878571Y-66788095D01*
X205402380Y-66788095D02*
X204402380Y-66788095D01*
X204402380Y-67264285D01*
X207857142Y-64930952D02*
X207904761Y-64883333D01*
X207952380Y-64740476D01*
X207952380Y-64645238D01*
X207904761Y-64502380D01*
X207809523Y-64407142D01*
X207714285Y-64359523D01*
X207523809Y-64311904D01*
X207380952Y-64311904D01*
X207190476Y-64359523D01*
X207095238Y-64407142D01*
X207000000Y-64502380D01*
X206952380Y-64645238D01*
X206952380Y-64740476D01*
X207000000Y-64883333D01*
X207047619Y-64930952D01*
X206952380Y-65264285D02*
X206952380Y-65883333D01*
X207333333Y-65550000D01*
X207333333Y-65692857D01*
X207380952Y-65788095D01*
X207428571Y-65835714D01*
X207523809Y-65883333D01*
X207761904Y-65883333D01*
X207857142Y-65835714D01*
X207904761Y-65788095D01*
X207952380Y-65692857D01*
X207952380Y-65407142D01*
X207904761Y-65311904D01*
X207857142Y-65264285D01*
X206952380Y-66502380D02*
X206952380Y-66597619D01*
X207000000Y-66692857D01*
X207047619Y-66740476D01*
X207142857Y-66788095D01*
X207333333Y-66835714D01*
X207571428Y-66835714D01*
X207761904Y-66788095D01*
X207857142Y-66740476D01*
X207904761Y-66692857D01*
X207952380Y-66597619D01*
X207952380Y-66502380D01*
X207904761Y-66407142D01*
X207857142Y-66359523D01*
X207761904Y-66311904D01*
X207571428Y-66264285D01*
X207333333Y-66264285D01*
X207142857Y-66311904D01*
X207047619Y-66359523D01*
X207000000Y-66407142D01*
X206952380Y-66502380D01*
X207285714Y-67692857D02*
X207952380Y-67692857D01*
X206904761Y-67454761D02*
X207619047Y-67216666D01*
X207619047Y-67835714D01*
X214502380Y-60354761D02*
X214502380Y-59783333D01*
X214502380Y-60069047D02*
X213502380Y-60069047D01*
X213645238Y-59973809D01*
X213740476Y-59878571D01*
X213788095Y-59783333D01*
X213835714Y-61211904D02*
X214502380Y-61211904D01*
X213835714Y-60783333D02*
X214359523Y-60783333D01*
X214454761Y-60830952D01*
X214502380Y-60926190D01*
X214502380Y-61069047D01*
X214454761Y-61164285D01*
X214407142Y-61211904D01*
X213978571Y-62021428D02*
X213978571Y-61688095D01*
X214502380Y-61688095D02*
X213502380Y-61688095D01*
X213502380Y-62164285D01*
X211857142Y-59830952D02*
X211904761Y-59783333D01*
X211952380Y-59640476D01*
X211952380Y-59545238D01*
X211904761Y-59402380D01*
X211809523Y-59307142D01*
X211714285Y-59259523D01*
X211523809Y-59211904D01*
X211380952Y-59211904D01*
X211190476Y-59259523D01*
X211095238Y-59307142D01*
X211000000Y-59402380D01*
X210952380Y-59545238D01*
X210952380Y-59640476D01*
X211000000Y-59783333D01*
X211047619Y-59830952D01*
X210952380Y-60164285D02*
X210952380Y-60783333D01*
X211333333Y-60450000D01*
X211333333Y-60592857D01*
X211380952Y-60688095D01*
X211428571Y-60735714D01*
X211523809Y-60783333D01*
X211761904Y-60783333D01*
X211857142Y-60735714D01*
X211904761Y-60688095D01*
X211952380Y-60592857D01*
X211952380Y-60307142D01*
X211904761Y-60211904D01*
X211857142Y-60164285D01*
X210952380Y-61402380D02*
X210952380Y-61497619D01*
X211000000Y-61592857D01*
X211047619Y-61640476D01*
X211142857Y-61688095D01*
X211333333Y-61735714D01*
X211571428Y-61735714D01*
X211761904Y-61688095D01*
X211857142Y-61640476D01*
X211904761Y-61592857D01*
X211952380Y-61497619D01*
X211952380Y-61402380D01*
X211904761Y-61307142D01*
X211857142Y-61259523D01*
X211761904Y-61211904D01*
X211571428Y-61164285D01*
X211333333Y-61164285D01*
X211142857Y-61211904D01*
X211047619Y-61259523D01*
X211000000Y-61307142D01*
X210952380Y-61402380D01*
X211952380Y-62688095D02*
X211952380Y-62116666D01*
X211952380Y-62402380D02*
X210952380Y-62402380D01*
X211095238Y-62307142D01*
X211190476Y-62211904D01*
X211238095Y-62116666D01*
X221000000Y-57202380D02*
X221476190Y-57202380D01*
X221476190Y-56202380D01*
X220190476Y-57202380D02*
X220666666Y-57202380D01*
X220666666Y-56202380D01*
X219428571Y-56535714D02*
X219428571Y-57202380D01*
X219666666Y-56154761D02*
X219904761Y-56869047D01*
X219285714Y-56869047D01*
X218380952Y-57202380D02*
X218952380Y-57202380D01*
X218666666Y-57202380D02*
X218666666Y-56202380D01*
X218761904Y-56345238D01*
X218857142Y-56440476D01*
X218952380Y-56488095D01*
X217523809Y-56535714D02*
X217523809Y-57202380D01*
X217761904Y-56154761D02*
X218000000Y-56869047D01*
X217380952Y-56869047D01*
X216857142Y-56630952D02*
X216952380Y-56583333D01*
X217000000Y-56535714D01*
X217047619Y-56440476D01*
X217047619Y-56392857D01*
X217000000Y-56297619D01*
X216952380Y-56250000D01*
X216857142Y-56202380D01*
X216666666Y-56202380D01*
X216571428Y-56250000D01*
X216523809Y-56297619D01*
X216476190Y-56392857D01*
X216476190Y-56440476D01*
X216523809Y-56535714D01*
X216571428Y-56583333D01*
X216666666Y-56630952D01*
X216857142Y-56630952D01*
X216952380Y-56678571D01*
X217000000Y-56726190D01*
X217047619Y-56821428D01*
X217047619Y-57011904D01*
X217000000Y-57107142D01*
X216952380Y-57154761D01*
X216857142Y-57202380D01*
X216666666Y-57202380D01*
X216571428Y-57154761D01*
X216523809Y-57107142D01*
X216476190Y-57011904D01*
X216476190Y-56821428D01*
X216523809Y-56726190D01*
X216571428Y-56678571D01*
X216666666Y-56630952D01*
X220690476Y-60702380D02*
X220690476Y-59702380D01*
X220452380Y-59702380D01*
X220309523Y-59750000D01*
X220214285Y-59845238D01*
X220166666Y-59940476D01*
X220119047Y-60130952D01*
X220119047Y-60273809D01*
X220166666Y-60464285D01*
X220214285Y-60559523D01*
X220309523Y-60654761D01*
X220452380Y-60702380D01*
X220690476Y-60702380D01*
X219785714Y-59702380D02*
X219166666Y-59702380D01*
X219500000Y-60083333D01*
X219357142Y-60083333D01*
X219261904Y-60130952D01*
X219214285Y-60178571D01*
X219166666Y-60273809D01*
X219166666Y-60511904D01*
X219214285Y-60607142D01*
X219261904Y-60654761D01*
X219357142Y-60702380D01*
X219642857Y-60702380D01*
X219738095Y-60654761D01*
X219785714Y-60607142D01*
X218547619Y-59702380D02*
X218452380Y-59702380D01*
X218357142Y-59750000D01*
X218309523Y-59797619D01*
X218261904Y-59892857D01*
X218214285Y-60083333D01*
X218214285Y-60321428D01*
X218261904Y-60511904D01*
X218309523Y-60607142D01*
X218357142Y-60654761D01*
X218452380Y-60702380D01*
X218547619Y-60702380D01*
X218642857Y-60654761D01*
X218690476Y-60607142D01*
X218738095Y-60511904D01*
X218785714Y-60321428D01*
X218785714Y-60083333D01*
X218738095Y-59892857D01*
X218690476Y-59797619D01*
X218642857Y-59750000D01*
X218547619Y-59702380D01*
X217261904Y-60702380D02*
X217833333Y-60702380D01*
X217547619Y-60702380D02*
X217547619Y-59702380D01*
X217642857Y-59845238D01*
X217738095Y-59940476D01*
X217833333Y-59988095D01*
X203636380Y-61333333D02*
X203636380Y-60857142D01*
X202636380Y-60857142D01*
X203636380Y-61666666D02*
X202636380Y-61666666D01*
X203350666Y-62000000D01*
X202636380Y-62333333D01*
X203636380Y-62333333D01*
X202636380Y-62714285D02*
X202636380Y-63380952D01*
X203636380Y-62952380D01*
X203064952Y-63904761D02*
X203017333Y-63809523D01*
X202969714Y-63761904D01*
X202874476Y-63714285D01*
X202826857Y-63714285D01*
X202731619Y-63761904D01*
X202684000Y-63809523D01*
X202636380Y-63904761D01*
X202636380Y-64095238D01*
X202684000Y-64190476D01*
X202731619Y-64238095D01*
X202826857Y-64285714D01*
X202874476Y-64285714D01*
X202969714Y-64238095D01*
X203017333Y-64190476D01*
X203064952Y-64095238D01*
X203064952Y-63904761D01*
X203112571Y-63809523D01*
X203160190Y-63761904D01*
X203255428Y-63714285D01*
X203445904Y-63714285D01*
X203541142Y-63761904D01*
X203588761Y-63809523D01*
X203636380Y-63904761D01*
X203636380Y-64095238D01*
X203588761Y-64190476D01*
X203541142Y-64238095D01*
X203445904Y-64285714D01*
X203255428Y-64285714D01*
X203160190Y-64238095D01*
X203112571Y-64190476D01*
X203064952Y-64095238D01*
X202636380Y-64904761D02*
X202636380Y-65000000D01*
X202684000Y-65095238D01*
X202731619Y-65142857D01*
X202826857Y-65190476D01*
X203017333Y-65238095D01*
X203255428Y-65238095D01*
X203445904Y-65190476D01*
X203541142Y-65142857D01*
X203588761Y-65095238D01*
X203636380Y-65000000D01*
X203636380Y-64904761D01*
X203588761Y-64809523D01*
X203541142Y-64761904D01*
X203445904Y-64714285D01*
X203255428Y-64666666D01*
X203017333Y-64666666D01*
X202826857Y-64714285D01*
X202731619Y-64761904D01*
X202684000Y-64809523D01*
X202636380Y-64904761D01*
X202636380Y-66142857D02*
X202636380Y-65666666D01*
X203112571Y-65619047D01*
X203064952Y-65666666D01*
X203017333Y-65761904D01*
X203017333Y-66000000D01*
X203064952Y-66095238D01*
X203112571Y-66142857D01*
X203207809Y-66190476D01*
X203445904Y-66190476D01*
X203541142Y-66142857D01*
X203588761Y-66095238D01*
X203636380Y-66000000D01*
X203636380Y-65761904D01*
X203588761Y-65666666D01*
X203541142Y-65619047D01*
X180056380Y-61785714D02*
X180865904Y-61785714D01*
X180961142Y-61833333D01*
X181008761Y-61880952D01*
X181056380Y-61976190D01*
X181056380Y-62166666D01*
X181008761Y-62261904D01*
X180961142Y-62309523D01*
X180865904Y-62357142D01*
X180056380Y-62357142D01*
X180056380Y-62738095D02*
X180056380Y-63357142D01*
X180437333Y-63023809D01*
X180437333Y-63166666D01*
X180484952Y-63261904D01*
X180532571Y-63309523D01*
X180627809Y-63357142D01*
X180865904Y-63357142D01*
X180961142Y-63309523D01*
X181008761Y-63261904D01*
X181056380Y-63166666D01*
X181056380Y-62880952D01*
X181008761Y-62785714D01*
X180961142Y-62738095D01*
X180056380Y-63976190D02*
X180056380Y-64071428D01*
X180104000Y-64166666D01*
X180151619Y-64214285D01*
X180246857Y-64261904D01*
X180437333Y-64309523D01*
X180675428Y-64309523D01*
X180865904Y-64261904D01*
X180961142Y-64214285D01*
X181008761Y-64166666D01*
X181056380Y-64071428D01*
X181056380Y-63976190D01*
X181008761Y-63880952D01*
X180961142Y-63833333D01*
X180865904Y-63785714D01*
X180675428Y-63738095D01*
X180437333Y-63738095D01*
X180246857Y-63785714D01*
X180151619Y-63833333D01*
X180104000Y-63880952D01*
X180056380Y-63976190D01*
X181056380Y-65261904D02*
X181056380Y-64690476D01*
X181056380Y-64976190D02*
X180056380Y-64976190D01*
X180199238Y-64880952D01*
X180294476Y-64785714D01*
X180342095Y-64690476D01*
X192466666Y-123052380D02*
X193038095Y-123052380D01*
X192752380Y-123052380D02*
X192752380Y-122052380D01*
X192847619Y-122195238D01*
X192942857Y-122290476D01*
X193038095Y-122338095D01*
X191847619Y-122052380D02*
X191752380Y-122052380D01*
X191657142Y-122100000D01*
X191609523Y-122147619D01*
X191561904Y-122242857D01*
X191514285Y-122433333D01*
X191514285Y-122671428D01*
X191561904Y-122861904D01*
X191609523Y-122957142D01*
X191657142Y-123004761D01*
X191752380Y-123052380D01*
X191847619Y-123052380D01*
X191942857Y-123004761D01*
X191990476Y-122957142D01*
X192038095Y-122861904D01*
X192085714Y-122671428D01*
X192085714Y-122433333D01*
X192038095Y-122242857D01*
X191990476Y-122147619D01*
X191942857Y-122100000D01*
X191847619Y-122052380D01*
X190895238Y-122052380D02*
X190800000Y-122052380D01*
X190704761Y-122100000D01*
X190657142Y-122147619D01*
X190609523Y-122242857D01*
X190561904Y-122433333D01*
X190561904Y-122671428D01*
X190609523Y-122861904D01*
X190657142Y-122957142D01*
X190704761Y-123004761D01*
X190800000Y-123052380D01*
X190895238Y-123052380D01*
X190990476Y-123004761D01*
X191038095Y-122957142D01*
X191085714Y-122861904D01*
X191133333Y-122671428D01*
X191133333Y-122433333D01*
X191085714Y-122242857D01*
X191038095Y-122147619D01*
X190990476Y-122100000D01*
X190895238Y-122052380D01*
D12*
X192359523Y-121176190D02*
X192526190Y-120938095D01*
X192645238Y-121176190D02*
X192645238Y-120676190D01*
X192454761Y-120676190D01*
X192407142Y-120700000D01*
X192383333Y-120723809D01*
X192359523Y-120771428D01*
X192359523Y-120842857D01*
X192383333Y-120890476D01*
X192407142Y-120914285D01*
X192454761Y-120938095D01*
X192645238Y-120938095D01*
X191930952Y-120842857D02*
X191930952Y-121176190D01*
X192050000Y-120652380D02*
X192169047Y-121009523D01*
X191859523Y-121009523D01*
X191407142Y-121176190D02*
X191692857Y-121176190D01*
X191550000Y-121176190D02*
X191550000Y-120676190D01*
X191597619Y-120747619D01*
X191645238Y-120795238D01*
X191692857Y-120819047D01*
X190930952Y-121176190D02*
X191216666Y-121176190D01*
X191073809Y-121176190D02*
X191073809Y-120676190D01*
X191121428Y-120747619D01*
X191169047Y-120795238D01*
X191216666Y-120819047D01*
D10*
X198302380Y-92929761D02*
X198302380Y-92358333D01*
X198302380Y-92644047D02*
X197302380Y-92644047D01*
X197445238Y-92548809D01*
X197540476Y-92453571D01*
X197588095Y-92358333D01*
X197302380Y-93548809D02*
X197302380Y-93644047D01*
X197350000Y-93739285D01*
X197397619Y-93786904D01*
X197492857Y-93834523D01*
X197683333Y-93882142D01*
X197921428Y-93882142D01*
X198111904Y-93834523D01*
X198207142Y-93786904D01*
X198254761Y-93739285D01*
X198302380Y-93644047D01*
X198302380Y-93548809D01*
X198254761Y-93453571D01*
X198207142Y-93405952D01*
X198111904Y-93358333D01*
X197921428Y-93310714D01*
X197683333Y-93310714D01*
X197492857Y-93358333D01*
X197397619Y-93405952D01*
X197350000Y-93453571D01*
X197302380Y-93548809D01*
X198302380Y-94310714D02*
X197302380Y-94310714D01*
X197921428Y-94405952D02*
X198302380Y-94691666D01*
X197635714Y-94691666D02*
X198016666Y-94310714D01*
D12*
X199726190Y-92965476D02*
X199488095Y-92798809D01*
X199726190Y-92679761D02*
X199226190Y-92679761D01*
X199226190Y-92870238D01*
X199250000Y-92917857D01*
X199273809Y-92941666D01*
X199321428Y-92965476D01*
X199392857Y-92965476D01*
X199440476Y-92941666D01*
X199464285Y-92917857D01*
X199488095Y-92870238D01*
X199488095Y-92679761D01*
X199392857Y-93394047D02*
X199726190Y-93394047D01*
X199202380Y-93275000D02*
X199559523Y-93155952D01*
X199559523Y-93465476D01*
X199726190Y-93917857D02*
X199726190Y-93632142D01*
X199726190Y-93775000D02*
X199226190Y-93775000D01*
X199297619Y-93727380D01*
X199345238Y-93679761D01*
X199369047Y-93632142D01*
X199226190Y-94227380D02*
X199226190Y-94275000D01*
X199250000Y-94322619D01*
X199273809Y-94346428D01*
X199321428Y-94370238D01*
X199416666Y-94394047D01*
X199535714Y-94394047D01*
X199630952Y-94370238D01*
X199678571Y-94346428D01*
X199702380Y-94322619D01*
X199726190Y-94275000D01*
X199726190Y-94227380D01*
X199702380Y-94179761D01*
X199678571Y-94155952D01*
X199630952Y-94132142D01*
X199535714Y-94108333D01*
X199416666Y-94108333D01*
X199321428Y-94132142D01*
X199273809Y-94155952D01*
X199250000Y-94179761D01*
X199226190Y-94227380D01*
D10*
X194476190Y-90352380D02*
X194952380Y-90352380D01*
X194952380Y-89352380D01*
X194142857Y-89828571D02*
X193809523Y-89828571D01*
X193666666Y-90352380D02*
X194142857Y-90352380D01*
X194142857Y-89352380D01*
X193666666Y-89352380D01*
X193238095Y-90352380D02*
X193238095Y-89352380D01*
X193000000Y-89352380D01*
X192857142Y-89400000D01*
X192761904Y-89495238D01*
X192714285Y-89590476D01*
X192666666Y-89780952D01*
X192666666Y-89923809D01*
X192714285Y-90114285D01*
X192761904Y-90209523D01*
X192857142Y-90304761D01*
X193000000Y-90352380D01*
X193238095Y-90352380D01*
X192476190Y-90447619D02*
X191714285Y-90447619D01*
X190904761Y-90352380D02*
X191238095Y-89876190D01*
X191476190Y-90352380D02*
X191476190Y-89352380D01*
X191095238Y-89352380D01*
X191000000Y-89400000D01*
X190952380Y-89447619D01*
X190904761Y-89542857D01*
X190904761Y-89685714D01*
X190952380Y-89780952D01*
X191000000Y-89828571D01*
X191095238Y-89876190D01*
X191476190Y-89876190D01*
X190476190Y-89828571D02*
X190142857Y-89828571D01*
X190000000Y-90352380D02*
X190476190Y-90352380D01*
X190476190Y-89352380D01*
X190000000Y-89352380D01*
X189571428Y-90352380D02*
X189571428Y-89352380D01*
X189333333Y-89352380D01*
X189190476Y-89400000D01*
X189095238Y-89495238D01*
X189047619Y-89590476D01*
X189000000Y-89780952D01*
X189000000Y-89923809D01*
X189047619Y-90114285D01*
X189095238Y-90209523D01*
X189190476Y-90304761D01*
X189333333Y-90352380D01*
X189571428Y-90352380D01*
D12*
X192845238Y-88476190D02*
X192845238Y-87976190D01*
X192726190Y-87976190D01*
X192654761Y-88000000D01*
X192607142Y-88047619D01*
X192583333Y-88095238D01*
X192559523Y-88190476D01*
X192559523Y-88261904D01*
X192583333Y-88357142D01*
X192607142Y-88404761D01*
X192654761Y-88452380D01*
X192726190Y-88476190D01*
X192845238Y-88476190D01*
X192130952Y-88142857D02*
X192130952Y-88476190D01*
X192250000Y-87952380D02*
X192369047Y-88309523D01*
X192059523Y-88309523D01*
X191773809Y-87976190D02*
X191726190Y-87976190D01*
X191678571Y-88000000D01*
X191654761Y-88023809D01*
X191630952Y-88071428D01*
X191607142Y-88166666D01*
X191607142Y-88285714D01*
X191630952Y-88380952D01*
X191654761Y-88428571D01*
X191678571Y-88452380D01*
X191726190Y-88476190D01*
X191773809Y-88476190D01*
X191821428Y-88452380D01*
X191845238Y-88428571D01*
X191869047Y-88380952D01*
X191892857Y-88285714D01*
X191892857Y-88166666D01*
X191869047Y-88071428D01*
X191845238Y-88023809D01*
X191821428Y-88000000D01*
X191773809Y-87976190D01*
X191440476Y-87976190D02*
X191130952Y-87976190D01*
X191297619Y-88166666D01*
X191226190Y-88166666D01*
X191178571Y-88190476D01*
X191154761Y-88214285D01*
X191130952Y-88261904D01*
X191130952Y-88380952D01*
X191154761Y-88428571D01*
X191178571Y-88452380D01*
X191226190Y-88476190D01*
X191369047Y-88476190D01*
X191416666Y-88452380D01*
X191440476Y-88428571D01*
D10*
X191960714Y-88352380D02*
X191341666Y-88352380D01*
X191675000Y-88733333D01*
X191532142Y-88733333D01*
X191436904Y-88780952D01*
X191389285Y-88828571D01*
X191341666Y-88923809D01*
X191341666Y-89161904D01*
X191389285Y-89257142D01*
X191436904Y-89304761D01*
X191532142Y-89352380D01*
X191817857Y-89352380D01*
X191913095Y-89304761D01*
X191960714Y-89257142D01*
X191008333Y-88352380D02*
X190389285Y-88352380D01*
X190722619Y-88733333D01*
X190579761Y-88733333D01*
X190484523Y-88780952D01*
X190436904Y-88828571D01*
X190389285Y-88923809D01*
X190389285Y-89161904D01*
X190436904Y-89257142D01*
X190484523Y-89304761D01*
X190579761Y-89352380D01*
X190865476Y-89352380D01*
X190960714Y-89304761D01*
X191008333Y-89257142D01*
X189770238Y-88352380D02*
X189675000Y-88352380D01*
X189579761Y-88400000D01*
X189532142Y-88447619D01*
X189484523Y-88542857D01*
X189436904Y-88733333D01*
X189436904Y-88971428D01*
X189484523Y-89161904D01*
X189532142Y-89257142D01*
X189579761Y-89304761D01*
X189675000Y-89352380D01*
X189770238Y-89352380D01*
X189865476Y-89304761D01*
X189913095Y-89257142D01*
X189960714Y-89161904D01*
X190008333Y-88971428D01*
X190008333Y-88733333D01*
X189960714Y-88542857D01*
X189913095Y-88447619D01*
X189865476Y-88400000D01*
X189770238Y-88352380D01*
D12*
X191234523Y-90776190D02*
X191401190Y-90538095D01*
X191520238Y-90776190D02*
X191520238Y-90276190D01*
X191329761Y-90276190D01*
X191282142Y-90300000D01*
X191258333Y-90323809D01*
X191234523Y-90371428D01*
X191234523Y-90442857D01*
X191258333Y-90490476D01*
X191282142Y-90514285D01*
X191329761Y-90538095D01*
X191520238Y-90538095D01*
X190805952Y-90442857D02*
X190805952Y-90776190D01*
X190925000Y-90252380D02*
X191044047Y-90609523D01*
X190734523Y-90609523D01*
X190448809Y-90276190D02*
X190401190Y-90276190D01*
X190353571Y-90300000D01*
X190329761Y-90323809D01*
X190305952Y-90371428D01*
X190282142Y-90466666D01*
X190282142Y-90585714D01*
X190305952Y-90680952D01*
X190329761Y-90728571D01*
X190353571Y-90752380D01*
X190401190Y-90776190D01*
X190448809Y-90776190D01*
X190496428Y-90752380D01*
X190520238Y-90728571D01*
X190544047Y-90680952D01*
X190567857Y-90585714D01*
X190567857Y-90466666D01*
X190544047Y-90371428D01*
X190520238Y-90323809D01*
X190496428Y-90300000D01*
X190448809Y-90276190D01*
X189853571Y-90276190D02*
X189948809Y-90276190D01*
X189996428Y-90300000D01*
X190020238Y-90323809D01*
X190067857Y-90395238D01*
X190091666Y-90490476D01*
X190091666Y-90680952D01*
X190067857Y-90728571D01*
X190044047Y-90752380D01*
X189996428Y-90776190D01*
X189901190Y-90776190D01*
X189853571Y-90752380D01*
X189829761Y-90728571D01*
X189805952Y-90680952D01*
X189805952Y-90561904D01*
X189829761Y-90514285D01*
X189853571Y-90490476D01*
X189901190Y-90466666D01*
X189996428Y-90466666D01*
X190044047Y-90490476D01*
X190067857Y-90514285D01*
X190091666Y-90561904D01*
D10*
X181002380Y-60354761D02*
X181002380Y-59783333D01*
X181002380Y-60069047D02*
X180002380Y-60069047D01*
X180145238Y-59973809D01*
X180240476Y-59878571D01*
X180288095Y-59783333D01*
X180335714Y-61211904D02*
X181002380Y-61211904D01*
X180335714Y-60783333D02*
X180859523Y-60783333D01*
X180954761Y-60830952D01*
X181002380Y-60926190D01*
X181002380Y-61069047D01*
X180954761Y-61164285D01*
X180907142Y-61211904D01*
X180478571Y-62021428D02*
X180478571Y-61688095D01*
X181002380Y-61688095D02*
X180002380Y-61688095D01*
X180002380Y-62164285D01*
X178357142Y-59830952D02*
X178404761Y-59783333D01*
X178452380Y-59640476D01*
X178452380Y-59545238D01*
X178404761Y-59402380D01*
X178309523Y-59307142D01*
X178214285Y-59259523D01*
X178023809Y-59211904D01*
X177880952Y-59211904D01*
X177690476Y-59259523D01*
X177595238Y-59307142D01*
X177500000Y-59402380D01*
X177452380Y-59545238D01*
X177452380Y-59640476D01*
X177500000Y-59783333D01*
X177547619Y-59830952D01*
X177452380Y-60735714D02*
X177452380Y-60259523D01*
X177928571Y-60211904D01*
X177880952Y-60259523D01*
X177833333Y-60354761D01*
X177833333Y-60592857D01*
X177880952Y-60688095D01*
X177928571Y-60735714D01*
X178023809Y-60783333D01*
X178261904Y-60783333D01*
X178357142Y-60735714D01*
X178404761Y-60688095D01*
X178452380Y-60592857D01*
X178452380Y-60354761D01*
X178404761Y-60259523D01*
X178357142Y-60211904D01*
X177452380Y-61402380D02*
X177452380Y-61497619D01*
X177500000Y-61592857D01*
X177547619Y-61640476D01*
X177642857Y-61688095D01*
X177833333Y-61735714D01*
X178071428Y-61735714D01*
X178261904Y-61688095D01*
X178357142Y-61640476D01*
X178404761Y-61592857D01*
X178452380Y-61497619D01*
X178452380Y-61402380D01*
X178404761Y-61307142D01*
X178357142Y-61259523D01*
X178261904Y-61211904D01*
X178071428Y-61164285D01*
X177833333Y-61164285D01*
X177642857Y-61211904D01*
X177547619Y-61259523D01*
X177500000Y-61307142D01*
X177452380Y-61402380D01*
X178452380Y-62688095D02*
X178452380Y-62116666D01*
X178452380Y-62402380D02*
X177452380Y-62402380D01*
X177595238Y-62307142D01*
X177690476Y-62211904D01*
X177738095Y-62116666D01*
X171902380Y-65404761D02*
X171902380Y-64833333D01*
X171902380Y-65119047D02*
X170902380Y-65119047D01*
X171045238Y-65023809D01*
X171140476Y-64928571D01*
X171188095Y-64833333D01*
X171235714Y-66261904D02*
X171902380Y-66261904D01*
X171235714Y-65833333D02*
X171759523Y-65833333D01*
X171854761Y-65880952D01*
X171902380Y-65976190D01*
X171902380Y-66119047D01*
X171854761Y-66214285D01*
X171807142Y-66261904D01*
X171378571Y-67071428D02*
X171378571Y-66738095D01*
X171902380Y-66738095D02*
X170902380Y-66738095D01*
X170902380Y-67214285D01*
X174357142Y-64880952D02*
X174404761Y-64833333D01*
X174452380Y-64690476D01*
X174452380Y-64595238D01*
X174404761Y-64452380D01*
X174309523Y-64357142D01*
X174214285Y-64309523D01*
X174023809Y-64261904D01*
X173880952Y-64261904D01*
X173690476Y-64309523D01*
X173595238Y-64357142D01*
X173500000Y-64452380D01*
X173452380Y-64595238D01*
X173452380Y-64690476D01*
X173500000Y-64833333D01*
X173547619Y-64880952D01*
X173452380Y-65785714D02*
X173452380Y-65309523D01*
X173928571Y-65261904D01*
X173880952Y-65309523D01*
X173833333Y-65404761D01*
X173833333Y-65642857D01*
X173880952Y-65738095D01*
X173928571Y-65785714D01*
X174023809Y-65833333D01*
X174261904Y-65833333D01*
X174357142Y-65785714D01*
X174404761Y-65738095D01*
X174452380Y-65642857D01*
X174452380Y-65404761D01*
X174404761Y-65309523D01*
X174357142Y-65261904D01*
X173452380Y-66452380D02*
X173452380Y-66547619D01*
X173500000Y-66642857D01*
X173547619Y-66690476D01*
X173642857Y-66738095D01*
X173833333Y-66785714D01*
X174071428Y-66785714D01*
X174261904Y-66738095D01*
X174357142Y-66690476D01*
X174404761Y-66642857D01*
X174452380Y-66547619D01*
X174452380Y-66452380D01*
X174404761Y-66357142D01*
X174357142Y-66309523D01*
X174261904Y-66261904D01*
X174071428Y-66214285D01*
X173833333Y-66214285D01*
X173642857Y-66261904D01*
X173547619Y-66309523D01*
X173500000Y-66357142D01*
X173452380Y-66452380D01*
X173785714Y-67642857D02*
X174452380Y-67642857D01*
X173404761Y-67404761D02*
X174119047Y-67166666D01*
X174119047Y-67785714D01*
X170136380Y-61333333D02*
X170136380Y-60857142D01*
X169136380Y-60857142D01*
X170136380Y-61666666D02*
X169136380Y-61666666D01*
X169850666Y-62000000D01*
X169136380Y-62333333D01*
X170136380Y-62333333D01*
X169136380Y-62714285D02*
X169136380Y-63380952D01*
X170136380Y-62952380D01*
X169564952Y-63904761D02*
X169517333Y-63809523D01*
X169469714Y-63761904D01*
X169374476Y-63714285D01*
X169326857Y-63714285D01*
X169231619Y-63761904D01*
X169184000Y-63809523D01*
X169136380Y-63904761D01*
X169136380Y-64095238D01*
X169184000Y-64190476D01*
X169231619Y-64238095D01*
X169326857Y-64285714D01*
X169374476Y-64285714D01*
X169469714Y-64238095D01*
X169517333Y-64190476D01*
X169564952Y-64095238D01*
X169564952Y-63904761D01*
X169612571Y-63809523D01*
X169660190Y-63761904D01*
X169755428Y-63714285D01*
X169945904Y-63714285D01*
X170041142Y-63761904D01*
X170088761Y-63809523D01*
X170136380Y-63904761D01*
X170136380Y-64095238D01*
X170088761Y-64190476D01*
X170041142Y-64238095D01*
X169945904Y-64285714D01*
X169755428Y-64285714D01*
X169660190Y-64238095D01*
X169612571Y-64190476D01*
X169564952Y-64095238D01*
X170136380Y-65238095D02*
X170136380Y-64666666D01*
X170136380Y-64952380D02*
X169136380Y-64952380D01*
X169279238Y-64857142D01*
X169374476Y-64761904D01*
X169422095Y-64666666D01*
X169136380Y-66142857D02*
X169136380Y-65666666D01*
X169612571Y-65619047D01*
X169564952Y-65666666D01*
X169517333Y-65761904D01*
X169517333Y-66000000D01*
X169564952Y-66095238D01*
X169612571Y-66142857D01*
X169707809Y-66190476D01*
X169945904Y-66190476D01*
X170041142Y-66142857D01*
X170088761Y-66095238D01*
X170136380Y-66000000D01*
X170136380Y-65761904D01*
X170088761Y-65666666D01*
X170041142Y-65619047D01*
X146556380Y-61785714D02*
X147365904Y-61785714D01*
X147461142Y-61833333D01*
X147508761Y-61880952D01*
X147556380Y-61976190D01*
X147556380Y-62166666D01*
X147508761Y-62261904D01*
X147461142Y-62309523D01*
X147365904Y-62357142D01*
X146556380Y-62357142D01*
X146556380Y-63309523D02*
X146556380Y-62833333D01*
X147032571Y-62785714D01*
X146984952Y-62833333D01*
X146937333Y-62928571D01*
X146937333Y-63166666D01*
X146984952Y-63261904D01*
X147032571Y-63309523D01*
X147127809Y-63357142D01*
X147365904Y-63357142D01*
X147461142Y-63309523D01*
X147508761Y-63261904D01*
X147556380Y-63166666D01*
X147556380Y-62928571D01*
X147508761Y-62833333D01*
X147461142Y-62785714D01*
X146556380Y-63976190D02*
X146556380Y-64071428D01*
X146604000Y-64166666D01*
X146651619Y-64214285D01*
X146746857Y-64261904D01*
X146937333Y-64309523D01*
X147175428Y-64309523D01*
X147365904Y-64261904D01*
X147461142Y-64214285D01*
X147508761Y-64166666D01*
X147556380Y-64071428D01*
X147556380Y-63976190D01*
X147508761Y-63880952D01*
X147461142Y-63833333D01*
X147365904Y-63785714D01*
X147175428Y-63738095D01*
X146937333Y-63738095D01*
X146746857Y-63785714D01*
X146651619Y-63833333D01*
X146604000Y-63880952D01*
X146556380Y-63976190D01*
X147556380Y-65261904D02*
X147556380Y-64690476D01*
X147556380Y-64976190D02*
X146556380Y-64976190D01*
X146699238Y-64880952D01*
X146794476Y-64785714D01*
X146842095Y-64690476D01*
X229259523Y-84435714D02*
X229259523Y-85435714D01*
X229259523Y-84483333D02*
X229164285Y-84435714D01*
X228973809Y-84435714D01*
X228878571Y-84483333D01*
X228830952Y-84530952D01*
X228783333Y-84626190D01*
X228783333Y-84911904D01*
X228830952Y-85007142D01*
X228878571Y-85054761D01*
X228973809Y-85102380D01*
X229164285Y-85102380D01*
X229259523Y-85054761D01*
X227973809Y-85054761D02*
X228069047Y-85102380D01*
X228259523Y-85102380D01*
X228354761Y-85054761D01*
X228402380Y-84959523D01*
X228402380Y-84578571D01*
X228354761Y-84483333D01*
X228259523Y-84435714D01*
X228069047Y-84435714D01*
X227973809Y-84483333D01*
X227926190Y-84578571D01*
X227926190Y-84673809D01*
X228402380Y-84769047D01*
X227545238Y-85054761D02*
X227450000Y-85102380D01*
X227259523Y-85102380D01*
X227164285Y-85054761D01*
X227116666Y-84959523D01*
X227116666Y-84911904D01*
X227164285Y-84816666D01*
X227259523Y-84769047D01*
X227402380Y-84769047D01*
X227497619Y-84721428D01*
X227545238Y-84626190D01*
X227545238Y-84578571D01*
X227497619Y-84483333D01*
X227402380Y-84435714D01*
X227259523Y-84435714D01*
X227164285Y-84483333D01*
X226259523Y-85102380D02*
X226259523Y-84102380D01*
X226259523Y-85054761D02*
X226354761Y-85102380D01*
X226545238Y-85102380D01*
X226640476Y-85054761D01*
X226688095Y-85007142D01*
X226735714Y-84911904D01*
X226735714Y-84626190D01*
X226688095Y-84530952D01*
X226640476Y-84483333D01*
X226545238Y-84435714D01*
X226354761Y-84435714D01*
X226259523Y-84483333D01*
X225259523Y-85102380D02*
X225830952Y-85102380D01*
X225545238Y-85102380D02*
X225545238Y-84102380D01*
X225640476Y-84245238D01*
X225735714Y-84340476D01*
X225830952Y-84388095D01*
X224402380Y-85054761D02*
X224497619Y-85102380D01*
X224688095Y-85102380D01*
X224783333Y-85054761D01*
X224830952Y-85007142D01*
X224878571Y-84911904D01*
X224878571Y-84626190D01*
X224830952Y-84530952D01*
X224783333Y-84483333D01*
X224688095Y-84435714D01*
X224497619Y-84435714D01*
X224402380Y-84483333D01*
X223545238Y-85102380D02*
X223545238Y-84578571D01*
X223592857Y-84483333D01*
X223688095Y-84435714D01*
X223878571Y-84435714D01*
X223973809Y-84483333D01*
X223545238Y-85054761D02*
X223640476Y-85102380D01*
X223878571Y-85102380D01*
X223973809Y-85054761D01*
X224021428Y-84959523D01*
X224021428Y-84864285D01*
X223973809Y-84769047D01*
X223878571Y-84721428D01*
X223640476Y-84721428D01*
X223545238Y-84673809D01*
X223069047Y-84435714D02*
X223069047Y-85102380D01*
X223069047Y-84530952D02*
X223021428Y-84483333D01*
X222926190Y-84435714D01*
X222783333Y-84435714D01*
X222688095Y-84483333D01*
X222640476Y-84578571D01*
X222640476Y-85102380D01*
D13*
X226176190Y-86304761D02*
X225676190Y-86304761D01*
X225676190Y-86423809D01*
X225700000Y-86495238D01*
X225747619Y-86542857D01*
X225795238Y-86566666D01*
X225890476Y-86590476D01*
X225961904Y-86590476D01*
X226057142Y-86566666D01*
X226104761Y-86542857D01*
X226152380Y-86495238D01*
X226176190Y-86423809D01*
X226176190Y-86304761D01*
X225723809Y-86780952D02*
X225700000Y-86804761D01*
X225676190Y-86852380D01*
X225676190Y-86971428D01*
X225700000Y-87019047D01*
X225723809Y-87042857D01*
X225771428Y-87066666D01*
X225819047Y-87066666D01*
X225890476Y-87042857D01*
X226176190Y-86757142D01*
X226176190Y-87066666D01*
X225676190Y-87376190D02*
X225676190Y-87423809D01*
X225700000Y-87471428D01*
X225723809Y-87495238D01*
X225771428Y-87519047D01*
X225866666Y-87542857D01*
X225985714Y-87542857D01*
X226080952Y-87519047D01*
X226128571Y-87495238D01*
X226152380Y-87471428D01*
X226176190Y-87423809D01*
X226176190Y-87376190D01*
X226152380Y-87328571D01*
X226128571Y-87304761D01*
X226080952Y-87280952D01*
X225985714Y-87257142D01*
X225866666Y-87257142D01*
X225771428Y-87280952D01*
X225723809Y-87304761D01*
X225700000Y-87328571D01*
X225676190Y-87376190D01*
X226176190Y-88019047D02*
X226176190Y-87733333D01*
X226176190Y-87876190D02*
X225676190Y-87876190D01*
X225747619Y-87828571D01*
X225795238Y-87780952D01*
X225819047Y-87733333D01*
D10*
X228809523Y-53632380D02*
X229285714Y-53632380D01*
X229333333Y-54108571D01*
X229285714Y-54060952D01*
X229190476Y-54013333D01*
X228952380Y-54013333D01*
X228857142Y-54060952D01*
X228809523Y-54108571D01*
X228761904Y-54203809D01*
X228761904Y-54441904D01*
X228809523Y-54537142D01*
X228857142Y-54584761D01*
X228952380Y-54632380D01*
X229190476Y-54632380D01*
X229285714Y-54584761D01*
X229333333Y-54537142D01*
X228142857Y-53632380D02*
X228047619Y-53632380D01*
X227952380Y-53680000D01*
X227904761Y-53727619D01*
X227857142Y-53822857D01*
X227809523Y-54013333D01*
X227809523Y-54251428D01*
X227857142Y-54441904D01*
X227904761Y-54537142D01*
X227952380Y-54584761D01*
X228047619Y-54632380D01*
X228142857Y-54632380D01*
X228238095Y-54584761D01*
X228285714Y-54537142D01*
X228333333Y-54441904D01*
X228380952Y-54251428D01*
X228380952Y-54013333D01*
X228333333Y-53822857D01*
X228285714Y-53727619D01*
X228238095Y-53680000D01*
X228142857Y-53632380D01*
X227190476Y-53632380D02*
X227095238Y-53632380D01*
X227000000Y-53680000D01*
X226952380Y-53727619D01*
X226904761Y-53822857D01*
X226857142Y-54013333D01*
X226857142Y-54251428D01*
X226904761Y-54441904D01*
X226952380Y-54537142D01*
X227000000Y-54584761D01*
X227095238Y-54632380D01*
X227190476Y-54632380D01*
X227285714Y-54584761D01*
X227333333Y-54537142D01*
X227380952Y-54441904D01*
X227428571Y-54251428D01*
X227428571Y-54013333D01*
X227380952Y-53822857D01*
X227333333Y-53727619D01*
X227285714Y-53680000D01*
X227190476Y-53632380D01*
X226428571Y-54632380D02*
X226428571Y-53965714D01*
X226428571Y-54060952D02*
X226380952Y-54013333D01*
X226285714Y-53965714D01*
X226142857Y-53965714D01*
X226047619Y-54013333D01*
X226000000Y-54108571D01*
X226000000Y-54632380D01*
X226000000Y-54108571D02*
X225952380Y-54013333D01*
X225857142Y-53965714D01*
X225714285Y-53965714D01*
X225619047Y-54013333D01*
X225571428Y-54108571D01*
X225571428Y-54632380D01*
X225142857Y-54346666D02*
X224666666Y-54346666D01*
X225238095Y-54632380D02*
X224904761Y-53632380D01*
X224571428Y-54632380D01*
D14*
X228028571Y-55942857D02*
X228295238Y-55942857D01*
X228295238Y-56361904D02*
X228295238Y-55561904D01*
X227914285Y-55561904D01*
X227228571Y-55561904D02*
X227609523Y-55561904D01*
X227647619Y-55942857D01*
X227609523Y-55904761D01*
X227533333Y-55866666D01*
X227342857Y-55866666D01*
X227266666Y-55904761D01*
X227228571Y-55942857D01*
X227190476Y-56019047D01*
X227190476Y-56209523D01*
X227228571Y-56285714D01*
X227266666Y-56323809D01*
X227342857Y-56361904D01*
X227533333Y-56361904D01*
X227609523Y-56323809D01*
X227647619Y-56285714D01*
X226695238Y-55561904D02*
X226619047Y-55561904D01*
X226542857Y-55600000D01*
X226504761Y-55638095D01*
X226466666Y-55714285D01*
X226428571Y-55866666D01*
X226428571Y-56057142D01*
X226466666Y-56209523D01*
X226504761Y-56285714D01*
X226542857Y-56323809D01*
X226619047Y-56361904D01*
X226695238Y-56361904D01*
X226771428Y-56323809D01*
X226809523Y-56285714D01*
X226847619Y-56209523D01*
X226885714Y-56057142D01*
X226885714Y-55866666D01*
X226847619Y-55714285D01*
X226809523Y-55638095D01*
X226771428Y-55600000D01*
X226695238Y-55561904D01*
X225666666Y-56361904D02*
X226123809Y-56361904D01*
X225895238Y-56361904D02*
X225895238Y-55561904D01*
X225971428Y-55676190D01*
X226047619Y-55752380D01*
X226123809Y-55790476D01*
D10*
X201602380Y-87717380D02*
X201602380Y-87145952D01*
X201602380Y-87431666D02*
X200602380Y-87431666D01*
X200745238Y-87336428D01*
X200840476Y-87241190D01*
X200888095Y-87145952D01*
X200602380Y-88336428D02*
X200602380Y-88431666D01*
X200650000Y-88526904D01*
X200697619Y-88574523D01*
X200792857Y-88622142D01*
X200983333Y-88669761D01*
X201221428Y-88669761D01*
X201411904Y-88622142D01*
X201507142Y-88574523D01*
X201554761Y-88526904D01*
X201602380Y-88431666D01*
X201602380Y-88336428D01*
X201554761Y-88241190D01*
X201507142Y-88193571D01*
X201411904Y-88145952D01*
X201221428Y-88098333D01*
X200983333Y-88098333D01*
X200792857Y-88145952D01*
X200697619Y-88193571D01*
X200650000Y-88241190D01*
X200602380Y-88336428D01*
X200602380Y-89288809D02*
X200602380Y-89384047D01*
X200650000Y-89479285D01*
X200697619Y-89526904D01*
X200792857Y-89574523D01*
X200983333Y-89622142D01*
X201221428Y-89622142D01*
X201411904Y-89574523D01*
X201507142Y-89526904D01*
X201554761Y-89479285D01*
X201602380Y-89384047D01*
X201602380Y-89288809D01*
X201554761Y-89193571D01*
X201507142Y-89145952D01*
X201411904Y-89098333D01*
X201221428Y-89050714D01*
X200983333Y-89050714D01*
X200792857Y-89098333D01*
X200697619Y-89145952D01*
X200650000Y-89193571D01*
X200602380Y-89288809D01*
X200935714Y-90050714D02*
X201602380Y-90050714D01*
X201030952Y-90050714D02*
X200983333Y-90098333D01*
X200935714Y-90193571D01*
X200935714Y-90336428D01*
X200983333Y-90431666D01*
X201078571Y-90479285D01*
X201602380Y-90479285D01*
X201078571Y-91288809D02*
X201078571Y-90955476D01*
X201602380Y-90955476D02*
X200602380Y-90955476D01*
X200602380Y-91431666D01*
D12*
X199678571Y-88705476D02*
X199702380Y-88681666D01*
X199726190Y-88610238D01*
X199726190Y-88562619D01*
X199702380Y-88491190D01*
X199654761Y-88443571D01*
X199607142Y-88419761D01*
X199511904Y-88395952D01*
X199440476Y-88395952D01*
X199345238Y-88419761D01*
X199297619Y-88443571D01*
X199250000Y-88491190D01*
X199226190Y-88562619D01*
X199226190Y-88610238D01*
X199250000Y-88681666D01*
X199273809Y-88705476D01*
X199273809Y-88895952D02*
X199250000Y-88919761D01*
X199226190Y-88967380D01*
X199226190Y-89086428D01*
X199250000Y-89134047D01*
X199273809Y-89157857D01*
X199321428Y-89181666D01*
X199369047Y-89181666D01*
X199440476Y-89157857D01*
X199726190Y-88872142D01*
X199726190Y-89181666D01*
X199226190Y-89491190D02*
X199226190Y-89538809D01*
X199250000Y-89586428D01*
X199273809Y-89610238D01*
X199321428Y-89634047D01*
X199416666Y-89657857D01*
X199535714Y-89657857D01*
X199630952Y-89634047D01*
X199678571Y-89610238D01*
X199702380Y-89586428D01*
X199726190Y-89538809D01*
X199726190Y-89491190D01*
X199702380Y-89443571D01*
X199678571Y-89419761D01*
X199630952Y-89395952D01*
X199535714Y-89372142D01*
X199416666Y-89372142D01*
X199321428Y-89395952D01*
X199273809Y-89419761D01*
X199250000Y-89443571D01*
X199226190Y-89491190D01*
X199726190Y-90134047D02*
X199726190Y-89848333D01*
X199726190Y-89991190D02*
X199226190Y-89991190D01*
X199297619Y-89943571D01*
X199345238Y-89895952D01*
X199369047Y-89848333D01*
D10*
X218547619Y-116102380D02*
X219119047Y-116102380D01*
X218833333Y-116102380D02*
X218833333Y-115102380D01*
X218928571Y-115245238D01*
X219023809Y-115340476D01*
X219119047Y-115388095D01*
X217928571Y-115102380D02*
X217833333Y-115102380D01*
X217738095Y-115150000D01*
X217690476Y-115197619D01*
X217642857Y-115292857D01*
X217595238Y-115483333D01*
X217595238Y-115721428D01*
X217642857Y-115911904D01*
X217690476Y-116007142D01*
X217738095Y-116054761D01*
X217833333Y-116102380D01*
X217928571Y-116102380D01*
X218023809Y-116054761D01*
X218071428Y-116007142D01*
X218119047Y-115911904D01*
X218166666Y-115721428D01*
X218166666Y-115483333D01*
X218119047Y-115292857D01*
X218071428Y-115197619D01*
X218023809Y-115150000D01*
X217928571Y-115102380D01*
X216976190Y-115102380D02*
X216880952Y-115102380D01*
X216785714Y-115150000D01*
X216738095Y-115197619D01*
X216690476Y-115292857D01*
X216642857Y-115483333D01*
X216642857Y-115721428D01*
X216690476Y-115911904D01*
X216738095Y-116007142D01*
X216785714Y-116054761D01*
X216880952Y-116102380D01*
X216976190Y-116102380D01*
X217071428Y-116054761D01*
X217119047Y-116007142D01*
X217166666Y-115911904D01*
X217214285Y-115721428D01*
X217214285Y-115483333D01*
X217166666Y-115292857D01*
X217119047Y-115197619D01*
X217071428Y-115150000D01*
X216976190Y-115102380D01*
X216214285Y-115435714D02*
X216214285Y-116102380D01*
X216214285Y-115530952D02*
X216166666Y-115483333D01*
X216071428Y-115435714D01*
X215928571Y-115435714D01*
X215833333Y-115483333D01*
X215785714Y-115578571D01*
X215785714Y-116102380D01*
X214976190Y-115578571D02*
X215309523Y-115578571D01*
X215309523Y-116102380D02*
X215309523Y-115102380D01*
X214833333Y-115102380D01*
D12*
X217559523Y-114178571D02*
X217583333Y-114202380D01*
X217654761Y-114226190D01*
X217702380Y-114226190D01*
X217773809Y-114202380D01*
X217821428Y-114154761D01*
X217845238Y-114107142D01*
X217869047Y-114011904D01*
X217869047Y-113940476D01*
X217845238Y-113845238D01*
X217821428Y-113797619D01*
X217773809Y-113750000D01*
X217702380Y-113726190D01*
X217654761Y-113726190D01*
X217583333Y-113750000D01*
X217559523Y-113773809D01*
X217369047Y-113773809D02*
X217345238Y-113750000D01*
X217297619Y-113726190D01*
X217178571Y-113726190D01*
X217130952Y-113750000D01*
X217107142Y-113773809D01*
X217083333Y-113821428D01*
X217083333Y-113869047D01*
X217107142Y-113940476D01*
X217392857Y-114226190D01*
X217083333Y-114226190D01*
X216773809Y-113726190D02*
X216726190Y-113726190D01*
X216678571Y-113750000D01*
X216654761Y-113773809D01*
X216630952Y-113821428D01*
X216607142Y-113916666D01*
X216607142Y-114035714D01*
X216630952Y-114130952D01*
X216654761Y-114178571D01*
X216678571Y-114202380D01*
X216726190Y-114226190D01*
X216773809Y-114226190D01*
X216821428Y-114202380D01*
X216845238Y-114178571D01*
X216869047Y-114130952D01*
X216892857Y-114035714D01*
X216892857Y-113916666D01*
X216869047Y-113821428D01*
X216845238Y-113773809D01*
X216821428Y-113750000D01*
X216773809Y-113726190D01*
X216416666Y-113773809D02*
X216392857Y-113750000D01*
X216345238Y-113726190D01*
X216226190Y-113726190D01*
X216178571Y-113750000D01*
X216154761Y-113773809D01*
X216130952Y-113821428D01*
X216130952Y-113869047D01*
X216154761Y-113940476D01*
X216440476Y-114226190D01*
X216130952Y-114226190D01*
D10*
X205766857Y-105373619D02*
X205719238Y-105326000D01*
X205624000Y-105278380D01*
X205385904Y-105278380D01*
X205290666Y-105326000D01*
X205243047Y-105373619D01*
X205195428Y-105468857D01*
X205195428Y-105564095D01*
X205243047Y-105706952D01*
X205814476Y-106278380D01*
X205195428Y-106278380D01*
X204814476Y-105373619D02*
X204766857Y-105326000D01*
X204671619Y-105278380D01*
X204433523Y-105278380D01*
X204338285Y-105326000D01*
X204290666Y-105373619D01*
X204243047Y-105468857D01*
X204243047Y-105564095D01*
X204290666Y-105706952D01*
X204862095Y-106278380D01*
X204243047Y-106278380D01*
X203814476Y-105611714D02*
X203814476Y-106611714D01*
X203814476Y-105659333D02*
X203719238Y-105611714D01*
X203528761Y-105611714D01*
X203433523Y-105659333D01*
X203385904Y-105706952D01*
X203338285Y-105802190D01*
X203338285Y-106087904D01*
X203385904Y-106183142D01*
X203433523Y-106230761D01*
X203528761Y-106278380D01*
X203719238Y-106278380D01*
X203814476Y-106230761D01*
X202576380Y-105754571D02*
X202909714Y-105754571D01*
X202909714Y-106278380D02*
X202909714Y-105278380D01*
X202433523Y-105278380D01*
D12*
X204683523Y-104354571D02*
X204707333Y-104378380D01*
X204778761Y-104402190D01*
X204826380Y-104402190D01*
X204897809Y-104378380D01*
X204945428Y-104330761D01*
X204969238Y-104283142D01*
X204993047Y-104187904D01*
X204993047Y-104116476D01*
X204969238Y-104021238D01*
X204945428Y-103973619D01*
X204897809Y-103926000D01*
X204826380Y-103902190D01*
X204778761Y-103902190D01*
X204707333Y-103926000D01*
X204683523Y-103949809D01*
X204493047Y-103949809D02*
X204469238Y-103926000D01*
X204421619Y-103902190D01*
X204302571Y-103902190D01*
X204254952Y-103926000D01*
X204231142Y-103949809D01*
X204207333Y-103997428D01*
X204207333Y-104045047D01*
X204231142Y-104116476D01*
X204516857Y-104402190D01*
X204207333Y-104402190D01*
X203897809Y-103902190D02*
X203850190Y-103902190D01*
X203802571Y-103926000D01*
X203778761Y-103949809D01*
X203754952Y-103997428D01*
X203731142Y-104092666D01*
X203731142Y-104211714D01*
X203754952Y-104306952D01*
X203778761Y-104354571D01*
X203802571Y-104378380D01*
X203850190Y-104402190D01*
X203897809Y-104402190D01*
X203945428Y-104378380D01*
X203969238Y-104354571D01*
X203993047Y-104306952D01*
X204016857Y-104211714D01*
X204016857Y-104092666D01*
X203993047Y-103997428D01*
X203969238Y-103949809D01*
X203945428Y-103926000D01*
X203897809Y-103902190D01*
X203564476Y-103902190D02*
X203254952Y-103902190D01*
X203421619Y-104092666D01*
X203350190Y-104092666D01*
X203302571Y-104116476D01*
X203278761Y-104140285D01*
X203254952Y-104187904D01*
X203254952Y-104306952D01*
X203278761Y-104354571D01*
X203302571Y-104378380D01*
X203350190Y-104402190D01*
X203493047Y-104402190D01*
X203540666Y-104378380D01*
X203564476Y-104354571D01*
D10*
X207916857Y-98263619D02*
X207869238Y-98216000D01*
X207774000Y-98168380D01*
X207535904Y-98168380D01*
X207440666Y-98216000D01*
X207393047Y-98263619D01*
X207345428Y-98358857D01*
X207345428Y-98454095D01*
X207393047Y-98596952D01*
X207964476Y-99168380D01*
X207345428Y-99168380D01*
X206964476Y-98263619D02*
X206916857Y-98216000D01*
X206821619Y-98168380D01*
X206583523Y-98168380D01*
X206488285Y-98216000D01*
X206440666Y-98263619D01*
X206393047Y-98358857D01*
X206393047Y-98454095D01*
X206440666Y-98596952D01*
X207012095Y-99168380D01*
X206393047Y-99168380D01*
X205964476Y-98501714D02*
X205964476Y-99501714D01*
X205964476Y-98549333D02*
X205869238Y-98501714D01*
X205678761Y-98501714D01*
X205583523Y-98549333D01*
X205535904Y-98596952D01*
X205488285Y-98692190D01*
X205488285Y-98977904D01*
X205535904Y-99073142D01*
X205583523Y-99120761D01*
X205678761Y-99168380D01*
X205869238Y-99168380D01*
X205964476Y-99120761D01*
X204726380Y-98644571D02*
X205059714Y-98644571D01*
X205059714Y-99168380D02*
X205059714Y-98168380D01*
X204583523Y-98168380D01*
D12*
X206833523Y-100544571D02*
X206857333Y-100568380D01*
X206928761Y-100592190D01*
X206976380Y-100592190D01*
X207047809Y-100568380D01*
X207095428Y-100520761D01*
X207119238Y-100473142D01*
X207143047Y-100377904D01*
X207143047Y-100306476D01*
X207119238Y-100211238D01*
X207095428Y-100163619D01*
X207047809Y-100116000D01*
X206976380Y-100092190D01*
X206928761Y-100092190D01*
X206857333Y-100116000D01*
X206833523Y-100139809D01*
X206643047Y-100139809D02*
X206619238Y-100116000D01*
X206571619Y-100092190D01*
X206452571Y-100092190D01*
X206404952Y-100116000D01*
X206381142Y-100139809D01*
X206357333Y-100187428D01*
X206357333Y-100235047D01*
X206381142Y-100306476D01*
X206666857Y-100592190D01*
X206357333Y-100592190D01*
X206047809Y-100092190D02*
X206000190Y-100092190D01*
X205952571Y-100116000D01*
X205928761Y-100139809D01*
X205904952Y-100187428D01*
X205881142Y-100282666D01*
X205881142Y-100401714D01*
X205904952Y-100496952D01*
X205928761Y-100544571D01*
X205952571Y-100568380D01*
X206000190Y-100592190D01*
X206047809Y-100592190D01*
X206095428Y-100568380D01*
X206119238Y-100544571D01*
X206143047Y-100496952D01*
X206166857Y-100401714D01*
X206166857Y-100282666D01*
X206143047Y-100187428D01*
X206119238Y-100139809D01*
X206095428Y-100116000D01*
X206047809Y-100092190D01*
X205452571Y-100258857D02*
X205452571Y-100592190D01*
X205571619Y-100068380D02*
X205690666Y-100425523D01*
X205381142Y-100425523D01*
D10*
X220547619Y-118102380D02*
X221119047Y-118102380D01*
X220833333Y-118102380D02*
X220833333Y-117102380D01*
X220928571Y-117245238D01*
X221023809Y-117340476D01*
X221119047Y-117388095D01*
X219928571Y-117102380D02*
X219833333Y-117102380D01*
X219738095Y-117150000D01*
X219690476Y-117197619D01*
X219642857Y-117292857D01*
X219595238Y-117483333D01*
X219595238Y-117721428D01*
X219642857Y-117911904D01*
X219690476Y-118007142D01*
X219738095Y-118054761D01*
X219833333Y-118102380D01*
X219928571Y-118102380D01*
X220023809Y-118054761D01*
X220071428Y-118007142D01*
X220119047Y-117911904D01*
X220166666Y-117721428D01*
X220166666Y-117483333D01*
X220119047Y-117292857D01*
X220071428Y-117197619D01*
X220023809Y-117150000D01*
X219928571Y-117102380D01*
X218976190Y-117102380D02*
X218880952Y-117102380D01*
X218785714Y-117150000D01*
X218738095Y-117197619D01*
X218690476Y-117292857D01*
X218642857Y-117483333D01*
X218642857Y-117721428D01*
X218690476Y-117911904D01*
X218738095Y-118007142D01*
X218785714Y-118054761D01*
X218880952Y-118102380D01*
X218976190Y-118102380D01*
X219071428Y-118054761D01*
X219119047Y-118007142D01*
X219166666Y-117911904D01*
X219214285Y-117721428D01*
X219214285Y-117483333D01*
X219166666Y-117292857D01*
X219119047Y-117197619D01*
X219071428Y-117150000D01*
X218976190Y-117102380D01*
X218214285Y-117435714D02*
X218214285Y-118102380D01*
X218214285Y-117530952D02*
X218166666Y-117483333D01*
X218071428Y-117435714D01*
X217928571Y-117435714D01*
X217833333Y-117483333D01*
X217785714Y-117578571D01*
X217785714Y-118102380D01*
X216976190Y-117578571D02*
X217309523Y-117578571D01*
X217309523Y-118102380D02*
X217309523Y-117102380D01*
X216833333Y-117102380D01*
D12*
X219559523Y-116178571D02*
X219583333Y-116202380D01*
X219654761Y-116226190D01*
X219702380Y-116226190D01*
X219773809Y-116202380D01*
X219821428Y-116154761D01*
X219845238Y-116107142D01*
X219869047Y-116011904D01*
X219869047Y-115940476D01*
X219845238Y-115845238D01*
X219821428Y-115797619D01*
X219773809Y-115750000D01*
X219702380Y-115726190D01*
X219654761Y-115726190D01*
X219583333Y-115750000D01*
X219559523Y-115773809D01*
X219369047Y-115773809D02*
X219345238Y-115750000D01*
X219297619Y-115726190D01*
X219178571Y-115726190D01*
X219130952Y-115750000D01*
X219107142Y-115773809D01*
X219083333Y-115821428D01*
X219083333Y-115869047D01*
X219107142Y-115940476D01*
X219392857Y-116226190D01*
X219083333Y-116226190D01*
X218773809Y-115726190D02*
X218726190Y-115726190D01*
X218678571Y-115750000D01*
X218654761Y-115773809D01*
X218630952Y-115821428D01*
X218607142Y-115916666D01*
X218607142Y-116035714D01*
X218630952Y-116130952D01*
X218654761Y-116178571D01*
X218678571Y-116202380D01*
X218726190Y-116226190D01*
X218773809Y-116226190D01*
X218821428Y-116202380D01*
X218845238Y-116178571D01*
X218869047Y-116130952D01*
X218892857Y-116035714D01*
X218892857Y-115916666D01*
X218869047Y-115821428D01*
X218845238Y-115773809D01*
X218821428Y-115750000D01*
X218773809Y-115726190D01*
X218154761Y-115726190D02*
X218392857Y-115726190D01*
X218416666Y-115964285D01*
X218392857Y-115940476D01*
X218345238Y-115916666D01*
X218226190Y-115916666D01*
X218178571Y-115940476D01*
X218154761Y-115964285D01*
X218130952Y-116011904D01*
X218130952Y-116130952D01*
X218154761Y-116178571D01*
X218178571Y-116202380D01*
X218226190Y-116226190D01*
X218345238Y-116226190D01*
X218392857Y-116202380D01*
X218416666Y-116178571D01*
D10*
X188302380Y-103952380D02*
X188302380Y-103380952D01*
X188302380Y-103666666D02*
X187302380Y-103666666D01*
X187445238Y-103571428D01*
X187540476Y-103476190D01*
X187588095Y-103380952D01*
X187302380Y-104571428D02*
X187302380Y-104666666D01*
X187350000Y-104761904D01*
X187397619Y-104809523D01*
X187492857Y-104857142D01*
X187683333Y-104904761D01*
X187921428Y-104904761D01*
X188111904Y-104857142D01*
X188207142Y-104809523D01*
X188254761Y-104761904D01*
X188302380Y-104666666D01*
X188302380Y-104571428D01*
X188254761Y-104476190D01*
X188207142Y-104428571D01*
X188111904Y-104380952D01*
X187921428Y-104333333D01*
X187683333Y-104333333D01*
X187492857Y-104380952D01*
X187397619Y-104428571D01*
X187350000Y-104476190D01*
X187302380Y-104571428D01*
X187302380Y-105523809D02*
X187302380Y-105619047D01*
X187350000Y-105714285D01*
X187397619Y-105761904D01*
X187492857Y-105809523D01*
X187683333Y-105857142D01*
X187921428Y-105857142D01*
X188111904Y-105809523D01*
X188207142Y-105761904D01*
X188254761Y-105714285D01*
X188302380Y-105619047D01*
X188302380Y-105523809D01*
X188254761Y-105428571D01*
X188207142Y-105380952D01*
X188111904Y-105333333D01*
X187921428Y-105285714D01*
X187683333Y-105285714D01*
X187492857Y-105333333D01*
X187397619Y-105380952D01*
X187350000Y-105428571D01*
X187302380Y-105523809D01*
X187635714Y-106285714D02*
X188302380Y-106285714D01*
X187730952Y-106285714D02*
X187683333Y-106333333D01*
X187635714Y-106428571D01*
X187635714Y-106571428D01*
X187683333Y-106666666D01*
X187778571Y-106714285D01*
X188302380Y-106714285D01*
X187778571Y-107523809D02*
X187778571Y-107190476D01*
X188302380Y-107190476D02*
X187302380Y-107190476D01*
X187302380Y-107666666D01*
D12*
X189678571Y-104940476D02*
X189702380Y-104916666D01*
X189726190Y-104845238D01*
X189726190Y-104797619D01*
X189702380Y-104726190D01*
X189654761Y-104678571D01*
X189607142Y-104654761D01*
X189511904Y-104630952D01*
X189440476Y-104630952D01*
X189345238Y-104654761D01*
X189297619Y-104678571D01*
X189250000Y-104726190D01*
X189226190Y-104797619D01*
X189226190Y-104845238D01*
X189250000Y-104916666D01*
X189273809Y-104940476D01*
X189392857Y-105369047D02*
X189726190Y-105369047D01*
X189202380Y-105250000D02*
X189559523Y-105130952D01*
X189559523Y-105440476D01*
X189226190Y-105726190D02*
X189226190Y-105773809D01*
X189250000Y-105821428D01*
X189273809Y-105845238D01*
X189321428Y-105869047D01*
X189416666Y-105892857D01*
X189535714Y-105892857D01*
X189630952Y-105869047D01*
X189678571Y-105845238D01*
X189702380Y-105821428D01*
X189726190Y-105773809D01*
X189726190Y-105726190D01*
X189702380Y-105678571D01*
X189678571Y-105654761D01*
X189630952Y-105630952D01*
X189535714Y-105607142D01*
X189416666Y-105607142D01*
X189321428Y-105630952D01*
X189273809Y-105654761D01*
X189250000Y-105678571D01*
X189226190Y-105726190D01*
X189726190Y-106369047D02*
X189726190Y-106083333D01*
X189726190Y-106226190D02*
X189226190Y-106226190D01*
X189297619Y-106178571D01*
X189345238Y-106130952D01*
X189369047Y-106083333D01*
D10*
X180802380Y-102952380D02*
X180802380Y-102380952D01*
X180802380Y-102666666D02*
X179802380Y-102666666D01*
X179945238Y-102571428D01*
X180040476Y-102476190D01*
X180088095Y-102380952D01*
X179802380Y-103571428D02*
X179802380Y-103666666D01*
X179850000Y-103761904D01*
X179897619Y-103809523D01*
X179992857Y-103857142D01*
X180183333Y-103904761D01*
X180421428Y-103904761D01*
X180611904Y-103857142D01*
X180707142Y-103809523D01*
X180754761Y-103761904D01*
X180802380Y-103666666D01*
X180802380Y-103571428D01*
X180754761Y-103476190D01*
X180707142Y-103428571D01*
X180611904Y-103380952D01*
X180421428Y-103333333D01*
X180183333Y-103333333D01*
X179992857Y-103380952D01*
X179897619Y-103428571D01*
X179850000Y-103476190D01*
X179802380Y-103571428D01*
X179802380Y-104523809D02*
X179802380Y-104619047D01*
X179850000Y-104714285D01*
X179897619Y-104761904D01*
X179992857Y-104809523D01*
X180183333Y-104857142D01*
X180421428Y-104857142D01*
X180611904Y-104809523D01*
X180707142Y-104761904D01*
X180754761Y-104714285D01*
X180802380Y-104619047D01*
X180802380Y-104523809D01*
X180754761Y-104428571D01*
X180707142Y-104380952D01*
X180611904Y-104333333D01*
X180421428Y-104285714D01*
X180183333Y-104285714D01*
X179992857Y-104333333D01*
X179897619Y-104380952D01*
X179850000Y-104428571D01*
X179802380Y-104523809D01*
X180135714Y-105285714D02*
X180802380Y-105285714D01*
X180230952Y-105285714D02*
X180183333Y-105333333D01*
X180135714Y-105428571D01*
X180135714Y-105571428D01*
X180183333Y-105666666D01*
X180278571Y-105714285D01*
X180802380Y-105714285D01*
X180278571Y-106523809D02*
X180278571Y-106190476D01*
X180802380Y-106190476D02*
X179802380Y-106190476D01*
X179802380Y-106666666D01*
D12*
X182178571Y-103940476D02*
X182202380Y-103916666D01*
X182226190Y-103845238D01*
X182226190Y-103797619D01*
X182202380Y-103726190D01*
X182154761Y-103678571D01*
X182107142Y-103654761D01*
X182011904Y-103630952D01*
X181940476Y-103630952D01*
X181845238Y-103654761D01*
X181797619Y-103678571D01*
X181750000Y-103726190D01*
X181726190Y-103797619D01*
X181726190Y-103845238D01*
X181750000Y-103916666D01*
X181773809Y-103940476D01*
X181892857Y-104369047D02*
X182226190Y-104369047D01*
X181702380Y-104250000D02*
X182059523Y-104130952D01*
X182059523Y-104440476D01*
X181726190Y-104726190D02*
X181726190Y-104773809D01*
X181750000Y-104821428D01*
X181773809Y-104845238D01*
X181821428Y-104869047D01*
X181916666Y-104892857D01*
X182035714Y-104892857D01*
X182130952Y-104869047D01*
X182178571Y-104845238D01*
X182202380Y-104821428D01*
X182226190Y-104773809D01*
X182226190Y-104726190D01*
X182202380Y-104678571D01*
X182178571Y-104654761D01*
X182130952Y-104630952D01*
X182035714Y-104607142D01*
X181916666Y-104607142D01*
X181821428Y-104630952D01*
X181773809Y-104654761D01*
X181750000Y-104678571D01*
X181726190Y-104726190D01*
X181773809Y-105083333D02*
X181750000Y-105107142D01*
X181726190Y-105154761D01*
X181726190Y-105273809D01*
X181750000Y-105321428D01*
X181773809Y-105345238D01*
X181821428Y-105369047D01*
X181869047Y-105369047D01*
X181940476Y-105345238D01*
X182226190Y-105059523D01*
X182226190Y-105369047D01*
D10*
X194738857Y-96021619D02*
X194691238Y-95974000D01*
X194596000Y-95926380D01*
X194357904Y-95926380D01*
X194262666Y-95974000D01*
X194215047Y-96021619D01*
X194167428Y-96116857D01*
X194167428Y-96212095D01*
X194215047Y-96354952D01*
X194786476Y-96926380D01*
X194167428Y-96926380D01*
X193786476Y-96021619D02*
X193738857Y-95974000D01*
X193643619Y-95926380D01*
X193405523Y-95926380D01*
X193310285Y-95974000D01*
X193262666Y-96021619D01*
X193215047Y-96116857D01*
X193215047Y-96212095D01*
X193262666Y-96354952D01*
X193834095Y-96926380D01*
X193215047Y-96926380D01*
X192786476Y-96259714D02*
X192786476Y-97259714D01*
X192786476Y-96307333D02*
X192691238Y-96259714D01*
X192500761Y-96259714D01*
X192405523Y-96307333D01*
X192357904Y-96354952D01*
X192310285Y-96450190D01*
X192310285Y-96735904D01*
X192357904Y-96831142D01*
X192405523Y-96878761D01*
X192500761Y-96926380D01*
X192691238Y-96926380D01*
X192786476Y-96878761D01*
X191548380Y-96402571D02*
X191881714Y-96402571D01*
X191881714Y-96926380D02*
X191881714Y-95926380D01*
X191405523Y-95926380D01*
D12*
X193655523Y-98302571D02*
X193679333Y-98326380D01*
X193750761Y-98350190D01*
X193798380Y-98350190D01*
X193869809Y-98326380D01*
X193917428Y-98278761D01*
X193941238Y-98231142D01*
X193965047Y-98135904D01*
X193965047Y-98064476D01*
X193941238Y-97969238D01*
X193917428Y-97921619D01*
X193869809Y-97874000D01*
X193798380Y-97850190D01*
X193750761Y-97850190D01*
X193679333Y-97874000D01*
X193655523Y-97897809D01*
X193226952Y-98016857D02*
X193226952Y-98350190D01*
X193346000Y-97826380D02*
X193465047Y-98183523D01*
X193155523Y-98183523D01*
X192869809Y-97850190D02*
X192822190Y-97850190D01*
X192774571Y-97874000D01*
X192750761Y-97897809D01*
X192726952Y-97945428D01*
X192703142Y-98040666D01*
X192703142Y-98159714D01*
X192726952Y-98254952D01*
X192750761Y-98302571D01*
X192774571Y-98326380D01*
X192822190Y-98350190D01*
X192869809Y-98350190D01*
X192917428Y-98326380D01*
X192941238Y-98302571D01*
X192965047Y-98254952D01*
X192988857Y-98159714D01*
X192988857Y-98040666D01*
X192965047Y-97945428D01*
X192941238Y-97897809D01*
X192917428Y-97874000D01*
X192869809Y-97850190D01*
X192536476Y-97850190D02*
X192226952Y-97850190D01*
X192393619Y-98040666D01*
X192322190Y-98040666D01*
X192274571Y-98064476D01*
X192250761Y-98088285D01*
X192226952Y-98135904D01*
X192226952Y-98254952D01*
X192250761Y-98302571D01*
X192274571Y-98326380D01*
X192322190Y-98350190D01*
X192465047Y-98350190D01*
X192512666Y-98326380D01*
X192536476Y-98302571D01*
D10*
X193468857Y-103766619D02*
X193421238Y-103719000D01*
X193326000Y-103671380D01*
X193087904Y-103671380D01*
X192992666Y-103719000D01*
X192945047Y-103766619D01*
X192897428Y-103861857D01*
X192897428Y-103957095D01*
X192945047Y-104099952D01*
X193516476Y-104671380D01*
X192897428Y-104671380D01*
X192516476Y-103766619D02*
X192468857Y-103719000D01*
X192373619Y-103671380D01*
X192135523Y-103671380D01*
X192040285Y-103719000D01*
X191992666Y-103766619D01*
X191945047Y-103861857D01*
X191945047Y-103957095D01*
X191992666Y-104099952D01*
X192564095Y-104671380D01*
X191945047Y-104671380D01*
X191516476Y-104004714D02*
X191516476Y-105004714D01*
X191516476Y-104052333D02*
X191421238Y-104004714D01*
X191230761Y-104004714D01*
X191135523Y-104052333D01*
X191087904Y-104099952D01*
X191040285Y-104195190D01*
X191040285Y-104480904D01*
X191087904Y-104576142D01*
X191135523Y-104623761D01*
X191230761Y-104671380D01*
X191421238Y-104671380D01*
X191516476Y-104623761D01*
X190278380Y-104147571D02*
X190611714Y-104147571D01*
X190611714Y-104671380D02*
X190611714Y-103671380D01*
X190135523Y-103671380D01*
D12*
X192385523Y-102747571D02*
X192409333Y-102771380D01*
X192480761Y-102795190D01*
X192528380Y-102795190D01*
X192599809Y-102771380D01*
X192647428Y-102723761D01*
X192671238Y-102676142D01*
X192695047Y-102580904D01*
X192695047Y-102509476D01*
X192671238Y-102414238D01*
X192647428Y-102366619D01*
X192599809Y-102319000D01*
X192528380Y-102295190D01*
X192480761Y-102295190D01*
X192409333Y-102319000D01*
X192385523Y-102342809D01*
X191956952Y-102461857D02*
X191956952Y-102795190D01*
X192076000Y-102271380D02*
X192195047Y-102628523D01*
X191885523Y-102628523D01*
X191599809Y-102295190D02*
X191552190Y-102295190D01*
X191504571Y-102319000D01*
X191480761Y-102342809D01*
X191456952Y-102390428D01*
X191433142Y-102485666D01*
X191433142Y-102604714D01*
X191456952Y-102699952D01*
X191480761Y-102747571D01*
X191504571Y-102771380D01*
X191552190Y-102795190D01*
X191599809Y-102795190D01*
X191647428Y-102771380D01*
X191671238Y-102747571D01*
X191695047Y-102699952D01*
X191718857Y-102604714D01*
X191718857Y-102485666D01*
X191695047Y-102390428D01*
X191671238Y-102342809D01*
X191647428Y-102319000D01*
X191599809Y-102295190D01*
X191004571Y-102461857D02*
X191004571Y-102795190D01*
X191123619Y-102271380D02*
X191242666Y-102628523D01*
X190933142Y-102628523D01*
D10*
X188797619Y-125652380D02*
X189369047Y-125652380D01*
X189083333Y-125652380D02*
X189083333Y-124652380D01*
X189178571Y-124795238D01*
X189273809Y-124890476D01*
X189369047Y-124938095D01*
X188178571Y-124652380D02*
X188083333Y-124652380D01*
X187988095Y-124700000D01*
X187940476Y-124747619D01*
X187892857Y-124842857D01*
X187845238Y-125033333D01*
X187845238Y-125271428D01*
X187892857Y-125461904D01*
X187940476Y-125557142D01*
X187988095Y-125604761D01*
X188083333Y-125652380D01*
X188178571Y-125652380D01*
X188273809Y-125604761D01*
X188321428Y-125557142D01*
X188369047Y-125461904D01*
X188416666Y-125271428D01*
X188416666Y-125033333D01*
X188369047Y-124842857D01*
X188321428Y-124747619D01*
X188273809Y-124700000D01*
X188178571Y-124652380D01*
X187226190Y-124652380D02*
X187130952Y-124652380D01*
X187035714Y-124700000D01*
X186988095Y-124747619D01*
X186940476Y-124842857D01*
X186892857Y-125033333D01*
X186892857Y-125271428D01*
X186940476Y-125461904D01*
X186988095Y-125557142D01*
X187035714Y-125604761D01*
X187130952Y-125652380D01*
X187226190Y-125652380D01*
X187321428Y-125604761D01*
X187369047Y-125557142D01*
X187416666Y-125461904D01*
X187464285Y-125271428D01*
X187464285Y-125033333D01*
X187416666Y-124842857D01*
X187369047Y-124747619D01*
X187321428Y-124700000D01*
X187226190Y-124652380D01*
X186464285Y-124985714D02*
X186464285Y-125652380D01*
X186464285Y-125080952D02*
X186416666Y-125033333D01*
X186321428Y-124985714D01*
X186178571Y-124985714D01*
X186083333Y-125033333D01*
X186035714Y-125128571D01*
X186035714Y-125652380D01*
X185226190Y-125128571D02*
X185559523Y-125128571D01*
X185559523Y-125652380D02*
X185559523Y-124652380D01*
X185083333Y-124652380D01*
D12*
X187809523Y-123728571D02*
X187833333Y-123752380D01*
X187904761Y-123776190D01*
X187952380Y-123776190D01*
X188023809Y-123752380D01*
X188071428Y-123704761D01*
X188095238Y-123657142D01*
X188119047Y-123561904D01*
X188119047Y-123490476D01*
X188095238Y-123395238D01*
X188071428Y-123347619D01*
X188023809Y-123300000D01*
X187952380Y-123276190D01*
X187904761Y-123276190D01*
X187833333Y-123300000D01*
X187809523Y-123323809D01*
X187380952Y-123442857D02*
X187380952Y-123776190D01*
X187500000Y-123252380D02*
X187619047Y-123609523D01*
X187309523Y-123609523D01*
X187023809Y-123276190D02*
X186976190Y-123276190D01*
X186928571Y-123300000D01*
X186904761Y-123323809D01*
X186880952Y-123371428D01*
X186857142Y-123466666D01*
X186857142Y-123585714D01*
X186880952Y-123680952D01*
X186904761Y-123728571D01*
X186928571Y-123752380D01*
X186976190Y-123776190D01*
X187023809Y-123776190D01*
X187071428Y-123752380D01*
X187095238Y-123728571D01*
X187119047Y-123680952D01*
X187142857Y-123585714D01*
X187142857Y-123466666D01*
X187119047Y-123371428D01*
X187095238Y-123323809D01*
X187071428Y-123300000D01*
X187023809Y-123276190D01*
X186428571Y-123276190D02*
X186523809Y-123276190D01*
X186571428Y-123300000D01*
X186595238Y-123323809D01*
X186642857Y-123395238D01*
X186666666Y-123490476D01*
X186666666Y-123680952D01*
X186642857Y-123728571D01*
X186619047Y-123752380D01*
X186571428Y-123776190D01*
X186476190Y-123776190D01*
X186428571Y-123752380D01*
X186404761Y-123728571D01*
X186380952Y-123680952D01*
X186380952Y-123561904D01*
X186404761Y-123514285D01*
X186428571Y-123490476D01*
X186476190Y-123466666D01*
X186571428Y-123466666D01*
X186619047Y-123490476D01*
X186642857Y-123514285D01*
X186666666Y-123561904D01*
D10*
X176102380Y-57952380D02*
X176102380Y-57380952D01*
X176102380Y-57666666D02*
X175102380Y-57666666D01*
X175245238Y-57571428D01*
X175340476Y-57476190D01*
X175388095Y-57380952D01*
X175102380Y-58571428D02*
X175102380Y-58666666D01*
X175150000Y-58761904D01*
X175197619Y-58809523D01*
X175292857Y-58857142D01*
X175483333Y-58904761D01*
X175721428Y-58904761D01*
X175911904Y-58857142D01*
X176007142Y-58809523D01*
X176054761Y-58761904D01*
X176102380Y-58666666D01*
X176102380Y-58571428D01*
X176054761Y-58476190D01*
X176007142Y-58428571D01*
X175911904Y-58380952D01*
X175721428Y-58333333D01*
X175483333Y-58333333D01*
X175292857Y-58380952D01*
X175197619Y-58428571D01*
X175150000Y-58476190D01*
X175102380Y-58571428D01*
X175102380Y-59523809D02*
X175102380Y-59619047D01*
X175150000Y-59714285D01*
X175197619Y-59761904D01*
X175292857Y-59809523D01*
X175483333Y-59857142D01*
X175721428Y-59857142D01*
X175911904Y-59809523D01*
X176007142Y-59761904D01*
X176054761Y-59714285D01*
X176102380Y-59619047D01*
X176102380Y-59523809D01*
X176054761Y-59428571D01*
X176007142Y-59380952D01*
X175911904Y-59333333D01*
X175721428Y-59285714D01*
X175483333Y-59285714D01*
X175292857Y-59333333D01*
X175197619Y-59380952D01*
X175150000Y-59428571D01*
X175102380Y-59523809D01*
X175435714Y-60285714D02*
X176102380Y-60285714D01*
X175530952Y-60285714D02*
X175483333Y-60333333D01*
X175435714Y-60428571D01*
X175435714Y-60571428D01*
X175483333Y-60666666D01*
X175578571Y-60714285D01*
X176102380Y-60714285D01*
X175578571Y-61523809D02*
X175578571Y-61190476D01*
X176102380Y-61190476D02*
X175102380Y-61190476D01*
X175102380Y-61666666D01*
D12*
X174178571Y-58940476D02*
X174202380Y-58916666D01*
X174226190Y-58845238D01*
X174226190Y-58797619D01*
X174202380Y-58726190D01*
X174154761Y-58678571D01*
X174107142Y-58654761D01*
X174011904Y-58630952D01*
X173940476Y-58630952D01*
X173845238Y-58654761D01*
X173797619Y-58678571D01*
X173750000Y-58726190D01*
X173726190Y-58797619D01*
X173726190Y-58845238D01*
X173750000Y-58916666D01*
X173773809Y-58940476D01*
X173726190Y-59392857D02*
X173726190Y-59154761D01*
X173964285Y-59130952D01*
X173940476Y-59154761D01*
X173916666Y-59202380D01*
X173916666Y-59321428D01*
X173940476Y-59369047D01*
X173964285Y-59392857D01*
X174011904Y-59416666D01*
X174130952Y-59416666D01*
X174178571Y-59392857D01*
X174202380Y-59369047D01*
X174226190Y-59321428D01*
X174226190Y-59202380D01*
X174202380Y-59154761D01*
X174178571Y-59130952D01*
X173726190Y-59726190D02*
X173726190Y-59773809D01*
X173750000Y-59821428D01*
X173773809Y-59845238D01*
X173821428Y-59869047D01*
X173916666Y-59892857D01*
X174035714Y-59892857D01*
X174130952Y-59869047D01*
X174178571Y-59845238D01*
X174202380Y-59821428D01*
X174226190Y-59773809D01*
X174226190Y-59726190D01*
X174202380Y-59678571D01*
X174178571Y-59654761D01*
X174130952Y-59630952D01*
X174035714Y-59607142D01*
X173916666Y-59607142D01*
X173821428Y-59630952D01*
X173773809Y-59654761D01*
X173750000Y-59678571D01*
X173726190Y-59726190D01*
X173773809Y-60083333D02*
X173750000Y-60107142D01*
X173726190Y-60154761D01*
X173726190Y-60273809D01*
X173750000Y-60321428D01*
X173773809Y-60345238D01*
X173821428Y-60369047D01*
X173869047Y-60369047D01*
X173940476Y-60345238D01*
X174226190Y-60059523D01*
X174226190Y-60369047D01*
D10*
X176802380Y-65927380D02*
X176802380Y-65355952D01*
X176802380Y-65641666D02*
X175802380Y-65641666D01*
X175945238Y-65546428D01*
X176040476Y-65451190D01*
X176088095Y-65355952D01*
X175802380Y-66546428D02*
X175802380Y-66641666D01*
X175850000Y-66736904D01*
X175897619Y-66784523D01*
X175992857Y-66832142D01*
X176183333Y-66879761D01*
X176421428Y-66879761D01*
X176611904Y-66832142D01*
X176707142Y-66784523D01*
X176754761Y-66736904D01*
X176802380Y-66641666D01*
X176802380Y-66546428D01*
X176754761Y-66451190D01*
X176707142Y-66403571D01*
X176611904Y-66355952D01*
X176421428Y-66308333D01*
X176183333Y-66308333D01*
X175992857Y-66355952D01*
X175897619Y-66403571D01*
X175850000Y-66451190D01*
X175802380Y-66546428D01*
X175802380Y-67498809D02*
X175802380Y-67594047D01*
X175850000Y-67689285D01*
X175897619Y-67736904D01*
X175992857Y-67784523D01*
X176183333Y-67832142D01*
X176421428Y-67832142D01*
X176611904Y-67784523D01*
X176707142Y-67736904D01*
X176754761Y-67689285D01*
X176802380Y-67594047D01*
X176802380Y-67498809D01*
X176754761Y-67403571D01*
X176707142Y-67355952D01*
X176611904Y-67308333D01*
X176421428Y-67260714D01*
X176183333Y-67260714D01*
X175992857Y-67308333D01*
X175897619Y-67355952D01*
X175850000Y-67403571D01*
X175802380Y-67498809D01*
X176135714Y-68260714D02*
X176802380Y-68260714D01*
X176230952Y-68260714D02*
X176183333Y-68308333D01*
X176135714Y-68403571D01*
X176135714Y-68546428D01*
X176183333Y-68641666D01*
X176278571Y-68689285D01*
X176802380Y-68689285D01*
X176278571Y-69498809D02*
X176278571Y-69165476D01*
X176802380Y-69165476D02*
X175802380Y-69165476D01*
X175802380Y-69641666D01*
D12*
X178178571Y-66915476D02*
X178202380Y-66891666D01*
X178226190Y-66820238D01*
X178226190Y-66772619D01*
X178202380Y-66701190D01*
X178154761Y-66653571D01*
X178107142Y-66629761D01*
X178011904Y-66605952D01*
X177940476Y-66605952D01*
X177845238Y-66629761D01*
X177797619Y-66653571D01*
X177750000Y-66701190D01*
X177726190Y-66772619D01*
X177726190Y-66820238D01*
X177750000Y-66891666D01*
X177773809Y-66915476D01*
X177726190Y-67367857D02*
X177726190Y-67129761D01*
X177964285Y-67105952D01*
X177940476Y-67129761D01*
X177916666Y-67177380D01*
X177916666Y-67296428D01*
X177940476Y-67344047D01*
X177964285Y-67367857D01*
X178011904Y-67391666D01*
X178130952Y-67391666D01*
X178178571Y-67367857D01*
X178202380Y-67344047D01*
X178226190Y-67296428D01*
X178226190Y-67177380D01*
X178202380Y-67129761D01*
X178178571Y-67105952D01*
X177726190Y-67701190D02*
X177726190Y-67748809D01*
X177750000Y-67796428D01*
X177773809Y-67820238D01*
X177821428Y-67844047D01*
X177916666Y-67867857D01*
X178035714Y-67867857D01*
X178130952Y-67844047D01*
X178178571Y-67820238D01*
X178202380Y-67796428D01*
X178226190Y-67748809D01*
X178226190Y-67701190D01*
X178202380Y-67653571D01*
X178178571Y-67629761D01*
X178130952Y-67605952D01*
X178035714Y-67582142D01*
X177916666Y-67582142D01*
X177821428Y-67605952D01*
X177773809Y-67629761D01*
X177750000Y-67653571D01*
X177726190Y-67701190D01*
X177726190Y-68034523D02*
X177726190Y-68344047D01*
X177916666Y-68177380D01*
X177916666Y-68248809D01*
X177940476Y-68296428D01*
X177964285Y-68320238D01*
X178011904Y-68344047D01*
X178130952Y-68344047D01*
X178178571Y-68320238D01*
X178202380Y-68296428D01*
X178226190Y-68248809D01*
X178226190Y-68105952D01*
X178202380Y-68058333D01*
X178178571Y-68034523D01*
D10*
X192050000Y-128352380D02*
X192526190Y-128352380D01*
X192526190Y-127352380D01*
X191240476Y-128352380D02*
X191716666Y-128352380D01*
X191716666Y-127352380D01*
X190478571Y-127685714D02*
X190478571Y-128352380D01*
X190716666Y-127304761D02*
X190954761Y-128019047D01*
X190335714Y-128019047D01*
X189430952Y-128352380D02*
X190002380Y-128352380D01*
X189716666Y-128352380D02*
X189716666Y-127352380D01*
X189811904Y-127495238D01*
X189907142Y-127590476D01*
X190002380Y-127638095D01*
X188573809Y-127685714D02*
X188573809Y-128352380D01*
X188811904Y-127304761D02*
X189050000Y-128019047D01*
X188430952Y-128019047D01*
X187907142Y-127780952D02*
X188002380Y-127733333D01*
X188050000Y-127685714D01*
X188097619Y-127590476D01*
X188097619Y-127542857D01*
X188050000Y-127447619D01*
X188002380Y-127400000D01*
X187907142Y-127352380D01*
X187716666Y-127352380D01*
X187621428Y-127400000D01*
X187573809Y-127447619D01*
X187526190Y-127542857D01*
X187526190Y-127590476D01*
X187573809Y-127685714D01*
X187621428Y-127733333D01*
X187716666Y-127780952D01*
X187907142Y-127780952D01*
X188002380Y-127828571D01*
X188050000Y-127876190D01*
X188097619Y-127971428D01*
X188097619Y-128161904D01*
X188050000Y-128257142D01*
X188002380Y-128304761D01*
X187907142Y-128352380D01*
X187716666Y-128352380D01*
X187621428Y-128304761D01*
X187573809Y-128257142D01*
X187526190Y-128161904D01*
X187526190Y-127971428D01*
X187573809Y-127876190D01*
X187621428Y-127828571D01*
X187716666Y-127780952D01*
X191740476Y-124852380D02*
X191740476Y-123852380D01*
X191502380Y-123852380D01*
X191359523Y-123900000D01*
X191264285Y-123995238D01*
X191216666Y-124090476D01*
X191169047Y-124280952D01*
X191169047Y-124423809D01*
X191216666Y-124614285D01*
X191264285Y-124709523D01*
X191359523Y-124804761D01*
X191502380Y-124852380D01*
X191740476Y-124852380D01*
X190311904Y-124185714D02*
X190311904Y-124852380D01*
X190550000Y-123804761D02*
X190788095Y-124519047D01*
X190169047Y-124519047D01*
X189597619Y-123852380D02*
X189502380Y-123852380D01*
X189407142Y-123900000D01*
X189359523Y-123947619D01*
X189311904Y-124042857D01*
X189264285Y-124233333D01*
X189264285Y-124471428D01*
X189311904Y-124661904D01*
X189359523Y-124757142D01*
X189407142Y-124804761D01*
X189502380Y-124852380D01*
X189597619Y-124852380D01*
X189692857Y-124804761D01*
X189740476Y-124757142D01*
X189788095Y-124661904D01*
X189835714Y-124471428D01*
X189835714Y-124233333D01*
X189788095Y-124042857D01*
X189740476Y-123947619D01*
X189692857Y-123900000D01*
X189597619Y-123852380D01*
X188311904Y-124852380D02*
X188883333Y-124852380D01*
X188597619Y-124852380D02*
X188597619Y-123852380D01*
X188692857Y-123995238D01*
X188788095Y-124090476D01*
X188883333Y-124138095D01*
X221000000Y-54702380D02*
X221476190Y-54702380D01*
X221476190Y-53702380D01*
X220190476Y-54702380D02*
X220666666Y-54702380D01*
X220666666Y-53702380D01*
X219428571Y-54035714D02*
X219428571Y-54702380D01*
X219666666Y-53654761D02*
X219904761Y-54369047D01*
X219285714Y-54369047D01*
X218380952Y-54702380D02*
X218952380Y-54702380D01*
X218666666Y-54702380D02*
X218666666Y-53702380D01*
X218761904Y-53845238D01*
X218857142Y-53940476D01*
X218952380Y-53988095D01*
X217523809Y-54035714D02*
X217523809Y-54702380D01*
X217761904Y-53654761D02*
X218000000Y-54369047D01*
X217380952Y-54369047D01*
X216857142Y-54130952D02*
X216952380Y-54083333D01*
X217000000Y-54035714D01*
X217047619Y-53940476D01*
X217047619Y-53892857D01*
X217000000Y-53797619D01*
X216952380Y-53750000D01*
X216857142Y-53702380D01*
X216666666Y-53702380D01*
X216571428Y-53750000D01*
X216523809Y-53797619D01*
X216476190Y-53892857D01*
X216476190Y-53940476D01*
X216523809Y-54035714D01*
X216571428Y-54083333D01*
X216666666Y-54130952D01*
X216857142Y-54130952D01*
X216952380Y-54178571D01*
X217000000Y-54226190D01*
X217047619Y-54321428D01*
X217047619Y-54511904D01*
X217000000Y-54607142D01*
X216952380Y-54654761D01*
X216857142Y-54702380D01*
X216666666Y-54702380D01*
X216571428Y-54654761D01*
X216523809Y-54607142D01*
X216476190Y-54511904D01*
X216476190Y-54321428D01*
X216523809Y-54226190D01*
X216571428Y-54178571D01*
X216666666Y-54130952D01*
X220690476Y-58202380D02*
X220690476Y-57202380D01*
X220452380Y-57202380D01*
X220309523Y-57250000D01*
X220214285Y-57345238D01*
X220166666Y-57440476D01*
X220119047Y-57630952D01*
X220119047Y-57773809D01*
X220166666Y-57964285D01*
X220214285Y-58059523D01*
X220309523Y-58154761D01*
X220452380Y-58202380D01*
X220690476Y-58202380D01*
X219214285Y-57202380D02*
X219690476Y-57202380D01*
X219738095Y-57678571D01*
X219690476Y-57630952D01*
X219595238Y-57583333D01*
X219357142Y-57583333D01*
X219261904Y-57630952D01*
X219214285Y-57678571D01*
X219166666Y-57773809D01*
X219166666Y-58011904D01*
X219214285Y-58107142D01*
X219261904Y-58154761D01*
X219357142Y-58202380D01*
X219595238Y-58202380D01*
X219690476Y-58154761D01*
X219738095Y-58107142D01*
X218547619Y-57202380D02*
X218452380Y-57202380D01*
X218357142Y-57250000D01*
X218309523Y-57297619D01*
X218261904Y-57392857D01*
X218214285Y-57583333D01*
X218214285Y-57821428D01*
X218261904Y-58011904D01*
X218309523Y-58107142D01*
X218357142Y-58154761D01*
X218452380Y-58202380D01*
X218547619Y-58202380D01*
X218642857Y-58154761D01*
X218690476Y-58107142D01*
X218738095Y-58011904D01*
X218785714Y-57821428D01*
X218785714Y-57583333D01*
X218738095Y-57392857D01*
X218690476Y-57297619D01*
X218642857Y-57250000D01*
X218547619Y-57202380D01*
X217261904Y-58202380D02*
X217833333Y-58202380D01*
X217547619Y-58202380D02*
X217547619Y-57202380D01*
X217642857Y-57345238D01*
X217738095Y-57440476D01*
X217833333Y-57488095D01*
X214619047Y-115452380D02*
X214619047Y-114452380D01*
X214285714Y-115166666D01*
X213952380Y-114452380D01*
X213952380Y-115452380D01*
X212904761Y-115357142D02*
X212952380Y-115404761D01*
X213095238Y-115452380D01*
X213190476Y-115452380D01*
X213333333Y-115404761D01*
X213428571Y-115309523D01*
X213476190Y-115214285D01*
X213523809Y-115023809D01*
X213523809Y-114880952D01*
X213476190Y-114690476D01*
X213428571Y-114595238D01*
X213333333Y-114500000D01*
X213190476Y-114452380D01*
X213095238Y-114452380D01*
X212952380Y-114500000D01*
X212904761Y-114547619D01*
X212476190Y-115452380D02*
X212476190Y-114452380D01*
X212095238Y-114452380D01*
X212000000Y-114500000D01*
X211952380Y-114547619D01*
X211904761Y-114642857D01*
X211904761Y-114785714D01*
X211952380Y-114880952D01*
X212000000Y-114928571D01*
X212095238Y-114976190D01*
X212476190Y-114976190D01*
X211523809Y-114547619D02*
X211476190Y-114500000D01*
X211380952Y-114452380D01*
X211142857Y-114452380D01*
X211047619Y-114500000D01*
X211000000Y-114547619D01*
X210952380Y-114642857D01*
X210952380Y-114738095D01*
X211000000Y-114880952D01*
X211571428Y-115452380D01*
X210952380Y-115452380D01*
X210047619Y-114452380D02*
X210523809Y-114452380D01*
X210571428Y-114928571D01*
X210523809Y-114880952D01*
X210428571Y-114833333D01*
X210190476Y-114833333D01*
X210095238Y-114880952D01*
X210047619Y-114928571D01*
X210000000Y-115023809D01*
X210000000Y-115261904D01*
X210047619Y-115357142D01*
X210095238Y-115404761D01*
X210190476Y-115452380D01*
X210428571Y-115452380D01*
X210523809Y-115404761D01*
X210571428Y-115357142D01*
X209095238Y-114452380D02*
X209571428Y-114452380D01*
X209619047Y-114928571D01*
X209571428Y-114880952D01*
X209476190Y-114833333D01*
X209238095Y-114833333D01*
X209142857Y-114880952D01*
X209095238Y-114928571D01*
X209047619Y-115023809D01*
X209047619Y-115261904D01*
X209095238Y-115357142D01*
X209142857Y-115404761D01*
X209238095Y-115452380D01*
X209476190Y-115452380D01*
X209571428Y-115404761D01*
X209619047Y-115357142D01*
X208095238Y-115452380D02*
X208666666Y-115452380D01*
X208380952Y-115452380D02*
X208380952Y-114452380D01*
X208476190Y-114595238D01*
X208571428Y-114690476D01*
X208666666Y-114738095D01*
X207666666Y-115071428D02*
X206904761Y-115071428D01*
X206428571Y-115452380D02*
X206428571Y-114452380D01*
X205238095Y-114404761D02*
X206095238Y-115690476D01*
X204952380Y-115404761D02*
X204809523Y-115452380D01*
X204571428Y-115452380D01*
X204476190Y-115404761D01*
X204428571Y-115357142D01*
X204380952Y-115261904D01*
X204380952Y-115166666D01*
X204428571Y-115071428D01*
X204476190Y-115023809D01*
X204571428Y-114976190D01*
X204761904Y-114928571D01*
X204857142Y-114880952D01*
X204904761Y-114833333D01*
X204952380Y-114738095D01*
X204952380Y-114642857D01*
X204904761Y-114547619D01*
X204857142Y-114500000D01*
X204761904Y-114452380D01*
X204523809Y-114452380D01*
X204380952Y-114500000D01*
X203952380Y-115452380D02*
X203952380Y-114452380D01*
X203380952Y-115452380D01*
X203380952Y-114452380D01*
X210714285Y-117952380D02*
X210714285Y-118761904D01*
X210666666Y-118857142D01*
X210619047Y-118904761D01*
X210523809Y-118952380D01*
X210333333Y-118952380D01*
X210238095Y-118904761D01*
X210190476Y-118857142D01*
X210142857Y-118761904D01*
X210142857Y-117952380D01*
X209714285Y-118047619D02*
X209666666Y-118000000D01*
X209571428Y-117952380D01*
X209333333Y-117952380D01*
X209238095Y-118000000D01*
X209190476Y-118047619D01*
X209142857Y-118142857D01*
X209142857Y-118238095D01*
X209190476Y-118380952D01*
X209761904Y-118952380D01*
X209142857Y-118952380D01*
X208523809Y-117952380D02*
X208428571Y-117952380D01*
X208333333Y-118000000D01*
X208285714Y-118047619D01*
X208238095Y-118142857D01*
X208190476Y-118333333D01*
X208190476Y-118571428D01*
X208238095Y-118761904D01*
X208285714Y-118857142D01*
X208333333Y-118904761D01*
X208428571Y-118952380D01*
X208523809Y-118952380D01*
X208619047Y-118904761D01*
X208666666Y-118857142D01*
X208714285Y-118761904D01*
X208761904Y-118571428D01*
X208761904Y-118333333D01*
X208714285Y-118142857D01*
X208666666Y-118047619D01*
X208619047Y-118000000D01*
X208523809Y-117952380D01*
X207238095Y-118952380D02*
X207809523Y-118952380D01*
X207523809Y-118952380D02*
X207523809Y-117952380D01*
X207619047Y-118095238D01*
X207714285Y-118190476D01*
X207809523Y-118238095D01*
X221595238Y-112802380D02*
X222166666Y-112802380D01*
X221880952Y-112802380D02*
X221880952Y-111802380D01*
X221976190Y-111945238D01*
X222071428Y-112040476D01*
X222166666Y-112088095D01*
X220976190Y-111802380D02*
X220880952Y-111802380D01*
X220785714Y-111850000D01*
X220738095Y-111897619D01*
X220690476Y-111992857D01*
X220642857Y-112183333D01*
X220642857Y-112421428D01*
X220690476Y-112611904D01*
X220738095Y-112707142D01*
X220785714Y-112754761D01*
X220880952Y-112802380D01*
X220976190Y-112802380D01*
X221071428Y-112754761D01*
X221119047Y-112707142D01*
X221166666Y-112611904D01*
X221214285Y-112421428D01*
X221214285Y-112183333D01*
X221166666Y-111992857D01*
X221119047Y-111897619D01*
X221071428Y-111850000D01*
X220976190Y-111802380D01*
X220214285Y-112802380D02*
X220214285Y-111802380D01*
X220119047Y-112421428D02*
X219833333Y-112802380D01*
X219833333Y-112135714D02*
X220214285Y-112516666D01*
D12*
X221559523Y-114226190D02*
X221726190Y-113988095D01*
X221845238Y-114226190D02*
X221845238Y-113726190D01*
X221654761Y-113726190D01*
X221607142Y-113750000D01*
X221583333Y-113773809D01*
X221559523Y-113821428D01*
X221559523Y-113892857D01*
X221583333Y-113940476D01*
X221607142Y-113964285D01*
X221654761Y-113988095D01*
X221845238Y-113988095D01*
X221369047Y-113773809D02*
X221345238Y-113750000D01*
X221297619Y-113726190D01*
X221178571Y-113726190D01*
X221130952Y-113750000D01*
X221107142Y-113773809D01*
X221083333Y-113821428D01*
X221083333Y-113869047D01*
X221107142Y-113940476D01*
X221392857Y-114226190D01*
X221083333Y-114226190D01*
X220773809Y-113726190D02*
X220726190Y-113726190D01*
X220678571Y-113750000D01*
X220654761Y-113773809D01*
X220630952Y-113821428D01*
X220607142Y-113916666D01*
X220607142Y-114035714D01*
X220630952Y-114130952D01*
X220654761Y-114178571D01*
X220678571Y-114202380D01*
X220726190Y-114226190D01*
X220773809Y-114226190D01*
X220821428Y-114202380D01*
X220845238Y-114178571D01*
X220869047Y-114130952D01*
X220892857Y-114035714D01*
X220892857Y-113916666D01*
X220869047Y-113821428D01*
X220845238Y-113773809D01*
X220821428Y-113750000D01*
X220773809Y-113726190D01*
X220440476Y-113726190D02*
X220130952Y-113726190D01*
X220297619Y-113916666D01*
X220226190Y-113916666D01*
X220178571Y-113940476D01*
X220154761Y-113964285D01*
X220130952Y-114011904D01*
X220130952Y-114130952D01*
X220154761Y-114178571D01*
X220178571Y-114202380D01*
X220226190Y-114226190D01*
X220369047Y-114226190D01*
X220416666Y-114202380D01*
X220440476Y-114178571D01*
D10*
X211190476Y-123935714D02*
X211190476Y-124602380D01*
X211428571Y-123554761D02*
X211666666Y-124269047D01*
X211047619Y-124269047D01*
X210666666Y-124602380D02*
X210666666Y-123602380D01*
X210571428Y-124221428D02*
X210285714Y-124602380D01*
X210285714Y-123935714D02*
X210666666Y-124316666D01*
X209952380Y-123602380D02*
X209285714Y-123602380D01*
X209714285Y-124602380D01*
D12*
X211059523Y-122726190D02*
X211226190Y-122488095D01*
X211345238Y-122726190D02*
X211345238Y-122226190D01*
X211154761Y-122226190D01*
X211107142Y-122250000D01*
X211083333Y-122273809D01*
X211059523Y-122321428D01*
X211059523Y-122392857D01*
X211083333Y-122440476D01*
X211107142Y-122464285D01*
X211154761Y-122488095D01*
X211345238Y-122488095D01*
X210869047Y-122273809D02*
X210845238Y-122250000D01*
X210797619Y-122226190D01*
X210678571Y-122226190D01*
X210630952Y-122250000D01*
X210607142Y-122273809D01*
X210583333Y-122321428D01*
X210583333Y-122369047D01*
X210607142Y-122440476D01*
X210892857Y-122726190D01*
X210583333Y-122726190D01*
X210273809Y-122226190D02*
X210226190Y-122226190D01*
X210178571Y-122250000D01*
X210154761Y-122273809D01*
X210130952Y-122321428D01*
X210107142Y-122416666D01*
X210107142Y-122535714D01*
X210130952Y-122630952D01*
X210154761Y-122678571D01*
X210178571Y-122702380D01*
X210226190Y-122726190D01*
X210273809Y-122726190D01*
X210321428Y-122702380D01*
X210345238Y-122678571D01*
X210369047Y-122630952D01*
X210392857Y-122535714D01*
X210392857Y-122416666D01*
X210369047Y-122321428D01*
X210345238Y-122273809D01*
X210321428Y-122250000D01*
X210273809Y-122226190D01*
X209916666Y-122273809D02*
X209892857Y-122250000D01*
X209845238Y-122226190D01*
X209726190Y-122226190D01*
X209678571Y-122250000D01*
X209654761Y-122273809D01*
X209630952Y-122321428D01*
X209630952Y-122369047D01*
X209654761Y-122440476D01*
X209940476Y-122726190D01*
X209630952Y-122726190D01*
D10*
X229602380Y-117833333D02*
X229602380Y-117261904D01*
X229602380Y-117547619D02*
X228602380Y-117547619D01*
X228745238Y-117452380D01*
X228840476Y-117357142D01*
X228888095Y-117261904D01*
X228697619Y-118214285D02*
X228650000Y-118261904D01*
X228602380Y-118357142D01*
X228602380Y-118595238D01*
X228650000Y-118690476D01*
X228697619Y-118738095D01*
X228792857Y-118785714D01*
X228888095Y-118785714D01*
X229030952Y-118738095D01*
X229602380Y-118166666D01*
X229602380Y-118785714D01*
X228602380Y-119404761D02*
X228602380Y-119500000D01*
X228650000Y-119595238D01*
X228697619Y-119642857D01*
X228792857Y-119690476D01*
X228983333Y-119738095D01*
X229221428Y-119738095D01*
X229411904Y-119690476D01*
X229507142Y-119642857D01*
X229554761Y-119595238D01*
X229602380Y-119500000D01*
X229602380Y-119404761D01*
X229554761Y-119309523D01*
X229507142Y-119261904D01*
X229411904Y-119214285D01*
X229221428Y-119166666D01*
X228983333Y-119166666D01*
X228792857Y-119214285D01*
X228697619Y-119261904D01*
X228650000Y-119309523D01*
X228602380Y-119404761D01*
D12*
X227726190Y-117940476D02*
X227488095Y-117773809D01*
X227726190Y-117654761D02*
X227226190Y-117654761D01*
X227226190Y-117845238D01*
X227250000Y-117892857D01*
X227273809Y-117916666D01*
X227321428Y-117940476D01*
X227392857Y-117940476D01*
X227440476Y-117916666D01*
X227464285Y-117892857D01*
X227488095Y-117845238D01*
X227488095Y-117654761D01*
X227273809Y-118130952D02*
X227250000Y-118154761D01*
X227226190Y-118202380D01*
X227226190Y-118321428D01*
X227250000Y-118369047D01*
X227273809Y-118392857D01*
X227321428Y-118416666D01*
X227369047Y-118416666D01*
X227440476Y-118392857D01*
X227726190Y-118107142D01*
X227726190Y-118416666D01*
X227226190Y-118726190D02*
X227226190Y-118773809D01*
X227250000Y-118821428D01*
X227273809Y-118845238D01*
X227321428Y-118869047D01*
X227416666Y-118892857D01*
X227535714Y-118892857D01*
X227630952Y-118869047D01*
X227678571Y-118845238D01*
X227702380Y-118821428D01*
X227726190Y-118773809D01*
X227726190Y-118726190D01*
X227702380Y-118678571D01*
X227678571Y-118654761D01*
X227630952Y-118630952D01*
X227535714Y-118607142D01*
X227416666Y-118607142D01*
X227321428Y-118630952D01*
X227273809Y-118654761D01*
X227250000Y-118678571D01*
X227226190Y-118726190D01*
X227726190Y-119369047D02*
X227726190Y-119083333D01*
X227726190Y-119226190D02*
X227226190Y-119226190D01*
X227297619Y-119178571D01*
X227345238Y-119130952D01*
X227369047Y-119083333D01*
D10*
X194515238Y-122302380D02*
X195086666Y-122302380D01*
X194800952Y-122302380D02*
X194800952Y-121302380D01*
X194896190Y-121445238D01*
X194991428Y-121540476D01*
X195086666Y-121588095D01*
X193896190Y-121302380D02*
X193800952Y-121302380D01*
X193705714Y-121350000D01*
X193658095Y-121397619D01*
X193610476Y-121492857D01*
X193562857Y-121683333D01*
X193562857Y-121921428D01*
X193610476Y-122111904D01*
X193658095Y-122207142D01*
X193705714Y-122254761D01*
X193800952Y-122302380D01*
X193896190Y-122302380D01*
X193991428Y-122254761D01*
X194039047Y-122207142D01*
X194086666Y-122111904D01*
X194134285Y-121921428D01*
X194134285Y-121683333D01*
X194086666Y-121492857D01*
X194039047Y-121397619D01*
X193991428Y-121350000D01*
X193896190Y-121302380D01*
X193134285Y-122302380D02*
X193134285Y-121302380D01*
X193039047Y-121921428D02*
X192753333Y-122302380D01*
X192753333Y-121635714D02*
X193134285Y-122016666D01*
D12*
X194479523Y-123726190D02*
X194646190Y-123488095D01*
X194765238Y-123726190D02*
X194765238Y-123226190D01*
X194574761Y-123226190D01*
X194527142Y-123250000D01*
X194503333Y-123273809D01*
X194479523Y-123321428D01*
X194479523Y-123392857D01*
X194503333Y-123440476D01*
X194527142Y-123464285D01*
X194574761Y-123488095D01*
X194765238Y-123488095D01*
X194050952Y-123392857D02*
X194050952Y-123726190D01*
X194170000Y-123202380D02*
X194289047Y-123559523D01*
X193979523Y-123559523D01*
X193693809Y-123226190D02*
X193646190Y-123226190D01*
X193598571Y-123250000D01*
X193574761Y-123273809D01*
X193550952Y-123321428D01*
X193527142Y-123416666D01*
X193527142Y-123535714D01*
X193550952Y-123630952D01*
X193574761Y-123678571D01*
X193598571Y-123702380D01*
X193646190Y-123726190D01*
X193693809Y-123726190D01*
X193741428Y-123702380D01*
X193765238Y-123678571D01*
X193789047Y-123630952D01*
X193812857Y-123535714D01*
X193812857Y-123416666D01*
X193789047Y-123321428D01*
X193765238Y-123273809D01*
X193741428Y-123250000D01*
X193693809Y-123226190D01*
X193050952Y-123726190D02*
X193336666Y-123726190D01*
X193193809Y-123726190D02*
X193193809Y-123226190D01*
X193241428Y-123297619D01*
X193289047Y-123345238D01*
X193336666Y-123369047D01*
D10*
X191945047Y-117246380D02*
X192516476Y-117246380D01*
X192230761Y-117246380D02*
X192230761Y-116246380D01*
X192326000Y-116389238D01*
X192421238Y-116484476D01*
X192516476Y-116532095D01*
X191516476Y-117246380D02*
X191516476Y-116246380D01*
X191421238Y-116865428D02*
X191135523Y-117246380D01*
X191135523Y-116579714D02*
X191516476Y-116960666D01*
D12*
X192385523Y-118670190D02*
X192552190Y-118432095D01*
X192671238Y-118670190D02*
X192671238Y-118170190D01*
X192480761Y-118170190D01*
X192433142Y-118194000D01*
X192409333Y-118217809D01*
X192385523Y-118265428D01*
X192385523Y-118336857D01*
X192409333Y-118384476D01*
X192433142Y-118408285D01*
X192480761Y-118432095D01*
X192671238Y-118432095D01*
X191956952Y-118336857D02*
X191956952Y-118670190D01*
X192076000Y-118146380D02*
X192195047Y-118503523D01*
X191885523Y-118503523D01*
X191599809Y-118170190D02*
X191552190Y-118170190D01*
X191504571Y-118194000D01*
X191480761Y-118217809D01*
X191456952Y-118265428D01*
X191433142Y-118360666D01*
X191433142Y-118479714D01*
X191456952Y-118574952D01*
X191480761Y-118622571D01*
X191504571Y-118646380D01*
X191552190Y-118670190D01*
X191599809Y-118670190D01*
X191647428Y-118646380D01*
X191671238Y-118622571D01*
X191695047Y-118574952D01*
X191718857Y-118479714D01*
X191718857Y-118360666D01*
X191695047Y-118265428D01*
X191671238Y-118217809D01*
X191647428Y-118194000D01*
X191599809Y-118170190D01*
X191242666Y-118217809D02*
X191218857Y-118194000D01*
X191171238Y-118170190D01*
X191052190Y-118170190D01*
X191004571Y-118194000D01*
X190980761Y-118217809D01*
X190956952Y-118265428D01*
X190956952Y-118313047D01*
X190980761Y-118384476D01*
X191266476Y-118670190D01*
X190956952Y-118670190D01*
D10*
X191945047Y-114706380D02*
X192516476Y-114706380D01*
X192230761Y-114706380D02*
X192230761Y-113706380D01*
X192326000Y-113849238D01*
X192421238Y-113944476D01*
X192516476Y-113992095D01*
X191516476Y-114706380D02*
X191516476Y-113706380D01*
X191421238Y-114325428D02*
X191135523Y-114706380D01*
X191135523Y-114039714D02*
X191516476Y-114420666D01*
D12*
X192385523Y-116130190D02*
X192552190Y-115892095D01*
X192671238Y-116130190D02*
X192671238Y-115630190D01*
X192480761Y-115630190D01*
X192433142Y-115654000D01*
X192409333Y-115677809D01*
X192385523Y-115725428D01*
X192385523Y-115796857D01*
X192409333Y-115844476D01*
X192433142Y-115868285D01*
X192480761Y-115892095D01*
X192671238Y-115892095D01*
X191956952Y-115796857D02*
X191956952Y-116130190D01*
X192076000Y-115606380D02*
X192195047Y-115963523D01*
X191885523Y-115963523D01*
X191599809Y-115630190D02*
X191552190Y-115630190D01*
X191504571Y-115654000D01*
X191480761Y-115677809D01*
X191456952Y-115725428D01*
X191433142Y-115820666D01*
X191433142Y-115939714D01*
X191456952Y-116034952D01*
X191480761Y-116082571D01*
X191504571Y-116106380D01*
X191552190Y-116130190D01*
X191599809Y-116130190D01*
X191647428Y-116106380D01*
X191671238Y-116082571D01*
X191695047Y-116034952D01*
X191718857Y-115939714D01*
X191718857Y-115820666D01*
X191695047Y-115725428D01*
X191671238Y-115677809D01*
X191647428Y-115654000D01*
X191599809Y-115630190D01*
X191266476Y-115630190D02*
X190956952Y-115630190D01*
X191123619Y-115820666D01*
X191052190Y-115820666D01*
X191004571Y-115844476D01*
X190980761Y-115868285D01*
X190956952Y-115915904D01*
X190956952Y-116034952D01*
X190980761Y-116082571D01*
X191004571Y-116106380D01*
X191052190Y-116130190D01*
X191195047Y-116130190D01*
X191242666Y-116106380D01*
X191266476Y-116082571D01*
D10*
X227454761Y-111214285D02*
X227502380Y-111357142D01*
X227502380Y-111595238D01*
X227454761Y-111690476D01*
X227407142Y-111738095D01*
X227311904Y-111785714D01*
X227216666Y-111785714D01*
X227121428Y-111738095D01*
X227073809Y-111690476D01*
X227026190Y-111595238D01*
X226978571Y-111404761D01*
X226930952Y-111309523D01*
X226883333Y-111261904D01*
X226788095Y-111214285D01*
X226692857Y-111214285D01*
X226597619Y-111261904D01*
X226550000Y-111309523D01*
X226502380Y-111404761D01*
X226502380Y-111642857D01*
X226550000Y-111785714D01*
X227407142Y-112785714D02*
X227454761Y-112738095D01*
X227502380Y-112595238D01*
X227502380Y-112500000D01*
X227454761Y-112357142D01*
X227359523Y-112261904D01*
X227264285Y-112214285D01*
X227073809Y-112166666D01*
X226930952Y-112166666D01*
X226740476Y-112214285D01*
X226645238Y-112261904D01*
X226550000Y-112357142D01*
X226502380Y-112500000D01*
X226502380Y-112595238D01*
X226550000Y-112738095D01*
X226597619Y-112785714D01*
X222452380Y-109785714D02*
X222452380Y-110357142D01*
X223452380Y-110071428D02*
X222452380Y-110071428D01*
X223452380Y-110690476D02*
X222452380Y-110690476D01*
X222452380Y-111071428D01*
X222500000Y-111166666D01*
X222547619Y-111214285D01*
X222642857Y-111261904D01*
X222785714Y-111261904D01*
X222880952Y-111214285D01*
X222928571Y-111166666D01*
X222976190Y-111071428D01*
X222976190Y-110690476D01*
X222547619Y-111642857D02*
X222500000Y-111690476D01*
X222452380Y-111785714D01*
X222452380Y-112023809D01*
X222500000Y-112119047D01*
X222547619Y-112166666D01*
X222642857Y-112214285D01*
X222738095Y-112214285D01*
X222880952Y-112166666D01*
X223452380Y-111595238D01*
X223452380Y-112214285D01*
X222452380Y-112833333D02*
X222452380Y-112928571D01*
X222500000Y-113023809D01*
X222547619Y-113071428D01*
X222642857Y-113119047D01*
X222833333Y-113166666D01*
X223071428Y-113166666D01*
X223261904Y-113119047D01*
X223357142Y-113071428D01*
X223404761Y-113023809D01*
X223452380Y-112928571D01*
X223452380Y-112833333D01*
X223404761Y-112738095D01*
X223357142Y-112690476D01*
X223261904Y-112642857D01*
X223071428Y-112595238D01*
X222833333Y-112595238D01*
X222642857Y-112642857D01*
X222547619Y-112690476D01*
X222500000Y-112738095D01*
X222452380Y-112833333D01*
X222452380Y-114071428D02*
X222452380Y-113595238D01*
X222928571Y-113547619D01*
X222880952Y-113595238D01*
X222833333Y-113690476D01*
X222833333Y-113928571D01*
X222880952Y-114023809D01*
X222928571Y-114071428D01*
X223023809Y-114119047D01*
X223261904Y-114119047D01*
X223357142Y-114071428D01*
X223404761Y-114023809D01*
X223452380Y-113928571D01*
X223452380Y-113690476D01*
X223404761Y-113595238D01*
X223357142Y-113547619D01*
X227454761Y-101714285D02*
X227502380Y-101857142D01*
X227502380Y-102095238D01*
X227454761Y-102190476D01*
X227407142Y-102238095D01*
X227311904Y-102285714D01*
X227216666Y-102285714D01*
X227121428Y-102238095D01*
X227073809Y-102190476D01*
X227026190Y-102095238D01*
X226978571Y-101904761D01*
X226930952Y-101809523D01*
X226883333Y-101761904D01*
X226788095Y-101714285D01*
X226692857Y-101714285D01*
X226597619Y-101761904D01*
X226550000Y-101809523D01*
X226502380Y-101904761D01*
X226502380Y-102142857D01*
X226550000Y-102285714D01*
X227407142Y-103285714D02*
X227454761Y-103238095D01*
X227502380Y-103095238D01*
X227502380Y-103000000D01*
X227454761Y-102857142D01*
X227359523Y-102761904D01*
X227264285Y-102714285D01*
X227073809Y-102666666D01*
X226930952Y-102666666D01*
X226740476Y-102714285D01*
X226645238Y-102761904D01*
X226550000Y-102857142D01*
X226502380Y-103000000D01*
X226502380Y-103095238D01*
X226550000Y-103238095D01*
X226597619Y-103285714D01*
X227502380Y-103714285D02*
X226502380Y-103714285D01*
X227502380Y-104285714D02*
X226930952Y-103857142D01*
X226502380Y-104285714D02*
X227073809Y-103714285D01*
X222452380Y-100785714D02*
X222452380Y-101357142D01*
X223452380Y-101071428D02*
X222452380Y-101071428D01*
X223452380Y-101690476D02*
X222452380Y-101690476D01*
X222452380Y-102071428D01*
X222500000Y-102166666D01*
X222547619Y-102214285D01*
X222642857Y-102261904D01*
X222785714Y-102261904D01*
X222880952Y-102214285D01*
X222928571Y-102166666D01*
X222976190Y-102071428D01*
X222976190Y-101690476D01*
X222547619Y-102642857D02*
X222500000Y-102690476D01*
X222452380Y-102785714D01*
X222452380Y-103023809D01*
X222500000Y-103119047D01*
X222547619Y-103166666D01*
X222642857Y-103214285D01*
X222738095Y-103214285D01*
X222880952Y-103166666D01*
X223452380Y-102595238D01*
X223452380Y-103214285D01*
X222452380Y-103833333D02*
X222452380Y-103928571D01*
X222500000Y-104023809D01*
X222547619Y-104071428D01*
X222642857Y-104119047D01*
X222833333Y-104166666D01*
X223071428Y-104166666D01*
X223261904Y-104119047D01*
X223357142Y-104071428D01*
X223404761Y-104023809D01*
X223452380Y-103928571D01*
X223452380Y-103833333D01*
X223404761Y-103738095D01*
X223357142Y-103690476D01*
X223261904Y-103642857D01*
X223071428Y-103595238D01*
X222833333Y-103595238D01*
X222642857Y-103642857D01*
X222547619Y-103690476D01*
X222500000Y-103738095D01*
X222452380Y-103833333D01*
X222452380Y-105023809D02*
X222452380Y-104833333D01*
X222500000Y-104738095D01*
X222547619Y-104690476D01*
X222690476Y-104595238D01*
X222880952Y-104547619D01*
X223261904Y-104547619D01*
X223357142Y-104595238D01*
X223404761Y-104642857D01*
X223452380Y-104738095D01*
X223452380Y-104928571D01*
X223404761Y-105023809D01*
X223357142Y-105071428D01*
X223261904Y-105119047D01*
X223023809Y-105119047D01*
X222928571Y-105071428D01*
X222880952Y-105023809D01*
X222833333Y-104928571D01*
X222833333Y-104738095D01*
X222880952Y-104642857D01*
X222928571Y-104595238D01*
X223023809Y-104547619D01*
X226047619Y-118307142D02*
X226095238Y-118354761D01*
X226238095Y-118402380D01*
X226333333Y-118402380D01*
X226476190Y-118354761D01*
X226571428Y-118259523D01*
X226619047Y-118164285D01*
X226666666Y-117973809D01*
X226666666Y-117830952D01*
X226619047Y-117640476D01*
X226571428Y-117545238D01*
X226476190Y-117450000D01*
X226333333Y-117402380D01*
X226238095Y-117402380D01*
X226095238Y-117450000D01*
X226047619Y-117497619D01*
X225666666Y-118116666D02*
X225190476Y-118116666D01*
X225761904Y-118402380D02*
X225428571Y-117402380D01*
X225095238Y-118402380D01*
X224761904Y-118402380D02*
X224761904Y-117402380D01*
X224190476Y-118402380D01*
X224190476Y-117402380D01*
X223952380Y-118497619D02*
X223190476Y-118497619D01*
X222952380Y-118402380D02*
X222952380Y-117402380D01*
X222952380Y-117878571D02*
X222380952Y-117878571D01*
X222380952Y-118402380D02*
X222380952Y-117402380D01*
X226714285Y-121452380D02*
X226142857Y-121452380D01*
X226428571Y-122452380D02*
X226428571Y-121452380D01*
X225809523Y-122452380D02*
X225809523Y-121452380D01*
X225428571Y-121452380D01*
X225333333Y-121500000D01*
X225285714Y-121547619D01*
X225238095Y-121642857D01*
X225238095Y-121785714D01*
X225285714Y-121880952D01*
X225333333Y-121928571D01*
X225428571Y-121976190D01*
X225809523Y-121976190D01*
X224857142Y-121547619D02*
X224809523Y-121500000D01*
X224714285Y-121452380D01*
X224476190Y-121452380D01*
X224380952Y-121500000D01*
X224333333Y-121547619D01*
X224285714Y-121642857D01*
X224285714Y-121738095D01*
X224333333Y-121880952D01*
X224904761Y-122452380D01*
X224285714Y-122452380D01*
X223666666Y-121452380D02*
X223571428Y-121452380D01*
X223476190Y-121500000D01*
X223428571Y-121547619D01*
X223380952Y-121642857D01*
X223333333Y-121833333D01*
X223333333Y-122071428D01*
X223380952Y-122261904D01*
X223428571Y-122357142D01*
X223476190Y-122404761D01*
X223571428Y-122452380D01*
X223666666Y-122452380D01*
X223761904Y-122404761D01*
X223809523Y-122357142D01*
X223857142Y-122261904D01*
X223904761Y-122071428D01*
X223904761Y-121833333D01*
X223857142Y-121642857D01*
X223809523Y-121547619D01*
X223761904Y-121500000D01*
X223666666Y-121452380D01*
X223000000Y-121452380D02*
X222333333Y-121452380D01*
X222761904Y-122452380D01*
X225928571Y-115307142D02*
X225976190Y-115354761D01*
X226119047Y-115402380D01*
X226214285Y-115402380D01*
X226357142Y-115354761D01*
X226452380Y-115259523D01*
X226500000Y-115164285D01*
X226547619Y-114973809D01*
X226547619Y-114830952D01*
X226500000Y-114640476D01*
X226452380Y-114545238D01*
X226357142Y-114450000D01*
X226214285Y-114402380D01*
X226119047Y-114402380D01*
X225976190Y-114450000D01*
X225928571Y-114497619D01*
X225547619Y-115116666D02*
X225071428Y-115116666D01*
X225642857Y-115402380D02*
X225309523Y-114402380D01*
X224976190Y-115402380D01*
X224642857Y-115402380D02*
X224642857Y-114402380D01*
X224071428Y-115402380D01*
X224071428Y-114402380D01*
X223833333Y-115497619D02*
X223071428Y-115497619D01*
X222357142Y-115402380D02*
X222833333Y-115402380D01*
X222833333Y-114402380D01*
X226714285Y-118452380D02*
X226142857Y-118452380D01*
X226428571Y-119452380D02*
X226428571Y-118452380D01*
X225809523Y-119452380D02*
X225809523Y-118452380D01*
X225428571Y-118452380D01*
X225333333Y-118500000D01*
X225285714Y-118547619D01*
X225238095Y-118642857D01*
X225238095Y-118785714D01*
X225285714Y-118880952D01*
X225333333Y-118928571D01*
X225428571Y-118976190D01*
X225809523Y-118976190D01*
X224857142Y-118547619D02*
X224809523Y-118500000D01*
X224714285Y-118452380D01*
X224476190Y-118452380D01*
X224380952Y-118500000D01*
X224333333Y-118547619D01*
X224285714Y-118642857D01*
X224285714Y-118738095D01*
X224333333Y-118880952D01*
X224904761Y-119452380D01*
X224285714Y-119452380D01*
X223666666Y-118452380D02*
X223571428Y-118452380D01*
X223476190Y-118500000D01*
X223428571Y-118547619D01*
X223380952Y-118642857D01*
X223333333Y-118833333D01*
X223333333Y-119071428D01*
X223380952Y-119261904D01*
X223428571Y-119357142D01*
X223476190Y-119404761D01*
X223571428Y-119452380D01*
X223666666Y-119452380D01*
X223761904Y-119404761D01*
X223809523Y-119357142D01*
X223857142Y-119261904D01*
X223904761Y-119071428D01*
X223904761Y-118833333D01*
X223857142Y-118642857D01*
X223809523Y-118547619D01*
X223761904Y-118500000D01*
X223666666Y-118452380D01*
X222761904Y-118880952D02*
X222857142Y-118833333D01*
X222904761Y-118785714D01*
X222952380Y-118690476D01*
X222952380Y-118642857D01*
X222904761Y-118547619D01*
X222857142Y-118500000D01*
X222761904Y-118452380D01*
X222571428Y-118452380D01*
X222476190Y-118500000D01*
X222428571Y-118547619D01*
X222380952Y-118642857D01*
X222380952Y-118690476D01*
X222428571Y-118785714D01*
X222476190Y-118833333D01*
X222571428Y-118880952D01*
X222761904Y-118880952D01*
X222857142Y-118928571D01*
X222904761Y-118976190D01*
X222952380Y-119071428D01*
X222952380Y-119261904D01*
X222904761Y-119357142D01*
X222857142Y-119404761D01*
X222761904Y-119452380D01*
X222571428Y-119452380D01*
X222476190Y-119404761D01*
X222428571Y-119357142D01*
X222380952Y-119261904D01*
X222380952Y-119071428D01*
X222428571Y-118976190D01*
X222476190Y-118928571D01*
X222571428Y-118880952D01*
X180404761Y-82902380D02*
X180404761Y-81902380D01*
X179928571Y-82902380D02*
X179928571Y-81902380D01*
X179357142Y-82902380D01*
X179357142Y-81902380D01*
X179023809Y-81902380D02*
X178452380Y-81902380D01*
X178738095Y-82902380D02*
X178738095Y-81902380D01*
X181714285Y-85952380D02*
X181142857Y-85952380D01*
X181428571Y-86952380D02*
X181428571Y-85952380D01*
X180809523Y-86952380D02*
X180809523Y-85952380D01*
X180428571Y-85952380D01*
X180333333Y-86000000D01*
X180285714Y-86047619D01*
X180238095Y-86142857D01*
X180238095Y-86285714D01*
X180285714Y-86380952D01*
X180333333Y-86428571D01*
X180428571Y-86476190D01*
X180809523Y-86476190D01*
X179857142Y-86047619D02*
X179809523Y-86000000D01*
X179714285Y-85952380D01*
X179476190Y-85952380D01*
X179380952Y-86000000D01*
X179333333Y-86047619D01*
X179285714Y-86142857D01*
X179285714Y-86238095D01*
X179333333Y-86380952D01*
X179904761Y-86952380D01*
X179285714Y-86952380D01*
X178666666Y-85952380D02*
X178571428Y-85952380D01*
X178476190Y-86000000D01*
X178428571Y-86047619D01*
X178380952Y-86142857D01*
X178333333Y-86333333D01*
X178333333Y-86571428D01*
X178380952Y-86761904D01*
X178428571Y-86857142D01*
X178476190Y-86904761D01*
X178571428Y-86952380D01*
X178666666Y-86952380D01*
X178761904Y-86904761D01*
X178809523Y-86857142D01*
X178857142Y-86761904D01*
X178904761Y-86571428D01*
X178904761Y-86333333D01*
X178857142Y-86142857D01*
X178809523Y-86047619D01*
X178761904Y-86000000D01*
X178666666Y-85952380D01*
X177857142Y-86952380D02*
X177666666Y-86952380D01*
X177571428Y-86904761D01*
X177523809Y-86857142D01*
X177428571Y-86714285D01*
X177380952Y-86523809D01*
X177380952Y-86142857D01*
X177428571Y-86047619D01*
X177476190Y-86000000D01*
X177571428Y-85952380D01*
X177761904Y-85952380D01*
X177857142Y-86000000D01*
X177904761Y-86047619D01*
X177952380Y-86142857D01*
X177952380Y-86380952D01*
X177904761Y-86476190D01*
X177857142Y-86523809D01*
X177761904Y-86571428D01*
X177571428Y-86571428D01*
X177476190Y-86523809D01*
X177428571Y-86476190D01*
X177380952Y-86380952D01*
X206002380Y-120785714D02*
X206002380Y-121357142D01*
X207002380Y-121071428D02*
X206002380Y-121071428D01*
X206002380Y-121595238D02*
X207002380Y-122261904D01*
X206002380Y-122261904D02*
X207002380Y-121595238D01*
X206907142Y-123214285D02*
X206954761Y-123166666D01*
X207002380Y-123023809D01*
X207002380Y-122928571D01*
X206954761Y-122785714D01*
X206859523Y-122690476D01*
X206764285Y-122642857D01*
X206573809Y-122595238D01*
X206430952Y-122595238D01*
X206240476Y-122642857D01*
X206145238Y-122690476D01*
X206050000Y-122785714D01*
X206002380Y-122928571D01*
X206002380Y-123023809D01*
X206050000Y-123166666D01*
X206097619Y-123214285D01*
X206716666Y-123595238D02*
X206716666Y-124071428D01*
X207002380Y-123500000D02*
X206002380Y-123833333D01*
X207002380Y-124166666D01*
X207002380Y-124500000D02*
X206002380Y-124500000D01*
X207002380Y-125071428D01*
X206002380Y-125071428D01*
X201952380Y-120785714D02*
X201952380Y-121357142D01*
X202952380Y-121071428D02*
X201952380Y-121071428D01*
X202952380Y-121690476D02*
X201952380Y-121690476D01*
X201952380Y-122071428D01*
X202000000Y-122166666D01*
X202047619Y-122214285D01*
X202142857Y-122261904D01*
X202285714Y-122261904D01*
X202380952Y-122214285D01*
X202428571Y-122166666D01*
X202476190Y-122071428D01*
X202476190Y-121690476D01*
X202047619Y-122642857D02*
X202000000Y-122690476D01*
X201952380Y-122785714D01*
X201952380Y-123023809D01*
X202000000Y-123119047D01*
X202047619Y-123166666D01*
X202142857Y-123214285D01*
X202238095Y-123214285D01*
X202380952Y-123166666D01*
X202952380Y-122595238D01*
X202952380Y-123214285D01*
X201952380Y-123833333D02*
X201952380Y-123928571D01*
X202000000Y-124023809D01*
X202047619Y-124071428D01*
X202142857Y-124119047D01*
X202333333Y-124166666D01*
X202571428Y-124166666D01*
X202761904Y-124119047D01*
X202857142Y-124071428D01*
X202904761Y-124023809D01*
X202952380Y-123928571D01*
X202952380Y-123833333D01*
X202904761Y-123738095D01*
X202857142Y-123690476D01*
X202761904Y-123642857D01*
X202571428Y-123595238D01*
X202333333Y-123595238D01*
X202142857Y-123642857D01*
X202047619Y-123690476D01*
X202000000Y-123738095D01*
X201952380Y-123833333D01*
X201952380Y-124500000D02*
X201952380Y-125119047D01*
X202333333Y-124785714D01*
X202333333Y-124928571D01*
X202380952Y-125023809D01*
X202428571Y-125071428D01*
X202523809Y-125119047D01*
X202761904Y-125119047D01*
X202857142Y-125071428D01*
X202904761Y-125023809D01*
X202952380Y-124928571D01*
X202952380Y-124642857D01*
X202904761Y-124547619D01*
X202857142Y-124500000D01*
X227454761Y-105476190D02*
X227502380Y-105619047D01*
X227502380Y-105857142D01*
X227454761Y-105952380D01*
X227407142Y-106000000D01*
X227311904Y-106047619D01*
X227216666Y-106047619D01*
X227121428Y-106000000D01*
X227073809Y-105952380D01*
X227026190Y-105857142D01*
X226978571Y-105666666D01*
X226930952Y-105571428D01*
X226883333Y-105523809D01*
X226788095Y-105476190D01*
X226692857Y-105476190D01*
X226597619Y-105523809D01*
X226550000Y-105571428D01*
X226502380Y-105666666D01*
X226502380Y-105904761D01*
X226550000Y-106047619D01*
X227502380Y-106476190D02*
X226502380Y-106476190D01*
X222452380Y-103785714D02*
X222452380Y-104357142D01*
X223452380Y-104071428D02*
X222452380Y-104071428D01*
X223452380Y-104690476D02*
X222452380Y-104690476D01*
X222452380Y-105071428D01*
X222500000Y-105166666D01*
X222547619Y-105214285D01*
X222642857Y-105261904D01*
X222785714Y-105261904D01*
X222880952Y-105214285D01*
X222928571Y-105166666D01*
X222976190Y-105071428D01*
X222976190Y-104690476D01*
X222547619Y-105642857D02*
X222500000Y-105690476D01*
X222452380Y-105785714D01*
X222452380Y-106023809D01*
X222500000Y-106119047D01*
X222547619Y-106166666D01*
X222642857Y-106214285D01*
X222738095Y-106214285D01*
X222880952Y-106166666D01*
X223452380Y-105595238D01*
X223452380Y-106214285D01*
X222452380Y-106833333D02*
X222452380Y-106928571D01*
X222500000Y-107023809D01*
X222547619Y-107071428D01*
X222642857Y-107119047D01*
X222833333Y-107166666D01*
X223071428Y-107166666D01*
X223261904Y-107119047D01*
X223357142Y-107071428D01*
X223404761Y-107023809D01*
X223452380Y-106928571D01*
X223452380Y-106833333D01*
X223404761Y-106738095D01*
X223357142Y-106690476D01*
X223261904Y-106642857D01*
X223071428Y-106595238D01*
X222833333Y-106595238D01*
X222642857Y-106642857D01*
X222547619Y-106690476D01*
X222500000Y-106738095D01*
X222452380Y-106833333D01*
X223452380Y-108119047D02*
X223452380Y-107547619D01*
X223452380Y-107833333D02*
X222452380Y-107833333D01*
X222595238Y-107738095D01*
X222690476Y-107642857D01*
X222738095Y-107547619D01*
X227454761Y-108190476D02*
X227502380Y-108333333D01*
X227502380Y-108571428D01*
X227454761Y-108666666D01*
X227407142Y-108714285D01*
X227311904Y-108761904D01*
X227216666Y-108761904D01*
X227121428Y-108714285D01*
X227073809Y-108666666D01*
X227026190Y-108571428D01*
X226978571Y-108380952D01*
X226930952Y-108285714D01*
X226883333Y-108238095D01*
X226788095Y-108190476D01*
X226692857Y-108190476D01*
X226597619Y-108238095D01*
X226550000Y-108285714D01*
X226502380Y-108380952D01*
X226502380Y-108619047D01*
X226550000Y-108761904D01*
X226502380Y-109380952D02*
X226502380Y-109571428D01*
X226550000Y-109666666D01*
X226645238Y-109761904D01*
X226835714Y-109809523D01*
X227169047Y-109809523D01*
X227359523Y-109761904D01*
X227454761Y-109666666D01*
X227502380Y-109571428D01*
X227502380Y-109380952D01*
X227454761Y-109285714D01*
X227359523Y-109190476D01*
X227169047Y-109142857D01*
X226835714Y-109142857D01*
X226645238Y-109190476D01*
X226550000Y-109285714D01*
X226502380Y-109380952D01*
X222452380Y-106785714D02*
X222452380Y-107357142D01*
X223452380Y-107071428D02*
X222452380Y-107071428D01*
X223452380Y-107690476D02*
X222452380Y-107690476D01*
X222452380Y-108071428D01*
X222500000Y-108166666D01*
X222547619Y-108214285D01*
X222642857Y-108261904D01*
X222785714Y-108261904D01*
X222880952Y-108214285D01*
X222928571Y-108166666D01*
X222976190Y-108071428D01*
X222976190Y-107690476D01*
X222547619Y-108642857D02*
X222500000Y-108690476D01*
X222452380Y-108785714D01*
X222452380Y-109023809D01*
X222500000Y-109119047D01*
X222547619Y-109166666D01*
X222642857Y-109214285D01*
X222738095Y-109214285D01*
X222880952Y-109166666D01*
X223452380Y-108595238D01*
X223452380Y-109214285D01*
X222452380Y-109833333D02*
X222452380Y-109928571D01*
X222500000Y-110023809D01*
X222547619Y-110071428D01*
X222642857Y-110119047D01*
X222833333Y-110166666D01*
X223071428Y-110166666D01*
X223261904Y-110119047D01*
X223357142Y-110071428D01*
X223404761Y-110023809D01*
X223452380Y-109928571D01*
X223452380Y-109833333D01*
X223404761Y-109738095D01*
X223357142Y-109690476D01*
X223261904Y-109642857D01*
X223071428Y-109595238D01*
X222833333Y-109595238D01*
X222642857Y-109642857D01*
X222547619Y-109690476D01*
X222500000Y-109738095D01*
X222452380Y-109833333D01*
X222547619Y-110547619D02*
X222500000Y-110595238D01*
X222452380Y-110690476D01*
X222452380Y-110928571D01*
X222500000Y-111023809D01*
X222547619Y-111071428D01*
X222642857Y-111119047D01*
X222738095Y-111119047D01*
X222880952Y-111071428D01*
X223452380Y-110500000D01*
X223452380Y-111119047D01*
X207002380Y-112380952D02*
X206526190Y-112047619D01*
X207002380Y-111809523D02*
X206002380Y-111809523D01*
X206002380Y-112190476D01*
X206050000Y-112285714D01*
X206097619Y-112333333D01*
X206192857Y-112380952D01*
X206335714Y-112380952D01*
X206430952Y-112333333D01*
X206478571Y-112285714D01*
X206526190Y-112190476D01*
X206526190Y-111809523D01*
X206002380Y-112714285D02*
X207002380Y-113380952D01*
X206002380Y-113380952D02*
X207002380Y-112714285D01*
X206907142Y-114333333D02*
X206954761Y-114285714D01*
X207002380Y-114142857D01*
X207002380Y-114047619D01*
X206954761Y-113904761D01*
X206859523Y-113809523D01*
X206764285Y-113761904D01*
X206573809Y-113714285D01*
X206430952Y-113714285D01*
X206240476Y-113761904D01*
X206145238Y-113809523D01*
X206050000Y-113904761D01*
X206002380Y-114047619D01*
X206002380Y-114142857D01*
X206050000Y-114285714D01*
X206097619Y-114333333D01*
X206716666Y-114714285D02*
X206716666Y-115190476D01*
X207002380Y-114619047D02*
X206002380Y-114952380D01*
X207002380Y-115285714D01*
X207002380Y-115619047D02*
X206002380Y-115619047D01*
X207002380Y-116190476D01*
X206002380Y-116190476D01*
X201952380Y-111785714D02*
X201952380Y-112357142D01*
X202952380Y-112071428D02*
X201952380Y-112071428D01*
X202952380Y-112690476D02*
X201952380Y-112690476D01*
X201952380Y-113071428D01*
X202000000Y-113166666D01*
X202047619Y-113214285D01*
X202142857Y-113261904D01*
X202285714Y-113261904D01*
X202380952Y-113214285D01*
X202428571Y-113166666D01*
X202476190Y-113071428D01*
X202476190Y-112690476D01*
X202047619Y-113642857D02*
X202000000Y-113690476D01*
X201952380Y-113785714D01*
X201952380Y-114023809D01*
X202000000Y-114119047D01*
X202047619Y-114166666D01*
X202142857Y-114214285D01*
X202238095Y-114214285D01*
X202380952Y-114166666D01*
X202952380Y-113595238D01*
X202952380Y-114214285D01*
X201952380Y-114833333D02*
X201952380Y-114928571D01*
X202000000Y-115023809D01*
X202047619Y-115071428D01*
X202142857Y-115119047D01*
X202333333Y-115166666D01*
X202571428Y-115166666D01*
X202761904Y-115119047D01*
X202857142Y-115071428D01*
X202904761Y-115023809D01*
X202952380Y-114928571D01*
X202952380Y-114833333D01*
X202904761Y-114738095D01*
X202857142Y-114690476D01*
X202761904Y-114642857D01*
X202571428Y-114595238D01*
X202333333Y-114595238D01*
X202142857Y-114642857D01*
X202047619Y-114690476D01*
X202000000Y-114738095D01*
X201952380Y-114833333D01*
X202285714Y-116023809D02*
X202952380Y-116023809D01*
X201904761Y-115785714D02*
X202619047Y-115547619D01*
X202619047Y-116166666D01*
M02*
