G04 #@! TF.GenerationSoftware,KiCad,Pcbnew,5.1.4*
G04 #@! TF.CreationDate,2019-10-26T00:18:29-03:00*
G04 #@! TF.ProjectId,MCB19,4d434231-392e-46b6-9963-61645f706362,rev?*
G04 #@! TF.SameCoordinates,Original*
G04 #@! TF.FileFunction,Other,User*
%FSLAX46Y46*%
G04 Gerber Fmt 4.6, Leading zero omitted, Abs format (unit mm)*
G04 Created by KiCad (PCBNEW 5.1.4) date 2019-10-26 00:18:29*
%MOMM*%
%LPD*%
G04 APERTURE LIST*
%ADD10C,0.050000*%
G04 APERTURE END LIST*
D10*
X119920000Y-75450000D02*
X119920000Y-70550000D01*
X123080000Y-75450000D02*
X119920000Y-75450000D01*
X123080000Y-70550000D02*
X123080000Y-75450000D01*
X119920000Y-70550000D02*
X123080000Y-70550000D01*
X120420000Y-93950000D02*
X120420000Y-89050000D01*
X123580000Y-93950000D02*
X120420000Y-93950000D01*
X123580000Y-89050000D02*
X123580000Y-93950000D01*
X120420000Y-89050000D02*
X123580000Y-89050000D01*
X78500000Y-111500000D02*
G75*
G03X78500000Y-111500000I-6500000J0D01*
G01*
X62550000Y-119500000D02*
G75*
G03X62550000Y-119500000I-5550000J0D01*
G01*
X123580000Y-83550000D02*
X123580000Y-88450000D01*
X120420000Y-83550000D02*
X123580000Y-83550000D01*
X120420000Y-88450000D02*
X120420000Y-83550000D01*
X123580000Y-88450000D02*
X120420000Y-88450000D01*
X123080000Y-65050000D02*
X123080000Y-69950000D01*
X119920000Y-65050000D02*
X123080000Y-65050000D01*
X119920000Y-69950000D02*
X119920000Y-65050000D01*
X123080000Y-69950000D02*
X119920000Y-69950000D01*
X103900000Y-84850000D02*
X106100000Y-84850000D01*
X103900000Y-94150000D02*
X103900000Y-84850000D01*
X106100000Y-94150000D02*
X103900000Y-94150000D01*
X106100000Y-84850000D02*
X106100000Y-94150000D01*
X106000000Y-111500000D02*
G75*
G03X106000000Y-111500000I-6500000J0D01*
G01*
X119750000Y-111500000D02*
G75*
G03X119750000Y-111500000I-6500000J0D01*
G01*
X100085000Y-94200000D02*
X100085000Y-86800000D01*
X94685000Y-94200000D02*
X100085000Y-94200000D01*
X94685000Y-86800000D02*
X94685000Y-94200000D01*
X100085000Y-86800000D02*
X94685000Y-86800000D01*
X111950000Y-61650000D02*
X111950000Y-65350000D01*
X110050000Y-61650000D02*
X111950000Y-61650000D01*
X110050000Y-65350000D02*
X110050000Y-61650000D01*
X111950000Y-65350000D02*
X110050000Y-65350000D01*
X111950000Y-80150000D02*
X111950000Y-83850000D01*
X110050000Y-80150000D02*
X111950000Y-80150000D01*
X110050000Y-83850000D02*
X110050000Y-80150000D01*
X111950000Y-83850000D02*
X110050000Y-83850000D01*
X105150000Y-62550000D02*
X108850000Y-62550000D01*
X105150000Y-64450000D02*
X105150000Y-62550000D01*
X108850000Y-64450000D02*
X105150000Y-64450000D01*
X108850000Y-62550000D02*
X108850000Y-64450000D01*
X105150000Y-81050000D02*
X108850000Y-81050000D01*
X105150000Y-82950000D02*
X105150000Y-81050000D01*
X108850000Y-82950000D02*
X105150000Y-82950000D01*
X108850000Y-81050000D02*
X108850000Y-82950000D01*
X92125000Y-95550000D02*
X95825000Y-95550000D01*
X92125000Y-97450000D02*
X92125000Y-95550000D01*
X95825000Y-97450000D02*
X92125000Y-97450000D01*
X95825000Y-95550000D02*
X95825000Y-97450000D01*
X62550000Y-101500000D02*
G75*
G03X62550000Y-101500000I-5550000J0D01*
G01*
X62550000Y-82000000D02*
G75*
G03X62550000Y-82000000I-5550000J0D01*
G01*
X62550000Y-63000000D02*
G75*
G03X62550000Y-63000000I-5550000J0D01*
G01*
X112100000Y-75650000D02*
X109900000Y-75650000D01*
X112100000Y-66350000D02*
X112100000Y-75650000D01*
X109900000Y-66350000D02*
X112100000Y-66350000D01*
X109900000Y-75650000D02*
X109900000Y-66350000D01*
X109100000Y-75650000D02*
X106900000Y-75650000D01*
X109100000Y-66350000D02*
X109100000Y-75650000D01*
X106900000Y-66350000D02*
X109100000Y-66350000D01*
X106900000Y-75650000D02*
X106900000Y-66350000D01*
X109900000Y-94150000D02*
X109900000Y-84850000D01*
X109900000Y-84850000D02*
X112100000Y-84850000D01*
X112100000Y-84850000D02*
X112100000Y-94150000D01*
X112100000Y-94150000D02*
X109900000Y-94150000D01*
X109100000Y-94150000D02*
X106900000Y-94150000D01*
X109100000Y-84850000D02*
X109100000Y-94150000D01*
X106900000Y-84850000D02*
X109100000Y-84850000D01*
X106900000Y-94150000D02*
X106900000Y-84850000D01*
X124150000Y-92150000D02*
X124150000Y-82850000D01*
X124150000Y-82850000D02*
X126350000Y-82850000D01*
X126350000Y-82850000D02*
X126350000Y-92150000D01*
X126350000Y-92150000D02*
X124150000Y-92150000D01*
X126100000Y-73650000D02*
X123900000Y-73650000D01*
X126100000Y-64350000D02*
X126100000Y-73650000D01*
X123900000Y-64350000D02*
X126100000Y-64350000D01*
X123900000Y-73650000D02*
X123900000Y-64350000D01*
X103900000Y-66350000D02*
X106100000Y-66350000D01*
X103900000Y-75650000D02*
X103900000Y-66350000D01*
X106100000Y-75650000D02*
X103900000Y-75650000D01*
X106100000Y-66350000D02*
X106100000Y-75650000D01*
X84900000Y-89850000D02*
X87100000Y-89850000D01*
X84900000Y-99150000D02*
X84900000Y-89850000D01*
X87100000Y-99150000D02*
X84900000Y-99150000D01*
X87100000Y-89850000D02*
X87100000Y-99150000D01*
X92050000Y-94850000D02*
X92050000Y-91150000D01*
X93950000Y-94850000D02*
X92050000Y-94850000D01*
X93950000Y-91150000D02*
X93950000Y-94850000D01*
X92050000Y-91150000D02*
X93950000Y-91150000D01*
X87650000Y-99420000D02*
X87650000Y-91580000D01*
X91350000Y-99420000D02*
X87650000Y-99420000D01*
X91350000Y-91580000D02*
X91350000Y-99420000D01*
X87650000Y-91580000D02*
X91350000Y-91580000D01*
X92500000Y-111500000D02*
G75*
G03X92500000Y-111500000I-6500000J0D01*
G01*
X100750000Y-71000000D02*
G75*
G03X100750000Y-71000000I-17750000J0D01*
G01*
X93950000Y-86650000D02*
X93950000Y-90350000D01*
X92050000Y-86650000D02*
X93950000Y-86650000D01*
X92050000Y-90350000D02*
X92050000Y-86650000D01*
X93950000Y-90350000D02*
X92050000Y-90350000D01*
X194200000Y-86450000D02*
X197750000Y-86450000D01*
X197750000Y-86450000D02*
X197750000Y-92550000D01*
X197750000Y-92550000D02*
X194200000Y-92550000D01*
X194200000Y-92550000D02*
X194200000Y-86450000D01*
X188200000Y-122550000D02*
X188200000Y-86300000D01*
X188200000Y-86300000D02*
X177500000Y-86300000D01*
X177500000Y-86300000D02*
X177500000Y-122550000D01*
X177500000Y-122550000D02*
X188200000Y-122550000D01*
X232664000Y-88221000D02*
X232664000Y-72201000D01*
X232664000Y-88221000D02*
X254000000Y-88222000D01*
X254000000Y-72201000D02*
X232664000Y-72201000D01*
X254000000Y-72202000D02*
X254000000Y-88222000D01*
X232668000Y-109076000D02*
X232668000Y-93056000D01*
X232668000Y-109076000D02*
X254004000Y-109077000D01*
X254004000Y-93056000D02*
X232668000Y-93056000D01*
X254004000Y-93057000D02*
X254004000Y-109077000D01*
X194200000Y-110660000D02*
X194200000Y-121860000D01*
X194200000Y-121860000D02*
X197800000Y-121860000D01*
X197800000Y-121860000D02*
X197800000Y-110660000D01*
X197800000Y-110660000D02*
X194200000Y-110660000D01*
X200934000Y-110216000D02*
X206534000Y-110216000D01*
X206534000Y-110216000D02*
X206534000Y-98316000D01*
X206534000Y-98316000D02*
X200934000Y-98316000D01*
X200934000Y-98316000D02*
X200934000Y-110216000D01*
X195896000Y-92084000D02*
X190296000Y-92084000D01*
X190296000Y-92084000D02*
X190296000Y-103984000D01*
X190296000Y-103984000D02*
X195896000Y-103984000D01*
X195896000Y-103984000D02*
X195896000Y-92084000D01*
M02*
