G04 #@! TF.GenerationSoftware,KiCad,Pcbnew,5.1.4*
G04 #@! TF.CreationDate,2019-10-29T22:11:30-03:00*
G04 #@! TF.ProjectId,MCB19,4d434231-392e-46b6-9963-61645f706362,rev?*
G04 #@! TF.SameCoordinates,Original*
G04 #@! TF.FileFunction,Soldermask,Top*
G04 #@! TF.FilePolarity,Negative*
%FSLAX46Y46*%
G04 Gerber Fmt 4.6, Leading zero omitted, Abs format (unit mm)*
G04 Created by KiCad (PCBNEW 5.1.4) date 2019-10-29 22:11:30*
%MOMM*%
%LPD*%
G04 APERTURE LIST*
%ADD10C,0.100000*%
G04 APERTURE END LIST*
D10*
G36*
X58033979Y-114301839D02*
G01*
X58545953Y-114403677D01*
X59510491Y-114803202D01*
X60378552Y-115383222D01*
X61116778Y-116121448D01*
X61641228Y-116906343D01*
X61696799Y-116989511D01*
X61726967Y-117062343D01*
X62096323Y-117954047D01*
X62155942Y-118253772D01*
X62299999Y-118977994D01*
X62299999Y-120022006D01*
X62257268Y-120236827D01*
X62096323Y-121045953D01*
X61828440Y-121692679D01*
X61717211Y-121961211D01*
X61696798Y-122010491D01*
X61116778Y-122878552D01*
X60378552Y-123616778D01*
X59510491Y-124196798D01*
X58545953Y-124596323D01*
X58033979Y-124698161D01*
X57522006Y-124799999D01*
X56477994Y-124799999D01*
X55966021Y-124698161D01*
X55454047Y-124596323D01*
X54489509Y-124196798D01*
X53621448Y-123616778D01*
X52883222Y-122878552D01*
X52303202Y-122010491D01*
X52282790Y-121961211D01*
X52171560Y-121692679D01*
X51903677Y-121045953D01*
X51742732Y-120236827D01*
X51700001Y-120022006D01*
X51700001Y-118977994D01*
X51844058Y-118253772D01*
X51903677Y-117954047D01*
X52273033Y-117062343D01*
X52303201Y-116989511D01*
X52358772Y-116906343D01*
X52883222Y-116121448D01*
X53621448Y-115383222D01*
X54489509Y-114803202D01*
X55454047Y-114403677D01*
X55966021Y-114301839D01*
X56477994Y-114200001D01*
X57522006Y-114200001D01*
X58033979Y-114301839D01*
X58033979Y-114301839D01*
G37*
G36*
X187900000Y-121750000D02*
G01*
X185400000Y-121750000D01*
X185400000Y-120150000D01*
X187900000Y-120150000D01*
X187900000Y-121750000D01*
X187900000Y-121750000D01*
G37*
G36*
X179558471Y-120153859D02*
G01*
X179636827Y-120161576D01*
X179787628Y-120207321D01*
X179787630Y-120207322D01*
X179926605Y-120281606D01*
X180048422Y-120381578D01*
X180148394Y-120503395D01*
X180198895Y-120597876D01*
X180222679Y-120642372D01*
X180268424Y-120793173D01*
X180283870Y-120950000D01*
X180268424Y-121106827D01*
X180222679Y-121257628D01*
X180222678Y-121257630D01*
X180148394Y-121396605D01*
X180048422Y-121518422D01*
X179926605Y-121618394D01*
X179787630Y-121692678D01*
X179787628Y-121692679D01*
X179636827Y-121738424D01*
X179558471Y-121746141D01*
X179519294Y-121750000D01*
X178540706Y-121750000D01*
X178501529Y-121746141D01*
X178423173Y-121738424D01*
X178272372Y-121692679D01*
X178272370Y-121692678D01*
X178133395Y-121618394D01*
X178011578Y-121518422D01*
X177911606Y-121396605D01*
X177837322Y-121257630D01*
X177837321Y-121257628D01*
X177791576Y-121106827D01*
X177776130Y-120950000D01*
X177791576Y-120793173D01*
X177837321Y-120642372D01*
X177861105Y-120597876D01*
X177911606Y-120503395D01*
X178011578Y-120381578D01*
X178133395Y-120281606D01*
X178272370Y-120207322D01*
X178272372Y-120207321D01*
X178423173Y-120161576D01*
X178501529Y-120153859D01*
X178540706Y-120150000D01*
X179519294Y-120150000D01*
X179558471Y-120153859D01*
X179558471Y-120153859D01*
G37*
G36*
X164401222Y-116252073D02*
G01*
X164856192Y-116440528D01*
X164856194Y-116440529D01*
X165002659Y-116538394D01*
X165265656Y-116714123D01*
X165613877Y-117062344D01*
X165727485Y-117232370D01*
X165828250Y-117383175D01*
X165887472Y-117471808D01*
X166075927Y-117926778D01*
X166172000Y-118409770D01*
X166172000Y-118902230D01*
X166075927Y-119385222D01*
X165887472Y-119840192D01*
X165887471Y-119840194D01*
X165832026Y-119923173D01*
X165613877Y-120249656D01*
X165265656Y-120597877D01*
X165190010Y-120648422D01*
X164856194Y-120871471D01*
X164856193Y-120871472D01*
X164856192Y-120871472D01*
X164401222Y-121059927D01*
X163918230Y-121156000D01*
X163425770Y-121156000D01*
X162942778Y-121059927D01*
X162487808Y-120871472D01*
X162487807Y-120871472D01*
X162487806Y-120871471D01*
X162153990Y-120648422D01*
X162078344Y-120597877D01*
X161730123Y-120249656D01*
X161511974Y-119923173D01*
X161456529Y-119840194D01*
X161456528Y-119840192D01*
X161268073Y-119385222D01*
X161172000Y-118902230D01*
X161172000Y-118409770D01*
X161268073Y-117926778D01*
X161456528Y-117471808D01*
X161515751Y-117383175D01*
X161616515Y-117232370D01*
X161730123Y-117062344D01*
X162078344Y-116714123D01*
X162341341Y-116538394D01*
X162487806Y-116440529D01*
X162487808Y-116440528D01*
X162942778Y-116252073D01*
X163425770Y-116156000D01*
X163918230Y-116156000D01*
X164401222Y-116252073D01*
X164401222Y-116252073D01*
G37*
G36*
X135729222Y-116096073D02*
G01*
X136105841Y-116252074D01*
X136184194Y-116284529D01*
X136360590Y-116402393D01*
X136593656Y-116558123D01*
X136941877Y-116906344D01*
X137215472Y-117315808D01*
X137403927Y-117770778D01*
X137500000Y-118253770D01*
X137500000Y-118746230D01*
X137403927Y-119229222D01*
X137237397Y-119631260D01*
X137215471Y-119684194D01*
X137156552Y-119772372D01*
X136941877Y-120093656D01*
X136593656Y-120441877D01*
X136466850Y-120526606D01*
X136184194Y-120715471D01*
X136184193Y-120715472D01*
X136184192Y-120715472D01*
X135729222Y-120903927D01*
X135246230Y-121000000D01*
X134753770Y-121000000D01*
X134270778Y-120903927D01*
X133815808Y-120715472D01*
X133815807Y-120715472D01*
X133815806Y-120715471D01*
X133533150Y-120526606D01*
X133406344Y-120441877D01*
X133058123Y-120093656D01*
X132843448Y-119772372D01*
X132784529Y-119684194D01*
X132762603Y-119631260D01*
X132596073Y-119229222D01*
X132500000Y-118746230D01*
X132500000Y-118253770D01*
X132596073Y-117770778D01*
X132784528Y-117315808D01*
X133058123Y-116906344D01*
X133406344Y-116558123D01*
X133639410Y-116402393D01*
X133815806Y-116284529D01*
X133894159Y-116252074D01*
X134270778Y-116096073D01*
X134753770Y-116000000D01*
X135246230Y-116000000D01*
X135729222Y-116096073D01*
X135729222Y-116096073D01*
G37*
G36*
X196528471Y-119283859D02*
G01*
X196606827Y-119291576D01*
X196757628Y-119337321D01*
X196757630Y-119337322D01*
X196896605Y-119411606D01*
X197018422Y-119511578D01*
X197118394Y-119633395D01*
X197161027Y-119713155D01*
X197192679Y-119772372D01*
X197238424Y-119923173D01*
X197253870Y-120080000D01*
X197238424Y-120236827D01*
X197224840Y-120281606D01*
X197192678Y-120387630D01*
X197118394Y-120526605D01*
X197018422Y-120648422D01*
X196896605Y-120748394D01*
X196812826Y-120793175D01*
X196757628Y-120822679D01*
X196606827Y-120868424D01*
X196528471Y-120876141D01*
X196489294Y-120880000D01*
X195510706Y-120880000D01*
X195471529Y-120876141D01*
X195393173Y-120868424D01*
X195242372Y-120822679D01*
X195187174Y-120793175D01*
X195103395Y-120748394D01*
X194981578Y-120648422D01*
X194881606Y-120526605D01*
X194807322Y-120387630D01*
X194775160Y-120281606D01*
X194761576Y-120236827D01*
X194746130Y-120080000D01*
X194761576Y-119923173D01*
X194807321Y-119772372D01*
X194838973Y-119713155D01*
X194881606Y-119633395D01*
X194981578Y-119511578D01*
X195103395Y-119411606D01*
X195242370Y-119337322D01*
X195242372Y-119337321D01*
X195393173Y-119291576D01*
X195471529Y-119283859D01*
X195510706Y-119280000D01*
X196489294Y-119280000D01*
X196528471Y-119283859D01*
X196528471Y-119283859D01*
G37*
G36*
X179558471Y-117613859D02*
G01*
X179636827Y-117621576D01*
X179787628Y-117667321D01*
X179787630Y-117667322D01*
X179926605Y-117741606D01*
X180048422Y-117841578D01*
X180148394Y-117963395D01*
X180222678Y-118102370D01*
X180222679Y-118102372D01*
X180268424Y-118253173D01*
X180283870Y-118410000D01*
X180268424Y-118566827D01*
X180222679Y-118717628D01*
X180222678Y-118717630D01*
X180148394Y-118856605D01*
X180048422Y-118978422D01*
X179926605Y-119078394D01*
X179791776Y-119150462D01*
X179787628Y-119152679D01*
X179636827Y-119198424D01*
X179558471Y-119206141D01*
X179519294Y-119210000D01*
X178540706Y-119210000D01*
X178501529Y-119206141D01*
X178423173Y-119198424D01*
X178272372Y-119152679D01*
X178268224Y-119150462D01*
X178133395Y-119078394D01*
X178011578Y-118978422D01*
X177911606Y-118856605D01*
X177837322Y-118717630D01*
X177837321Y-118717628D01*
X177791576Y-118566827D01*
X177776130Y-118410000D01*
X177791576Y-118253173D01*
X177837321Y-118102372D01*
X177837322Y-118102370D01*
X177911606Y-117963395D01*
X178011578Y-117841578D01*
X178133395Y-117741606D01*
X178272370Y-117667322D01*
X178272372Y-117667321D01*
X178423173Y-117621576D01*
X178501529Y-117613859D01*
X178540706Y-117610000D01*
X179519294Y-117610000D01*
X179558471Y-117613859D01*
X179558471Y-117613859D01*
G37*
G36*
X187178471Y-117613859D02*
G01*
X187256827Y-117621576D01*
X187407628Y-117667321D01*
X187407630Y-117667322D01*
X187546605Y-117741606D01*
X187668422Y-117841578D01*
X187768394Y-117963395D01*
X187842678Y-118102370D01*
X187842679Y-118102372D01*
X187888424Y-118253173D01*
X187903870Y-118410000D01*
X187888424Y-118566827D01*
X187842679Y-118717628D01*
X187842678Y-118717630D01*
X187768394Y-118856605D01*
X187668422Y-118978422D01*
X187546605Y-119078394D01*
X187411776Y-119150462D01*
X187407628Y-119152679D01*
X187256827Y-119198424D01*
X187178471Y-119206141D01*
X187139294Y-119210000D01*
X186160706Y-119210000D01*
X186121529Y-119206141D01*
X186043173Y-119198424D01*
X185892372Y-119152679D01*
X185888224Y-119150462D01*
X185753395Y-119078394D01*
X185631578Y-118978422D01*
X185531606Y-118856605D01*
X185457322Y-118717630D01*
X185457321Y-118717628D01*
X185411576Y-118566827D01*
X185396130Y-118410000D01*
X185411576Y-118253173D01*
X185457321Y-118102372D01*
X185457322Y-118102370D01*
X185531606Y-117963395D01*
X185631578Y-117841578D01*
X185753395Y-117741606D01*
X185892370Y-117667322D01*
X185892372Y-117667321D01*
X186043173Y-117621576D01*
X186121529Y-117613859D01*
X186160706Y-117610000D01*
X187139294Y-117610000D01*
X187178471Y-117613859D01*
X187178471Y-117613859D01*
G37*
G36*
X196528471Y-116743859D02*
G01*
X196606827Y-116751576D01*
X196757628Y-116797321D01*
X196757630Y-116797322D01*
X196896605Y-116871606D01*
X197018422Y-116971578D01*
X197118394Y-117093395D01*
X197192678Y-117232370D01*
X197192679Y-117232372D01*
X197238424Y-117383173D01*
X197253870Y-117540000D01*
X197238424Y-117696827D01*
X197215991Y-117770778D01*
X197192678Y-117847630D01*
X197118394Y-117986605D01*
X197018422Y-118108422D01*
X196896605Y-118208394D01*
X196811709Y-118253772D01*
X196757628Y-118282679D01*
X196606827Y-118328424D01*
X196528471Y-118336141D01*
X196489294Y-118340000D01*
X195510706Y-118340000D01*
X195471529Y-118336141D01*
X195393173Y-118328424D01*
X195242372Y-118282679D01*
X195188291Y-118253772D01*
X195103395Y-118208394D01*
X194981578Y-118108422D01*
X194881606Y-117986605D01*
X194807322Y-117847630D01*
X194784009Y-117770778D01*
X194761576Y-117696827D01*
X194746130Y-117540000D01*
X194761576Y-117383173D01*
X194807321Y-117232372D01*
X194807322Y-117232370D01*
X194881606Y-117093395D01*
X194981578Y-116971578D01*
X195103395Y-116871606D01*
X195242370Y-116797322D01*
X195242372Y-116797321D01*
X195393173Y-116751576D01*
X195471529Y-116743859D01*
X195510706Y-116740000D01*
X196489294Y-116740000D01*
X196528471Y-116743859D01*
X196528471Y-116743859D01*
G37*
G36*
X179558471Y-115073859D02*
G01*
X179636827Y-115081576D01*
X179787628Y-115127321D01*
X179787630Y-115127322D01*
X179926605Y-115201606D01*
X180048422Y-115301578D01*
X180148394Y-115423395D01*
X180179013Y-115480679D01*
X180222679Y-115562372D01*
X180268424Y-115713173D01*
X180283870Y-115870000D01*
X180268424Y-116026827D01*
X180222679Y-116177628D01*
X180222678Y-116177630D01*
X180148394Y-116316605D01*
X180048422Y-116438422D01*
X179926605Y-116538394D01*
X179787630Y-116612678D01*
X179787628Y-116612679D01*
X179636827Y-116658424D01*
X179558471Y-116666141D01*
X179519294Y-116670000D01*
X178540706Y-116670000D01*
X178501529Y-116666141D01*
X178423173Y-116658424D01*
X178272372Y-116612679D01*
X178272370Y-116612678D01*
X178133395Y-116538394D01*
X178011578Y-116438422D01*
X177911606Y-116316605D01*
X177837322Y-116177630D01*
X177837321Y-116177628D01*
X177791576Y-116026827D01*
X177776130Y-115870000D01*
X177791576Y-115713173D01*
X177837321Y-115562372D01*
X177880987Y-115480679D01*
X177911606Y-115423395D01*
X178011578Y-115301578D01*
X178133395Y-115201606D01*
X178272370Y-115127322D01*
X178272372Y-115127321D01*
X178423173Y-115081576D01*
X178501529Y-115073859D01*
X178540706Y-115070000D01*
X179519294Y-115070000D01*
X179558471Y-115073859D01*
X179558471Y-115073859D01*
G37*
G36*
X187178471Y-115073859D02*
G01*
X187256827Y-115081576D01*
X187407628Y-115127321D01*
X187407630Y-115127322D01*
X187546605Y-115201606D01*
X187668422Y-115301578D01*
X187768394Y-115423395D01*
X187799013Y-115480679D01*
X187842679Y-115562372D01*
X187888424Y-115713173D01*
X187903870Y-115870000D01*
X187888424Y-116026827D01*
X187842679Y-116177628D01*
X187842678Y-116177630D01*
X187768394Y-116316605D01*
X187668422Y-116438422D01*
X187546605Y-116538394D01*
X187407630Y-116612678D01*
X187407628Y-116612679D01*
X187256827Y-116658424D01*
X187178471Y-116666141D01*
X187139294Y-116670000D01*
X186160706Y-116670000D01*
X186121529Y-116666141D01*
X186043173Y-116658424D01*
X185892372Y-116612679D01*
X185892370Y-116612678D01*
X185753395Y-116538394D01*
X185631578Y-116438422D01*
X185531606Y-116316605D01*
X185457322Y-116177630D01*
X185457321Y-116177628D01*
X185411576Y-116026827D01*
X185396130Y-115870000D01*
X185411576Y-115713173D01*
X185457321Y-115562372D01*
X185500987Y-115480679D01*
X185531606Y-115423395D01*
X185631578Y-115301578D01*
X185753395Y-115201606D01*
X185892370Y-115127322D01*
X185892372Y-115127321D01*
X186043173Y-115081576D01*
X186121529Y-115073859D01*
X186160706Y-115070000D01*
X187139294Y-115070000D01*
X187178471Y-115073859D01*
X187178471Y-115073859D01*
G37*
G36*
X196528471Y-114203859D02*
G01*
X196606827Y-114211576D01*
X196757628Y-114257321D01*
X196757630Y-114257322D01*
X196896605Y-114331606D01*
X196896607Y-114331607D01*
X196896606Y-114331607D01*
X197018422Y-114431578D01*
X197118393Y-114553394D01*
X197192679Y-114692372D01*
X197238424Y-114843173D01*
X197253870Y-115000000D01*
X197238424Y-115156827D01*
X197224840Y-115201606D01*
X197192678Y-115307630D01*
X197118394Y-115446605D01*
X197018422Y-115568422D01*
X196896605Y-115668394D01*
X196812826Y-115713175D01*
X196757628Y-115742679D01*
X196606827Y-115788424D01*
X196528471Y-115796141D01*
X196489294Y-115800000D01*
X195510706Y-115800000D01*
X195471529Y-115796141D01*
X195393173Y-115788424D01*
X195242372Y-115742679D01*
X195187174Y-115713175D01*
X195103395Y-115668394D01*
X194981578Y-115568422D01*
X194881606Y-115446605D01*
X194807322Y-115307630D01*
X194775160Y-115201606D01*
X194761576Y-115156827D01*
X194746130Y-115000000D01*
X194761576Y-114843173D01*
X194807321Y-114692372D01*
X194881607Y-114553394D01*
X194981578Y-114431578D01*
X195103394Y-114331607D01*
X195103393Y-114331607D01*
X195103395Y-114331606D01*
X195242370Y-114257322D01*
X195242372Y-114257321D01*
X195393173Y-114211576D01*
X195471529Y-114203859D01*
X195510706Y-114200000D01*
X196489294Y-114200000D01*
X196528471Y-114203859D01*
X196528471Y-114203859D01*
G37*
G36*
X73200000Y-115200000D02*
G01*
X70800000Y-115200000D01*
X70800000Y-112800000D01*
X73200000Y-112800000D01*
X73200000Y-115200000D01*
X73200000Y-115200000D01*
G37*
G36*
X87200000Y-115200000D02*
G01*
X84800000Y-115200000D01*
X84800000Y-112800000D01*
X87200000Y-112800000D01*
X87200000Y-115200000D01*
X87200000Y-115200000D01*
G37*
G36*
X100700000Y-115200000D02*
G01*
X98300000Y-115200000D01*
X98300000Y-112800000D01*
X100700000Y-112800000D01*
X100700000Y-115200000D01*
X100700000Y-115200000D01*
G37*
G36*
X114450000Y-115200000D02*
G01*
X112050000Y-115200000D01*
X112050000Y-112800000D01*
X114450000Y-112800000D01*
X114450000Y-115200000D01*
X114450000Y-115200000D01*
G37*
G36*
X187178471Y-112533859D02*
G01*
X187256827Y-112541576D01*
X187407628Y-112587321D01*
X187407630Y-112587322D01*
X187546605Y-112661606D01*
X187546607Y-112661607D01*
X187546606Y-112661607D01*
X187668422Y-112761578D01*
X187768393Y-112883394D01*
X187842679Y-113022372D01*
X187888424Y-113173173D01*
X187903870Y-113330000D01*
X187888424Y-113486827D01*
X187842679Y-113637628D01*
X187842678Y-113637630D01*
X187768394Y-113776605D01*
X187668422Y-113898422D01*
X187546605Y-113998394D01*
X187407630Y-114072678D01*
X187407628Y-114072679D01*
X187256827Y-114118424D01*
X187178471Y-114126141D01*
X187139294Y-114130000D01*
X186160706Y-114130000D01*
X186121529Y-114126141D01*
X186043173Y-114118424D01*
X185892372Y-114072679D01*
X185892370Y-114072678D01*
X185753395Y-113998394D01*
X185631578Y-113898422D01*
X185531606Y-113776605D01*
X185457322Y-113637630D01*
X185457321Y-113637628D01*
X185411576Y-113486827D01*
X185396130Y-113330000D01*
X185411576Y-113173173D01*
X185457321Y-113022372D01*
X185531607Y-112883394D01*
X185631578Y-112761578D01*
X185753394Y-112661607D01*
X185753393Y-112661607D01*
X185753395Y-112661606D01*
X185892370Y-112587322D01*
X185892372Y-112587321D01*
X186043173Y-112541576D01*
X186121529Y-112533859D01*
X186160706Y-112530000D01*
X187139294Y-112530000D01*
X187178471Y-112533859D01*
X187178471Y-112533859D01*
G37*
G36*
X179558471Y-112533859D02*
G01*
X179636827Y-112541576D01*
X179787628Y-112587321D01*
X179787630Y-112587322D01*
X179926605Y-112661606D01*
X179926607Y-112661607D01*
X179926606Y-112661607D01*
X180048422Y-112761578D01*
X180148393Y-112883394D01*
X180222679Y-113022372D01*
X180268424Y-113173173D01*
X180283870Y-113330000D01*
X180268424Y-113486827D01*
X180222679Y-113637628D01*
X180222678Y-113637630D01*
X180148394Y-113776605D01*
X180048422Y-113898422D01*
X179926605Y-113998394D01*
X179787630Y-114072678D01*
X179787628Y-114072679D01*
X179636827Y-114118424D01*
X179558471Y-114126141D01*
X179519294Y-114130000D01*
X178540706Y-114130000D01*
X178501529Y-114126141D01*
X178423173Y-114118424D01*
X178272372Y-114072679D01*
X178272370Y-114072678D01*
X178133395Y-113998394D01*
X178011578Y-113898422D01*
X177911606Y-113776605D01*
X177837322Y-113637630D01*
X177837321Y-113637628D01*
X177791576Y-113486827D01*
X177776130Y-113330000D01*
X177791576Y-113173173D01*
X177837321Y-113022372D01*
X177911607Y-112883394D01*
X178011578Y-112761578D01*
X178133394Y-112661607D01*
X178133393Y-112661607D01*
X178133395Y-112661606D01*
X178272370Y-112587322D01*
X178272372Y-112587321D01*
X178423173Y-112541576D01*
X178501529Y-112533859D01*
X178540706Y-112530000D01*
X179519294Y-112530000D01*
X179558471Y-112533859D01*
X179558471Y-112533859D01*
G37*
G36*
X197250000Y-113260000D02*
G01*
X194750000Y-113260000D01*
X194750000Y-111660000D01*
X197250000Y-111660000D01*
X197250000Y-113260000D01*
X197250000Y-113260000D01*
G37*
G36*
X179558471Y-109993859D02*
G01*
X179636827Y-110001576D01*
X179787628Y-110047321D01*
X179787630Y-110047322D01*
X179926605Y-110121606D01*
X179926607Y-110121607D01*
X179926606Y-110121607D01*
X180048422Y-110221578D01*
X180148393Y-110343394D01*
X180222679Y-110482372D01*
X180268424Y-110633173D01*
X180283870Y-110790000D01*
X180268424Y-110946827D01*
X180222679Y-111097628D01*
X180222678Y-111097630D01*
X180148394Y-111236605D01*
X180048422Y-111358422D01*
X179926605Y-111458394D01*
X179787630Y-111532678D01*
X179787628Y-111532679D01*
X179636827Y-111578424D01*
X179558471Y-111586141D01*
X179519294Y-111590000D01*
X178540706Y-111590000D01*
X178501529Y-111586141D01*
X178423173Y-111578424D01*
X178272372Y-111532679D01*
X178272370Y-111532678D01*
X178133395Y-111458394D01*
X178011578Y-111358422D01*
X177911606Y-111236605D01*
X177837322Y-111097630D01*
X177837321Y-111097628D01*
X177791576Y-110946827D01*
X177776130Y-110790000D01*
X177791576Y-110633173D01*
X177837321Y-110482372D01*
X177911607Y-110343394D01*
X178011578Y-110221578D01*
X178133394Y-110121607D01*
X178133393Y-110121607D01*
X178133395Y-110121606D01*
X178272370Y-110047322D01*
X178272372Y-110047321D01*
X178423173Y-110001576D01*
X178501529Y-109993859D01*
X178540706Y-109990000D01*
X179519294Y-109990000D01*
X179558471Y-109993859D01*
X179558471Y-109993859D01*
G37*
G36*
X187178471Y-109993859D02*
G01*
X187256827Y-110001576D01*
X187407628Y-110047321D01*
X187407630Y-110047322D01*
X187546605Y-110121606D01*
X187546607Y-110121607D01*
X187546606Y-110121607D01*
X187668422Y-110221578D01*
X187768393Y-110343394D01*
X187842679Y-110482372D01*
X187888424Y-110633173D01*
X187903870Y-110790000D01*
X187888424Y-110946827D01*
X187842679Y-111097628D01*
X187842678Y-111097630D01*
X187768394Y-111236605D01*
X187668422Y-111358422D01*
X187546605Y-111458394D01*
X187407630Y-111532678D01*
X187407628Y-111532679D01*
X187256827Y-111578424D01*
X187178471Y-111586141D01*
X187139294Y-111590000D01*
X186160706Y-111590000D01*
X186121529Y-111586141D01*
X186043173Y-111578424D01*
X185892372Y-111532679D01*
X185892370Y-111532678D01*
X185753395Y-111458394D01*
X185631578Y-111358422D01*
X185531606Y-111236605D01*
X185457322Y-111097630D01*
X185457321Y-111097628D01*
X185411576Y-110946827D01*
X185396130Y-110790000D01*
X185411576Y-110633173D01*
X185457321Y-110482372D01*
X185531607Y-110343394D01*
X185631578Y-110221578D01*
X185753394Y-110121607D01*
X185753393Y-110121607D01*
X185753395Y-110121606D01*
X185892370Y-110047322D01*
X185892372Y-110047321D01*
X186043173Y-110001576D01*
X186121529Y-109993859D01*
X186160706Y-109990000D01*
X187139294Y-109990000D01*
X187178471Y-109993859D01*
X187178471Y-109993859D01*
G37*
G36*
X72350026Y-107846115D02*
G01*
X72568411Y-107936573D01*
X72568413Y-107936574D01*
X72764955Y-108067899D01*
X72932101Y-108235045D01*
X73046881Y-108406825D01*
X73063427Y-108431589D01*
X73153885Y-108649974D01*
X73200000Y-108881809D01*
X73200000Y-109118191D01*
X73153885Y-109350026D01*
X73127761Y-109413095D01*
X73063426Y-109568413D01*
X72932101Y-109764955D01*
X72764955Y-109932101D01*
X72568413Y-110063426D01*
X72568412Y-110063427D01*
X72568411Y-110063427D01*
X72350026Y-110153885D01*
X72118191Y-110200000D01*
X71881809Y-110200000D01*
X71649974Y-110153885D01*
X71431589Y-110063427D01*
X71431588Y-110063427D01*
X71431587Y-110063426D01*
X71235045Y-109932101D01*
X71067899Y-109764955D01*
X70936574Y-109568413D01*
X70872239Y-109413095D01*
X70846115Y-109350026D01*
X70800000Y-109118191D01*
X70800000Y-108881809D01*
X70846115Y-108649974D01*
X70936573Y-108431589D01*
X70953120Y-108406825D01*
X71067899Y-108235045D01*
X71235045Y-108067899D01*
X71431587Y-107936574D01*
X71431589Y-107936573D01*
X71649974Y-107846115D01*
X71881809Y-107800000D01*
X72118191Y-107800000D01*
X72350026Y-107846115D01*
X72350026Y-107846115D01*
G37*
G36*
X86350026Y-107846115D02*
G01*
X86568411Y-107936573D01*
X86568413Y-107936574D01*
X86764955Y-108067899D01*
X86932101Y-108235045D01*
X87046881Y-108406825D01*
X87063427Y-108431589D01*
X87153885Y-108649974D01*
X87200000Y-108881809D01*
X87200000Y-109118191D01*
X87153885Y-109350026D01*
X87127761Y-109413095D01*
X87063426Y-109568413D01*
X86932101Y-109764955D01*
X86764955Y-109932101D01*
X86568413Y-110063426D01*
X86568412Y-110063427D01*
X86568411Y-110063427D01*
X86350026Y-110153885D01*
X86118191Y-110200000D01*
X85881809Y-110200000D01*
X85649974Y-110153885D01*
X85431589Y-110063427D01*
X85431588Y-110063427D01*
X85431587Y-110063426D01*
X85235045Y-109932101D01*
X85067899Y-109764955D01*
X84936574Y-109568413D01*
X84872239Y-109413095D01*
X84846115Y-109350026D01*
X84800000Y-109118191D01*
X84800000Y-108881809D01*
X84846115Y-108649974D01*
X84936573Y-108431589D01*
X84953120Y-108406825D01*
X85067899Y-108235045D01*
X85235045Y-108067899D01*
X85431587Y-107936574D01*
X85431589Y-107936573D01*
X85649974Y-107846115D01*
X85881809Y-107800000D01*
X86118191Y-107800000D01*
X86350026Y-107846115D01*
X86350026Y-107846115D01*
G37*
G36*
X113600026Y-107846115D02*
G01*
X113818411Y-107936573D01*
X113818413Y-107936574D01*
X114014955Y-108067899D01*
X114182101Y-108235045D01*
X114296881Y-108406825D01*
X114313427Y-108431589D01*
X114403885Y-108649974D01*
X114450000Y-108881809D01*
X114450000Y-109118191D01*
X114403885Y-109350026D01*
X114377761Y-109413095D01*
X114313426Y-109568413D01*
X114182101Y-109764955D01*
X114014955Y-109932101D01*
X113818413Y-110063426D01*
X113818412Y-110063427D01*
X113818411Y-110063427D01*
X113600026Y-110153885D01*
X113368191Y-110200000D01*
X113131809Y-110200000D01*
X112899974Y-110153885D01*
X112681589Y-110063427D01*
X112681588Y-110063427D01*
X112681587Y-110063426D01*
X112485045Y-109932101D01*
X112317899Y-109764955D01*
X112186574Y-109568413D01*
X112122239Y-109413095D01*
X112096115Y-109350026D01*
X112050000Y-109118191D01*
X112050000Y-108881809D01*
X112096115Y-108649974D01*
X112186573Y-108431589D01*
X112203120Y-108406825D01*
X112317899Y-108235045D01*
X112485045Y-108067899D01*
X112681587Y-107936574D01*
X112681589Y-107936573D01*
X112899974Y-107846115D01*
X113131809Y-107800000D01*
X113368191Y-107800000D01*
X113600026Y-107846115D01*
X113600026Y-107846115D01*
G37*
G36*
X99850026Y-107846115D02*
G01*
X100068411Y-107936573D01*
X100068413Y-107936574D01*
X100264955Y-108067899D01*
X100432101Y-108235045D01*
X100546881Y-108406825D01*
X100563427Y-108431589D01*
X100653885Y-108649974D01*
X100700000Y-108881809D01*
X100700000Y-109118191D01*
X100653885Y-109350026D01*
X100627761Y-109413095D01*
X100563426Y-109568413D01*
X100432101Y-109764955D01*
X100264955Y-109932101D01*
X100068413Y-110063426D01*
X100068412Y-110063427D01*
X100068411Y-110063427D01*
X99850026Y-110153885D01*
X99618191Y-110200000D01*
X99381809Y-110200000D01*
X99149974Y-110153885D01*
X98931589Y-110063427D01*
X98931588Y-110063427D01*
X98931587Y-110063426D01*
X98735045Y-109932101D01*
X98567899Y-109764955D01*
X98436574Y-109568413D01*
X98372239Y-109413095D01*
X98346115Y-109350026D01*
X98300000Y-109118191D01*
X98300000Y-108881809D01*
X98346115Y-108649974D01*
X98436573Y-108431589D01*
X98453120Y-108406825D01*
X98567899Y-108235045D01*
X98735045Y-108067899D01*
X98931587Y-107936574D01*
X98931589Y-107936573D01*
X99149974Y-107846115D01*
X99381809Y-107800000D01*
X99618191Y-107800000D01*
X99850026Y-107846115D01*
X99850026Y-107846115D01*
G37*
G36*
X240392610Y-107619036D02*
G01*
X240620095Y-107713264D01*
X240620097Y-107713265D01*
X240749905Y-107800000D01*
X240824828Y-107850062D01*
X240998938Y-108024172D01*
X241135736Y-108228905D01*
X241229964Y-108456390D01*
X241278000Y-108697884D01*
X241278000Y-108944116D01*
X241229964Y-109185610D01*
X241161860Y-109350026D01*
X241135735Y-109413097D01*
X240998938Y-109617828D01*
X240824828Y-109791938D01*
X240620097Y-109928735D01*
X240620096Y-109928736D01*
X240620095Y-109928736D01*
X240392610Y-110022964D01*
X240151116Y-110071000D01*
X239904884Y-110071000D01*
X239663390Y-110022964D01*
X239435905Y-109928736D01*
X239435904Y-109928736D01*
X239435903Y-109928735D01*
X239231172Y-109791938D01*
X239057062Y-109617828D01*
X238920265Y-109413097D01*
X238894140Y-109350026D01*
X238826036Y-109185610D01*
X238778000Y-108944116D01*
X238778000Y-108697884D01*
X238826036Y-108456390D01*
X238920264Y-108228905D01*
X239057062Y-108024172D01*
X239231172Y-107850062D01*
X239306095Y-107800000D01*
X239435903Y-107713265D01*
X239435905Y-107713264D01*
X239663390Y-107619036D01*
X239904884Y-107571000D01*
X240151116Y-107571000D01*
X240392610Y-107619036D01*
X240392610Y-107619036D01*
G37*
G36*
X187178471Y-107453859D02*
G01*
X187256827Y-107461576D01*
X187407628Y-107507321D01*
X187407630Y-107507322D01*
X187546605Y-107581606D01*
X187546607Y-107581607D01*
X187546606Y-107581607D01*
X187668422Y-107681578D01*
X187768393Y-107803394D01*
X187842679Y-107942372D01*
X187888424Y-108093173D01*
X187903870Y-108250000D01*
X187888424Y-108406827D01*
X187842679Y-108557628D01*
X187842678Y-108557630D01*
X187768394Y-108696605D01*
X187668422Y-108818422D01*
X187546605Y-108918394D01*
X187407630Y-108992678D01*
X187407628Y-108992679D01*
X187256827Y-109038424D01*
X187178471Y-109046141D01*
X187139294Y-109050000D01*
X186160706Y-109050000D01*
X186121529Y-109046141D01*
X186043173Y-109038424D01*
X185892372Y-108992679D01*
X185892370Y-108992678D01*
X185753395Y-108918394D01*
X185631578Y-108818422D01*
X185531606Y-108696605D01*
X185457322Y-108557630D01*
X185457321Y-108557628D01*
X185411576Y-108406827D01*
X185396130Y-108250000D01*
X185411576Y-108093173D01*
X185457321Y-107942372D01*
X185531607Y-107803394D01*
X185631578Y-107681578D01*
X185753394Y-107581607D01*
X185753393Y-107581607D01*
X185753395Y-107581606D01*
X185892370Y-107507322D01*
X185892372Y-107507321D01*
X186043173Y-107461576D01*
X186121529Y-107453859D01*
X186160706Y-107450000D01*
X187139294Y-107450000D01*
X187178471Y-107453859D01*
X187178471Y-107453859D01*
G37*
G36*
X179558471Y-107453859D02*
G01*
X179636827Y-107461576D01*
X179787628Y-107507321D01*
X179787630Y-107507322D01*
X179926605Y-107581606D01*
X179926607Y-107581607D01*
X179926606Y-107581607D01*
X180048422Y-107681578D01*
X180148393Y-107803394D01*
X180222679Y-107942372D01*
X180268424Y-108093173D01*
X180283870Y-108250000D01*
X180268424Y-108406827D01*
X180222679Y-108557628D01*
X180222678Y-108557630D01*
X180148394Y-108696605D01*
X180048422Y-108818422D01*
X179926605Y-108918394D01*
X179787630Y-108992678D01*
X179787628Y-108992679D01*
X179636827Y-109038424D01*
X179558471Y-109046141D01*
X179519294Y-109050000D01*
X178540706Y-109050000D01*
X178501529Y-109046141D01*
X178423173Y-109038424D01*
X178272372Y-108992679D01*
X178272370Y-108992678D01*
X178133395Y-108918394D01*
X178011578Y-108818422D01*
X177911606Y-108696605D01*
X177837322Y-108557630D01*
X177837321Y-108557628D01*
X177791576Y-108406827D01*
X177776130Y-108250000D01*
X177791576Y-108093173D01*
X177837321Y-107942372D01*
X177911607Y-107803394D01*
X178011578Y-107681578D01*
X178133394Y-107581607D01*
X178133393Y-107581607D01*
X178133395Y-107581606D01*
X178272370Y-107507322D01*
X178272372Y-107507321D01*
X178423173Y-107461576D01*
X178501529Y-107453859D01*
X178540706Y-107450000D01*
X179519294Y-107450000D01*
X179558471Y-107453859D01*
X179558471Y-107453859D01*
G37*
G36*
X243396893Y-104988678D02*
G01*
X243610333Y-105031134D01*
X243702703Y-105069395D01*
X243942460Y-105168705D01*
X244241369Y-105368430D01*
X244495570Y-105622631D01*
X244695295Y-105921540D01*
X244747513Y-106047606D01*
X244832866Y-106253667D01*
X244903000Y-106606253D01*
X244903000Y-106965747D01*
X244832866Y-107318333D01*
X244778328Y-107450000D01*
X244695295Y-107650460D01*
X244495570Y-107949369D01*
X244241369Y-108203570D01*
X243942460Y-108403295D01*
X243814276Y-108456390D01*
X243610333Y-108540866D01*
X243526065Y-108557628D01*
X243257748Y-108611000D01*
X242898252Y-108611000D01*
X242629935Y-108557628D01*
X242545667Y-108540866D01*
X242341724Y-108456390D01*
X242213540Y-108403295D01*
X241914631Y-108203570D01*
X241660430Y-107949369D01*
X241460705Y-107650460D01*
X241377672Y-107450000D01*
X241323134Y-107318333D01*
X241253000Y-106965747D01*
X241253000Y-106606253D01*
X241323134Y-106253667D01*
X241408487Y-106047606D01*
X241460705Y-105921540D01*
X241660430Y-105622631D01*
X241914631Y-105368430D01*
X242213540Y-105168705D01*
X242453297Y-105069395D01*
X242545667Y-105031134D01*
X242759107Y-104988678D01*
X242898252Y-104961000D01*
X243257748Y-104961000D01*
X243396893Y-104988678D01*
X243396893Y-104988678D01*
G37*
G36*
X204262471Y-105919859D02*
G01*
X204340827Y-105927576D01*
X204491628Y-105973321D01*
X204491630Y-105973322D01*
X204630605Y-106047606D01*
X204752422Y-106147578D01*
X204843600Y-106258679D01*
X204852393Y-106269394D01*
X204926679Y-106408372D01*
X204972424Y-106559173D01*
X204987870Y-106716000D01*
X204972424Y-106872827D01*
X204926679Y-107023628D01*
X204926678Y-107023630D01*
X204852394Y-107162605D01*
X204752422Y-107284422D01*
X204630605Y-107384394D01*
X204507865Y-107450000D01*
X204491628Y-107458679D01*
X204340827Y-107504424D01*
X204262471Y-107512141D01*
X204223294Y-107516000D01*
X203244706Y-107516000D01*
X203205529Y-107512141D01*
X203127173Y-107504424D01*
X202976372Y-107458679D01*
X202960135Y-107450000D01*
X202837395Y-107384394D01*
X202715578Y-107284422D01*
X202615606Y-107162605D01*
X202541322Y-107023630D01*
X202541321Y-107023628D01*
X202495576Y-106872827D01*
X202480130Y-106716000D01*
X202495576Y-106559173D01*
X202541321Y-106408372D01*
X202615607Y-106269394D01*
X202624401Y-106258679D01*
X202715578Y-106147578D01*
X202837395Y-106047606D01*
X202976370Y-105973322D01*
X202976372Y-105973321D01*
X203127173Y-105927576D01*
X203205529Y-105919859D01*
X203244706Y-105916000D01*
X204223294Y-105916000D01*
X204262471Y-105919859D01*
X204262471Y-105919859D01*
G37*
G36*
X58117091Y-96318370D02*
G01*
X58545953Y-96403676D01*
X58704081Y-96469175D01*
X59510490Y-96803200D01*
X60378552Y-97383221D01*
X61116779Y-98121448D01*
X61696800Y-98989510D01*
X61768584Y-99162812D01*
X62096324Y-99954047D01*
X62136569Y-100156372D01*
X62300000Y-100977994D01*
X62300000Y-102022006D01*
X62164216Y-102704637D01*
X62096324Y-103045953D01*
X62044942Y-103170000D01*
X61696800Y-104010490D01*
X61116779Y-104878552D01*
X60378552Y-105616779D01*
X59510490Y-106196800D01*
X58999714Y-106408370D01*
X58545953Y-106596324D01*
X58204637Y-106664216D01*
X57522006Y-106800000D01*
X56477994Y-106800000D01*
X55795363Y-106664216D01*
X55454047Y-106596324D01*
X55000286Y-106408370D01*
X54489510Y-106196800D01*
X53621448Y-105616779D01*
X52883221Y-104878552D01*
X52303200Y-104010490D01*
X51955058Y-103170000D01*
X51903676Y-103045953D01*
X51835784Y-102704637D01*
X51700000Y-102022006D01*
X51700000Y-100977994D01*
X51863431Y-100156372D01*
X51903676Y-99954047D01*
X52231416Y-99162812D01*
X52303200Y-98989510D01*
X52883221Y-98121448D01*
X53621448Y-97383221D01*
X54489510Y-96803200D01*
X55295919Y-96469175D01*
X55454047Y-96403676D01*
X55882909Y-96318370D01*
X56477994Y-96200000D01*
X57522006Y-96200000D01*
X58117091Y-96318370D01*
X58117091Y-96318370D01*
G37*
G36*
X179558471Y-104913859D02*
G01*
X179636827Y-104921576D01*
X179787628Y-104967321D01*
X179787630Y-104967322D01*
X179926605Y-105041606D01*
X180048422Y-105141578D01*
X180148394Y-105263395D01*
X180222678Y-105402370D01*
X180222679Y-105402372D01*
X180268424Y-105553173D01*
X180283870Y-105710000D01*
X180268424Y-105866827D01*
X180236119Y-105973321D01*
X180222678Y-106017630D01*
X180148394Y-106156605D01*
X180048422Y-106278422D01*
X179926605Y-106378394D01*
X179870524Y-106408370D01*
X179787628Y-106452679D01*
X179636827Y-106498424D01*
X179558471Y-106506141D01*
X179519294Y-106510000D01*
X178540706Y-106510000D01*
X178501529Y-106506141D01*
X178423173Y-106498424D01*
X178272372Y-106452679D01*
X178189476Y-106408370D01*
X178133395Y-106378394D01*
X178011578Y-106278422D01*
X177911606Y-106156605D01*
X177837322Y-106017630D01*
X177823881Y-105973321D01*
X177791576Y-105866827D01*
X177776130Y-105710000D01*
X177791576Y-105553173D01*
X177837321Y-105402372D01*
X177837322Y-105402370D01*
X177911606Y-105263395D01*
X178011578Y-105141578D01*
X178133395Y-105041606D01*
X178272370Y-104967322D01*
X178272372Y-104967321D01*
X178423173Y-104921576D01*
X178501529Y-104913859D01*
X178540706Y-104910000D01*
X179519294Y-104910000D01*
X179558471Y-104913859D01*
X179558471Y-104913859D01*
G37*
G36*
X187178471Y-104913859D02*
G01*
X187256827Y-104921576D01*
X187407628Y-104967321D01*
X187407630Y-104967322D01*
X187546605Y-105041606D01*
X187668422Y-105141578D01*
X187768394Y-105263395D01*
X187842678Y-105402370D01*
X187842679Y-105402372D01*
X187888424Y-105553173D01*
X187903870Y-105710000D01*
X187888424Y-105866827D01*
X187856119Y-105973321D01*
X187842678Y-106017630D01*
X187768394Y-106156605D01*
X187668422Y-106278422D01*
X187546605Y-106378394D01*
X187490524Y-106408370D01*
X187407628Y-106452679D01*
X187256827Y-106498424D01*
X187178471Y-106506141D01*
X187139294Y-106510000D01*
X186160706Y-106510000D01*
X186121529Y-106506141D01*
X186043173Y-106498424D01*
X185892372Y-106452679D01*
X185809476Y-106408370D01*
X185753395Y-106378394D01*
X185631578Y-106278422D01*
X185531606Y-106156605D01*
X185457322Y-106017630D01*
X185443881Y-105973321D01*
X185411576Y-105866827D01*
X185396130Y-105710000D01*
X185411576Y-105553173D01*
X185457321Y-105402372D01*
X185457322Y-105402370D01*
X185531606Y-105263395D01*
X185631578Y-105141578D01*
X185753395Y-105041606D01*
X185892370Y-104967322D01*
X185892372Y-104967321D01*
X186043173Y-104921576D01*
X186121529Y-104913859D01*
X186160706Y-104910000D01*
X187139294Y-104910000D01*
X187178471Y-104913859D01*
X187178471Y-104913859D01*
G37*
G36*
X237256471Y-104719859D02*
G01*
X237334827Y-104727576D01*
X237485628Y-104773321D01*
X237485630Y-104773322D01*
X237624605Y-104847606D01*
X237746422Y-104947578D01*
X237846394Y-105069395D01*
X237899477Y-105168706D01*
X237920679Y-105208372D01*
X237966424Y-105359173D01*
X237981870Y-105516000D01*
X237966424Y-105672827D01*
X237920679Y-105823628D01*
X237920678Y-105823630D01*
X237846394Y-105962605D01*
X237746422Y-106084422D01*
X237624605Y-106184394D01*
X237495005Y-106253667D01*
X237485628Y-106258679D01*
X237334827Y-106304424D01*
X237256471Y-106312141D01*
X237217294Y-106316000D01*
X236238706Y-106316000D01*
X236199529Y-106312141D01*
X236121173Y-106304424D01*
X235970372Y-106258679D01*
X235960995Y-106253667D01*
X235831395Y-106184394D01*
X235709578Y-106084422D01*
X235609606Y-105962605D01*
X235535322Y-105823630D01*
X235535321Y-105823628D01*
X235489576Y-105672827D01*
X235474130Y-105516000D01*
X235489576Y-105359173D01*
X235535321Y-105208372D01*
X235556523Y-105168706D01*
X235609606Y-105069395D01*
X235709578Y-104947578D01*
X235831395Y-104847606D01*
X235970370Y-104773322D01*
X235970372Y-104773321D01*
X236121173Y-104727576D01*
X236199529Y-104719859D01*
X236238706Y-104716000D01*
X237217294Y-104716000D01*
X237256471Y-104719859D01*
X237256471Y-104719859D01*
G37*
G36*
X234716471Y-103449859D02*
G01*
X234794827Y-103457576D01*
X234945628Y-103503321D01*
X234945630Y-103503322D01*
X235084605Y-103577606D01*
X235206422Y-103677578D01*
X235306394Y-103799395D01*
X235366945Y-103912678D01*
X235380679Y-103938372D01*
X235426424Y-104089173D01*
X235441870Y-104246000D01*
X235426424Y-104402827D01*
X235380679Y-104553628D01*
X235380678Y-104553630D01*
X235306394Y-104692605D01*
X235206422Y-104814422D01*
X235084605Y-104914394D01*
X234985586Y-104967321D01*
X234945628Y-104988679D01*
X234794827Y-105034424D01*
X234721906Y-105041606D01*
X234677294Y-105046000D01*
X233698706Y-105046000D01*
X233654094Y-105041606D01*
X233581173Y-105034424D01*
X233430372Y-104988679D01*
X233390414Y-104967321D01*
X233291395Y-104914394D01*
X233169578Y-104814422D01*
X233069606Y-104692605D01*
X232995322Y-104553630D01*
X232995321Y-104553628D01*
X232949576Y-104402827D01*
X232934130Y-104246000D01*
X232949576Y-104089173D01*
X232995321Y-103938372D01*
X233009055Y-103912678D01*
X233069606Y-103799395D01*
X233169578Y-103677578D01*
X233291395Y-103577606D01*
X233430370Y-103503322D01*
X233430372Y-103503321D01*
X233581173Y-103457576D01*
X233659529Y-103449859D01*
X233698706Y-103446000D01*
X234677294Y-103446000D01*
X234716471Y-103449859D01*
X234716471Y-103449859D01*
G37*
G36*
X187178471Y-102373859D02*
G01*
X187256827Y-102381576D01*
X187407628Y-102427321D01*
X187407630Y-102427322D01*
X187546605Y-102501606D01*
X187668422Y-102601578D01*
X187768394Y-102723395D01*
X187819590Y-102819175D01*
X187842679Y-102862372D01*
X187888424Y-103013173D01*
X187903870Y-103170000D01*
X187888424Y-103326827D01*
X187842679Y-103477628D01*
X187842678Y-103477630D01*
X187768394Y-103616605D01*
X187668422Y-103738422D01*
X187546605Y-103838394D01*
X187472427Y-103878043D01*
X187407628Y-103912679D01*
X187256827Y-103958424D01*
X187178471Y-103966141D01*
X187139294Y-103970000D01*
X186160706Y-103970000D01*
X186121529Y-103966141D01*
X186043173Y-103958424D01*
X185892372Y-103912679D01*
X185827573Y-103878043D01*
X185753395Y-103838394D01*
X185631578Y-103738422D01*
X185531606Y-103616605D01*
X185457322Y-103477630D01*
X185457321Y-103477628D01*
X185411576Y-103326827D01*
X185396130Y-103170000D01*
X185411576Y-103013173D01*
X185457321Y-102862372D01*
X185480410Y-102819175D01*
X185531606Y-102723395D01*
X185631578Y-102601578D01*
X185753395Y-102501606D01*
X185892370Y-102427322D01*
X185892372Y-102427321D01*
X186043173Y-102381576D01*
X186121529Y-102373859D01*
X186160706Y-102370000D01*
X187139294Y-102370000D01*
X187178471Y-102373859D01*
X187178471Y-102373859D01*
G37*
G36*
X179558471Y-102373859D02*
G01*
X179636827Y-102381576D01*
X179787628Y-102427321D01*
X179787630Y-102427322D01*
X179926605Y-102501606D01*
X180048422Y-102601578D01*
X180148394Y-102723395D01*
X180199590Y-102819175D01*
X180222679Y-102862372D01*
X180268424Y-103013173D01*
X180283870Y-103170000D01*
X180268424Y-103326827D01*
X180222679Y-103477628D01*
X180222678Y-103477630D01*
X180148394Y-103616605D01*
X180048422Y-103738422D01*
X179926605Y-103838394D01*
X179852427Y-103878043D01*
X179787628Y-103912679D01*
X179636827Y-103958424D01*
X179558471Y-103966141D01*
X179519294Y-103970000D01*
X178540706Y-103970000D01*
X178501529Y-103966141D01*
X178423173Y-103958424D01*
X178272372Y-103912679D01*
X178207573Y-103878043D01*
X178133395Y-103838394D01*
X178011578Y-103738422D01*
X177911606Y-103616605D01*
X177837322Y-103477630D01*
X177837321Y-103477628D01*
X177791576Y-103326827D01*
X177776130Y-103170000D01*
X177791576Y-103013173D01*
X177837321Y-102862372D01*
X177860410Y-102819175D01*
X177911606Y-102723395D01*
X178011578Y-102601578D01*
X178133395Y-102501606D01*
X178272370Y-102427322D01*
X178272372Y-102427321D01*
X178423173Y-102381576D01*
X178501529Y-102373859D01*
X178540706Y-102370000D01*
X179519294Y-102370000D01*
X179558471Y-102373859D01*
X179558471Y-102373859D01*
G37*
G36*
X237256471Y-102179859D02*
G01*
X237334827Y-102187576D01*
X237485628Y-102233321D01*
X237485630Y-102233322D01*
X237624605Y-102307606D01*
X237746422Y-102407578D01*
X237825876Y-102504393D01*
X237846393Y-102529394D01*
X237920679Y-102668372D01*
X237966424Y-102819173D01*
X237981870Y-102976000D01*
X237966424Y-103132827D01*
X237920679Y-103283628D01*
X237920678Y-103283630D01*
X237846394Y-103422605D01*
X237746422Y-103544422D01*
X237624605Y-103644394D01*
X237562522Y-103677578D01*
X237485628Y-103718679D01*
X237334827Y-103764424D01*
X237256471Y-103772141D01*
X237217294Y-103776000D01*
X236238706Y-103776000D01*
X236199529Y-103772141D01*
X236121173Y-103764424D01*
X235970372Y-103718679D01*
X235893478Y-103677578D01*
X235831395Y-103644394D01*
X235709578Y-103544422D01*
X235609606Y-103422605D01*
X235535322Y-103283630D01*
X235535321Y-103283628D01*
X235489576Y-103132827D01*
X235474130Y-102976000D01*
X235489576Y-102819173D01*
X235535321Y-102668372D01*
X235609607Y-102529394D01*
X235630125Y-102504393D01*
X235709578Y-102407578D01*
X235831395Y-102307606D01*
X235970370Y-102233322D01*
X235970372Y-102233321D01*
X236121173Y-102187576D01*
X236199529Y-102179859D01*
X236238706Y-102176000D01*
X237217294Y-102176000D01*
X237256471Y-102179859D01*
X237256471Y-102179859D01*
G37*
G36*
X204262471Y-101039859D02*
G01*
X204340827Y-101047576D01*
X204491628Y-101093321D01*
X204491630Y-101093322D01*
X204630605Y-101167606D01*
X204752422Y-101267578D01*
X204852394Y-101389395D01*
X204926678Y-101528370D01*
X204926679Y-101528372D01*
X204972424Y-101679173D01*
X204987870Y-101836000D01*
X204972424Y-101992827D01*
X204926679Y-102143628D01*
X204926678Y-102143630D01*
X204852394Y-102282605D01*
X204752422Y-102404422D01*
X204630605Y-102504394D01*
X204491630Y-102578678D01*
X204491628Y-102578679D01*
X204340827Y-102624424D01*
X204262471Y-102632141D01*
X204223294Y-102636000D01*
X203244706Y-102636000D01*
X203205529Y-102632141D01*
X203127173Y-102624424D01*
X202976372Y-102578679D01*
X202976370Y-102578678D01*
X202837395Y-102504394D01*
X202715578Y-102404422D01*
X202615606Y-102282605D01*
X202541322Y-102143630D01*
X202541321Y-102143628D01*
X202495576Y-101992827D01*
X202480130Y-101836000D01*
X202495576Y-101679173D01*
X202541321Y-101528372D01*
X202541322Y-101528370D01*
X202615606Y-101389395D01*
X202715578Y-101267578D01*
X202837395Y-101167606D01*
X202976370Y-101093322D01*
X202976372Y-101093321D01*
X203127173Y-101047576D01*
X203205529Y-101039859D01*
X203244706Y-101036000D01*
X204223294Y-101036000D01*
X204262471Y-101039859D01*
X204262471Y-101039859D01*
G37*
G36*
X234716471Y-100909859D02*
G01*
X234794827Y-100917576D01*
X234945628Y-100963321D01*
X234945630Y-100963322D01*
X235084605Y-101037606D01*
X235206422Y-101137578D01*
X235306394Y-101259395D01*
X235321066Y-101286845D01*
X235380679Y-101398372D01*
X235426424Y-101549173D01*
X235441870Y-101706000D01*
X235426424Y-101862827D01*
X235380679Y-102013628D01*
X235380678Y-102013630D01*
X235306394Y-102152605D01*
X235206422Y-102274422D01*
X235084605Y-102374394D01*
X235022522Y-102407578D01*
X234945628Y-102448679D01*
X234794827Y-102494424D01*
X234721906Y-102501606D01*
X234677294Y-102506000D01*
X233698706Y-102506000D01*
X233654094Y-102501606D01*
X233581173Y-102494424D01*
X233430372Y-102448679D01*
X233353478Y-102407578D01*
X233291395Y-102374394D01*
X233169578Y-102274422D01*
X233069606Y-102152605D01*
X232995322Y-102013630D01*
X232995321Y-102013628D01*
X232949576Y-101862827D01*
X232934130Y-101706000D01*
X232949576Y-101549173D01*
X232995321Y-101398372D01*
X233054934Y-101286845D01*
X233069606Y-101259395D01*
X233169578Y-101137578D01*
X233291395Y-101037606D01*
X233430370Y-100963322D01*
X233430372Y-100963321D01*
X233581173Y-100917576D01*
X233659529Y-100909859D01*
X233698706Y-100906000D01*
X234677294Y-100906000D01*
X234716471Y-100909859D01*
X234716471Y-100909859D01*
G37*
G36*
X187178471Y-99833859D02*
G01*
X187256827Y-99841576D01*
X187407628Y-99887321D01*
X187407630Y-99887322D01*
X187546605Y-99961606D01*
X187668422Y-100061578D01*
X187768394Y-100183395D01*
X187819590Y-100279175D01*
X187842679Y-100322372D01*
X187888424Y-100473173D01*
X187903870Y-100630000D01*
X187888424Y-100786827D01*
X187842679Y-100937628D01*
X187842678Y-100937630D01*
X187768394Y-101076605D01*
X187668422Y-101198422D01*
X187546605Y-101298394D01*
X187414997Y-101368740D01*
X187407628Y-101372679D01*
X187256827Y-101418424D01*
X187178471Y-101426141D01*
X187139294Y-101430000D01*
X186160706Y-101430000D01*
X186121529Y-101426141D01*
X186043173Y-101418424D01*
X185892372Y-101372679D01*
X185885003Y-101368740D01*
X185753395Y-101298394D01*
X185631578Y-101198422D01*
X185531606Y-101076605D01*
X185457322Y-100937630D01*
X185457321Y-100937628D01*
X185411576Y-100786827D01*
X185396130Y-100630000D01*
X185411576Y-100473173D01*
X185457321Y-100322372D01*
X185480410Y-100279175D01*
X185531606Y-100183395D01*
X185631578Y-100061578D01*
X185753395Y-99961606D01*
X185892370Y-99887322D01*
X185892372Y-99887321D01*
X186043173Y-99841576D01*
X186121529Y-99833859D01*
X186160706Y-99830000D01*
X187139294Y-99830000D01*
X187178471Y-99833859D01*
X187178471Y-99833859D01*
G37*
G36*
X179558471Y-99833859D02*
G01*
X179636827Y-99841576D01*
X179787628Y-99887321D01*
X179787630Y-99887322D01*
X179926605Y-99961606D01*
X180048422Y-100061578D01*
X180148394Y-100183395D01*
X180199590Y-100279175D01*
X180222679Y-100322372D01*
X180268424Y-100473173D01*
X180283870Y-100630000D01*
X180268424Y-100786827D01*
X180222679Y-100937628D01*
X180222678Y-100937630D01*
X180148394Y-101076605D01*
X180048422Y-101198422D01*
X179926605Y-101298394D01*
X179794997Y-101368740D01*
X179787628Y-101372679D01*
X179636827Y-101418424D01*
X179558471Y-101426141D01*
X179519294Y-101430000D01*
X178540706Y-101430000D01*
X178501529Y-101426141D01*
X178423173Y-101418424D01*
X178272372Y-101372679D01*
X178265003Y-101368740D01*
X178133395Y-101298394D01*
X178011578Y-101198422D01*
X177911606Y-101076605D01*
X177837322Y-100937630D01*
X177837321Y-100937628D01*
X177791576Y-100786827D01*
X177776130Y-100630000D01*
X177791576Y-100473173D01*
X177837321Y-100322372D01*
X177860410Y-100279175D01*
X177911606Y-100183395D01*
X178011578Y-100061578D01*
X178133395Y-99961606D01*
X178272370Y-99887322D01*
X178272372Y-99887321D01*
X178423173Y-99841576D01*
X178501529Y-99833859D01*
X178540706Y-99830000D01*
X179519294Y-99830000D01*
X179558471Y-99833859D01*
X179558471Y-99833859D01*
G37*
G36*
X193624471Y-99667859D02*
G01*
X193702827Y-99675576D01*
X193853628Y-99721321D01*
X193853630Y-99721322D01*
X193992605Y-99795606D01*
X194114422Y-99895578D01*
X194214394Y-100017395D01*
X194273713Y-100128372D01*
X194288679Y-100156372D01*
X194334424Y-100307173D01*
X194349870Y-100464000D01*
X194334424Y-100620827D01*
X194297172Y-100743630D01*
X194288678Y-100771630D01*
X194214394Y-100910605D01*
X194114422Y-101032422D01*
X193992605Y-101132394D01*
X193982906Y-101137578D01*
X193853628Y-101206679D01*
X193702827Y-101252424D01*
X193632059Y-101259394D01*
X193585294Y-101264000D01*
X192606706Y-101264000D01*
X192559941Y-101259394D01*
X192489173Y-101252424D01*
X192338372Y-101206679D01*
X192209094Y-101137578D01*
X192199395Y-101132394D01*
X192077578Y-101032422D01*
X191977606Y-100910605D01*
X191903322Y-100771630D01*
X191894828Y-100743630D01*
X191857576Y-100620827D01*
X191842130Y-100464000D01*
X191857576Y-100307173D01*
X191903321Y-100156372D01*
X191918287Y-100128372D01*
X191977606Y-100017395D01*
X192077578Y-99895578D01*
X192199395Y-99795606D01*
X192338370Y-99721322D01*
X192338372Y-99721321D01*
X192489173Y-99675576D01*
X192567529Y-99667859D01*
X192606706Y-99664000D01*
X193585294Y-99664000D01*
X193624471Y-99667859D01*
X193624471Y-99667859D01*
G37*
G36*
X237256471Y-99639859D02*
G01*
X237334827Y-99647576D01*
X237485628Y-99693321D01*
X237485630Y-99693322D01*
X237624605Y-99767606D01*
X237746422Y-99867578D01*
X237846394Y-99989395D01*
X237861360Y-100017395D01*
X237920679Y-100128372D01*
X237966424Y-100279173D01*
X237981870Y-100436000D01*
X237966424Y-100592827D01*
X237920679Y-100743628D01*
X237920678Y-100743630D01*
X237846394Y-100882605D01*
X237746422Y-101004422D01*
X237624605Y-101104394D01*
X237562522Y-101137578D01*
X237485628Y-101178679D01*
X237334827Y-101224424D01*
X237256471Y-101232141D01*
X237217294Y-101236000D01*
X236238706Y-101236000D01*
X236199529Y-101232141D01*
X236121173Y-101224424D01*
X235970372Y-101178679D01*
X235893478Y-101137578D01*
X235831395Y-101104394D01*
X235709578Y-101004422D01*
X235609606Y-100882605D01*
X235535322Y-100743630D01*
X235535321Y-100743628D01*
X235489576Y-100592827D01*
X235474130Y-100436000D01*
X235489576Y-100279173D01*
X235535321Y-100128372D01*
X235594640Y-100017395D01*
X235609606Y-99989395D01*
X235709578Y-99867578D01*
X235831395Y-99767606D01*
X235970370Y-99693322D01*
X235970372Y-99693321D01*
X236121173Y-99647576D01*
X236199529Y-99639859D01*
X236238706Y-99636000D01*
X237217294Y-99636000D01*
X237256471Y-99639859D01*
X237256471Y-99639859D01*
G37*
G36*
X234716471Y-98369859D02*
G01*
X234794827Y-98377576D01*
X234945628Y-98423321D01*
X234945630Y-98423322D01*
X235084605Y-98497606D01*
X235206422Y-98597578D01*
X235306394Y-98719395D01*
X235327239Y-98758393D01*
X235380679Y-98858372D01*
X235426424Y-99009173D01*
X235441870Y-99166000D01*
X235426424Y-99322827D01*
X235380679Y-99473628D01*
X235380678Y-99473630D01*
X235306394Y-99612605D01*
X235206422Y-99734422D01*
X235084605Y-99834394D01*
X235071168Y-99841576D01*
X234945628Y-99908679D01*
X234794827Y-99954424D01*
X234721906Y-99961606D01*
X234677294Y-99966000D01*
X233698706Y-99966000D01*
X233654094Y-99961606D01*
X233581173Y-99954424D01*
X233430372Y-99908679D01*
X233304832Y-99841576D01*
X233291395Y-99834394D01*
X233169578Y-99734422D01*
X233069606Y-99612605D01*
X232995322Y-99473630D01*
X232995321Y-99473628D01*
X232949576Y-99322827D01*
X232934130Y-99166000D01*
X232949576Y-99009173D01*
X232995321Y-98858372D01*
X233048761Y-98758393D01*
X233069606Y-98719395D01*
X233169578Y-98597578D01*
X233291395Y-98497606D01*
X233430370Y-98423322D01*
X233430372Y-98423321D01*
X233581173Y-98377576D01*
X233659529Y-98369859D01*
X233698706Y-98366000D01*
X234677294Y-98366000D01*
X234716471Y-98369859D01*
X234716471Y-98369859D01*
G37*
G36*
X90551909Y-96928528D02*
G01*
X90580455Y-96937188D01*
X90606766Y-96951252D01*
X90629825Y-96970175D01*
X90648748Y-96993234D01*
X90662812Y-97019545D01*
X90671472Y-97048091D01*
X90675000Y-97083916D01*
X90675000Y-99016084D01*
X90671472Y-99051909D01*
X90662812Y-99080455D01*
X90648748Y-99106766D01*
X90629825Y-99129825D01*
X90606766Y-99148748D01*
X90580455Y-99162812D01*
X90551909Y-99171472D01*
X90516084Y-99175000D01*
X88483916Y-99175000D01*
X88448091Y-99171472D01*
X88419545Y-99162812D01*
X88393234Y-99148748D01*
X88370175Y-99129825D01*
X88351252Y-99106766D01*
X88337188Y-99080455D01*
X88328528Y-99051909D01*
X88325000Y-99016084D01*
X88325000Y-97083916D01*
X88328528Y-97048091D01*
X88337188Y-97019545D01*
X88351252Y-96993234D01*
X88370175Y-96970175D01*
X88393234Y-96951252D01*
X88419545Y-96937188D01*
X88448091Y-96928528D01*
X88483916Y-96925000D01*
X90516084Y-96925000D01*
X90551909Y-96928528D01*
X90551909Y-96928528D01*
G37*
G36*
X86850000Y-98900000D02*
G01*
X85150000Y-98900000D01*
X85150000Y-95600000D01*
X86850000Y-95600000D01*
X86850000Y-98900000D01*
X86850000Y-98900000D01*
G37*
G36*
X187178471Y-97293859D02*
G01*
X187256827Y-97301576D01*
X187407628Y-97347321D01*
X187407630Y-97347322D01*
X187546605Y-97421606D01*
X187668422Y-97521578D01*
X187768394Y-97643395D01*
X187819590Y-97739175D01*
X187842679Y-97782372D01*
X187888424Y-97933173D01*
X187903870Y-98090000D01*
X187888424Y-98246827D01*
X187842679Y-98397628D01*
X187842678Y-98397630D01*
X187768394Y-98536605D01*
X187668422Y-98658422D01*
X187546605Y-98758394D01*
X187430393Y-98820511D01*
X187407628Y-98832679D01*
X187256827Y-98878424D01*
X187178471Y-98886141D01*
X187139294Y-98890000D01*
X186160706Y-98890000D01*
X186121529Y-98886141D01*
X186043173Y-98878424D01*
X185892372Y-98832679D01*
X185869607Y-98820511D01*
X185753395Y-98758394D01*
X185631578Y-98658422D01*
X185531606Y-98536605D01*
X185457322Y-98397630D01*
X185457321Y-98397628D01*
X185411576Y-98246827D01*
X185396130Y-98090000D01*
X185411576Y-97933173D01*
X185457321Y-97782372D01*
X185480410Y-97739175D01*
X185531606Y-97643395D01*
X185631578Y-97521578D01*
X185753395Y-97421606D01*
X185892370Y-97347322D01*
X185892372Y-97347321D01*
X186043173Y-97301576D01*
X186121529Y-97293859D01*
X186160706Y-97290000D01*
X187139294Y-97290000D01*
X187178471Y-97293859D01*
X187178471Y-97293859D01*
G37*
G36*
X179558471Y-97293859D02*
G01*
X179636827Y-97301576D01*
X179787628Y-97347321D01*
X179787630Y-97347322D01*
X179926605Y-97421606D01*
X180048422Y-97521578D01*
X180148394Y-97643395D01*
X180199590Y-97739175D01*
X180222679Y-97782372D01*
X180268424Y-97933173D01*
X180283870Y-98090000D01*
X180268424Y-98246827D01*
X180222679Y-98397628D01*
X180222678Y-98397630D01*
X180148394Y-98536605D01*
X180048422Y-98658422D01*
X179926605Y-98758394D01*
X179810393Y-98820511D01*
X179787628Y-98832679D01*
X179636827Y-98878424D01*
X179558471Y-98886141D01*
X179519294Y-98890000D01*
X178540706Y-98890000D01*
X178501529Y-98886141D01*
X178423173Y-98878424D01*
X178272372Y-98832679D01*
X178249607Y-98820511D01*
X178133395Y-98758394D01*
X178011578Y-98658422D01*
X177911606Y-98536605D01*
X177837322Y-98397630D01*
X177837321Y-98397628D01*
X177791576Y-98246827D01*
X177776130Y-98090000D01*
X177791576Y-97933173D01*
X177837321Y-97782372D01*
X177860410Y-97739175D01*
X177911606Y-97643395D01*
X178011578Y-97521578D01*
X178133395Y-97421606D01*
X178272370Y-97347322D01*
X178272372Y-97347321D01*
X178423173Y-97301576D01*
X178501529Y-97293859D01*
X178540706Y-97290000D01*
X179519294Y-97290000D01*
X179558471Y-97293859D01*
X179558471Y-97293859D01*
G37*
G36*
X237256471Y-97099859D02*
G01*
X237334827Y-97107576D01*
X237485628Y-97153321D01*
X237485630Y-97153322D01*
X237624605Y-97227606D01*
X237746422Y-97327578D01*
X237846394Y-97449395D01*
X237884977Y-97521578D01*
X237920679Y-97588372D01*
X237966424Y-97739173D01*
X237981870Y-97896000D01*
X237966424Y-98052827D01*
X237945608Y-98121447D01*
X237920678Y-98203630D01*
X237846394Y-98342605D01*
X237746422Y-98464422D01*
X237624605Y-98564394D01*
X237562522Y-98597578D01*
X237485628Y-98638679D01*
X237334827Y-98684424D01*
X237256471Y-98692141D01*
X237217294Y-98696000D01*
X236238706Y-98696000D01*
X236199529Y-98692141D01*
X236121173Y-98684424D01*
X235970372Y-98638679D01*
X235893478Y-98597578D01*
X235831395Y-98564394D01*
X235709578Y-98464422D01*
X235609606Y-98342605D01*
X235535322Y-98203630D01*
X235510392Y-98121447D01*
X235489576Y-98052827D01*
X235474130Y-97896000D01*
X235489576Y-97739173D01*
X235535321Y-97588372D01*
X235571023Y-97521578D01*
X235609606Y-97449395D01*
X235709578Y-97327578D01*
X235831395Y-97227606D01*
X235970370Y-97153322D01*
X235970372Y-97153321D01*
X236121173Y-97107576D01*
X236199529Y-97099859D01*
X236238706Y-97096000D01*
X237217294Y-97096000D01*
X237256471Y-97099859D01*
X237256471Y-97099859D01*
G37*
G36*
X234716471Y-95829859D02*
G01*
X234794827Y-95837576D01*
X234945628Y-95883321D01*
X234945630Y-95883322D01*
X235084605Y-95957606D01*
X235206422Y-96057578D01*
X235306394Y-96179395D01*
X235328344Y-96220461D01*
X235380679Y-96318372D01*
X235426424Y-96469173D01*
X235441870Y-96626000D01*
X235426424Y-96782827D01*
X235383296Y-96925000D01*
X235380678Y-96933630D01*
X235306394Y-97072605D01*
X235206422Y-97194422D01*
X235084605Y-97294394D01*
X235022522Y-97327578D01*
X234945628Y-97368679D01*
X234794827Y-97414424D01*
X234721906Y-97421606D01*
X234677294Y-97426000D01*
X233698706Y-97426000D01*
X233654094Y-97421606D01*
X233581173Y-97414424D01*
X233430372Y-97368679D01*
X233353478Y-97327578D01*
X233291395Y-97294394D01*
X233169578Y-97194422D01*
X233069606Y-97072605D01*
X232995322Y-96933630D01*
X232992704Y-96925000D01*
X232949576Y-96782827D01*
X232934130Y-96626000D01*
X232949576Y-96469173D01*
X232995321Y-96318372D01*
X233047656Y-96220461D01*
X233069606Y-96179395D01*
X233169578Y-96057578D01*
X233291395Y-95957606D01*
X233430370Y-95883322D01*
X233430372Y-95883321D01*
X233581173Y-95837576D01*
X233659529Y-95829859D01*
X233698706Y-95826000D01*
X234677294Y-95826000D01*
X234716471Y-95829859D01*
X234716471Y-95829859D01*
G37*
G36*
X95430522Y-95804039D02*
G01*
X95464057Y-95814212D01*
X95494956Y-95830728D01*
X95522043Y-95852957D01*
X95544272Y-95880044D01*
X95560788Y-95910943D01*
X95570961Y-95944478D01*
X95575000Y-95985487D01*
X95575000Y-97014513D01*
X95570961Y-97055522D01*
X95560788Y-97089057D01*
X95544272Y-97119956D01*
X95522043Y-97147043D01*
X95494956Y-97169272D01*
X95464057Y-97185788D01*
X95430522Y-97195961D01*
X95389513Y-97200000D01*
X94610487Y-97200000D01*
X94569478Y-97195961D01*
X94535943Y-97185788D01*
X94505044Y-97169272D01*
X94477957Y-97147043D01*
X94455728Y-97119956D01*
X94439212Y-97089057D01*
X94429039Y-97055522D01*
X94425000Y-97014513D01*
X94425000Y-95985487D01*
X94429039Y-95944478D01*
X94439212Y-95910943D01*
X94455728Y-95880044D01*
X94477957Y-95852957D01*
X94505044Y-95830728D01*
X94535943Y-95814212D01*
X94569478Y-95804039D01*
X94610487Y-95800000D01*
X95389513Y-95800000D01*
X95430522Y-95804039D01*
X95430522Y-95804039D01*
G37*
G36*
X93380522Y-95804039D02*
G01*
X93414057Y-95814212D01*
X93444956Y-95830728D01*
X93472043Y-95852957D01*
X93494272Y-95880044D01*
X93510788Y-95910943D01*
X93520961Y-95944478D01*
X93525000Y-95985487D01*
X93525000Y-97014513D01*
X93520961Y-97055522D01*
X93510788Y-97089057D01*
X93494272Y-97119956D01*
X93472043Y-97147043D01*
X93444956Y-97169272D01*
X93414057Y-97185788D01*
X93380522Y-97195961D01*
X93339513Y-97200000D01*
X92560487Y-97200000D01*
X92519478Y-97195961D01*
X92485943Y-97185788D01*
X92455044Y-97169272D01*
X92427957Y-97147043D01*
X92405728Y-97119956D01*
X92389212Y-97089057D01*
X92379039Y-97055522D01*
X92375000Y-97014513D01*
X92375000Y-95985487D01*
X92379039Y-95944478D01*
X92389212Y-95910943D01*
X92405728Y-95880044D01*
X92427957Y-95852957D01*
X92455044Y-95830728D01*
X92485943Y-95814212D01*
X92519478Y-95804039D01*
X92560487Y-95800000D01*
X93339513Y-95800000D01*
X93380522Y-95804039D01*
X93380522Y-95804039D01*
G37*
G36*
X243423468Y-93563964D02*
G01*
X243610333Y-93601134D01*
X243747904Y-93658118D01*
X243942460Y-93738705D01*
X244241369Y-93938430D01*
X244495570Y-94192631D01*
X244695295Y-94491540D01*
X244738230Y-94595196D01*
X244832866Y-94823667D01*
X244836378Y-94841322D01*
X244895271Y-95137394D01*
X244903000Y-95176253D01*
X244903000Y-95535747D01*
X244832866Y-95888333D01*
X244804172Y-95957606D01*
X244695295Y-96220460D01*
X244495570Y-96519369D01*
X244241369Y-96773570D01*
X243942460Y-96973295D01*
X243790817Y-97036107D01*
X243610333Y-97110866D01*
X243533108Y-97126227D01*
X243257748Y-97181000D01*
X242898252Y-97181000D01*
X242622892Y-97126227D01*
X242545667Y-97110866D01*
X242365183Y-97036107D01*
X242213540Y-96973295D01*
X241914631Y-96773570D01*
X241660430Y-96519369D01*
X241460705Y-96220460D01*
X241351828Y-95957606D01*
X241323134Y-95888333D01*
X241253000Y-95535747D01*
X241253000Y-95176253D01*
X241260730Y-95137394D01*
X241319622Y-94841322D01*
X241323134Y-94823667D01*
X241417770Y-94595196D01*
X241460705Y-94491540D01*
X241660430Y-94192631D01*
X241914631Y-93938430D01*
X242213540Y-93738705D01*
X242408096Y-93658118D01*
X242545667Y-93601134D01*
X242732532Y-93563964D01*
X242898252Y-93531000D01*
X243257748Y-93531000D01*
X243423468Y-93563964D01*
X243423468Y-93563964D01*
G37*
G36*
X193624471Y-94787859D02*
G01*
X193702827Y-94795576D01*
X193853628Y-94841321D01*
X193853630Y-94841322D01*
X193992605Y-94915606D01*
X194114422Y-95015578D01*
X194214394Y-95137395D01*
X194288678Y-95276370D01*
X194288679Y-95276372D01*
X194334424Y-95427173D01*
X194349870Y-95584000D01*
X194334424Y-95740827D01*
X194288679Y-95891628D01*
X194288678Y-95891630D01*
X194214394Y-96030605D01*
X194114422Y-96152422D01*
X193992605Y-96252394D01*
X193917239Y-96292678D01*
X193853628Y-96326679D01*
X193702827Y-96372424D01*
X193624471Y-96380141D01*
X193585294Y-96384000D01*
X192606706Y-96384000D01*
X192567529Y-96380141D01*
X192489173Y-96372424D01*
X192338372Y-96326679D01*
X192274761Y-96292678D01*
X192199395Y-96252394D01*
X192077578Y-96152422D01*
X191977606Y-96030605D01*
X191903322Y-95891630D01*
X191903321Y-95891628D01*
X191857576Y-95740827D01*
X191842130Y-95584000D01*
X191857576Y-95427173D01*
X191903321Y-95276372D01*
X191903322Y-95276370D01*
X191977606Y-95137395D01*
X192077578Y-95015578D01*
X192199395Y-94915606D01*
X192338370Y-94841322D01*
X192338372Y-94841321D01*
X192489173Y-94795576D01*
X192567529Y-94787859D01*
X192606706Y-94784000D01*
X193585294Y-94784000D01*
X193624471Y-94787859D01*
X193624471Y-94787859D01*
G37*
G36*
X187178471Y-94753859D02*
G01*
X187256827Y-94761576D01*
X187407628Y-94807321D01*
X187407630Y-94807322D01*
X187546605Y-94881606D01*
X187668422Y-94981578D01*
X187768394Y-95103395D01*
X187842678Y-95242370D01*
X187842679Y-95242372D01*
X187888424Y-95393173D01*
X187903870Y-95550000D01*
X187888424Y-95706827D01*
X187844096Y-95852957D01*
X187842678Y-95857630D01*
X187768394Y-95996605D01*
X187668422Y-96118422D01*
X187546605Y-96218394D01*
X187407630Y-96292678D01*
X187407628Y-96292679D01*
X187256827Y-96338424D01*
X187178471Y-96346141D01*
X187139294Y-96350000D01*
X186160706Y-96350000D01*
X186121529Y-96346141D01*
X186043173Y-96338424D01*
X185892372Y-96292679D01*
X185892370Y-96292678D01*
X185753395Y-96218394D01*
X185631578Y-96118422D01*
X185531606Y-95996605D01*
X185457322Y-95857630D01*
X185455904Y-95852957D01*
X185411576Y-95706827D01*
X185396130Y-95550000D01*
X185411576Y-95393173D01*
X185457321Y-95242372D01*
X185457322Y-95242370D01*
X185531606Y-95103395D01*
X185631578Y-94981578D01*
X185753395Y-94881606D01*
X185892370Y-94807322D01*
X185892372Y-94807321D01*
X186043173Y-94761576D01*
X186121529Y-94753859D01*
X186160706Y-94750000D01*
X187139294Y-94750000D01*
X187178471Y-94753859D01*
X187178471Y-94753859D01*
G37*
G36*
X179558471Y-94753859D02*
G01*
X179636827Y-94761576D01*
X179787628Y-94807321D01*
X179787630Y-94807322D01*
X179926605Y-94881606D01*
X180048422Y-94981578D01*
X180148394Y-95103395D01*
X180222678Y-95242370D01*
X180222679Y-95242372D01*
X180268424Y-95393173D01*
X180283870Y-95550000D01*
X180268424Y-95706827D01*
X180224096Y-95852957D01*
X180222678Y-95857630D01*
X180148394Y-95996605D01*
X180048422Y-96118422D01*
X179926605Y-96218394D01*
X179787630Y-96292678D01*
X179787628Y-96292679D01*
X179636827Y-96338424D01*
X179558471Y-96346141D01*
X179519294Y-96350000D01*
X178540706Y-96350000D01*
X178501529Y-96346141D01*
X178423173Y-96338424D01*
X178272372Y-96292679D01*
X178272370Y-96292678D01*
X178133395Y-96218394D01*
X178011578Y-96118422D01*
X177911606Y-95996605D01*
X177837322Y-95857630D01*
X177835904Y-95852957D01*
X177791576Y-95706827D01*
X177776130Y-95550000D01*
X177791576Y-95393173D01*
X177837321Y-95242372D01*
X177837322Y-95242370D01*
X177911606Y-95103395D01*
X178011578Y-94981578D01*
X178133395Y-94881606D01*
X178272370Y-94807322D01*
X178272372Y-94807321D01*
X178423173Y-94761576D01*
X178501529Y-94753859D01*
X178540706Y-94750000D01*
X179519294Y-94750000D01*
X179558471Y-94753859D01*
X179558471Y-94753859D01*
G37*
G36*
X93555522Y-93454039D02*
G01*
X93589057Y-93464212D01*
X93619956Y-93480728D01*
X93647043Y-93502957D01*
X93669272Y-93530044D01*
X93685788Y-93560943D01*
X93695961Y-93594478D01*
X93700000Y-93635487D01*
X93700000Y-94414513D01*
X93695961Y-94455522D01*
X93685788Y-94489057D01*
X93669272Y-94519956D01*
X93647043Y-94547043D01*
X93619956Y-94569272D01*
X93589057Y-94585788D01*
X93555522Y-94595961D01*
X93514513Y-94600000D01*
X92485487Y-94600000D01*
X92444478Y-94595961D01*
X92410943Y-94585788D01*
X92380044Y-94569272D01*
X92352957Y-94547043D01*
X92330728Y-94519956D01*
X92314212Y-94489057D01*
X92304039Y-94455522D01*
X92300000Y-94414513D01*
X92300000Y-93635487D01*
X92304039Y-93594478D01*
X92314212Y-93560943D01*
X92330728Y-93530044D01*
X92352957Y-93502957D01*
X92380044Y-93480728D01*
X92410943Y-93464212D01*
X92444478Y-93454039D01*
X92485487Y-93450000D01*
X93514513Y-93450000D01*
X93555522Y-93454039D01*
X93555522Y-93454039D01*
G37*
G36*
X240392610Y-92119036D02*
G01*
X240612215Y-92210000D01*
X240620097Y-92213265D01*
X240824828Y-92350062D01*
X240998938Y-92524172D01*
X241118008Y-92702372D01*
X241135736Y-92728905D01*
X241229964Y-92956390D01*
X241278000Y-93197884D01*
X241278000Y-93444116D01*
X241229964Y-93685610D01*
X241136697Y-93910775D01*
X241135735Y-93913097D01*
X240998938Y-94117828D01*
X240824828Y-94291938D01*
X240620097Y-94428735D01*
X240620096Y-94428736D01*
X240620095Y-94428736D01*
X240392610Y-94522964D01*
X240151116Y-94571000D01*
X239904884Y-94571000D01*
X239663390Y-94522964D01*
X239435905Y-94428736D01*
X239435904Y-94428736D01*
X239435903Y-94428735D01*
X239231172Y-94291938D01*
X239057062Y-94117828D01*
X238920265Y-93913097D01*
X238919303Y-93910775D01*
X238826036Y-93685610D01*
X238778000Y-93444116D01*
X238778000Y-93197884D01*
X238826036Y-92956390D01*
X238920264Y-92728905D01*
X238937993Y-92702372D01*
X239057062Y-92524172D01*
X239231172Y-92350062D01*
X239435903Y-92213265D01*
X239443785Y-92210000D01*
X239663390Y-92119036D01*
X239904884Y-92071000D01*
X240151116Y-92071000D01*
X240392610Y-92119036D01*
X240392610Y-92119036D01*
G37*
G36*
X90551909Y-91828528D02*
G01*
X90580455Y-91837188D01*
X90606766Y-91851252D01*
X90629825Y-91870175D01*
X90648748Y-91893234D01*
X90662812Y-91919545D01*
X90671472Y-91948091D01*
X90675000Y-91983916D01*
X90675000Y-93916084D01*
X90671472Y-93951909D01*
X90662812Y-93980455D01*
X90648748Y-94006766D01*
X90629825Y-94029825D01*
X90606766Y-94048748D01*
X90580455Y-94062812D01*
X90551909Y-94071472D01*
X90516084Y-94075000D01*
X88483916Y-94075000D01*
X88448091Y-94071472D01*
X88419545Y-94062812D01*
X88393234Y-94048748D01*
X88370175Y-94029825D01*
X88351252Y-94006766D01*
X88337188Y-93980455D01*
X88328528Y-93951909D01*
X88325000Y-93916084D01*
X88325000Y-91983916D01*
X88328528Y-91948091D01*
X88337188Y-91919545D01*
X88351252Y-91893234D01*
X88370175Y-91870175D01*
X88393234Y-91851252D01*
X88419545Y-91837188D01*
X88448091Y-91828528D01*
X88483916Y-91825000D01*
X90516084Y-91825000D01*
X90551909Y-91828528D01*
X90551909Y-91828528D01*
G37*
G36*
X99519453Y-92002274D02*
G01*
X99535753Y-92007219D01*
X99550775Y-92015249D01*
X99563944Y-92026056D01*
X99574751Y-92039225D01*
X99582781Y-92054247D01*
X99587726Y-92070547D01*
X99590000Y-92093640D01*
X99590000Y-93856360D01*
X99587726Y-93879453D01*
X99582781Y-93895753D01*
X99574751Y-93910775D01*
X99563944Y-93923944D01*
X99550775Y-93934751D01*
X99535753Y-93942781D01*
X99519453Y-93947726D01*
X99496360Y-93950000D01*
X99083640Y-93950000D01*
X99060547Y-93947726D01*
X99044247Y-93942781D01*
X99029225Y-93934751D01*
X99016056Y-93923944D01*
X99005249Y-93910775D01*
X98997219Y-93895753D01*
X98992274Y-93879453D01*
X98990000Y-93856360D01*
X98990000Y-92093640D01*
X98992274Y-92070547D01*
X98997219Y-92054247D01*
X99005249Y-92039225D01*
X99016056Y-92026056D01*
X99029225Y-92015249D01*
X99044247Y-92007219D01*
X99060547Y-92002274D01*
X99083640Y-92000000D01*
X99496360Y-92000000D01*
X99519453Y-92002274D01*
X99519453Y-92002274D01*
G37*
G36*
X98249453Y-92002274D02*
G01*
X98265753Y-92007219D01*
X98280775Y-92015249D01*
X98293944Y-92026056D01*
X98304751Y-92039225D01*
X98312781Y-92054247D01*
X98317726Y-92070547D01*
X98320000Y-92093640D01*
X98320000Y-93856360D01*
X98317726Y-93879453D01*
X98312781Y-93895753D01*
X98304751Y-93910775D01*
X98293944Y-93923944D01*
X98280775Y-93934751D01*
X98265753Y-93942781D01*
X98249453Y-93947726D01*
X98226360Y-93950000D01*
X97813640Y-93950000D01*
X97790547Y-93947726D01*
X97774247Y-93942781D01*
X97759225Y-93934751D01*
X97746056Y-93923944D01*
X97735249Y-93910775D01*
X97727219Y-93895753D01*
X97722274Y-93879453D01*
X97720000Y-93856360D01*
X97720000Y-92093640D01*
X97722274Y-92070547D01*
X97727219Y-92054247D01*
X97735249Y-92039225D01*
X97746056Y-92026056D01*
X97759225Y-92015249D01*
X97774247Y-92007219D01*
X97790547Y-92002274D01*
X97813640Y-92000000D01*
X98226360Y-92000000D01*
X98249453Y-92002274D01*
X98249453Y-92002274D01*
G37*
G36*
X96979453Y-92002274D02*
G01*
X96995753Y-92007219D01*
X97010775Y-92015249D01*
X97023944Y-92026056D01*
X97034751Y-92039225D01*
X97042781Y-92054247D01*
X97047726Y-92070547D01*
X97050000Y-92093640D01*
X97050000Y-93856360D01*
X97047726Y-93879453D01*
X97042781Y-93895753D01*
X97034751Y-93910775D01*
X97023944Y-93923944D01*
X97010775Y-93934751D01*
X96995753Y-93942781D01*
X96979453Y-93947726D01*
X96956360Y-93950000D01*
X96543640Y-93950000D01*
X96520547Y-93947726D01*
X96504247Y-93942781D01*
X96489225Y-93934751D01*
X96476056Y-93923944D01*
X96465249Y-93910775D01*
X96457219Y-93895753D01*
X96452274Y-93879453D01*
X96450000Y-93856360D01*
X96450000Y-92093640D01*
X96452274Y-92070547D01*
X96457219Y-92054247D01*
X96465249Y-92039225D01*
X96476056Y-92026056D01*
X96489225Y-92015249D01*
X96504247Y-92007219D01*
X96520547Y-92002274D01*
X96543640Y-92000000D01*
X96956360Y-92000000D01*
X96979453Y-92002274D01*
X96979453Y-92002274D01*
G37*
G36*
X95709453Y-92002274D02*
G01*
X95725753Y-92007219D01*
X95740775Y-92015249D01*
X95753944Y-92026056D01*
X95764751Y-92039225D01*
X95772781Y-92054247D01*
X95777726Y-92070547D01*
X95780000Y-92093640D01*
X95780000Y-93856360D01*
X95777726Y-93879453D01*
X95772781Y-93895753D01*
X95764751Y-93910775D01*
X95753944Y-93923944D01*
X95740775Y-93934751D01*
X95725753Y-93942781D01*
X95709453Y-93947726D01*
X95686360Y-93950000D01*
X95273640Y-93950000D01*
X95250547Y-93947726D01*
X95234247Y-93942781D01*
X95219225Y-93934751D01*
X95206056Y-93923944D01*
X95195249Y-93910775D01*
X95187219Y-93895753D01*
X95182274Y-93879453D01*
X95180000Y-93856360D01*
X95180000Y-92093640D01*
X95182274Y-92070547D01*
X95187219Y-92054247D01*
X95195249Y-92039225D01*
X95206056Y-92026056D01*
X95219225Y-92015249D01*
X95234247Y-92007219D01*
X95250547Y-92002274D01*
X95273640Y-92000000D01*
X95686360Y-92000000D01*
X95709453Y-92002274D01*
X95709453Y-92002274D01*
G37*
G36*
X111850000Y-93900000D02*
G01*
X110150000Y-93900000D01*
X110150000Y-90600000D01*
X111850000Y-90600000D01*
X111850000Y-93900000D01*
X111850000Y-93900000D01*
G37*
G36*
X108850000Y-93900000D02*
G01*
X107150000Y-93900000D01*
X107150000Y-90600000D01*
X108850000Y-90600000D01*
X108850000Y-93900000D01*
X108850000Y-93900000D01*
G37*
G36*
X105850000Y-93900000D02*
G01*
X104150000Y-93900000D01*
X104150000Y-90600000D01*
X105850000Y-90600000D01*
X105850000Y-93900000D01*
X105850000Y-93900000D01*
G37*
G36*
X187178471Y-92213859D02*
G01*
X187256827Y-92221576D01*
X187407628Y-92267321D01*
X187407630Y-92267322D01*
X187546605Y-92341606D01*
X187668422Y-92441578D01*
X187768394Y-92563395D01*
X187842678Y-92702370D01*
X187842679Y-92702372D01*
X187888424Y-92853173D01*
X187903870Y-93010000D01*
X187888424Y-93166827D01*
X187879002Y-93197886D01*
X187842678Y-93317630D01*
X187768394Y-93456605D01*
X187668422Y-93578422D01*
X187546605Y-93678394D01*
X187407630Y-93752678D01*
X187407628Y-93752679D01*
X187256827Y-93798424D01*
X187178471Y-93806141D01*
X187139294Y-93810000D01*
X186160706Y-93810000D01*
X186121529Y-93806141D01*
X186043173Y-93798424D01*
X185892372Y-93752679D01*
X185892370Y-93752678D01*
X185753395Y-93678394D01*
X185631578Y-93578422D01*
X185531606Y-93456605D01*
X185457322Y-93317630D01*
X185420998Y-93197886D01*
X185411576Y-93166827D01*
X185396130Y-93010000D01*
X185411576Y-92853173D01*
X185457321Y-92702372D01*
X185457322Y-92702370D01*
X185531606Y-92563395D01*
X185631578Y-92441578D01*
X185753395Y-92341606D01*
X185892370Y-92267322D01*
X185892372Y-92267321D01*
X186043173Y-92221576D01*
X186121529Y-92213859D01*
X186160706Y-92210000D01*
X187139294Y-92210000D01*
X187178471Y-92213859D01*
X187178471Y-92213859D01*
G37*
G36*
X179558471Y-92213859D02*
G01*
X179636827Y-92221576D01*
X179787628Y-92267321D01*
X179787630Y-92267322D01*
X179926605Y-92341606D01*
X180048422Y-92441578D01*
X180148394Y-92563395D01*
X180222678Y-92702370D01*
X180222679Y-92702372D01*
X180268424Y-92853173D01*
X180283870Y-93010000D01*
X180268424Y-93166827D01*
X180259002Y-93197886D01*
X180222678Y-93317630D01*
X180148394Y-93456605D01*
X180048422Y-93578422D01*
X179926605Y-93678394D01*
X179787630Y-93752678D01*
X179787628Y-93752679D01*
X179636827Y-93798424D01*
X179558471Y-93806141D01*
X179519294Y-93810000D01*
X178540706Y-93810000D01*
X178501529Y-93806141D01*
X178423173Y-93798424D01*
X178272372Y-93752679D01*
X178272370Y-93752678D01*
X178133395Y-93678394D01*
X178011578Y-93578422D01*
X177911606Y-93456605D01*
X177837322Y-93317630D01*
X177800998Y-93197886D01*
X177791576Y-93166827D01*
X177776130Y-93010000D01*
X177791576Y-92853173D01*
X177837321Y-92702372D01*
X177837322Y-92702370D01*
X177911606Y-92563395D01*
X178011578Y-92441578D01*
X178133395Y-92341606D01*
X178272370Y-92267322D01*
X178272372Y-92267321D01*
X178423173Y-92221576D01*
X178501529Y-92213859D01*
X178540706Y-92210000D01*
X179519294Y-92210000D01*
X179558471Y-92213859D01*
X179558471Y-92213859D01*
G37*
G36*
X123188964Y-92278837D02*
G01*
X123220525Y-92288412D01*
X123249620Y-92303963D01*
X123275115Y-92324885D01*
X123296037Y-92350380D01*
X123311588Y-92379475D01*
X123321163Y-92411036D01*
X123325000Y-92449998D01*
X123325000Y-93524999D01*
X123321163Y-93563964D01*
X123311588Y-93595525D01*
X123296037Y-93624620D01*
X123275115Y-93650115D01*
X123249620Y-93671037D01*
X123220525Y-93686588D01*
X123188964Y-93696163D01*
X123150002Y-93700000D01*
X120849998Y-93700000D01*
X120811036Y-93696163D01*
X120779475Y-93686588D01*
X120750380Y-93671037D01*
X120724885Y-93650115D01*
X120703963Y-93624620D01*
X120688412Y-93595525D01*
X120678837Y-93563964D01*
X120675000Y-93524999D01*
X120675000Y-92449998D01*
X120678837Y-92411036D01*
X120688412Y-92379475D01*
X120703963Y-92350380D01*
X120724885Y-92324885D01*
X120750380Y-92303963D01*
X120779475Y-92288412D01*
X120811036Y-92278837D01*
X120849998Y-92275000D01*
X123150002Y-92275000D01*
X123188964Y-92278837D01*
X123188964Y-92278837D01*
G37*
G36*
X86850000Y-93400000D02*
G01*
X85150000Y-93400000D01*
X85150000Y-90100000D01*
X86850000Y-90100000D01*
X86850000Y-93400000D01*
X86850000Y-93400000D01*
G37*
G36*
X117245041Y-90168086D02*
G01*
X117362856Y-90203825D01*
X117480669Y-90239563D01*
X117480671Y-90239564D01*
X117697822Y-90355633D01*
X117888160Y-90511840D01*
X118044367Y-90702178D01*
X118160436Y-90919329D01*
X118160437Y-90919331D01*
X118184959Y-91000169D01*
X118231914Y-91154959D01*
X118256048Y-91400000D01*
X118231914Y-91645041D01*
X118231913Y-91645043D01*
X118169361Y-91851252D01*
X118160436Y-91880671D01*
X118044367Y-92097822D01*
X117888160Y-92288160D01*
X117697822Y-92444367D01*
X117546967Y-92525000D01*
X117480669Y-92560437D01*
X117362856Y-92596175D01*
X117245041Y-92631914D01*
X117061409Y-92650000D01*
X114938591Y-92650000D01*
X114754959Y-92631914D01*
X114637144Y-92596175D01*
X114519331Y-92560437D01*
X114453033Y-92525000D01*
X114302178Y-92444367D01*
X114111840Y-92288160D01*
X113955633Y-92097822D01*
X113839564Y-91880671D01*
X113830640Y-91851252D01*
X113768087Y-91645043D01*
X113768086Y-91645041D01*
X113743952Y-91400000D01*
X113768086Y-91154959D01*
X113815041Y-91000169D01*
X113839563Y-90919331D01*
X113839564Y-90919329D01*
X113955633Y-90702178D01*
X114111840Y-90511840D01*
X114302178Y-90355633D01*
X114519329Y-90239564D01*
X114519331Y-90239563D01*
X114637144Y-90203825D01*
X114754959Y-90168086D01*
X114938591Y-90150000D01*
X117061409Y-90150000D01*
X117245041Y-90168086D01*
X117245041Y-90168086D01*
G37*
G36*
X93555522Y-91404039D02*
G01*
X93589057Y-91414212D01*
X93619956Y-91430728D01*
X93647043Y-91452957D01*
X93669272Y-91480044D01*
X93685788Y-91510943D01*
X93695961Y-91544478D01*
X93700000Y-91585487D01*
X93700000Y-92364513D01*
X93695961Y-92405522D01*
X93685788Y-92439057D01*
X93669272Y-92469956D01*
X93647043Y-92497043D01*
X93619956Y-92519272D01*
X93589057Y-92535788D01*
X93555522Y-92545961D01*
X93514513Y-92550000D01*
X92485487Y-92550000D01*
X92444478Y-92545961D01*
X92410943Y-92535788D01*
X92380044Y-92519272D01*
X92352957Y-92497043D01*
X92330728Y-92469956D01*
X92314212Y-92439057D01*
X92304039Y-92405522D01*
X92300000Y-92364513D01*
X92300000Y-91585487D01*
X92304039Y-91544478D01*
X92314212Y-91510943D01*
X92330728Y-91480044D01*
X92352957Y-91452957D01*
X92380044Y-91430728D01*
X92410943Y-91414212D01*
X92444478Y-91404039D01*
X92485487Y-91400000D01*
X93514513Y-91400000D01*
X93555522Y-91404039D01*
X93555522Y-91404039D01*
G37*
G36*
X126100000Y-91900000D02*
G01*
X124400000Y-91900000D01*
X124400000Y-88600000D01*
X126100000Y-88600000D01*
X126100000Y-91900000D01*
X126100000Y-91900000D01*
G37*
G36*
X187178471Y-89673859D02*
G01*
X187256827Y-89681576D01*
X187407628Y-89727321D01*
X187407630Y-89727322D01*
X187546605Y-89801606D01*
X187668422Y-89901578D01*
X187768394Y-90023395D01*
X187836066Y-90150000D01*
X187842679Y-90162372D01*
X187888424Y-90313173D01*
X187903870Y-90470000D01*
X187888424Y-90626827D01*
X187842679Y-90777628D01*
X187842678Y-90777630D01*
X187768394Y-90916605D01*
X187668422Y-91038422D01*
X187546605Y-91138394D01*
X187407630Y-91212678D01*
X187407628Y-91212679D01*
X187256827Y-91258424D01*
X187178471Y-91266141D01*
X187139294Y-91270000D01*
X186160706Y-91270000D01*
X186121529Y-91266141D01*
X186043173Y-91258424D01*
X185892372Y-91212679D01*
X185892370Y-91212678D01*
X185753395Y-91138394D01*
X185631578Y-91038422D01*
X185531606Y-90916605D01*
X185457322Y-90777630D01*
X185457321Y-90777628D01*
X185411576Y-90626827D01*
X185396130Y-90470000D01*
X185411576Y-90313173D01*
X185457321Y-90162372D01*
X185463934Y-90150000D01*
X185531606Y-90023395D01*
X185631578Y-89901578D01*
X185753395Y-89801606D01*
X185892370Y-89727322D01*
X185892372Y-89727321D01*
X186043173Y-89681576D01*
X186121529Y-89673859D01*
X186160706Y-89670000D01*
X187139294Y-89670000D01*
X187178471Y-89673859D01*
X187178471Y-89673859D01*
G37*
G36*
X179558471Y-89673859D02*
G01*
X179636827Y-89681576D01*
X179787628Y-89727321D01*
X179787630Y-89727322D01*
X179926605Y-89801606D01*
X180048422Y-89901578D01*
X180148394Y-90023395D01*
X180216066Y-90150000D01*
X180222679Y-90162372D01*
X180268424Y-90313173D01*
X180283870Y-90470000D01*
X180268424Y-90626827D01*
X180222679Y-90777628D01*
X180222678Y-90777630D01*
X180148394Y-90916605D01*
X180048422Y-91038422D01*
X179926605Y-91138394D01*
X179787630Y-91212678D01*
X179787628Y-91212679D01*
X179636827Y-91258424D01*
X179558471Y-91266141D01*
X179519294Y-91270000D01*
X178540706Y-91270000D01*
X178501529Y-91266141D01*
X178423173Y-91258424D01*
X178272372Y-91212679D01*
X178272370Y-91212678D01*
X178133395Y-91138394D01*
X178011578Y-91038422D01*
X177911606Y-90916605D01*
X177837322Y-90777630D01*
X177837321Y-90777628D01*
X177791576Y-90626827D01*
X177776130Y-90470000D01*
X177791576Y-90313173D01*
X177837321Y-90162372D01*
X177843934Y-90150000D01*
X177911606Y-90023395D01*
X178011578Y-89901578D01*
X178133395Y-89801606D01*
X178272370Y-89727322D01*
X178272372Y-89727321D01*
X178423173Y-89681576D01*
X178501529Y-89673859D01*
X178540706Y-89670000D01*
X179519294Y-89670000D01*
X179558471Y-89673859D01*
X179558471Y-89673859D01*
G37*
G36*
X196166627Y-89452299D02*
G01*
X196241456Y-89474998D01*
X196326855Y-89500903D01*
X196326857Y-89500904D01*
X196474518Y-89579831D01*
X196603949Y-89686051D01*
X196710169Y-89815482D01*
X196789096Y-89963143D01*
X196837701Y-90123373D01*
X196854112Y-90290000D01*
X196837701Y-90456627D01*
X196820952Y-90511840D01*
X196794210Y-90600000D01*
X196789096Y-90616857D01*
X196710169Y-90764518D01*
X196603949Y-90893949D01*
X196474518Y-91000169D01*
X196402952Y-91038422D01*
X196326855Y-91079097D01*
X196246742Y-91103398D01*
X196166627Y-91127701D01*
X196041752Y-91140000D01*
X195958248Y-91140000D01*
X195833373Y-91127701D01*
X195753258Y-91103398D01*
X195673145Y-91079097D01*
X195597048Y-91038422D01*
X195525482Y-91000169D01*
X195396051Y-90893949D01*
X195289831Y-90764518D01*
X195210904Y-90616857D01*
X195205791Y-90600000D01*
X195179048Y-90511840D01*
X195162299Y-90456627D01*
X195145888Y-90290000D01*
X195162299Y-90123373D01*
X195210904Y-89963143D01*
X195289831Y-89815482D01*
X195396051Y-89686051D01*
X195525482Y-89579831D01*
X195673143Y-89500904D01*
X195673145Y-89500903D01*
X195758544Y-89474998D01*
X195833373Y-89452299D01*
X195958248Y-89440000D01*
X196041752Y-89440000D01*
X196166627Y-89452299D01*
X196166627Y-89452299D01*
G37*
G36*
X123188964Y-89303837D02*
G01*
X123220525Y-89313412D01*
X123249620Y-89328963D01*
X123275115Y-89349885D01*
X123296037Y-89375380D01*
X123311588Y-89404475D01*
X123321163Y-89436036D01*
X123325000Y-89474998D01*
X123325000Y-90550002D01*
X123321163Y-90588964D01*
X123311588Y-90620525D01*
X123296037Y-90649620D01*
X123275115Y-90675115D01*
X123249620Y-90696037D01*
X123220525Y-90711588D01*
X123188964Y-90721163D01*
X123150002Y-90725000D01*
X120849998Y-90725000D01*
X120811036Y-90721163D01*
X120779475Y-90711588D01*
X120750380Y-90696037D01*
X120724885Y-90675115D01*
X120703963Y-90649620D01*
X120688412Y-90620525D01*
X120678837Y-90588964D01*
X120675000Y-90550002D01*
X120675000Y-89474998D01*
X120678837Y-89436036D01*
X120688412Y-89404475D01*
X120703963Y-89375380D01*
X120724885Y-89349885D01*
X120750380Y-89328963D01*
X120779475Y-89313412D01*
X120811036Y-89303837D01*
X120849998Y-89300000D01*
X123150002Y-89300000D01*
X123188964Y-89303837D01*
X123188964Y-89303837D01*
G37*
G36*
X93555522Y-88954039D02*
G01*
X93589057Y-88964212D01*
X93619956Y-88980728D01*
X93647043Y-89002957D01*
X93669272Y-89030044D01*
X93685788Y-89060943D01*
X93695961Y-89094478D01*
X93700000Y-89135487D01*
X93700000Y-89914513D01*
X93695961Y-89955522D01*
X93685788Y-89989057D01*
X93669272Y-90019956D01*
X93647043Y-90047043D01*
X93619956Y-90069272D01*
X93589057Y-90085788D01*
X93555522Y-90095961D01*
X93514513Y-90100000D01*
X92485487Y-90100000D01*
X92444478Y-90095961D01*
X92410943Y-90085788D01*
X92380044Y-90069272D01*
X92352957Y-90047043D01*
X92330728Y-90019956D01*
X92314212Y-89989057D01*
X92304039Y-89955522D01*
X92300000Y-89914513D01*
X92300000Y-89135487D01*
X92304039Y-89094478D01*
X92314212Y-89060943D01*
X92330728Y-89030044D01*
X92352957Y-89002957D01*
X92380044Y-88980728D01*
X92410943Y-88964212D01*
X92444478Y-88954039D01*
X92485487Y-88950000D01*
X93514513Y-88950000D01*
X93555522Y-88954039D01*
X93555522Y-88954039D01*
G37*
G36*
X240388610Y-86764036D02*
G01*
X240616095Y-86858264D01*
X240616097Y-86858265D01*
X240820828Y-86995062D01*
X240994938Y-87169172D01*
X241123500Y-87361578D01*
X241131736Y-87373905D01*
X241225964Y-87601390D01*
X241274000Y-87842884D01*
X241274000Y-88089116D01*
X241225964Y-88330610D01*
X241131736Y-88558095D01*
X241131735Y-88558097D01*
X240994938Y-88762828D01*
X240820828Y-88936938D01*
X240616097Y-89073735D01*
X240616096Y-89073736D01*
X240616095Y-89073736D01*
X240388610Y-89167964D01*
X240147116Y-89216000D01*
X239900884Y-89216000D01*
X239659390Y-89167964D01*
X239431905Y-89073736D01*
X239431904Y-89073736D01*
X239431903Y-89073735D01*
X239227172Y-88936938D01*
X239053062Y-88762828D01*
X238916265Y-88558097D01*
X238916264Y-88558095D01*
X238822036Y-88330610D01*
X238774000Y-88089116D01*
X238774000Y-87842884D01*
X238822036Y-87601390D01*
X238916264Y-87373905D01*
X238924501Y-87361578D01*
X239053062Y-87169172D01*
X239227172Y-86995062D01*
X239431903Y-86858265D01*
X239431905Y-86858264D01*
X239659390Y-86764036D01*
X239900884Y-86716000D01*
X240147116Y-86716000D01*
X240388610Y-86764036D01*
X240388610Y-86764036D01*
G37*
G36*
X99519453Y-87052274D02*
G01*
X99535753Y-87057219D01*
X99550775Y-87065249D01*
X99563944Y-87076056D01*
X99574751Y-87089225D01*
X99582781Y-87104247D01*
X99587726Y-87120547D01*
X99590000Y-87143640D01*
X99590000Y-88906360D01*
X99587726Y-88929453D01*
X99582781Y-88945753D01*
X99574751Y-88960775D01*
X99563944Y-88973944D01*
X99550775Y-88984751D01*
X99535753Y-88992781D01*
X99519453Y-88997726D01*
X99496360Y-89000000D01*
X99083640Y-89000000D01*
X99060547Y-88997726D01*
X99044247Y-88992781D01*
X99029225Y-88984751D01*
X99016056Y-88973944D01*
X99005249Y-88960775D01*
X98997219Y-88945753D01*
X98992274Y-88929453D01*
X98990000Y-88906360D01*
X98990000Y-87143640D01*
X98992274Y-87120547D01*
X98997219Y-87104247D01*
X99005249Y-87089225D01*
X99016056Y-87076056D01*
X99029225Y-87065249D01*
X99044247Y-87057219D01*
X99060547Y-87052274D01*
X99083640Y-87050000D01*
X99496360Y-87050000D01*
X99519453Y-87052274D01*
X99519453Y-87052274D01*
G37*
G36*
X98249453Y-87052274D02*
G01*
X98265753Y-87057219D01*
X98280775Y-87065249D01*
X98293944Y-87076056D01*
X98304751Y-87089225D01*
X98312781Y-87104247D01*
X98317726Y-87120547D01*
X98320000Y-87143640D01*
X98320000Y-88906360D01*
X98317726Y-88929453D01*
X98312781Y-88945753D01*
X98304751Y-88960775D01*
X98293944Y-88973944D01*
X98280775Y-88984751D01*
X98265753Y-88992781D01*
X98249453Y-88997726D01*
X98226360Y-89000000D01*
X97813640Y-89000000D01*
X97790547Y-88997726D01*
X97774247Y-88992781D01*
X97759225Y-88984751D01*
X97746056Y-88973944D01*
X97735249Y-88960775D01*
X97727219Y-88945753D01*
X97722274Y-88929453D01*
X97720000Y-88906360D01*
X97720000Y-87143640D01*
X97722274Y-87120547D01*
X97727219Y-87104247D01*
X97735249Y-87089225D01*
X97746056Y-87076056D01*
X97759225Y-87065249D01*
X97774247Y-87057219D01*
X97790547Y-87052274D01*
X97813640Y-87050000D01*
X98226360Y-87050000D01*
X98249453Y-87052274D01*
X98249453Y-87052274D01*
G37*
G36*
X96979453Y-87052274D02*
G01*
X96995753Y-87057219D01*
X97010775Y-87065249D01*
X97023944Y-87076056D01*
X97034751Y-87089225D01*
X97042781Y-87104247D01*
X97047726Y-87120547D01*
X97050000Y-87143640D01*
X97050000Y-88906360D01*
X97047726Y-88929453D01*
X97042781Y-88945753D01*
X97034751Y-88960775D01*
X97023944Y-88973944D01*
X97010775Y-88984751D01*
X96995753Y-88992781D01*
X96979453Y-88997726D01*
X96956360Y-89000000D01*
X96543640Y-89000000D01*
X96520547Y-88997726D01*
X96504247Y-88992781D01*
X96489225Y-88984751D01*
X96476056Y-88973944D01*
X96465249Y-88960775D01*
X96457219Y-88945753D01*
X96452274Y-88929453D01*
X96450000Y-88906360D01*
X96450000Y-87143640D01*
X96452274Y-87120547D01*
X96457219Y-87104247D01*
X96465249Y-87089225D01*
X96476056Y-87076056D01*
X96489225Y-87065249D01*
X96504247Y-87057219D01*
X96520547Y-87052274D01*
X96543640Y-87050000D01*
X96956360Y-87050000D01*
X96979453Y-87052274D01*
X96979453Y-87052274D01*
G37*
G36*
X95709453Y-87052274D02*
G01*
X95725753Y-87057219D01*
X95740775Y-87065249D01*
X95753944Y-87076056D01*
X95764751Y-87089225D01*
X95772781Y-87104247D01*
X95777726Y-87120547D01*
X95780000Y-87143640D01*
X95780000Y-88906360D01*
X95777726Y-88929453D01*
X95772781Y-88945753D01*
X95764751Y-88960775D01*
X95753944Y-88973944D01*
X95740775Y-88984751D01*
X95725753Y-88992781D01*
X95709453Y-88997726D01*
X95686360Y-89000000D01*
X95273640Y-89000000D01*
X95250547Y-88997726D01*
X95234247Y-88992781D01*
X95219225Y-88984751D01*
X95206056Y-88973944D01*
X95195249Y-88960775D01*
X95187219Y-88945753D01*
X95182274Y-88929453D01*
X95180000Y-88906360D01*
X95180000Y-87143640D01*
X95182274Y-87120547D01*
X95187219Y-87104247D01*
X95195249Y-87089225D01*
X95206056Y-87076056D01*
X95219225Y-87065249D01*
X95234247Y-87057219D01*
X95250547Y-87052274D01*
X95273640Y-87050000D01*
X95686360Y-87050000D01*
X95709453Y-87052274D01*
X95709453Y-87052274D01*
G37*
G36*
X179558471Y-87133859D02*
G01*
X179636827Y-87141576D01*
X179787628Y-87187321D01*
X179787630Y-87187322D01*
X179926605Y-87261606D01*
X180048422Y-87361578D01*
X180124178Y-87453887D01*
X180148393Y-87483394D01*
X180222679Y-87622372D01*
X180268424Y-87773173D01*
X180283870Y-87930000D01*
X180268424Y-88086827D01*
X180222928Y-88236807D01*
X180222678Y-88237630D01*
X180148394Y-88376605D01*
X180048422Y-88498422D01*
X179926605Y-88598394D01*
X179923600Y-88600000D01*
X179787628Y-88672679D01*
X179636827Y-88718424D01*
X179558471Y-88726141D01*
X179519294Y-88730000D01*
X178540706Y-88730000D01*
X178501529Y-88726141D01*
X178423173Y-88718424D01*
X178272372Y-88672679D01*
X178136400Y-88600000D01*
X178133395Y-88598394D01*
X178011578Y-88498422D01*
X177911606Y-88376605D01*
X177837322Y-88237630D01*
X177837072Y-88236807D01*
X177791576Y-88086827D01*
X177776130Y-87930000D01*
X177791576Y-87773173D01*
X177837321Y-87622372D01*
X177911607Y-87483394D01*
X177935823Y-87453887D01*
X178011578Y-87361578D01*
X178133395Y-87261606D01*
X178272370Y-87187322D01*
X178272372Y-87187321D01*
X178423173Y-87141576D01*
X178501529Y-87133859D01*
X178540706Y-87130000D01*
X179519294Y-87130000D01*
X179558471Y-87133859D01*
X179558471Y-87133859D01*
G37*
G36*
X187178471Y-87133859D02*
G01*
X187256827Y-87141576D01*
X187407628Y-87187321D01*
X187407630Y-87187322D01*
X187546605Y-87261606D01*
X187668422Y-87361578D01*
X187744178Y-87453887D01*
X187768393Y-87483394D01*
X187842679Y-87622372D01*
X187888424Y-87773173D01*
X187903870Y-87930000D01*
X187888424Y-88086827D01*
X187842928Y-88236807D01*
X187842678Y-88237630D01*
X187768394Y-88376605D01*
X187668422Y-88498422D01*
X187546605Y-88598394D01*
X187543600Y-88600000D01*
X187407628Y-88672679D01*
X187256827Y-88718424D01*
X187178471Y-88726141D01*
X187139294Y-88730000D01*
X186160706Y-88730000D01*
X186121529Y-88726141D01*
X186043173Y-88718424D01*
X185892372Y-88672679D01*
X185756400Y-88600000D01*
X185753395Y-88598394D01*
X185631578Y-88498422D01*
X185531606Y-88376605D01*
X185457322Y-88237630D01*
X185457072Y-88236807D01*
X185411576Y-88086827D01*
X185396130Y-87930000D01*
X185411576Y-87773173D01*
X185457321Y-87622372D01*
X185531607Y-87483394D01*
X185555823Y-87453887D01*
X185631578Y-87361578D01*
X185753395Y-87261606D01*
X185892370Y-87187322D01*
X185892372Y-87187321D01*
X186043173Y-87141576D01*
X186121529Y-87133859D01*
X186160706Y-87130000D01*
X187139294Y-87130000D01*
X187178471Y-87133859D01*
X187178471Y-87133859D01*
G37*
G36*
X196850000Y-88600000D02*
G01*
X195150000Y-88600000D01*
X195150000Y-86900000D01*
X196850000Y-86900000D01*
X196850000Y-88600000D01*
X196850000Y-88600000D01*
G37*
G36*
X111850000Y-88400000D02*
G01*
X110150000Y-88400000D01*
X110150000Y-85100000D01*
X111850000Y-85100000D01*
X111850000Y-88400000D01*
X111850000Y-88400000D01*
G37*
G36*
X105850000Y-88400000D02*
G01*
X104150000Y-88400000D01*
X104150000Y-85100000D01*
X105850000Y-85100000D01*
X105850000Y-88400000D01*
X105850000Y-88400000D01*
G37*
G36*
X108850000Y-88400000D02*
G01*
X107150000Y-88400000D01*
X107150000Y-85100000D01*
X108850000Y-85100000D01*
X108850000Y-88400000D01*
X108850000Y-88400000D01*
G37*
G36*
X123291282Y-86728782D02*
G01*
X123322302Y-86738193D01*
X123350898Y-86753477D01*
X123375957Y-86774043D01*
X123396523Y-86799102D01*
X123411807Y-86827698D01*
X123421218Y-86858718D01*
X123425000Y-86897123D01*
X123425000Y-88077877D01*
X123421218Y-88116282D01*
X123411807Y-88147302D01*
X123396523Y-88175898D01*
X123375957Y-88200957D01*
X123350898Y-88221523D01*
X123322302Y-88236807D01*
X123291282Y-88246218D01*
X123252877Y-88250000D01*
X120247123Y-88250000D01*
X120208718Y-88246218D01*
X120177698Y-88236807D01*
X120149102Y-88221523D01*
X120124043Y-88200957D01*
X120103477Y-88175898D01*
X120088193Y-88147302D01*
X120078782Y-88116282D01*
X120075000Y-88077877D01*
X120075000Y-86897123D01*
X120078782Y-86858718D01*
X120088193Y-86827698D01*
X120103477Y-86799102D01*
X120124043Y-86774043D01*
X120149102Y-86753477D01*
X120177698Y-86738193D01*
X120208718Y-86728782D01*
X120247123Y-86725000D01*
X123252877Y-86725000D01*
X123291282Y-86728782D01*
X123291282Y-86728782D01*
G37*
G36*
X93555522Y-86904039D02*
G01*
X93589057Y-86914212D01*
X93619956Y-86930728D01*
X93647043Y-86952957D01*
X93669272Y-86980044D01*
X93685788Y-87010943D01*
X93695961Y-87044478D01*
X93700000Y-87085487D01*
X93700000Y-87864513D01*
X93695961Y-87905522D01*
X93685788Y-87939057D01*
X93669272Y-87969956D01*
X93647043Y-87997043D01*
X93619956Y-88019272D01*
X93589057Y-88035788D01*
X93555522Y-88045961D01*
X93514513Y-88050000D01*
X92485487Y-88050000D01*
X92444478Y-88045961D01*
X92410943Y-88035788D01*
X92380044Y-88019272D01*
X92352957Y-87997043D01*
X92330728Y-87969956D01*
X92314212Y-87939057D01*
X92304039Y-87905522D01*
X92300000Y-87864513D01*
X92300000Y-87085487D01*
X92304039Y-87044478D01*
X92314212Y-87010943D01*
X92330728Y-86980044D01*
X92352957Y-86952957D01*
X92380044Y-86930728D01*
X92410943Y-86914212D01*
X92444478Y-86904039D01*
X92485487Y-86900000D01*
X93514513Y-86900000D01*
X93555522Y-86904039D01*
X93555522Y-86904039D01*
G37*
G36*
X243392893Y-84133678D02*
G01*
X243606333Y-84176134D01*
X243698703Y-84214395D01*
X243938460Y-84313705D01*
X244237369Y-84513430D01*
X244491570Y-84767631D01*
X244691295Y-85066540D01*
X244708305Y-85107606D01*
X244828866Y-85398667D01*
X244842922Y-85469331D01*
X244899000Y-85751252D01*
X244899000Y-86110748D01*
X244828866Y-86463332D01*
X244691295Y-86795460D01*
X244491570Y-87094369D01*
X244237369Y-87348570D01*
X243938460Y-87548295D01*
X243810276Y-87601390D01*
X243606333Y-87685866D01*
X243430040Y-87720933D01*
X243253748Y-87756000D01*
X242894252Y-87756000D01*
X242717960Y-87720933D01*
X242541667Y-87685866D01*
X242337724Y-87601390D01*
X242209540Y-87548295D01*
X241910631Y-87348570D01*
X241656430Y-87094369D01*
X241456705Y-86795460D01*
X241319134Y-86463332D01*
X241249000Y-86110748D01*
X241249000Y-85751252D01*
X241305078Y-85469331D01*
X241319134Y-85398667D01*
X241439695Y-85107606D01*
X241456705Y-85066540D01*
X241656430Y-84767631D01*
X241910631Y-84513430D01*
X242209540Y-84313705D01*
X242449297Y-84214395D01*
X242541667Y-84176134D01*
X242755107Y-84133678D01*
X242894252Y-84106000D01*
X243253748Y-84106000D01*
X243392893Y-84133678D01*
X243392893Y-84133678D01*
G37*
G36*
X136212860Y-84176044D02*
G01*
X136552166Y-84278972D01*
X136691358Y-84353372D01*
X136864865Y-84446113D01*
X136935611Y-84504173D01*
X137138951Y-84671049D01*
X137289972Y-84855070D01*
X137363887Y-84945135D01*
X137428779Y-85066540D01*
X137531028Y-85257834D01*
X137633956Y-85597140D01*
X137668709Y-85950000D01*
X137633956Y-86302860D01*
X137531028Y-86642166D01*
X137484184Y-86729804D01*
X137363887Y-86954865D01*
X137317730Y-87011107D01*
X137138951Y-87228951D01*
X136962325Y-87373903D01*
X136864865Y-87453887D01*
X136809659Y-87483395D01*
X136552166Y-87621028D01*
X136552163Y-87621029D01*
X136489005Y-87640188D01*
X136212860Y-87723956D01*
X135948427Y-87750000D01*
X135771573Y-87750000D01*
X135507140Y-87723956D01*
X135230995Y-87640188D01*
X135167837Y-87621029D01*
X135167834Y-87621028D01*
X134910341Y-87483395D01*
X134855135Y-87453887D01*
X134757675Y-87373903D01*
X134581049Y-87228951D01*
X134402270Y-87011107D01*
X134356113Y-86954865D01*
X134235816Y-86729804D01*
X134188972Y-86642166D01*
X134086044Y-86302860D01*
X134051291Y-85950000D01*
X134086044Y-85597140D01*
X134188972Y-85257834D01*
X134291221Y-85066540D01*
X134356113Y-84945135D01*
X134430028Y-84855070D01*
X134581049Y-84671049D01*
X134784389Y-84504173D01*
X134855135Y-84446113D01*
X135028642Y-84353372D01*
X135167834Y-84278972D01*
X135507140Y-84176044D01*
X135771573Y-84150000D01*
X135948427Y-84150000D01*
X136212860Y-84176044D01*
X136212860Y-84176044D01*
G37*
G36*
X58204637Y-76835784D02*
G01*
X58545953Y-76903676D01*
X58651403Y-76947355D01*
X59510490Y-77303200D01*
X60378552Y-77883221D01*
X61116779Y-78621448D01*
X61696800Y-79489510D01*
X61919686Y-80027605D01*
X62095873Y-80452957D01*
X62096324Y-80454048D01*
X62300000Y-81477994D01*
X62300000Y-82522006D01*
X62215981Y-82944395D01*
X62096324Y-83545953D01*
X62075927Y-83595196D01*
X61696800Y-84510490D01*
X61116779Y-85378552D01*
X60378552Y-86116779D01*
X59510490Y-86696800D01*
X59019921Y-86900000D01*
X58545953Y-87096324D01*
X58308079Y-87143640D01*
X57522006Y-87300000D01*
X56477994Y-87300000D01*
X55691921Y-87143640D01*
X55454047Y-87096324D01*
X54980079Y-86900000D01*
X54489510Y-86696800D01*
X53621448Y-86116779D01*
X52883221Y-85378552D01*
X52303200Y-84510490D01*
X51924073Y-83595196D01*
X51903676Y-83545953D01*
X51784019Y-82944395D01*
X51700000Y-82522006D01*
X51700000Y-81477994D01*
X51903676Y-80454048D01*
X51904128Y-80452957D01*
X52080314Y-80027605D01*
X52303200Y-79489510D01*
X52883221Y-78621448D01*
X53621448Y-77883221D01*
X54489510Y-77303200D01*
X55348597Y-76947355D01*
X55454047Y-76903676D01*
X55795363Y-76835784D01*
X56477994Y-76700000D01*
X57522006Y-76700000D01*
X58204637Y-76835784D01*
X58204637Y-76835784D01*
G37*
G36*
X117245041Y-84718086D02*
G01*
X117362856Y-84753825D01*
X117480669Y-84789563D01*
X117480671Y-84789564D01*
X117697822Y-84905633D01*
X117888160Y-85061840D01*
X118044367Y-85252178D01*
X118160436Y-85469329D01*
X118231914Y-85704959D01*
X118256048Y-85950000D01*
X118231914Y-86195041D01*
X118231913Y-86195043D01*
X118162157Y-86425000D01*
X118160436Y-86430671D01*
X118044367Y-86647822D01*
X117888160Y-86838160D01*
X117697822Y-86994367D01*
X117520354Y-87089225D01*
X117480669Y-87110437D01*
X117416178Y-87130000D01*
X117245041Y-87181914D01*
X117061409Y-87200000D01*
X114938591Y-87200000D01*
X114754959Y-87181914D01*
X114583822Y-87130000D01*
X114519331Y-87110437D01*
X114479646Y-87089225D01*
X114302178Y-86994367D01*
X114111840Y-86838160D01*
X113955633Y-86647822D01*
X113839564Y-86430671D01*
X113837844Y-86425000D01*
X113768087Y-86195043D01*
X113768086Y-86195041D01*
X113743952Y-85950000D01*
X113768086Y-85704959D01*
X113839564Y-85469329D01*
X113955633Y-85252178D01*
X114111840Y-85061840D01*
X114302178Y-84905633D01*
X114519329Y-84789564D01*
X114519331Y-84789563D01*
X114637144Y-84753825D01*
X114754959Y-84718086D01*
X114938591Y-84700000D01*
X117061409Y-84700000D01*
X117245041Y-84718086D01*
X117245041Y-84718086D01*
G37*
G36*
X126100000Y-86400000D02*
G01*
X124400000Y-86400000D01*
X124400000Y-83100000D01*
X126100000Y-83100000D01*
X126100000Y-86400000D01*
X126100000Y-86400000D01*
G37*
G36*
X237252471Y-83864859D02*
G01*
X237330827Y-83872576D01*
X237481628Y-83918321D01*
X237481630Y-83918322D01*
X237620605Y-83992606D01*
X237742422Y-84092578D01*
X237842394Y-84214395D01*
X237895477Y-84313706D01*
X237916679Y-84353372D01*
X237962424Y-84504173D01*
X237977870Y-84661000D01*
X237962424Y-84817827D01*
X237923805Y-84945136D01*
X237916678Y-84968630D01*
X237842394Y-85107605D01*
X237742422Y-85229422D01*
X237620605Y-85329394D01*
X237528637Y-85378552D01*
X237481628Y-85403679D01*
X237330827Y-85449424D01*
X237252471Y-85457141D01*
X237213294Y-85461000D01*
X236234706Y-85461000D01*
X236195529Y-85457141D01*
X236117173Y-85449424D01*
X235966372Y-85403679D01*
X235919363Y-85378552D01*
X235827395Y-85329394D01*
X235705578Y-85229422D01*
X235605606Y-85107605D01*
X235531322Y-84968630D01*
X235524195Y-84945136D01*
X235485576Y-84817827D01*
X235470130Y-84661000D01*
X235485576Y-84504173D01*
X235531321Y-84353372D01*
X235552523Y-84313706D01*
X235605606Y-84214395D01*
X235705578Y-84092578D01*
X235827395Y-83992606D01*
X235966370Y-83918322D01*
X235966372Y-83918321D01*
X236117173Y-83872576D01*
X236195529Y-83864859D01*
X236234706Y-83861000D01*
X237213294Y-83861000D01*
X237252471Y-83864859D01*
X237252471Y-83864859D01*
G37*
G36*
X234708606Y-82594478D02*
G01*
X234790827Y-82602576D01*
X234941628Y-82648321D01*
X234941630Y-82648322D01*
X235080605Y-82722606D01*
X235202422Y-82822578D01*
X235236153Y-82863679D01*
X235302393Y-82944394D01*
X235376679Y-83083372D01*
X235422424Y-83234173D01*
X235437870Y-83391000D01*
X235422424Y-83547827D01*
X235406597Y-83600000D01*
X235376678Y-83698630D01*
X235302394Y-83837605D01*
X235202422Y-83959422D01*
X235080605Y-84059394D01*
X234941630Y-84133678D01*
X234941628Y-84133679D01*
X234790827Y-84179424D01*
X234712471Y-84187141D01*
X234673294Y-84191000D01*
X233694706Y-84191000D01*
X233655529Y-84187141D01*
X233577173Y-84179424D01*
X233426372Y-84133679D01*
X233426370Y-84133678D01*
X233287395Y-84059394D01*
X233165578Y-83959422D01*
X233065606Y-83837605D01*
X232991322Y-83698630D01*
X232961403Y-83600000D01*
X232945576Y-83547827D01*
X232930130Y-83391000D01*
X232945576Y-83234173D01*
X232991321Y-83083372D01*
X233065607Y-82944394D01*
X233131848Y-82863679D01*
X233165578Y-82822578D01*
X233287395Y-82722606D01*
X233426370Y-82648322D01*
X233426372Y-82648321D01*
X233577173Y-82602576D01*
X233659394Y-82594478D01*
X233694706Y-82591000D01*
X234673294Y-82591000D01*
X234708606Y-82594478D01*
X234708606Y-82594478D01*
G37*
G36*
X111555522Y-82454039D02*
G01*
X111589057Y-82464212D01*
X111619956Y-82480728D01*
X111647043Y-82502957D01*
X111669272Y-82530044D01*
X111685788Y-82560943D01*
X111695961Y-82594478D01*
X111700000Y-82635487D01*
X111700000Y-83414513D01*
X111695961Y-83455522D01*
X111685788Y-83489057D01*
X111669272Y-83519956D01*
X111647043Y-83547043D01*
X111619956Y-83569272D01*
X111589057Y-83585788D01*
X111555522Y-83595961D01*
X111514513Y-83600000D01*
X110485487Y-83600000D01*
X110444478Y-83595961D01*
X110410943Y-83585788D01*
X110380044Y-83569272D01*
X110352957Y-83547043D01*
X110330728Y-83519956D01*
X110314212Y-83489057D01*
X110304039Y-83455522D01*
X110300000Y-83414513D01*
X110300000Y-82635487D01*
X110304039Y-82594478D01*
X110314212Y-82560943D01*
X110330728Y-82530044D01*
X110352957Y-82502957D01*
X110380044Y-82480728D01*
X110410943Y-82464212D01*
X110444478Y-82454039D01*
X110485487Y-82450000D01*
X111514513Y-82450000D01*
X111555522Y-82454039D01*
X111555522Y-82454039D01*
G37*
G36*
X237252471Y-81324859D02*
G01*
X237330827Y-81332576D01*
X237481628Y-81378321D01*
X237481630Y-81378322D01*
X237620605Y-81452606D01*
X237742422Y-81552578D01*
X237842394Y-81674395D01*
X237882806Y-81750000D01*
X237916679Y-81813372D01*
X237962424Y-81964173D01*
X237977870Y-82121000D01*
X237962424Y-82277827D01*
X237916679Y-82428628D01*
X237916678Y-82428630D01*
X237842394Y-82567605D01*
X237742422Y-82689422D01*
X237620605Y-82789394D01*
X237558522Y-82822578D01*
X237481628Y-82863679D01*
X237330827Y-82909424D01*
X237252471Y-82917141D01*
X237213294Y-82921000D01*
X236234706Y-82921000D01*
X236195529Y-82917141D01*
X236117173Y-82909424D01*
X235966372Y-82863679D01*
X235889478Y-82822578D01*
X235827395Y-82789394D01*
X235705578Y-82689422D01*
X235605606Y-82567605D01*
X235531322Y-82428630D01*
X235531321Y-82428628D01*
X235485576Y-82277827D01*
X235470130Y-82121000D01*
X235485576Y-81964173D01*
X235531321Y-81813372D01*
X235565194Y-81750000D01*
X235605606Y-81674395D01*
X235705578Y-81552578D01*
X235827395Y-81452606D01*
X235966370Y-81378322D01*
X235966372Y-81378321D01*
X236117173Y-81332576D01*
X236195529Y-81324859D01*
X236234706Y-81321000D01*
X237213294Y-81321000D01*
X237252471Y-81324859D01*
X237252471Y-81324859D01*
G37*
G36*
X108455522Y-81304039D02*
G01*
X108489057Y-81314212D01*
X108519956Y-81330728D01*
X108547043Y-81352957D01*
X108569272Y-81380044D01*
X108585788Y-81410943D01*
X108595961Y-81444478D01*
X108600000Y-81485487D01*
X108600000Y-82514513D01*
X108595961Y-82555522D01*
X108585788Y-82589057D01*
X108569272Y-82619956D01*
X108547043Y-82647043D01*
X108519956Y-82669272D01*
X108489057Y-82685788D01*
X108455522Y-82695961D01*
X108414513Y-82700000D01*
X107635487Y-82700000D01*
X107594478Y-82695961D01*
X107560943Y-82685788D01*
X107530044Y-82669272D01*
X107502957Y-82647043D01*
X107480728Y-82619956D01*
X107464212Y-82589057D01*
X107454039Y-82555522D01*
X107450000Y-82514513D01*
X107450000Y-81485487D01*
X107454039Y-81444478D01*
X107464212Y-81410943D01*
X107480728Y-81380044D01*
X107502957Y-81352957D01*
X107530044Y-81330728D01*
X107560943Y-81314212D01*
X107594478Y-81304039D01*
X107635487Y-81300000D01*
X108414513Y-81300000D01*
X108455522Y-81304039D01*
X108455522Y-81304039D01*
G37*
G36*
X106405522Y-81304039D02*
G01*
X106439057Y-81314212D01*
X106469956Y-81330728D01*
X106497043Y-81352957D01*
X106519272Y-81380044D01*
X106535788Y-81410943D01*
X106545961Y-81444478D01*
X106550000Y-81485487D01*
X106550000Y-82514513D01*
X106545961Y-82555522D01*
X106535788Y-82589057D01*
X106519272Y-82619956D01*
X106497043Y-82647043D01*
X106469956Y-82669272D01*
X106439057Y-82685788D01*
X106405522Y-82695961D01*
X106364513Y-82700000D01*
X105585487Y-82700000D01*
X105544478Y-82695961D01*
X105510943Y-82685788D01*
X105480044Y-82669272D01*
X105452957Y-82647043D01*
X105430728Y-82619956D01*
X105414212Y-82589057D01*
X105404039Y-82555522D01*
X105400000Y-82514513D01*
X105400000Y-81485487D01*
X105404039Y-81444478D01*
X105414212Y-81410943D01*
X105430728Y-81380044D01*
X105452957Y-81352957D01*
X105480044Y-81330728D01*
X105510943Y-81314212D01*
X105544478Y-81304039D01*
X105585487Y-81300000D01*
X106364513Y-81300000D01*
X106405522Y-81304039D01*
X106405522Y-81304039D01*
G37*
G36*
X123291282Y-80753782D02*
G01*
X123322302Y-80763193D01*
X123350898Y-80778477D01*
X123375957Y-80799043D01*
X123396523Y-80824102D01*
X123411807Y-80852698D01*
X123421218Y-80883718D01*
X123425000Y-80922123D01*
X123425000Y-82102877D01*
X123421218Y-82141282D01*
X123411807Y-82172302D01*
X123396523Y-82200898D01*
X123375957Y-82225957D01*
X123350898Y-82246523D01*
X123322302Y-82261807D01*
X123291282Y-82271218D01*
X123252877Y-82275000D01*
X120247123Y-82275000D01*
X120208718Y-82271218D01*
X120177698Y-82261807D01*
X120149102Y-82246523D01*
X120124043Y-82225957D01*
X120103477Y-82200898D01*
X120088193Y-82172302D01*
X120078782Y-82141282D01*
X120075000Y-82102877D01*
X120075000Y-80922123D01*
X120078782Y-80883718D01*
X120088193Y-80852698D01*
X120103477Y-80824102D01*
X120124043Y-80799043D01*
X120149102Y-80778477D01*
X120177698Y-80763193D01*
X120208718Y-80753782D01*
X120247123Y-80750000D01*
X123252877Y-80750000D01*
X123291282Y-80753782D01*
X123291282Y-80753782D01*
G37*
G36*
X118250000Y-81750000D02*
G01*
X113750000Y-81750000D01*
X113750000Y-79250000D01*
X118250000Y-79250000D01*
X118250000Y-81750000D01*
X118250000Y-81750000D01*
G37*
G36*
X234712471Y-80054859D02*
G01*
X234790827Y-80062576D01*
X234941628Y-80108321D01*
X234941630Y-80108322D01*
X235080605Y-80182606D01*
X235202422Y-80282578D01*
X235302394Y-80404395D01*
X235328934Y-80454048D01*
X235376679Y-80543372D01*
X235422424Y-80694173D01*
X235437870Y-80851000D01*
X235422424Y-81007827D01*
X235376679Y-81158628D01*
X235376678Y-81158630D01*
X235302394Y-81297605D01*
X235202422Y-81419422D01*
X235080605Y-81519394D01*
X234941630Y-81593678D01*
X234941628Y-81593679D01*
X234790827Y-81639424D01*
X234712471Y-81647141D01*
X234673294Y-81651000D01*
X233694706Y-81651000D01*
X233655529Y-81647141D01*
X233577173Y-81639424D01*
X233426372Y-81593679D01*
X233426370Y-81593678D01*
X233287395Y-81519394D01*
X233165578Y-81419422D01*
X233065606Y-81297605D01*
X232991322Y-81158630D01*
X232991321Y-81158628D01*
X232945576Y-81007827D01*
X232930130Y-80851000D01*
X232945576Y-80694173D01*
X232991321Y-80543372D01*
X233039066Y-80454048D01*
X233065606Y-80404395D01*
X233165578Y-80282578D01*
X233287395Y-80182606D01*
X233426370Y-80108322D01*
X233426372Y-80108321D01*
X233577173Y-80062576D01*
X233655529Y-80054859D01*
X233694706Y-80051000D01*
X234673294Y-80051000D01*
X234712471Y-80054859D01*
X234712471Y-80054859D01*
G37*
G36*
X111555522Y-80404039D02*
G01*
X111589057Y-80414212D01*
X111619956Y-80430728D01*
X111647043Y-80452957D01*
X111669272Y-80480044D01*
X111685788Y-80510943D01*
X111695961Y-80544478D01*
X111700000Y-80585487D01*
X111700000Y-81364513D01*
X111695961Y-81405522D01*
X111685788Y-81439057D01*
X111669272Y-81469956D01*
X111647043Y-81497043D01*
X111619956Y-81519272D01*
X111589057Y-81535788D01*
X111555522Y-81545961D01*
X111514513Y-81550000D01*
X110485487Y-81550000D01*
X110444478Y-81545961D01*
X110410943Y-81535788D01*
X110380044Y-81519272D01*
X110352957Y-81497043D01*
X110330728Y-81469956D01*
X110314212Y-81439057D01*
X110304039Y-81405522D01*
X110300000Y-81364513D01*
X110300000Y-80585487D01*
X110304039Y-80544478D01*
X110314212Y-80510943D01*
X110330728Y-80480044D01*
X110352957Y-80452957D01*
X110380044Y-80430728D01*
X110410943Y-80414212D01*
X110444478Y-80404039D01*
X110485487Y-80400000D01*
X111514513Y-80400000D01*
X111555522Y-80404039D01*
X111555522Y-80404039D01*
G37*
G36*
X237252471Y-78784859D02*
G01*
X237330827Y-78792576D01*
X237481628Y-78838321D01*
X237481630Y-78838322D01*
X237620605Y-78912606D01*
X237742422Y-79012578D01*
X237776153Y-79053679D01*
X237842393Y-79134394D01*
X237916679Y-79273372D01*
X237962424Y-79424173D01*
X237977870Y-79581000D01*
X237962424Y-79737827D01*
X237916679Y-79888628D01*
X237916678Y-79888630D01*
X237842394Y-80027605D01*
X237742422Y-80149422D01*
X237620605Y-80249394D01*
X237558522Y-80282578D01*
X237481628Y-80323679D01*
X237330827Y-80369424D01*
X237252471Y-80377141D01*
X237213294Y-80381000D01*
X236234706Y-80381000D01*
X236195529Y-80377141D01*
X236117173Y-80369424D01*
X235966372Y-80323679D01*
X235889478Y-80282578D01*
X235827395Y-80249394D01*
X235705578Y-80149422D01*
X235605606Y-80027605D01*
X235531322Y-79888630D01*
X235531321Y-79888628D01*
X235485576Y-79737827D01*
X235470130Y-79581000D01*
X235485576Y-79424173D01*
X235531321Y-79273372D01*
X235605607Y-79134394D01*
X235671848Y-79053679D01*
X235705578Y-79012578D01*
X235827395Y-78912606D01*
X235966370Y-78838322D01*
X235966372Y-78838321D01*
X236117173Y-78792576D01*
X236195529Y-78784859D01*
X236234706Y-78781000D01*
X237213294Y-78781000D01*
X237252471Y-78784859D01*
X237252471Y-78784859D01*
G37*
G36*
X234712471Y-77514859D02*
G01*
X234790827Y-77522576D01*
X234941628Y-77568321D01*
X234941630Y-77568322D01*
X235080605Y-77642606D01*
X235202422Y-77742578D01*
X235302394Y-77864395D01*
X235333795Y-77923142D01*
X235376679Y-78003372D01*
X235422424Y-78154173D01*
X235437870Y-78311000D01*
X235422424Y-78467827D01*
X235376679Y-78618628D01*
X235376678Y-78618630D01*
X235302394Y-78757605D01*
X235202422Y-78879422D01*
X235080605Y-78979394D01*
X235018522Y-79012578D01*
X234941628Y-79053679D01*
X234790827Y-79099424D01*
X234712471Y-79107141D01*
X234673294Y-79111000D01*
X233694706Y-79111000D01*
X233655529Y-79107141D01*
X233577173Y-79099424D01*
X233426372Y-79053679D01*
X233349478Y-79012578D01*
X233287395Y-78979394D01*
X233165578Y-78879422D01*
X233065606Y-78757605D01*
X232991322Y-78618630D01*
X232991321Y-78618628D01*
X232945576Y-78467827D01*
X232930130Y-78311000D01*
X232945576Y-78154173D01*
X232991321Y-78003372D01*
X233034205Y-77923142D01*
X233065606Y-77864395D01*
X233165578Y-77742578D01*
X233287395Y-77642606D01*
X233426370Y-77568322D01*
X233426372Y-77568321D01*
X233577173Y-77522576D01*
X233655529Y-77514859D01*
X233694706Y-77511000D01*
X234673294Y-77511000D01*
X234712471Y-77514859D01*
X234712471Y-77514859D01*
G37*
G36*
X83583377Y-74076858D02*
G01*
X83947353Y-74227622D01*
X83947355Y-74227623D01*
X84274926Y-74446499D01*
X84553501Y-74725074D01*
X84753907Y-75025002D01*
X84772378Y-75052647D01*
X84923142Y-75416623D01*
X85000000Y-75803016D01*
X85000000Y-76196984D01*
X84923142Y-76583377D01*
X84772378Y-76947353D01*
X84553502Y-77274925D01*
X84274925Y-77553502D01*
X84112251Y-77662197D01*
X83947355Y-77772377D01*
X83947354Y-77772378D01*
X83947353Y-77772378D01*
X83583377Y-77923142D01*
X83196984Y-78000000D01*
X82803016Y-78000000D01*
X82416623Y-77923142D01*
X82052647Y-77772378D01*
X82052646Y-77772378D01*
X82052645Y-77772377D01*
X81887749Y-77662197D01*
X81725075Y-77553502D01*
X81446498Y-77274925D01*
X81227622Y-76947353D01*
X81076858Y-76583377D01*
X81000000Y-76196984D01*
X81000000Y-75803016D01*
X81076858Y-75416623D01*
X81227622Y-75052647D01*
X81246094Y-75025002D01*
X81446499Y-74725074D01*
X81725074Y-74446499D01*
X82052645Y-74227623D01*
X82052647Y-74227622D01*
X82416623Y-74076858D01*
X82803016Y-74000000D01*
X83196984Y-74000000D01*
X83583377Y-74076858D01*
X83583377Y-74076858D01*
G37*
G36*
X237252471Y-76244859D02*
G01*
X237330827Y-76252576D01*
X237481628Y-76298321D01*
X237481630Y-76298322D01*
X237620605Y-76372606D01*
X237742422Y-76472578D01*
X237833353Y-76583378D01*
X237842393Y-76594394D01*
X237916679Y-76733372D01*
X237962424Y-76884173D01*
X237977870Y-77041000D01*
X237962424Y-77197827D01*
X237939036Y-77274926D01*
X237916678Y-77348630D01*
X237842394Y-77487605D01*
X237742422Y-77609422D01*
X237620605Y-77709394D01*
X237481630Y-77783678D01*
X237481628Y-77783679D01*
X237330827Y-77829424D01*
X237252471Y-77837141D01*
X237213294Y-77841000D01*
X236234706Y-77841000D01*
X236195529Y-77837141D01*
X236117173Y-77829424D01*
X235966372Y-77783679D01*
X235966370Y-77783678D01*
X235827395Y-77709394D01*
X235705578Y-77609422D01*
X235605606Y-77487605D01*
X235531322Y-77348630D01*
X235508964Y-77274926D01*
X235485576Y-77197827D01*
X235470130Y-77041000D01*
X235485576Y-76884173D01*
X235531321Y-76733372D01*
X235605607Y-76594394D01*
X235614648Y-76583378D01*
X235705578Y-76472578D01*
X235827395Y-76372606D01*
X235966370Y-76298322D01*
X235966372Y-76298321D01*
X236117173Y-76252576D01*
X236195529Y-76244859D01*
X236234706Y-76241000D01*
X237213294Y-76241000D01*
X237252471Y-76244859D01*
X237252471Y-76244859D01*
G37*
G36*
X234712471Y-74974859D02*
G01*
X234790827Y-74982576D01*
X234941628Y-75028321D01*
X234941630Y-75028322D01*
X235080605Y-75102606D01*
X235202422Y-75202578D01*
X235302394Y-75324395D01*
X235351691Y-75416623D01*
X235376679Y-75463372D01*
X235422424Y-75614173D01*
X235437870Y-75771000D01*
X235422424Y-75927827D01*
X235376679Y-76078628D01*
X235376678Y-76078630D01*
X235302394Y-76217605D01*
X235202422Y-76339422D01*
X235080605Y-76439394D01*
X235018522Y-76472578D01*
X234941628Y-76513679D01*
X234790827Y-76559424D01*
X234712471Y-76567141D01*
X234673294Y-76571000D01*
X233694706Y-76571000D01*
X233655529Y-76567141D01*
X233577173Y-76559424D01*
X233426372Y-76513679D01*
X233349478Y-76472578D01*
X233287395Y-76439394D01*
X233165578Y-76339422D01*
X233065606Y-76217605D01*
X232991322Y-76078630D01*
X232991321Y-76078628D01*
X232945576Y-75927827D01*
X232930130Y-75771000D01*
X232945576Y-75614173D01*
X232991321Y-75463372D01*
X233016309Y-75416623D01*
X233065606Y-75324395D01*
X233165578Y-75202578D01*
X233287395Y-75102606D01*
X233426370Y-75028322D01*
X233426372Y-75028321D01*
X233577173Y-74982576D01*
X233655529Y-74974859D01*
X233694706Y-74971000D01*
X234673294Y-74971000D01*
X234712471Y-74974859D01*
X234712471Y-74974859D01*
G37*
G36*
X243430040Y-72711067D02*
G01*
X243606333Y-72746134D01*
X243743904Y-72803118D01*
X243938460Y-72883705D01*
X244237369Y-73083430D01*
X244491570Y-73337631D01*
X244691295Y-73636540D01*
X244750236Y-73778837D01*
X244828866Y-73968667D01*
X244899000Y-74321253D01*
X244899000Y-74680747D01*
X244828866Y-75033333D01*
X244820866Y-75052647D01*
X244691295Y-75365460D01*
X244491570Y-75664369D01*
X244237369Y-75918570D01*
X243938460Y-76118295D01*
X243748489Y-76196983D01*
X243606333Y-76255866D01*
X243430040Y-76290933D01*
X243253748Y-76326000D01*
X242894252Y-76326000D01*
X242717960Y-76290933D01*
X242541667Y-76255866D01*
X242399511Y-76196983D01*
X242209540Y-76118295D01*
X241910631Y-75918570D01*
X241656430Y-75664369D01*
X241456705Y-75365460D01*
X241327134Y-75052647D01*
X241319134Y-75033333D01*
X241249000Y-74680747D01*
X241249000Y-74321253D01*
X241319134Y-73968667D01*
X241397764Y-73778837D01*
X241456705Y-73636540D01*
X241656430Y-73337631D01*
X241910631Y-73083430D01*
X242209540Y-72883705D01*
X242404096Y-72803118D01*
X242541667Y-72746134D01*
X242717960Y-72711067D01*
X242894252Y-72676000D01*
X243253748Y-72676000D01*
X243430040Y-72711067D01*
X243430040Y-72711067D01*
G37*
G36*
X105850000Y-75400000D02*
G01*
X104150000Y-75400000D01*
X104150000Y-72100000D01*
X105850000Y-72100000D01*
X105850000Y-75400000D01*
X105850000Y-75400000D01*
G37*
G36*
X111850000Y-75400000D02*
G01*
X110150000Y-75400000D01*
X110150000Y-72100000D01*
X111850000Y-72100000D01*
X111850000Y-75400000D01*
X111850000Y-75400000D01*
G37*
G36*
X108850000Y-75400000D02*
G01*
X107150000Y-75400000D01*
X107150000Y-72100000D01*
X108850000Y-72100000D01*
X108850000Y-75400000D01*
X108850000Y-75400000D01*
G37*
G36*
X123188964Y-73778837D02*
G01*
X123220525Y-73788412D01*
X123249620Y-73803963D01*
X123275115Y-73824885D01*
X123296037Y-73850380D01*
X123311588Y-73879475D01*
X123321163Y-73911036D01*
X123325000Y-73949998D01*
X123325000Y-75025002D01*
X123321163Y-75063964D01*
X123311588Y-75095525D01*
X123296037Y-75124620D01*
X123275115Y-75150115D01*
X123249620Y-75171037D01*
X123220525Y-75186588D01*
X123188964Y-75196163D01*
X123150002Y-75200000D01*
X120849998Y-75200000D01*
X120811036Y-75196163D01*
X120779475Y-75186588D01*
X120750380Y-75171037D01*
X120724885Y-75150115D01*
X120703963Y-75124620D01*
X120688412Y-75095525D01*
X120678837Y-75063964D01*
X120675000Y-75025002D01*
X120675000Y-73949998D01*
X120678837Y-73911036D01*
X120688412Y-73879475D01*
X120703963Y-73850380D01*
X120724885Y-73824885D01*
X120750380Y-73803963D01*
X120779475Y-73788412D01*
X120811036Y-73778837D01*
X120849998Y-73775000D01*
X123150002Y-73775000D01*
X123188964Y-73778837D01*
X123188964Y-73778837D01*
G37*
G36*
X117245041Y-71668086D02*
G01*
X117362856Y-71703825D01*
X117480669Y-71739563D01*
X117480671Y-71739564D01*
X117697822Y-71855633D01*
X117888160Y-72011840D01*
X118044367Y-72202178D01*
X118160436Y-72419329D01*
X118231914Y-72654959D01*
X118256048Y-72900000D01*
X118231914Y-73145041D01*
X118160436Y-73380671D01*
X118044367Y-73597822D01*
X117888160Y-73788160D01*
X117697822Y-73944367D01*
X117593739Y-74000000D01*
X117480669Y-74060437D01*
X117362856Y-74096175D01*
X117245041Y-74131914D01*
X117061409Y-74150000D01*
X114938591Y-74150000D01*
X114754959Y-74131914D01*
X114637144Y-74096175D01*
X114519331Y-74060437D01*
X114406261Y-74000000D01*
X114302178Y-73944367D01*
X114111840Y-73788160D01*
X113955633Y-73597822D01*
X113839564Y-73380671D01*
X113768086Y-73145041D01*
X113743952Y-72900000D01*
X113768086Y-72654959D01*
X113839564Y-72419329D01*
X113955633Y-72202178D01*
X114111840Y-72011840D01*
X114302178Y-71855633D01*
X114519329Y-71739564D01*
X114519331Y-71739563D01*
X114637144Y-71703825D01*
X114754959Y-71668086D01*
X114938591Y-71650000D01*
X117061409Y-71650000D01*
X117245041Y-71668086D01*
X117245041Y-71668086D01*
G37*
G36*
X240388610Y-71264036D02*
G01*
X240616095Y-71358264D01*
X240616097Y-71358265D01*
X240820828Y-71495062D01*
X240994938Y-71669172D01*
X241131736Y-71873905D01*
X241225964Y-72101390D01*
X241274000Y-72342884D01*
X241274000Y-72589116D01*
X241225964Y-72830610D01*
X241131736Y-73058095D01*
X241131735Y-73058097D01*
X240994938Y-73262828D01*
X240820828Y-73436938D01*
X240616097Y-73573735D01*
X240616096Y-73573736D01*
X240616095Y-73573736D01*
X240388610Y-73667964D01*
X240147116Y-73716000D01*
X239900884Y-73716000D01*
X239659390Y-73667964D01*
X239431905Y-73573736D01*
X239431904Y-73573736D01*
X239431903Y-73573735D01*
X239227172Y-73436938D01*
X239053062Y-73262828D01*
X238916265Y-73058097D01*
X238916264Y-73058095D01*
X238822036Y-72830610D01*
X238774000Y-72589116D01*
X238774000Y-72342884D01*
X238822036Y-72101390D01*
X238916264Y-71873905D01*
X239053062Y-71669172D01*
X239227172Y-71495062D01*
X239431903Y-71358265D01*
X239431905Y-71358264D01*
X239659390Y-71264036D01*
X239900884Y-71216000D01*
X240147116Y-71216000D01*
X240388610Y-71264036D01*
X240388610Y-71264036D01*
G37*
G36*
X126100000Y-73400000D02*
G01*
X124400000Y-73400000D01*
X124400000Y-70100000D01*
X126100000Y-70100000D01*
X126100000Y-73400000D01*
X126100000Y-73400000D01*
G37*
G36*
X123188964Y-70803837D02*
G01*
X123220525Y-70813412D01*
X123249620Y-70828963D01*
X123275115Y-70849885D01*
X123296037Y-70875380D01*
X123311588Y-70904475D01*
X123321163Y-70936036D01*
X123325000Y-70974998D01*
X123325000Y-72050002D01*
X123321163Y-72088964D01*
X123311588Y-72120525D01*
X123296037Y-72149620D01*
X123275115Y-72175115D01*
X123249620Y-72196037D01*
X123220525Y-72211588D01*
X123188964Y-72221163D01*
X123150002Y-72225000D01*
X120849998Y-72225000D01*
X120811036Y-72221163D01*
X120779475Y-72211588D01*
X120750380Y-72196037D01*
X120724885Y-72175115D01*
X120703963Y-72149620D01*
X120688412Y-72120525D01*
X120678837Y-72088964D01*
X120675000Y-72050002D01*
X120675000Y-70974998D01*
X120678837Y-70936036D01*
X120688412Y-70904475D01*
X120703963Y-70875380D01*
X120724885Y-70849885D01*
X120750380Y-70828963D01*
X120779475Y-70813412D01*
X120811036Y-70803837D01*
X120849998Y-70800000D01*
X123150002Y-70800000D01*
X123188964Y-70803837D01*
X123188964Y-70803837D01*
G37*
G36*
X108850000Y-69900000D02*
G01*
X107150000Y-69900000D01*
X107150000Y-66600000D01*
X108850000Y-66600000D01*
X108850000Y-69900000D01*
X108850000Y-69900000D01*
G37*
G36*
X111850000Y-69900000D02*
G01*
X110150000Y-69900000D01*
X110150000Y-66600000D01*
X111850000Y-66600000D01*
X111850000Y-69900000D01*
X111850000Y-69900000D01*
G37*
G36*
X105850000Y-69900000D02*
G01*
X104150000Y-69900000D01*
X104150000Y-66600000D01*
X105850000Y-66600000D01*
X105850000Y-69900000D01*
X105850000Y-69900000D01*
G37*
G36*
X123287002Y-68228884D02*
G01*
X123319027Y-68238599D01*
X123348534Y-68254371D01*
X123374401Y-68275599D01*
X123395629Y-68301466D01*
X123411401Y-68330973D01*
X123421116Y-68362998D01*
X123425000Y-68402436D01*
X123425000Y-69397564D01*
X123421116Y-69437002D01*
X123411401Y-69469027D01*
X123395629Y-69498534D01*
X123374401Y-69524401D01*
X123348534Y-69545629D01*
X123319027Y-69561401D01*
X123287002Y-69571116D01*
X123247564Y-69575000D01*
X120252436Y-69575000D01*
X120212998Y-69571116D01*
X120180973Y-69561401D01*
X120151466Y-69545629D01*
X120125599Y-69524401D01*
X120104371Y-69498534D01*
X120088599Y-69469027D01*
X120078884Y-69437002D01*
X120075000Y-69397564D01*
X120075000Y-68402436D01*
X120078884Y-68362998D01*
X120088599Y-68330973D01*
X120104371Y-68301466D01*
X120125599Y-68275599D01*
X120151466Y-68254371D01*
X120180973Y-68238599D01*
X120212998Y-68228884D01*
X120252436Y-68225000D01*
X123247564Y-68225000D01*
X123287002Y-68228884D01*
X123287002Y-68228884D01*
G37*
G36*
X136212860Y-65676044D02*
G01*
X136552166Y-65778972D01*
X136694535Y-65855070D01*
X136864865Y-65946113D01*
X136950024Y-66016002D01*
X137138951Y-66171049D01*
X137293998Y-66359976D01*
X137363887Y-66445135D01*
X137415819Y-66542294D01*
X137531028Y-66757834D01*
X137633956Y-67097140D01*
X137668709Y-67450000D01*
X137633956Y-67802860D01*
X137531028Y-68142166D01*
X137528004Y-68147823D01*
X137363887Y-68454865D01*
X137347363Y-68474999D01*
X137138951Y-68728951D01*
X136950024Y-68883998D01*
X136864865Y-68953887D01*
X136717997Y-69032389D01*
X136552166Y-69121028D01*
X136212860Y-69223956D01*
X135948427Y-69250000D01*
X135771573Y-69250000D01*
X135507140Y-69223956D01*
X135167834Y-69121028D01*
X135002003Y-69032389D01*
X134855135Y-68953887D01*
X134769976Y-68883998D01*
X134581049Y-68728951D01*
X134372637Y-68474999D01*
X134356113Y-68454865D01*
X134191996Y-68147823D01*
X134188972Y-68142166D01*
X134086044Y-67802860D01*
X134051291Y-67450000D01*
X134086044Y-67097140D01*
X134188972Y-66757834D01*
X134304181Y-66542294D01*
X134356113Y-66445135D01*
X134426002Y-66359976D01*
X134581049Y-66171049D01*
X134769976Y-66016002D01*
X134855135Y-65946113D01*
X135025465Y-65855070D01*
X135167834Y-65778972D01*
X135507140Y-65676044D01*
X135771573Y-65650000D01*
X135948427Y-65650000D01*
X136212860Y-65676044D01*
X136212860Y-65676044D01*
G37*
G36*
X117245041Y-66218086D02*
G01*
X117328671Y-66243455D01*
X117480669Y-66289563D01*
X117480671Y-66289564D01*
X117697822Y-66405633D01*
X117888160Y-66561840D01*
X118044367Y-66752178D01*
X118160436Y-66969329D01*
X118231914Y-67204959D01*
X118256048Y-67450000D01*
X118231914Y-67695041D01*
X118160436Y-67930671D01*
X118044367Y-68147822D01*
X117888160Y-68338160D01*
X117697822Y-68494367D01*
X117480671Y-68610436D01*
X117480669Y-68610437D01*
X117362856Y-68646175D01*
X117245041Y-68681914D01*
X117061409Y-68700000D01*
X114938591Y-68700000D01*
X114754959Y-68681914D01*
X114637144Y-68646175D01*
X114519331Y-68610437D01*
X114519329Y-68610436D01*
X114302178Y-68494367D01*
X114111840Y-68338160D01*
X113955633Y-68147822D01*
X113839564Y-67930671D01*
X113768086Y-67695041D01*
X113743952Y-67450000D01*
X113768086Y-67204959D01*
X113839564Y-66969329D01*
X113955633Y-66752178D01*
X114111840Y-66561840D01*
X114302178Y-66405633D01*
X114519329Y-66289564D01*
X114519331Y-66289563D01*
X114671329Y-66243455D01*
X114754959Y-66218086D01*
X114938591Y-66200000D01*
X117061409Y-66200000D01*
X117245041Y-66218086D01*
X117245041Y-66218086D01*
G37*
G36*
X58033978Y-57801839D02*
G01*
X58545953Y-57903677D01*
X59510491Y-58303202D01*
X60378552Y-58883222D01*
X61116778Y-59621448D01*
X61687844Y-60476109D01*
X61696799Y-60489511D01*
X61737609Y-60588036D01*
X62096323Y-61454047D01*
X62185832Y-61904039D01*
X62299999Y-62477994D01*
X62299999Y-63522006D01*
X62252380Y-63761401D01*
X62096323Y-64545953D01*
X61872716Y-65085788D01*
X61717211Y-65461211D01*
X61696798Y-65510491D01*
X61116778Y-66378552D01*
X60378552Y-67116778D01*
X59510491Y-67696798D01*
X58545953Y-68096323D01*
X58033979Y-68198161D01*
X57522006Y-68299999D01*
X56477994Y-68299999D01*
X55966021Y-68198161D01*
X55454047Y-68096323D01*
X54489509Y-67696798D01*
X53621448Y-67116778D01*
X52883222Y-66378552D01*
X52303202Y-65510491D01*
X52282790Y-65461211D01*
X52127284Y-65085788D01*
X51903677Y-64545953D01*
X51747620Y-63761401D01*
X51700001Y-63522006D01*
X51700001Y-62477994D01*
X51814168Y-61904039D01*
X51903677Y-61454047D01*
X52262391Y-60588036D01*
X52303201Y-60489511D01*
X52312156Y-60476109D01*
X52883222Y-59621448D01*
X53621448Y-58883222D01*
X54489509Y-58303202D01*
X55454047Y-57903677D01*
X55966022Y-57801839D01*
X56477994Y-57700001D01*
X57522006Y-57700001D01*
X58033978Y-57801839D01*
X58033978Y-57801839D01*
G37*
G36*
X85000000Y-68000000D02*
G01*
X81000000Y-68000000D01*
X81000000Y-64000000D01*
X85000000Y-64000000D01*
X85000000Y-68000000D01*
X85000000Y-68000000D01*
G37*
G36*
X126100000Y-67900000D02*
G01*
X124400000Y-67900000D01*
X124400000Y-64600000D01*
X126100000Y-64600000D01*
X126100000Y-67900000D01*
X126100000Y-67900000D01*
G37*
G36*
X111555522Y-63954039D02*
G01*
X111589057Y-63964212D01*
X111619956Y-63980728D01*
X111647043Y-64002957D01*
X111669272Y-64030044D01*
X111685788Y-64060943D01*
X111695961Y-64094478D01*
X111700000Y-64135487D01*
X111700000Y-64914513D01*
X111695961Y-64955522D01*
X111685788Y-64989057D01*
X111669272Y-65019956D01*
X111647043Y-65047043D01*
X111619956Y-65069272D01*
X111589057Y-65085788D01*
X111555522Y-65095961D01*
X111514513Y-65100000D01*
X110485487Y-65100000D01*
X110444478Y-65095961D01*
X110410943Y-65085788D01*
X110380044Y-65069272D01*
X110352957Y-65047043D01*
X110330728Y-65019956D01*
X110314212Y-64989057D01*
X110304039Y-64955522D01*
X110300000Y-64914513D01*
X110300000Y-64135487D01*
X110304039Y-64094478D01*
X110314212Y-64060943D01*
X110330728Y-64030044D01*
X110352957Y-64002957D01*
X110380044Y-63980728D01*
X110410943Y-63964212D01*
X110444478Y-63954039D01*
X110485487Y-63950000D01*
X111514513Y-63950000D01*
X111555522Y-63954039D01*
X111555522Y-63954039D01*
G37*
G36*
X106405522Y-62804039D02*
G01*
X106439057Y-62814212D01*
X106469956Y-62830728D01*
X106497043Y-62852957D01*
X106519272Y-62880044D01*
X106535788Y-62910943D01*
X106545961Y-62944478D01*
X106550000Y-62985487D01*
X106550000Y-64014513D01*
X106545961Y-64055522D01*
X106535788Y-64089057D01*
X106519272Y-64119956D01*
X106497043Y-64147043D01*
X106469956Y-64169272D01*
X106439057Y-64185788D01*
X106405522Y-64195961D01*
X106364513Y-64200000D01*
X105585487Y-64200000D01*
X105544478Y-64195961D01*
X105510943Y-64185788D01*
X105480044Y-64169272D01*
X105452957Y-64147043D01*
X105430728Y-64119956D01*
X105414212Y-64089057D01*
X105404039Y-64055522D01*
X105400000Y-64014513D01*
X105400000Y-62985487D01*
X105404039Y-62944478D01*
X105414212Y-62910943D01*
X105430728Y-62880044D01*
X105452957Y-62852957D01*
X105480044Y-62830728D01*
X105510943Y-62814212D01*
X105544478Y-62804039D01*
X105585487Y-62800000D01*
X106364513Y-62800000D01*
X106405522Y-62804039D01*
X106405522Y-62804039D01*
G37*
G36*
X108455522Y-62804039D02*
G01*
X108489057Y-62814212D01*
X108519956Y-62830728D01*
X108547043Y-62852957D01*
X108569272Y-62880044D01*
X108585788Y-62910943D01*
X108595961Y-62944478D01*
X108600000Y-62985487D01*
X108600000Y-64014513D01*
X108595961Y-64055522D01*
X108585788Y-64089057D01*
X108569272Y-64119956D01*
X108547043Y-64147043D01*
X108519956Y-64169272D01*
X108489057Y-64185788D01*
X108455522Y-64195961D01*
X108414513Y-64200000D01*
X107635487Y-64200000D01*
X107594478Y-64195961D01*
X107560943Y-64185788D01*
X107530044Y-64169272D01*
X107502957Y-64147043D01*
X107480728Y-64119956D01*
X107464212Y-64089057D01*
X107454039Y-64055522D01*
X107450000Y-64014513D01*
X107450000Y-62985487D01*
X107454039Y-62944478D01*
X107464212Y-62910943D01*
X107480728Y-62880044D01*
X107502957Y-62852957D01*
X107530044Y-62830728D01*
X107560943Y-62814212D01*
X107594478Y-62804039D01*
X107635487Y-62800000D01*
X108414513Y-62800000D01*
X108455522Y-62804039D01*
X108455522Y-62804039D01*
G37*
G36*
X123287002Y-62428884D02*
G01*
X123319027Y-62438599D01*
X123348534Y-62454371D01*
X123374401Y-62475599D01*
X123395629Y-62501466D01*
X123411401Y-62530973D01*
X123421116Y-62562998D01*
X123425000Y-62602436D01*
X123425000Y-63597564D01*
X123421116Y-63637002D01*
X123411401Y-63669027D01*
X123395629Y-63698534D01*
X123374401Y-63724401D01*
X123348534Y-63745629D01*
X123319027Y-63761401D01*
X123287002Y-63771116D01*
X123247564Y-63775000D01*
X120252436Y-63775000D01*
X120212998Y-63771116D01*
X120180973Y-63761401D01*
X120151466Y-63745629D01*
X120125599Y-63724401D01*
X120104371Y-63698534D01*
X120088599Y-63669027D01*
X120078884Y-63637002D01*
X120075000Y-63597564D01*
X120075000Y-62602436D01*
X120078884Y-62562998D01*
X120088599Y-62530973D01*
X120104371Y-62501466D01*
X120125599Y-62475599D01*
X120151466Y-62454371D01*
X120180973Y-62438599D01*
X120212998Y-62428884D01*
X120252436Y-62425000D01*
X123247564Y-62425000D01*
X123287002Y-62428884D01*
X123287002Y-62428884D01*
G37*
G36*
X118250000Y-63250000D02*
G01*
X113750000Y-63250000D01*
X113750000Y-60750000D01*
X118250000Y-60750000D01*
X118250000Y-63250000D01*
X118250000Y-63250000D01*
G37*
G36*
X111555522Y-61904039D02*
G01*
X111589057Y-61914212D01*
X111619956Y-61930728D01*
X111647043Y-61952957D01*
X111669272Y-61980044D01*
X111685788Y-62010943D01*
X111695961Y-62044478D01*
X111700000Y-62085487D01*
X111700000Y-62864513D01*
X111695961Y-62905522D01*
X111685788Y-62939057D01*
X111669272Y-62969956D01*
X111647043Y-62997043D01*
X111619956Y-63019272D01*
X111589057Y-63035788D01*
X111555522Y-63045961D01*
X111514513Y-63050000D01*
X110485487Y-63050000D01*
X110444478Y-63045961D01*
X110410943Y-63035788D01*
X110380044Y-63019272D01*
X110352957Y-62997043D01*
X110330728Y-62969956D01*
X110314212Y-62939057D01*
X110304039Y-62905522D01*
X110300000Y-62864513D01*
X110300000Y-62085487D01*
X110304039Y-62044478D01*
X110314212Y-62010943D01*
X110330728Y-61980044D01*
X110352957Y-61952957D01*
X110380044Y-61930728D01*
X110410943Y-61914212D01*
X110444478Y-61904039D01*
X110485487Y-61900000D01*
X111514513Y-61900000D01*
X111555522Y-61904039D01*
X111555522Y-61904039D01*
G37*
M02*
