G04 #@! TF.GenerationSoftware,KiCad,Pcbnew,5.1.4*
G04 #@! TF.CreationDate,2019-10-29T22:35:46-03:00*
G04 #@! TF.ProjectId,MCB19_panel,4d434231-395f-4706-916e-656c2e6b6963,rev?*
G04 #@! TF.SameCoordinates,Original*
G04 #@! TF.FileFunction,Other,User*
%FSLAX46Y46*%
G04 Gerber Fmt 4.6, Leading zero omitted, Abs format (unit mm)*
G04 Created by KiCad (PCBNEW 5.1.4) date 2019-10-29 22:35:46*
%MOMM*%
%LPD*%
G04 APERTURE LIST*
%ADD10C,0.050000*%
G04 APERTURE END LIST*
D10*
X60180000Y-142360000D02*
G75*
G03X60180000Y-142360000I-5550000J0D01*
G01*
X60180000Y-161860000D02*
G75*
G03X60180000Y-161860000I-5550000J0D01*
G01*
X121300000Y-130180000D02*
X117460000Y-130180000D01*
X117460000Y-130180000D02*
X117460000Y-122540000D01*
X117460000Y-122540000D02*
X121300000Y-122540000D01*
X121300000Y-122540000D02*
X121300000Y-130180000D01*
X121300000Y-148860000D02*
X117460000Y-148860000D01*
X117460000Y-148860000D02*
X117460000Y-140860000D01*
X117460000Y-140860000D02*
X121300000Y-140860000D01*
X121300000Y-140860000D02*
X121300000Y-148860000D01*
X193526000Y-164344000D02*
X193526000Y-152444000D01*
X187926000Y-164344000D02*
X193526000Y-164344000D01*
X187926000Y-152444000D02*
X187926000Y-164344000D01*
X193526000Y-152444000D02*
X187926000Y-152444000D01*
X198564000Y-158676000D02*
X198564000Y-170576000D01*
X204164000Y-158676000D02*
X198564000Y-158676000D01*
X204164000Y-170576000D02*
X204164000Y-158676000D01*
X198564000Y-170576000D02*
X204164000Y-170576000D01*
X195430000Y-171020000D02*
X191830000Y-171020000D01*
X195430000Y-182220000D02*
X195430000Y-171020000D01*
X191830000Y-182220000D02*
X195430000Y-182220000D01*
X191830000Y-171020000D02*
X191830000Y-182220000D01*
X251634000Y-153417000D02*
X251634000Y-169437000D01*
X251634000Y-153416000D02*
X230298000Y-153416000D01*
X230298000Y-169436000D02*
X251634000Y-169437000D01*
X230298000Y-169436000D02*
X230298000Y-153416000D01*
X251630000Y-132562000D02*
X251630000Y-148582000D01*
X251630000Y-132561000D02*
X230294000Y-132561000D01*
X230294000Y-148581000D02*
X251630000Y-148582000D01*
X230294000Y-148581000D02*
X230294000Y-132561000D01*
X175130000Y-182910000D02*
X185830000Y-182910000D01*
X175130000Y-146660000D02*
X175130000Y-182910000D01*
X185830000Y-146660000D02*
X175130000Y-146660000D01*
X185830000Y-182910000D02*
X185830000Y-146660000D01*
X191830000Y-152410000D02*
X191830000Y-146310000D01*
X195380000Y-152410000D02*
X191830000Y-152410000D01*
X195380000Y-146310000D02*
X195380000Y-152410000D01*
X191830000Y-146310000D02*
X195380000Y-146310000D01*
X91580000Y-150710000D02*
X89680000Y-150710000D01*
X89680000Y-150710000D02*
X89680000Y-147010000D01*
X89680000Y-147010000D02*
X91580000Y-147010000D01*
X91580000Y-147010000D02*
X91580000Y-150710000D01*
X98380000Y-131360000D02*
G75*
G03X98380000Y-131360000I-17750000J0D01*
G01*
X90130000Y-171860000D02*
G75*
G03X90130000Y-171860000I-6500000J0D01*
G01*
X85280000Y-151940000D02*
X88980000Y-151940000D01*
X88980000Y-151940000D02*
X88980000Y-159780000D01*
X88980000Y-159780000D02*
X85280000Y-159780000D01*
X85280000Y-159780000D02*
X85280000Y-151940000D01*
X89680000Y-151510000D02*
X91580000Y-151510000D01*
X91580000Y-151510000D02*
X91580000Y-155210000D01*
X91580000Y-155210000D02*
X89680000Y-155210000D01*
X89680000Y-155210000D02*
X89680000Y-151510000D01*
X84730000Y-150210000D02*
X84730000Y-159510000D01*
X84730000Y-159510000D02*
X82530000Y-159510000D01*
X82530000Y-159510000D02*
X82530000Y-150210000D01*
X82530000Y-150210000D02*
X84730000Y-150210000D01*
X103730000Y-126710000D02*
X103730000Y-136010000D01*
X103730000Y-136010000D02*
X101530000Y-136010000D01*
X101530000Y-136010000D02*
X101530000Y-126710000D01*
X101530000Y-126710000D02*
X103730000Y-126710000D01*
X121780000Y-134010000D02*
X121780000Y-124710000D01*
X121780000Y-124710000D02*
X123980000Y-124710000D01*
X123980000Y-124710000D02*
X123980000Y-134010000D01*
X123980000Y-134010000D02*
X121780000Y-134010000D01*
X123980000Y-152510000D02*
X121780000Y-152510000D01*
X123980000Y-143210000D02*
X123980000Y-152510000D01*
X121780000Y-143210000D02*
X123980000Y-143210000D01*
X121780000Y-152510000D02*
X121780000Y-143210000D01*
X104530000Y-154510000D02*
X104530000Y-145210000D01*
X104530000Y-145210000D02*
X106730000Y-145210000D01*
X106730000Y-145210000D02*
X106730000Y-154510000D01*
X106730000Y-154510000D02*
X104530000Y-154510000D01*
X109730000Y-154510000D02*
X107530000Y-154510000D01*
X109730000Y-145210000D02*
X109730000Y-154510000D01*
X107530000Y-145210000D02*
X109730000Y-145210000D01*
X107530000Y-154510000D02*
X107530000Y-145210000D01*
X104530000Y-136010000D02*
X104530000Y-126710000D01*
X104530000Y-126710000D02*
X106730000Y-126710000D01*
X106730000Y-126710000D02*
X106730000Y-136010000D01*
X106730000Y-136010000D02*
X104530000Y-136010000D01*
X107530000Y-136010000D02*
X107530000Y-126710000D01*
X107530000Y-126710000D02*
X109730000Y-126710000D01*
X109730000Y-126710000D02*
X109730000Y-136010000D01*
X109730000Y-136010000D02*
X107530000Y-136010000D01*
X60180000Y-123360000D02*
G75*
G03X60180000Y-123360000I-5550000J0D01*
G01*
X103630000Y-171860000D02*
G75*
G03X103630000Y-171860000I-6500000J0D01*
G01*
X103730000Y-145210000D02*
X103730000Y-154510000D01*
X103730000Y-154510000D02*
X101530000Y-154510000D01*
X101530000Y-154510000D02*
X101530000Y-145210000D01*
X101530000Y-145210000D02*
X103730000Y-145210000D01*
X109580000Y-125710000D02*
X107680000Y-125710000D01*
X107680000Y-125710000D02*
X107680000Y-122010000D01*
X107680000Y-122010000D02*
X109580000Y-122010000D01*
X109580000Y-122010000D02*
X109580000Y-125710000D01*
X60180000Y-179860000D02*
G75*
G03X60180000Y-179860000I-5550000J0D01*
G01*
X76130000Y-171860000D02*
G75*
G03X76130000Y-171860000I-6500000J0D01*
G01*
X106480000Y-141410000D02*
X106480000Y-143310000D01*
X106480000Y-143310000D02*
X102780000Y-143310000D01*
X102780000Y-143310000D02*
X102780000Y-141410000D01*
X102780000Y-141410000D02*
X106480000Y-141410000D01*
X106480000Y-122910000D02*
X106480000Y-124810000D01*
X106480000Y-124810000D02*
X102780000Y-124810000D01*
X102780000Y-124810000D02*
X102780000Y-122910000D01*
X102780000Y-122910000D02*
X106480000Y-122910000D01*
X117380000Y-171860000D02*
G75*
G03X117380000Y-171860000I-6500000J0D01*
G01*
X118050000Y-149410000D02*
X121210000Y-149410000D01*
X121210000Y-149410000D02*
X121210000Y-154310000D01*
X121210000Y-154310000D02*
X118050000Y-154310000D01*
X118050000Y-154310000D02*
X118050000Y-149410000D01*
X93455000Y-155910000D02*
X93455000Y-157810000D01*
X93455000Y-157810000D02*
X89755000Y-157810000D01*
X89755000Y-157810000D02*
X89755000Y-155910000D01*
X89755000Y-155910000D02*
X93455000Y-155910000D01*
X97715000Y-147160000D02*
X92315000Y-147160000D01*
X92315000Y-147160000D02*
X92315000Y-154560000D01*
X92315000Y-154560000D02*
X97715000Y-154560000D01*
X97715000Y-154560000D02*
X97715000Y-147160000D01*
X118050000Y-130910000D02*
X121210000Y-130910000D01*
X121210000Y-130910000D02*
X121210000Y-135810000D01*
X121210000Y-135810000D02*
X118050000Y-135810000D01*
X118050000Y-135810000D02*
X118050000Y-130910000D01*
X109580000Y-144210000D02*
X107680000Y-144210000D01*
X107680000Y-144210000D02*
X107680000Y-140510000D01*
X107680000Y-140510000D02*
X109580000Y-140510000D01*
X109580000Y-140510000D02*
X109580000Y-144210000D01*
X121300000Y-50860000D02*
X121300000Y-58860000D01*
X117460000Y-50860000D02*
X121300000Y-50860000D01*
X117460000Y-58860000D02*
X117460000Y-50860000D01*
X121300000Y-58860000D02*
X117460000Y-58860000D01*
X121300000Y-32540000D02*
X121300000Y-40180000D01*
X117460000Y-32540000D02*
X121300000Y-32540000D01*
X117460000Y-40180000D02*
X117460000Y-32540000D01*
X121300000Y-40180000D02*
X117460000Y-40180000D01*
X118050000Y-45810000D02*
X118050000Y-40910000D01*
X121210000Y-45810000D02*
X118050000Y-45810000D01*
X121210000Y-40910000D02*
X121210000Y-45810000D01*
X118050000Y-40910000D02*
X121210000Y-40910000D01*
X118050000Y-64310000D02*
X118050000Y-59410000D01*
X121210000Y-64310000D02*
X118050000Y-64310000D01*
X121210000Y-59410000D02*
X121210000Y-64310000D01*
X118050000Y-59410000D02*
X121210000Y-59410000D01*
X76130000Y-81860000D02*
G75*
G03X76130000Y-81860000I-6500000J0D01*
G01*
X60180000Y-89860000D02*
G75*
G03X60180000Y-89860000I-5550000J0D01*
G01*
X101530000Y-55210000D02*
X103730000Y-55210000D01*
X101530000Y-64510000D02*
X101530000Y-55210000D01*
X103730000Y-64510000D02*
X101530000Y-64510000D01*
X103730000Y-55210000D02*
X103730000Y-64510000D01*
X103630000Y-81860000D02*
G75*
G03X103630000Y-81860000I-6500000J0D01*
G01*
X117380000Y-81860000D02*
G75*
G03X117380000Y-81860000I-6500000J0D01*
G01*
X97715000Y-64560000D02*
X97715000Y-57160000D01*
X92315000Y-64560000D02*
X97715000Y-64560000D01*
X92315000Y-57160000D02*
X92315000Y-64560000D01*
X97715000Y-57160000D02*
X92315000Y-57160000D01*
X109580000Y-32010000D02*
X109580000Y-35710000D01*
X107680000Y-32010000D02*
X109580000Y-32010000D01*
X107680000Y-35710000D02*
X107680000Y-32010000D01*
X109580000Y-35710000D02*
X107680000Y-35710000D01*
X109580000Y-50510000D02*
X109580000Y-54210000D01*
X107680000Y-50510000D02*
X109580000Y-50510000D01*
X107680000Y-54210000D02*
X107680000Y-50510000D01*
X109580000Y-54210000D02*
X107680000Y-54210000D01*
X102780000Y-32910000D02*
X106480000Y-32910000D01*
X102780000Y-34810000D02*
X102780000Y-32910000D01*
X106480000Y-34810000D02*
X102780000Y-34810000D01*
X106480000Y-32910000D02*
X106480000Y-34810000D01*
X102780000Y-51410000D02*
X106480000Y-51410000D01*
X102780000Y-53310000D02*
X102780000Y-51410000D01*
X106480000Y-53310000D02*
X102780000Y-53310000D01*
X106480000Y-51410000D02*
X106480000Y-53310000D01*
X89755000Y-65910000D02*
X93455000Y-65910000D01*
X89755000Y-67810000D02*
X89755000Y-65910000D01*
X93455000Y-67810000D02*
X89755000Y-67810000D01*
X93455000Y-65910000D02*
X93455000Y-67810000D01*
X60180000Y-71860000D02*
G75*
G03X60180000Y-71860000I-5550000J0D01*
G01*
X60180000Y-52360000D02*
G75*
G03X60180000Y-52360000I-5550000J0D01*
G01*
X60180000Y-33360000D02*
G75*
G03X60180000Y-33360000I-5550000J0D01*
G01*
X109730000Y-46010000D02*
X107530000Y-46010000D01*
X109730000Y-36710000D02*
X109730000Y-46010000D01*
X107530000Y-36710000D02*
X109730000Y-36710000D01*
X107530000Y-46010000D02*
X107530000Y-36710000D01*
X106730000Y-46010000D02*
X104530000Y-46010000D01*
X106730000Y-36710000D02*
X106730000Y-46010000D01*
X104530000Y-36710000D02*
X106730000Y-36710000D01*
X104530000Y-46010000D02*
X104530000Y-36710000D01*
X107530000Y-64510000D02*
X107530000Y-55210000D01*
X107530000Y-55210000D02*
X109730000Y-55210000D01*
X109730000Y-55210000D02*
X109730000Y-64510000D01*
X109730000Y-64510000D02*
X107530000Y-64510000D01*
X106730000Y-64510000D02*
X104530000Y-64510000D01*
X106730000Y-55210000D02*
X106730000Y-64510000D01*
X104530000Y-55210000D02*
X106730000Y-55210000D01*
X104530000Y-64510000D02*
X104530000Y-55210000D01*
X121780000Y-62510000D02*
X121780000Y-53210000D01*
X121780000Y-53210000D02*
X123980000Y-53210000D01*
X123980000Y-53210000D02*
X123980000Y-62510000D01*
X123980000Y-62510000D02*
X121780000Y-62510000D01*
X123980000Y-44010000D02*
X121780000Y-44010000D01*
X123980000Y-34710000D02*
X123980000Y-44010000D01*
X121780000Y-34710000D02*
X123980000Y-34710000D01*
X121780000Y-44010000D02*
X121780000Y-34710000D01*
X101530000Y-36710000D02*
X103730000Y-36710000D01*
X101530000Y-46010000D02*
X101530000Y-36710000D01*
X103730000Y-46010000D02*
X101530000Y-46010000D01*
X103730000Y-36710000D02*
X103730000Y-46010000D01*
X82530000Y-60210000D02*
X84730000Y-60210000D01*
X82530000Y-69510000D02*
X82530000Y-60210000D01*
X84730000Y-69510000D02*
X82530000Y-69510000D01*
X84730000Y-60210000D02*
X84730000Y-69510000D01*
X89680000Y-65210000D02*
X89680000Y-61510000D01*
X91580000Y-65210000D02*
X89680000Y-65210000D01*
X91580000Y-61510000D02*
X91580000Y-65210000D01*
X89680000Y-61510000D02*
X91580000Y-61510000D01*
X85280000Y-69780000D02*
X85280000Y-61940000D01*
X88980000Y-69780000D02*
X85280000Y-69780000D01*
X88980000Y-61940000D02*
X88980000Y-69780000D01*
X85280000Y-61940000D02*
X88980000Y-61940000D01*
X90130000Y-81860000D02*
G75*
G03X90130000Y-81860000I-6500000J0D01*
G01*
X98380000Y-41360000D02*
G75*
G03X98380000Y-41360000I-17750000J0D01*
G01*
X91580000Y-57010000D02*
X91580000Y-60710000D01*
X89680000Y-57010000D02*
X91580000Y-57010000D01*
X89680000Y-60710000D02*
X89680000Y-57010000D01*
X91580000Y-60710000D02*
X89680000Y-60710000D01*
X191830000Y-56310000D02*
X195380000Y-56310000D01*
X195380000Y-56310000D02*
X195380000Y-62410000D01*
X195380000Y-62410000D02*
X191830000Y-62410000D01*
X191830000Y-62410000D02*
X191830000Y-56310000D01*
X185830000Y-92910000D02*
X185830000Y-56660000D01*
X185830000Y-56660000D02*
X175130000Y-56660000D01*
X175130000Y-56660000D02*
X175130000Y-92910000D01*
X175130000Y-92910000D02*
X185830000Y-92910000D01*
X230294000Y-58581000D02*
X230294000Y-42561000D01*
X230294000Y-58581000D02*
X251630000Y-58582000D01*
X251630000Y-42561000D02*
X230294000Y-42561000D01*
X251630000Y-42562000D02*
X251630000Y-58582000D01*
X230298000Y-79436000D02*
X230298000Y-63416000D01*
X230298000Y-79436000D02*
X251634000Y-79437000D01*
X251634000Y-63416000D02*
X230298000Y-63416000D01*
X251634000Y-63417000D02*
X251634000Y-79437000D01*
X191830000Y-81020000D02*
X191830000Y-92220000D01*
X191830000Y-92220000D02*
X195430000Y-92220000D01*
X195430000Y-92220000D02*
X195430000Y-81020000D01*
X195430000Y-81020000D02*
X191830000Y-81020000D01*
X198564000Y-80576000D02*
X204164000Y-80576000D01*
X204164000Y-80576000D02*
X204164000Y-68676000D01*
X204164000Y-68676000D02*
X198564000Y-68676000D01*
X198564000Y-68676000D02*
X198564000Y-80576000D01*
X193526000Y-62444000D02*
X187926000Y-62444000D01*
X187926000Y-62444000D02*
X187926000Y-74344000D01*
X187926000Y-74344000D02*
X193526000Y-74344000D01*
X193526000Y-74344000D02*
X193526000Y-62444000D01*
M02*
