G04 #@! TF.GenerationSoftware,KiCad,Pcbnew,5.1.4*
G04 #@! TF.CreationDate,2019-10-26T17:37:42-03:00*
G04 #@! TF.ProjectId,MCB19,4d434231-392e-46b6-9963-61645f706362,rev?*
G04 #@! TF.SameCoordinates,Original*
G04 #@! TF.FileFunction,Paste,Top*
G04 #@! TF.FilePolarity,Positive*
%FSLAX46Y46*%
G04 Gerber Fmt 4.6, Leading zero omitted, Abs format (unit mm)*
G04 Created by KiCad (PCBNEW 5.1.4) date 2019-10-26 17:37:42*
%MOMM*%
%LPD*%
G04 APERTURE LIST*
%ADD10C,0.100000*%
%ADD11C,1.525000*%
%ADD12C,1.350000*%
%ADD13C,1.425000*%
%ADD14R,1.700000X3.300000*%
%ADD15C,0.600000*%
%ADD16C,1.150000*%
%ADD17C,2.250000*%
G04 APERTURE END LIST*
D10*
G36*
X123199505Y-80751204D02*
G01*
X123223773Y-80754804D01*
X123247572Y-80760765D01*
X123270671Y-80769030D01*
X123292850Y-80779520D01*
X123313893Y-80792132D01*
X123333599Y-80806747D01*
X123351777Y-80823223D01*
X123368253Y-80841401D01*
X123382868Y-80861107D01*
X123395480Y-80882150D01*
X123405970Y-80904329D01*
X123414235Y-80927428D01*
X123420196Y-80951227D01*
X123423796Y-80975495D01*
X123425000Y-80999999D01*
X123425000Y-82025001D01*
X123423796Y-82049505D01*
X123420196Y-82073773D01*
X123414235Y-82097572D01*
X123405970Y-82120671D01*
X123395480Y-82142850D01*
X123382868Y-82163893D01*
X123368253Y-82183599D01*
X123351777Y-82201777D01*
X123333599Y-82218253D01*
X123313893Y-82232868D01*
X123292850Y-82245480D01*
X123270671Y-82255970D01*
X123247572Y-82264235D01*
X123223773Y-82270196D01*
X123199505Y-82273796D01*
X123175001Y-82275000D01*
X120324999Y-82275000D01*
X120300495Y-82273796D01*
X120276227Y-82270196D01*
X120252428Y-82264235D01*
X120229329Y-82255970D01*
X120207150Y-82245480D01*
X120186107Y-82232868D01*
X120166401Y-82218253D01*
X120148223Y-82201777D01*
X120131747Y-82183599D01*
X120117132Y-82163893D01*
X120104520Y-82142850D01*
X120094030Y-82120671D01*
X120085765Y-82097572D01*
X120079804Y-82073773D01*
X120076204Y-82049505D01*
X120075000Y-82025001D01*
X120075000Y-80999999D01*
X120076204Y-80975495D01*
X120079804Y-80951227D01*
X120085765Y-80927428D01*
X120094030Y-80904329D01*
X120104520Y-80882150D01*
X120117132Y-80861107D01*
X120131747Y-80841401D01*
X120148223Y-80823223D01*
X120166401Y-80806747D01*
X120186107Y-80792132D01*
X120207150Y-80779520D01*
X120229329Y-80769030D01*
X120252428Y-80760765D01*
X120276227Y-80754804D01*
X120300495Y-80751204D01*
X120324999Y-80750000D01*
X123175001Y-80750000D01*
X123199505Y-80751204D01*
X123199505Y-80751204D01*
G37*
D11*
X121750000Y-81512500D03*
D10*
G36*
X123199505Y-86726204D02*
G01*
X123223773Y-86729804D01*
X123247572Y-86735765D01*
X123270671Y-86744030D01*
X123292850Y-86754520D01*
X123313893Y-86767132D01*
X123333599Y-86781747D01*
X123351777Y-86798223D01*
X123368253Y-86816401D01*
X123382868Y-86836107D01*
X123395480Y-86857150D01*
X123405970Y-86879329D01*
X123414235Y-86902428D01*
X123420196Y-86926227D01*
X123423796Y-86950495D01*
X123425000Y-86974999D01*
X123425000Y-88000001D01*
X123423796Y-88024505D01*
X123420196Y-88048773D01*
X123414235Y-88072572D01*
X123405970Y-88095671D01*
X123395480Y-88117850D01*
X123382868Y-88138893D01*
X123368253Y-88158599D01*
X123351777Y-88176777D01*
X123333599Y-88193253D01*
X123313893Y-88207868D01*
X123292850Y-88220480D01*
X123270671Y-88230970D01*
X123247572Y-88239235D01*
X123223773Y-88245196D01*
X123199505Y-88248796D01*
X123175001Y-88250000D01*
X120324999Y-88250000D01*
X120300495Y-88248796D01*
X120276227Y-88245196D01*
X120252428Y-88239235D01*
X120229329Y-88230970D01*
X120207150Y-88220480D01*
X120186107Y-88207868D01*
X120166401Y-88193253D01*
X120148223Y-88176777D01*
X120131747Y-88158599D01*
X120117132Y-88138893D01*
X120104520Y-88117850D01*
X120094030Y-88095671D01*
X120085765Y-88072572D01*
X120079804Y-88048773D01*
X120076204Y-88024505D01*
X120075000Y-88000001D01*
X120075000Y-86974999D01*
X120076204Y-86950495D01*
X120079804Y-86926227D01*
X120085765Y-86902428D01*
X120094030Y-86879329D01*
X120104520Y-86857150D01*
X120117132Y-86836107D01*
X120131747Y-86816401D01*
X120148223Y-86798223D01*
X120166401Y-86781747D01*
X120186107Y-86767132D01*
X120207150Y-86754520D01*
X120229329Y-86744030D01*
X120252428Y-86735765D01*
X120276227Y-86729804D01*
X120300495Y-86726204D01*
X120324999Y-86725000D01*
X123175001Y-86725000D01*
X123199505Y-86726204D01*
X123199505Y-86726204D01*
G37*
D11*
X121750000Y-87487500D03*
D10*
G36*
X123199505Y-62426204D02*
G01*
X123223773Y-62429804D01*
X123247572Y-62435765D01*
X123270671Y-62444030D01*
X123292850Y-62454520D01*
X123313893Y-62467132D01*
X123333599Y-62481747D01*
X123351777Y-62498223D01*
X123368253Y-62516401D01*
X123382868Y-62536107D01*
X123395480Y-62557150D01*
X123405970Y-62579329D01*
X123414235Y-62602428D01*
X123420196Y-62626227D01*
X123423796Y-62650495D01*
X123425000Y-62674999D01*
X123425000Y-63525001D01*
X123423796Y-63549505D01*
X123420196Y-63573773D01*
X123414235Y-63597572D01*
X123405970Y-63620671D01*
X123395480Y-63642850D01*
X123382868Y-63663893D01*
X123368253Y-63683599D01*
X123351777Y-63701777D01*
X123333599Y-63718253D01*
X123313893Y-63732868D01*
X123292850Y-63745480D01*
X123270671Y-63755970D01*
X123247572Y-63764235D01*
X123223773Y-63770196D01*
X123199505Y-63773796D01*
X123175001Y-63775000D01*
X120324999Y-63775000D01*
X120300495Y-63773796D01*
X120276227Y-63770196D01*
X120252428Y-63764235D01*
X120229329Y-63755970D01*
X120207150Y-63745480D01*
X120186107Y-63732868D01*
X120166401Y-63718253D01*
X120148223Y-63701777D01*
X120131747Y-63683599D01*
X120117132Y-63663893D01*
X120104520Y-63642850D01*
X120094030Y-63620671D01*
X120085765Y-63597572D01*
X120079804Y-63573773D01*
X120076204Y-63549505D01*
X120075000Y-63525001D01*
X120075000Y-62674999D01*
X120076204Y-62650495D01*
X120079804Y-62626227D01*
X120085765Y-62602428D01*
X120094030Y-62579329D01*
X120104520Y-62557150D01*
X120117132Y-62536107D01*
X120131747Y-62516401D01*
X120148223Y-62498223D01*
X120166401Y-62481747D01*
X120186107Y-62467132D01*
X120207150Y-62454520D01*
X120229329Y-62444030D01*
X120252428Y-62435765D01*
X120276227Y-62429804D01*
X120300495Y-62426204D01*
X120324999Y-62425000D01*
X123175001Y-62425000D01*
X123199505Y-62426204D01*
X123199505Y-62426204D01*
G37*
D12*
X121750000Y-63100000D03*
D10*
G36*
X123199505Y-68226204D02*
G01*
X123223773Y-68229804D01*
X123247572Y-68235765D01*
X123270671Y-68244030D01*
X123292850Y-68254520D01*
X123313893Y-68267132D01*
X123333599Y-68281747D01*
X123351777Y-68298223D01*
X123368253Y-68316401D01*
X123382868Y-68336107D01*
X123395480Y-68357150D01*
X123405970Y-68379329D01*
X123414235Y-68402428D01*
X123420196Y-68426227D01*
X123423796Y-68450495D01*
X123425000Y-68474999D01*
X123425000Y-69325001D01*
X123423796Y-69349505D01*
X123420196Y-69373773D01*
X123414235Y-69397572D01*
X123405970Y-69420671D01*
X123395480Y-69442850D01*
X123382868Y-69463893D01*
X123368253Y-69483599D01*
X123351777Y-69501777D01*
X123333599Y-69518253D01*
X123313893Y-69532868D01*
X123292850Y-69545480D01*
X123270671Y-69555970D01*
X123247572Y-69564235D01*
X123223773Y-69570196D01*
X123199505Y-69573796D01*
X123175001Y-69575000D01*
X120324999Y-69575000D01*
X120300495Y-69573796D01*
X120276227Y-69570196D01*
X120252428Y-69564235D01*
X120229329Y-69555970D01*
X120207150Y-69545480D01*
X120186107Y-69532868D01*
X120166401Y-69518253D01*
X120148223Y-69501777D01*
X120131747Y-69483599D01*
X120117132Y-69463893D01*
X120104520Y-69442850D01*
X120094030Y-69420671D01*
X120085765Y-69397572D01*
X120079804Y-69373773D01*
X120076204Y-69349505D01*
X120075000Y-69325001D01*
X120075000Y-68474999D01*
X120076204Y-68450495D01*
X120079804Y-68426227D01*
X120085765Y-68402428D01*
X120094030Y-68379329D01*
X120104520Y-68357150D01*
X120117132Y-68336107D01*
X120131747Y-68316401D01*
X120148223Y-68298223D01*
X120166401Y-68281747D01*
X120186107Y-68267132D01*
X120207150Y-68254520D01*
X120229329Y-68244030D01*
X120252428Y-68235765D01*
X120276227Y-68229804D01*
X120300495Y-68226204D01*
X120324999Y-68225000D01*
X123175001Y-68225000D01*
X123199505Y-68226204D01*
X123199505Y-68226204D01*
G37*
D12*
X121750000Y-68900000D03*
D10*
G36*
X123099504Y-73776204D02*
G01*
X123123773Y-73779804D01*
X123147571Y-73785765D01*
X123170671Y-73794030D01*
X123192849Y-73804520D01*
X123213893Y-73817133D01*
X123233598Y-73831747D01*
X123251777Y-73848223D01*
X123268253Y-73866402D01*
X123282867Y-73886107D01*
X123295480Y-73907151D01*
X123305970Y-73929329D01*
X123314235Y-73952429D01*
X123320196Y-73976227D01*
X123323796Y-74000496D01*
X123325000Y-74025000D01*
X123325000Y-74950000D01*
X123323796Y-74974504D01*
X123320196Y-74998773D01*
X123314235Y-75022571D01*
X123305970Y-75045671D01*
X123295480Y-75067849D01*
X123282867Y-75088893D01*
X123268253Y-75108598D01*
X123251777Y-75126777D01*
X123233598Y-75143253D01*
X123213893Y-75157867D01*
X123192849Y-75170480D01*
X123170671Y-75180970D01*
X123147571Y-75189235D01*
X123123773Y-75195196D01*
X123099504Y-75198796D01*
X123075000Y-75200000D01*
X120925000Y-75200000D01*
X120900496Y-75198796D01*
X120876227Y-75195196D01*
X120852429Y-75189235D01*
X120829329Y-75180970D01*
X120807151Y-75170480D01*
X120786107Y-75157867D01*
X120766402Y-75143253D01*
X120748223Y-75126777D01*
X120731747Y-75108598D01*
X120717133Y-75088893D01*
X120704520Y-75067849D01*
X120694030Y-75045671D01*
X120685765Y-75022571D01*
X120679804Y-74998773D01*
X120676204Y-74974504D01*
X120675000Y-74950000D01*
X120675000Y-74025000D01*
X120676204Y-74000496D01*
X120679804Y-73976227D01*
X120685765Y-73952429D01*
X120694030Y-73929329D01*
X120704520Y-73907151D01*
X120717133Y-73886107D01*
X120731747Y-73866402D01*
X120748223Y-73848223D01*
X120766402Y-73831747D01*
X120786107Y-73817133D01*
X120807151Y-73804520D01*
X120829329Y-73794030D01*
X120852429Y-73785765D01*
X120876227Y-73779804D01*
X120900496Y-73776204D01*
X120925000Y-73775000D01*
X123075000Y-73775000D01*
X123099504Y-73776204D01*
X123099504Y-73776204D01*
G37*
D13*
X122000000Y-74487500D03*
D10*
G36*
X123099504Y-70801204D02*
G01*
X123123773Y-70804804D01*
X123147571Y-70810765D01*
X123170671Y-70819030D01*
X123192849Y-70829520D01*
X123213893Y-70842133D01*
X123233598Y-70856747D01*
X123251777Y-70873223D01*
X123268253Y-70891402D01*
X123282867Y-70911107D01*
X123295480Y-70932151D01*
X123305970Y-70954329D01*
X123314235Y-70977429D01*
X123320196Y-71001227D01*
X123323796Y-71025496D01*
X123325000Y-71050000D01*
X123325000Y-71975000D01*
X123323796Y-71999504D01*
X123320196Y-72023773D01*
X123314235Y-72047571D01*
X123305970Y-72070671D01*
X123295480Y-72092849D01*
X123282867Y-72113893D01*
X123268253Y-72133598D01*
X123251777Y-72151777D01*
X123233598Y-72168253D01*
X123213893Y-72182867D01*
X123192849Y-72195480D01*
X123170671Y-72205970D01*
X123147571Y-72214235D01*
X123123773Y-72220196D01*
X123099504Y-72223796D01*
X123075000Y-72225000D01*
X120925000Y-72225000D01*
X120900496Y-72223796D01*
X120876227Y-72220196D01*
X120852429Y-72214235D01*
X120829329Y-72205970D01*
X120807151Y-72195480D01*
X120786107Y-72182867D01*
X120766402Y-72168253D01*
X120748223Y-72151777D01*
X120731747Y-72133598D01*
X120717133Y-72113893D01*
X120704520Y-72092849D01*
X120694030Y-72070671D01*
X120685765Y-72047571D01*
X120679804Y-72023773D01*
X120676204Y-71999504D01*
X120675000Y-71975000D01*
X120675000Y-71050000D01*
X120676204Y-71025496D01*
X120679804Y-71001227D01*
X120685765Y-70977429D01*
X120694030Y-70954329D01*
X120704520Y-70932151D01*
X120717133Y-70911107D01*
X120731747Y-70891402D01*
X120748223Y-70873223D01*
X120766402Y-70856747D01*
X120786107Y-70842133D01*
X120807151Y-70829520D01*
X120829329Y-70819030D01*
X120852429Y-70810765D01*
X120876227Y-70804804D01*
X120900496Y-70801204D01*
X120925000Y-70800000D01*
X123075000Y-70800000D01*
X123099504Y-70801204D01*
X123099504Y-70801204D01*
G37*
D13*
X122000000Y-71512500D03*
D10*
G36*
X123099504Y-92276204D02*
G01*
X123123773Y-92279804D01*
X123147571Y-92285765D01*
X123170671Y-92294030D01*
X123192849Y-92304520D01*
X123213893Y-92317133D01*
X123233598Y-92331747D01*
X123251777Y-92348223D01*
X123268253Y-92366402D01*
X123282867Y-92386107D01*
X123295480Y-92407151D01*
X123305970Y-92429329D01*
X123314235Y-92452429D01*
X123320196Y-92476227D01*
X123323796Y-92500496D01*
X123325000Y-92525000D01*
X123325000Y-93450000D01*
X123323796Y-93474504D01*
X123320196Y-93498773D01*
X123314235Y-93522571D01*
X123305970Y-93545671D01*
X123295480Y-93567849D01*
X123282867Y-93588893D01*
X123268253Y-93608598D01*
X123251777Y-93626777D01*
X123233598Y-93643253D01*
X123213893Y-93657867D01*
X123192849Y-93670480D01*
X123170671Y-93680970D01*
X123147571Y-93689235D01*
X123123773Y-93695196D01*
X123099504Y-93698796D01*
X123075000Y-93700000D01*
X120925000Y-93700000D01*
X120900496Y-93698796D01*
X120876227Y-93695196D01*
X120852429Y-93689235D01*
X120829329Y-93680970D01*
X120807151Y-93670480D01*
X120786107Y-93657867D01*
X120766402Y-93643253D01*
X120748223Y-93626777D01*
X120731747Y-93608598D01*
X120717133Y-93588893D01*
X120704520Y-93567849D01*
X120694030Y-93545671D01*
X120685765Y-93522571D01*
X120679804Y-93498773D01*
X120676204Y-93474504D01*
X120675000Y-93450000D01*
X120675000Y-92525000D01*
X120676204Y-92500496D01*
X120679804Y-92476227D01*
X120685765Y-92452429D01*
X120694030Y-92429329D01*
X120704520Y-92407151D01*
X120717133Y-92386107D01*
X120731747Y-92366402D01*
X120748223Y-92348223D01*
X120766402Y-92331747D01*
X120786107Y-92317133D01*
X120807151Y-92304520D01*
X120829329Y-92294030D01*
X120852429Y-92285765D01*
X120876227Y-92279804D01*
X120900496Y-92276204D01*
X120925000Y-92275000D01*
X123075000Y-92275000D01*
X123099504Y-92276204D01*
X123099504Y-92276204D01*
G37*
D13*
X122000000Y-92987500D03*
D10*
G36*
X123099504Y-89301204D02*
G01*
X123123773Y-89304804D01*
X123147571Y-89310765D01*
X123170671Y-89319030D01*
X123192849Y-89329520D01*
X123213893Y-89342133D01*
X123233598Y-89356747D01*
X123251777Y-89373223D01*
X123268253Y-89391402D01*
X123282867Y-89411107D01*
X123295480Y-89432151D01*
X123305970Y-89454329D01*
X123314235Y-89477429D01*
X123320196Y-89501227D01*
X123323796Y-89525496D01*
X123325000Y-89550000D01*
X123325000Y-90475000D01*
X123323796Y-90499504D01*
X123320196Y-90523773D01*
X123314235Y-90547571D01*
X123305970Y-90570671D01*
X123295480Y-90592849D01*
X123282867Y-90613893D01*
X123268253Y-90633598D01*
X123251777Y-90651777D01*
X123233598Y-90668253D01*
X123213893Y-90682867D01*
X123192849Y-90695480D01*
X123170671Y-90705970D01*
X123147571Y-90714235D01*
X123123773Y-90720196D01*
X123099504Y-90723796D01*
X123075000Y-90725000D01*
X120925000Y-90725000D01*
X120900496Y-90723796D01*
X120876227Y-90720196D01*
X120852429Y-90714235D01*
X120829329Y-90705970D01*
X120807151Y-90695480D01*
X120786107Y-90682867D01*
X120766402Y-90668253D01*
X120748223Y-90651777D01*
X120731747Y-90633598D01*
X120717133Y-90613893D01*
X120704520Y-90592849D01*
X120694030Y-90570671D01*
X120685765Y-90547571D01*
X120679804Y-90523773D01*
X120676204Y-90499504D01*
X120675000Y-90475000D01*
X120675000Y-89550000D01*
X120676204Y-89525496D01*
X120679804Y-89501227D01*
X120685765Y-89477429D01*
X120694030Y-89454329D01*
X120704520Y-89432151D01*
X120717133Y-89411107D01*
X120731747Y-89391402D01*
X120748223Y-89373223D01*
X120766402Y-89356747D01*
X120786107Y-89342133D01*
X120807151Y-89329520D01*
X120829329Y-89319030D01*
X120852429Y-89310765D01*
X120876227Y-89304804D01*
X120900496Y-89301204D01*
X120925000Y-89300000D01*
X123075000Y-89300000D01*
X123099504Y-89301204D01*
X123099504Y-89301204D01*
G37*
D13*
X122000000Y-90012500D03*
D14*
X105000000Y-92250000D03*
X105000000Y-86750000D03*
D10*
G36*
X99454703Y-92000722D02*
G01*
X99469264Y-92002882D01*
X99483543Y-92006459D01*
X99497403Y-92011418D01*
X99510710Y-92017712D01*
X99523336Y-92025280D01*
X99535159Y-92034048D01*
X99546066Y-92043934D01*
X99555952Y-92054841D01*
X99564720Y-92066664D01*
X99572288Y-92079290D01*
X99578582Y-92092597D01*
X99583541Y-92106457D01*
X99587118Y-92120736D01*
X99589278Y-92135297D01*
X99590000Y-92150000D01*
X99590000Y-93800000D01*
X99589278Y-93814703D01*
X99587118Y-93829264D01*
X99583541Y-93843543D01*
X99578582Y-93857403D01*
X99572288Y-93870710D01*
X99564720Y-93883336D01*
X99555952Y-93895159D01*
X99546066Y-93906066D01*
X99535159Y-93915952D01*
X99523336Y-93924720D01*
X99510710Y-93932288D01*
X99497403Y-93938582D01*
X99483543Y-93943541D01*
X99469264Y-93947118D01*
X99454703Y-93949278D01*
X99440000Y-93950000D01*
X99140000Y-93950000D01*
X99125297Y-93949278D01*
X99110736Y-93947118D01*
X99096457Y-93943541D01*
X99082597Y-93938582D01*
X99069290Y-93932288D01*
X99056664Y-93924720D01*
X99044841Y-93915952D01*
X99033934Y-93906066D01*
X99024048Y-93895159D01*
X99015280Y-93883336D01*
X99007712Y-93870710D01*
X99001418Y-93857403D01*
X98996459Y-93843543D01*
X98992882Y-93829264D01*
X98990722Y-93814703D01*
X98990000Y-93800000D01*
X98990000Y-92150000D01*
X98990722Y-92135297D01*
X98992882Y-92120736D01*
X98996459Y-92106457D01*
X99001418Y-92092597D01*
X99007712Y-92079290D01*
X99015280Y-92066664D01*
X99024048Y-92054841D01*
X99033934Y-92043934D01*
X99044841Y-92034048D01*
X99056664Y-92025280D01*
X99069290Y-92017712D01*
X99082597Y-92011418D01*
X99096457Y-92006459D01*
X99110736Y-92002882D01*
X99125297Y-92000722D01*
X99140000Y-92000000D01*
X99440000Y-92000000D01*
X99454703Y-92000722D01*
X99454703Y-92000722D01*
G37*
D15*
X99290000Y-92975000D03*
D10*
G36*
X98184703Y-92000722D02*
G01*
X98199264Y-92002882D01*
X98213543Y-92006459D01*
X98227403Y-92011418D01*
X98240710Y-92017712D01*
X98253336Y-92025280D01*
X98265159Y-92034048D01*
X98276066Y-92043934D01*
X98285952Y-92054841D01*
X98294720Y-92066664D01*
X98302288Y-92079290D01*
X98308582Y-92092597D01*
X98313541Y-92106457D01*
X98317118Y-92120736D01*
X98319278Y-92135297D01*
X98320000Y-92150000D01*
X98320000Y-93800000D01*
X98319278Y-93814703D01*
X98317118Y-93829264D01*
X98313541Y-93843543D01*
X98308582Y-93857403D01*
X98302288Y-93870710D01*
X98294720Y-93883336D01*
X98285952Y-93895159D01*
X98276066Y-93906066D01*
X98265159Y-93915952D01*
X98253336Y-93924720D01*
X98240710Y-93932288D01*
X98227403Y-93938582D01*
X98213543Y-93943541D01*
X98199264Y-93947118D01*
X98184703Y-93949278D01*
X98170000Y-93950000D01*
X97870000Y-93950000D01*
X97855297Y-93949278D01*
X97840736Y-93947118D01*
X97826457Y-93943541D01*
X97812597Y-93938582D01*
X97799290Y-93932288D01*
X97786664Y-93924720D01*
X97774841Y-93915952D01*
X97763934Y-93906066D01*
X97754048Y-93895159D01*
X97745280Y-93883336D01*
X97737712Y-93870710D01*
X97731418Y-93857403D01*
X97726459Y-93843543D01*
X97722882Y-93829264D01*
X97720722Y-93814703D01*
X97720000Y-93800000D01*
X97720000Y-92150000D01*
X97720722Y-92135297D01*
X97722882Y-92120736D01*
X97726459Y-92106457D01*
X97731418Y-92092597D01*
X97737712Y-92079290D01*
X97745280Y-92066664D01*
X97754048Y-92054841D01*
X97763934Y-92043934D01*
X97774841Y-92034048D01*
X97786664Y-92025280D01*
X97799290Y-92017712D01*
X97812597Y-92011418D01*
X97826457Y-92006459D01*
X97840736Y-92002882D01*
X97855297Y-92000722D01*
X97870000Y-92000000D01*
X98170000Y-92000000D01*
X98184703Y-92000722D01*
X98184703Y-92000722D01*
G37*
D15*
X98020000Y-92975000D03*
D10*
G36*
X96914703Y-92000722D02*
G01*
X96929264Y-92002882D01*
X96943543Y-92006459D01*
X96957403Y-92011418D01*
X96970710Y-92017712D01*
X96983336Y-92025280D01*
X96995159Y-92034048D01*
X97006066Y-92043934D01*
X97015952Y-92054841D01*
X97024720Y-92066664D01*
X97032288Y-92079290D01*
X97038582Y-92092597D01*
X97043541Y-92106457D01*
X97047118Y-92120736D01*
X97049278Y-92135297D01*
X97050000Y-92150000D01*
X97050000Y-93800000D01*
X97049278Y-93814703D01*
X97047118Y-93829264D01*
X97043541Y-93843543D01*
X97038582Y-93857403D01*
X97032288Y-93870710D01*
X97024720Y-93883336D01*
X97015952Y-93895159D01*
X97006066Y-93906066D01*
X96995159Y-93915952D01*
X96983336Y-93924720D01*
X96970710Y-93932288D01*
X96957403Y-93938582D01*
X96943543Y-93943541D01*
X96929264Y-93947118D01*
X96914703Y-93949278D01*
X96900000Y-93950000D01*
X96600000Y-93950000D01*
X96585297Y-93949278D01*
X96570736Y-93947118D01*
X96556457Y-93943541D01*
X96542597Y-93938582D01*
X96529290Y-93932288D01*
X96516664Y-93924720D01*
X96504841Y-93915952D01*
X96493934Y-93906066D01*
X96484048Y-93895159D01*
X96475280Y-93883336D01*
X96467712Y-93870710D01*
X96461418Y-93857403D01*
X96456459Y-93843543D01*
X96452882Y-93829264D01*
X96450722Y-93814703D01*
X96450000Y-93800000D01*
X96450000Y-92150000D01*
X96450722Y-92135297D01*
X96452882Y-92120736D01*
X96456459Y-92106457D01*
X96461418Y-92092597D01*
X96467712Y-92079290D01*
X96475280Y-92066664D01*
X96484048Y-92054841D01*
X96493934Y-92043934D01*
X96504841Y-92034048D01*
X96516664Y-92025280D01*
X96529290Y-92017712D01*
X96542597Y-92011418D01*
X96556457Y-92006459D01*
X96570736Y-92002882D01*
X96585297Y-92000722D01*
X96600000Y-92000000D01*
X96900000Y-92000000D01*
X96914703Y-92000722D01*
X96914703Y-92000722D01*
G37*
D15*
X96750000Y-92975000D03*
D10*
G36*
X95644703Y-92000722D02*
G01*
X95659264Y-92002882D01*
X95673543Y-92006459D01*
X95687403Y-92011418D01*
X95700710Y-92017712D01*
X95713336Y-92025280D01*
X95725159Y-92034048D01*
X95736066Y-92043934D01*
X95745952Y-92054841D01*
X95754720Y-92066664D01*
X95762288Y-92079290D01*
X95768582Y-92092597D01*
X95773541Y-92106457D01*
X95777118Y-92120736D01*
X95779278Y-92135297D01*
X95780000Y-92150000D01*
X95780000Y-93800000D01*
X95779278Y-93814703D01*
X95777118Y-93829264D01*
X95773541Y-93843543D01*
X95768582Y-93857403D01*
X95762288Y-93870710D01*
X95754720Y-93883336D01*
X95745952Y-93895159D01*
X95736066Y-93906066D01*
X95725159Y-93915952D01*
X95713336Y-93924720D01*
X95700710Y-93932288D01*
X95687403Y-93938582D01*
X95673543Y-93943541D01*
X95659264Y-93947118D01*
X95644703Y-93949278D01*
X95630000Y-93950000D01*
X95330000Y-93950000D01*
X95315297Y-93949278D01*
X95300736Y-93947118D01*
X95286457Y-93943541D01*
X95272597Y-93938582D01*
X95259290Y-93932288D01*
X95246664Y-93924720D01*
X95234841Y-93915952D01*
X95223934Y-93906066D01*
X95214048Y-93895159D01*
X95205280Y-93883336D01*
X95197712Y-93870710D01*
X95191418Y-93857403D01*
X95186459Y-93843543D01*
X95182882Y-93829264D01*
X95180722Y-93814703D01*
X95180000Y-93800000D01*
X95180000Y-92150000D01*
X95180722Y-92135297D01*
X95182882Y-92120736D01*
X95186459Y-92106457D01*
X95191418Y-92092597D01*
X95197712Y-92079290D01*
X95205280Y-92066664D01*
X95214048Y-92054841D01*
X95223934Y-92043934D01*
X95234841Y-92034048D01*
X95246664Y-92025280D01*
X95259290Y-92017712D01*
X95272597Y-92011418D01*
X95286457Y-92006459D01*
X95300736Y-92002882D01*
X95315297Y-92000722D01*
X95330000Y-92000000D01*
X95630000Y-92000000D01*
X95644703Y-92000722D01*
X95644703Y-92000722D01*
G37*
D15*
X95480000Y-92975000D03*
D10*
G36*
X95644703Y-87050722D02*
G01*
X95659264Y-87052882D01*
X95673543Y-87056459D01*
X95687403Y-87061418D01*
X95700710Y-87067712D01*
X95713336Y-87075280D01*
X95725159Y-87084048D01*
X95736066Y-87093934D01*
X95745952Y-87104841D01*
X95754720Y-87116664D01*
X95762288Y-87129290D01*
X95768582Y-87142597D01*
X95773541Y-87156457D01*
X95777118Y-87170736D01*
X95779278Y-87185297D01*
X95780000Y-87200000D01*
X95780000Y-88850000D01*
X95779278Y-88864703D01*
X95777118Y-88879264D01*
X95773541Y-88893543D01*
X95768582Y-88907403D01*
X95762288Y-88920710D01*
X95754720Y-88933336D01*
X95745952Y-88945159D01*
X95736066Y-88956066D01*
X95725159Y-88965952D01*
X95713336Y-88974720D01*
X95700710Y-88982288D01*
X95687403Y-88988582D01*
X95673543Y-88993541D01*
X95659264Y-88997118D01*
X95644703Y-88999278D01*
X95630000Y-89000000D01*
X95330000Y-89000000D01*
X95315297Y-88999278D01*
X95300736Y-88997118D01*
X95286457Y-88993541D01*
X95272597Y-88988582D01*
X95259290Y-88982288D01*
X95246664Y-88974720D01*
X95234841Y-88965952D01*
X95223934Y-88956066D01*
X95214048Y-88945159D01*
X95205280Y-88933336D01*
X95197712Y-88920710D01*
X95191418Y-88907403D01*
X95186459Y-88893543D01*
X95182882Y-88879264D01*
X95180722Y-88864703D01*
X95180000Y-88850000D01*
X95180000Y-87200000D01*
X95180722Y-87185297D01*
X95182882Y-87170736D01*
X95186459Y-87156457D01*
X95191418Y-87142597D01*
X95197712Y-87129290D01*
X95205280Y-87116664D01*
X95214048Y-87104841D01*
X95223934Y-87093934D01*
X95234841Y-87084048D01*
X95246664Y-87075280D01*
X95259290Y-87067712D01*
X95272597Y-87061418D01*
X95286457Y-87056459D01*
X95300736Y-87052882D01*
X95315297Y-87050722D01*
X95330000Y-87050000D01*
X95630000Y-87050000D01*
X95644703Y-87050722D01*
X95644703Y-87050722D01*
G37*
D15*
X95480000Y-88025000D03*
D10*
G36*
X96914703Y-87050722D02*
G01*
X96929264Y-87052882D01*
X96943543Y-87056459D01*
X96957403Y-87061418D01*
X96970710Y-87067712D01*
X96983336Y-87075280D01*
X96995159Y-87084048D01*
X97006066Y-87093934D01*
X97015952Y-87104841D01*
X97024720Y-87116664D01*
X97032288Y-87129290D01*
X97038582Y-87142597D01*
X97043541Y-87156457D01*
X97047118Y-87170736D01*
X97049278Y-87185297D01*
X97050000Y-87200000D01*
X97050000Y-88850000D01*
X97049278Y-88864703D01*
X97047118Y-88879264D01*
X97043541Y-88893543D01*
X97038582Y-88907403D01*
X97032288Y-88920710D01*
X97024720Y-88933336D01*
X97015952Y-88945159D01*
X97006066Y-88956066D01*
X96995159Y-88965952D01*
X96983336Y-88974720D01*
X96970710Y-88982288D01*
X96957403Y-88988582D01*
X96943543Y-88993541D01*
X96929264Y-88997118D01*
X96914703Y-88999278D01*
X96900000Y-89000000D01*
X96600000Y-89000000D01*
X96585297Y-88999278D01*
X96570736Y-88997118D01*
X96556457Y-88993541D01*
X96542597Y-88988582D01*
X96529290Y-88982288D01*
X96516664Y-88974720D01*
X96504841Y-88965952D01*
X96493934Y-88956066D01*
X96484048Y-88945159D01*
X96475280Y-88933336D01*
X96467712Y-88920710D01*
X96461418Y-88907403D01*
X96456459Y-88893543D01*
X96452882Y-88879264D01*
X96450722Y-88864703D01*
X96450000Y-88850000D01*
X96450000Y-87200000D01*
X96450722Y-87185297D01*
X96452882Y-87170736D01*
X96456459Y-87156457D01*
X96461418Y-87142597D01*
X96467712Y-87129290D01*
X96475280Y-87116664D01*
X96484048Y-87104841D01*
X96493934Y-87093934D01*
X96504841Y-87084048D01*
X96516664Y-87075280D01*
X96529290Y-87067712D01*
X96542597Y-87061418D01*
X96556457Y-87056459D01*
X96570736Y-87052882D01*
X96585297Y-87050722D01*
X96600000Y-87050000D01*
X96900000Y-87050000D01*
X96914703Y-87050722D01*
X96914703Y-87050722D01*
G37*
D15*
X96750000Y-88025000D03*
D10*
G36*
X98184703Y-87050722D02*
G01*
X98199264Y-87052882D01*
X98213543Y-87056459D01*
X98227403Y-87061418D01*
X98240710Y-87067712D01*
X98253336Y-87075280D01*
X98265159Y-87084048D01*
X98276066Y-87093934D01*
X98285952Y-87104841D01*
X98294720Y-87116664D01*
X98302288Y-87129290D01*
X98308582Y-87142597D01*
X98313541Y-87156457D01*
X98317118Y-87170736D01*
X98319278Y-87185297D01*
X98320000Y-87200000D01*
X98320000Y-88850000D01*
X98319278Y-88864703D01*
X98317118Y-88879264D01*
X98313541Y-88893543D01*
X98308582Y-88907403D01*
X98302288Y-88920710D01*
X98294720Y-88933336D01*
X98285952Y-88945159D01*
X98276066Y-88956066D01*
X98265159Y-88965952D01*
X98253336Y-88974720D01*
X98240710Y-88982288D01*
X98227403Y-88988582D01*
X98213543Y-88993541D01*
X98199264Y-88997118D01*
X98184703Y-88999278D01*
X98170000Y-89000000D01*
X97870000Y-89000000D01*
X97855297Y-88999278D01*
X97840736Y-88997118D01*
X97826457Y-88993541D01*
X97812597Y-88988582D01*
X97799290Y-88982288D01*
X97786664Y-88974720D01*
X97774841Y-88965952D01*
X97763934Y-88956066D01*
X97754048Y-88945159D01*
X97745280Y-88933336D01*
X97737712Y-88920710D01*
X97731418Y-88907403D01*
X97726459Y-88893543D01*
X97722882Y-88879264D01*
X97720722Y-88864703D01*
X97720000Y-88850000D01*
X97720000Y-87200000D01*
X97720722Y-87185297D01*
X97722882Y-87170736D01*
X97726459Y-87156457D01*
X97731418Y-87142597D01*
X97737712Y-87129290D01*
X97745280Y-87116664D01*
X97754048Y-87104841D01*
X97763934Y-87093934D01*
X97774841Y-87084048D01*
X97786664Y-87075280D01*
X97799290Y-87067712D01*
X97812597Y-87061418D01*
X97826457Y-87056459D01*
X97840736Y-87052882D01*
X97855297Y-87050722D01*
X97870000Y-87050000D01*
X98170000Y-87050000D01*
X98184703Y-87050722D01*
X98184703Y-87050722D01*
G37*
D15*
X98020000Y-88025000D03*
D10*
G36*
X99454703Y-87050722D02*
G01*
X99469264Y-87052882D01*
X99483543Y-87056459D01*
X99497403Y-87061418D01*
X99510710Y-87067712D01*
X99523336Y-87075280D01*
X99535159Y-87084048D01*
X99546066Y-87093934D01*
X99555952Y-87104841D01*
X99564720Y-87116664D01*
X99572288Y-87129290D01*
X99578582Y-87142597D01*
X99583541Y-87156457D01*
X99587118Y-87170736D01*
X99589278Y-87185297D01*
X99590000Y-87200000D01*
X99590000Y-88850000D01*
X99589278Y-88864703D01*
X99587118Y-88879264D01*
X99583541Y-88893543D01*
X99578582Y-88907403D01*
X99572288Y-88920710D01*
X99564720Y-88933336D01*
X99555952Y-88945159D01*
X99546066Y-88956066D01*
X99535159Y-88965952D01*
X99523336Y-88974720D01*
X99510710Y-88982288D01*
X99497403Y-88988582D01*
X99483543Y-88993541D01*
X99469264Y-88997118D01*
X99454703Y-88999278D01*
X99440000Y-89000000D01*
X99140000Y-89000000D01*
X99125297Y-88999278D01*
X99110736Y-88997118D01*
X99096457Y-88993541D01*
X99082597Y-88988582D01*
X99069290Y-88982288D01*
X99056664Y-88974720D01*
X99044841Y-88965952D01*
X99033934Y-88956066D01*
X99024048Y-88945159D01*
X99015280Y-88933336D01*
X99007712Y-88920710D01*
X99001418Y-88907403D01*
X98996459Y-88893543D01*
X98992882Y-88879264D01*
X98990722Y-88864703D01*
X98990000Y-88850000D01*
X98990000Y-87200000D01*
X98990722Y-87185297D01*
X98992882Y-87170736D01*
X98996459Y-87156457D01*
X99001418Y-87142597D01*
X99007712Y-87129290D01*
X99015280Y-87116664D01*
X99024048Y-87104841D01*
X99033934Y-87093934D01*
X99044841Y-87084048D01*
X99056664Y-87075280D01*
X99069290Y-87067712D01*
X99082597Y-87061418D01*
X99096457Y-87056459D01*
X99110736Y-87052882D01*
X99125297Y-87050722D01*
X99140000Y-87050000D01*
X99440000Y-87050000D01*
X99454703Y-87050722D01*
X99454703Y-87050722D01*
G37*
D15*
X99290000Y-88025000D03*
D10*
G36*
X111474505Y-61901204D02*
G01*
X111498773Y-61904804D01*
X111522572Y-61910765D01*
X111545671Y-61919030D01*
X111567850Y-61929520D01*
X111588893Y-61942132D01*
X111608599Y-61956747D01*
X111626777Y-61973223D01*
X111643253Y-61991401D01*
X111657868Y-62011107D01*
X111670480Y-62032150D01*
X111680970Y-62054329D01*
X111689235Y-62077428D01*
X111695196Y-62101227D01*
X111698796Y-62125495D01*
X111700000Y-62149999D01*
X111700000Y-62800001D01*
X111698796Y-62824505D01*
X111695196Y-62848773D01*
X111689235Y-62872572D01*
X111680970Y-62895671D01*
X111670480Y-62917850D01*
X111657868Y-62938893D01*
X111643253Y-62958599D01*
X111626777Y-62976777D01*
X111608599Y-62993253D01*
X111588893Y-63007868D01*
X111567850Y-63020480D01*
X111545671Y-63030970D01*
X111522572Y-63039235D01*
X111498773Y-63045196D01*
X111474505Y-63048796D01*
X111450001Y-63050000D01*
X110549999Y-63050000D01*
X110525495Y-63048796D01*
X110501227Y-63045196D01*
X110477428Y-63039235D01*
X110454329Y-63030970D01*
X110432150Y-63020480D01*
X110411107Y-63007868D01*
X110391401Y-62993253D01*
X110373223Y-62976777D01*
X110356747Y-62958599D01*
X110342132Y-62938893D01*
X110329520Y-62917850D01*
X110319030Y-62895671D01*
X110310765Y-62872572D01*
X110304804Y-62848773D01*
X110301204Y-62824505D01*
X110300000Y-62800001D01*
X110300000Y-62149999D01*
X110301204Y-62125495D01*
X110304804Y-62101227D01*
X110310765Y-62077428D01*
X110319030Y-62054329D01*
X110329520Y-62032150D01*
X110342132Y-62011107D01*
X110356747Y-61991401D01*
X110373223Y-61973223D01*
X110391401Y-61956747D01*
X110411107Y-61942132D01*
X110432150Y-61929520D01*
X110454329Y-61919030D01*
X110477428Y-61910765D01*
X110501227Y-61904804D01*
X110525495Y-61901204D01*
X110549999Y-61900000D01*
X111450001Y-61900000D01*
X111474505Y-61901204D01*
X111474505Y-61901204D01*
G37*
D16*
X111000000Y-62475000D03*
D10*
G36*
X111474505Y-63951204D02*
G01*
X111498773Y-63954804D01*
X111522572Y-63960765D01*
X111545671Y-63969030D01*
X111567850Y-63979520D01*
X111588893Y-63992132D01*
X111608599Y-64006747D01*
X111626777Y-64023223D01*
X111643253Y-64041401D01*
X111657868Y-64061107D01*
X111670480Y-64082150D01*
X111680970Y-64104329D01*
X111689235Y-64127428D01*
X111695196Y-64151227D01*
X111698796Y-64175495D01*
X111700000Y-64199999D01*
X111700000Y-64850001D01*
X111698796Y-64874505D01*
X111695196Y-64898773D01*
X111689235Y-64922572D01*
X111680970Y-64945671D01*
X111670480Y-64967850D01*
X111657868Y-64988893D01*
X111643253Y-65008599D01*
X111626777Y-65026777D01*
X111608599Y-65043253D01*
X111588893Y-65057868D01*
X111567850Y-65070480D01*
X111545671Y-65080970D01*
X111522572Y-65089235D01*
X111498773Y-65095196D01*
X111474505Y-65098796D01*
X111450001Y-65100000D01*
X110549999Y-65100000D01*
X110525495Y-65098796D01*
X110501227Y-65095196D01*
X110477428Y-65089235D01*
X110454329Y-65080970D01*
X110432150Y-65070480D01*
X110411107Y-65057868D01*
X110391401Y-65043253D01*
X110373223Y-65026777D01*
X110356747Y-65008599D01*
X110342132Y-64988893D01*
X110329520Y-64967850D01*
X110319030Y-64945671D01*
X110310765Y-64922572D01*
X110304804Y-64898773D01*
X110301204Y-64874505D01*
X110300000Y-64850001D01*
X110300000Y-64199999D01*
X110301204Y-64175495D01*
X110304804Y-64151227D01*
X110310765Y-64127428D01*
X110319030Y-64104329D01*
X110329520Y-64082150D01*
X110342132Y-64061107D01*
X110356747Y-64041401D01*
X110373223Y-64023223D01*
X110391401Y-64006747D01*
X110411107Y-63992132D01*
X110432150Y-63979520D01*
X110454329Y-63969030D01*
X110477428Y-63960765D01*
X110501227Y-63954804D01*
X110525495Y-63951204D01*
X110549999Y-63950000D01*
X111450001Y-63950000D01*
X111474505Y-63951204D01*
X111474505Y-63951204D01*
G37*
D16*
X111000000Y-64525000D03*
D10*
G36*
X111474505Y-80401204D02*
G01*
X111498773Y-80404804D01*
X111522572Y-80410765D01*
X111545671Y-80419030D01*
X111567850Y-80429520D01*
X111588893Y-80442132D01*
X111608599Y-80456747D01*
X111626777Y-80473223D01*
X111643253Y-80491401D01*
X111657868Y-80511107D01*
X111670480Y-80532150D01*
X111680970Y-80554329D01*
X111689235Y-80577428D01*
X111695196Y-80601227D01*
X111698796Y-80625495D01*
X111700000Y-80649999D01*
X111700000Y-81300001D01*
X111698796Y-81324505D01*
X111695196Y-81348773D01*
X111689235Y-81372572D01*
X111680970Y-81395671D01*
X111670480Y-81417850D01*
X111657868Y-81438893D01*
X111643253Y-81458599D01*
X111626777Y-81476777D01*
X111608599Y-81493253D01*
X111588893Y-81507868D01*
X111567850Y-81520480D01*
X111545671Y-81530970D01*
X111522572Y-81539235D01*
X111498773Y-81545196D01*
X111474505Y-81548796D01*
X111450001Y-81550000D01*
X110549999Y-81550000D01*
X110525495Y-81548796D01*
X110501227Y-81545196D01*
X110477428Y-81539235D01*
X110454329Y-81530970D01*
X110432150Y-81520480D01*
X110411107Y-81507868D01*
X110391401Y-81493253D01*
X110373223Y-81476777D01*
X110356747Y-81458599D01*
X110342132Y-81438893D01*
X110329520Y-81417850D01*
X110319030Y-81395671D01*
X110310765Y-81372572D01*
X110304804Y-81348773D01*
X110301204Y-81324505D01*
X110300000Y-81300001D01*
X110300000Y-80649999D01*
X110301204Y-80625495D01*
X110304804Y-80601227D01*
X110310765Y-80577428D01*
X110319030Y-80554329D01*
X110329520Y-80532150D01*
X110342132Y-80511107D01*
X110356747Y-80491401D01*
X110373223Y-80473223D01*
X110391401Y-80456747D01*
X110411107Y-80442132D01*
X110432150Y-80429520D01*
X110454329Y-80419030D01*
X110477428Y-80410765D01*
X110501227Y-80404804D01*
X110525495Y-80401204D01*
X110549999Y-80400000D01*
X111450001Y-80400000D01*
X111474505Y-80401204D01*
X111474505Y-80401204D01*
G37*
D16*
X111000000Y-80975000D03*
D10*
G36*
X111474505Y-82451204D02*
G01*
X111498773Y-82454804D01*
X111522572Y-82460765D01*
X111545671Y-82469030D01*
X111567850Y-82479520D01*
X111588893Y-82492132D01*
X111608599Y-82506747D01*
X111626777Y-82523223D01*
X111643253Y-82541401D01*
X111657868Y-82561107D01*
X111670480Y-82582150D01*
X111680970Y-82604329D01*
X111689235Y-82627428D01*
X111695196Y-82651227D01*
X111698796Y-82675495D01*
X111700000Y-82699999D01*
X111700000Y-83350001D01*
X111698796Y-83374505D01*
X111695196Y-83398773D01*
X111689235Y-83422572D01*
X111680970Y-83445671D01*
X111670480Y-83467850D01*
X111657868Y-83488893D01*
X111643253Y-83508599D01*
X111626777Y-83526777D01*
X111608599Y-83543253D01*
X111588893Y-83557868D01*
X111567850Y-83570480D01*
X111545671Y-83580970D01*
X111522572Y-83589235D01*
X111498773Y-83595196D01*
X111474505Y-83598796D01*
X111450001Y-83600000D01*
X110549999Y-83600000D01*
X110525495Y-83598796D01*
X110501227Y-83595196D01*
X110477428Y-83589235D01*
X110454329Y-83580970D01*
X110432150Y-83570480D01*
X110411107Y-83557868D01*
X110391401Y-83543253D01*
X110373223Y-83526777D01*
X110356747Y-83508599D01*
X110342132Y-83488893D01*
X110329520Y-83467850D01*
X110319030Y-83445671D01*
X110310765Y-83422572D01*
X110304804Y-83398773D01*
X110301204Y-83374505D01*
X110300000Y-83350001D01*
X110300000Y-82699999D01*
X110301204Y-82675495D01*
X110304804Y-82651227D01*
X110310765Y-82627428D01*
X110319030Y-82604329D01*
X110329520Y-82582150D01*
X110342132Y-82561107D01*
X110356747Y-82541401D01*
X110373223Y-82523223D01*
X110391401Y-82506747D01*
X110411107Y-82492132D01*
X110432150Y-82479520D01*
X110454329Y-82469030D01*
X110477428Y-82460765D01*
X110501227Y-82454804D01*
X110525495Y-82451204D01*
X110549999Y-82450000D01*
X111450001Y-82450000D01*
X111474505Y-82451204D01*
X111474505Y-82451204D01*
G37*
D16*
X111000000Y-83025000D03*
D10*
G36*
X106324505Y-62801204D02*
G01*
X106348773Y-62804804D01*
X106372572Y-62810765D01*
X106395671Y-62819030D01*
X106417850Y-62829520D01*
X106438893Y-62842132D01*
X106458599Y-62856747D01*
X106476777Y-62873223D01*
X106493253Y-62891401D01*
X106507868Y-62911107D01*
X106520480Y-62932150D01*
X106530970Y-62954329D01*
X106539235Y-62977428D01*
X106545196Y-63001227D01*
X106548796Y-63025495D01*
X106550000Y-63049999D01*
X106550000Y-63950001D01*
X106548796Y-63974505D01*
X106545196Y-63998773D01*
X106539235Y-64022572D01*
X106530970Y-64045671D01*
X106520480Y-64067850D01*
X106507868Y-64088893D01*
X106493253Y-64108599D01*
X106476777Y-64126777D01*
X106458599Y-64143253D01*
X106438893Y-64157868D01*
X106417850Y-64170480D01*
X106395671Y-64180970D01*
X106372572Y-64189235D01*
X106348773Y-64195196D01*
X106324505Y-64198796D01*
X106300001Y-64200000D01*
X105649999Y-64200000D01*
X105625495Y-64198796D01*
X105601227Y-64195196D01*
X105577428Y-64189235D01*
X105554329Y-64180970D01*
X105532150Y-64170480D01*
X105511107Y-64157868D01*
X105491401Y-64143253D01*
X105473223Y-64126777D01*
X105456747Y-64108599D01*
X105442132Y-64088893D01*
X105429520Y-64067850D01*
X105419030Y-64045671D01*
X105410765Y-64022572D01*
X105404804Y-63998773D01*
X105401204Y-63974505D01*
X105400000Y-63950001D01*
X105400000Y-63049999D01*
X105401204Y-63025495D01*
X105404804Y-63001227D01*
X105410765Y-62977428D01*
X105419030Y-62954329D01*
X105429520Y-62932150D01*
X105442132Y-62911107D01*
X105456747Y-62891401D01*
X105473223Y-62873223D01*
X105491401Y-62856747D01*
X105511107Y-62842132D01*
X105532150Y-62829520D01*
X105554329Y-62819030D01*
X105577428Y-62810765D01*
X105601227Y-62804804D01*
X105625495Y-62801204D01*
X105649999Y-62800000D01*
X106300001Y-62800000D01*
X106324505Y-62801204D01*
X106324505Y-62801204D01*
G37*
D16*
X105975000Y-63500000D03*
D10*
G36*
X108374505Y-62801204D02*
G01*
X108398773Y-62804804D01*
X108422572Y-62810765D01*
X108445671Y-62819030D01*
X108467850Y-62829520D01*
X108488893Y-62842132D01*
X108508599Y-62856747D01*
X108526777Y-62873223D01*
X108543253Y-62891401D01*
X108557868Y-62911107D01*
X108570480Y-62932150D01*
X108580970Y-62954329D01*
X108589235Y-62977428D01*
X108595196Y-63001227D01*
X108598796Y-63025495D01*
X108600000Y-63049999D01*
X108600000Y-63950001D01*
X108598796Y-63974505D01*
X108595196Y-63998773D01*
X108589235Y-64022572D01*
X108580970Y-64045671D01*
X108570480Y-64067850D01*
X108557868Y-64088893D01*
X108543253Y-64108599D01*
X108526777Y-64126777D01*
X108508599Y-64143253D01*
X108488893Y-64157868D01*
X108467850Y-64170480D01*
X108445671Y-64180970D01*
X108422572Y-64189235D01*
X108398773Y-64195196D01*
X108374505Y-64198796D01*
X108350001Y-64200000D01*
X107699999Y-64200000D01*
X107675495Y-64198796D01*
X107651227Y-64195196D01*
X107627428Y-64189235D01*
X107604329Y-64180970D01*
X107582150Y-64170480D01*
X107561107Y-64157868D01*
X107541401Y-64143253D01*
X107523223Y-64126777D01*
X107506747Y-64108599D01*
X107492132Y-64088893D01*
X107479520Y-64067850D01*
X107469030Y-64045671D01*
X107460765Y-64022572D01*
X107454804Y-63998773D01*
X107451204Y-63974505D01*
X107450000Y-63950001D01*
X107450000Y-63049999D01*
X107451204Y-63025495D01*
X107454804Y-63001227D01*
X107460765Y-62977428D01*
X107469030Y-62954329D01*
X107479520Y-62932150D01*
X107492132Y-62911107D01*
X107506747Y-62891401D01*
X107523223Y-62873223D01*
X107541401Y-62856747D01*
X107561107Y-62842132D01*
X107582150Y-62829520D01*
X107604329Y-62819030D01*
X107627428Y-62810765D01*
X107651227Y-62804804D01*
X107675495Y-62801204D01*
X107699999Y-62800000D01*
X108350001Y-62800000D01*
X108374505Y-62801204D01*
X108374505Y-62801204D01*
G37*
D16*
X108025000Y-63500000D03*
D10*
G36*
X106324505Y-81301204D02*
G01*
X106348773Y-81304804D01*
X106372572Y-81310765D01*
X106395671Y-81319030D01*
X106417850Y-81329520D01*
X106438893Y-81342132D01*
X106458599Y-81356747D01*
X106476777Y-81373223D01*
X106493253Y-81391401D01*
X106507868Y-81411107D01*
X106520480Y-81432150D01*
X106530970Y-81454329D01*
X106539235Y-81477428D01*
X106545196Y-81501227D01*
X106548796Y-81525495D01*
X106550000Y-81549999D01*
X106550000Y-82450001D01*
X106548796Y-82474505D01*
X106545196Y-82498773D01*
X106539235Y-82522572D01*
X106530970Y-82545671D01*
X106520480Y-82567850D01*
X106507868Y-82588893D01*
X106493253Y-82608599D01*
X106476777Y-82626777D01*
X106458599Y-82643253D01*
X106438893Y-82657868D01*
X106417850Y-82670480D01*
X106395671Y-82680970D01*
X106372572Y-82689235D01*
X106348773Y-82695196D01*
X106324505Y-82698796D01*
X106300001Y-82700000D01*
X105649999Y-82700000D01*
X105625495Y-82698796D01*
X105601227Y-82695196D01*
X105577428Y-82689235D01*
X105554329Y-82680970D01*
X105532150Y-82670480D01*
X105511107Y-82657868D01*
X105491401Y-82643253D01*
X105473223Y-82626777D01*
X105456747Y-82608599D01*
X105442132Y-82588893D01*
X105429520Y-82567850D01*
X105419030Y-82545671D01*
X105410765Y-82522572D01*
X105404804Y-82498773D01*
X105401204Y-82474505D01*
X105400000Y-82450001D01*
X105400000Y-81549999D01*
X105401204Y-81525495D01*
X105404804Y-81501227D01*
X105410765Y-81477428D01*
X105419030Y-81454329D01*
X105429520Y-81432150D01*
X105442132Y-81411107D01*
X105456747Y-81391401D01*
X105473223Y-81373223D01*
X105491401Y-81356747D01*
X105511107Y-81342132D01*
X105532150Y-81329520D01*
X105554329Y-81319030D01*
X105577428Y-81310765D01*
X105601227Y-81304804D01*
X105625495Y-81301204D01*
X105649999Y-81300000D01*
X106300001Y-81300000D01*
X106324505Y-81301204D01*
X106324505Y-81301204D01*
G37*
D16*
X105975000Y-82000000D03*
D10*
G36*
X108374505Y-81301204D02*
G01*
X108398773Y-81304804D01*
X108422572Y-81310765D01*
X108445671Y-81319030D01*
X108467850Y-81329520D01*
X108488893Y-81342132D01*
X108508599Y-81356747D01*
X108526777Y-81373223D01*
X108543253Y-81391401D01*
X108557868Y-81411107D01*
X108570480Y-81432150D01*
X108580970Y-81454329D01*
X108589235Y-81477428D01*
X108595196Y-81501227D01*
X108598796Y-81525495D01*
X108600000Y-81549999D01*
X108600000Y-82450001D01*
X108598796Y-82474505D01*
X108595196Y-82498773D01*
X108589235Y-82522572D01*
X108580970Y-82545671D01*
X108570480Y-82567850D01*
X108557868Y-82588893D01*
X108543253Y-82608599D01*
X108526777Y-82626777D01*
X108508599Y-82643253D01*
X108488893Y-82657868D01*
X108467850Y-82670480D01*
X108445671Y-82680970D01*
X108422572Y-82689235D01*
X108398773Y-82695196D01*
X108374505Y-82698796D01*
X108350001Y-82700000D01*
X107699999Y-82700000D01*
X107675495Y-82698796D01*
X107651227Y-82695196D01*
X107627428Y-82689235D01*
X107604329Y-82680970D01*
X107582150Y-82670480D01*
X107561107Y-82657868D01*
X107541401Y-82643253D01*
X107523223Y-82626777D01*
X107506747Y-82608599D01*
X107492132Y-82588893D01*
X107479520Y-82567850D01*
X107469030Y-82545671D01*
X107460765Y-82522572D01*
X107454804Y-82498773D01*
X107451204Y-82474505D01*
X107450000Y-82450001D01*
X107450000Y-81549999D01*
X107451204Y-81525495D01*
X107454804Y-81501227D01*
X107460765Y-81477428D01*
X107469030Y-81454329D01*
X107479520Y-81432150D01*
X107492132Y-81411107D01*
X107506747Y-81391401D01*
X107523223Y-81373223D01*
X107541401Y-81356747D01*
X107561107Y-81342132D01*
X107582150Y-81329520D01*
X107604329Y-81319030D01*
X107627428Y-81310765D01*
X107651227Y-81304804D01*
X107675495Y-81301204D01*
X107699999Y-81300000D01*
X108350001Y-81300000D01*
X108374505Y-81301204D01*
X108374505Y-81301204D01*
G37*
D16*
X108025000Y-82000000D03*
D10*
G36*
X93299505Y-95801204D02*
G01*
X93323773Y-95804804D01*
X93347572Y-95810765D01*
X93370671Y-95819030D01*
X93392850Y-95829520D01*
X93413893Y-95842132D01*
X93433599Y-95856747D01*
X93451777Y-95873223D01*
X93468253Y-95891401D01*
X93482868Y-95911107D01*
X93495480Y-95932150D01*
X93505970Y-95954329D01*
X93514235Y-95977428D01*
X93520196Y-96001227D01*
X93523796Y-96025495D01*
X93525000Y-96049999D01*
X93525000Y-96950001D01*
X93523796Y-96974505D01*
X93520196Y-96998773D01*
X93514235Y-97022572D01*
X93505970Y-97045671D01*
X93495480Y-97067850D01*
X93482868Y-97088893D01*
X93468253Y-97108599D01*
X93451777Y-97126777D01*
X93433599Y-97143253D01*
X93413893Y-97157868D01*
X93392850Y-97170480D01*
X93370671Y-97180970D01*
X93347572Y-97189235D01*
X93323773Y-97195196D01*
X93299505Y-97198796D01*
X93275001Y-97200000D01*
X92624999Y-97200000D01*
X92600495Y-97198796D01*
X92576227Y-97195196D01*
X92552428Y-97189235D01*
X92529329Y-97180970D01*
X92507150Y-97170480D01*
X92486107Y-97157868D01*
X92466401Y-97143253D01*
X92448223Y-97126777D01*
X92431747Y-97108599D01*
X92417132Y-97088893D01*
X92404520Y-97067850D01*
X92394030Y-97045671D01*
X92385765Y-97022572D01*
X92379804Y-96998773D01*
X92376204Y-96974505D01*
X92375000Y-96950001D01*
X92375000Y-96049999D01*
X92376204Y-96025495D01*
X92379804Y-96001227D01*
X92385765Y-95977428D01*
X92394030Y-95954329D01*
X92404520Y-95932150D01*
X92417132Y-95911107D01*
X92431747Y-95891401D01*
X92448223Y-95873223D01*
X92466401Y-95856747D01*
X92486107Y-95842132D01*
X92507150Y-95829520D01*
X92529329Y-95819030D01*
X92552428Y-95810765D01*
X92576227Y-95804804D01*
X92600495Y-95801204D01*
X92624999Y-95800000D01*
X93275001Y-95800000D01*
X93299505Y-95801204D01*
X93299505Y-95801204D01*
G37*
D16*
X92950000Y-96500000D03*
D10*
G36*
X95349505Y-95801204D02*
G01*
X95373773Y-95804804D01*
X95397572Y-95810765D01*
X95420671Y-95819030D01*
X95442850Y-95829520D01*
X95463893Y-95842132D01*
X95483599Y-95856747D01*
X95501777Y-95873223D01*
X95518253Y-95891401D01*
X95532868Y-95911107D01*
X95545480Y-95932150D01*
X95555970Y-95954329D01*
X95564235Y-95977428D01*
X95570196Y-96001227D01*
X95573796Y-96025495D01*
X95575000Y-96049999D01*
X95575000Y-96950001D01*
X95573796Y-96974505D01*
X95570196Y-96998773D01*
X95564235Y-97022572D01*
X95555970Y-97045671D01*
X95545480Y-97067850D01*
X95532868Y-97088893D01*
X95518253Y-97108599D01*
X95501777Y-97126777D01*
X95483599Y-97143253D01*
X95463893Y-97157868D01*
X95442850Y-97170480D01*
X95420671Y-97180970D01*
X95397572Y-97189235D01*
X95373773Y-97195196D01*
X95349505Y-97198796D01*
X95325001Y-97200000D01*
X94674999Y-97200000D01*
X94650495Y-97198796D01*
X94626227Y-97195196D01*
X94602428Y-97189235D01*
X94579329Y-97180970D01*
X94557150Y-97170480D01*
X94536107Y-97157868D01*
X94516401Y-97143253D01*
X94498223Y-97126777D01*
X94481747Y-97108599D01*
X94467132Y-97088893D01*
X94454520Y-97067850D01*
X94444030Y-97045671D01*
X94435765Y-97022572D01*
X94429804Y-96998773D01*
X94426204Y-96974505D01*
X94425000Y-96950001D01*
X94425000Y-96049999D01*
X94426204Y-96025495D01*
X94429804Y-96001227D01*
X94435765Y-95977428D01*
X94444030Y-95954329D01*
X94454520Y-95932150D01*
X94467132Y-95911107D01*
X94481747Y-95891401D01*
X94498223Y-95873223D01*
X94516401Y-95856747D01*
X94536107Y-95842132D01*
X94557150Y-95829520D01*
X94579329Y-95819030D01*
X94602428Y-95810765D01*
X94626227Y-95804804D01*
X94650495Y-95801204D01*
X94674999Y-95800000D01*
X95325001Y-95800000D01*
X95349505Y-95801204D01*
X95349505Y-95801204D01*
G37*
D16*
X95000000Y-96500000D03*
D14*
X111000000Y-68250000D03*
X111000000Y-73750000D03*
X108000000Y-68250000D03*
X108000000Y-73750000D03*
X111000000Y-92250000D03*
X111000000Y-86750000D03*
X108000000Y-86750000D03*
X108000000Y-92250000D03*
X125250000Y-90250000D03*
X125250000Y-84750000D03*
X125250000Y-66250000D03*
X125250000Y-71750000D03*
X105000000Y-73750000D03*
X105000000Y-68250000D03*
X86000000Y-97250000D03*
X86000000Y-91750000D03*
D10*
G36*
X93474505Y-93451204D02*
G01*
X93498773Y-93454804D01*
X93522572Y-93460765D01*
X93545671Y-93469030D01*
X93567850Y-93479520D01*
X93588893Y-93492132D01*
X93608599Y-93506747D01*
X93626777Y-93523223D01*
X93643253Y-93541401D01*
X93657868Y-93561107D01*
X93670480Y-93582150D01*
X93680970Y-93604329D01*
X93689235Y-93627428D01*
X93695196Y-93651227D01*
X93698796Y-93675495D01*
X93700000Y-93699999D01*
X93700000Y-94350001D01*
X93698796Y-94374505D01*
X93695196Y-94398773D01*
X93689235Y-94422572D01*
X93680970Y-94445671D01*
X93670480Y-94467850D01*
X93657868Y-94488893D01*
X93643253Y-94508599D01*
X93626777Y-94526777D01*
X93608599Y-94543253D01*
X93588893Y-94557868D01*
X93567850Y-94570480D01*
X93545671Y-94580970D01*
X93522572Y-94589235D01*
X93498773Y-94595196D01*
X93474505Y-94598796D01*
X93450001Y-94600000D01*
X92549999Y-94600000D01*
X92525495Y-94598796D01*
X92501227Y-94595196D01*
X92477428Y-94589235D01*
X92454329Y-94580970D01*
X92432150Y-94570480D01*
X92411107Y-94557868D01*
X92391401Y-94543253D01*
X92373223Y-94526777D01*
X92356747Y-94508599D01*
X92342132Y-94488893D01*
X92329520Y-94467850D01*
X92319030Y-94445671D01*
X92310765Y-94422572D01*
X92304804Y-94398773D01*
X92301204Y-94374505D01*
X92300000Y-94350001D01*
X92300000Y-93699999D01*
X92301204Y-93675495D01*
X92304804Y-93651227D01*
X92310765Y-93627428D01*
X92319030Y-93604329D01*
X92329520Y-93582150D01*
X92342132Y-93561107D01*
X92356747Y-93541401D01*
X92373223Y-93523223D01*
X92391401Y-93506747D01*
X92411107Y-93492132D01*
X92432150Y-93479520D01*
X92454329Y-93469030D01*
X92477428Y-93460765D01*
X92501227Y-93454804D01*
X92525495Y-93451204D01*
X92549999Y-93450000D01*
X93450001Y-93450000D01*
X93474505Y-93451204D01*
X93474505Y-93451204D01*
G37*
D16*
X93000000Y-94025000D03*
D10*
G36*
X93474505Y-91401204D02*
G01*
X93498773Y-91404804D01*
X93522572Y-91410765D01*
X93545671Y-91419030D01*
X93567850Y-91429520D01*
X93588893Y-91442132D01*
X93608599Y-91456747D01*
X93626777Y-91473223D01*
X93643253Y-91491401D01*
X93657868Y-91511107D01*
X93670480Y-91532150D01*
X93680970Y-91554329D01*
X93689235Y-91577428D01*
X93695196Y-91601227D01*
X93698796Y-91625495D01*
X93700000Y-91649999D01*
X93700000Y-92300001D01*
X93698796Y-92324505D01*
X93695196Y-92348773D01*
X93689235Y-92372572D01*
X93680970Y-92395671D01*
X93670480Y-92417850D01*
X93657868Y-92438893D01*
X93643253Y-92458599D01*
X93626777Y-92476777D01*
X93608599Y-92493253D01*
X93588893Y-92507868D01*
X93567850Y-92520480D01*
X93545671Y-92530970D01*
X93522572Y-92539235D01*
X93498773Y-92545196D01*
X93474505Y-92548796D01*
X93450001Y-92550000D01*
X92549999Y-92550000D01*
X92525495Y-92548796D01*
X92501227Y-92545196D01*
X92477428Y-92539235D01*
X92454329Y-92530970D01*
X92432150Y-92520480D01*
X92411107Y-92507868D01*
X92391401Y-92493253D01*
X92373223Y-92476777D01*
X92356747Y-92458599D01*
X92342132Y-92438893D01*
X92329520Y-92417850D01*
X92319030Y-92395671D01*
X92310765Y-92372572D01*
X92304804Y-92348773D01*
X92301204Y-92324505D01*
X92300000Y-92300001D01*
X92300000Y-91649999D01*
X92301204Y-91625495D01*
X92304804Y-91601227D01*
X92310765Y-91577428D01*
X92319030Y-91554329D01*
X92329520Y-91532150D01*
X92342132Y-91511107D01*
X92356747Y-91491401D01*
X92373223Y-91473223D01*
X92391401Y-91456747D01*
X92411107Y-91442132D01*
X92432150Y-91429520D01*
X92454329Y-91419030D01*
X92477428Y-91410765D01*
X92501227Y-91404804D01*
X92525495Y-91401204D01*
X92549999Y-91400000D01*
X93450001Y-91400000D01*
X93474505Y-91401204D01*
X93474505Y-91401204D01*
G37*
D16*
X93000000Y-91975000D03*
D10*
G36*
X90449505Y-96926204D02*
G01*
X90473773Y-96929804D01*
X90497572Y-96935765D01*
X90520671Y-96944030D01*
X90542850Y-96954520D01*
X90563893Y-96967132D01*
X90583599Y-96981747D01*
X90601777Y-96998223D01*
X90618253Y-97016401D01*
X90632868Y-97036107D01*
X90645480Y-97057150D01*
X90655970Y-97079329D01*
X90664235Y-97102428D01*
X90670196Y-97126227D01*
X90673796Y-97150495D01*
X90675000Y-97174999D01*
X90675000Y-98925001D01*
X90673796Y-98949505D01*
X90670196Y-98973773D01*
X90664235Y-98997572D01*
X90655970Y-99020671D01*
X90645480Y-99042850D01*
X90632868Y-99063893D01*
X90618253Y-99083599D01*
X90601777Y-99101777D01*
X90583599Y-99118253D01*
X90563893Y-99132868D01*
X90542850Y-99145480D01*
X90520671Y-99155970D01*
X90497572Y-99164235D01*
X90473773Y-99170196D01*
X90449505Y-99173796D01*
X90425001Y-99175000D01*
X88574999Y-99175000D01*
X88550495Y-99173796D01*
X88526227Y-99170196D01*
X88502428Y-99164235D01*
X88479329Y-99155970D01*
X88457150Y-99145480D01*
X88436107Y-99132868D01*
X88416401Y-99118253D01*
X88398223Y-99101777D01*
X88381747Y-99083599D01*
X88367132Y-99063893D01*
X88354520Y-99042850D01*
X88344030Y-99020671D01*
X88335765Y-98997572D01*
X88329804Y-98973773D01*
X88326204Y-98949505D01*
X88325000Y-98925001D01*
X88325000Y-97174999D01*
X88326204Y-97150495D01*
X88329804Y-97126227D01*
X88335765Y-97102428D01*
X88344030Y-97079329D01*
X88354520Y-97057150D01*
X88367132Y-97036107D01*
X88381747Y-97016401D01*
X88398223Y-96998223D01*
X88416401Y-96981747D01*
X88436107Y-96967132D01*
X88457150Y-96954520D01*
X88479329Y-96944030D01*
X88502428Y-96935765D01*
X88526227Y-96929804D01*
X88550495Y-96926204D01*
X88574999Y-96925000D01*
X90425001Y-96925000D01*
X90449505Y-96926204D01*
X90449505Y-96926204D01*
G37*
D17*
X89500000Y-98050000D03*
D10*
G36*
X90449505Y-91826204D02*
G01*
X90473773Y-91829804D01*
X90497572Y-91835765D01*
X90520671Y-91844030D01*
X90542850Y-91854520D01*
X90563893Y-91867132D01*
X90583599Y-91881747D01*
X90601777Y-91898223D01*
X90618253Y-91916401D01*
X90632868Y-91936107D01*
X90645480Y-91957150D01*
X90655970Y-91979329D01*
X90664235Y-92002428D01*
X90670196Y-92026227D01*
X90673796Y-92050495D01*
X90675000Y-92074999D01*
X90675000Y-93825001D01*
X90673796Y-93849505D01*
X90670196Y-93873773D01*
X90664235Y-93897572D01*
X90655970Y-93920671D01*
X90645480Y-93942850D01*
X90632868Y-93963893D01*
X90618253Y-93983599D01*
X90601777Y-94001777D01*
X90583599Y-94018253D01*
X90563893Y-94032868D01*
X90542850Y-94045480D01*
X90520671Y-94055970D01*
X90497572Y-94064235D01*
X90473773Y-94070196D01*
X90449505Y-94073796D01*
X90425001Y-94075000D01*
X88574999Y-94075000D01*
X88550495Y-94073796D01*
X88526227Y-94070196D01*
X88502428Y-94064235D01*
X88479329Y-94055970D01*
X88457150Y-94045480D01*
X88436107Y-94032868D01*
X88416401Y-94018253D01*
X88398223Y-94001777D01*
X88381747Y-93983599D01*
X88367132Y-93963893D01*
X88354520Y-93942850D01*
X88344030Y-93920671D01*
X88335765Y-93897572D01*
X88329804Y-93873773D01*
X88326204Y-93849505D01*
X88325000Y-93825001D01*
X88325000Y-92074999D01*
X88326204Y-92050495D01*
X88329804Y-92026227D01*
X88335765Y-92002428D01*
X88344030Y-91979329D01*
X88354520Y-91957150D01*
X88367132Y-91936107D01*
X88381747Y-91916401D01*
X88398223Y-91898223D01*
X88416401Y-91881747D01*
X88436107Y-91867132D01*
X88457150Y-91854520D01*
X88479329Y-91844030D01*
X88502428Y-91835765D01*
X88526227Y-91829804D01*
X88550495Y-91826204D01*
X88574999Y-91825000D01*
X90425001Y-91825000D01*
X90449505Y-91826204D01*
X90449505Y-91826204D01*
G37*
D17*
X89500000Y-92950000D03*
D10*
G36*
X93474505Y-86901204D02*
G01*
X93498773Y-86904804D01*
X93522572Y-86910765D01*
X93545671Y-86919030D01*
X93567850Y-86929520D01*
X93588893Y-86942132D01*
X93608599Y-86956747D01*
X93626777Y-86973223D01*
X93643253Y-86991401D01*
X93657868Y-87011107D01*
X93670480Y-87032150D01*
X93680970Y-87054329D01*
X93689235Y-87077428D01*
X93695196Y-87101227D01*
X93698796Y-87125495D01*
X93700000Y-87149999D01*
X93700000Y-87800001D01*
X93698796Y-87824505D01*
X93695196Y-87848773D01*
X93689235Y-87872572D01*
X93680970Y-87895671D01*
X93670480Y-87917850D01*
X93657868Y-87938893D01*
X93643253Y-87958599D01*
X93626777Y-87976777D01*
X93608599Y-87993253D01*
X93588893Y-88007868D01*
X93567850Y-88020480D01*
X93545671Y-88030970D01*
X93522572Y-88039235D01*
X93498773Y-88045196D01*
X93474505Y-88048796D01*
X93450001Y-88050000D01*
X92549999Y-88050000D01*
X92525495Y-88048796D01*
X92501227Y-88045196D01*
X92477428Y-88039235D01*
X92454329Y-88030970D01*
X92432150Y-88020480D01*
X92411107Y-88007868D01*
X92391401Y-87993253D01*
X92373223Y-87976777D01*
X92356747Y-87958599D01*
X92342132Y-87938893D01*
X92329520Y-87917850D01*
X92319030Y-87895671D01*
X92310765Y-87872572D01*
X92304804Y-87848773D01*
X92301204Y-87824505D01*
X92300000Y-87800001D01*
X92300000Y-87149999D01*
X92301204Y-87125495D01*
X92304804Y-87101227D01*
X92310765Y-87077428D01*
X92319030Y-87054329D01*
X92329520Y-87032150D01*
X92342132Y-87011107D01*
X92356747Y-86991401D01*
X92373223Y-86973223D01*
X92391401Y-86956747D01*
X92411107Y-86942132D01*
X92432150Y-86929520D01*
X92454329Y-86919030D01*
X92477428Y-86910765D01*
X92501227Y-86904804D01*
X92525495Y-86901204D01*
X92549999Y-86900000D01*
X93450001Y-86900000D01*
X93474505Y-86901204D01*
X93474505Y-86901204D01*
G37*
D16*
X93000000Y-87475000D03*
D10*
G36*
X93474505Y-88951204D02*
G01*
X93498773Y-88954804D01*
X93522572Y-88960765D01*
X93545671Y-88969030D01*
X93567850Y-88979520D01*
X93588893Y-88992132D01*
X93608599Y-89006747D01*
X93626777Y-89023223D01*
X93643253Y-89041401D01*
X93657868Y-89061107D01*
X93670480Y-89082150D01*
X93680970Y-89104329D01*
X93689235Y-89127428D01*
X93695196Y-89151227D01*
X93698796Y-89175495D01*
X93700000Y-89199999D01*
X93700000Y-89850001D01*
X93698796Y-89874505D01*
X93695196Y-89898773D01*
X93689235Y-89922572D01*
X93680970Y-89945671D01*
X93670480Y-89967850D01*
X93657868Y-89988893D01*
X93643253Y-90008599D01*
X93626777Y-90026777D01*
X93608599Y-90043253D01*
X93588893Y-90057868D01*
X93567850Y-90070480D01*
X93545671Y-90080970D01*
X93522572Y-90089235D01*
X93498773Y-90095196D01*
X93474505Y-90098796D01*
X93450001Y-90100000D01*
X92549999Y-90100000D01*
X92525495Y-90098796D01*
X92501227Y-90095196D01*
X92477428Y-90089235D01*
X92454329Y-90080970D01*
X92432150Y-90070480D01*
X92411107Y-90057868D01*
X92391401Y-90043253D01*
X92373223Y-90026777D01*
X92356747Y-90008599D01*
X92342132Y-89988893D01*
X92329520Y-89967850D01*
X92319030Y-89945671D01*
X92310765Y-89922572D01*
X92304804Y-89898773D01*
X92301204Y-89874505D01*
X92300000Y-89850001D01*
X92300000Y-89199999D01*
X92301204Y-89175495D01*
X92304804Y-89151227D01*
X92310765Y-89127428D01*
X92319030Y-89104329D01*
X92329520Y-89082150D01*
X92342132Y-89061107D01*
X92356747Y-89041401D01*
X92373223Y-89023223D01*
X92391401Y-89006747D01*
X92411107Y-88992132D01*
X92432150Y-88979520D01*
X92454329Y-88969030D01*
X92477428Y-88960765D01*
X92501227Y-88954804D01*
X92525495Y-88951204D01*
X92549999Y-88950000D01*
X93450001Y-88950000D01*
X93474505Y-88951204D01*
X93474505Y-88951204D01*
G37*
D16*
X93000000Y-89525000D03*
M02*
