M48
; DRILL file {KiCad 5.1.4} date Sat 26 Oct 2019 12:18:43 AM -03
; FORMAT={-:-/ absolute / inch / decimal}
; #@! TF.CreationDate,2019-10-26T00:18:43-03:00
; #@! TF.GenerationSoftware,Kicad,Pcbnew,5.1.4
FMAT,2
INCH
T1C0.0236
T2C0.0315
T3C0.0394
T4C0.0472
T5C0.0591
T6C0.0630
T7C0.0787
T8C0.2087
T9C0.1260
T10C0.1417
%
G90
G05
T1
X2.0876Y-2.4803
X2.1334Y-2.3697
X2.1334Y-2.591
X2.2441Y-2.3238
X2.2441Y-2.6368
X2.3548Y-2.3697
X2.3548Y-2.591
X2.4006Y-2.4803
X2.0876Y-3.2283
X2.1334Y-3.1177
X2.1334Y-3.339
X2.2441Y-3.0719
X2.2441Y-3.3848
X2.3548Y-3.1177
X2.3548Y-3.339
X2.4006Y-3.2283
X2.0876Y-3.9961
X2.1334Y-3.8854
X2.1334Y-4.1067
X2.2441Y-3.8396
X2.2441Y-4.1526
X2.3548Y-3.8854
X2.3548Y-4.1067
X2.4006Y-3.9961
X2.0876Y-4.7047
X2.1334Y-4.5941
X2.1334Y-4.8154
X2.2441Y-4.5482
X2.2441Y-4.8612
X2.3548Y-4.5941
X2.3548Y-4.8154
X2.4006Y-4.7047
T2
X3.3465Y-3.4646
X3.4995Y-3.9326
X3.8091Y-3.7598
X3.9114Y-3.3218
X3.9173Y-3.878
X4.0367Y-3.3268
X4.7244Y-4.1929
X4.9213Y-4.311
X5.748Y-3.3465
X5.935Y-2.8248
X5.9449Y-3.3071
X5.9508Y-3.1555
X6.5354Y-3.189
X6.6503Y-2.7592
X6.6732Y-4.1339
X6.7126Y-3.3661
X6.752Y-3.937
X6.7684Y-2.7985
X6.8307Y-3.3661
X6.8898Y-4.7638
X6.9291Y-4.1535
X7.2441Y-4.9213
X7.5591Y-4.1339
X7.5591Y-4.2323
X7.7165Y-4.9409
X7.9724Y-2.7559
X7.9724Y-3.4646
X8.0118Y-4.626
X8.0118Y-4.7047
X8.189Y-3.8583
X8.3465Y-4.4882
X8.4646Y-4.4882
X8.8991Y-3.5497
X8.9003Y-3.6487
X8.9035Y-3.3051
X9.0323Y-4.1559
X9.0453Y-3.3524
X9.0453Y-3.5497
X9.0453Y-3.9837
X9.1244Y-3.5497
X9.1244Y-3.6487
X9.1289Y-3.4005
X7.7165Y-4.4276
X7.7165Y-4.5276
X7.7165Y-4.6276
X7.7165Y-4.7276
X9.22Y-3.8042
X9.22Y-3.9042
X9.22Y-4.0042
X9.22Y-4.1042
X9.32Y-3.8542
X9.32Y-3.9542
X9.32Y-4.0542
X9.32Y-4.1542
X8.021Y-4.0093
X8.021Y-4.2014
X7.6022Y-3.7631
X7.6022Y-3.9553
X7.0484Y-3.4618
X7.0484Y-3.5618
X7.0484Y-3.6618
X7.0484Y-3.7618
X7.0484Y-3.8618
X7.0484Y-3.9618
X7.0484Y-4.0618
X7.0484Y-4.1618
X7.0484Y-4.2618
X7.0484Y-4.3618
X7.0484Y-4.4618
X7.0484Y-4.5618
X7.0484Y-4.6618
X7.0484Y-4.7618
X7.3484Y-3.4618
X7.3484Y-3.5618
X7.3484Y-3.6618
X7.3484Y-3.7618
X7.3484Y-3.8618
X7.3484Y-3.9618
X7.3484Y-4.0618
X7.3484Y-4.1618
X7.3484Y-4.2618
X7.3484Y-4.3618
X7.3484Y-4.4618
X7.3484Y-4.5618
X7.3484Y-4.6618
X7.3484Y-4.7618
X9.2198Y-2.9831
X9.2198Y-3.0831
X9.2198Y-3.1831
X9.2198Y-3.2831
X9.3198Y-3.0331
X9.3198Y-3.1331
X9.3198Y-3.2331
X9.3198Y-3.3331
T3
X7.7165Y-3.4744
X7.7165Y-3.5744
T4
X4.4587Y-4.2913
X4.4587Y-4.4882
X3.3858Y-4.2913
X3.3858Y-4.4882
X2.8346Y-4.2913
X2.8346Y-4.4882
X3.9173Y-4.2913
X3.9173Y-4.4882
T5
X4.5669Y-2.4409
X4.5669Y-2.6555
X4.5669Y-2.8701
X4.5669Y-3.1693
X4.5669Y-3.3839
X4.5669Y-3.5984
T6
X9.4498Y-2.853
X9.4498Y-3.4632
X9.4499Y-3.6741
X9.4499Y-4.2843
T7
X5.315Y-4.6654
X6.4438Y-4.6715
X3.2677Y-2.5984
X3.2677Y-2.9921
T8
X2.2441Y-2.4803
X2.2441Y-3.2283
X2.2441Y-3.9961
X2.2441Y-4.7047
T9
X9.5698Y-2.9331
X9.5698Y-3.3831
X9.57Y-3.7542
X9.57Y-4.2042
T10
X5.3488Y-2.6555
X5.3488Y-3.3839
T0
M30
