G04 #@! TF.GenerationSoftware,KiCad,Pcbnew,5.1.4*
G04 #@! TF.CreationDate,2019-10-29T22:35:46-03:00*
G04 #@! TF.ProjectId,MCB19_panel,4d434231-395f-4706-916e-656c2e6b6963,rev?*
G04 #@! TF.SameCoordinates,Original*
G04 #@! TF.FileFunction,Other,User*
%FSLAX46Y46*%
G04 Gerber Fmt 4.6, Leading zero omitted, Abs format (unit mm)*
G04 Created by KiCad (PCBNEW 5.1.4) date 2019-10-29 22:35:46*
%MOMM*%
%LPD*%
G04 APERTURE LIST*
%ADD10C,0.050000*%
G04 APERTURE END LIST*
D10*
X168255000Y-162410000D02*
X168255000Y-164310000D01*
X168255000Y-164310000D02*
X171955000Y-164310000D01*
X171955000Y-164310000D02*
X171955000Y-162410000D01*
X171955000Y-162410000D02*
X168255000Y-162410000D01*
X110060000Y-128250000D02*
X107820000Y-128250000D01*
X107820000Y-128250000D02*
X107820000Y-133150000D01*
X107820000Y-133150000D02*
X110060000Y-133150000D01*
X110060000Y-133150000D02*
X110060000Y-128250000D01*
X149080000Y-140660000D02*
X149080000Y-146060000D01*
X149080000Y-146060000D02*
X141680000Y-146060000D01*
X141680000Y-146060000D02*
X141680000Y-140660000D01*
X141680000Y-140660000D02*
X149080000Y-140660000D01*
X168255000Y-167660000D02*
X168255000Y-169560000D01*
X168255000Y-169560000D02*
X171955000Y-169560000D01*
X171955000Y-169560000D02*
X171955000Y-167660000D01*
X171955000Y-167660000D02*
X168255000Y-167660000D01*
X107190000Y-128250000D02*
X104950000Y-128250000D01*
X104950000Y-128250000D02*
X104950000Y-133150000D01*
X104950000Y-133150000D02*
X107190000Y-133150000D01*
X107190000Y-133150000D02*
X107190000Y-128250000D01*
X64290000Y-179410000D02*
X64290000Y-182510000D01*
X87190000Y-179410000D02*
X64290000Y-179410000D01*
X64290000Y-189310000D02*
X87190000Y-189310000D01*
X64290000Y-186210000D02*
X64290000Y-189310000D01*
X87190000Y-186210000D02*
X87190000Y-189310000D01*
X87190000Y-182510000D02*
X87190000Y-179410000D01*
X87190000Y-186210000D02*
X87440000Y-186210000D01*
X88890000Y-183910000D02*
X88890000Y-184810000D01*
X88890000Y-184810000D02*
X88490000Y-185610000D01*
X88490000Y-185610000D02*
X87790000Y-186110000D01*
X87790000Y-186110000D02*
X87440000Y-186210000D01*
X87190000Y-182510000D02*
X87440000Y-182510000D01*
X87440000Y-182510000D02*
X87790000Y-182610000D01*
X87790000Y-182610000D02*
X88490000Y-183110000D01*
X88490000Y-183110000D02*
X88890000Y-183910000D01*
X64290000Y-186210000D02*
X64040000Y-186210000D01*
X64040000Y-186210000D02*
X63690000Y-186110000D01*
X63690000Y-186110000D02*
X62990000Y-185610000D01*
X62590000Y-184810000D02*
X62590000Y-183910000D01*
X62990000Y-183110000D02*
X63690000Y-182610000D01*
X63690000Y-182610000D02*
X64040000Y-182510000D01*
X64040000Y-182510000D02*
X64290000Y-182510000D01*
X62990000Y-183110000D02*
X62590000Y-183910000D01*
X62590000Y-184810000D02*
X62990000Y-185610000D01*
X142030000Y-133160000D02*
X142030000Y-140060000D01*
X142030000Y-140060000D02*
X148730000Y-140060000D01*
X148730000Y-140060000D02*
X148730000Y-133160000D01*
X148730000Y-133160000D02*
X142030000Y-133160000D01*
X102090000Y-128900000D02*
X100190000Y-128900000D01*
X100190000Y-128900000D02*
X100190000Y-132600000D01*
X100190000Y-132600000D02*
X102090000Y-132600000D01*
X102090000Y-132600000D02*
X102090000Y-128900000D01*
X203630000Y-175860000D02*
X203630000Y-172860000D01*
X203630000Y-175860000D02*
X200630000Y-175860000D01*
X200630000Y-172860000D02*
X203630000Y-172860000D01*
X200630000Y-172860000D02*
X200630000Y-175860000D01*
X224130000Y-170860000D02*
X224130000Y-167860000D01*
X224130000Y-170860000D02*
X221130000Y-170860000D01*
X221130000Y-167860000D02*
X224130000Y-167860000D01*
X221130000Y-167860000D02*
X221130000Y-170860000D01*
X224130000Y-167860000D02*
X224130000Y-164860000D01*
X224130000Y-167860000D02*
X221130000Y-167860000D01*
X221130000Y-164860000D02*
X224130000Y-164860000D01*
X221130000Y-164860000D02*
X221130000Y-167860000D01*
X203630000Y-184860000D02*
X203630000Y-181860000D01*
X203630000Y-184860000D02*
X200630000Y-184860000D01*
X200630000Y-181860000D02*
X203630000Y-181860000D01*
X200630000Y-181860000D02*
X200630000Y-184860000D01*
X178630000Y-143360000D02*
X175630000Y-143360000D01*
X178630000Y-143360000D02*
X178630000Y-146360000D01*
X175630000Y-146360000D02*
X175630000Y-143360000D01*
X175630000Y-146360000D02*
X178630000Y-146360000D01*
X223630000Y-175860000D02*
X220630000Y-175860000D01*
X223630000Y-175860000D02*
X223630000Y-178860000D01*
X220630000Y-178860000D02*
X220630000Y-175860000D01*
X220630000Y-178860000D02*
X223630000Y-178860000D01*
X220630000Y-181860000D02*
X223630000Y-181860000D01*
X220630000Y-181860000D02*
X220630000Y-178860000D01*
X223630000Y-178860000D02*
X223630000Y-181860000D01*
X223630000Y-178860000D02*
X220630000Y-178860000D01*
X224130000Y-164860000D02*
X224130000Y-161860000D01*
X224130000Y-164860000D02*
X221130000Y-164860000D01*
X221130000Y-161860000D02*
X224130000Y-161860000D01*
X221130000Y-161860000D02*
X221130000Y-164860000D01*
X224130000Y-173860000D02*
X224130000Y-170860000D01*
X224130000Y-173860000D02*
X221130000Y-173860000D01*
X221130000Y-170860000D02*
X224130000Y-170860000D01*
X221130000Y-170860000D02*
X221130000Y-173860000D01*
X191306000Y-175314000D02*
X187606000Y-175314000D01*
X191306000Y-177214000D02*
X191306000Y-175314000D01*
X187606000Y-177214000D02*
X191306000Y-177214000D01*
X187606000Y-175314000D02*
X187606000Y-177214000D01*
X191306000Y-177854000D02*
X187606000Y-177854000D01*
X191306000Y-179754000D02*
X191306000Y-177854000D01*
X187606000Y-179754000D02*
X191306000Y-179754000D01*
X187606000Y-177854000D02*
X187606000Y-179754000D01*
X193400000Y-182910000D02*
X189700000Y-182910000D01*
X193400000Y-184810000D02*
X193400000Y-182910000D01*
X189700000Y-184810000D02*
X193400000Y-184810000D01*
X189700000Y-182910000D02*
X189700000Y-184810000D01*
X226080000Y-180710000D02*
X226080000Y-177010000D01*
X224180000Y-180710000D02*
X226080000Y-180710000D01*
X224180000Y-177010000D02*
X224180000Y-180710000D01*
X226080000Y-177010000D02*
X224180000Y-177010000D01*
X206280000Y-183810000D02*
X209980000Y-183810000D01*
X206280000Y-181910000D02*
X206280000Y-183810000D01*
X209980000Y-181910000D02*
X206280000Y-181910000D01*
X209980000Y-183810000D02*
X209980000Y-181910000D01*
X220480000Y-173410000D02*
X216780000Y-173410000D01*
X220480000Y-175310000D02*
X220480000Y-173410000D01*
X216780000Y-175310000D02*
X220480000Y-175310000D01*
X216780000Y-173410000D02*
X216780000Y-175310000D01*
X202900000Y-176160000D02*
X210360000Y-176160000D01*
X202900000Y-181560000D02*
X210360000Y-181560000D01*
X210360000Y-181560000D02*
X210360000Y-176160000D01*
X202900000Y-181560000D02*
X202900000Y-176160000D01*
X211980000Y-115260000D02*
X211980000Y-117460000D01*
X221280000Y-115260000D02*
X211980000Y-115260000D01*
X221280000Y-117460000D02*
X221280000Y-115260000D01*
X211980000Y-117460000D02*
X221280000Y-117460000D01*
X192330000Y-187610000D02*
X192330000Y-185410000D01*
X183030000Y-187610000D02*
X192330000Y-187610000D01*
X183030000Y-185410000D02*
X183030000Y-187610000D01*
X192330000Y-185410000D02*
X183030000Y-185410000D01*
X174680000Y-125985000D02*
X174680000Y-129685000D01*
X176580000Y-125985000D02*
X174680000Y-125985000D01*
X176580000Y-129685000D02*
X176580000Y-125985000D01*
X174680000Y-129685000D02*
X176580000Y-129685000D01*
X172580000Y-121710000D02*
X172580000Y-118010000D01*
X170680000Y-121710000D02*
X172580000Y-121710000D01*
X170680000Y-118010000D02*
X170680000Y-121710000D01*
X172580000Y-118010000D02*
X170680000Y-118010000D01*
X183030000Y-184860000D02*
X186730000Y-184860000D01*
X183030000Y-182960000D02*
X183030000Y-184860000D01*
X186730000Y-182960000D02*
X183030000Y-182960000D01*
X186730000Y-184860000D02*
X186730000Y-182960000D01*
X187606000Y-163879000D02*
X191306000Y-163879000D01*
X187606000Y-161979000D02*
X187606000Y-163879000D01*
X191306000Y-161979000D02*
X187606000Y-161979000D01*
X191306000Y-163879000D02*
X191306000Y-161979000D01*
X192576000Y-157534000D02*
X188876000Y-157534000D01*
X192576000Y-159434000D02*
X192576000Y-157534000D01*
X188876000Y-159434000D02*
X192576000Y-159434000D01*
X188876000Y-157534000D02*
X188876000Y-159434000D01*
X178680000Y-163010000D02*
X178680000Y-166710000D01*
X180580000Y-163010000D02*
X178680000Y-163010000D01*
X180580000Y-166710000D02*
X180580000Y-163010000D01*
X178680000Y-166710000D02*
X180580000Y-166710000D01*
X186180000Y-164010000D02*
X186180000Y-167710000D01*
X188080000Y-164010000D02*
X186180000Y-164010000D01*
X188080000Y-167710000D02*
X188080000Y-164010000D01*
X186180000Y-167710000D02*
X188080000Y-167710000D01*
X214780000Y-177310000D02*
X218480000Y-177310000D01*
X214780000Y-175410000D02*
X214780000Y-177310000D01*
X218480000Y-175410000D02*
X214780000Y-175410000D01*
X218480000Y-177310000D02*
X218480000Y-175410000D01*
X205754000Y-159776000D02*
X202054000Y-159776000D01*
X205754000Y-161676000D02*
X205754000Y-159776000D01*
X202054000Y-161676000D02*
X205754000Y-161676000D01*
X202054000Y-159776000D02*
X202054000Y-161676000D01*
X199904000Y-165486000D02*
X203604000Y-165486000D01*
X199904000Y-163586000D02*
X199904000Y-165486000D01*
X203604000Y-163586000D02*
X199904000Y-163586000D01*
X203604000Y-165486000D02*
X203604000Y-163586000D01*
X212780000Y-175310000D02*
X216480000Y-175310000D01*
X212780000Y-173410000D02*
X212780000Y-175310000D01*
X216480000Y-173410000D02*
X212780000Y-173410000D01*
X216480000Y-175310000D02*
X216480000Y-173410000D01*
X198080000Y-151475000D02*
X198080000Y-147775000D01*
X196180000Y-151475000D02*
X198080000Y-151475000D01*
X196180000Y-147775000D02*
X196180000Y-151475000D01*
X198080000Y-147775000D02*
X196180000Y-147775000D01*
X227080000Y-115240000D02*
X222180000Y-115240000D01*
X227080000Y-117480000D02*
X227080000Y-115240000D01*
X222180000Y-117480000D02*
X227080000Y-117480000D01*
X222180000Y-115240000D02*
X222180000Y-117480000D01*
X220880000Y-149260000D02*
X226280000Y-149260000D01*
X226280000Y-149260000D02*
X226280000Y-145760000D01*
X226280000Y-145760000D02*
X220880000Y-145760000D01*
X220880000Y-145760000D02*
X220880000Y-149260000D01*
X145604000Y-118610000D02*
X166564000Y-118610000D01*
X166564000Y-118610000D02*
X166564000Y-129110000D01*
X166564000Y-129110000D02*
X145604000Y-129110000D01*
X145604000Y-129110000D02*
X145604000Y-118610000D01*
X169780000Y-130280000D02*
X173480000Y-130280000D01*
X173480000Y-130280000D02*
X173480000Y-122440000D01*
X173480000Y-122440000D02*
X169780000Y-122440000D01*
X169780000Y-122440000D02*
X169780000Y-130280000D01*
X177480000Y-125230000D02*
X177480000Y-117390000D01*
X173780000Y-125230000D02*
X177480000Y-125230000D01*
X173780000Y-117390000D02*
X173780000Y-125230000D01*
X177480000Y-117390000D02*
X173780000Y-117390000D01*
X190155000Y-149960000D02*
X186455000Y-149960000D01*
X190155000Y-151860000D02*
X190155000Y-149960000D01*
X186455000Y-151860000D02*
X190155000Y-151860000D01*
X186455000Y-149960000D02*
X186455000Y-151860000D01*
X187780000Y-149560000D02*
X191480000Y-149560000D01*
X187780000Y-147660000D02*
X187780000Y-149560000D01*
X191480000Y-147660000D02*
X187780000Y-147660000D01*
X191480000Y-149560000D02*
X191480000Y-147660000D01*
X196180000Y-152035000D02*
X196180000Y-155735000D01*
X198080000Y-152035000D02*
X196180000Y-152035000D01*
X198080000Y-155735000D02*
X198080000Y-152035000D01*
X196180000Y-155735000D02*
X198080000Y-155735000D01*
X179104000Y-129110000D02*
X179104000Y-118610000D01*
X200064000Y-129110000D02*
X179104000Y-129110000D01*
X200064000Y-118610000D02*
X200064000Y-129110000D01*
X179104000Y-118610000D02*
X200064000Y-118610000D01*
X211980000Y-117760000D02*
X211980000Y-119960000D01*
X221280000Y-117760000D02*
X211980000Y-117760000D01*
X221280000Y-119960000D02*
X221280000Y-117760000D01*
X211980000Y-119960000D02*
X221280000Y-119960000D01*
X210980000Y-125230000D02*
X210980000Y-117390000D01*
X207280000Y-125230000D02*
X210980000Y-125230000D01*
X207280000Y-117390000D02*
X207280000Y-125230000D01*
X210980000Y-117390000D02*
X207280000Y-117390000D01*
X203280000Y-130330000D02*
X206980000Y-130330000D01*
X206980000Y-130330000D02*
X206980000Y-122490000D01*
X206980000Y-122490000D02*
X203280000Y-122490000D01*
X203280000Y-122490000D02*
X203280000Y-130330000D01*
X206080000Y-121710000D02*
X206080000Y-118010000D01*
X204180000Y-121710000D02*
X206080000Y-121710000D01*
X204180000Y-118010000D02*
X204180000Y-121710000D01*
X206080000Y-118010000D02*
X204180000Y-118010000D01*
X208180000Y-129735000D02*
X210080000Y-129735000D01*
X210080000Y-129735000D02*
X210080000Y-126035000D01*
X210080000Y-126035000D02*
X208180000Y-126035000D01*
X208180000Y-126035000D02*
X208180000Y-129735000D01*
X171955000Y-172185000D02*
X171955000Y-170285000D01*
X171955000Y-170285000D02*
X168255000Y-170285000D01*
X168255000Y-170285000D02*
X168255000Y-172185000D01*
X168255000Y-172185000D02*
X171955000Y-172185000D01*
X111130000Y-136010000D02*
X111130000Y-119610000D01*
X139910000Y-136010000D02*
X111130000Y-136010000D01*
X139910000Y-119610000D02*
X139910000Y-136010000D01*
X111130000Y-119610000D02*
X139910000Y-119610000D01*
X119180000Y-173685000D02*
X121080000Y-173685000D01*
X121080000Y-173685000D02*
X121080000Y-169985000D01*
X121080000Y-169985000D02*
X119180000Y-169985000D01*
X119180000Y-169985000D02*
X119180000Y-173685000D01*
X187580000Y-182260000D02*
X191280000Y-182260000D01*
X187580000Y-180360000D02*
X187580000Y-182260000D01*
X191280000Y-180360000D02*
X187580000Y-180360000D01*
X191280000Y-182260000D02*
X191280000Y-180360000D01*
X165680000Y-142690000D02*
X165680000Y-133530000D01*
X165680000Y-133530000D02*
X173080000Y-133530000D01*
X173080000Y-133530000D02*
X173080000Y-142690000D01*
X173080000Y-142690000D02*
X165680000Y-142690000D01*
X206209000Y-160926000D02*
X218109000Y-160926000D01*
X206209000Y-173226000D02*
X218109000Y-173226000D01*
X218109000Y-173226000D02*
X218109000Y-160926000D01*
X206209000Y-173226000D02*
X206209000Y-160926000D01*
X171955000Y-174810000D02*
X171955000Y-172910000D01*
X171955000Y-172910000D02*
X168255000Y-172910000D01*
X168255000Y-172910000D02*
X168255000Y-174810000D01*
X168255000Y-174810000D02*
X171955000Y-174810000D01*
X168255000Y-165035000D02*
X168255000Y-166935000D01*
X168255000Y-166935000D02*
X171955000Y-166935000D01*
X171955000Y-166935000D02*
X171955000Y-165035000D01*
X171955000Y-165035000D02*
X168255000Y-165035000D01*
X111130000Y-154510000D02*
X111130000Y-138110000D01*
X139910000Y-154510000D02*
X111130000Y-154510000D01*
X139910000Y-138110000D02*
X139910000Y-154510000D01*
X111130000Y-138110000D02*
X139910000Y-138110000D01*
X148730000Y-148310000D02*
X148730000Y-146410000D01*
X148730000Y-146410000D02*
X145030000Y-146410000D01*
X145030000Y-146410000D02*
X145030000Y-148310000D01*
X145030000Y-148310000D02*
X148730000Y-148310000D01*
X121080000Y-166010000D02*
X119180000Y-166010000D01*
X119180000Y-166010000D02*
X119180000Y-169710000D01*
X119180000Y-169710000D02*
X121080000Y-169710000D01*
X121080000Y-169710000D02*
X121080000Y-166010000D01*
X170955000Y-144810000D02*
X170955000Y-142910000D01*
X170955000Y-142910000D02*
X167255000Y-142910000D01*
X167255000Y-142910000D02*
X167255000Y-144810000D01*
X167255000Y-144810000D02*
X170955000Y-144810000D01*
X87190000Y-123720000D02*
X87190000Y-120620000D01*
X64290000Y-123720000D02*
X87190000Y-123720000D01*
X87190000Y-113820000D02*
X64290000Y-113820000D01*
X87190000Y-116920000D02*
X87190000Y-113820000D01*
X64290000Y-116920000D02*
X64290000Y-113820000D01*
X64290000Y-120620000D02*
X64290000Y-123720000D01*
X64290000Y-116920000D02*
X64040000Y-116920000D01*
X62590000Y-119220000D02*
X62590000Y-118320000D01*
X62590000Y-118320000D02*
X62990000Y-117520000D01*
X62990000Y-117520000D02*
X63690000Y-117020000D01*
X63690000Y-117020000D02*
X64040000Y-116920000D01*
X64290000Y-120620000D02*
X64040000Y-120620000D01*
X64040000Y-120620000D02*
X63690000Y-120520000D01*
X63690000Y-120520000D02*
X62990000Y-120020000D01*
X62990000Y-120020000D02*
X62590000Y-119220000D01*
X87190000Y-116920000D02*
X87440000Y-116920000D01*
X87440000Y-116920000D02*
X87790000Y-117020000D01*
X87790000Y-117020000D02*
X88490000Y-117520000D01*
X88890000Y-118320000D02*
X88890000Y-119220000D01*
X88490000Y-120020000D02*
X87790000Y-120520000D01*
X87790000Y-120520000D02*
X87440000Y-120620000D01*
X87440000Y-120620000D02*
X87190000Y-120620000D01*
X88490000Y-120020000D02*
X88890000Y-119220000D01*
X88890000Y-118320000D02*
X88490000Y-117520000D01*
X131984999Y-174290000D02*
X133884999Y-174290000D01*
X133884999Y-174290000D02*
X133884999Y-170590000D01*
X133884999Y-170590000D02*
X131984999Y-170590000D01*
X131984999Y-170590000D02*
X131984999Y-174290000D01*
X134280000Y-174290000D02*
X136180000Y-174290000D01*
X136180000Y-174290000D02*
X136180000Y-170590000D01*
X136180000Y-170590000D02*
X134280000Y-170590000D01*
X134280000Y-170590000D02*
X134280000Y-174290000D01*
X126310000Y-174860000D02*
X128550000Y-174860000D01*
X128550000Y-174860000D02*
X128550000Y-169960000D01*
X128550000Y-169960000D02*
X126310000Y-169960000D01*
X126310000Y-169960000D02*
X126310000Y-174860000D01*
X129180000Y-174860000D02*
X131420000Y-174860000D01*
X131420000Y-174860000D02*
X131420000Y-169960000D01*
X131420000Y-169960000D02*
X129180000Y-169960000D01*
X129180000Y-169960000D02*
X129180000Y-174860000D01*
X104385001Y-128900000D02*
X102485001Y-128900000D01*
X102485001Y-128900000D02*
X102485001Y-132600000D01*
X102485001Y-132600000D02*
X104385001Y-132600000D01*
X104385001Y-132600000D02*
X104385001Y-128900000D01*
X62590000Y-94810000D02*
X62990000Y-95610000D01*
X62990000Y-93110000D02*
X62590000Y-93910000D01*
X64040000Y-92510000D02*
X64290000Y-92510000D01*
X63690000Y-92610000D02*
X64040000Y-92510000D01*
X62990000Y-93110000D02*
X63690000Y-92610000D01*
X62590000Y-94810000D02*
X62590000Y-93910000D01*
X63690000Y-96110000D02*
X62990000Y-95610000D01*
X64040000Y-96210000D02*
X63690000Y-96110000D01*
X64290000Y-96210000D02*
X64040000Y-96210000D01*
X88490000Y-93110000D02*
X88890000Y-93910000D01*
X87790000Y-92610000D02*
X88490000Y-93110000D01*
X87440000Y-92510000D02*
X87790000Y-92610000D01*
X87190000Y-92510000D02*
X87440000Y-92510000D01*
X87790000Y-96110000D02*
X87440000Y-96210000D01*
X88490000Y-95610000D02*
X87790000Y-96110000D01*
X88890000Y-94810000D02*
X88490000Y-95610000D01*
X88890000Y-93910000D02*
X88890000Y-94810000D01*
X87190000Y-96210000D02*
X87440000Y-96210000D01*
X87190000Y-92510000D02*
X87190000Y-89410000D01*
X87190000Y-96210000D02*
X87190000Y-99310000D01*
X64290000Y-96210000D02*
X64290000Y-99310000D01*
X64290000Y-99310000D02*
X87190000Y-99310000D01*
X87190000Y-89410000D02*
X64290000Y-89410000D01*
X64290000Y-89410000D02*
X64290000Y-92510000D01*
X88890000Y-28320000D02*
X88490000Y-27520000D01*
X88490000Y-30020000D02*
X88890000Y-29220000D01*
X87440000Y-30620000D02*
X87190000Y-30620000D01*
X87790000Y-30520000D02*
X87440000Y-30620000D01*
X88490000Y-30020000D02*
X87790000Y-30520000D01*
X88890000Y-28320000D02*
X88890000Y-29220000D01*
X87790000Y-27020000D02*
X88490000Y-27520000D01*
X87440000Y-26920000D02*
X87790000Y-27020000D01*
X87190000Y-26920000D02*
X87440000Y-26920000D01*
X62990000Y-30020000D02*
X62590000Y-29220000D01*
X63690000Y-30520000D02*
X62990000Y-30020000D01*
X64040000Y-30620000D02*
X63690000Y-30520000D01*
X64290000Y-30620000D02*
X64040000Y-30620000D01*
X63690000Y-27020000D02*
X64040000Y-26920000D01*
X62990000Y-27520000D02*
X63690000Y-27020000D01*
X62590000Y-28320000D02*
X62990000Y-27520000D01*
X62590000Y-29220000D02*
X62590000Y-28320000D01*
X64290000Y-26920000D02*
X64040000Y-26920000D01*
X64290000Y-30620000D02*
X64290000Y-33720000D01*
X64290000Y-26920000D02*
X64290000Y-23820000D01*
X87190000Y-26920000D02*
X87190000Y-23820000D01*
X87190000Y-23820000D02*
X64290000Y-23820000D01*
X64290000Y-33720000D02*
X87190000Y-33720000D01*
X87190000Y-33720000D02*
X87190000Y-30620000D01*
X131984999Y-80590000D02*
X131984999Y-84290000D01*
X133884999Y-80590000D02*
X131984999Y-80590000D01*
X133884999Y-84290000D02*
X133884999Y-80590000D01*
X131984999Y-84290000D02*
X133884999Y-84290000D01*
X134280000Y-80590000D02*
X134280000Y-84290000D01*
X136180000Y-80590000D02*
X134280000Y-80590000D01*
X136180000Y-84290000D02*
X136180000Y-80590000D01*
X134280000Y-84290000D02*
X136180000Y-84290000D01*
X126310000Y-79960000D02*
X126310000Y-84860000D01*
X128550000Y-79960000D02*
X126310000Y-79960000D01*
X128550000Y-84860000D02*
X128550000Y-79960000D01*
X126310000Y-84860000D02*
X128550000Y-84860000D01*
X129180000Y-79960000D02*
X129180000Y-84860000D01*
X131420000Y-79960000D02*
X129180000Y-79960000D01*
X131420000Y-84860000D02*
X131420000Y-79960000D01*
X129180000Y-84860000D02*
X131420000Y-84860000D01*
X104385001Y-42600000D02*
X104385001Y-38900000D01*
X102485001Y-42600000D02*
X104385001Y-42600000D01*
X102485001Y-38900000D02*
X102485001Y-42600000D01*
X104385001Y-38900000D02*
X102485001Y-38900000D01*
X102090000Y-42600000D02*
X102090000Y-38900000D01*
X100190000Y-42600000D02*
X102090000Y-42600000D01*
X100190000Y-38900000D02*
X100190000Y-42600000D01*
X102090000Y-38900000D02*
X100190000Y-38900000D01*
X107190000Y-43150000D02*
X107190000Y-38250000D01*
X104950000Y-43150000D02*
X107190000Y-43150000D01*
X104950000Y-38250000D02*
X104950000Y-43150000D01*
X107190000Y-38250000D02*
X104950000Y-38250000D01*
X110060000Y-43150000D02*
X110060000Y-38250000D01*
X107820000Y-43150000D02*
X110060000Y-43150000D01*
X107820000Y-38250000D02*
X107820000Y-43150000D01*
X110060000Y-38250000D02*
X107820000Y-38250000D01*
X141680000Y-50660000D02*
X149080000Y-50660000D01*
X141680000Y-56060000D02*
X141680000Y-50660000D01*
X149080000Y-56060000D02*
X141680000Y-56060000D01*
X149080000Y-50660000D02*
X149080000Y-56060000D01*
X148730000Y-43160000D02*
X142030000Y-43160000D01*
X148730000Y-50060000D02*
X148730000Y-43160000D01*
X142030000Y-50060000D02*
X148730000Y-50060000D01*
X142030000Y-43160000D02*
X142030000Y-50060000D01*
X206209000Y-83226000D02*
X206209000Y-70926000D01*
X218109000Y-83226000D02*
X218109000Y-70926000D01*
X206209000Y-83226000D02*
X218109000Y-83226000D01*
X206209000Y-70926000D02*
X218109000Y-70926000D01*
X171955000Y-77660000D02*
X168255000Y-77660000D01*
X171955000Y-79560000D02*
X171955000Y-77660000D01*
X168255000Y-79560000D02*
X171955000Y-79560000D01*
X168255000Y-77660000D02*
X168255000Y-79560000D01*
X167255000Y-54810000D02*
X170955000Y-54810000D01*
X167255000Y-52910000D02*
X167255000Y-54810000D01*
X170955000Y-52910000D02*
X167255000Y-52910000D01*
X170955000Y-54810000D02*
X170955000Y-52910000D01*
X145030000Y-58310000D02*
X148730000Y-58310000D01*
X145030000Y-56410000D02*
X145030000Y-58310000D01*
X148730000Y-56410000D02*
X145030000Y-56410000D01*
X148730000Y-58310000D02*
X148730000Y-56410000D01*
X111130000Y-29610000D02*
X139910000Y-29610000D01*
X139910000Y-29610000D02*
X139910000Y-46010000D01*
X139910000Y-46010000D02*
X111130000Y-46010000D01*
X111130000Y-46010000D02*
X111130000Y-29610000D01*
X111130000Y-48110000D02*
X139910000Y-48110000D01*
X139910000Y-48110000D02*
X139910000Y-64510000D01*
X139910000Y-64510000D02*
X111130000Y-64510000D01*
X111130000Y-64510000D02*
X111130000Y-48110000D01*
X173080000Y-52690000D02*
X165680000Y-52690000D01*
X173080000Y-43530000D02*
X173080000Y-52690000D01*
X165680000Y-43530000D02*
X173080000Y-43530000D01*
X165680000Y-52690000D02*
X165680000Y-43530000D01*
X119180000Y-79985000D02*
X119180000Y-83685000D01*
X121080000Y-79985000D02*
X119180000Y-79985000D01*
X121080000Y-83685000D02*
X121080000Y-79985000D01*
X119180000Y-83685000D02*
X121080000Y-83685000D01*
X121080000Y-79710000D02*
X121080000Y-76010000D01*
X119180000Y-79710000D02*
X121080000Y-79710000D01*
X119180000Y-76010000D02*
X119180000Y-79710000D01*
X121080000Y-76010000D02*
X119180000Y-76010000D01*
X171955000Y-75035000D02*
X168255000Y-75035000D01*
X171955000Y-76935000D02*
X171955000Y-75035000D01*
X168255000Y-76935000D02*
X171955000Y-76935000D01*
X168255000Y-75035000D02*
X168255000Y-76935000D01*
X168255000Y-84810000D02*
X171955000Y-84810000D01*
X168255000Y-82910000D02*
X168255000Y-84810000D01*
X171955000Y-82910000D02*
X168255000Y-82910000D01*
X171955000Y-84810000D02*
X171955000Y-82910000D01*
X171955000Y-72410000D02*
X168255000Y-72410000D01*
X171955000Y-74310000D02*
X171955000Y-72410000D01*
X168255000Y-74310000D02*
X171955000Y-74310000D01*
X168255000Y-72410000D02*
X168255000Y-74310000D01*
X168255000Y-82185000D02*
X171955000Y-82185000D01*
X168255000Y-80285000D02*
X168255000Y-82185000D01*
X171955000Y-80285000D02*
X168255000Y-80285000D01*
X171955000Y-82185000D02*
X171955000Y-80285000D01*
X208180000Y-36035000D02*
X208180000Y-39735000D01*
X210080000Y-36035000D02*
X208180000Y-36035000D01*
X210080000Y-39735000D02*
X210080000Y-36035000D01*
X208180000Y-39735000D02*
X210080000Y-39735000D01*
X206080000Y-28010000D02*
X204180000Y-28010000D01*
X204180000Y-28010000D02*
X204180000Y-31710000D01*
X204180000Y-31710000D02*
X206080000Y-31710000D01*
X206080000Y-31710000D02*
X206080000Y-28010000D01*
X203280000Y-32490000D02*
X203280000Y-40330000D01*
X206980000Y-32490000D02*
X203280000Y-32490000D01*
X206980000Y-40330000D02*
X206980000Y-32490000D01*
X203280000Y-40330000D02*
X206980000Y-40330000D01*
X210980000Y-27390000D02*
X207280000Y-27390000D01*
X207280000Y-27390000D02*
X207280000Y-35230000D01*
X207280000Y-35230000D02*
X210980000Y-35230000D01*
X210980000Y-35230000D02*
X210980000Y-27390000D01*
X211980000Y-29960000D02*
X221280000Y-29960000D01*
X221280000Y-29960000D02*
X221280000Y-27760000D01*
X221280000Y-27760000D02*
X211980000Y-27760000D01*
X211980000Y-27760000D02*
X211980000Y-29960000D01*
X179104000Y-28610000D02*
X200064000Y-28610000D01*
X200064000Y-28610000D02*
X200064000Y-39110000D01*
X200064000Y-39110000D02*
X179104000Y-39110000D01*
X179104000Y-39110000D02*
X179104000Y-28610000D01*
X191280000Y-92260000D02*
X191280000Y-90360000D01*
X191280000Y-90360000D02*
X187580000Y-90360000D01*
X187580000Y-90360000D02*
X187580000Y-92260000D01*
X187580000Y-92260000D02*
X191280000Y-92260000D01*
X196180000Y-65735000D02*
X198080000Y-65735000D01*
X198080000Y-65735000D02*
X198080000Y-62035000D01*
X198080000Y-62035000D02*
X196180000Y-62035000D01*
X196180000Y-62035000D02*
X196180000Y-65735000D01*
X191480000Y-59560000D02*
X191480000Y-57660000D01*
X191480000Y-57660000D02*
X187780000Y-57660000D01*
X187780000Y-57660000D02*
X187780000Y-59560000D01*
X187780000Y-59560000D02*
X191480000Y-59560000D01*
X186455000Y-59960000D02*
X186455000Y-61860000D01*
X186455000Y-61860000D02*
X190155000Y-61860000D01*
X190155000Y-61860000D02*
X190155000Y-59960000D01*
X190155000Y-59960000D02*
X186455000Y-59960000D01*
X177480000Y-27390000D02*
X173780000Y-27390000D01*
X173780000Y-27390000D02*
X173780000Y-35230000D01*
X173780000Y-35230000D02*
X177480000Y-35230000D01*
X177480000Y-35230000D02*
X177480000Y-27390000D01*
X169780000Y-32440000D02*
X169780000Y-40280000D01*
X173480000Y-32440000D02*
X169780000Y-32440000D01*
X173480000Y-40280000D02*
X173480000Y-32440000D01*
X169780000Y-40280000D02*
X173480000Y-40280000D01*
X145604000Y-39110000D02*
X145604000Y-28610000D01*
X166564000Y-39110000D02*
X145604000Y-39110000D01*
X166564000Y-28610000D02*
X166564000Y-39110000D01*
X145604000Y-28610000D02*
X166564000Y-28610000D01*
X220880000Y-55760000D02*
X220880000Y-59260000D01*
X226280000Y-55760000D02*
X220880000Y-55760000D01*
X226280000Y-59260000D02*
X226280000Y-55760000D01*
X220880000Y-59260000D02*
X226280000Y-59260000D01*
X222180000Y-25240000D02*
X222180000Y-27480000D01*
X222180000Y-27480000D02*
X227080000Y-27480000D01*
X227080000Y-27480000D02*
X227080000Y-25240000D01*
X227080000Y-25240000D02*
X222180000Y-25240000D01*
X198080000Y-57775000D02*
X196180000Y-57775000D01*
X196180000Y-57775000D02*
X196180000Y-61475000D01*
X196180000Y-61475000D02*
X198080000Y-61475000D01*
X198080000Y-61475000D02*
X198080000Y-57775000D01*
X216480000Y-85310000D02*
X216480000Y-83410000D01*
X216480000Y-83410000D02*
X212780000Y-83410000D01*
X212780000Y-83410000D02*
X212780000Y-85310000D01*
X212780000Y-85310000D02*
X216480000Y-85310000D01*
X203604000Y-75486000D02*
X203604000Y-73586000D01*
X203604000Y-73586000D02*
X199904000Y-73586000D01*
X199904000Y-73586000D02*
X199904000Y-75486000D01*
X199904000Y-75486000D02*
X203604000Y-75486000D01*
X202054000Y-69776000D02*
X202054000Y-71676000D01*
X202054000Y-71676000D02*
X205754000Y-71676000D01*
X205754000Y-71676000D02*
X205754000Y-69776000D01*
X205754000Y-69776000D02*
X202054000Y-69776000D01*
X218480000Y-87310000D02*
X218480000Y-85410000D01*
X218480000Y-85410000D02*
X214780000Y-85410000D01*
X214780000Y-85410000D02*
X214780000Y-87310000D01*
X214780000Y-87310000D02*
X218480000Y-87310000D01*
X186180000Y-77710000D02*
X188080000Y-77710000D01*
X188080000Y-77710000D02*
X188080000Y-74010000D01*
X188080000Y-74010000D02*
X186180000Y-74010000D01*
X186180000Y-74010000D02*
X186180000Y-77710000D01*
X178680000Y-76710000D02*
X180580000Y-76710000D01*
X180580000Y-76710000D02*
X180580000Y-73010000D01*
X180580000Y-73010000D02*
X178680000Y-73010000D01*
X178680000Y-73010000D02*
X178680000Y-76710000D01*
X188876000Y-67534000D02*
X188876000Y-69434000D01*
X188876000Y-69434000D02*
X192576000Y-69434000D01*
X192576000Y-69434000D02*
X192576000Y-67534000D01*
X192576000Y-67534000D02*
X188876000Y-67534000D01*
X191306000Y-73879000D02*
X191306000Y-71979000D01*
X191306000Y-71979000D02*
X187606000Y-71979000D01*
X187606000Y-71979000D02*
X187606000Y-73879000D01*
X187606000Y-73879000D02*
X191306000Y-73879000D01*
X186730000Y-94860000D02*
X186730000Y-92960000D01*
X186730000Y-92960000D02*
X183030000Y-92960000D01*
X183030000Y-92960000D02*
X183030000Y-94860000D01*
X183030000Y-94860000D02*
X186730000Y-94860000D01*
X172580000Y-28010000D02*
X170680000Y-28010000D01*
X170680000Y-28010000D02*
X170680000Y-31710000D01*
X170680000Y-31710000D02*
X172580000Y-31710000D01*
X172580000Y-31710000D02*
X172580000Y-28010000D01*
X174680000Y-39685000D02*
X176580000Y-39685000D01*
X176580000Y-39685000D02*
X176580000Y-35985000D01*
X176580000Y-35985000D02*
X174680000Y-35985000D01*
X174680000Y-35985000D02*
X174680000Y-39685000D01*
X192330000Y-95410000D02*
X183030000Y-95410000D01*
X183030000Y-95410000D02*
X183030000Y-97610000D01*
X183030000Y-97610000D02*
X192330000Y-97610000D01*
X192330000Y-97610000D02*
X192330000Y-95410000D01*
X211980000Y-27460000D02*
X221280000Y-27460000D01*
X221280000Y-27460000D02*
X221280000Y-25260000D01*
X221280000Y-25260000D02*
X211980000Y-25260000D01*
X211980000Y-25260000D02*
X211980000Y-27460000D01*
X202900000Y-91560000D02*
X202900000Y-86160000D01*
X210360000Y-91560000D02*
X210360000Y-86160000D01*
X202900000Y-91560000D02*
X210360000Y-91560000D01*
X202900000Y-86160000D02*
X210360000Y-86160000D01*
X216780000Y-83410000D02*
X216780000Y-85310000D01*
X216780000Y-85310000D02*
X220480000Y-85310000D01*
X220480000Y-85310000D02*
X220480000Y-83410000D01*
X220480000Y-83410000D02*
X216780000Y-83410000D01*
X209980000Y-93810000D02*
X209980000Y-91910000D01*
X209980000Y-91910000D02*
X206280000Y-91910000D01*
X206280000Y-91910000D02*
X206280000Y-93810000D01*
X206280000Y-93810000D02*
X209980000Y-93810000D01*
X226080000Y-87010000D02*
X224180000Y-87010000D01*
X224180000Y-87010000D02*
X224180000Y-90710000D01*
X224180000Y-90710000D02*
X226080000Y-90710000D01*
X226080000Y-90710000D02*
X226080000Y-87010000D01*
X189700000Y-92910000D02*
X189700000Y-94810000D01*
X189700000Y-94810000D02*
X193400000Y-94810000D01*
X193400000Y-94810000D02*
X193400000Y-92910000D01*
X193400000Y-92910000D02*
X189700000Y-92910000D01*
X187606000Y-87854000D02*
X187606000Y-89754000D01*
X187606000Y-89754000D02*
X191306000Y-89754000D01*
X191306000Y-89754000D02*
X191306000Y-87854000D01*
X191306000Y-87854000D02*
X187606000Y-87854000D01*
X187606000Y-85314000D02*
X187606000Y-87214000D01*
X187606000Y-87214000D02*
X191306000Y-87214000D01*
X191306000Y-87214000D02*
X191306000Y-85314000D01*
X191306000Y-85314000D02*
X187606000Y-85314000D01*
X221130000Y-80860000D02*
X221130000Y-83860000D01*
X221130000Y-80860000D02*
X224130000Y-80860000D01*
X224130000Y-83860000D02*
X221130000Y-83860000D01*
X224130000Y-83860000D02*
X224130000Y-80860000D01*
X221130000Y-71860000D02*
X221130000Y-74860000D01*
X221130000Y-71860000D02*
X224130000Y-71860000D01*
X224130000Y-74860000D02*
X221130000Y-74860000D01*
X224130000Y-74860000D02*
X224130000Y-71860000D01*
X223630000Y-88860000D02*
X220630000Y-88860000D01*
X223630000Y-88860000D02*
X223630000Y-91860000D01*
X220630000Y-91860000D02*
X220630000Y-88860000D01*
X220630000Y-91860000D02*
X223630000Y-91860000D01*
X220630000Y-88860000D02*
X223630000Y-88860000D01*
X220630000Y-88860000D02*
X220630000Y-85860000D01*
X223630000Y-85860000D02*
X223630000Y-88860000D01*
X223630000Y-85860000D02*
X220630000Y-85860000D01*
X175630000Y-56360000D02*
X178630000Y-56360000D01*
X175630000Y-56360000D02*
X175630000Y-53360000D01*
X178630000Y-53360000D02*
X178630000Y-56360000D01*
X178630000Y-53360000D02*
X175630000Y-53360000D01*
X200630000Y-91860000D02*
X200630000Y-94860000D01*
X200630000Y-91860000D02*
X203630000Y-91860000D01*
X203630000Y-94860000D02*
X200630000Y-94860000D01*
X203630000Y-94860000D02*
X203630000Y-91860000D01*
X221130000Y-74860000D02*
X221130000Y-77860000D01*
X221130000Y-74860000D02*
X224130000Y-74860000D01*
X224130000Y-77860000D02*
X221130000Y-77860000D01*
X224130000Y-77860000D02*
X224130000Y-74860000D01*
X221130000Y-77860000D02*
X221130000Y-80860000D01*
X221130000Y-77860000D02*
X224130000Y-77860000D01*
X224130000Y-80860000D02*
X221130000Y-80860000D01*
X224130000Y-80860000D02*
X224130000Y-77860000D01*
X200630000Y-82860000D02*
X200630000Y-85860000D01*
X200630000Y-82860000D02*
X203630000Y-82860000D01*
X203630000Y-85860000D02*
X200630000Y-85860000D01*
X203630000Y-85860000D02*
X203630000Y-82860000D01*
M02*
