G04 #@! TF.GenerationSoftware,KiCad,Pcbnew,9.0.1-9.0.1-0~ubuntu24.04.1*
G04 #@! TF.CreationDate,2025-05-16T13:03:06-03:00*
G04 #@! TF.ProjectId,MCB19,4d434231-392e-46b6-9963-61645f706362,rev?*
G04 #@! TF.SameCoordinates,Original*
G04 #@! TF.FileFunction,Other,User*
%FSLAX46Y46*%
G04 Gerber Fmt 4.6, Leading zero omitted, Abs format (unit mm)*
G04 Created by KiCad (PCBNEW 9.0.1-9.0.1-0~ubuntu24.04.1) date 2025-05-16 13:03:06*
%MOMM*%
%LPD*%
G01*
G04 APERTURE LIST*
%ADD10C,0.050000*%
G04 APERTURE END LIST*
D10*
X127040000Y-71560000D02*
X130740000Y-71560000D01*
X127040000Y-73460000D02*
X127040000Y-71560000D01*
X130740000Y-71560000D02*
X130740000Y-73460000D01*
X130740000Y-73460000D02*
X127040000Y-73460000D01*
X127040000Y-73855001D02*
X130740000Y-73855001D01*
X127040000Y-75755001D02*
X127040000Y-73855001D01*
X130740000Y-73855001D02*
X130740000Y-75755001D01*
X130740000Y-75755001D02*
X127040000Y-75755001D01*
X126990000Y-65920000D02*
X131890000Y-65920000D01*
X126990000Y-68160000D02*
X126990000Y-65920000D01*
X131890000Y-65920000D02*
X131890000Y-68160000D01*
X131890000Y-68160000D02*
X126990000Y-68160000D01*
X105150000Y-62550000D02*
X108850000Y-62550000D01*
X105150000Y-64450000D02*
X105150000Y-62550000D01*
X108850000Y-62550000D02*
X108850000Y-64450000D01*
X108850000Y-64450000D02*
X105150000Y-64450000D01*
X110050000Y-80150000D02*
X111950000Y-80150000D01*
X110050000Y-83850000D02*
X110050000Y-80150000D01*
X111950000Y-80150000D02*
X111950000Y-83850000D01*
X111950000Y-83850000D02*
X110050000Y-83850000D01*
X204568000Y-109276000D02*
X204568000Y-93256000D01*
X204568000Y-109276000D02*
X225904000Y-109277000D01*
X225904000Y-93256000D02*
X204568000Y-93256000D01*
X225904000Y-93257000D02*
X225904000Y-109277000D01*
X120420000Y-89050000D02*
X123580000Y-89050000D01*
X120420000Y-93950000D02*
X120420000Y-89050000D01*
X123580000Y-89050000D02*
X123580000Y-93950000D01*
X123580000Y-93950000D02*
X120420000Y-93950000D01*
X109900000Y-66350000D02*
X112100000Y-66350000D01*
X109900000Y-75650000D02*
X109900000Y-66350000D01*
X112100000Y-66350000D02*
X112100000Y-75650000D01*
X112100000Y-75650000D02*
X109900000Y-75650000D01*
X62550000Y-101500000D02*
G75*
G02*
X51450000Y-101500000I-5550000J0D01*
G01*
X51450000Y-101500000D02*
G75*
G02*
X62550000Y-101500000I5550000J0D01*
G01*
X110050000Y-61650000D02*
X111950000Y-61650000D01*
X110050000Y-65350000D02*
X110050000Y-61650000D01*
X111950000Y-61650000D02*
X111950000Y-65350000D01*
X111950000Y-65350000D02*
X110050000Y-65350000D01*
X105150000Y-81050000D02*
X108850000Y-81050000D01*
X105150000Y-82950000D02*
X105150000Y-81050000D01*
X108850000Y-81050000D02*
X108850000Y-82950000D01*
X108850000Y-82950000D02*
X105150000Y-82950000D01*
X109900000Y-84850000D02*
X112100000Y-84850000D01*
X109900000Y-94150000D02*
X109900000Y-84850000D01*
X112100000Y-84850000D02*
X112100000Y-94150000D01*
X112100000Y-94150000D02*
X109900000Y-94150000D01*
X103900000Y-66350000D02*
X106100000Y-66350000D01*
X103900000Y-75650000D02*
X103900000Y-66350000D01*
X106100000Y-66350000D02*
X106100000Y-75650000D01*
X106100000Y-75650000D02*
X103900000Y-75650000D01*
X162196000Y-92284000D02*
X162196000Y-104184000D01*
X162196000Y-104184000D02*
X167796000Y-104184000D01*
X167796000Y-92284000D02*
X162196000Y-92284000D01*
X167796000Y-104184000D02*
X167796000Y-92284000D01*
X119830000Y-62180000D02*
X123670000Y-62180000D01*
X119830000Y-69820000D02*
X119830000Y-62180000D01*
X123670000Y-62180000D02*
X123670000Y-69820000D01*
X123670000Y-69820000D02*
X119830000Y-69820000D01*
X103900000Y-84850000D02*
X106100000Y-84850000D01*
X103900000Y-94150000D02*
X103900000Y-84850000D01*
X106100000Y-84850000D02*
X106100000Y-94150000D01*
X106100000Y-94150000D02*
X103900000Y-94150000D01*
X119830000Y-80500000D02*
X123670000Y-80500000D01*
X119830000Y-88500000D02*
X119830000Y-80500000D01*
X123670000Y-80500000D02*
X123670000Y-88500000D01*
X123670000Y-88500000D02*
X119830000Y-88500000D01*
X106900000Y-66350000D02*
X109100000Y-66350000D01*
X106900000Y-75650000D02*
X106900000Y-66350000D01*
X109100000Y-66350000D02*
X109100000Y-75650000D01*
X109100000Y-75650000D02*
X106900000Y-75650000D01*
X126990000Y-68790000D02*
X131890000Y-68790000D01*
X126990000Y-71030000D02*
X126990000Y-68790000D01*
X131890000Y-68790000D02*
X131890000Y-71030000D01*
X131890000Y-71030000D02*
X126990000Y-71030000D01*
X124150000Y-64350000D02*
X126350000Y-64350000D01*
X124150000Y-73650000D02*
X124150000Y-64350000D01*
X126350000Y-64350000D02*
X126350000Y-73650000D01*
X126350000Y-73650000D02*
X124150000Y-73650000D01*
X62550000Y-119500000D02*
G75*
G02*
X51450000Y-119500000I-5550000J0D01*
G01*
X51450000Y-119500000D02*
G75*
G02*
X62550000Y-119500000I5550000J0D01*
G01*
X106900000Y-84850000D02*
X109100000Y-84850000D01*
X106900000Y-94150000D02*
X106900000Y-84850000D01*
X109100000Y-84850000D02*
X109100000Y-94150000D01*
X109100000Y-94150000D02*
X106900000Y-94150000D01*
X120420000Y-70550000D02*
X123580000Y-70550000D01*
X120420000Y-75450000D02*
X120420000Y-70550000D01*
X123580000Y-70550000D02*
X123580000Y-75450000D01*
X123580000Y-75450000D02*
X120420000Y-75450000D01*
X204564000Y-88421000D02*
X204564000Y-72401000D01*
X204564000Y-88421000D02*
X225900000Y-88422000D01*
X225900000Y-72401000D02*
X204564000Y-72401000D01*
X225900000Y-72402000D02*
X225900000Y-88422000D01*
X124150000Y-82850000D02*
X126350000Y-82850000D01*
X124150000Y-92150000D02*
X124150000Y-82850000D01*
X126350000Y-82850000D02*
X126350000Y-92150000D01*
X126350000Y-92150000D02*
X124150000Y-92150000D01*
X62550000Y-63000000D02*
G75*
G02*
X51450000Y-63000000I-5550000J0D01*
G01*
X51450000Y-63000000D02*
G75*
G02*
X62550000Y-63000000I5550000J0D01*
G01*
X172834000Y-98516000D02*
X172834000Y-110416000D01*
X172834000Y-110416000D02*
X178434000Y-110416000D01*
X178434000Y-98516000D02*
X172834000Y-98516000D01*
X178434000Y-110416000D02*
X178434000Y-98516000D01*
X166100000Y-110860000D02*
X166100000Y-122060000D01*
X166100000Y-122060000D02*
X169700000Y-122060000D01*
X169700000Y-110860000D02*
X166100000Y-110860000D01*
X169700000Y-122060000D02*
X169700000Y-110860000D01*
X62550000Y-82000000D02*
G75*
G02*
X51450000Y-82000000I-5550000J0D01*
G01*
X51450000Y-82000000D02*
G75*
G02*
X62550000Y-82000000I5550000J0D01*
G01*
X127050000Y-61450000D02*
X128950000Y-61450000D01*
X127050000Y-65150000D02*
X127050000Y-61450000D01*
X128950000Y-61450000D02*
X128950000Y-65150000D01*
X128950000Y-65150000D02*
X127050000Y-65150000D01*
X130050000Y-61450000D02*
X131950000Y-61450000D01*
X130050000Y-65150000D02*
X130050000Y-61450000D01*
X131950000Y-61450000D02*
X131950000Y-65150000D01*
X131950000Y-65150000D02*
X130050000Y-65150000D01*
X78500000Y-70150000D02*
G75*
G02*
X65500000Y-70150000I-6500000J0D01*
G01*
X65500000Y-70150000D02*
G75*
G02*
X78500000Y-70150000I6500000J0D01*
G01*
X91900000Y-70150000D02*
G75*
G02*
X78900000Y-70150000I-6500000J0D01*
G01*
X78900000Y-70150000D02*
G75*
G02*
X91900000Y-70150000I6500000J0D01*
G01*
X127150000Y-81050000D02*
X130850000Y-81050000D01*
X127150000Y-82950000D02*
X127150000Y-81050000D01*
X130850000Y-81050000D02*
X130850000Y-82950000D01*
X130850000Y-82950000D02*
X127150000Y-82950000D01*
X127150000Y-83450000D02*
X130850000Y-83450000D01*
X127150000Y-85350000D02*
X127150000Y-83450000D01*
X130850000Y-83450000D02*
X130850000Y-85350000D01*
X130850000Y-85350000D02*
X127150000Y-85350000D01*
X139550000Y-124250000D02*
X143250000Y-124250000D01*
X139550000Y-126150000D02*
X139550000Y-124250000D01*
X143250000Y-124250000D02*
X143250000Y-126150000D01*
X143250000Y-126150000D02*
X139550000Y-126150000D01*
X63425000Y-107800000D02*
X67125000Y-107800000D01*
X63425000Y-109700000D02*
X63425000Y-107800000D01*
X67125000Y-107800000D02*
X67125000Y-109700000D01*
X67125000Y-109700000D02*
X63425000Y-109700000D01*
X119830000Y-62180000D02*
X123670000Y-62180000D01*
X119830000Y-69820000D02*
X119830000Y-62180000D01*
X123670000Y-62180000D02*
X123670000Y-69820000D01*
X123670000Y-69820000D02*
X119830000Y-69820000D01*
X141575000Y-122050000D02*
X145275000Y-122050000D01*
X141575000Y-123950000D02*
X141575000Y-122050000D01*
X145275000Y-122050000D02*
X145275000Y-123950000D01*
X145275000Y-123950000D02*
X141575000Y-123950000D01*
X119830000Y-80500000D02*
X123670000Y-80500000D01*
X119830000Y-88500000D02*
X119830000Y-80500000D01*
X123670000Y-80500000D02*
X123670000Y-88500000D01*
X123670000Y-88500000D02*
X119830000Y-88500000D01*
X67650000Y-107950000D02*
X69550000Y-107950000D01*
X67650000Y-111650000D02*
X67650000Y-107950000D01*
X69550000Y-107950000D02*
X69550000Y-111650000D01*
X69550000Y-111650000D02*
X67650000Y-111650000D01*
X127150000Y-78650000D02*
X130850000Y-78650000D01*
X127150000Y-80550000D02*
X127150000Y-78650000D01*
X130850000Y-78650000D02*
X130850000Y-80550000D01*
X130850000Y-80550000D02*
X127150000Y-80550000D01*
X127150000Y-76250000D02*
X130850000Y-76250000D01*
X127150000Y-78150000D02*
X127150000Y-76250000D01*
X130850000Y-76250000D02*
X130850000Y-78150000D01*
X130850000Y-78150000D02*
X127150000Y-78150000D01*
X127150000Y-85850000D02*
X130850000Y-85850000D01*
X127150000Y-87750000D02*
X127150000Y-85850000D01*
X130850000Y-85850000D02*
X130850000Y-87750000D01*
X130850000Y-87750000D02*
X127150000Y-87750000D01*
X127150000Y-88250000D02*
X130850000Y-88250000D01*
X127150000Y-90150000D02*
X127150000Y-88250000D01*
X130850000Y-88250000D02*
X130850000Y-90150000D01*
X130850000Y-90150000D02*
X127150000Y-90150000D01*
X78450000Y-83400000D02*
G75*
G02*
X65450000Y-83400000I-6500000J0D01*
G01*
X65450000Y-83400000D02*
G75*
G02*
X78450000Y-83400000I6500000J0D01*
G01*
X91752082Y-83400000D02*
G75*
G02*
X78752082Y-83400000I-6500000J0D01*
G01*
X78752082Y-83400000D02*
G75*
G02*
X91752082Y-83400000I6500000J0D01*
G01*
X78450000Y-96550000D02*
G75*
G02*
X65450000Y-96550000I-6500000J0D01*
G01*
X65450000Y-96550000D02*
G75*
G02*
X78450000Y-96550000I6500000J0D01*
G01*
X91752082Y-96550000D02*
G75*
G02*
X78752082Y-96550000I-6500000J0D01*
G01*
X78752082Y-96550000D02*
G75*
G02*
X91752082Y-96550000I6500000J0D01*
G01*
X75350000Y-104740000D02*
X75350000Y-117250000D01*
X75350000Y-117250000D02*
X91050000Y-117250000D01*
X91050000Y-104750000D02*
X75350000Y-104740000D01*
X91050000Y-104750000D02*
X91050000Y-117250000D01*
X151700000Y-77500000D02*
X151700000Y-80500000D01*
X151700000Y-77500000D02*
X154700000Y-77500000D01*
X154700000Y-80500000D02*
X151700000Y-80500000D01*
X154700000Y-80500000D02*
X154700000Y-77500000D01*
X145500000Y-123500000D02*
X145500000Y-126500000D01*
X145500000Y-123500000D02*
X148500000Y-123500000D01*
X148500000Y-126500000D02*
X145500000Y-126500000D01*
X148500000Y-126500000D02*
X148500000Y-123500000D01*
X134350000Y-104400000D02*
X139650000Y-104400000D01*
X134350000Y-106600000D02*
X134350000Y-104400000D01*
X139650000Y-104400000D02*
X139650000Y-106600000D01*
X139650000Y-106600000D02*
X134350000Y-106600000D01*
X127835000Y-118000000D02*
X127835000Y-121200000D01*
X129735000Y-118000000D02*
X127835000Y-118000000D01*
X129735000Y-118000000D02*
X129735000Y-121200000D01*
X129735000Y-121200000D02*
X127835000Y-121200000D01*
X136300000Y-103950000D02*
X136300000Y-102050000D01*
X139500000Y-102050000D02*
X136300000Y-102050000D01*
X139500000Y-103950000D02*
X136300000Y-103950000D01*
X139500000Y-103950000D02*
X139500000Y-102050000D01*
X130300000Y-117950000D02*
X132500000Y-117950000D01*
X130300000Y-123250000D02*
X130300000Y-117950000D01*
X132500000Y-117950000D02*
X132500000Y-123250000D01*
X132500000Y-123250000D02*
X130300000Y-123250000D01*
X146750000Y-110300000D02*
X149250000Y-110300000D01*
X146750000Y-111700000D02*
X146750000Y-110300000D01*
X149250000Y-110300000D02*
X149250000Y-111700000D01*
X149250000Y-111700000D02*
X146750000Y-111700000D01*
X149520000Y-86490000D02*
X149520000Y-122590000D01*
X149520000Y-122590000D02*
X160070000Y-122590000D01*
X160070000Y-86490000D02*
X149520000Y-86490000D01*
X160070000Y-122590000D02*
X160070000Y-86490000D01*
X146750000Y-112800000D02*
X149250000Y-112800000D01*
X146750000Y-114200000D02*
X146750000Y-112800000D01*
X149250000Y-112800000D02*
X149250000Y-114200000D01*
X149250000Y-114200000D02*
X146750000Y-114200000D01*
X70820000Y-114920000D02*
X74580000Y-114920000D01*
X70820000Y-116880000D02*
X70820000Y-114920000D01*
X74580000Y-114920000D02*
X74580000Y-116880000D01*
X74580000Y-116880000D02*
X70820000Y-116880000D01*
X70850000Y-117150000D02*
X74550000Y-117150000D01*
X70850000Y-119050000D02*
X70850000Y-117150000D01*
X74550000Y-117150000D02*
X74550000Y-119050000D01*
X74550000Y-119050000D02*
X70850000Y-119050000D01*
X166150000Y-86100000D02*
X169700000Y-86100000D01*
X166150000Y-92200000D02*
X166150000Y-86100000D01*
X169700000Y-86100000D02*
X169700000Y-92200000D01*
X169700000Y-92200000D02*
X166150000Y-92200000D01*
X146750000Y-107800000D02*
X149250000Y-107800000D01*
X146750000Y-109200000D02*
X146750000Y-107800000D01*
X149250000Y-107800000D02*
X149250000Y-109200000D01*
X149250000Y-109200000D02*
X146750000Y-109200000D01*
M02*
