%TF.GenerationSoftware,KiCad,Pcbnew,5.1.5+dfsg1-2~bpo10+1*%
%TF.CreationDate,2020-10-02T13:04:12+00:00*%
%TF.ProjectId,MCB19,4d434231-392e-46b6-9963-61645f706362,rev?*%
%TF.SameCoordinates,Original*%
%TF.FileFunction,Soldermask,Top*%
%TF.FilePolarity,Negative*%
%FSLAX45Y45*%
G04 Gerber Fmt 4.5, Leading zero omitted, Abs format (unit mm)*
G04 Created by KiCad (PCBNEW 5.1.5+dfsg1-2~bpo10+1) date 2020-10-02 13:04:12*
%MOMM*%
%LPD*%
G04 APERTURE LIST*
%ADD10C,0.100000*%
%ADD11C,0.150000*%
G04 APERTURE END LIST*
D10*
X22285000Y-5050000D02*
X5000000Y-5050000D01*
X22285000Y-13200000D02*
X22285000Y-5050000D01*
X5000000Y-13200000D02*
X22285000Y-13200000D01*
X5000000Y-5050000D02*
X5000000Y-13200000D01*
D11*
G36*
X14800000Y-12600000D02*
G01*
X14600000Y-12600000D01*
X14600000Y-12400000D01*
X14800000Y-12400000D01*
X14800000Y-12600000D01*
G37*
G36*
X14285552Y-12450404D02*
G01*
X14288906Y-12451421D01*
X14291996Y-12453073D01*
X14294704Y-12455296D01*
X14296927Y-12458004D01*
X14298579Y-12461094D01*
X14299596Y-12464448D01*
X14300000Y-12468549D01*
X14300000Y-12571451D01*
X14299596Y-12575552D01*
X14298579Y-12578906D01*
X14296927Y-12581996D01*
X14294704Y-12584704D01*
X14291996Y-12586927D01*
X14288906Y-12588579D01*
X14285552Y-12589596D01*
X14281451Y-12590000D01*
X14203549Y-12590000D01*
X14199448Y-12589596D01*
X14196094Y-12588579D01*
X14193004Y-12586927D01*
X14190296Y-12584704D01*
X14188073Y-12581996D01*
X14186421Y-12578906D01*
X14185404Y-12575552D01*
X14185000Y-12571451D01*
X14185000Y-12468549D01*
X14185404Y-12464448D01*
X14186421Y-12461094D01*
X14188073Y-12458004D01*
X14190296Y-12455296D01*
X14193004Y-12453073D01*
X14196094Y-12451421D01*
X14199448Y-12450404D01*
X14203549Y-12450000D01*
X14281451Y-12450000D01*
X14285552Y-12450404D01*
G37*
G36*
X14080552Y-12450404D02*
G01*
X14083906Y-12451421D01*
X14086996Y-12453073D01*
X14089704Y-12455296D01*
X14091927Y-12458004D01*
X14093579Y-12461094D01*
X14094596Y-12464448D01*
X14095000Y-12468549D01*
X14095000Y-12571451D01*
X14094596Y-12575552D01*
X14093579Y-12578906D01*
X14091927Y-12581996D01*
X14089704Y-12584704D01*
X14086996Y-12586927D01*
X14083906Y-12588579D01*
X14080552Y-12589596D01*
X14076451Y-12590000D01*
X13998549Y-12590000D01*
X13994448Y-12589596D01*
X13991094Y-12588579D01*
X13988004Y-12586927D01*
X13985296Y-12584704D01*
X13983073Y-12581996D01*
X13981421Y-12578906D01*
X13980404Y-12575552D01*
X13980000Y-12571451D01*
X13980000Y-12468549D01*
X13980404Y-12464448D01*
X13981421Y-12461094D01*
X13983073Y-12458004D01*
X13985296Y-12455296D01*
X13988004Y-12453073D01*
X13991094Y-12451421D01*
X13994448Y-12450404D01*
X13998549Y-12450000D01*
X14076451Y-12450000D01*
X14080552Y-12450404D01*
G37*
G36*
X5803398Y-11430184D02*
G01*
X5854595Y-11440368D01*
X5909615Y-11463158D01*
X5949802Y-11479804D01*
X5951049Y-11480320D01*
X6037855Y-11538322D01*
X6111678Y-11612145D01*
X6166372Y-11694000D01*
X6169680Y-11698951D01*
X6173080Y-11707161D01*
X6209632Y-11795405D01*
X6218670Y-11840839D01*
X6230000Y-11897799D01*
X6230000Y-12002201D01*
X6223476Y-12035000D01*
X6209632Y-12104595D01*
X6186823Y-12159660D01*
X6171721Y-12196121D01*
X6169680Y-12201049D01*
X6111678Y-12287855D01*
X6037855Y-12361678D01*
X5951049Y-12419680D01*
X5854595Y-12459632D01*
X5809769Y-12468549D01*
X5752201Y-12480000D01*
X5647799Y-12480000D01*
X5590231Y-12468549D01*
X5545405Y-12459632D01*
X5448951Y-12419680D01*
X5362145Y-12361678D01*
X5288322Y-12287855D01*
X5230320Y-12201049D01*
X5228279Y-12196121D01*
X5213177Y-12159660D01*
X5190368Y-12104595D01*
X5176524Y-12035000D01*
X5170000Y-12002201D01*
X5170000Y-11897799D01*
X5181330Y-11840839D01*
X5190368Y-11795405D01*
X5226920Y-11707161D01*
X5230320Y-11698951D01*
X5233628Y-11694000D01*
X5288322Y-11612145D01*
X5362145Y-11538322D01*
X5448951Y-11480320D01*
X5450198Y-11479804D01*
X5490385Y-11463158D01*
X5545405Y-11440368D01*
X5596602Y-11430184D01*
X5647799Y-11420000D01*
X5752201Y-11420000D01*
X5803398Y-11430184D01*
G37*
G36*
X14488052Y-12230404D02*
G01*
X14491406Y-12231421D01*
X14494496Y-12233073D01*
X14497204Y-12235296D01*
X14499427Y-12238004D01*
X14501079Y-12241094D01*
X14502096Y-12244448D01*
X14502500Y-12248549D01*
X14502500Y-12351451D01*
X14502096Y-12355552D01*
X14501079Y-12358906D01*
X14499427Y-12361996D01*
X14497204Y-12364704D01*
X14494496Y-12366927D01*
X14491406Y-12368579D01*
X14488052Y-12369596D01*
X14483951Y-12370000D01*
X14406049Y-12370000D01*
X14401948Y-12369596D01*
X14398594Y-12368579D01*
X14395504Y-12366927D01*
X14392796Y-12364704D01*
X14390573Y-12361996D01*
X14388921Y-12358906D01*
X14387904Y-12355552D01*
X14387500Y-12351451D01*
X14387500Y-12248549D01*
X14387904Y-12244448D01*
X14388921Y-12241094D01*
X14390573Y-12238004D01*
X14392796Y-12235296D01*
X14395504Y-12233073D01*
X14398594Y-12231421D01*
X14401948Y-12230404D01*
X14406049Y-12230000D01*
X14483951Y-12230000D01*
X14488052Y-12230404D01*
G37*
G36*
X14283052Y-12230404D02*
G01*
X14286406Y-12231421D01*
X14289496Y-12233073D01*
X14292204Y-12235296D01*
X14294427Y-12238004D01*
X14296079Y-12241094D01*
X14297096Y-12244448D01*
X14297500Y-12248549D01*
X14297500Y-12351451D01*
X14297096Y-12355552D01*
X14296079Y-12358906D01*
X14294427Y-12361996D01*
X14292204Y-12364704D01*
X14289496Y-12366927D01*
X14286406Y-12368579D01*
X14283052Y-12369596D01*
X14278951Y-12370000D01*
X14201049Y-12370000D01*
X14196948Y-12369596D01*
X14193594Y-12368579D01*
X14190504Y-12366927D01*
X14187796Y-12364704D01*
X14185573Y-12361996D01*
X14183921Y-12358906D01*
X14182904Y-12355552D01*
X14182500Y-12351451D01*
X14182500Y-12248549D01*
X14182904Y-12244448D01*
X14183921Y-12241094D01*
X14185573Y-12238004D01*
X14187796Y-12235296D01*
X14190504Y-12233073D01*
X14193594Y-12231421D01*
X14196948Y-12230404D01*
X14201049Y-12230000D01*
X14278951Y-12230000D01*
X14283052Y-12230404D01*
G37*
G36*
X15980000Y-12195000D02*
G01*
X15730000Y-12195000D01*
X15730000Y-12035000D01*
X15980000Y-12035000D01*
X15980000Y-12195000D01*
G37*
G36*
X15145847Y-12035386D02*
G01*
X15153683Y-12036158D01*
X15168763Y-12040732D01*
X15168763Y-12040732D01*
X15182660Y-12048161D01*
X15194842Y-12058158D01*
X15204839Y-12070339D01*
X15212268Y-12084237D01*
X15212268Y-12084237D01*
X15216842Y-12099317D01*
X15218387Y-12115000D01*
X15216842Y-12130683D01*
X15212268Y-12145763D01*
X15212268Y-12145763D01*
X15204839Y-12159660D01*
X15194842Y-12171842D01*
X15182660Y-12181839D01*
X15171501Y-12187804D01*
X15168763Y-12189268D01*
X15153683Y-12193842D01*
X15145847Y-12194614D01*
X15141929Y-12195000D01*
X15044071Y-12195000D01*
X15040153Y-12194614D01*
X15032317Y-12193842D01*
X15017237Y-12189268D01*
X15014499Y-12187804D01*
X15003339Y-12181839D01*
X14991158Y-12171842D01*
X14981161Y-12159660D01*
X14973732Y-12145763D01*
X14973732Y-12145763D01*
X14969158Y-12130683D01*
X14967613Y-12115000D01*
X14969158Y-12099317D01*
X14973732Y-12084237D01*
X14973732Y-12084237D01*
X14981161Y-12070339D01*
X14991158Y-12058158D01*
X15003339Y-12048161D01*
X15017237Y-12040732D01*
X15017237Y-12040732D01*
X15032317Y-12036158D01*
X15040153Y-12035386D01*
X15044071Y-12035000D01*
X15141929Y-12035000D01*
X15145847Y-12035386D01*
G37*
G36*
X16842847Y-11948386D02*
G01*
X16850683Y-11949158D01*
X16865763Y-11953732D01*
X16865763Y-11953732D01*
X16879661Y-11961161D01*
X16891842Y-11971158D01*
X16901839Y-11983339D01*
X16905335Y-11989878D01*
X16909268Y-11997237D01*
X16913842Y-12012317D01*
X16915387Y-12028000D01*
X16913842Y-12043683D01*
X16912484Y-12048161D01*
X16909268Y-12058763D01*
X16901839Y-12072660D01*
X16891842Y-12084842D01*
X16879661Y-12094839D01*
X16871283Y-12099317D01*
X16865763Y-12102268D01*
X16850683Y-12106842D01*
X16842847Y-12107614D01*
X16838929Y-12108000D01*
X16741071Y-12108000D01*
X16737153Y-12107614D01*
X16729317Y-12106842D01*
X16714237Y-12102268D01*
X16708717Y-12099317D01*
X16700339Y-12094839D01*
X16688158Y-12084842D01*
X16678161Y-12072660D01*
X16670732Y-12058763D01*
X16667516Y-12048161D01*
X16666158Y-12043683D01*
X16664613Y-12028000D01*
X16666158Y-12012317D01*
X16670732Y-11997237D01*
X16674665Y-11989878D01*
X16678161Y-11983339D01*
X16688158Y-11971158D01*
X16700339Y-11961161D01*
X16714237Y-11953732D01*
X16714237Y-11953732D01*
X16729317Y-11949158D01*
X16737153Y-11948386D01*
X16741071Y-11948000D01*
X16838929Y-11948000D01*
X16842847Y-11948386D01*
G37*
G36*
X15145847Y-11781386D02*
G01*
X15153683Y-11782158D01*
X15168763Y-11786732D01*
X15168763Y-11786732D01*
X15182660Y-11794161D01*
X15194842Y-11804158D01*
X15204839Y-11816339D01*
X15212268Y-11830237D01*
X15212268Y-11830237D01*
X15216842Y-11845317D01*
X15218387Y-11861000D01*
X15216842Y-11876683D01*
X15212268Y-11891763D01*
X15212268Y-11891763D01*
X15204839Y-11905660D01*
X15194842Y-11917842D01*
X15182660Y-11927839D01*
X15181079Y-11928684D01*
X15168763Y-11935268D01*
X15153683Y-11939842D01*
X15145847Y-11940614D01*
X15141929Y-11941000D01*
X15044071Y-11941000D01*
X15040153Y-11940614D01*
X15032317Y-11939842D01*
X15017237Y-11935268D01*
X15004921Y-11928684D01*
X15003339Y-11927839D01*
X14991158Y-11917842D01*
X14981161Y-11905660D01*
X14973732Y-11891763D01*
X14973732Y-11891763D01*
X14969158Y-11876683D01*
X14967613Y-11861000D01*
X14969158Y-11845317D01*
X14973732Y-11830237D01*
X14973732Y-11830237D01*
X14981161Y-11816339D01*
X14991158Y-11804158D01*
X15003339Y-11794161D01*
X15017237Y-11786732D01*
X15017237Y-11786732D01*
X15032317Y-11782158D01*
X15040153Y-11781386D01*
X15044071Y-11781000D01*
X15141929Y-11781000D01*
X15145847Y-11781386D01*
G37*
G36*
X15907847Y-11781386D02*
G01*
X15915683Y-11782158D01*
X15930763Y-11786732D01*
X15930763Y-11786732D01*
X15944660Y-11794161D01*
X15956842Y-11804158D01*
X15966839Y-11816339D01*
X15974268Y-11830237D01*
X15974268Y-11830237D01*
X15978842Y-11845317D01*
X15980387Y-11861000D01*
X15978842Y-11876683D01*
X15974268Y-11891763D01*
X15974268Y-11891763D01*
X15966839Y-11905660D01*
X15956842Y-11917842D01*
X15944660Y-11927839D01*
X15943079Y-11928684D01*
X15930763Y-11935268D01*
X15915683Y-11939842D01*
X15907847Y-11940614D01*
X15903929Y-11941000D01*
X15806071Y-11941000D01*
X15802153Y-11940614D01*
X15794317Y-11939842D01*
X15779237Y-11935268D01*
X15766921Y-11928684D01*
X15765339Y-11927839D01*
X15753158Y-11917842D01*
X15743161Y-11905660D01*
X15735732Y-11891763D01*
X15735732Y-11891763D01*
X15731158Y-11876683D01*
X15729613Y-11861000D01*
X15731158Y-11845317D01*
X15735732Y-11830237D01*
X15735732Y-11830237D01*
X15743161Y-11816339D01*
X15753158Y-11804158D01*
X15765339Y-11794161D01*
X15779237Y-11786732D01*
X15779237Y-11786732D01*
X15794317Y-11782158D01*
X15802153Y-11781386D01*
X15806071Y-11781000D01*
X15903929Y-11781000D01*
X15907847Y-11781386D01*
G37*
G36*
X16842847Y-11694386D02*
G01*
X16850683Y-11695158D01*
X16865763Y-11699732D01*
X16865763Y-11699732D01*
X16879661Y-11707161D01*
X16884063Y-11710774D01*
X16891842Y-11717158D01*
X16901839Y-11729339D01*
X16909268Y-11743237D01*
X16913842Y-11758317D01*
X16915387Y-11774000D01*
X16913842Y-11789683D01*
X16909451Y-11804158D01*
X16909268Y-11804763D01*
X16901839Y-11818660D01*
X16891842Y-11830842D01*
X16879661Y-11840839D01*
X16871283Y-11845317D01*
X16865763Y-11848268D01*
X16850683Y-11852842D01*
X16842847Y-11853614D01*
X16838929Y-11854000D01*
X16741071Y-11854000D01*
X16737153Y-11853614D01*
X16729317Y-11852842D01*
X16714237Y-11848268D01*
X16708717Y-11845317D01*
X16700339Y-11840839D01*
X16688158Y-11830842D01*
X16678161Y-11818660D01*
X16670732Y-11804763D01*
X16670549Y-11804158D01*
X16666158Y-11789683D01*
X16664613Y-11774000D01*
X16666158Y-11758317D01*
X16670732Y-11743237D01*
X16678161Y-11729339D01*
X16688158Y-11717158D01*
X16695937Y-11710774D01*
X16700339Y-11707161D01*
X16714237Y-11699732D01*
X16714237Y-11699732D01*
X16729317Y-11695158D01*
X16737153Y-11694386D01*
X16741071Y-11694000D01*
X16838929Y-11694000D01*
X16842847Y-11694386D01*
G37*
G36*
X8716461Y-11479804D02*
G01*
X8739210Y-11489226D01*
X8739210Y-11489226D01*
X8759683Y-11502906D01*
X8777094Y-11520317D01*
X8789827Y-11539374D01*
X8790774Y-11540790D01*
X8800196Y-11563539D01*
X8805000Y-11587688D01*
X8805000Y-11612312D01*
X8800196Y-11636461D01*
X8792186Y-11655799D01*
X8790774Y-11659210D01*
X8777094Y-11679683D01*
X8759683Y-11697094D01*
X8739210Y-11710773D01*
X8739210Y-11710774D01*
X8739210Y-11710774D01*
X8716461Y-11720196D01*
X8692312Y-11725000D01*
X8667688Y-11725000D01*
X8643539Y-11720196D01*
X8620791Y-11710774D01*
X8620790Y-11710774D01*
X8620790Y-11710773D01*
X8600317Y-11697094D01*
X8582906Y-11679683D01*
X8569227Y-11659210D01*
X8567814Y-11655799D01*
X8559804Y-11636461D01*
X8555000Y-11612312D01*
X8555000Y-11587688D01*
X8559804Y-11563539D01*
X8569226Y-11540790D01*
X8570173Y-11539374D01*
X8582906Y-11520317D01*
X8600317Y-11502906D01*
X8620790Y-11489226D01*
X8620791Y-11489226D01*
X8643539Y-11479804D01*
X8667688Y-11475000D01*
X8692312Y-11475000D01*
X8716461Y-11479804D01*
G37*
G36*
X15145847Y-11527386D02*
G01*
X15153683Y-11528158D01*
X15168763Y-11532732D01*
X15168763Y-11532732D01*
X15182660Y-11540161D01*
X15194842Y-11550158D01*
X15204839Y-11562339D01*
X15210973Y-11573815D01*
X15212268Y-11576237D01*
X15216842Y-11591317D01*
X15218387Y-11607000D01*
X15216842Y-11622683D01*
X15212268Y-11637763D01*
X15212268Y-11637763D01*
X15204839Y-11651660D01*
X15194842Y-11663842D01*
X15182660Y-11673839D01*
X15171728Y-11679683D01*
X15168763Y-11681268D01*
X15153683Y-11685842D01*
X15145847Y-11686614D01*
X15141929Y-11687000D01*
X15044071Y-11687000D01*
X15040153Y-11686614D01*
X15032317Y-11685842D01*
X15017237Y-11681268D01*
X15014272Y-11679683D01*
X15003339Y-11673839D01*
X14991158Y-11663842D01*
X14981161Y-11651660D01*
X14973732Y-11637763D01*
X14973732Y-11637763D01*
X14969158Y-11622683D01*
X14967613Y-11607000D01*
X14969158Y-11591317D01*
X14973732Y-11576237D01*
X14975026Y-11573815D01*
X14981161Y-11562339D01*
X14991158Y-11550158D01*
X15003339Y-11540161D01*
X15017237Y-11532732D01*
X15017237Y-11532732D01*
X15032317Y-11528158D01*
X15040153Y-11527386D01*
X15044071Y-11527000D01*
X15141929Y-11527000D01*
X15145847Y-11527386D01*
G37*
G36*
X15907847Y-11527386D02*
G01*
X15915683Y-11528158D01*
X15930763Y-11532732D01*
X15930763Y-11532732D01*
X15944660Y-11540161D01*
X15956842Y-11550158D01*
X15966839Y-11562339D01*
X15972973Y-11573815D01*
X15974268Y-11576237D01*
X15978842Y-11591317D01*
X15980387Y-11607000D01*
X15978842Y-11622683D01*
X15974268Y-11637763D01*
X15974268Y-11637763D01*
X15966839Y-11651660D01*
X15956842Y-11663842D01*
X15944660Y-11673839D01*
X15933728Y-11679683D01*
X15930763Y-11681268D01*
X15915683Y-11685842D01*
X15907847Y-11686614D01*
X15903929Y-11687000D01*
X15806071Y-11687000D01*
X15802153Y-11686614D01*
X15794317Y-11685842D01*
X15779237Y-11681268D01*
X15776272Y-11679683D01*
X15765339Y-11673839D01*
X15753158Y-11663842D01*
X15743161Y-11651660D01*
X15735732Y-11637763D01*
X15735732Y-11637763D01*
X15731158Y-11622683D01*
X15729613Y-11607000D01*
X15731158Y-11591317D01*
X15735732Y-11576237D01*
X15737026Y-11573815D01*
X15743161Y-11562339D01*
X15753158Y-11550158D01*
X15765339Y-11540161D01*
X15779237Y-11532732D01*
X15779237Y-11532732D01*
X15794317Y-11528158D01*
X15802153Y-11527386D01*
X15806071Y-11527000D01*
X15903929Y-11527000D01*
X15907847Y-11527386D01*
G37*
G36*
X16842847Y-11440386D02*
G01*
X16850683Y-11441158D01*
X16865763Y-11445732D01*
X16865763Y-11445732D01*
X16879661Y-11453161D01*
X16891842Y-11463158D01*
X16901839Y-11475339D01*
X16909262Y-11489226D01*
X16909268Y-11489237D01*
X16913842Y-11504317D01*
X16915387Y-11520000D01*
X16913842Y-11535683D01*
X16909451Y-11550158D01*
X16909268Y-11550763D01*
X16901839Y-11564660D01*
X16891842Y-11576842D01*
X16879661Y-11586839D01*
X16871283Y-11591317D01*
X16865763Y-11594268D01*
X16850683Y-11598842D01*
X16842847Y-11599614D01*
X16838929Y-11600000D01*
X16741071Y-11600000D01*
X16737153Y-11599614D01*
X16729317Y-11598842D01*
X16714237Y-11594268D01*
X16708717Y-11591317D01*
X16700339Y-11586839D01*
X16688158Y-11576842D01*
X16678161Y-11564660D01*
X16670732Y-11550763D01*
X16670549Y-11550158D01*
X16666158Y-11535683D01*
X16664613Y-11520000D01*
X16666158Y-11504317D01*
X16670732Y-11489237D01*
X16670738Y-11489226D01*
X16678161Y-11475339D01*
X16688158Y-11463158D01*
X16700339Y-11453161D01*
X16714237Y-11445732D01*
X16714237Y-11445732D01*
X16729317Y-11441158D01*
X16737153Y-11440386D01*
X16741071Y-11440000D01*
X16838929Y-11440000D01*
X16842847Y-11440386D01*
G37*
G36*
X15907847Y-11273386D02*
G01*
X15915683Y-11274158D01*
X15930763Y-11278732D01*
X15930763Y-11278732D01*
X15944660Y-11286161D01*
X15944661Y-11286161D01*
X15944661Y-11286161D01*
X15956842Y-11296158D01*
X15966839Y-11308339D01*
X15974268Y-11322237D01*
X15978842Y-11337317D01*
X15980387Y-11353000D01*
X15978842Y-11368683D01*
X15974268Y-11383763D01*
X15974268Y-11383763D01*
X15966839Y-11397660D01*
X15956842Y-11409842D01*
X15944660Y-11419839D01*
X15930763Y-11427268D01*
X15930763Y-11427268D01*
X15915683Y-11431842D01*
X15907847Y-11432614D01*
X15903929Y-11433000D01*
X15806071Y-11433000D01*
X15802153Y-11432614D01*
X15794317Y-11431842D01*
X15779237Y-11427268D01*
X15779237Y-11427268D01*
X15765339Y-11419839D01*
X15753158Y-11409842D01*
X15743161Y-11397660D01*
X15735732Y-11383763D01*
X15735732Y-11383763D01*
X15731158Y-11368683D01*
X15729613Y-11353000D01*
X15731158Y-11337317D01*
X15735732Y-11322237D01*
X15743161Y-11308339D01*
X15753158Y-11296158D01*
X15765339Y-11286161D01*
X15765339Y-11286161D01*
X15765339Y-11286161D01*
X15779237Y-11278732D01*
X15779237Y-11278732D01*
X15794317Y-11274158D01*
X15802153Y-11273386D01*
X15806071Y-11273000D01*
X15903929Y-11273000D01*
X15907847Y-11273386D01*
G37*
G36*
X15145847Y-11273386D02*
G01*
X15153683Y-11274158D01*
X15168763Y-11278732D01*
X15168763Y-11278732D01*
X15182660Y-11286161D01*
X15182661Y-11286161D01*
X15182661Y-11286161D01*
X15194842Y-11296158D01*
X15204839Y-11308339D01*
X15212268Y-11322237D01*
X15216842Y-11337317D01*
X15218387Y-11353000D01*
X15216842Y-11368683D01*
X15212268Y-11383763D01*
X15212268Y-11383763D01*
X15204839Y-11397660D01*
X15194842Y-11409842D01*
X15182660Y-11419839D01*
X15168763Y-11427268D01*
X15168763Y-11427268D01*
X15153683Y-11431842D01*
X15145847Y-11432614D01*
X15141929Y-11433000D01*
X15044071Y-11433000D01*
X15040153Y-11432614D01*
X15032317Y-11431842D01*
X15017237Y-11427268D01*
X15017237Y-11427268D01*
X15003339Y-11419839D01*
X14991158Y-11409842D01*
X14981161Y-11397660D01*
X14973732Y-11383763D01*
X14973732Y-11383763D01*
X14969158Y-11368683D01*
X14967613Y-11353000D01*
X14969158Y-11337317D01*
X14973732Y-11322237D01*
X14981161Y-11308339D01*
X14991158Y-11296158D01*
X15003339Y-11286161D01*
X15003339Y-11286161D01*
X15003339Y-11286161D01*
X15017237Y-11278732D01*
X15017237Y-11278732D01*
X15032317Y-11274158D01*
X15040153Y-11273386D01*
X15044071Y-11273000D01*
X15141929Y-11273000D01*
X15145847Y-11273386D01*
G37*
G36*
X16915000Y-11346000D02*
G01*
X16665000Y-11346000D01*
X16665000Y-11186000D01*
X16915000Y-11186000D01*
X16915000Y-11346000D01*
G37*
G36*
X8973753Y-10955764D02*
G01*
X9001052Y-10967072D01*
X9001052Y-10967072D01*
X9025619Y-10983487D01*
X9046513Y-11004381D01*
X9061562Y-11026903D01*
X9062928Y-11028949D01*
X9074236Y-11056247D01*
X9080000Y-11085226D01*
X9080000Y-11114774D01*
X9074236Y-11143753D01*
X9065087Y-11165839D01*
X9062928Y-11171052D01*
X9046513Y-11195619D01*
X9025619Y-11216513D01*
X9001052Y-11232928D01*
X9001052Y-11232928D01*
X9001052Y-11232928D01*
X8973753Y-11244236D01*
X8944774Y-11250000D01*
X8915226Y-11250000D01*
X8886247Y-11244236D01*
X8858949Y-11232928D01*
X8858948Y-11232928D01*
X8858948Y-11232928D01*
X8834381Y-11216513D01*
X8813487Y-11195619D01*
X8797072Y-11171052D01*
X8794913Y-11165839D01*
X8785764Y-11143753D01*
X8780000Y-11114774D01*
X8780000Y-11085226D01*
X8785764Y-11056247D01*
X8797072Y-11028949D01*
X8798438Y-11026903D01*
X8813487Y-11004381D01*
X8834381Y-10983487D01*
X8858948Y-10967072D01*
X8858949Y-10967072D01*
X8886247Y-10955764D01*
X8915226Y-10950000D01*
X8944774Y-10950000D01*
X8973753Y-10955764D01*
G37*
G36*
X15145847Y-11019386D02*
G01*
X15153683Y-11020158D01*
X15168763Y-11024732D01*
X15168763Y-11024732D01*
X15182660Y-11032161D01*
X15194842Y-11042158D01*
X15204839Y-11054340D01*
X15212268Y-11068237D01*
X15212268Y-11068237D01*
X15216842Y-11083317D01*
X15218387Y-11099000D01*
X15216842Y-11114683D01*
X15212528Y-11128906D01*
X15212268Y-11129763D01*
X15204839Y-11143661D01*
X15194842Y-11155842D01*
X15182660Y-11165839D01*
X15172909Y-11171052D01*
X15168763Y-11173268D01*
X15153683Y-11177842D01*
X15145847Y-11178614D01*
X15141929Y-11179000D01*
X15044071Y-11179000D01*
X15040153Y-11178614D01*
X15032317Y-11177842D01*
X15017237Y-11173268D01*
X15013091Y-11171052D01*
X15003339Y-11165839D01*
X14991158Y-11155842D01*
X14981161Y-11143661D01*
X14973732Y-11129763D01*
X14973472Y-11128906D01*
X14969158Y-11114683D01*
X14967613Y-11099000D01*
X14969158Y-11083317D01*
X14973732Y-11068237D01*
X14973732Y-11068237D01*
X14981161Y-11054340D01*
X14991158Y-11042158D01*
X15003339Y-11032161D01*
X15017237Y-11024732D01*
X15017237Y-11024732D01*
X15032317Y-11020158D01*
X15040153Y-11019386D01*
X15044071Y-11019000D01*
X15141929Y-11019000D01*
X15145847Y-11019386D01*
G37*
G36*
X15907847Y-11019386D02*
G01*
X15915683Y-11020158D01*
X15930763Y-11024732D01*
X15930763Y-11024732D01*
X15944660Y-11032161D01*
X15956842Y-11042158D01*
X15966839Y-11054340D01*
X15974268Y-11068237D01*
X15974268Y-11068237D01*
X15978842Y-11083317D01*
X15980387Y-11099000D01*
X15978842Y-11114683D01*
X15974528Y-11128906D01*
X15974268Y-11129763D01*
X15966839Y-11143661D01*
X15956842Y-11155842D01*
X15944660Y-11165839D01*
X15934909Y-11171052D01*
X15930763Y-11173268D01*
X15915683Y-11177842D01*
X15907847Y-11178614D01*
X15903929Y-11179000D01*
X15806071Y-11179000D01*
X15802153Y-11178614D01*
X15794317Y-11177842D01*
X15779237Y-11173268D01*
X15775091Y-11171052D01*
X15765339Y-11165839D01*
X15753158Y-11155842D01*
X15743161Y-11143661D01*
X15735732Y-11129763D01*
X15735472Y-11128906D01*
X15731158Y-11114683D01*
X15729613Y-11099000D01*
X15731158Y-11083317D01*
X15735732Y-11068237D01*
X15735732Y-11068237D01*
X15743161Y-11054340D01*
X15753158Y-11042158D01*
X15765339Y-11032161D01*
X15779237Y-11024732D01*
X15779237Y-11024732D01*
X15794317Y-11020158D01*
X15802153Y-11019386D01*
X15806071Y-11019000D01*
X15903929Y-11019000D01*
X15907847Y-11019386D01*
G37*
G36*
X6915552Y-11025404D02*
G01*
X6918906Y-11026421D01*
X6921996Y-11028073D01*
X6924704Y-11030296D01*
X6926927Y-11033004D01*
X6928579Y-11036094D01*
X6929596Y-11039448D01*
X6930000Y-11043549D01*
X6930000Y-11121451D01*
X6929596Y-11125552D01*
X6928579Y-11128906D01*
X6926927Y-11131996D01*
X6924704Y-11134704D01*
X6921996Y-11136927D01*
X6918906Y-11138579D01*
X6915552Y-11139596D01*
X6911451Y-11140000D01*
X6808549Y-11140000D01*
X6804448Y-11139596D01*
X6801094Y-11138579D01*
X6798004Y-11136927D01*
X6795296Y-11134704D01*
X6793073Y-11131996D01*
X6791421Y-11128906D01*
X6790404Y-11125552D01*
X6790000Y-11121451D01*
X6790000Y-11043549D01*
X6790404Y-11039448D01*
X6791421Y-11036094D01*
X6793073Y-11033004D01*
X6795296Y-11030296D01*
X6798004Y-11028073D01*
X6801094Y-11026421D01*
X6804448Y-11025404D01*
X6808549Y-11025000D01*
X6911451Y-11025000D01*
X6915552Y-11025404D01*
G37*
G36*
X21229261Y-10781904D02*
G01*
X21252010Y-10791326D01*
X21252010Y-10791327D01*
X21272483Y-10805006D01*
X21289894Y-10822417D01*
X21295692Y-10831094D01*
X21303574Y-10842891D01*
X21312996Y-10865639D01*
X21317800Y-10889788D01*
X21317800Y-10914412D01*
X21312996Y-10938561D01*
X21303574Y-10961310D01*
X21303574Y-10961310D01*
X21289894Y-10981783D01*
X21272483Y-10999194D01*
X21252010Y-11012874D01*
X21252010Y-11012874D01*
X21252010Y-11012874D01*
X21229261Y-11022296D01*
X21205112Y-11027100D01*
X21180488Y-11027100D01*
X21156339Y-11022296D01*
X21133591Y-11012874D01*
X21133590Y-11012874D01*
X21133590Y-11012874D01*
X21113117Y-10999194D01*
X21095706Y-10981783D01*
X21082027Y-10961310D01*
X21082026Y-10961310D01*
X21072604Y-10938561D01*
X21067800Y-10914412D01*
X21067800Y-10889788D01*
X21072604Y-10865639D01*
X21082026Y-10842891D01*
X21089908Y-10831094D01*
X21095706Y-10822417D01*
X21113117Y-10805006D01*
X21133590Y-10791327D01*
X21133591Y-10791326D01*
X21156339Y-10781904D01*
X21180488Y-10777100D01*
X21205112Y-10777100D01*
X21229261Y-10781904D01*
G37*
G36*
X6673052Y-10805404D02*
G01*
X6676406Y-10806421D01*
X6679496Y-10808073D01*
X6682204Y-10810296D01*
X6684427Y-10813004D01*
X6686079Y-10816094D01*
X6687096Y-10819448D01*
X6687500Y-10823549D01*
X6687500Y-10926451D01*
X6687096Y-10930552D01*
X6686079Y-10933906D01*
X6684427Y-10936996D01*
X6682204Y-10939704D01*
X6679496Y-10941927D01*
X6676406Y-10943579D01*
X6673052Y-10944596D01*
X6668951Y-10945000D01*
X6591049Y-10945000D01*
X6586948Y-10944596D01*
X6583594Y-10943579D01*
X6580504Y-10941927D01*
X6577796Y-10939704D01*
X6575573Y-10936996D01*
X6573921Y-10933906D01*
X6572904Y-10930552D01*
X6572500Y-10926451D01*
X6572500Y-10823549D01*
X6572904Y-10819448D01*
X6573921Y-10816094D01*
X6575573Y-10813004D01*
X6577796Y-10810296D01*
X6580504Y-10808073D01*
X6583594Y-10806421D01*
X6586948Y-10805404D01*
X6591049Y-10805000D01*
X6668951Y-10805000D01*
X6673052Y-10805404D01*
G37*
G36*
X6468052Y-10805404D02*
G01*
X6471406Y-10806421D01*
X6474496Y-10808073D01*
X6477204Y-10810296D01*
X6479427Y-10813004D01*
X6481079Y-10816094D01*
X6482096Y-10819448D01*
X6482500Y-10823549D01*
X6482500Y-10926451D01*
X6482096Y-10930552D01*
X6481079Y-10933906D01*
X6479427Y-10936996D01*
X6477204Y-10939704D01*
X6474496Y-10941927D01*
X6471406Y-10943579D01*
X6468052Y-10944596D01*
X6463951Y-10945000D01*
X6386049Y-10945000D01*
X6381948Y-10944596D01*
X6378594Y-10943579D01*
X6375504Y-10941927D01*
X6372796Y-10939704D01*
X6370573Y-10936996D01*
X6368921Y-10933906D01*
X6367904Y-10930552D01*
X6367500Y-10926451D01*
X6367500Y-10823549D01*
X6367904Y-10819448D01*
X6368921Y-10816094D01*
X6370573Y-10813004D01*
X6372796Y-10810296D01*
X6375504Y-10808073D01*
X6378594Y-10806421D01*
X6381948Y-10805404D01*
X6386049Y-10805000D01*
X6463951Y-10805000D01*
X6468052Y-10805404D01*
G37*
G36*
X6915552Y-10820404D02*
G01*
X6918906Y-10821421D01*
X6921996Y-10823073D01*
X6924704Y-10825296D01*
X6926927Y-10828004D01*
X6928579Y-10831094D01*
X6929596Y-10834448D01*
X6930000Y-10838549D01*
X6930000Y-10916451D01*
X6929596Y-10920552D01*
X6928579Y-10923906D01*
X6926927Y-10926996D01*
X6924704Y-10929704D01*
X6921996Y-10931927D01*
X6918906Y-10933579D01*
X6915552Y-10934596D01*
X6911451Y-10935000D01*
X6808549Y-10935000D01*
X6804448Y-10934596D01*
X6801094Y-10933579D01*
X6798004Y-10931927D01*
X6795296Y-10929704D01*
X6793073Y-10926996D01*
X6791421Y-10923906D01*
X6790404Y-10920552D01*
X6790000Y-10916451D01*
X6790000Y-10838549D01*
X6790404Y-10834448D01*
X6791421Y-10831094D01*
X6793073Y-10828004D01*
X6795296Y-10825296D01*
X6798004Y-10823073D01*
X6801094Y-10821421D01*
X6804448Y-10820404D01*
X6808549Y-10820000D01*
X6911451Y-10820000D01*
X6915552Y-10820404D01*
G37*
G36*
X15907847Y-10765386D02*
G01*
X15915683Y-10766158D01*
X15930763Y-10770732D01*
X15930763Y-10770732D01*
X15944660Y-10778161D01*
X15956842Y-10788158D01*
X15966839Y-10800340D01*
X15974268Y-10814237D01*
X15974268Y-10814237D01*
X15978842Y-10829317D01*
X15980387Y-10845000D01*
X15978842Y-10860683D01*
X15974268Y-10875763D01*
X15974268Y-10875763D01*
X15966839Y-10889661D01*
X15956842Y-10901842D01*
X15944660Y-10911839D01*
X15930763Y-10919268D01*
X15930763Y-10919268D01*
X15915683Y-10923842D01*
X15907847Y-10924614D01*
X15903929Y-10925000D01*
X15806071Y-10925000D01*
X15802153Y-10924614D01*
X15794317Y-10923842D01*
X15779237Y-10919268D01*
X15779237Y-10919268D01*
X15765339Y-10911839D01*
X15753158Y-10901842D01*
X15743161Y-10889661D01*
X15735732Y-10875763D01*
X15735732Y-10875763D01*
X15731158Y-10860683D01*
X15729613Y-10845000D01*
X15731158Y-10829317D01*
X15735732Y-10814237D01*
X15735732Y-10814237D01*
X15743161Y-10800340D01*
X15753158Y-10788158D01*
X15765339Y-10778161D01*
X15779237Y-10770732D01*
X15779237Y-10770732D01*
X15794317Y-10766158D01*
X15802153Y-10765386D01*
X15806071Y-10765000D01*
X15903929Y-10765000D01*
X15907847Y-10765386D01*
G37*
G36*
X15145847Y-10765386D02*
G01*
X15153683Y-10766158D01*
X15168763Y-10770732D01*
X15168763Y-10770732D01*
X15182660Y-10778161D01*
X15194842Y-10788158D01*
X15204839Y-10800340D01*
X15212268Y-10814237D01*
X15212268Y-10814237D01*
X15216842Y-10829317D01*
X15218387Y-10845000D01*
X15216842Y-10860683D01*
X15212268Y-10875763D01*
X15212268Y-10875763D01*
X15204839Y-10889661D01*
X15194842Y-10901842D01*
X15182660Y-10911839D01*
X15168763Y-10919268D01*
X15168763Y-10919268D01*
X15153683Y-10923842D01*
X15145847Y-10924614D01*
X15141929Y-10925000D01*
X15044071Y-10925000D01*
X15040153Y-10924614D01*
X15032317Y-10923842D01*
X15017237Y-10919268D01*
X15017237Y-10919268D01*
X15003339Y-10911839D01*
X14991158Y-10901842D01*
X14981161Y-10889661D01*
X14973732Y-10875763D01*
X14973732Y-10875763D01*
X14969158Y-10860683D01*
X14967613Y-10845000D01*
X14969158Y-10829317D01*
X14973732Y-10814237D01*
X14973732Y-10814237D01*
X14981161Y-10800340D01*
X14991158Y-10788158D01*
X15003339Y-10778161D01*
X15017237Y-10770732D01*
X15017237Y-10770732D01*
X15032317Y-10766158D01*
X15040153Y-10765386D01*
X15044071Y-10765000D01*
X15141929Y-10765000D01*
X15145847Y-10765386D01*
G37*
G36*
X21529689Y-10518868D02*
G01*
X21551033Y-10523113D01*
X21560270Y-10526940D01*
X21584246Y-10536871D01*
X21614137Y-10556843D01*
X21639557Y-10582263D01*
X21659530Y-10612154D01*
X21664751Y-10624761D01*
X21673287Y-10645367D01*
X21673779Y-10647842D01*
X21678396Y-10671052D01*
X21680300Y-10680625D01*
X21680300Y-10716575D01*
X21673287Y-10751833D01*
X21667833Y-10765000D01*
X21659530Y-10785046D01*
X21639557Y-10814937D01*
X21614137Y-10840357D01*
X21584246Y-10860330D01*
X21571428Y-10865639D01*
X21551033Y-10874087D01*
X21542607Y-10875763D01*
X21515775Y-10881100D01*
X21479825Y-10881100D01*
X21452994Y-10875763D01*
X21444567Y-10874087D01*
X21424172Y-10865639D01*
X21411354Y-10860330D01*
X21381463Y-10840357D01*
X21356043Y-10814937D01*
X21336071Y-10785046D01*
X21327767Y-10765000D01*
X21322313Y-10751833D01*
X21315300Y-10716575D01*
X21315300Y-10680625D01*
X21317204Y-10671052D01*
X21321821Y-10647842D01*
X21322313Y-10645367D01*
X21330849Y-10624761D01*
X21336071Y-10612154D01*
X21356043Y-10582263D01*
X21381463Y-10556843D01*
X21411354Y-10536871D01*
X21435330Y-10526940D01*
X21444567Y-10523113D01*
X21465911Y-10518868D01*
X21479825Y-10516100D01*
X21515775Y-10516100D01*
X21529689Y-10518868D01*
G37*
G36*
X17616247Y-10611986D02*
G01*
X17624083Y-10612758D01*
X17639163Y-10617332D01*
X17639163Y-10617332D01*
X17653061Y-10624761D01*
X17665242Y-10634758D01*
X17674360Y-10645868D01*
X17675239Y-10646939D01*
X17682668Y-10660837D01*
X17687242Y-10675917D01*
X17688787Y-10691600D01*
X17687242Y-10707283D01*
X17682668Y-10722363D01*
X17682668Y-10722363D01*
X17675239Y-10736261D01*
X17665242Y-10748442D01*
X17653061Y-10758439D01*
X17640787Y-10765000D01*
X17639163Y-10765868D01*
X17624083Y-10770442D01*
X17616247Y-10771214D01*
X17612329Y-10771600D01*
X17514471Y-10771600D01*
X17510553Y-10771214D01*
X17502717Y-10770442D01*
X17487637Y-10765868D01*
X17486014Y-10765000D01*
X17473740Y-10758439D01*
X17461558Y-10748442D01*
X17451561Y-10736261D01*
X17444132Y-10722363D01*
X17444132Y-10722363D01*
X17439558Y-10707283D01*
X17438013Y-10691600D01*
X17439558Y-10675917D01*
X17444132Y-10660837D01*
X17451561Y-10646939D01*
X17452440Y-10645868D01*
X17461558Y-10634758D01*
X17473740Y-10624761D01*
X17487637Y-10617332D01*
X17487637Y-10617332D01*
X17502717Y-10612758D01*
X17510553Y-10611986D01*
X17514471Y-10611600D01*
X17612329Y-10611600D01*
X17616247Y-10611986D01*
G37*
G36*
X7703753Y-10455764D02*
G01*
X7728534Y-10466029D01*
X7731052Y-10467072D01*
X7742917Y-10475000D01*
X7750106Y-10479804D01*
X7755619Y-10483487D01*
X7776513Y-10504381D01*
X7791586Y-10526940D01*
X7792928Y-10528949D01*
X7804236Y-10556247D01*
X7810000Y-10585226D01*
X7810000Y-10614774D01*
X7804236Y-10643753D01*
X7793429Y-10669842D01*
X7792928Y-10671052D01*
X7786949Y-10680000D01*
X7776513Y-10695619D01*
X7755619Y-10716513D01*
X7746864Y-10722363D01*
X7731052Y-10732928D01*
X7731052Y-10732928D01*
X7731051Y-10732928D01*
X7703753Y-10744236D01*
X7674774Y-10750000D01*
X7645226Y-10750000D01*
X7616247Y-10744236D01*
X7588948Y-10732928D01*
X7588948Y-10732928D01*
X7588948Y-10732928D01*
X7573136Y-10722363D01*
X7564381Y-10716513D01*
X7543487Y-10695619D01*
X7533051Y-10680000D01*
X7527072Y-10671052D01*
X7526571Y-10669842D01*
X7515764Y-10643753D01*
X7510000Y-10614774D01*
X7510000Y-10585226D01*
X7515764Y-10556247D01*
X7527072Y-10528949D01*
X7528414Y-10526940D01*
X7543487Y-10504381D01*
X7564381Y-10483487D01*
X7569894Y-10479804D01*
X7577083Y-10475000D01*
X7588948Y-10467072D01*
X7591466Y-10466029D01*
X7616247Y-10455764D01*
X7645226Y-10450000D01*
X7674774Y-10450000D01*
X7703753Y-10455764D01*
G37*
G36*
X8716461Y-10479804D02*
G01*
X8739210Y-10489226D01*
X8739210Y-10489227D01*
X8759683Y-10502906D01*
X8777094Y-10520317D01*
X8788154Y-10536871D01*
X8790774Y-10540791D01*
X8800196Y-10563539D01*
X8805000Y-10587688D01*
X8805000Y-10612312D01*
X8800196Y-10636461D01*
X8791341Y-10657839D01*
X8790774Y-10659210D01*
X8777094Y-10679683D01*
X8759683Y-10697094D01*
X8739210Y-10710774D01*
X8739210Y-10710774D01*
X8739210Y-10710774D01*
X8716461Y-10720196D01*
X8692312Y-10725000D01*
X8667688Y-10725000D01*
X8643539Y-10720196D01*
X8620791Y-10710774D01*
X8620790Y-10710774D01*
X8620790Y-10710774D01*
X8600317Y-10697094D01*
X8582906Y-10679683D01*
X8569227Y-10659210D01*
X8568659Y-10657839D01*
X8559804Y-10636461D01*
X8555000Y-10612312D01*
X8555000Y-10587688D01*
X8559804Y-10563539D01*
X8569226Y-10540791D01*
X8571846Y-10536871D01*
X8582906Y-10520317D01*
X8600317Y-10502906D01*
X8620790Y-10489227D01*
X8620791Y-10489226D01*
X8643539Y-10479804D01*
X8667688Y-10475000D01*
X8692312Y-10475000D01*
X8716461Y-10479804D01*
G37*
G36*
X5811735Y-9631842D02*
G01*
X5854595Y-9640368D01*
X5882285Y-9651837D01*
X5951049Y-9680320D01*
X6037855Y-9738322D01*
X6111678Y-9812145D01*
X6169680Y-9898951D01*
X6178661Y-9920634D01*
X6209632Y-9995405D01*
X6211891Y-10006758D01*
X6230000Y-10097799D01*
X6230000Y-10202201D01*
X6223424Y-10235261D01*
X6209632Y-10304595D01*
X6203089Y-10320393D01*
X6169680Y-10401049D01*
X6111678Y-10487855D01*
X6037855Y-10561678D01*
X5951049Y-10619680D01*
X5905760Y-10638439D01*
X5854595Y-10659632D01*
X5826264Y-10665268D01*
X5752201Y-10680000D01*
X5647799Y-10680000D01*
X5573736Y-10665268D01*
X5545405Y-10659632D01*
X5494240Y-10638439D01*
X5448951Y-10619680D01*
X5362145Y-10561678D01*
X5288322Y-10487855D01*
X5230320Y-10401049D01*
X5196911Y-10320393D01*
X5190368Y-10304595D01*
X5176576Y-10235261D01*
X5170000Y-10202201D01*
X5170000Y-10097799D01*
X5188109Y-10006758D01*
X5190368Y-9995405D01*
X5221339Y-9920634D01*
X5230320Y-9898951D01*
X5288322Y-9812145D01*
X5362145Y-9738322D01*
X5448951Y-9680320D01*
X5517715Y-9651837D01*
X5545405Y-9640368D01*
X5588265Y-9631842D01*
X5647799Y-9620000D01*
X5752201Y-9620000D01*
X5811735Y-9631842D01*
G37*
G36*
X15907847Y-10511386D02*
G01*
X15915683Y-10512158D01*
X15930763Y-10516732D01*
X15930763Y-10516732D01*
X15944660Y-10524161D01*
X15956842Y-10534158D01*
X15966839Y-10546340D01*
X15974268Y-10560237D01*
X15974268Y-10560237D01*
X15978842Y-10575317D01*
X15980387Y-10591000D01*
X15978842Y-10606683D01*
X15975612Y-10617332D01*
X15974268Y-10621763D01*
X15966839Y-10635661D01*
X15956842Y-10647842D01*
X15944660Y-10657839D01*
X15941306Y-10659632D01*
X15930763Y-10665268D01*
X15915683Y-10669842D01*
X15907847Y-10670614D01*
X15903929Y-10671000D01*
X15806071Y-10671000D01*
X15802153Y-10670614D01*
X15794317Y-10669842D01*
X15779237Y-10665268D01*
X15768694Y-10659632D01*
X15765339Y-10657839D01*
X15753158Y-10647842D01*
X15743161Y-10635661D01*
X15735732Y-10621763D01*
X15734388Y-10617332D01*
X15731158Y-10606683D01*
X15729613Y-10591000D01*
X15731158Y-10575317D01*
X15735732Y-10560237D01*
X15735732Y-10560237D01*
X15743161Y-10546340D01*
X15753158Y-10534158D01*
X15765339Y-10524161D01*
X15779237Y-10516732D01*
X15779237Y-10516732D01*
X15794317Y-10512158D01*
X15802153Y-10511386D01*
X15806071Y-10511000D01*
X15903929Y-10511000D01*
X15907847Y-10511386D01*
G37*
G36*
X15145847Y-10511386D02*
G01*
X15153683Y-10512158D01*
X15168763Y-10516732D01*
X15168763Y-10516732D01*
X15182660Y-10524161D01*
X15194842Y-10534158D01*
X15204839Y-10546340D01*
X15212268Y-10560237D01*
X15212268Y-10560237D01*
X15216842Y-10575317D01*
X15218387Y-10591000D01*
X15216842Y-10606683D01*
X15213612Y-10617332D01*
X15212268Y-10621763D01*
X15204839Y-10635661D01*
X15194842Y-10647842D01*
X15182660Y-10657839D01*
X15179306Y-10659632D01*
X15168763Y-10665268D01*
X15153683Y-10669842D01*
X15145847Y-10670614D01*
X15141929Y-10671000D01*
X15044071Y-10671000D01*
X15040153Y-10670614D01*
X15032317Y-10669842D01*
X15017237Y-10665268D01*
X15006694Y-10659632D01*
X15003339Y-10657839D01*
X14991158Y-10647842D01*
X14981161Y-10635661D01*
X14973732Y-10621763D01*
X14972388Y-10617332D01*
X14969158Y-10606683D01*
X14967613Y-10591000D01*
X14969158Y-10575317D01*
X14973732Y-10560237D01*
X14973732Y-10560237D01*
X14981161Y-10546340D01*
X14991158Y-10534158D01*
X15003339Y-10524161D01*
X15017237Y-10516732D01*
X15017237Y-10516732D01*
X15032317Y-10512158D01*
X15040153Y-10511386D01*
X15044071Y-10511000D01*
X15141929Y-10511000D01*
X15145847Y-10511386D01*
G37*
G36*
X20915647Y-10491986D02*
G01*
X20923483Y-10492758D01*
X20938563Y-10497332D01*
X20938563Y-10497332D01*
X20952461Y-10504761D01*
X20964642Y-10514758D01*
X20974639Y-10526940D01*
X20979948Y-10536871D01*
X20982068Y-10540837D01*
X20986642Y-10555917D01*
X20988187Y-10571600D01*
X20986642Y-10587283D01*
X20985060Y-10592500D01*
X20982068Y-10602363D01*
X20974639Y-10616261D01*
X20964642Y-10628442D01*
X20952461Y-10638439D01*
X20942519Y-10643753D01*
X20938563Y-10645868D01*
X20923483Y-10650442D01*
X20915647Y-10651214D01*
X20911729Y-10651600D01*
X20813871Y-10651600D01*
X20809953Y-10651214D01*
X20802117Y-10650442D01*
X20787037Y-10645868D01*
X20783081Y-10643753D01*
X20773140Y-10638439D01*
X20760958Y-10628442D01*
X20750961Y-10616261D01*
X20743532Y-10602363D01*
X20740540Y-10592500D01*
X20738958Y-10587283D01*
X20737413Y-10571600D01*
X20738958Y-10555917D01*
X20743532Y-10540837D01*
X20745652Y-10536871D01*
X20750961Y-10526940D01*
X20760958Y-10514758D01*
X20773140Y-10504761D01*
X20787037Y-10497332D01*
X20787037Y-10497332D01*
X20802117Y-10492758D01*
X20809953Y-10491986D01*
X20813871Y-10491600D01*
X20911729Y-10491600D01*
X20915647Y-10491986D01*
G37*
G36*
X20661647Y-10364986D02*
G01*
X20669483Y-10365758D01*
X20684563Y-10370332D01*
X20684563Y-10370332D01*
X20698461Y-10377761D01*
X20710642Y-10387758D01*
X20720639Y-10399940D01*
X20726695Y-10411268D01*
X20728068Y-10413837D01*
X20732642Y-10428917D01*
X20734187Y-10444600D01*
X20732642Y-10460283D01*
X20728068Y-10475363D01*
X20728068Y-10475363D01*
X20720639Y-10489261D01*
X20710642Y-10501442D01*
X20698461Y-10511439D01*
X20688559Y-10516732D01*
X20684563Y-10518868D01*
X20669483Y-10523442D01*
X20662191Y-10524161D01*
X20657729Y-10524600D01*
X20559871Y-10524600D01*
X20555409Y-10524161D01*
X20548117Y-10523442D01*
X20533037Y-10518868D01*
X20529041Y-10516732D01*
X20519140Y-10511439D01*
X20506958Y-10501442D01*
X20496961Y-10489261D01*
X20489532Y-10475363D01*
X20489532Y-10475363D01*
X20484958Y-10460283D01*
X20483413Y-10444600D01*
X20484958Y-10428917D01*
X20489532Y-10413837D01*
X20490906Y-10411268D01*
X20496961Y-10399940D01*
X20506958Y-10387758D01*
X20519140Y-10377761D01*
X20533037Y-10370332D01*
X20533037Y-10370332D01*
X20548117Y-10365758D01*
X20555953Y-10364986D01*
X20559871Y-10364600D01*
X20657729Y-10364600D01*
X20661647Y-10364986D01*
G37*
G36*
X15145847Y-10257386D02*
G01*
X15153683Y-10258158D01*
X15168763Y-10262732D01*
X15168763Y-10262732D01*
X15182660Y-10270161D01*
X15194842Y-10280158D01*
X15204839Y-10292340D01*
X15209959Y-10301918D01*
X15212268Y-10306237D01*
X15216842Y-10321317D01*
X15218387Y-10337000D01*
X15216842Y-10352683D01*
X15212268Y-10367763D01*
X15212268Y-10367763D01*
X15204839Y-10381661D01*
X15194842Y-10393842D01*
X15182660Y-10403839D01*
X15171585Y-10409759D01*
X15168763Y-10411268D01*
X15153683Y-10415842D01*
X15145847Y-10416614D01*
X15141929Y-10417000D01*
X15044071Y-10417000D01*
X15040153Y-10416614D01*
X15032317Y-10415842D01*
X15017237Y-10411268D01*
X15014415Y-10409759D01*
X15003339Y-10403839D01*
X14991158Y-10393842D01*
X14981161Y-10381661D01*
X14973732Y-10367763D01*
X14973732Y-10367763D01*
X14969158Y-10352683D01*
X14967613Y-10337000D01*
X14969158Y-10321317D01*
X14973732Y-10306237D01*
X14976041Y-10301918D01*
X14981161Y-10292340D01*
X14991158Y-10280158D01*
X15003339Y-10270161D01*
X15017237Y-10262732D01*
X15017237Y-10262732D01*
X15032317Y-10258158D01*
X15040153Y-10257386D01*
X15044071Y-10257000D01*
X15141929Y-10257000D01*
X15145847Y-10257386D01*
G37*
G36*
X15907847Y-10257386D02*
G01*
X15915683Y-10258158D01*
X15930763Y-10262732D01*
X15930763Y-10262732D01*
X15944660Y-10270161D01*
X15956842Y-10280158D01*
X15966839Y-10292340D01*
X15971959Y-10301918D01*
X15974268Y-10306237D01*
X15978842Y-10321317D01*
X15980387Y-10337000D01*
X15978842Y-10352683D01*
X15974268Y-10367763D01*
X15974268Y-10367763D01*
X15966839Y-10381661D01*
X15956842Y-10393842D01*
X15944660Y-10403839D01*
X15933585Y-10409759D01*
X15930763Y-10411268D01*
X15915683Y-10415842D01*
X15907847Y-10416614D01*
X15903929Y-10417000D01*
X15806071Y-10417000D01*
X15802153Y-10416614D01*
X15794317Y-10415842D01*
X15779237Y-10411268D01*
X15776415Y-10409759D01*
X15765339Y-10403839D01*
X15753158Y-10393842D01*
X15743161Y-10381661D01*
X15735732Y-10367763D01*
X15735732Y-10367763D01*
X15731158Y-10352683D01*
X15729613Y-10337000D01*
X15731158Y-10321317D01*
X15735732Y-10306237D01*
X15738041Y-10301918D01*
X15743161Y-10292340D01*
X15753158Y-10280158D01*
X15765339Y-10270161D01*
X15779237Y-10262732D01*
X15779237Y-10262732D01*
X15794317Y-10258158D01*
X15802153Y-10257386D01*
X15806071Y-10257000D01*
X15903929Y-10257000D01*
X15907847Y-10257386D01*
G37*
G36*
X20915647Y-10237986D02*
G01*
X20923483Y-10238758D01*
X20938563Y-10243332D01*
X20938563Y-10243332D01*
X20952461Y-10250761D01*
X20964642Y-10260758D01*
X20974639Y-10272940D01*
X20977274Y-10277868D01*
X20982068Y-10286837D01*
X20986642Y-10301917D01*
X20988187Y-10317600D01*
X20986642Y-10333283D01*
X20982068Y-10348363D01*
X20982068Y-10348363D01*
X20974639Y-10362261D01*
X20964642Y-10374442D01*
X20952461Y-10384439D01*
X20946252Y-10387758D01*
X20938563Y-10391868D01*
X20923483Y-10396442D01*
X20915647Y-10397214D01*
X20911729Y-10397600D01*
X20813871Y-10397600D01*
X20809953Y-10397214D01*
X20802117Y-10396442D01*
X20787037Y-10391868D01*
X20779348Y-10387758D01*
X20773140Y-10384439D01*
X20760958Y-10374442D01*
X20750961Y-10362261D01*
X20743532Y-10348363D01*
X20743532Y-10348363D01*
X20738958Y-10333283D01*
X20737413Y-10317600D01*
X20738958Y-10301917D01*
X20743532Y-10286837D01*
X20748326Y-10277868D01*
X20750961Y-10272940D01*
X20760958Y-10260758D01*
X20773140Y-10250761D01*
X20787037Y-10243332D01*
X20787037Y-10243332D01*
X20802117Y-10238758D01*
X20809953Y-10237986D01*
X20813871Y-10237600D01*
X20911729Y-10237600D01*
X20915647Y-10237986D01*
G37*
G36*
X13272922Y-9839607D02*
G01*
X13316741Y-9857758D01*
X13318419Y-9858453D01*
X13327459Y-9864493D01*
X13359366Y-9885812D01*
X13394188Y-9920634D01*
X13421547Y-9961581D01*
X13440393Y-10007078D01*
X13450000Y-10055377D01*
X13450000Y-10104623D01*
X13440393Y-10152922D01*
X13421547Y-10198419D01*
X13394188Y-10239366D01*
X13359366Y-10274188D01*
X13345279Y-10283600D01*
X13318419Y-10301547D01*
X13318419Y-10301547D01*
X13318419Y-10301547D01*
X13272922Y-10320393D01*
X13224623Y-10330000D01*
X13175377Y-10330000D01*
X13127078Y-10320393D01*
X13081581Y-10301547D01*
X13081581Y-10301547D01*
X13081581Y-10301547D01*
X13054721Y-10283600D01*
X13040634Y-10274188D01*
X13005812Y-10239366D01*
X12978453Y-10198419D01*
X12959607Y-10152922D01*
X12950000Y-10104623D01*
X12950000Y-10055377D01*
X12959607Y-10007078D01*
X12978453Y-9961581D01*
X13005812Y-9920634D01*
X13040634Y-9885812D01*
X13072541Y-9864493D01*
X13081581Y-9858453D01*
X13083259Y-9857758D01*
X13127078Y-9839607D01*
X13175377Y-9830000D01*
X13224623Y-9830000D01*
X13272922Y-9839607D01*
G37*
G36*
X10405722Y-9824007D02*
G01*
X10451219Y-9842853D01*
X10451219Y-9842853D01*
X10458338Y-9847610D01*
X10492166Y-9870212D01*
X10526988Y-9905034D01*
X10554347Y-9945981D01*
X10573193Y-9991478D01*
X10582800Y-10039777D01*
X10582800Y-10089023D01*
X10573193Y-10137322D01*
X10558482Y-10172837D01*
X10554347Y-10182819D01*
X10547364Y-10193271D01*
X10526988Y-10223766D01*
X10492166Y-10258588D01*
X10482767Y-10264868D01*
X10451219Y-10285947D01*
X10451219Y-10285947D01*
X10451219Y-10285947D01*
X10405722Y-10304793D01*
X10357423Y-10314400D01*
X10308177Y-10314400D01*
X10259878Y-10304793D01*
X10214381Y-10285947D01*
X10214381Y-10285947D01*
X10214381Y-10285947D01*
X10182833Y-10264868D01*
X10173434Y-10258588D01*
X10138612Y-10223766D01*
X10118236Y-10193271D01*
X10111253Y-10182819D01*
X10107118Y-10172837D01*
X10092407Y-10137322D01*
X10082800Y-10089023D01*
X10082800Y-10039777D01*
X10092407Y-9991478D01*
X10111253Y-9945981D01*
X10138612Y-9905034D01*
X10173434Y-9870212D01*
X10207262Y-9847610D01*
X10214381Y-9842853D01*
X10214381Y-9842853D01*
X10259878Y-9824007D01*
X10308177Y-9814400D01*
X10357423Y-9814400D01*
X10405722Y-9824007D01*
G37*
G36*
X17616247Y-10123986D02*
G01*
X17624083Y-10124758D01*
X17639163Y-10129332D01*
X17639163Y-10129332D01*
X17653061Y-10136761D01*
X17665242Y-10146758D01*
X17673868Y-10157268D01*
X17675239Y-10158939D01*
X17682668Y-10172837D01*
X17687242Y-10187917D01*
X17688787Y-10203600D01*
X17687242Y-10219283D01*
X17682668Y-10234363D01*
X17682668Y-10234363D01*
X17675239Y-10248261D01*
X17665242Y-10260442D01*
X17653061Y-10270439D01*
X17639163Y-10277868D01*
X17639163Y-10277868D01*
X17624083Y-10282442D01*
X17616247Y-10283214D01*
X17612329Y-10283600D01*
X17514471Y-10283600D01*
X17510553Y-10283214D01*
X17502717Y-10282442D01*
X17487637Y-10277868D01*
X17487637Y-10277868D01*
X17473740Y-10270439D01*
X17461558Y-10260442D01*
X17451561Y-10248261D01*
X17444132Y-10234363D01*
X17444132Y-10234363D01*
X17439558Y-10219283D01*
X17438013Y-10203600D01*
X17439558Y-10187917D01*
X17444132Y-10172837D01*
X17451561Y-10158939D01*
X17452933Y-10157268D01*
X17461558Y-10146758D01*
X17473740Y-10136761D01*
X17487637Y-10129332D01*
X17487637Y-10129332D01*
X17502717Y-10124758D01*
X17510553Y-10123986D01*
X17514471Y-10123600D01*
X17612329Y-10123600D01*
X17616247Y-10123986D01*
G37*
G36*
X20661647Y-10110986D02*
G01*
X20669483Y-10111758D01*
X20684563Y-10116332D01*
X20684563Y-10116332D01*
X20698461Y-10123761D01*
X20710642Y-10133758D01*
X20720639Y-10145940D01*
X20722724Y-10149839D01*
X20728068Y-10159837D01*
X20732642Y-10174917D01*
X20734187Y-10190600D01*
X20732642Y-10206283D01*
X20728068Y-10221363D01*
X20728068Y-10221363D01*
X20720639Y-10235261D01*
X20710642Y-10247442D01*
X20698461Y-10257439D01*
X20692252Y-10260758D01*
X20684563Y-10264868D01*
X20669483Y-10269442D01*
X20662191Y-10270161D01*
X20657729Y-10270600D01*
X20559871Y-10270600D01*
X20555409Y-10270161D01*
X20548117Y-10269442D01*
X20533037Y-10264868D01*
X20525348Y-10260758D01*
X20519140Y-10257439D01*
X20506958Y-10247442D01*
X20496961Y-10235261D01*
X20489532Y-10221363D01*
X20489532Y-10221363D01*
X20484958Y-10206283D01*
X20483413Y-10190600D01*
X20484958Y-10174917D01*
X20489532Y-10159837D01*
X20494876Y-10149839D01*
X20496961Y-10145940D01*
X20506958Y-10133758D01*
X20519140Y-10123761D01*
X20533037Y-10116332D01*
X20533037Y-10116332D01*
X20548117Y-10111758D01*
X20555953Y-10110986D01*
X20559871Y-10110600D01*
X20657729Y-10110600D01*
X20661647Y-10110986D01*
G37*
G36*
X15145847Y-10003386D02*
G01*
X15153683Y-10004158D01*
X15168763Y-10008732D01*
X15168763Y-10008732D01*
X15182660Y-10016161D01*
X15194842Y-10026158D01*
X15204839Y-10038340D01*
X15209959Y-10047918D01*
X15212268Y-10052237D01*
X15216842Y-10067317D01*
X15218387Y-10083000D01*
X15216842Y-10098683D01*
X15212268Y-10113763D01*
X15212268Y-10113763D01*
X15204839Y-10127661D01*
X15194842Y-10139842D01*
X15182660Y-10149839D01*
X15176893Y-10152922D01*
X15168763Y-10157268D01*
X15153683Y-10161842D01*
X15145847Y-10162614D01*
X15141929Y-10163000D01*
X15044071Y-10163000D01*
X15040153Y-10162614D01*
X15032317Y-10161842D01*
X15017237Y-10157268D01*
X15009107Y-10152922D01*
X15003339Y-10149839D01*
X14991158Y-10139842D01*
X14981161Y-10127661D01*
X14973732Y-10113763D01*
X14973732Y-10113763D01*
X14969158Y-10098683D01*
X14967613Y-10083000D01*
X14969158Y-10067317D01*
X14973732Y-10052237D01*
X14976041Y-10047918D01*
X14981161Y-10038340D01*
X14991158Y-10026158D01*
X15003339Y-10016161D01*
X15017237Y-10008732D01*
X15017237Y-10008732D01*
X15032317Y-10004158D01*
X15040153Y-10003386D01*
X15044071Y-10003000D01*
X15141929Y-10003000D01*
X15145847Y-10003386D01*
G37*
G36*
X15907847Y-10003386D02*
G01*
X15915683Y-10004158D01*
X15930763Y-10008732D01*
X15930763Y-10008732D01*
X15944660Y-10016161D01*
X15956842Y-10026158D01*
X15966839Y-10038340D01*
X15971959Y-10047918D01*
X15974268Y-10052237D01*
X15978842Y-10067317D01*
X15980387Y-10083000D01*
X15978842Y-10098683D01*
X15974268Y-10113763D01*
X15974268Y-10113763D01*
X15966839Y-10127661D01*
X15956842Y-10139842D01*
X15944660Y-10149839D01*
X15938893Y-10152922D01*
X15930763Y-10157268D01*
X15915683Y-10161842D01*
X15907847Y-10162614D01*
X15903929Y-10163000D01*
X15806071Y-10163000D01*
X15802153Y-10162614D01*
X15794317Y-10161842D01*
X15779237Y-10157268D01*
X15771107Y-10152922D01*
X15765339Y-10149839D01*
X15753158Y-10139842D01*
X15743161Y-10127661D01*
X15735732Y-10113763D01*
X15735732Y-10113763D01*
X15731158Y-10098683D01*
X15729613Y-10083000D01*
X15731158Y-10067317D01*
X15735732Y-10052237D01*
X15738041Y-10047918D01*
X15743161Y-10038340D01*
X15753158Y-10026158D01*
X15765339Y-10016161D01*
X15779237Y-10008732D01*
X15779237Y-10008732D01*
X15794317Y-10004158D01*
X15802153Y-10003386D01*
X15806071Y-10003000D01*
X15903929Y-10003000D01*
X15907847Y-10003386D01*
G37*
G36*
X16552447Y-9986786D02*
G01*
X16560283Y-9987558D01*
X16575363Y-9992132D01*
X16575363Y-9992132D01*
X16589260Y-9999561D01*
X16601442Y-10009558D01*
X16611439Y-10021740D01*
X16617371Y-10032837D01*
X16618868Y-10035637D01*
X16623442Y-10050717D01*
X16624987Y-10066400D01*
X16623442Y-10082083D01*
X16619717Y-10094363D01*
X16618868Y-10097163D01*
X16611439Y-10111061D01*
X16601442Y-10123242D01*
X16589260Y-10133239D01*
X16580601Y-10137868D01*
X16575363Y-10140668D01*
X16560283Y-10145242D01*
X16553206Y-10145939D01*
X16548529Y-10146400D01*
X16450671Y-10146400D01*
X16445994Y-10145939D01*
X16438917Y-10145242D01*
X16423837Y-10140668D01*
X16418599Y-10137868D01*
X16409939Y-10133239D01*
X16397758Y-10123242D01*
X16387761Y-10111061D01*
X16380332Y-10097163D01*
X16379483Y-10094363D01*
X16375758Y-10082083D01*
X16374213Y-10066400D01*
X16375758Y-10050717D01*
X16380332Y-10035637D01*
X16381829Y-10032837D01*
X16387761Y-10021740D01*
X16397758Y-10009558D01*
X16409939Y-9999561D01*
X16423837Y-9992132D01*
X16423837Y-9992132D01*
X16438917Y-9987558D01*
X16446753Y-9986786D01*
X16450671Y-9986400D01*
X16548529Y-9986400D01*
X16552447Y-9986786D01*
G37*
G36*
X20915647Y-9983986D02*
G01*
X20923483Y-9984758D01*
X20938563Y-9989332D01*
X20938563Y-9989332D01*
X20952461Y-9996761D01*
X20964642Y-10006758D01*
X20974639Y-10018940D01*
X20976136Y-10021740D01*
X20982068Y-10032837D01*
X20986642Y-10047917D01*
X20988187Y-10063600D01*
X20986642Y-10079283D01*
X20983688Y-10089023D01*
X20982068Y-10094363D01*
X20974639Y-10108261D01*
X20964642Y-10120442D01*
X20952461Y-10130439D01*
X20938563Y-10137868D01*
X20938563Y-10137868D01*
X20923483Y-10142442D01*
X20915647Y-10143214D01*
X20911729Y-10143600D01*
X20813871Y-10143600D01*
X20809953Y-10143214D01*
X20802117Y-10142442D01*
X20787037Y-10137868D01*
X20787037Y-10137868D01*
X20773140Y-10130439D01*
X20760958Y-10120442D01*
X20750961Y-10108261D01*
X20743532Y-10094363D01*
X20741912Y-10089023D01*
X20738958Y-10079283D01*
X20737413Y-10063600D01*
X20738958Y-10047917D01*
X20743532Y-10032837D01*
X20749464Y-10021740D01*
X20750961Y-10018940D01*
X20760958Y-10006758D01*
X20773140Y-9996761D01*
X20787037Y-9989332D01*
X20787037Y-9989332D01*
X20802117Y-9984758D01*
X20809953Y-9983986D01*
X20813871Y-9983600D01*
X20911729Y-9983600D01*
X20915647Y-9983986D01*
G37*
G36*
X20661647Y-9856986D02*
G01*
X20669483Y-9857758D01*
X20684563Y-9862332D01*
X20684563Y-9862332D01*
X20698461Y-9869761D01*
X20710642Y-9879758D01*
X20719245Y-9890241D01*
X20720639Y-9891939D01*
X20728068Y-9905837D01*
X20732642Y-9920917D01*
X20734187Y-9936600D01*
X20732642Y-9952283D01*
X20728068Y-9967363D01*
X20728068Y-9967363D01*
X20720639Y-9981261D01*
X20710642Y-9993442D01*
X20698461Y-10003439D01*
X20688559Y-10008732D01*
X20684563Y-10010868D01*
X20669483Y-10015442D01*
X20662191Y-10016161D01*
X20657729Y-10016600D01*
X20559871Y-10016600D01*
X20555409Y-10016161D01*
X20548117Y-10015442D01*
X20533037Y-10010868D01*
X20529041Y-10008732D01*
X20519140Y-10003439D01*
X20506958Y-9993442D01*
X20496961Y-9981261D01*
X20489532Y-9967363D01*
X20489532Y-9967363D01*
X20484958Y-9952283D01*
X20483413Y-9936600D01*
X20484958Y-9920917D01*
X20489532Y-9905837D01*
X20496961Y-9891939D01*
X20498355Y-9890241D01*
X20506958Y-9879758D01*
X20519140Y-9869761D01*
X20533037Y-9862332D01*
X20533037Y-9862332D01*
X20548117Y-9857758D01*
X20555953Y-9856986D01*
X20559871Y-9856600D01*
X20657729Y-9856600D01*
X20661647Y-9856986D01*
G37*
G36*
X15907847Y-9749386D02*
G01*
X15915683Y-9750158D01*
X15930763Y-9754732D01*
X15930763Y-9754732D01*
X15944660Y-9762161D01*
X15956842Y-9772158D01*
X15966839Y-9784340D01*
X15971959Y-9793918D01*
X15974268Y-9798237D01*
X15978842Y-9813317D01*
X15980387Y-9829000D01*
X15978842Y-9844683D01*
X15974268Y-9859763D01*
X15974268Y-9859763D01*
X15966839Y-9873661D01*
X15956842Y-9885842D01*
X15944660Y-9895839D01*
X15938839Y-9898951D01*
X15930763Y-9903268D01*
X15915683Y-9907842D01*
X15907847Y-9908614D01*
X15903929Y-9909000D01*
X15806071Y-9909000D01*
X15802153Y-9908614D01*
X15794317Y-9907842D01*
X15779237Y-9903268D01*
X15771161Y-9898951D01*
X15765339Y-9895839D01*
X15753158Y-9885842D01*
X15743161Y-9873661D01*
X15735732Y-9859763D01*
X15735732Y-9859763D01*
X15731158Y-9844683D01*
X15729613Y-9829000D01*
X15731158Y-9813317D01*
X15735732Y-9798237D01*
X15738041Y-9793918D01*
X15743161Y-9784340D01*
X15753158Y-9772158D01*
X15765339Y-9762161D01*
X15779237Y-9754732D01*
X15779237Y-9754732D01*
X15794317Y-9750158D01*
X15802153Y-9749386D01*
X15806071Y-9749000D01*
X15903929Y-9749000D01*
X15907847Y-9749386D01*
G37*
G36*
X15145847Y-9749386D02*
G01*
X15153683Y-9750158D01*
X15168763Y-9754732D01*
X15168763Y-9754732D01*
X15182660Y-9762161D01*
X15194842Y-9772158D01*
X15204839Y-9784340D01*
X15209959Y-9793918D01*
X15212268Y-9798237D01*
X15216842Y-9813317D01*
X15218387Y-9829000D01*
X15216842Y-9844683D01*
X15212268Y-9859763D01*
X15212268Y-9859763D01*
X15204839Y-9873661D01*
X15194842Y-9885842D01*
X15182660Y-9895839D01*
X15176839Y-9898951D01*
X15168763Y-9903268D01*
X15153683Y-9907842D01*
X15145847Y-9908614D01*
X15141929Y-9909000D01*
X15044071Y-9909000D01*
X15040153Y-9908614D01*
X15032317Y-9907842D01*
X15017237Y-9903268D01*
X15009161Y-9898951D01*
X15003339Y-9895839D01*
X14991158Y-9885842D01*
X14981161Y-9873661D01*
X14973732Y-9859763D01*
X14973732Y-9859763D01*
X14969158Y-9844683D01*
X14967613Y-9829000D01*
X14969158Y-9813317D01*
X14973732Y-9798237D01*
X14976041Y-9793918D01*
X14981161Y-9784340D01*
X14991158Y-9772158D01*
X15003339Y-9762161D01*
X15017237Y-9754732D01*
X15017237Y-9754732D01*
X15032317Y-9750158D01*
X15040153Y-9749386D01*
X15044071Y-9749000D01*
X15141929Y-9749000D01*
X15145847Y-9749386D01*
G37*
G36*
X20915647Y-9729986D02*
G01*
X20923483Y-9730758D01*
X20938563Y-9735332D01*
X20938563Y-9735332D01*
X20952461Y-9742761D01*
X20964642Y-9752758D01*
X20974639Y-9764940D01*
X20978498Y-9772158D01*
X20982068Y-9778837D01*
X20986642Y-9793917D01*
X20988187Y-9809600D01*
X20986642Y-9825283D01*
X20982068Y-9840363D01*
X20982068Y-9840363D01*
X20974639Y-9854261D01*
X20964642Y-9866442D01*
X20952461Y-9876439D01*
X20946252Y-9879758D01*
X20938563Y-9883868D01*
X20923483Y-9888442D01*
X20915647Y-9889214D01*
X20911729Y-9889600D01*
X20813871Y-9889600D01*
X20809953Y-9889214D01*
X20802117Y-9888442D01*
X20787037Y-9883868D01*
X20779348Y-9879758D01*
X20773140Y-9876439D01*
X20760958Y-9866442D01*
X20750961Y-9854261D01*
X20743532Y-9840363D01*
X20743532Y-9840363D01*
X20738958Y-9825283D01*
X20737413Y-9809600D01*
X20738958Y-9793917D01*
X20743532Y-9778837D01*
X20747102Y-9772158D01*
X20750961Y-9764940D01*
X20760958Y-9752758D01*
X20773140Y-9742761D01*
X20787037Y-9735332D01*
X20787037Y-9735332D01*
X20802117Y-9730758D01*
X20809953Y-9729986D01*
X20813871Y-9729600D01*
X20911729Y-9729600D01*
X20915647Y-9729986D01*
G37*
G36*
X7565000Y-9775000D02*
G01*
X7325000Y-9775000D01*
X7325000Y-9535000D01*
X7565000Y-9535000D01*
X7565000Y-9775000D01*
G37*
G36*
X6980003Y-9539612D02*
G01*
X7001841Y-9548657D01*
X7001841Y-9548657D01*
X7021495Y-9561790D01*
X7038210Y-9578505D01*
X7048619Y-9594083D01*
X7051343Y-9598159D01*
X7060388Y-9619997D01*
X7065000Y-9643181D01*
X7065000Y-9666819D01*
X7060388Y-9690003D01*
X7053141Y-9707500D01*
X7051343Y-9711841D01*
X7038210Y-9731496D01*
X7021495Y-9748210D01*
X7001841Y-9761343D01*
X7001841Y-9761343D01*
X7001841Y-9761343D01*
X6980003Y-9770389D01*
X6956819Y-9775000D01*
X6933181Y-9775000D01*
X6909997Y-9770389D01*
X6888159Y-9761343D01*
X6888159Y-9761343D01*
X6888159Y-9761343D01*
X6868504Y-9748210D01*
X6851790Y-9731496D01*
X6838657Y-9711841D01*
X6836859Y-9707500D01*
X6829611Y-9690003D01*
X6825000Y-9666819D01*
X6825000Y-9643181D01*
X6829611Y-9619997D01*
X6838657Y-9598159D01*
X6841381Y-9594083D01*
X6851790Y-9578505D01*
X6868504Y-9561790D01*
X6888159Y-9548657D01*
X6888159Y-9548657D01*
X6909997Y-9539612D01*
X6933181Y-9535000D01*
X6956819Y-9535000D01*
X6980003Y-9539612D01*
G37*
G36*
X8395208Y-9775000D02*
G01*
X8155208Y-9775000D01*
X8155208Y-9535000D01*
X8395208Y-9535000D01*
X8395208Y-9775000D01*
G37*
G36*
X8810211Y-9539612D02*
G01*
X8832049Y-9548657D01*
X8832050Y-9548657D01*
X8851704Y-9561790D01*
X8868418Y-9578505D01*
X8878827Y-9594083D01*
X8881551Y-9598159D01*
X8890597Y-9619997D01*
X8895208Y-9643181D01*
X8895208Y-9666819D01*
X8890597Y-9690003D01*
X8883349Y-9707500D01*
X8881551Y-9711841D01*
X8868418Y-9731496D01*
X8851704Y-9748210D01*
X8832050Y-9761343D01*
X8832049Y-9761343D01*
X8832049Y-9761343D01*
X8810211Y-9770389D01*
X8787027Y-9775000D01*
X8763389Y-9775000D01*
X8740206Y-9770389D01*
X8718367Y-9761343D01*
X8718367Y-9761343D01*
X8718367Y-9761343D01*
X8698713Y-9748210D01*
X8681998Y-9731496D01*
X8668866Y-9711841D01*
X8667067Y-9707500D01*
X8659820Y-9690003D01*
X8655208Y-9666819D01*
X8655208Y-9643181D01*
X8659820Y-9619997D01*
X8668866Y-9598159D01*
X8671589Y-9594083D01*
X8681998Y-9578505D01*
X8698713Y-9561790D01*
X8718367Y-9548657D01*
X8718367Y-9548657D01*
X8740206Y-9539612D01*
X8763389Y-9535000D01*
X8787027Y-9535000D01*
X8810211Y-9539612D01*
G37*
G36*
X20661647Y-9602986D02*
G01*
X20669483Y-9603758D01*
X20684563Y-9608332D01*
X20684563Y-9608332D01*
X20698461Y-9615761D01*
X20710642Y-9625758D01*
X20720639Y-9637940D01*
X20724541Y-9645239D01*
X20728068Y-9651837D01*
X20732642Y-9666917D01*
X20734187Y-9682600D01*
X20732642Y-9698283D01*
X20728068Y-9713363D01*
X20728068Y-9713363D01*
X20720639Y-9727261D01*
X20710642Y-9739442D01*
X20698461Y-9749439D01*
X20697117Y-9750158D01*
X20684563Y-9756868D01*
X20669483Y-9761442D01*
X20662191Y-9762161D01*
X20657729Y-9762600D01*
X20559871Y-9762600D01*
X20555409Y-9762161D01*
X20548117Y-9761442D01*
X20533037Y-9756868D01*
X20520483Y-9750158D01*
X20519140Y-9749439D01*
X20506958Y-9739442D01*
X20496961Y-9727261D01*
X20489532Y-9713363D01*
X20489532Y-9713363D01*
X20484958Y-9698283D01*
X20483413Y-9682600D01*
X20484958Y-9666917D01*
X20489532Y-9651837D01*
X20493059Y-9645239D01*
X20496961Y-9637940D01*
X20506958Y-9625758D01*
X20519140Y-9615761D01*
X20533037Y-9608332D01*
X20533037Y-9608332D01*
X20548117Y-9603758D01*
X20555953Y-9602986D01*
X20559871Y-9602600D01*
X20657729Y-9602600D01*
X20661647Y-9602986D01*
G37*
G36*
X21533404Y-9376607D02*
G01*
X21551033Y-9380113D01*
X21564790Y-9385812D01*
X21584246Y-9393871D01*
X21614137Y-9413843D01*
X21639557Y-9439263D01*
X21659530Y-9469154D01*
X21660831Y-9472296D01*
X21673287Y-9502367D01*
X21673638Y-9504132D01*
X21679527Y-9533739D01*
X21680300Y-9537625D01*
X21680300Y-9573575D01*
X21673897Y-9605763D01*
X21673287Y-9608833D01*
X21659530Y-9642046D01*
X21639557Y-9671937D01*
X21614137Y-9697357D01*
X21584246Y-9717330D01*
X21568590Y-9723814D01*
X21551033Y-9731087D01*
X21533404Y-9734593D01*
X21515775Y-9738100D01*
X21479825Y-9738100D01*
X21462196Y-9734593D01*
X21444567Y-9731087D01*
X21427010Y-9723814D01*
X21411354Y-9717330D01*
X21381463Y-9697357D01*
X21356043Y-9671937D01*
X21336071Y-9642046D01*
X21322313Y-9608833D01*
X21321703Y-9605763D01*
X21315300Y-9573575D01*
X21315300Y-9537625D01*
X21316073Y-9533739D01*
X21321962Y-9504132D01*
X21322313Y-9502367D01*
X21334769Y-9472296D01*
X21336071Y-9469154D01*
X21356043Y-9439263D01*
X21381463Y-9413843D01*
X21411354Y-9393871D01*
X21430810Y-9385812D01*
X21444567Y-9380113D01*
X21462196Y-9376607D01*
X21479825Y-9373100D01*
X21515775Y-9373100D01*
X21533404Y-9376607D01*
G37*
G36*
X16552447Y-9498786D02*
G01*
X16560283Y-9499558D01*
X16575363Y-9504132D01*
X16575363Y-9504132D01*
X16589260Y-9511561D01*
X16601442Y-9521558D01*
X16611439Y-9533740D01*
X16618868Y-9547637D01*
X16618868Y-9547637D01*
X16623442Y-9562717D01*
X16624987Y-9578400D01*
X16623442Y-9594083D01*
X16618868Y-9609163D01*
X16618868Y-9609163D01*
X16611439Y-9623061D01*
X16601442Y-9635242D01*
X16589260Y-9645239D01*
X16581724Y-9649268D01*
X16575363Y-9652668D01*
X16560283Y-9657242D01*
X16552447Y-9658014D01*
X16548529Y-9658400D01*
X16450671Y-9658400D01*
X16446753Y-9658014D01*
X16438917Y-9657242D01*
X16423837Y-9652668D01*
X16417476Y-9649268D01*
X16409939Y-9645239D01*
X16397758Y-9635242D01*
X16387761Y-9623061D01*
X16380332Y-9609163D01*
X16380332Y-9609163D01*
X16375758Y-9594083D01*
X16374213Y-9578400D01*
X16375758Y-9562717D01*
X16380332Y-9547637D01*
X16380332Y-9547637D01*
X16387761Y-9533740D01*
X16397758Y-9521558D01*
X16409939Y-9511561D01*
X16423837Y-9504132D01*
X16423837Y-9504132D01*
X16438917Y-9499558D01*
X16446753Y-9498786D01*
X16450671Y-9498400D01*
X16548529Y-9498400D01*
X16552447Y-9498786D01*
G37*
G36*
X15907847Y-9495386D02*
G01*
X15915683Y-9496158D01*
X15930763Y-9500732D01*
X15930763Y-9500732D01*
X15944660Y-9508161D01*
X15956842Y-9518158D01*
X15966839Y-9530340D01*
X15974268Y-9544237D01*
X15974268Y-9544237D01*
X15978842Y-9559317D01*
X15980387Y-9575000D01*
X15978842Y-9590683D01*
X15974268Y-9605763D01*
X15974268Y-9605763D01*
X15966839Y-9619661D01*
X15956842Y-9631842D01*
X15944660Y-9641839D01*
X15930763Y-9649268D01*
X15930763Y-9649268D01*
X15915683Y-9653842D01*
X15907847Y-9654614D01*
X15903929Y-9655000D01*
X15806071Y-9655000D01*
X15802153Y-9654614D01*
X15794317Y-9653842D01*
X15779237Y-9649268D01*
X15779237Y-9649268D01*
X15765339Y-9641839D01*
X15753158Y-9631842D01*
X15743161Y-9619661D01*
X15735732Y-9605763D01*
X15735732Y-9605763D01*
X15731158Y-9590683D01*
X15729613Y-9575000D01*
X15731158Y-9559317D01*
X15735732Y-9544237D01*
X15735732Y-9544237D01*
X15743161Y-9530340D01*
X15753158Y-9518158D01*
X15765339Y-9508161D01*
X15779237Y-9500732D01*
X15779237Y-9500732D01*
X15794317Y-9496158D01*
X15802153Y-9495386D01*
X15806071Y-9495000D01*
X15903929Y-9495000D01*
X15907847Y-9495386D01*
G37*
G36*
X15145847Y-9495386D02*
G01*
X15153683Y-9496158D01*
X15168763Y-9500732D01*
X15168763Y-9500732D01*
X15182660Y-9508161D01*
X15194842Y-9518158D01*
X15204839Y-9530340D01*
X15212268Y-9544237D01*
X15212268Y-9544237D01*
X15216842Y-9559317D01*
X15218387Y-9575000D01*
X15216842Y-9590683D01*
X15212268Y-9605763D01*
X15212268Y-9605763D01*
X15204839Y-9619661D01*
X15194842Y-9631842D01*
X15182660Y-9641839D01*
X15168763Y-9649268D01*
X15168763Y-9649268D01*
X15153683Y-9653842D01*
X15145847Y-9654614D01*
X15141929Y-9655000D01*
X15044071Y-9655000D01*
X15040153Y-9654614D01*
X15032317Y-9653842D01*
X15017237Y-9649268D01*
X15017237Y-9649268D01*
X15003339Y-9641839D01*
X14991158Y-9631842D01*
X14981161Y-9619661D01*
X14973732Y-9605763D01*
X14973732Y-9605763D01*
X14969158Y-9590683D01*
X14967613Y-9575000D01*
X14969158Y-9559317D01*
X14973732Y-9544237D01*
X14973732Y-9544237D01*
X14981161Y-9530340D01*
X14991158Y-9518158D01*
X15003339Y-9508161D01*
X15017237Y-9500732D01*
X15017237Y-9500732D01*
X15032317Y-9496158D01*
X15040153Y-9495386D01*
X15044071Y-9495000D01*
X15141929Y-9495000D01*
X15145847Y-9495386D01*
G37*
G36*
X21229261Y-9231904D02*
G01*
X21251222Y-9241000D01*
X21252010Y-9241327D01*
X21272483Y-9255006D01*
X21289894Y-9272417D01*
X21301801Y-9290237D01*
X21303574Y-9292891D01*
X21312996Y-9315639D01*
X21317800Y-9339788D01*
X21317800Y-9364412D01*
X21312996Y-9388561D01*
X21303574Y-9411310D01*
X21303574Y-9411310D01*
X21289894Y-9431783D01*
X21272483Y-9449194D01*
X21252010Y-9462874D01*
X21252010Y-9462874D01*
X21252010Y-9462874D01*
X21229261Y-9472296D01*
X21205112Y-9477100D01*
X21180488Y-9477100D01*
X21156339Y-9472296D01*
X21133591Y-9462874D01*
X21133590Y-9462874D01*
X21133590Y-9462874D01*
X21113117Y-9449194D01*
X21095706Y-9431783D01*
X21082027Y-9411310D01*
X21082026Y-9411310D01*
X21072604Y-9388561D01*
X21067800Y-9364412D01*
X21067800Y-9339788D01*
X21072604Y-9315639D01*
X21082026Y-9292891D01*
X21083799Y-9290237D01*
X21095706Y-9272417D01*
X21113117Y-9255006D01*
X21133590Y-9241327D01*
X21134379Y-9241000D01*
X21156339Y-9231904D01*
X21180488Y-9227100D01*
X21205112Y-9227100D01*
X21229261Y-9231904D01*
G37*
G36*
X15907847Y-9241386D02*
G01*
X15915683Y-9242158D01*
X15930763Y-9246732D01*
X15930763Y-9246732D01*
X15944660Y-9254161D01*
X15946955Y-9256044D01*
X15956842Y-9264158D01*
X15966839Y-9276339D01*
X15974268Y-9290237D01*
X15978842Y-9305317D01*
X15980387Y-9321000D01*
X15978842Y-9336683D01*
X15974268Y-9351763D01*
X15974268Y-9351763D01*
X15966839Y-9365661D01*
X15956842Y-9377842D01*
X15944660Y-9387839D01*
X15930763Y-9395268D01*
X15930763Y-9395268D01*
X15915683Y-9399842D01*
X15907847Y-9400614D01*
X15903929Y-9401000D01*
X15806071Y-9401000D01*
X15802153Y-9400614D01*
X15794317Y-9399842D01*
X15779237Y-9395268D01*
X15779237Y-9395268D01*
X15765339Y-9387839D01*
X15753158Y-9377842D01*
X15743161Y-9365661D01*
X15735732Y-9351763D01*
X15735732Y-9351763D01*
X15731158Y-9336683D01*
X15729613Y-9321000D01*
X15731158Y-9305317D01*
X15735732Y-9290237D01*
X15743161Y-9276339D01*
X15753158Y-9264158D01*
X15763045Y-9256044D01*
X15765339Y-9254161D01*
X15779237Y-9246732D01*
X15779237Y-9246732D01*
X15794317Y-9242158D01*
X15802153Y-9241386D01*
X15806071Y-9241000D01*
X15903929Y-9241000D01*
X15907847Y-9241386D01*
G37*
G36*
X15145847Y-9241386D02*
G01*
X15153683Y-9242158D01*
X15168763Y-9246732D01*
X15168763Y-9246732D01*
X15182660Y-9254161D01*
X15184955Y-9256044D01*
X15194842Y-9264158D01*
X15204839Y-9276339D01*
X15212268Y-9290237D01*
X15216842Y-9305317D01*
X15218387Y-9321000D01*
X15216842Y-9336683D01*
X15212268Y-9351763D01*
X15212268Y-9351763D01*
X15204839Y-9365661D01*
X15194842Y-9377842D01*
X15182660Y-9387839D01*
X15168763Y-9395268D01*
X15168763Y-9395268D01*
X15153683Y-9399842D01*
X15145847Y-9400614D01*
X15141929Y-9401000D01*
X15044071Y-9401000D01*
X15040153Y-9400614D01*
X15032317Y-9399842D01*
X15017237Y-9395268D01*
X15017237Y-9395268D01*
X15003339Y-9387839D01*
X14991158Y-9377842D01*
X14981161Y-9365661D01*
X14973732Y-9351763D01*
X14973732Y-9351763D01*
X14969158Y-9336683D01*
X14967613Y-9321000D01*
X14969158Y-9305317D01*
X14973732Y-9290237D01*
X14981161Y-9276339D01*
X14991158Y-9264158D01*
X15001045Y-9256044D01*
X15003339Y-9254161D01*
X15017237Y-9246732D01*
X15017237Y-9246732D01*
X15032317Y-9242158D01*
X15040153Y-9241386D01*
X15044071Y-9241000D01*
X15141929Y-9241000D01*
X15145847Y-9241386D01*
G37*
G36*
X10885000Y-9390000D02*
G01*
X10715000Y-9390000D01*
X10715000Y-9060000D01*
X10885000Y-9060000D01*
X10885000Y-9390000D01*
G37*
G36*
X11185000Y-9390000D02*
G01*
X11015000Y-9390000D01*
X11015000Y-9060000D01*
X11185000Y-9060000D01*
X11185000Y-9390000D01*
G37*
G36*
X10585000Y-9390000D02*
G01*
X10415000Y-9390000D01*
X10415000Y-9060000D01*
X10585000Y-9060000D01*
X10585000Y-9390000D01*
G37*
G36*
X12318896Y-9227884D02*
G01*
X12322052Y-9228841D01*
X12324962Y-9230396D01*
X12327511Y-9232489D01*
X12329604Y-9235038D01*
X12331159Y-9237948D01*
X12332116Y-9241104D01*
X12332500Y-9245000D01*
X12332500Y-9352500D01*
X12332116Y-9356396D01*
X12331159Y-9359553D01*
X12329604Y-9362462D01*
X12327511Y-9365012D01*
X12324962Y-9367104D01*
X12322052Y-9368659D01*
X12318896Y-9369616D01*
X12315000Y-9370000D01*
X12085000Y-9370000D01*
X12081104Y-9369616D01*
X12077947Y-9368659D01*
X12075038Y-9367104D01*
X12072488Y-9365012D01*
X12070396Y-9362462D01*
X12068841Y-9359553D01*
X12067884Y-9356396D01*
X12067500Y-9352500D01*
X12067500Y-9245000D01*
X12067884Y-9241104D01*
X12068841Y-9237948D01*
X12070396Y-9235038D01*
X12072488Y-9232489D01*
X12075038Y-9230396D01*
X12077947Y-9228841D01*
X12081104Y-9227884D01*
X12085000Y-9227500D01*
X12315000Y-9227500D01*
X12318896Y-9227884D01*
G37*
G36*
X11724504Y-9016809D02*
G01*
X11736286Y-9020383D01*
X11748067Y-9023956D01*
X11748067Y-9023956D01*
X11769782Y-9035563D01*
X11788816Y-9051184D01*
X11804437Y-9070218D01*
X11816044Y-9091933D01*
X11823191Y-9115496D01*
X11825605Y-9140000D01*
X11823191Y-9164504D01*
X11816044Y-9188067D01*
X11804437Y-9209782D01*
X11788816Y-9228816D01*
X11769782Y-9244437D01*
X11751590Y-9254161D01*
X11748067Y-9256044D01*
X11736286Y-9259618D01*
X11724504Y-9263191D01*
X11706141Y-9265000D01*
X11493859Y-9265000D01*
X11475496Y-9263191D01*
X11463714Y-9259618D01*
X11451933Y-9256044D01*
X11448410Y-9254161D01*
X11430218Y-9244437D01*
X11411184Y-9228816D01*
X11395563Y-9209782D01*
X11383956Y-9188067D01*
X11376809Y-9164504D01*
X11374395Y-9140000D01*
X11376809Y-9115496D01*
X11383956Y-9091933D01*
X11395563Y-9070218D01*
X11411184Y-9051184D01*
X11430218Y-9035563D01*
X11451933Y-9023956D01*
X11451933Y-9023956D01*
X11463714Y-9020383D01*
X11475496Y-9016809D01*
X11493859Y-9015000D01*
X11706141Y-9015000D01*
X11724504Y-9016809D01*
G37*
G36*
X12610000Y-9190000D02*
G01*
X12440000Y-9190000D01*
X12440000Y-8860000D01*
X12610000Y-8860000D01*
X12610000Y-9190000D01*
G37*
G36*
X15145847Y-8987386D02*
G01*
X15153683Y-8988158D01*
X15168763Y-8992732D01*
X15168763Y-8992732D01*
X15182660Y-9000161D01*
X15194842Y-9010158D01*
X15204839Y-9022340D01*
X15212268Y-9036237D01*
X15212268Y-9036237D01*
X15216842Y-9051317D01*
X15218387Y-9067000D01*
X15216842Y-9082683D01*
X15214036Y-9091933D01*
X15212268Y-9097763D01*
X15204839Y-9111661D01*
X15194842Y-9123842D01*
X15182660Y-9133839D01*
X15182360Y-9134000D01*
X15168763Y-9141268D01*
X15153683Y-9145842D01*
X15145847Y-9146614D01*
X15141929Y-9147000D01*
X15044071Y-9147000D01*
X15040153Y-9146614D01*
X15032317Y-9145842D01*
X15017237Y-9141268D01*
X15003640Y-9134000D01*
X15003339Y-9133839D01*
X14991158Y-9123842D01*
X14981161Y-9111661D01*
X14973732Y-9097763D01*
X14971964Y-9091933D01*
X14969158Y-9082683D01*
X14967613Y-9067000D01*
X14969158Y-9051317D01*
X14973732Y-9036237D01*
X14973732Y-9036237D01*
X14981161Y-9022340D01*
X14991158Y-9010158D01*
X15003339Y-9000161D01*
X15017237Y-8992732D01*
X15017237Y-8992732D01*
X15032317Y-8988158D01*
X15040153Y-8987386D01*
X15044071Y-8987000D01*
X15141929Y-8987000D01*
X15145847Y-8987386D01*
G37*
G36*
X15907847Y-8987386D02*
G01*
X15915683Y-8988158D01*
X15930763Y-8992732D01*
X15930763Y-8992732D01*
X15944660Y-9000161D01*
X15956842Y-9010158D01*
X15966839Y-9022340D01*
X15974268Y-9036237D01*
X15974268Y-9036237D01*
X15978842Y-9051317D01*
X15980387Y-9067000D01*
X15978842Y-9082683D01*
X15976036Y-9091933D01*
X15974268Y-9097763D01*
X15966839Y-9111661D01*
X15956842Y-9123842D01*
X15944660Y-9133839D01*
X15944360Y-9134000D01*
X15930763Y-9141268D01*
X15915683Y-9145842D01*
X15907847Y-9146614D01*
X15903929Y-9147000D01*
X15806071Y-9147000D01*
X15802153Y-9146614D01*
X15794317Y-9145842D01*
X15779237Y-9141268D01*
X15765640Y-9134000D01*
X15765339Y-9133839D01*
X15753158Y-9123842D01*
X15743161Y-9111661D01*
X15735732Y-9097763D01*
X15733964Y-9091933D01*
X15731158Y-9082683D01*
X15729613Y-9067000D01*
X15731158Y-9051317D01*
X15735732Y-9036237D01*
X15735732Y-9036237D01*
X15743161Y-9022340D01*
X15753158Y-9010158D01*
X15765339Y-9000161D01*
X15779237Y-8992732D01*
X15779237Y-8992732D01*
X15794317Y-8988158D01*
X15802153Y-8987386D01*
X15806071Y-8987000D01*
X15903929Y-8987000D01*
X15907847Y-8987386D01*
G37*
G36*
X16814794Y-8967266D02*
G01*
X16824897Y-8971451D01*
X16830263Y-8973674D01*
X16844184Y-8982976D01*
X16856024Y-8994816D01*
X16865326Y-9008737D01*
X16865326Y-9008738D01*
X16871734Y-9024207D01*
X16875000Y-9040628D01*
X16875000Y-9057372D01*
X16871734Y-9073794D01*
X16868052Y-9082683D01*
X16865326Y-9089263D01*
X16856024Y-9103184D01*
X16844184Y-9115024D01*
X16830263Y-9124326D01*
X16830263Y-9124326D01*
X16830262Y-9124326D01*
X16814794Y-9130734D01*
X16798372Y-9134000D01*
X16781628Y-9134000D01*
X16765206Y-9130734D01*
X16749738Y-9124326D01*
X16749737Y-9124326D01*
X16749737Y-9124326D01*
X16735816Y-9115024D01*
X16723976Y-9103184D01*
X16714674Y-9089263D01*
X16711948Y-9082683D01*
X16708266Y-9073794D01*
X16705000Y-9057372D01*
X16705000Y-9040628D01*
X16708266Y-9024207D01*
X16714674Y-9008738D01*
X16714674Y-9008737D01*
X16723976Y-8994816D01*
X16735816Y-8982976D01*
X16749737Y-8973674D01*
X16755103Y-8971451D01*
X16765206Y-8967266D01*
X16781628Y-8964000D01*
X16798372Y-8964000D01*
X16814794Y-8967266D01*
G37*
G36*
X12318896Y-8930384D02*
G01*
X12322052Y-8931341D01*
X12324962Y-8932896D01*
X12327511Y-8934989D01*
X12329604Y-8937538D01*
X12331159Y-8940448D01*
X12332116Y-8943604D01*
X12332500Y-8947500D01*
X12332500Y-9055000D01*
X12332116Y-9058896D01*
X12331159Y-9062053D01*
X12329604Y-9064962D01*
X12327511Y-9067512D01*
X12324962Y-9069604D01*
X12322052Y-9071159D01*
X12318896Y-9072116D01*
X12315000Y-9072500D01*
X12085000Y-9072500D01*
X12081104Y-9072116D01*
X12077947Y-9071159D01*
X12075038Y-9069604D01*
X12072488Y-9067512D01*
X12070396Y-9064962D01*
X12068841Y-9062053D01*
X12067884Y-9058896D01*
X12067500Y-9055000D01*
X12067500Y-8947500D01*
X12067884Y-8943604D01*
X12068841Y-8940448D01*
X12070396Y-8937538D01*
X12072488Y-8934989D01*
X12075038Y-8932896D01*
X12077947Y-8931341D01*
X12081104Y-8930384D01*
X12085000Y-8930000D01*
X12315000Y-8930000D01*
X12318896Y-8930384D01*
G37*
G36*
X12840552Y-8850404D02*
G01*
X12843906Y-8851421D01*
X12846996Y-8853073D01*
X12849704Y-8855296D01*
X12851927Y-8858004D01*
X12853579Y-8861094D01*
X12854596Y-8864448D01*
X12855000Y-8868549D01*
X12855000Y-8971451D01*
X12854596Y-8975552D01*
X12853579Y-8978906D01*
X12851927Y-8981996D01*
X12849704Y-8984704D01*
X12846996Y-8986927D01*
X12843906Y-8988579D01*
X12840552Y-8989596D01*
X12836451Y-8990000D01*
X12758549Y-8990000D01*
X12754448Y-8989596D01*
X12751094Y-8988579D01*
X12748004Y-8986927D01*
X12745296Y-8984704D01*
X12743073Y-8981996D01*
X12741421Y-8978906D01*
X12740404Y-8975552D01*
X12740000Y-8971451D01*
X12740000Y-8868549D01*
X12740404Y-8864448D01*
X12741421Y-8861094D01*
X12743073Y-8858004D01*
X12745296Y-8855296D01*
X12748004Y-8853073D01*
X12751094Y-8851421D01*
X12754448Y-8850404D01*
X12758549Y-8850000D01*
X12836451Y-8850000D01*
X12840552Y-8850404D01*
G37*
G36*
X13045552Y-8850404D02*
G01*
X13048906Y-8851421D01*
X13051996Y-8853073D01*
X13054704Y-8855296D01*
X13056927Y-8858004D01*
X13058579Y-8861094D01*
X13059596Y-8864448D01*
X13060000Y-8868549D01*
X13060000Y-8971451D01*
X13059596Y-8975552D01*
X13058579Y-8978906D01*
X13056927Y-8981996D01*
X13054704Y-8984704D01*
X13051996Y-8986927D01*
X13048906Y-8988579D01*
X13045552Y-8989596D01*
X13041451Y-8990000D01*
X12963549Y-8990000D01*
X12959448Y-8989596D01*
X12956094Y-8988579D01*
X12953004Y-8986927D01*
X12950296Y-8984704D01*
X12948073Y-8981996D01*
X12946421Y-8978906D01*
X12945404Y-8975552D01*
X12945000Y-8971451D01*
X12945000Y-8868549D01*
X12945404Y-8864448D01*
X12946421Y-8861094D01*
X12948073Y-8858004D01*
X12950296Y-8855296D01*
X12953004Y-8853073D01*
X12956094Y-8851421D01*
X12959448Y-8850404D01*
X12963549Y-8850000D01*
X13041451Y-8850000D01*
X13045552Y-8850404D01*
G37*
G36*
X21228861Y-8696404D02*
G01*
X21251610Y-8705826D01*
X21251610Y-8705827D01*
X21272083Y-8719506D01*
X21289494Y-8736917D01*
X21302350Y-8756158D01*
X21303174Y-8757391D01*
X21312596Y-8780139D01*
X21317400Y-8804288D01*
X21317400Y-8828912D01*
X21312596Y-8853061D01*
X21303509Y-8875000D01*
X21303174Y-8875810D01*
X21289494Y-8896283D01*
X21272083Y-8913694D01*
X21251610Y-8927374D01*
X21251610Y-8927374D01*
X21251610Y-8927374D01*
X21228861Y-8936796D01*
X21204712Y-8941600D01*
X21180088Y-8941600D01*
X21155939Y-8936796D01*
X21133191Y-8927374D01*
X21133190Y-8927374D01*
X21133190Y-8927374D01*
X21112717Y-8913694D01*
X21095306Y-8896283D01*
X21081627Y-8875810D01*
X21081291Y-8875000D01*
X21072204Y-8853061D01*
X21067400Y-8828912D01*
X21067400Y-8804288D01*
X21072204Y-8780139D01*
X21081626Y-8757391D01*
X21082450Y-8756158D01*
X21095306Y-8736917D01*
X21112717Y-8719506D01*
X21133190Y-8705827D01*
X21133191Y-8705826D01*
X21155939Y-8696404D01*
X21180088Y-8691600D01*
X21204712Y-8691600D01*
X21228861Y-8696404D01*
G37*
G36*
X15907847Y-8733386D02*
G01*
X15915683Y-8734158D01*
X15930763Y-8738732D01*
X15930763Y-8738732D01*
X15944660Y-8746161D01*
X15956842Y-8756158D01*
X15966629Y-8768083D01*
X15966839Y-8768339D01*
X15974268Y-8782237D01*
X15978842Y-8797317D01*
X15980387Y-8813000D01*
X15978842Y-8828683D01*
X15975409Y-8840000D01*
X15974268Y-8843763D01*
X15966839Y-8857661D01*
X15956842Y-8869842D01*
X15944660Y-8879839D01*
X15944360Y-8880000D01*
X15930763Y-8887268D01*
X15915683Y-8891842D01*
X15907847Y-8892614D01*
X15903929Y-8893000D01*
X15806071Y-8893000D01*
X15802153Y-8892614D01*
X15794317Y-8891842D01*
X15779237Y-8887268D01*
X15765640Y-8880000D01*
X15765339Y-8879839D01*
X15753158Y-8869842D01*
X15743161Y-8857661D01*
X15735732Y-8843763D01*
X15734591Y-8840000D01*
X15731158Y-8828683D01*
X15729613Y-8813000D01*
X15731158Y-8797317D01*
X15735732Y-8782237D01*
X15743161Y-8768339D01*
X15743371Y-8768083D01*
X15753158Y-8756158D01*
X15765339Y-8746161D01*
X15779237Y-8738732D01*
X15779237Y-8738732D01*
X15794317Y-8734158D01*
X15802153Y-8733386D01*
X15806071Y-8733000D01*
X15903929Y-8733000D01*
X15907847Y-8733386D01*
G37*
G36*
X15145847Y-8733386D02*
G01*
X15153683Y-8734158D01*
X15168763Y-8738732D01*
X15168763Y-8738732D01*
X15182660Y-8746161D01*
X15194842Y-8756158D01*
X15204629Y-8768083D01*
X15204839Y-8768339D01*
X15212268Y-8782237D01*
X15216842Y-8797317D01*
X15218387Y-8813000D01*
X15216842Y-8828683D01*
X15213409Y-8840000D01*
X15212268Y-8843763D01*
X15204839Y-8857661D01*
X15194842Y-8869842D01*
X15182660Y-8879839D01*
X15182360Y-8880000D01*
X15168763Y-8887268D01*
X15153683Y-8891842D01*
X15145847Y-8892614D01*
X15141929Y-8893000D01*
X15044071Y-8893000D01*
X15040153Y-8892614D01*
X15032317Y-8891842D01*
X15017237Y-8887268D01*
X15003640Y-8880000D01*
X15003339Y-8879839D01*
X14991158Y-8869842D01*
X14981161Y-8857661D01*
X14973732Y-8843763D01*
X14972591Y-8840000D01*
X14969158Y-8828683D01*
X14967613Y-8813000D01*
X14969158Y-8797317D01*
X14973732Y-8782237D01*
X14981161Y-8768339D01*
X14981371Y-8768083D01*
X14991158Y-8756158D01*
X15003339Y-8746161D01*
X15017237Y-8738732D01*
X15017237Y-8738732D01*
X15032317Y-8734158D01*
X15040153Y-8733386D01*
X15044071Y-8733000D01*
X15141929Y-8733000D01*
X15145847Y-8733386D01*
G37*
G36*
X16875000Y-8880000D02*
G01*
X16705000Y-8880000D01*
X16705000Y-8710000D01*
X16875000Y-8710000D01*
X16875000Y-8880000D01*
G37*
G36*
X10885000Y-8840000D02*
G01*
X10715000Y-8840000D01*
X10715000Y-8510000D01*
X10885000Y-8510000D01*
X10885000Y-8840000D01*
G37*
G36*
X10585000Y-8840000D02*
G01*
X10415000Y-8840000D01*
X10415000Y-8510000D01*
X10585000Y-8510000D01*
X10585000Y-8840000D01*
G37*
G36*
X11185000Y-8840000D02*
G01*
X11015000Y-8840000D01*
X11015000Y-8510000D01*
X11185000Y-8510000D01*
X11185000Y-8840000D01*
G37*
G36*
X12329128Y-8672878D02*
G01*
X12332230Y-8673819D01*
X12335090Y-8675348D01*
X12337596Y-8677404D01*
X12339652Y-8679910D01*
X12341181Y-8682770D01*
X12342122Y-8685872D01*
X12342500Y-8689712D01*
X12342500Y-8807788D01*
X12342122Y-8811628D01*
X12341181Y-8814730D01*
X12339652Y-8817590D01*
X12337596Y-8820096D01*
X12335090Y-8822152D01*
X12332230Y-8823681D01*
X12329128Y-8824622D01*
X12325288Y-8825000D01*
X12024712Y-8825000D01*
X12020872Y-8824622D01*
X12017770Y-8823681D01*
X12014910Y-8822152D01*
X12012404Y-8820096D01*
X12010348Y-8817590D01*
X12008819Y-8814730D01*
X12007878Y-8811628D01*
X12007500Y-8807788D01*
X12007500Y-8689712D01*
X12007878Y-8685872D01*
X12008819Y-8682770D01*
X12010348Y-8679910D01*
X12012404Y-8677404D01*
X12014910Y-8675348D01*
X12017770Y-8673819D01*
X12020872Y-8672878D01*
X12024712Y-8672500D01*
X12325288Y-8672500D01*
X12329128Y-8672878D01*
G37*
G36*
X21528497Y-8433210D02*
G01*
X21550633Y-8437613D01*
X21559870Y-8441440D01*
X21583846Y-8451371D01*
X21613737Y-8471343D01*
X21639157Y-8496763D01*
X21659130Y-8526654D01*
X21663769Y-8537855D01*
X21670552Y-8554229D01*
X21672887Y-8559867D01*
X21679900Y-8595125D01*
X21679900Y-8631075D01*
X21677971Y-8640771D01*
X21672887Y-8666333D01*
X21670176Y-8672878D01*
X21659130Y-8699546D01*
X21639157Y-8729437D01*
X21613737Y-8754857D01*
X21583846Y-8774830D01*
X21571028Y-8780139D01*
X21550633Y-8788587D01*
X21533004Y-8792093D01*
X21515375Y-8795600D01*
X21479425Y-8795600D01*
X21461796Y-8792093D01*
X21444167Y-8788587D01*
X21423772Y-8780139D01*
X21410954Y-8774830D01*
X21381063Y-8754857D01*
X21355643Y-8729437D01*
X21335671Y-8699546D01*
X21324624Y-8672878D01*
X21321913Y-8666333D01*
X21316829Y-8640771D01*
X21314900Y-8631075D01*
X21314900Y-8595125D01*
X21321913Y-8559867D01*
X21324249Y-8554229D01*
X21331031Y-8537855D01*
X21335671Y-8526654D01*
X21355643Y-8496763D01*
X21381063Y-8471343D01*
X21410954Y-8451371D01*
X21434930Y-8441440D01*
X21444167Y-8437613D01*
X21466304Y-8433210D01*
X21479425Y-8430600D01*
X21515375Y-8430600D01*
X21528497Y-8433210D01*
G37*
G36*
X13621116Y-8418459D02*
G01*
X13638504Y-8421917D01*
X13671262Y-8435486D01*
X13700743Y-8455185D01*
X13725815Y-8480257D01*
X13745514Y-8509738D01*
X13759083Y-8542496D01*
X13759965Y-8546933D01*
X13766000Y-8577271D01*
X13766000Y-8612729D01*
X13764652Y-8619504D01*
X13759083Y-8647504D01*
X13745514Y-8680262D01*
X13725815Y-8709743D01*
X13700743Y-8734815D01*
X13671262Y-8754514D01*
X13638504Y-8768083D01*
X13621116Y-8771541D01*
X13603729Y-8775000D01*
X13568271Y-8775000D01*
X13550884Y-8771541D01*
X13533496Y-8768083D01*
X13500738Y-8754514D01*
X13471257Y-8734815D01*
X13446185Y-8709743D01*
X13426486Y-8680262D01*
X13412917Y-8647504D01*
X13407348Y-8619504D01*
X13406000Y-8612729D01*
X13406000Y-8577271D01*
X13412035Y-8546933D01*
X13412917Y-8542496D01*
X13426486Y-8509738D01*
X13446185Y-8480257D01*
X13471257Y-8455185D01*
X13500738Y-8435486D01*
X13533496Y-8421917D01*
X13550884Y-8418459D01*
X13568271Y-8415000D01*
X13603729Y-8415000D01*
X13621116Y-8418459D01*
G37*
G36*
X12840552Y-8610404D02*
G01*
X12843906Y-8611421D01*
X12846996Y-8613073D01*
X12849704Y-8615296D01*
X12851927Y-8618004D01*
X12853579Y-8621094D01*
X12854596Y-8624448D01*
X12855000Y-8628549D01*
X12855000Y-8731451D01*
X12854596Y-8735552D01*
X12853579Y-8738906D01*
X12851927Y-8741996D01*
X12849704Y-8744704D01*
X12846996Y-8746927D01*
X12843906Y-8748579D01*
X12840552Y-8749596D01*
X12836451Y-8750000D01*
X12758549Y-8750000D01*
X12754448Y-8749596D01*
X12751094Y-8748579D01*
X12748004Y-8746927D01*
X12745296Y-8744704D01*
X12743073Y-8741996D01*
X12741421Y-8738906D01*
X12740404Y-8735552D01*
X12740000Y-8731451D01*
X12740000Y-8628549D01*
X12740404Y-8624448D01*
X12741421Y-8621094D01*
X12743073Y-8618004D01*
X12745296Y-8615296D01*
X12748004Y-8613073D01*
X12751094Y-8611421D01*
X12754448Y-8610404D01*
X12758549Y-8610000D01*
X12836451Y-8610000D01*
X12840552Y-8610404D01*
G37*
G36*
X13045552Y-8610404D02*
G01*
X13048906Y-8611421D01*
X13051996Y-8613073D01*
X13054704Y-8615296D01*
X13056927Y-8618004D01*
X13058579Y-8621094D01*
X13059596Y-8624448D01*
X13060000Y-8628549D01*
X13060000Y-8731451D01*
X13059596Y-8735552D01*
X13058579Y-8738906D01*
X13056927Y-8741996D01*
X13054704Y-8744704D01*
X13051996Y-8746927D01*
X13048906Y-8748579D01*
X13045552Y-8749596D01*
X13041451Y-8750000D01*
X12963549Y-8750000D01*
X12959448Y-8749596D01*
X12956094Y-8748579D01*
X12953004Y-8746927D01*
X12950296Y-8744704D01*
X12948073Y-8741996D01*
X12946421Y-8738906D01*
X12945404Y-8735552D01*
X12945000Y-8731451D01*
X12945000Y-8628549D01*
X12945404Y-8624448D01*
X12946421Y-8621094D01*
X12948073Y-8618004D01*
X12950296Y-8615296D01*
X12953004Y-8613073D01*
X12956094Y-8611421D01*
X12959448Y-8610404D01*
X12963549Y-8610000D01*
X13041451Y-8610000D01*
X13045552Y-8610404D01*
G37*
G36*
X5820464Y-7683578D02*
G01*
X5854595Y-7690368D01*
X5861764Y-7693337D01*
X5951049Y-7730320D01*
X6037855Y-7788322D01*
X6111678Y-7862145D01*
X6169680Y-7948951D01*
X6181754Y-7978100D01*
X6209632Y-8045405D01*
X6212247Y-8058549D01*
X6230000Y-8147799D01*
X6230000Y-8252201D01*
X6219498Y-8304997D01*
X6209632Y-8354595D01*
X6197267Y-8384448D01*
X6169680Y-8451049D01*
X6111678Y-8537855D01*
X6037855Y-8611678D01*
X5951049Y-8669680D01*
X5898129Y-8691600D01*
X5854595Y-8709632D01*
X5820464Y-8716422D01*
X5752201Y-8730000D01*
X5647799Y-8730000D01*
X5579536Y-8716422D01*
X5545405Y-8709632D01*
X5501871Y-8691600D01*
X5448951Y-8669680D01*
X5362145Y-8611678D01*
X5288322Y-8537855D01*
X5230320Y-8451049D01*
X5202733Y-8384448D01*
X5190368Y-8354595D01*
X5180502Y-8304997D01*
X5170000Y-8252201D01*
X5170000Y-8147799D01*
X5187753Y-8058549D01*
X5190368Y-8045405D01*
X5218246Y-7978100D01*
X5230320Y-7948951D01*
X5288322Y-7862145D01*
X5362145Y-7788322D01*
X5448951Y-7730320D01*
X5538236Y-7693337D01*
X5545405Y-7690368D01*
X5579536Y-7683578D01*
X5647799Y-7670000D01*
X5752201Y-7670000D01*
X5820464Y-7683578D01*
G37*
G36*
X11724504Y-8471809D02*
G01*
X11736286Y-8475383D01*
X11748067Y-8478956D01*
X11748067Y-8478956D01*
X11769782Y-8490563D01*
X11788816Y-8506184D01*
X11804437Y-8525218D01*
X11811191Y-8537855D01*
X11816044Y-8546933D01*
X11817866Y-8552939D01*
X11823191Y-8570496D01*
X11825605Y-8595000D01*
X11823191Y-8619504D01*
X11823191Y-8619504D01*
X11816216Y-8642500D01*
X11816044Y-8643067D01*
X11804437Y-8664782D01*
X11788816Y-8683816D01*
X11769782Y-8699437D01*
X11750707Y-8709632D01*
X11748067Y-8711044D01*
X11736286Y-8714618D01*
X11724504Y-8718191D01*
X11706141Y-8720000D01*
X11493859Y-8720000D01*
X11475496Y-8718191D01*
X11463714Y-8714618D01*
X11451933Y-8711044D01*
X11449293Y-8709632D01*
X11430218Y-8699437D01*
X11411184Y-8683816D01*
X11395563Y-8664782D01*
X11383956Y-8643067D01*
X11383784Y-8642500D01*
X11376809Y-8619504D01*
X11376809Y-8619504D01*
X11374395Y-8595000D01*
X11376809Y-8570496D01*
X11382134Y-8552939D01*
X11383956Y-8546933D01*
X11388808Y-8537855D01*
X11395563Y-8525218D01*
X11411184Y-8506184D01*
X11430218Y-8490563D01*
X11451933Y-8478956D01*
X11451933Y-8478956D01*
X11463714Y-8475383D01*
X11475496Y-8471809D01*
X11493859Y-8470000D01*
X11706141Y-8470000D01*
X11724504Y-8471809D01*
G37*
G36*
X12610000Y-8640000D02*
G01*
X12440000Y-8640000D01*
X12440000Y-8310000D01*
X12610000Y-8310000D01*
X12610000Y-8640000D01*
G37*
G36*
X20915247Y-8406486D02*
G01*
X20923083Y-8407258D01*
X20938163Y-8411832D01*
X20938163Y-8411832D01*
X20952061Y-8419261D01*
X20964242Y-8429258D01*
X20974239Y-8441440D01*
X20979548Y-8451371D01*
X20981668Y-8455337D01*
X20986242Y-8470417D01*
X20987787Y-8486100D01*
X20986242Y-8501783D01*
X20983750Y-8510000D01*
X20981668Y-8516863D01*
X20974239Y-8530761D01*
X20964242Y-8542942D01*
X20952061Y-8552939D01*
X20943301Y-8557622D01*
X20938163Y-8560368D01*
X20923083Y-8564942D01*
X20915247Y-8565714D01*
X20911329Y-8566100D01*
X20813471Y-8566100D01*
X20809553Y-8565714D01*
X20801717Y-8564942D01*
X20786637Y-8560368D01*
X20781499Y-8557622D01*
X20772740Y-8552939D01*
X20760558Y-8542942D01*
X20750561Y-8530761D01*
X20743132Y-8516863D01*
X20741050Y-8510000D01*
X20738558Y-8501783D01*
X20737013Y-8486100D01*
X20738558Y-8470417D01*
X20743132Y-8455337D01*
X20745252Y-8451371D01*
X20750561Y-8441440D01*
X20760558Y-8429258D01*
X20772740Y-8419261D01*
X20786637Y-8411832D01*
X20786637Y-8411832D01*
X20801717Y-8407258D01*
X20809553Y-8406486D01*
X20813471Y-8406100D01*
X20911329Y-8406100D01*
X20915247Y-8406486D01*
G37*
G36*
X13045552Y-8370404D02*
G01*
X13048906Y-8371421D01*
X13051996Y-8373073D01*
X13054704Y-8375296D01*
X13056927Y-8378004D01*
X13058579Y-8381094D01*
X13059596Y-8384448D01*
X13060000Y-8388549D01*
X13060000Y-8491451D01*
X13059596Y-8495552D01*
X13058579Y-8498906D01*
X13056927Y-8501996D01*
X13054704Y-8504704D01*
X13051996Y-8506927D01*
X13048906Y-8508579D01*
X13045552Y-8509596D01*
X13041451Y-8510000D01*
X12963549Y-8510000D01*
X12959448Y-8509596D01*
X12956094Y-8508579D01*
X12953004Y-8506927D01*
X12950296Y-8504704D01*
X12948073Y-8501996D01*
X12946421Y-8498906D01*
X12945404Y-8495552D01*
X12945000Y-8491451D01*
X12945000Y-8388549D01*
X12945404Y-8384448D01*
X12946421Y-8381094D01*
X12948073Y-8378004D01*
X12950296Y-8375296D01*
X12953004Y-8373073D01*
X12956094Y-8371421D01*
X12959448Y-8370404D01*
X12963549Y-8370000D01*
X13041451Y-8370000D01*
X13045552Y-8370404D01*
G37*
G36*
X12840552Y-8370404D02*
G01*
X12843906Y-8371421D01*
X12846996Y-8373073D01*
X12849704Y-8375296D01*
X12851927Y-8378004D01*
X12853579Y-8381094D01*
X12854596Y-8384448D01*
X12855000Y-8388549D01*
X12855000Y-8491451D01*
X12854596Y-8495552D01*
X12853579Y-8498906D01*
X12851927Y-8501996D01*
X12849704Y-8504704D01*
X12846996Y-8506927D01*
X12843906Y-8508579D01*
X12840552Y-8509596D01*
X12836451Y-8510000D01*
X12758549Y-8510000D01*
X12754448Y-8509596D01*
X12751094Y-8508579D01*
X12748004Y-8506927D01*
X12745296Y-8504704D01*
X12743073Y-8501996D01*
X12741421Y-8498906D01*
X12740404Y-8495552D01*
X12740000Y-8491451D01*
X12740000Y-8388549D01*
X12740404Y-8384448D01*
X12741421Y-8381094D01*
X12743073Y-8378004D01*
X12745296Y-8375296D01*
X12748004Y-8373073D01*
X12751094Y-8371421D01*
X12754448Y-8370404D01*
X12758549Y-8370000D01*
X12836451Y-8370000D01*
X12840552Y-8370404D01*
G37*
G36*
X7565000Y-8460000D02*
G01*
X7325000Y-8460000D01*
X7325000Y-8220000D01*
X7565000Y-8220000D01*
X7565000Y-8460000D01*
G37*
G36*
X8810211Y-8224611D02*
G01*
X8828290Y-8232100D01*
X8832050Y-8233657D01*
X8851704Y-8246790D01*
X8868418Y-8263504D01*
X8878839Y-8279100D01*
X8881551Y-8283159D01*
X8890597Y-8304997D01*
X8895208Y-8328181D01*
X8895208Y-8351819D01*
X8890597Y-8375003D01*
X8882314Y-8395000D01*
X8881551Y-8396841D01*
X8868418Y-8416496D01*
X8851704Y-8433210D01*
X8832050Y-8446343D01*
X8832049Y-8446343D01*
X8832049Y-8446343D01*
X8810211Y-8455389D01*
X8787027Y-8460000D01*
X8763389Y-8460000D01*
X8740206Y-8455389D01*
X8718367Y-8446343D01*
X8718367Y-8446343D01*
X8718367Y-8446343D01*
X8698713Y-8433210D01*
X8681998Y-8416496D01*
X8668866Y-8396841D01*
X8668103Y-8395000D01*
X8659820Y-8375003D01*
X8655208Y-8351819D01*
X8655208Y-8328181D01*
X8659820Y-8304997D01*
X8668866Y-8283159D01*
X8671578Y-8279100D01*
X8681998Y-8263504D01*
X8698713Y-8246790D01*
X8718367Y-8233657D01*
X8722127Y-8232100D01*
X8740206Y-8224611D01*
X8763389Y-8220000D01*
X8787027Y-8220000D01*
X8810211Y-8224611D01*
G37*
G36*
X8395208Y-8460000D02*
G01*
X8155208Y-8460000D01*
X8155208Y-8220000D01*
X8395208Y-8220000D01*
X8395208Y-8460000D01*
G37*
G36*
X6980003Y-8224611D02*
G01*
X6998081Y-8232100D01*
X7001841Y-8233657D01*
X7021495Y-8246790D01*
X7038210Y-8263504D01*
X7048631Y-8279100D01*
X7051343Y-8283159D01*
X7060388Y-8304997D01*
X7065000Y-8328181D01*
X7065000Y-8351819D01*
X7060388Y-8375003D01*
X7052105Y-8395000D01*
X7051343Y-8396841D01*
X7038210Y-8416496D01*
X7021495Y-8433210D01*
X7001841Y-8446343D01*
X7001841Y-8446343D01*
X7001841Y-8446343D01*
X6980003Y-8455389D01*
X6956819Y-8460000D01*
X6933181Y-8460000D01*
X6909997Y-8455389D01*
X6888159Y-8446343D01*
X6888159Y-8446343D01*
X6888159Y-8446343D01*
X6868504Y-8433210D01*
X6851790Y-8416496D01*
X6838657Y-8396841D01*
X6837895Y-8395000D01*
X6829611Y-8375003D01*
X6825000Y-8351819D01*
X6825000Y-8328181D01*
X6829611Y-8304997D01*
X6838657Y-8283159D01*
X6841369Y-8279100D01*
X6851790Y-8263504D01*
X6868504Y-8246790D01*
X6888159Y-8233657D01*
X6891919Y-8232100D01*
X6909997Y-8224611D01*
X6933181Y-8220000D01*
X6956819Y-8220000D01*
X6980003Y-8224611D01*
G37*
G36*
X20661247Y-8279486D02*
G01*
X20669083Y-8280258D01*
X20684163Y-8284832D01*
X20684163Y-8284832D01*
X20698061Y-8292261D01*
X20710242Y-8302258D01*
X20713615Y-8306368D01*
X20720239Y-8314439D01*
X20727668Y-8328337D01*
X20732242Y-8343417D01*
X20733787Y-8359100D01*
X20732242Y-8374783D01*
X20730323Y-8381111D01*
X20727668Y-8389863D01*
X20720239Y-8403761D01*
X20710242Y-8415942D01*
X20698061Y-8425939D01*
X20684458Y-8433210D01*
X20684163Y-8433368D01*
X20669083Y-8437942D01*
X20661247Y-8438714D01*
X20657329Y-8439100D01*
X20559471Y-8439100D01*
X20555553Y-8438714D01*
X20547717Y-8437942D01*
X20532637Y-8433368D01*
X20532342Y-8433210D01*
X20518740Y-8425939D01*
X20506558Y-8415942D01*
X20496561Y-8403761D01*
X20489132Y-8389863D01*
X20486477Y-8381111D01*
X20484558Y-8374783D01*
X20483013Y-8359100D01*
X20484558Y-8343417D01*
X20489132Y-8328337D01*
X20496561Y-8314439D01*
X20503185Y-8306368D01*
X20506558Y-8302258D01*
X20518740Y-8292261D01*
X20532637Y-8284832D01*
X20532637Y-8284832D01*
X20547717Y-8280258D01*
X20555553Y-8279486D01*
X20559471Y-8279100D01*
X20657329Y-8279100D01*
X20661247Y-8279486D01*
G37*
G36*
X11155552Y-8245404D02*
G01*
X11158906Y-8246421D01*
X11161996Y-8248073D01*
X11164704Y-8250296D01*
X11166927Y-8253004D01*
X11168579Y-8256094D01*
X11169596Y-8259448D01*
X11170000Y-8263549D01*
X11170000Y-8341451D01*
X11169596Y-8345552D01*
X11168579Y-8348906D01*
X11166927Y-8351996D01*
X11164704Y-8354704D01*
X11161996Y-8356927D01*
X11158906Y-8358579D01*
X11155552Y-8359596D01*
X11151451Y-8360000D01*
X11048549Y-8360000D01*
X11044448Y-8359596D01*
X11041094Y-8358579D01*
X11038004Y-8356927D01*
X11035296Y-8354704D01*
X11033073Y-8351996D01*
X11031421Y-8348906D01*
X11030404Y-8345552D01*
X11030000Y-8341451D01*
X11030000Y-8263549D01*
X11030404Y-8259448D01*
X11031421Y-8256094D01*
X11033073Y-8253004D01*
X11035296Y-8250296D01*
X11038004Y-8248073D01*
X11041094Y-8246421D01*
X11044448Y-8245404D01*
X11048549Y-8245000D01*
X11151451Y-8245000D01*
X11155552Y-8245404D01*
G37*
G36*
X20915247Y-8152486D02*
G01*
X20923083Y-8153258D01*
X20938163Y-8157832D01*
X20938163Y-8157832D01*
X20952061Y-8165261D01*
X20964242Y-8175258D01*
X20967615Y-8179368D01*
X20974239Y-8187439D01*
X20981668Y-8201337D01*
X20986242Y-8216417D01*
X20987787Y-8232100D01*
X20986242Y-8247783D01*
X20981724Y-8262678D01*
X20981668Y-8262863D01*
X20974239Y-8276760D01*
X20964242Y-8288942D01*
X20952061Y-8298939D01*
X20945852Y-8302258D01*
X20938163Y-8306368D01*
X20923083Y-8310942D01*
X20915247Y-8311714D01*
X20911329Y-8312100D01*
X20813471Y-8312100D01*
X20809553Y-8311714D01*
X20801717Y-8310942D01*
X20786637Y-8306368D01*
X20778948Y-8302258D01*
X20772740Y-8298939D01*
X20760558Y-8288942D01*
X20750561Y-8276760D01*
X20743132Y-8262863D01*
X20743076Y-8262678D01*
X20738558Y-8247783D01*
X20737013Y-8232100D01*
X20738558Y-8216417D01*
X20743132Y-8201337D01*
X20750561Y-8187439D01*
X20757185Y-8179368D01*
X20760558Y-8175258D01*
X20772740Y-8165261D01*
X20786637Y-8157832D01*
X20786637Y-8157832D01*
X20801717Y-8153258D01*
X20809553Y-8152486D01*
X20813471Y-8152100D01*
X20911329Y-8152100D01*
X20915247Y-8152486D01*
G37*
G36*
X10845552Y-8130404D02*
G01*
X10848906Y-8131421D01*
X10851996Y-8133073D01*
X10854704Y-8135296D01*
X10856927Y-8138004D01*
X10858579Y-8141094D01*
X10859596Y-8144448D01*
X10860000Y-8148549D01*
X10860000Y-8251451D01*
X10859596Y-8255552D01*
X10858579Y-8258906D01*
X10856927Y-8261996D01*
X10854704Y-8264704D01*
X10851996Y-8266927D01*
X10848906Y-8268579D01*
X10845552Y-8269596D01*
X10841451Y-8270000D01*
X10763549Y-8270000D01*
X10759448Y-8269596D01*
X10756094Y-8268579D01*
X10753004Y-8266927D01*
X10750296Y-8264704D01*
X10748073Y-8261996D01*
X10746421Y-8258906D01*
X10745404Y-8255552D01*
X10745000Y-8251451D01*
X10745000Y-8148549D01*
X10745404Y-8144448D01*
X10746421Y-8141094D01*
X10748073Y-8138004D01*
X10750296Y-8135296D01*
X10753004Y-8133073D01*
X10756094Y-8131421D01*
X10759448Y-8130404D01*
X10763549Y-8130000D01*
X10841451Y-8130000D01*
X10845552Y-8130404D01*
G37*
G36*
X10640552Y-8130404D02*
G01*
X10643906Y-8131421D01*
X10646996Y-8133073D01*
X10649704Y-8135296D01*
X10651927Y-8138004D01*
X10653579Y-8141094D01*
X10654596Y-8144448D01*
X10655000Y-8148549D01*
X10655000Y-8251451D01*
X10654596Y-8255552D01*
X10653579Y-8258906D01*
X10651927Y-8261996D01*
X10649704Y-8264704D01*
X10646996Y-8266927D01*
X10643906Y-8268579D01*
X10640552Y-8269596D01*
X10636451Y-8270000D01*
X10558549Y-8270000D01*
X10554448Y-8269596D01*
X10551094Y-8268579D01*
X10548004Y-8266927D01*
X10545296Y-8264704D01*
X10543073Y-8261996D01*
X10541421Y-8258906D01*
X10540404Y-8255552D01*
X10540000Y-8251451D01*
X10540000Y-8148549D01*
X10540404Y-8144448D01*
X10541421Y-8141094D01*
X10543073Y-8138004D01*
X10545296Y-8135296D01*
X10548004Y-8133073D01*
X10551094Y-8131421D01*
X10554448Y-8130404D01*
X10558549Y-8130000D01*
X10636451Y-8130000D01*
X10640552Y-8130404D01*
G37*
G36*
X12840552Y-8130404D02*
G01*
X12843906Y-8131421D01*
X12846996Y-8133073D01*
X12849704Y-8135296D01*
X12851927Y-8138004D01*
X12853579Y-8141094D01*
X12854596Y-8144448D01*
X12855000Y-8148549D01*
X12855000Y-8251451D01*
X12854596Y-8255552D01*
X12853579Y-8258906D01*
X12851927Y-8261996D01*
X12849704Y-8264704D01*
X12846996Y-8266927D01*
X12843906Y-8268579D01*
X12840552Y-8269596D01*
X12836451Y-8270000D01*
X12758549Y-8270000D01*
X12754448Y-8269596D01*
X12751094Y-8268579D01*
X12748004Y-8266927D01*
X12745296Y-8264704D01*
X12743073Y-8261996D01*
X12741421Y-8258906D01*
X12740404Y-8255552D01*
X12740000Y-8251451D01*
X12740000Y-8148549D01*
X12740404Y-8144448D01*
X12741421Y-8141094D01*
X12743073Y-8138004D01*
X12745296Y-8135296D01*
X12748004Y-8133073D01*
X12751094Y-8131421D01*
X12754448Y-8130404D01*
X12758549Y-8130000D01*
X12836451Y-8130000D01*
X12840552Y-8130404D01*
G37*
G36*
X13045552Y-8130404D02*
G01*
X13048906Y-8131421D01*
X13051996Y-8133073D01*
X13054704Y-8135296D01*
X13056927Y-8138004D01*
X13058579Y-8141094D01*
X13059596Y-8144448D01*
X13060000Y-8148549D01*
X13060000Y-8251451D01*
X13059596Y-8255552D01*
X13058579Y-8258906D01*
X13056927Y-8261996D01*
X13054704Y-8264704D01*
X13051996Y-8266927D01*
X13048906Y-8268579D01*
X13045552Y-8269596D01*
X13041451Y-8270000D01*
X12963549Y-8270000D01*
X12959448Y-8269596D01*
X12956094Y-8268579D01*
X12953004Y-8266927D01*
X12950296Y-8264704D01*
X12948073Y-8261996D01*
X12946421Y-8258906D01*
X12945404Y-8255552D01*
X12945000Y-8251451D01*
X12945000Y-8148549D01*
X12945404Y-8144448D01*
X12946421Y-8141094D01*
X12948073Y-8138004D01*
X12950296Y-8135296D01*
X12953004Y-8133073D01*
X12956094Y-8131421D01*
X12959448Y-8130404D01*
X12963549Y-8130000D01*
X13041451Y-8130000D01*
X13045552Y-8130404D01*
G37*
G36*
X12329128Y-8075378D02*
G01*
X12332230Y-8076319D01*
X12335090Y-8077848D01*
X12337596Y-8079904D01*
X12339652Y-8082410D01*
X12341181Y-8085270D01*
X12342122Y-8088372D01*
X12342500Y-8092212D01*
X12342500Y-8210288D01*
X12342122Y-8214128D01*
X12341181Y-8217230D01*
X12339652Y-8220090D01*
X12337596Y-8222596D01*
X12335090Y-8224652D01*
X12332230Y-8226181D01*
X12329128Y-8227122D01*
X12325288Y-8227500D01*
X12024712Y-8227500D01*
X12020872Y-8227122D01*
X12017770Y-8226181D01*
X12014910Y-8224652D01*
X12012404Y-8222596D01*
X12010348Y-8220090D01*
X12008819Y-8217230D01*
X12007878Y-8214128D01*
X12007500Y-8210288D01*
X12007500Y-8092212D01*
X12007878Y-8088372D01*
X12008819Y-8085270D01*
X12010348Y-8082410D01*
X12012404Y-8079904D01*
X12014910Y-8077848D01*
X12017770Y-8076319D01*
X12020872Y-8075378D01*
X12024712Y-8075000D01*
X12325288Y-8075000D01*
X12329128Y-8075378D01*
G37*
G36*
X20661247Y-8025486D02*
G01*
X20669083Y-8026258D01*
X20684163Y-8030832D01*
X20684163Y-8030832D01*
X20698061Y-8038261D01*
X20710242Y-8048258D01*
X20713615Y-8052368D01*
X20720239Y-8060439D01*
X20727668Y-8074337D01*
X20732242Y-8089417D01*
X20733787Y-8105100D01*
X20732242Y-8120783D01*
X20728514Y-8133073D01*
X20727668Y-8135863D01*
X20720239Y-8149760D01*
X20710242Y-8161942D01*
X20698061Y-8171939D01*
X20684163Y-8179368D01*
X20684163Y-8179368D01*
X20669083Y-8183942D01*
X20661247Y-8184714D01*
X20657329Y-8185100D01*
X20559471Y-8185100D01*
X20555553Y-8184714D01*
X20547717Y-8183942D01*
X20532637Y-8179368D01*
X20532637Y-8179368D01*
X20518740Y-8171939D01*
X20506558Y-8161942D01*
X20496561Y-8149760D01*
X20489132Y-8135863D01*
X20488286Y-8133073D01*
X20484558Y-8120783D01*
X20483013Y-8105100D01*
X20484558Y-8089417D01*
X20489132Y-8074337D01*
X20496561Y-8060439D01*
X20503185Y-8052368D01*
X20506558Y-8048258D01*
X20518740Y-8038261D01*
X20532637Y-8030832D01*
X20532637Y-8030832D01*
X20547717Y-8026258D01*
X20555553Y-8025486D01*
X20559471Y-8025100D01*
X20657329Y-8025100D01*
X20661247Y-8025486D01*
G37*
G36*
X11825000Y-8175000D02*
G01*
X11375000Y-8175000D01*
X11375000Y-7925000D01*
X11825000Y-7925000D01*
X11825000Y-8175000D01*
G37*
G36*
X11155552Y-8040404D02*
G01*
X11158906Y-8041421D01*
X11161996Y-8043073D01*
X11164704Y-8045296D01*
X11166927Y-8048004D01*
X11168579Y-8051094D01*
X11169596Y-8054448D01*
X11170000Y-8058549D01*
X11170000Y-8136451D01*
X11169596Y-8140552D01*
X11168579Y-8143906D01*
X11166927Y-8146996D01*
X11164704Y-8149704D01*
X11161996Y-8151927D01*
X11158906Y-8153579D01*
X11155552Y-8154596D01*
X11151451Y-8155000D01*
X11048549Y-8155000D01*
X11044448Y-8154596D01*
X11041094Y-8153579D01*
X11038004Y-8151927D01*
X11035296Y-8149704D01*
X11033073Y-8146996D01*
X11031421Y-8143906D01*
X11030404Y-8140552D01*
X11030000Y-8136451D01*
X11030000Y-8058549D01*
X11030404Y-8054448D01*
X11031421Y-8051094D01*
X11033073Y-8048004D01*
X11035296Y-8045296D01*
X11038004Y-8043073D01*
X11041094Y-8041421D01*
X11044448Y-8040404D01*
X11048549Y-8040000D01*
X11151451Y-8040000D01*
X11155552Y-8040404D01*
G37*
G36*
X20915247Y-7898486D02*
G01*
X20923083Y-7899258D01*
X20938163Y-7903832D01*
X20938163Y-7903832D01*
X20952061Y-7911261D01*
X20964242Y-7921258D01*
X20967615Y-7925368D01*
X20974239Y-7933439D01*
X20981668Y-7947337D01*
X20986242Y-7962417D01*
X20987787Y-7978100D01*
X20986242Y-7993783D01*
X20984356Y-8000000D01*
X20981668Y-8008863D01*
X20974239Y-8022760D01*
X20964242Y-8034942D01*
X20952061Y-8044939D01*
X20938163Y-8052368D01*
X20938163Y-8052368D01*
X20923083Y-8056942D01*
X20915247Y-8057714D01*
X20911329Y-8058100D01*
X20813471Y-8058100D01*
X20809553Y-8057714D01*
X20801717Y-8056942D01*
X20786637Y-8052368D01*
X20786637Y-8052368D01*
X20772740Y-8044939D01*
X20760558Y-8034942D01*
X20750561Y-8022760D01*
X20743132Y-8008863D01*
X20740444Y-8000000D01*
X20738558Y-7993783D01*
X20737013Y-7978100D01*
X20738558Y-7962417D01*
X20743132Y-7947337D01*
X20750561Y-7933439D01*
X20757185Y-7925368D01*
X20760558Y-7921258D01*
X20772740Y-7911261D01*
X20786637Y-7903832D01*
X20786637Y-7903832D01*
X20801717Y-7899258D01*
X20809553Y-7898486D01*
X20813471Y-7898100D01*
X20911329Y-7898100D01*
X20915247Y-7898486D01*
G37*
G36*
X13045552Y-7890404D02*
G01*
X13048906Y-7891421D01*
X13051996Y-7893073D01*
X13054704Y-7895296D01*
X13056927Y-7898004D01*
X13058579Y-7901094D01*
X13059596Y-7904448D01*
X13060000Y-7908549D01*
X13060000Y-8011451D01*
X13059596Y-8015552D01*
X13058579Y-8018906D01*
X13056927Y-8021996D01*
X13054704Y-8024704D01*
X13051996Y-8026927D01*
X13048906Y-8028579D01*
X13045552Y-8029596D01*
X13041451Y-8030000D01*
X12963549Y-8030000D01*
X12959448Y-8029596D01*
X12956094Y-8028579D01*
X12953004Y-8026927D01*
X12950296Y-8024704D01*
X12948073Y-8021996D01*
X12946421Y-8018906D01*
X12945404Y-8015552D01*
X12945000Y-8011451D01*
X12945000Y-7908549D01*
X12945404Y-7904448D01*
X12946421Y-7901094D01*
X12948073Y-7898004D01*
X12950296Y-7895296D01*
X12953004Y-7893073D01*
X12956094Y-7891421D01*
X12959448Y-7890404D01*
X12963549Y-7890000D01*
X13041451Y-7890000D01*
X13045552Y-7890404D01*
G37*
G36*
X12840552Y-7890404D02*
G01*
X12843906Y-7891421D01*
X12846996Y-7893073D01*
X12849704Y-7895296D01*
X12851927Y-7898004D01*
X12853579Y-7901094D01*
X12854596Y-7904448D01*
X12855000Y-7908549D01*
X12855000Y-8011451D01*
X12854596Y-8015552D01*
X12853579Y-8018906D01*
X12851927Y-8021996D01*
X12849704Y-8024704D01*
X12846996Y-8026927D01*
X12843906Y-8028579D01*
X12840552Y-8029596D01*
X12836451Y-8030000D01*
X12758549Y-8030000D01*
X12754448Y-8029596D01*
X12751094Y-8028579D01*
X12748004Y-8026927D01*
X12745296Y-8024704D01*
X12743073Y-8021996D01*
X12741421Y-8018906D01*
X12740404Y-8015552D01*
X12740000Y-8011451D01*
X12740000Y-7908549D01*
X12740404Y-7904448D01*
X12741421Y-7901094D01*
X12743073Y-7898004D01*
X12745296Y-7895296D01*
X12748004Y-7893073D01*
X12751094Y-7891421D01*
X12754448Y-7890404D01*
X12758549Y-7890000D01*
X12836451Y-7890000D01*
X12840552Y-7890404D01*
G37*
G36*
X15420000Y-8000000D02*
G01*
X15220000Y-8000000D01*
X15220000Y-7800000D01*
X15420000Y-7800000D01*
X15420000Y-8000000D01*
G37*
G36*
X20660896Y-7771451D02*
G01*
X20669083Y-7772258D01*
X20684163Y-7776832D01*
X20684163Y-7776832D01*
X20698061Y-7784261D01*
X20710242Y-7794258D01*
X20713615Y-7798368D01*
X20720239Y-7806439D01*
X20727668Y-7820337D01*
X20732242Y-7835417D01*
X20733787Y-7851100D01*
X20732242Y-7866783D01*
X20727668Y-7881863D01*
X20727668Y-7881863D01*
X20720239Y-7895760D01*
X20710242Y-7907942D01*
X20698061Y-7917939D01*
X20684851Y-7925000D01*
X20684163Y-7925368D01*
X20669083Y-7929942D01*
X20661247Y-7930714D01*
X20657329Y-7931100D01*
X20559471Y-7931100D01*
X20555553Y-7930714D01*
X20547717Y-7929942D01*
X20532637Y-7925368D01*
X20531949Y-7925000D01*
X20518740Y-7917939D01*
X20506558Y-7907942D01*
X20496561Y-7895760D01*
X20489132Y-7881863D01*
X20489132Y-7881863D01*
X20484558Y-7866783D01*
X20483013Y-7851100D01*
X20484558Y-7835417D01*
X20489132Y-7820337D01*
X20496561Y-7806439D01*
X20503185Y-7798368D01*
X20506558Y-7794258D01*
X20518740Y-7784261D01*
X20532637Y-7776832D01*
X20532637Y-7776832D01*
X20547717Y-7772258D01*
X20555904Y-7771451D01*
X20559471Y-7771100D01*
X20657329Y-7771100D01*
X20660896Y-7771451D01*
G37*
G36*
X20915247Y-7644486D02*
G01*
X20923083Y-7645258D01*
X20938163Y-7649832D01*
X20938163Y-7649832D01*
X20952061Y-7657261D01*
X20964242Y-7667258D01*
X20967615Y-7671368D01*
X20974239Y-7679439D01*
X20981668Y-7693337D01*
X20986242Y-7708417D01*
X20987787Y-7724100D01*
X20986242Y-7739783D01*
X20981668Y-7754863D01*
X20981668Y-7754863D01*
X20974239Y-7768760D01*
X20964242Y-7780942D01*
X20952061Y-7790939D01*
X20945852Y-7794258D01*
X20938163Y-7798368D01*
X20923083Y-7802942D01*
X20915247Y-7803714D01*
X20911329Y-7804100D01*
X20813471Y-7804100D01*
X20809553Y-7803714D01*
X20801717Y-7802942D01*
X20786637Y-7798368D01*
X20778948Y-7794258D01*
X20772740Y-7790939D01*
X20760558Y-7780942D01*
X20750561Y-7768760D01*
X20743132Y-7754863D01*
X20743132Y-7754863D01*
X20738558Y-7739783D01*
X20737013Y-7724100D01*
X20738558Y-7708417D01*
X20743132Y-7693337D01*
X20750561Y-7679439D01*
X20757185Y-7671368D01*
X20760558Y-7667258D01*
X20772740Y-7657261D01*
X20786637Y-7649832D01*
X20786637Y-7649832D01*
X20801717Y-7645258D01*
X20809553Y-7644486D01*
X20813471Y-7644100D01*
X20911329Y-7644100D01*
X20915247Y-7644486D01*
G37*
G36*
X13045552Y-7650404D02*
G01*
X13048906Y-7651421D01*
X13051996Y-7653073D01*
X13054704Y-7655296D01*
X13056927Y-7658004D01*
X13058579Y-7661094D01*
X13059596Y-7664448D01*
X13060000Y-7668549D01*
X13060000Y-7771451D01*
X13059596Y-7775552D01*
X13058579Y-7778906D01*
X13056927Y-7781996D01*
X13054704Y-7784704D01*
X13051996Y-7786927D01*
X13048906Y-7788579D01*
X13045552Y-7789596D01*
X13041451Y-7790000D01*
X12963549Y-7790000D01*
X12959448Y-7789596D01*
X12956094Y-7788579D01*
X12953004Y-7786927D01*
X12950296Y-7784704D01*
X12948073Y-7781996D01*
X12946421Y-7778906D01*
X12945404Y-7775552D01*
X12945000Y-7771451D01*
X12945000Y-7668549D01*
X12945404Y-7664448D01*
X12946421Y-7661094D01*
X12948073Y-7658004D01*
X12950296Y-7655296D01*
X12953004Y-7653073D01*
X12956094Y-7651421D01*
X12959448Y-7650404D01*
X12963549Y-7650000D01*
X13041451Y-7650000D01*
X13045552Y-7650404D01*
G37*
G36*
X12840552Y-7650404D02*
G01*
X12843906Y-7651421D01*
X12846996Y-7653073D01*
X12849704Y-7655296D01*
X12851927Y-7658004D01*
X12853579Y-7661094D01*
X12854596Y-7664448D01*
X12855000Y-7668549D01*
X12855000Y-7771451D01*
X12854596Y-7775552D01*
X12853579Y-7778906D01*
X12851927Y-7781996D01*
X12849704Y-7784704D01*
X12846996Y-7786927D01*
X12843906Y-7788579D01*
X12840552Y-7789596D01*
X12836451Y-7790000D01*
X12758549Y-7790000D01*
X12754448Y-7789596D01*
X12751094Y-7788579D01*
X12748004Y-7786927D01*
X12745296Y-7784704D01*
X12743073Y-7781996D01*
X12741421Y-7778906D01*
X12740404Y-7775552D01*
X12740000Y-7771451D01*
X12740000Y-7668549D01*
X12740404Y-7664448D01*
X12741421Y-7661094D01*
X12743073Y-7658004D01*
X12745296Y-7655296D01*
X12748004Y-7653073D01*
X12751094Y-7651421D01*
X12754448Y-7650404D01*
X12758549Y-7650000D01*
X12836451Y-7650000D01*
X12840552Y-7650404D01*
G37*
G36*
X20661247Y-7517486D02*
G01*
X20669083Y-7518258D01*
X20684163Y-7522832D01*
X20684163Y-7522832D01*
X20698061Y-7530261D01*
X20710242Y-7540258D01*
X20720239Y-7552439D01*
X20722434Y-7556546D01*
X20727668Y-7566337D01*
X20732242Y-7581417D01*
X20733787Y-7597100D01*
X20732242Y-7612783D01*
X20727668Y-7627863D01*
X20727668Y-7627863D01*
X20720239Y-7641760D01*
X20710242Y-7653942D01*
X20698061Y-7663939D01*
X20686492Y-7670123D01*
X20684163Y-7671368D01*
X20669083Y-7675942D01*
X20661247Y-7676714D01*
X20657329Y-7677100D01*
X20559471Y-7677100D01*
X20555553Y-7676714D01*
X20547717Y-7675942D01*
X20532637Y-7671368D01*
X20530308Y-7670123D01*
X20518740Y-7663939D01*
X20506558Y-7653942D01*
X20496561Y-7641760D01*
X20489132Y-7627863D01*
X20489132Y-7627863D01*
X20484558Y-7612783D01*
X20483013Y-7597100D01*
X20484558Y-7581417D01*
X20489132Y-7566337D01*
X20494366Y-7556546D01*
X20496561Y-7552439D01*
X20506558Y-7540258D01*
X20518740Y-7530261D01*
X20532637Y-7522832D01*
X20532637Y-7522832D01*
X20547717Y-7518258D01*
X20555553Y-7517486D01*
X20559471Y-7517100D01*
X20657329Y-7517100D01*
X20661247Y-7517486D01*
G37*
G36*
X21527440Y-7290000D02*
G01*
X21550633Y-7294613D01*
X21563644Y-7300003D01*
X21583846Y-7308370D01*
X21613737Y-7328343D01*
X21639157Y-7353763D01*
X21659130Y-7383654D01*
X21664916Y-7397623D01*
X21672887Y-7416867D01*
X21679900Y-7452125D01*
X21679900Y-7488075D01*
X21672887Y-7523333D01*
X21668026Y-7535067D01*
X21659130Y-7556546D01*
X21639157Y-7586437D01*
X21613737Y-7611857D01*
X21583846Y-7631829D01*
X21564390Y-7639888D01*
X21550633Y-7645587D01*
X21533004Y-7649093D01*
X21515375Y-7652600D01*
X21479425Y-7652600D01*
X21461796Y-7649093D01*
X21444167Y-7645587D01*
X21430410Y-7639888D01*
X21410954Y-7631829D01*
X21381063Y-7611857D01*
X21355643Y-7586437D01*
X21335671Y-7556546D01*
X21326774Y-7535067D01*
X21321913Y-7523333D01*
X21314900Y-7488075D01*
X21314900Y-7452125D01*
X21321913Y-7416867D01*
X21329885Y-7397623D01*
X21335671Y-7383654D01*
X21355643Y-7353763D01*
X21381063Y-7328343D01*
X21410954Y-7308370D01*
X21431156Y-7300003D01*
X21444167Y-7294613D01*
X21467360Y-7290000D01*
X21479425Y-7287600D01*
X21515375Y-7287600D01*
X21527440Y-7290000D01*
G37*
G36*
X12829552Y-7410904D02*
G01*
X12832906Y-7411921D01*
X12835996Y-7413573D01*
X12838704Y-7415796D01*
X12840927Y-7418504D01*
X12842579Y-7421594D01*
X12843596Y-7424948D01*
X12844000Y-7429049D01*
X12844000Y-7531951D01*
X12843596Y-7536052D01*
X12842579Y-7539406D01*
X12840927Y-7542496D01*
X12838704Y-7545204D01*
X12835996Y-7547427D01*
X12832906Y-7549079D01*
X12829552Y-7550096D01*
X12825451Y-7550500D01*
X12747549Y-7550500D01*
X12743448Y-7550096D01*
X12740094Y-7549079D01*
X12737004Y-7547427D01*
X12734296Y-7545204D01*
X12732073Y-7542496D01*
X12730421Y-7539406D01*
X12729404Y-7536052D01*
X12729000Y-7531951D01*
X12729000Y-7429049D01*
X12729404Y-7424948D01*
X12730421Y-7421594D01*
X12732073Y-7418504D01*
X12734296Y-7415796D01*
X12737004Y-7413573D01*
X12740094Y-7411921D01*
X12743448Y-7410904D01*
X12747549Y-7410500D01*
X12825451Y-7410500D01*
X12829552Y-7410904D01*
G37*
G36*
X13034552Y-7410904D02*
G01*
X13037906Y-7411921D01*
X13040996Y-7413573D01*
X13043704Y-7415796D01*
X13045927Y-7418504D01*
X13047579Y-7421594D01*
X13048596Y-7424948D01*
X13049000Y-7429049D01*
X13049000Y-7531951D01*
X13048596Y-7536052D01*
X13047579Y-7539406D01*
X13045927Y-7542496D01*
X13043704Y-7545204D01*
X13040996Y-7547427D01*
X13037906Y-7549079D01*
X13034552Y-7550096D01*
X13030451Y-7550500D01*
X12952549Y-7550500D01*
X12948448Y-7550096D01*
X12945094Y-7549079D01*
X12942004Y-7547427D01*
X12939296Y-7545204D01*
X12937073Y-7542496D01*
X12935421Y-7539406D01*
X12934404Y-7536052D01*
X12934000Y-7531951D01*
X12934000Y-7429049D01*
X12934404Y-7424948D01*
X12935421Y-7421594D01*
X12937073Y-7418504D01*
X12939296Y-7415796D01*
X12942004Y-7413573D01*
X12945094Y-7411921D01*
X12948448Y-7410904D01*
X12952549Y-7410500D01*
X13030451Y-7410500D01*
X13034552Y-7410904D01*
G37*
G36*
X10585000Y-7540000D02*
G01*
X10415000Y-7540000D01*
X10415000Y-7210000D01*
X10585000Y-7210000D01*
X10585000Y-7540000D01*
G37*
G36*
X10885000Y-7540000D02*
G01*
X10715000Y-7540000D01*
X10715000Y-7210000D01*
X10885000Y-7210000D01*
X10885000Y-7540000D01*
G37*
G36*
X11185000Y-7540000D02*
G01*
X11015000Y-7540000D01*
X11015000Y-7210000D01*
X11185000Y-7210000D01*
X11185000Y-7540000D01*
G37*
G36*
X12318896Y-7377884D02*
G01*
X12322052Y-7378841D01*
X12324962Y-7380396D01*
X12327511Y-7382488D01*
X12329604Y-7385038D01*
X12331159Y-7387947D01*
X12332116Y-7391104D01*
X12332500Y-7395000D01*
X12332500Y-7502500D01*
X12332116Y-7506396D01*
X12331159Y-7509552D01*
X12329604Y-7512462D01*
X12327511Y-7515011D01*
X12324962Y-7517104D01*
X12322052Y-7518659D01*
X12318896Y-7519616D01*
X12315000Y-7520000D01*
X12085000Y-7520000D01*
X12081104Y-7519616D01*
X12077947Y-7518659D01*
X12075038Y-7517104D01*
X12072488Y-7515011D01*
X12070396Y-7512462D01*
X12068841Y-7509552D01*
X12067884Y-7506396D01*
X12067500Y-7502500D01*
X12067500Y-7395000D01*
X12067884Y-7391104D01*
X12068841Y-7387947D01*
X12070396Y-7385038D01*
X12072488Y-7382488D01*
X12075038Y-7380396D01*
X12077947Y-7378841D01*
X12081104Y-7377884D01*
X12085000Y-7377500D01*
X12315000Y-7377500D01*
X12318896Y-7377884D01*
G37*
G36*
X11724504Y-7166809D02*
G01*
X11733397Y-7169506D01*
X11748067Y-7173956D01*
X11748067Y-7173956D01*
X11769782Y-7185563D01*
X11788816Y-7201184D01*
X11804437Y-7220218D01*
X11816044Y-7241933D01*
X11823191Y-7265496D01*
X11825605Y-7290000D01*
X11823191Y-7314504D01*
X11816044Y-7338067D01*
X11804437Y-7359782D01*
X11788816Y-7378816D01*
X11769782Y-7394437D01*
X11754697Y-7402500D01*
X11748067Y-7406044D01*
X11736286Y-7409617D01*
X11724504Y-7413191D01*
X11706141Y-7415000D01*
X11493859Y-7415000D01*
X11475496Y-7413191D01*
X11463714Y-7409617D01*
X11451933Y-7406044D01*
X11445303Y-7402500D01*
X11430218Y-7394437D01*
X11411184Y-7378816D01*
X11395563Y-7359782D01*
X11383956Y-7338067D01*
X11376809Y-7314504D01*
X11374395Y-7290000D01*
X11376809Y-7265496D01*
X11383956Y-7241933D01*
X11395563Y-7220218D01*
X11411184Y-7201184D01*
X11430218Y-7185563D01*
X11451933Y-7173956D01*
X11451933Y-7173956D01*
X11466603Y-7169506D01*
X11475496Y-7166809D01*
X11493859Y-7165000D01*
X11706141Y-7165000D01*
X11724504Y-7166809D01*
G37*
G36*
X21228861Y-7146404D02*
G01*
X21251610Y-7155826D01*
X21251610Y-7155826D01*
X21272083Y-7169506D01*
X21289494Y-7186917D01*
X21302245Y-7206000D01*
X21303174Y-7207390D01*
X21312596Y-7230139D01*
X21317400Y-7254288D01*
X21317400Y-7278912D01*
X21312596Y-7303061D01*
X21304817Y-7321841D01*
X21303174Y-7325810D01*
X21289494Y-7346283D01*
X21272083Y-7363694D01*
X21251610Y-7377373D01*
X21251610Y-7377374D01*
X21251610Y-7377374D01*
X21228861Y-7386796D01*
X21204712Y-7391600D01*
X21180088Y-7391600D01*
X21155939Y-7386796D01*
X21133191Y-7377374D01*
X21133190Y-7377374D01*
X21133190Y-7377373D01*
X21112717Y-7363694D01*
X21095306Y-7346283D01*
X21081627Y-7325810D01*
X21079983Y-7321841D01*
X21072204Y-7303061D01*
X21067400Y-7278912D01*
X21067400Y-7254288D01*
X21072204Y-7230139D01*
X21081626Y-7207390D01*
X21082556Y-7206000D01*
X21095306Y-7186917D01*
X21112717Y-7169506D01*
X21133190Y-7155826D01*
X21133191Y-7155826D01*
X21155939Y-7146404D01*
X21180088Y-7141600D01*
X21204712Y-7141600D01*
X21228861Y-7146404D01*
G37*
G36*
X7235003Y-7149611D02*
G01*
X7250007Y-7155826D01*
X7256841Y-7158657D01*
X7276495Y-7171790D01*
X7293210Y-7188504D01*
X7305829Y-7207390D01*
X7306343Y-7208159D01*
X7315388Y-7229997D01*
X7320000Y-7253181D01*
X7320000Y-7276819D01*
X7315388Y-7300003D01*
X7307964Y-7317927D01*
X7306343Y-7321841D01*
X7293210Y-7341495D01*
X7276495Y-7358210D01*
X7256841Y-7371343D01*
X7256841Y-7371343D01*
X7256841Y-7371343D01*
X7235003Y-7380388D01*
X7211819Y-7385000D01*
X7188181Y-7385000D01*
X7164997Y-7380388D01*
X7143159Y-7371343D01*
X7143159Y-7371343D01*
X7143159Y-7371343D01*
X7123504Y-7358210D01*
X7106790Y-7341495D01*
X7093657Y-7321841D01*
X7092036Y-7317927D01*
X7084611Y-7300003D01*
X7080000Y-7276819D01*
X7080000Y-7253181D01*
X7084611Y-7229997D01*
X7093657Y-7208159D01*
X7094171Y-7207390D01*
X7106790Y-7188504D01*
X7123504Y-7171790D01*
X7143159Y-7158657D01*
X7149993Y-7155826D01*
X7164997Y-7149611D01*
X7188181Y-7145000D01*
X7211819Y-7145000D01*
X7235003Y-7149611D01*
G37*
G36*
X8575003Y-7149611D02*
G01*
X8590007Y-7155826D01*
X8596841Y-7158657D01*
X8616496Y-7171790D01*
X8633210Y-7188504D01*
X8645829Y-7207390D01*
X8646343Y-7208159D01*
X8655389Y-7229997D01*
X8660000Y-7253181D01*
X8660000Y-7276819D01*
X8655389Y-7300003D01*
X8647964Y-7317927D01*
X8646343Y-7321841D01*
X8633210Y-7341495D01*
X8616496Y-7358210D01*
X8596841Y-7371343D01*
X8596841Y-7371343D01*
X8596841Y-7371343D01*
X8575003Y-7380388D01*
X8551819Y-7385000D01*
X8528181Y-7385000D01*
X8504997Y-7380388D01*
X8483159Y-7371343D01*
X8483159Y-7371343D01*
X8483159Y-7371343D01*
X8463505Y-7358210D01*
X8446790Y-7341495D01*
X8433657Y-7321841D01*
X8432036Y-7317927D01*
X8424612Y-7300003D01*
X8420000Y-7276819D01*
X8420000Y-7253181D01*
X8424612Y-7229997D01*
X8433657Y-7208159D01*
X8434171Y-7207390D01*
X8446790Y-7188504D01*
X8463505Y-7171790D01*
X8483159Y-7158657D01*
X8489993Y-7155826D01*
X8504997Y-7149611D01*
X8528181Y-7145000D01*
X8551819Y-7145000D01*
X8575003Y-7149611D01*
G37*
G36*
X12610000Y-7340000D02*
G01*
X12440000Y-7340000D01*
X12440000Y-7010000D01*
X12610000Y-7010000D01*
X12610000Y-7340000D01*
G37*
G36*
X13034552Y-7181404D02*
G01*
X13037906Y-7182421D01*
X13040996Y-7184073D01*
X13043704Y-7186296D01*
X13045927Y-7189004D01*
X13047579Y-7192094D01*
X13048596Y-7195448D01*
X13049000Y-7199549D01*
X13049000Y-7302451D01*
X13048596Y-7306552D01*
X13047579Y-7309906D01*
X13045927Y-7312996D01*
X13043704Y-7315704D01*
X13040996Y-7317927D01*
X13037906Y-7319579D01*
X13034552Y-7320596D01*
X13030451Y-7321000D01*
X12952549Y-7321000D01*
X12948448Y-7320596D01*
X12945094Y-7319579D01*
X12942004Y-7317927D01*
X12939296Y-7315704D01*
X12937073Y-7312996D01*
X12935421Y-7309906D01*
X12934404Y-7306552D01*
X12934000Y-7302451D01*
X12934000Y-7199549D01*
X12934404Y-7195448D01*
X12935421Y-7192094D01*
X12937073Y-7189004D01*
X12939296Y-7186296D01*
X12942004Y-7184073D01*
X12945094Y-7182421D01*
X12948448Y-7181404D01*
X12952549Y-7181000D01*
X13030451Y-7181000D01*
X13034552Y-7181404D01*
G37*
G36*
X12829552Y-7181404D02*
G01*
X12832906Y-7182421D01*
X12835996Y-7184073D01*
X12838704Y-7186296D01*
X12840927Y-7189004D01*
X12842579Y-7192094D01*
X12843596Y-7195448D01*
X12844000Y-7199549D01*
X12844000Y-7302451D01*
X12843596Y-7306552D01*
X12842579Y-7309906D01*
X12840927Y-7312996D01*
X12838704Y-7315704D01*
X12835996Y-7317927D01*
X12832906Y-7319579D01*
X12829552Y-7320596D01*
X12825451Y-7321000D01*
X12747549Y-7321000D01*
X12743448Y-7320596D01*
X12740094Y-7319579D01*
X12737004Y-7317927D01*
X12734296Y-7315704D01*
X12732073Y-7312996D01*
X12730421Y-7309906D01*
X12729404Y-7306552D01*
X12729000Y-7302451D01*
X12729000Y-7199549D01*
X12729404Y-7195448D01*
X12730421Y-7192094D01*
X12732073Y-7189004D01*
X12734296Y-7186296D01*
X12737004Y-7184073D01*
X12740094Y-7182421D01*
X12743448Y-7181404D01*
X12747549Y-7181000D01*
X12825451Y-7181000D01*
X12829552Y-7181404D01*
G37*
G36*
X12318896Y-7080384D02*
G01*
X12322052Y-7081341D01*
X12324962Y-7082896D01*
X12327511Y-7084988D01*
X12329604Y-7087538D01*
X12331159Y-7090447D01*
X12332116Y-7093604D01*
X12332500Y-7097500D01*
X12332500Y-7205000D01*
X12332116Y-7208896D01*
X12331159Y-7212052D01*
X12329604Y-7214962D01*
X12327511Y-7217511D01*
X12324962Y-7219604D01*
X12322052Y-7221159D01*
X12318896Y-7222116D01*
X12315000Y-7222500D01*
X12085000Y-7222500D01*
X12081104Y-7222116D01*
X12077947Y-7221159D01*
X12075038Y-7219604D01*
X12072488Y-7217511D01*
X12070396Y-7214962D01*
X12068841Y-7212052D01*
X12067884Y-7208896D01*
X12067500Y-7205000D01*
X12067500Y-7097500D01*
X12067884Y-7093604D01*
X12068841Y-7090447D01*
X12070396Y-7087538D01*
X12072488Y-7084988D01*
X12075038Y-7082896D01*
X12077947Y-7081341D01*
X12081104Y-7080384D01*
X12085000Y-7080000D01*
X12315000Y-7080000D01*
X12318896Y-7080384D01*
G37*
G36*
X13150396Y-6903884D02*
G01*
X13153552Y-6904841D01*
X13156462Y-6906396D01*
X13159011Y-6908488D01*
X13161104Y-6911038D01*
X13162659Y-6913947D01*
X13163616Y-6917104D01*
X13164000Y-6921000D01*
X13164000Y-7061000D01*
X13163616Y-7064896D01*
X13162659Y-7068052D01*
X13161104Y-7070962D01*
X13159011Y-7073511D01*
X13156462Y-7075604D01*
X13153552Y-7077159D01*
X13150396Y-7078116D01*
X13146500Y-7078500D01*
X13039000Y-7078500D01*
X13035104Y-7078116D01*
X13031947Y-7077159D01*
X13029038Y-7075604D01*
X13026488Y-7073511D01*
X13024396Y-7070962D01*
X13022841Y-7068052D01*
X13021884Y-7064896D01*
X13021500Y-7061000D01*
X13021500Y-6921000D01*
X13021884Y-6917104D01*
X13022841Y-6913947D01*
X13024396Y-6911038D01*
X13026488Y-6908488D01*
X13029038Y-6906396D01*
X13031947Y-6904841D01*
X13035104Y-6903884D01*
X13039000Y-6903500D01*
X13146500Y-6903500D01*
X13150396Y-6903884D01*
G37*
G36*
X12852896Y-6903884D02*
G01*
X12856052Y-6904841D01*
X12858962Y-6906396D01*
X12861511Y-6908488D01*
X12863604Y-6911038D01*
X12865159Y-6913947D01*
X12866116Y-6917104D01*
X12866500Y-6921000D01*
X12866500Y-7061000D01*
X12866116Y-7064896D01*
X12865159Y-7068052D01*
X12863604Y-7070962D01*
X12861511Y-7073511D01*
X12858962Y-7075604D01*
X12856052Y-7077159D01*
X12852896Y-7078116D01*
X12849000Y-7078500D01*
X12741500Y-7078500D01*
X12737604Y-7078116D01*
X12734447Y-7077159D01*
X12731538Y-7075604D01*
X12728988Y-7073511D01*
X12726896Y-7070962D01*
X12725341Y-7068052D01*
X12724384Y-7064896D01*
X12724000Y-7061000D01*
X12724000Y-6921000D01*
X12724384Y-6917104D01*
X12725341Y-6913947D01*
X12726896Y-6911038D01*
X12728988Y-6908488D01*
X12731538Y-6906396D01*
X12734447Y-6904841D01*
X12737604Y-6903884D01*
X12741500Y-6903500D01*
X12849000Y-6903500D01*
X12852896Y-6903884D01*
G37*
G36*
X10585000Y-6990000D02*
G01*
X10415000Y-6990000D01*
X10415000Y-6660000D01*
X10585000Y-6660000D01*
X10585000Y-6990000D01*
G37*
G36*
X11185000Y-6990000D02*
G01*
X11015000Y-6990000D01*
X11015000Y-6660000D01*
X11185000Y-6660000D01*
X11185000Y-6990000D01*
G37*
G36*
X10885000Y-6990000D02*
G01*
X10715000Y-6990000D01*
X10715000Y-6660000D01*
X10885000Y-6660000D01*
X10885000Y-6990000D01*
G37*
G36*
X12328700Y-6822888D02*
G01*
X12331903Y-6823860D01*
X12334853Y-6825437D01*
X12337440Y-6827560D01*
X12339563Y-6830147D01*
X12341140Y-6833097D01*
X12342112Y-6836300D01*
X12342500Y-6840244D01*
X12342500Y-6939756D01*
X12342112Y-6943700D01*
X12341140Y-6946903D01*
X12339563Y-6949853D01*
X12337440Y-6952440D01*
X12334853Y-6954563D01*
X12331903Y-6956140D01*
X12328700Y-6957112D01*
X12324756Y-6957500D01*
X12025244Y-6957500D01*
X12021300Y-6957112D01*
X12018097Y-6956140D01*
X12015147Y-6954563D01*
X12012560Y-6952440D01*
X12010437Y-6949853D01*
X12008860Y-6946903D01*
X12007888Y-6943700D01*
X12007500Y-6939756D01*
X12007500Y-6840244D01*
X12007888Y-6836300D01*
X12008860Y-6833097D01*
X12010437Y-6830147D01*
X12012560Y-6827560D01*
X12015147Y-6825437D01*
X12018097Y-6823860D01*
X12021300Y-6822888D01*
X12025244Y-6822500D01*
X12324756Y-6822500D01*
X12328700Y-6822888D01*
G37*
G36*
X13618554Y-6567949D02*
G01*
X13638504Y-6571917D01*
X13671262Y-6585486D01*
X13700743Y-6605185D01*
X13725815Y-6630257D01*
X13745514Y-6659738D01*
X13759083Y-6692496D01*
X13759965Y-6696933D01*
X13766000Y-6727271D01*
X13766000Y-6762729D01*
X13763758Y-6774000D01*
X13759083Y-6797504D01*
X13748530Y-6822980D01*
X13746633Y-6827560D01*
X13745514Y-6830262D01*
X13725815Y-6859743D01*
X13700743Y-6884815D01*
X13671262Y-6904514D01*
X13671262Y-6904514D01*
X13671262Y-6904514D01*
X13666717Y-6906396D01*
X13638504Y-6918083D01*
X13623839Y-6921000D01*
X13603729Y-6925000D01*
X13568271Y-6925000D01*
X13548161Y-6921000D01*
X13533496Y-6918083D01*
X13505282Y-6906396D01*
X13500738Y-6904514D01*
X13500738Y-6904514D01*
X13500738Y-6904514D01*
X13471257Y-6884815D01*
X13446185Y-6859743D01*
X13426486Y-6830262D01*
X13425367Y-6827560D01*
X13423470Y-6822980D01*
X13412917Y-6797504D01*
X13408242Y-6774000D01*
X13406000Y-6762729D01*
X13406000Y-6727271D01*
X13412035Y-6696933D01*
X13412917Y-6692496D01*
X13426486Y-6659738D01*
X13446185Y-6630257D01*
X13471257Y-6605185D01*
X13500738Y-6585486D01*
X13533496Y-6571917D01*
X13553446Y-6567949D01*
X13568271Y-6565000D01*
X13603729Y-6565000D01*
X13618554Y-6567949D01*
G37*
G36*
X7320000Y-6885000D02*
G01*
X7080000Y-6885000D01*
X7080000Y-6645000D01*
X7320000Y-6645000D01*
X7320000Y-6885000D01*
G37*
G36*
X8660000Y-6885000D02*
G01*
X8420000Y-6885000D01*
X8420000Y-6645000D01*
X8660000Y-6645000D01*
X8660000Y-6885000D01*
G37*
G36*
X11724504Y-6621809D02*
G01*
X11731142Y-6623822D01*
X11748067Y-6628956D01*
X11748067Y-6628956D01*
X11769782Y-6640563D01*
X11788816Y-6656184D01*
X11804437Y-6675218D01*
X11816044Y-6696933D01*
X11823191Y-6720496D01*
X11825605Y-6745000D01*
X11823191Y-6769504D01*
X11821827Y-6774000D01*
X11816926Y-6790159D01*
X11816044Y-6793067D01*
X11804437Y-6814782D01*
X11788816Y-6833816D01*
X11769782Y-6849437D01*
X11750500Y-6859743D01*
X11748067Y-6861044D01*
X11736286Y-6864617D01*
X11724504Y-6868191D01*
X11706141Y-6870000D01*
X11493859Y-6870000D01*
X11475496Y-6868191D01*
X11463714Y-6864617D01*
X11451933Y-6861044D01*
X11449500Y-6859743D01*
X11430218Y-6849437D01*
X11411184Y-6833816D01*
X11395563Y-6814782D01*
X11383956Y-6793067D01*
X11383074Y-6790159D01*
X11378172Y-6774000D01*
X11376809Y-6769504D01*
X11374395Y-6745000D01*
X11376809Y-6720496D01*
X11383956Y-6696933D01*
X11395563Y-6675218D01*
X11411184Y-6656184D01*
X11430218Y-6640563D01*
X11451933Y-6628956D01*
X11451933Y-6628956D01*
X11468858Y-6623822D01*
X11475496Y-6621809D01*
X11493859Y-6620000D01*
X11706141Y-6620000D01*
X11724504Y-6621809D01*
G37*
G36*
X5803398Y-5780184D02*
G01*
X5854595Y-5790368D01*
X5951049Y-5830320D01*
X6037855Y-5888322D01*
X6111678Y-5962145D01*
X6168784Y-6047611D01*
X6169680Y-6048951D01*
X6173761Y-6058804D01*
X6209632Y-6145405D01*
X6218527Y-6190123D01*
X6230000Y-6247799D01*
X6230000Y-6352201D01*
X6225238Y-6376140D01*
X6209632Y-6454595D01*
X6187272Y-6508579D01*
X6171721Y-6546121D01*
X6169680Y-6551049D01*
X6111678Y-6637855D01*
X6037855Y-6711678D01*
X5951049Y-6769680D01*
X5951049Y-6769680D01*
X5951049Y-6769680D01*
X5935629Y-6776067D01*
X5854595Y-6809632D01*
X5803398Y-6819816D01*
X5752201Y-6830000D01*
X5647799Y-6830000D01*
X5596602Y-6819816D01*
X5545405Y-6809632D01*
X5464371Y-6776067D01*
X5448951Y-6769680D01*
X5448951Y-6769680D01*
X5448951Y-6769680D01*
X5362145Y-6711678D01*
X5288322Y-6637855D01*
X5230320Y-6551049D01*
X5228279Y-6546121D01*
X5212728Y-6508579D01*
X5190368Y-6454595D01*
X5174762Y-6376140D01*
X5170000Y-6352201D01*
X5170000Y-6247799D01*
X5181473Y-6190123D01*
X5190368Y-6145405D01*
X5226239Y-6058804D01*
X5230320Y-6048951D01*
X5231216Y-6047611D01*
X5288322Y-5962145D01*
X5362145Y-5888322D01*
X5448951Y-5830320D01*
X5545405Y-5790368D01*
X5596602Y-5780184D01*
X5647799Y-5770000D01*
X5752201Y-5770000D01*
X5803398Y-5780184D01*
G37*
G36*
X13150396Y-6616884D02*
G01*
X13153552Y-6617841D01*
X13156462Y-6619396D01*
X13159011Y-6621488D01*
X13161104Y-6624038D01*
X13162659Y-6626947D01*
X13163616Y-6630104D01*
X13164000Y-6634000D01*
X13164000Y-6774000D01*
X13163616Y-6777896D01*
X13162659Y-6781052D01*
X13161104Y-6783962D01*
X13159011Y-6786511D01*
X13156462Y-6788604D01*
X13153552Y-6790159D01*
X13150396Y-6791116D01*
X13146500Y-6791500D01*
X13039000Y-6791500D01*
X13035104Y-6791116D01*
X13031947Y-6790159D01*
X13029038Y-6788604D01*
X13026488Y-6786511D01*
X13024396Y-6783962D01*
X13022841Y-6781052D01*
X13021884Y-6777896D01*
X13021500Y-6774000D01*
X13021500Y-6634000D01*
X13021884Y-6630104D01*
X13022841Y-6626947D01*
X13024396Y-6624038D01*
X13026488Y-6621488D01*
X13029038Y-6619396D01*
X13031947Y-6617841D01*
X13035104Y-6616884D01*
X13039000Y-6616500D01*
X13146500Y-6616500D01*
X13150396Y-6616884D01*
G37*
G36*
X12852896Y-6616884D02*
G01*
X12856052Y-6617841D01*
X12858962Y-6619396D01*
X12861511Y-6621488D01*
X12863604Y-6624038D01*
X12865159Y-6626947D01*
X12866116Y-6630104D01*
X12866500Y-6634000D01*
X12866500Y-6774000D01*
X12866116Y-6777896D01*
X12865159Y-6781052D01*
X12863604Y-6783962D01*
X12861511Y-6786511D01*
X12858962Y-6788604D01*
X12856052Y-6790159D01*
X12852896Y-6791116D01*
X12849000Y-6791500D01*
X12741500Y-6791500D01*
X12737604Y-6791116D01*
X12734447Y-6790159D01*
X12731538Y-6788604D01*
X12728988Y-6786511D01*
X12726896Y-6783962D01*
X12725341Y-6781052D01*
X12724384Y-6777896D01*
X12724000Y-6774000D01*
X12724000Y-6634000D01*
X12724384Y-6630104D01*
X12725341Y-6626947D01*
X12726896Y-6624038D01*
X12728988Y-6621488D01*
X12731538Y-6619396D01*
X12734447Y-6617841D01*
X12737604Y-6616884D01*
X12741500Y-6616500D01*
X12849000Y-6616500D01*
X12852896Y-6616884D01*
G37*
G36*
X12610000Y-6790000D02*
G01*
X12440000Y-6790000D01*
X12440000Y-6460000D01*
X12610000Y-6460000D01*
X12610000Y-6790000D01*
G37*
G36*
X11155552Y-6395404D02*
G01*
X11158906Y-6396421D01*
X11161996Y-6398073D01*
X11164704Y-6400296D01*
X11166927Y-6403004D01*
X11168579Y-6406094D01*
X11169596Y-6409448D01*
X11170000Y-6413549D01*
X11170000Y-6491451D01*
X11169596Y-6495552D01*
X11168579Y-6498906D01*
X11166927Y-6501996D01*
X11164704Y-6504704D01*
X11161996Y-6506927D01*
X11158906Y-6508579D01*
X11155552Y-6509596D01*
X11151451Y-6510000D01*
X11048549Y-6510000D01*
X11044448Y-6509596D01*
X11041094Y-6508579D01*
X11038004Y-6506927D01*
X11035296Y-6504704D01*
X11033073Y-6501996D01*
X11031421Y-6498906D01*
X11030404Y-6495552D01*
X11030000Y-6491451D01*
X11030000Y-6413549D01*
X11030404Y-6409448D01*
X11031421Y-6406094D01*
X11033073Y-6403004D01*
X11035296Y-6400296D01*
X11038004Y-6398073D01*
X11041094Y-6396421D01*
X11044448Y-6395404D01*
X11048549Y-6395000D01*
X11151451Y-6395000D01*
X11155552Y-6395404D01*
G37*
G36*
X13155552Y-6375404D02*
G01*
X13158906Y-6376421D01*
X13161996Y-6378073D01*
X13164704Y-6380296D01*
X13166927Y-6383004D01*
X13168579Y-6386094D01*
X13169596Y-6389448D01*
X13170000Y-6393549D01*
X13170000Y-6471451D01*
X13169596Y-6475552D01*
X13168579Y-6478906D01*
X13166927Y-6481996D01*
X13164704Y-6484704D01*
X13161996Y-6486927D01*
X13158906Y-6488579D01*
X13155552Y-6489596D01*
X13151451Y-6490000D01*
X13048549Y-6490000D01*
X13044448Y-6489596D01*
X13041094Y-6488579D01*
X13038004Y-6486927D01*
X13035296Y-6484704D01*
X13033073Y-6481996D01*
X13031421Y-6478906D01*
X13030404Y-6475552D01*
X13030000Y-6471451D01*
X13030000Y-6393549D01*
X13030404Y-6389448D01*
X13031421Y-6386094D01*
X13033073Y-6383004D01*
X13035296Y-6380296D01*
X13038004Y-6378073D01*
X13041094Y-6376421D01*
X13044448Y-6375404D01*
X13048549Y-6375000D01*
X13151451Y-6375000D01*
X13155552Y-6375404D01*
G37*
G36*
X12855552Y-6375404D02*
G01*
X12858906Y-6376421D01*
X12861996Y-6378073D01*
X12864704Y-6380296D01*
X12866927Y-6383004D01*
X12868579Y-6386094D01*
X12869596Y-6389448D01*
X12870000Y-6393549D01*
X12870000Y-6471451D01*
X12869596Y-6475552D01*
X12868579Y-6478906D01*
X12866927Y-6481996D01*
X12864704Y-6484704D01*
X12861996Y-6486927D01*
X12858906Y-6488579D01*
X12855552Y-6489596D01*
X12851451Y-6490000D01*
X12748549Y-6490000D01*
X12744448Y-6489596D01*
X12741094Y-6488579D01*
X12738004Y-6486927D01*
X12735296Y-6484704D01*
X12733073Y-6481996D01*
X12731421Y-6478906D01*
X12730404Y-6475552D01*
X12730000Y-6471451D01*
X12730000Y-6393549D01*
X12730404Y-6389448D01*
X12731421Y-6386094D01*
X12733073Y-6383004D01*
X12735296Y-6380296D01*
X12738004Y-6378073D01*
X12741094Y-6376421D01*
X12744448Y-6375404D01*
X12748549Y-6375000D01*
X12851451Y-6375000D01*
X12855552Y-6375404D01*
G37*
G36*
X10640552Y-6280404D02*
G01*
X10643906Y-6281421D01*
X10646996Y-6283073D01*
X10649704Y-6285296D01*
X10651927Y-6288004D01*
X10653579Y-6291094D01*
X10654596Y-6294448D01*
X10655000Y-6298549D01*
X10655000Y-6401451D01*
X10654596Y-6405552D01*
X10653579Y-6408906D01*
X10651927Y-6411996D01*
X10649704Y-6414704D01*
X10646996Y-6416927D01*
X10643906Y-6418579D01*
X10640552Y-6419596D01*
X10636451Y-6420000D01*
X10558549Y-6420000D01*
X10554448Y-6419596D01*
X10551094Y-6418579D01*
X10548004Y-6416927D01*
X10545296Y-6414704D01*
X10543073Y-6411996D01*
X10541421Y-6408906D01*
X10540404Y-6405552D01*
X10540000Y-6401451D01*
X10540000Y-6298549D01*
X10540404Y-6294448D01*
X10541421Y-6291094D01*
X10543073Y-6288004D01*
X10545296Y-6285296D01*
X10548004Y-6283073D01*
X10551094Y-6281421D01*
X10554448Y-6280404D01*
X10558549Y-6280000D01*
X10636451Y-6280000D01*
X10640552Y-6280404D01*
G37*
G36*
X10845552Y-6280404D02*
G01*
X10848906Y-6281421D01*
X10851996Y-6283073D01*
X10854704Y-6285296D01*
X10856927Y-6288004D01*
X10858579Y-6291094D01*
X10859596Y-6294448D01*
X10860000Y-6298549D01*
X10860000Y-6401451D01*
X10859596Y-6405552D01*
X10858579Y-6408906D01*
X10856927Y-6411996D01*
X10854704Y-6414704D01*
X10851996Y-6416927D01*
X10848906Y-6418579D01*
X10845552Y-6419596D01*
X10841451Y-6420000D01*
X10763549Y-6420000D01*
X10759448Y-6419596D01*
X10756094Y-6418579D01*
X10753004Y-6416927D01*
X10750296Y-6414704D01*
X10748073Y-6411996D01*
X10746421Y-6408906D01*
X10745404Y-6405552D01*
X10745000Y-6401451D01*
X10745000Y-6298549D01*
X10745404Y-6294448D01*
X10746421Y-6291094D01*
X10748073Y-6288004D01*
X10750296Y-6285296D01*
X10753004Y-6283073D01*
X10756094Y-6281421D01*
X10759448Y-6280404D01*
X10763549Y-6280000D01*
X10841451Y-6280000D01*
X10845552Y-6280404D01*
G37*
G36*
X12328700Y-6242888D02*
G01*
X12331903Y-6243860D01*
X12334853Y-6245437D01*
X12337440Y-6247560D01*
X12339563Y-6250147D01*
X12341140Y-6253097D01*
X12342112Y-6256300D01*
X12342500Y-6260244D01*
X12342500Y-6359756D01*
X12342112Y-6363700D01*
X12341140Y-6366903D01*
X12339563Y-6369853D01*
X12337440Y-6372440D01*
X12334853Y-6374563D01*
X12331903Y-6376140D01*
X12328700Y-6377112D01*
X12324756Y-6377500D01*
X12025244Y-6377500D01*
X12021300Y-6377112D01*
X12018097Y-6376140D01*
X12015147Y-6374563D01*
X12012560Y-6372440D01*
X12010437Y-6369853D01*
X12008860Y-6366903D01*
X12007888Y-6363700D01*
X12007500Y-6359756D01*
X12007500Y-6260244D01*
X12007888Y-6256300D01*
X12008860Y-6253097D01*
X12010437Y-6250147D01*
X12012560Y-6247560D01*
X12015147Y-6245437D01*
X12018097Y-6243860D01*
X12021300Y-6242888D01*
X12025244Y-6242500D01*
X12324756Y-6242500D01*
X12328700Y-6242888D01*
G37*
G36*
X11825000Y-6325000D02*
G01*
X11375000Y-6325000D01*
X11375000Y-6075000D01*
X11825000Y-6075000D01*
X11825000Y-6325000D01*
G37*
G36*
X11155552Y-6190404D02*
G01*
X11158906Y-6191421D01*
X11161996Y-6193073D01*
X11164704Y-6195296D01*
X11166927Y-6198004D01*
X11168579Y-6201094D01*
X11169596Y-6204448D01*
X11170000Y-6208549D01*
X11170000Y-6286451D01*
X11169596Y-6290552D01*
X11168579Y-6293906D01*
X11166927Y-6296996D01*
X11164704Y-6299704D01*
X11161996Y-6301927D01*
X11158906Y-6303579D01*
X11155552Y-6304596D01*
X11151451Y-6305000D01*
X11048549Y-6305000D01*
X11044448Y-6304596D01*
X11041094Y-6303579D01*
X11038004Y-6301927D01*
X11035296Y-6299704D01*
X11033073Y-6296996D01*
X11031421Y-6293906D01*
X11030404Y-6290552D01*
X11030000Y-6286451D01*
X11030000Y-6208549D01*
X11030404Y-6204448D01*
X11031421Y-6201094D01*
X11033073Y-6198004D01*
X11035296Y-6195296D01*
X11038004Y-6193073D01*
X11041094Y-6191421D01*
X11044448Y-6190404D01*
X11048549Y-6190000D01*
X11151451Y-6190000D01*
X11155552Y-6190404D01*
G37*
G36*
X13155552Y-6170404D02*
G01*
X13158906Y-6171421D01*
X13161996Y-6173073D01*
X13164704Y-6175296D01*
X13166927Y-6178004D01*
X13168579Y-6181094D01*
X13169596Y-6184448D01*
X13170000Y-6188549D01*
X13170000Y-6266451D01*
X13169596Y-6270552D01*
X13168579Y-6273906D01*
X13166927Y-6276996D01*
X13164704Y-6279704D01*
X13161996Y-6281927D01*
X13158906Y-6283579D01*
X13155552Y-6284596D01*
X13151451Y-6285000D01*
X13048549Y-6285000D01*
X13044448Y-6284596D01*
X13041094Y-6283579D01*
X13038004Y-6281927D01*
X13035296Y-6279704D01*
X13033073Y-6276996D01*
X13031421Y-6273906D01*
X13030404Y-6270552D01*
X13030000Y-6266451D01*
X13030000Y-6188549D01*
X13030404Y-6184448D01*
X13031421Y-6181094D01*
X13033073Y-6178004D01*
X13035296Y-6175296D01*
X13038004Y-6173073D01*
X13041094Y-6171421D01*
X13044448Y-6170404D01*
X13048549Y-6170000D01*
X13151451Y-6170000D01*
X13155552Y-6170404D01*
G37*
G36*
X12855552Y-6170404D02*
G01*
X12858906Y-6171421D01*
X12861996Y-6173073D01*
X12864704Y-6175296D01*
X12866927Y-6178004D01*
X12868579Y-6181094D01*
X12869596Y-6184448D01*
X12870000Y-6188549D01*
X12870000Y-6266451D01*
X12869596Y-6270552D01*
X12868579Y-6273906D01*
X12866927Y-6276996D01*
X12864704Y-6279704D01*
X12861996Y-6281927D01*
X12858906Y-6283579D01*
X12855552Y-6284596D01*
X12851451Y-6285000D01*
X12748549Y-6285000D01*
X12744448Y-6284596D01*
X12741094Y-6283579D01*
X12738004Y-6281927D01*
X12735296Y-6279704D01*
X12733073Y-6276996D01*
X12731421Y-6273906D01*
X12730404Y-6270552D01*
X12730000Y-6266451D01*
X12730000Y-6188549D01*
X12730404Y-6184448D01*
X12731421Y-6181094D01*
X12733073Y-6178004D01*
X12735296Y-6175296D01*
X12738004Y-6173073D01*
X12741094Y-6171421D01*
X12744448Y-6170404D01*
X12748549Y-6170000D01*
X12851451Y-6170000D01*
X12855552Y-6170404D01*
G37*
M02*
