G04 #@! TF.GenerationSoftware,KiCad,Pcbnew,5.1.4*
G04 #@! TF.CreationDate,2019-10-29T22:11:30-03:00*
G04 #@! TF.ProjectId,MCB19,4d434231-392e-46b6-9963-61645f706362,rev?*
G04 #@! TF.SameCoordinates,Original*
G04 #@! TF.FileFunction,Other,Fab,Top*
%FSLAX46Y46*%
G04 Gerber Fmt 4.6, Leading zero omitted, Abs format (unit mm)*
G04 Created by KiCad (PCBNEW 5.1.4) date 2019-10-29 22:11:30*
%MOMM*%
%LPD*%
G04 APERTURE LIST*
%ADD10C,0.100000*%
%ADD11C,0.150000*%
%ADD12C,0.120000*%
%ADD13C,0.080000*%
G04 APERTURE END LIST*
D10*
X123350000Y-81350000D02*
X123350000Y-87650000D01*
X120150000Y-81350000D02*
X123350000Y-81350000D01*
X120150000Y-87650000D02*
X120150000Y-81350000D01*
X123350000Y-87650000D02*
X120150000Y-87650000D01*
X123350000Y-62850000D02*
X123350000Y-69150000D01*
X120150000Y-62850000D02*
X123350000Y-62850000D01*
X120150000Y-69150000D02*
X120150000Y-62850000D01*
X123350000Y-69150000D02*
X120150000Y-69150000D01*
X120750000Y-74600000D02*
X120750000Y-71400000D01*
X123250000Y-74600000D02*
X120750000Y-74600000D01*
X123250000Y-71400000D02*
X123250000Y-74600000D01*
X120750000Y-71400000D02*
X123250000Y-71400000D01*
X120750000Y-93100000D02*
X120750000Y-89900000D01*
X123250000Y-93100000D02*
X120750000Y-93100000D01*
X123250000Y-89900000D02*
X123250000Y-93100000D01*
X120750000Y-89900000D02*
X123250000Y-89900000D01*
X68637500Y-116241489D02*
X69887500Y-116241489D01*
X69262500Y-116866489D02*
X69262500Y-115616489D01*
X78250000Y-111500000D02*
G75*
G03X78250000Y-111500000I-6250000J0D01*
G01*
X105000000Y-88750000D02*
X105000000Y-89150000D01*
X105000000Y-89150000D02*
X105550000Y-89150000D01*
X105000000Y-89150000D02*
X104450000Y-89150000D01*
X105000000Y-89150000D02*
X105400000Y-89750000D01*
X105400000Y-89750000D02*
X104600000Y-89750000D01*
X104600000Y-89750000D02*
X105000000Y-89150000D01*
X105000000Y-89750000D02*
X105000000Y-90250000D01*
X105800000Y-87850000D02*
X105800000Y-91150000D01*
X104200000Y-87850000D02*
X105800000Y-87850000D01*
X104200000Y-91150000D02*
X104200000Y-87850000D01*
X105800000Y-91150000D02*
X104200000Y-91150000D01*
X96137500Y-116241489D02*
X97387500Y-116241489D01*
X96762500Y-116866489D02*
X96762500Y-115616489D01*
X105750000Y-111500000D02*
G75*
G03X105750000Y-111500000I-6250000J0D01*
G01*
X109887500Y-116241489D02*
X111137500Y-116241489D01*
X110512500Y-116866489D02*
X110512500Y-115616489D01*
X119500000Y-111500000D02*
G75*
G03X119500000Y-111500000I-6250000J0D01*
G01*
X98860000Y-88550000D02*
X99835000Y-89525000D01*
X94935000Y-88550000D02*
X98860000Y-88550000D01*
X94935000Y-92450000D02*
X94935000Y-88550000D01*
X99835000Y-92450000D02*
X94935000Y-92450000D01*
X99835000Y-89525000D02*
X99835000Y-92450000D01*
X111600000Y-62500000D02*
X111600000Y-64500000D01*
X110400000Y-62500000D02*
X111600000Y-62500000D01*
X110400000Y-64500000D02*
X110400000Y-62500000D01*
X111600000Y-64500000D02*
X110400000Y-64500000D01*
X111600000Y-81000000D02*
X111600000Y-83000000D01*
X110400000Y-81000000D02*
X111600000Y-81000000D01*
X110400000Y-83000000D02*
X110400000Y-81000000D01*
X111600000Y-83000000D02*
X110400000Y-83000000D01*
X106000000Y-62900000D02*
X108000000Y-62900000D01*
X106000000Y-64100000D02*
X106000000Y-62900000D01*
X108000000Y-64100000D02*
X106000000Y-64100000D01*
X108000000Y-62900000D02*
X108000000Y-64100000D01*
X106000000Y-81400000D02*
X108000000Y-81400000D01*
X106000000Y-82600000D02*
X106000000Y-81400000D01*
X108000000Y-82600000D02*
X106000000Y-82600000D01*
X108000000Y-81400000D02*
X108000000Y-82600000D01*
X92975000Y-95900000D02*
X94975000Y-95900000D01*
X92975000Y-97100000D02*
X92975000Y-95900000D01*
X94975000Y-97100000D02*
X92975000Y-97100000D01*
X94975000Y-95900000D02*
X94975000Y-97100000D01*
X111000000Y-71750000D02*
X111000000Y-71350000D01*
X111000000Y-71350000D02*
X110450000Y-71350000D01*
X111000000Y-71350000D02*
X111550000Y-71350000D01*
X111000000Y-71350000D02*
X110600000Y-70750000D01*
X110600000Y-70750000D02*
X111400000Y-70750000D01*
X111400000Y-70750000D02*
X111000000Y-71350000D01*
X111000000Y-70750000D02*
X111000000Y-70250000D01*
X110200000Y-72650000D02*
X110200000Y-69350000D01*
X111800000Y-72650000D02*
X110200000Y-72650000D01*
X111800000Y-69350000D02*
X111800000Y-72650000D01*
X110200000Y-69350000D02*
X111800000Y-69350000D01*
X108000000Y-71750000D02*
X108000000Y-71350000D01*
X108000000Y-71350000D02*
X107450000Y-71350000D01*
X108000000Y-71350000D02*
X108550000Y-71350000D01*
X108000000Y-71350000D02*
X107600000Y-70750000D01*
X107600000Y-70750000D02*
X108400000Y-70750000D01*
X108400000Y-70750000D02*
X108000000Y-71350000D01*
X108000000Y-70750000D02*
X108000000Y-70250000D01*
X107200000Y-72650000D02*
X107200000Y-69350000D01*
X108800000Y-72650000D02*
X107200000Y-72650000D01*
X108800000Y-69350000D02*
X108800000Y-72650000D01*
X107200000Y-69350000D02*
X108800000Y-69350000D01*
X110200000Y-87850000D02*
X111800000Y-87850000D01*
X111800000Y-87850000D02*
X111800000Y-91150000D01*
X111800000Y-91150000D02*
X110200000Y-91150000D01*
X110200000Y-91150000D02*
X110200000Y-87850000D01*
X111000000Y-89250000D02*
X111000000Y-88750000D01*
X111400000Y-89250000D02*
X111000000Y-89850000D01*
X110600000Y-89250000D02*
X111400000Y-89250000D01*
X111000000Y-89850000D02*
X110600000Y-89250000D01*
X111000000Y-89850000D02*
X111550000Y-89850000D01*
X111000000Y-89850000D02*
X110450000Y-89850000D01*
X111000000Y-90250000D02*
X111000000Y-89850000D01*
X108000000Y-90250000D02*
X108000000Y-89850000D01*
X108000000Y-89850000D02*
X107450000Y-89850000D01*
X108000000Y-89850000D02*
X108550000Y-89850000D01*
X108000000Y-89850000D02*
X107600000Y-89250000D01*
X107600000Y-89250000D02*
X108400000Y-89250000D01*
X108400000Y-89250000D02*
X108000000Y-89850000D01*
X108000000Y-89250000D02*
X108000000Y-88750000D01*
X107200000Y-91150000D02*
X107200000Y-87850000D01*
X108800000Y-91150000D02*
X107200000Y-91150000D01*
X108800000Y-87850000D02*
X108800000Y-91150000D01*
X107200000Y-87850000D02*
X108800000Y-87850000D01*
X124450000Y-85850000D02*
X126050000Y-85850000D01*
X126050000Y-85850000D02*
X126050000Y-89150000D01*
X126050000Y-89150000D02*
X124450000Y-89150000D01*
X124450000Y-89150000D02*
X124450000Y-85850000D01*
X125250000Y-87250000D02*
X125250000Y-86750000D01*
X125650000Y-87250000D02*
X125250000Y-87850000D01*
X124850000Y-87250000D02*
X125650000Y-87250000D01*
X125250000Y-87850000D02*
X124850000Y-87250000D01*
X125250000Y-87850000D02*
X125800000Y-87850000D01*
X125250000Y-87850000D02*
X124700000Y-87850000D01*
X125250000Y-88250000D02*
X125250000Y-87850000D01*
X125250000Y-69750000D02*
X125250000Y-69350000D01*
X125250000Y-69350000D02*
X124700000Y-69350000D01*
X125250000Y-69350000D02*
X125800000Y-69350000D01*
X125250000Y-69350000D02*
X124850000Y-68750000D01*
X124850000Y-68750000D02*
X125650000Y-68750000D01*
X125650000Y-68750000D02*
X125250000Y-69350000D01*
X125250000Y-68750000D02*
X125250000Y-68250000D01*
X124450000Y-70650000D02*
X124450000Y-67350000D01*
X126050000Y-70650000D02*
X124450000Y-70650000D01*
X126050000Y-67350000D02*
X126050000Y-70650000D01*
X124450000Y-67350000D02*
X126050000Y-67350000D01*
X105000000Y-70250000D02*
X105000000Y-70650000D01*
X105000000Y-70650000D02*
X105550000Y-70650000D01*
X105000000Y-70650000D02*
X104450000Y-70650000D01*
X105000000Y-70650000D02*
X105400000Y-71250000D01*
X105400000Y-71250000D02*
X104600000Y-71250000D01*
X104600000Y-71250000D02*
X105000000Y-70650000D01*
X105000000Y-71250000D02*
X105000000Y-71750000D01*
X105800000Y-69350000D02*
X105800000Y-72650000D01*
X104200000Y-69350000D02*
X105800000Y-69350000D01*
X104200000Y-72650000D02*
X104200000Y-69350000D01*
X105800000Y-72650000D02*
X104200000Y-72650000D01*
X86000000Y-93750000D02*
X86000000Y-94150000D01*
X86000000Y-94150000D02*
X86550000Y-94150000D01*
X86000000Y-94150000D02*
X85450000Y-94150000D01*
X86000000Y-94150000D02*
X86400000Y-94750000D01*
X86400000Y-94750000D02*
X85600000Y-94750000D01*
X85600000Y-94750000D02*
X86000000Y-94150000D01*
X86000000Y-94750000D02*
X86000000Y-95250000D01*
X86800000Y-92850000D02*
X86800000Y-96150000D01*
X85200000Y-92850000D02*
X86800000Y-92850000D01*
X85200000Y-96150000D02*
X85200000Y-92850000D01*
X86800000Y-96150000D02*
X85200000Y-96150000D01*
X92400000Y-94000000D02*
X92400000Y-92000000D01*
X93600000Y-94000000D02*
X92400000Y-94000000D01*
X93600000Y-92000000D02*
X93600000Y-94000000D01*
X92400000Y-92000000D02*
X93600000Y-92000000D01*
X87900000Y-98500000D02*
X91100000Y-98500000D01*
X87900000Y-92500000D02*
X87900000Y-98500000D01*
X90300000Y-92500000D02*
X87900000Y-92500000D01*
X91100000Y-93300000D02*
X90300000Y-92500000D01*
X91100000Y-98500000D02*
X91100000Y-93300000D01*
X82637500Y-116241489D02*
X83887500Y-116241489D01*
X83262500Y-116866489D02*
X83262500Y-115616489D01*
X92250000Y-111500000D02*
G75*
G03X92250000Y-111500000I-6250000J0D01*
G01*
X92437500Y-57684859D02*
X88937500Y-57684859D01*
X90687500Y-55934859D02*
X90687500Y-59434859D01*
X100500000Y-71000000D02*
G75*
G03X100500000Y-71000000I-17500000J0D01*
G01*
X93600000Y-87500000D02*
X93600000Y-89500000D01*
X92400000Y-87500000D02*
X93600000Y-87500000D01*
X92400000Y-89500000D02*
X92400000Y-87500000D01*
X93600000Y-89500000D02*
X92400000Y-89500000D01*
X194730000Y-86480000D02*
X196635000Y-86480000D01*
X196635000Y-86480000D02*
X197270000Y-87115000D01*
X197270000Y-87115000D02*
X197270000Y-91560000D01*
X197270000Y-91560000D02*
X194730000Y-91560000D01*
X194730000Y-91560000D02*
X194730000Y-86480000D01*
X185015000Y-122220000D02*
X179665000Y-122220000D01*
X179665000Y-122220000D02*
X179665000Y-86660000D01*
X179665000Y-86660000D02*
X186015000Y-86660000D01*
X186015000Y-86660000D02*
X186015000Y-121220000D01*
X186015000Y-121220000D02*
X185015000Y-122220000D01*
X187920000Y-122280000D02*
X187920000Y-86600000D01*
X187920000Y-86600000D02*
X177760000Y-86600000D01*
X177760000Y-86600000D02*
X177760000Y-122280000D01*
X177760000Y-122280000D02*
X187920000Y-122280000D01*
X195365000Y-111190000D02*
X197270000Y-111190000D01*
X197270000Y-111190000D02*
X197270000Y-121350000D01*
X197270000Y-121350000D02*
X194730000Y-121350000D01*
X194730000Y-121350000D02*
X194730000Y-111825000D01*
X194730000Y-111825000D02*
X195365000Y-111190000D01*
X201409000Y-107401000D02*
X201409000Y-101151000D01*
X206059000Y-107401000D02*
X206059000Y-101151000D01*
X201734000Y-107276000D02*
X201734000Y-101276000D01*
X205734000Y-107276000D02*
X205734000Y-101276000D01*
X206059000Y-107401000D02*
G75*
G02X201409000Y-107401000I-2325000J0D01*
G01*
X206059000Y-101151000D02*
G75*
G03X201409000Y-101151000I-2325000J0D01*
G01*
X205734000Y-107276000D02*
G75*
G02X201734000Y-107276000I-2000000J0D01*
G01*
X205734000Y-101276000D02*
G75*
G03X201734000Y-101276000I-2000000J0D01*
G01*
X195421000Y-94899000D02*
X195421000Y-101149000D01*
X190771000Y-94899000D02*
X190771000Y-101149000D01*
X195096000Y-95024000D02*
X195096000Y-101024000D01*
X191096000Y-95024000D02*
X191096000Y-101024000D01*
X190771000Y-94899000D02*
G75*
G02X195421000Y-94899000I2325000J0D01*
G01*
X190771000Y-101149000D02*
G75*
G03X195421000Y-101149000I2325000J0D01*
G01*
X191096000Y-95024000D02*
G75*
G02X195096000Y-95024000I2000000J0D01*
G01*
X191096000Y-101024000D02*
G75*
G03X195096000Y-101024000I2000000J0D01*
G01*
D11*
X124822380Y-84714285D02*
X124822380Y-85285714D01*
X124822380Y-85000000D02*
X123822380Y-85000000D01*
X123965238Y-85095238D01*
X124060476Y-85190476D01*
X124108095Y-85285714D01*
X124822380Y-83714285D02*
X124346190Y-84047619D01*
X124822380Y-84285714D02*
X123822380Y-84285714D01*
X123822380Y-83904761D01*
X123870000Y-83809523D01*
X123917619Y-83761904D01*
X124012857Y-83714285D01*
X124155714Y-83714285D01*
X124250952Y-83761904D01*
X124298571Y-83809523D01*
X124346190Y-83904761D01*
X124346190Y-84285714D01*
X122202380Y-85619047D02*
X121726190Y-85952380D01*
X122202380Y-86190476D02*
X121202380Y-86190476D01*
X121202380Y-85809523D01*
X121250000Y-85714285D01*
X121297619Y-85666666D01*
X121392857Y-85619047D01*
X121535714Y-85619047D01*
X121630952Y-85666666D01*
X121678571Y-85714285D01*
X121726190Y-85809523D01*
X121726190Y-86190476D01*
X121202380Y-84761904D02*
X121202380Y-84952380D01*
X121250000Y-85047619D01*
X121297619Y-85095238D01*
X121440476Y-85190476D01*
X121630952Y-85238095D01*
X122011904Y-85238095D01*
X122107142Y-85190476D01*
X122154761Y-85142857D01*
X122202380Y-85047619D01*
X122202380Y-84857142D01*
X122154761Y-84761904D01*
X122107142Y-84714285D01*
X122011904Y-84666666D01*
X121773809Y-84666666D01*
X121678571Y-84714285D01*
X121630952Y-84761904D01*
X121583333Y-84857142D01*
X121583333Y-85047619D01*
X121630952Y-85142857D01*
X121678571Y-85190476D01*
X121773809Y-85238095D01*
X121202380Y-84047619D02*
X121202380Y-83952380D01*
X121250000Y-83857142D01*
X121297619Y-83809523D01*
X121392857Y-83761904D01*
X121583333Y-83714285D01*
X121821428Y-83714285D01*
X122011904Y-83761904D01*
X122107142Y-83809523D01*
X122154761Y-83857142D01*
X122202380Y-83952380D01*
X122202380Y-84047619D01*
X122154761Y-84142857D01*
X122107142Y-84190476D01*
X122011904Y-84238095D01*
X121821428Y-84285714D01*
X121583333Y-84285714D01*
X121392857Y-84238095D01*
X121297619Y-84190476D01*
X121250000Y-84142857D01*
X121202380Y-84047619D01*
X121630952Y-83142857D02*
X121583333Y-83238095D01*
X121535714Y-83285714D01*
X121440476Y-83333333D01*
X121392857Y-83333333D01*
X121297619Y-83285714D01*
X121250000Y-83238095D01*
X121202380Y-83142857D01*
X121202380Y-82952380D01*
X121250000Y-82857142D01*
X121297619Y-82809523D01*
X121392857Y-82761904D01*
X121440476Y-82761904D01*
X121535714Y-82809523D01*
X121583333Y-82857142D01*
X121630952Y-82952380D01*
X121630952Y-83142857D01*
X121678571Y-83238095D01*
X121726190Y-83285714D01*
X121821428Y-83333333D01*
X122011904Y-83333333D01*
X122107142Y-83285714D01*
X122154761Y-83238095D01*
X122202380Y-83142857D01*
X122202380Y-82952380D01*
X122154761Y-82857142D01*
X122107142Y-82809523D01*
X122011904Y-82761904D01*
X121821428Y-82761904D01*
X121726190Y-82809523D01*
X121678571Y-82857142D01*
X121630952Y-82952380D01*
X124822380Y-66214285D02*
X124822380Y-66785714D01*
X124822380Y-66500000D02*
X123822380Y-66500000D01*
X123965238Y-66595238D01*
X124060476Y-66690476D01*
X124108095Y-66785714D01*
X124822380Y-65214285D02*
X124346190Y-65547619D01*
X124822380Y-65785714D02*
X123822380Y-65785714D01*
X123822380Y-65404761D01*
X123870000Y-65309523D01*
X123917619Y-65261904D01*
X124012857Y-65214285D01*
X124155714Y-65214285D01*
X124250952Y-65261904D01*
X124298571Y-65309523D01*
X124346190Y-65404761D01*
X124346190Y-65785714D01*
X122202380Y-67119047D02*
X121726190Y-67452380D01*
X122202380Y-67690476D02*
X121202380Y-67690476D01*
X121202380Y-67309523D01*
X121250000Y-67214285D01*
X121297619Y-67166666D01*
X121392857Y-67119047D01*
X121535714Y-67119047D01*
X121630952Y-67166666D01*
X121678571Y-67214285D01*
X121726190Y-67309523D01*
X121726190Y-67690476D01*
X121202380Y-66261904D02*
X121202380Y-66452380D01*
X121250000Y-66547619D01*
X121297619Y-66595238D01*
X121440476Y-66690476D01*
X121630952Y-66738095D01*
X122011904Y-66738095D01*
X122107142Y-66690476D01*
X122154761Y-66642857D01*
X122202380Y-66547619D01*
X122202380Y-66357142D01*
X122154761Y-66261904D01*
X122107142Y-66214285D01*
X122011904Y-66166666D01*
X121773809Y-66166666D01*
X121678571Y-66214285D01*
X121630952Y-66261904D01*
X121583333Y-66357142D01*
X121583333Y-66547619D01*
X121630952Y-66642857D01*
X121678571Y-66690476D01*
X121773809Y-66738095D01*
X121202380Y-65547619D02*
X121202380Y-65452380D01*
X121250000Y-65357142D01*
X121297619Y-65309523D01*
X121392857Y-65261904D01*
X121583333Y-65214285D01*
X121821428Y-65214285D01*
X122011904Y-65261904D01*
X122107142Y-65309523D01*
X122154761Y-65357142D01*
X122202380Y-65452380D01*
X122202380Y-65547619D01*
X122154761Y-65642857D01*
X122107142Y-65690476D01*
X122011904Y-65738095D01*
X121821428Y-65785714D01*
X121583333Y-65785714D01*
X121392857Y-65738095D01*
X121297619Y-65690476D01*
X121250000Y-65642857D01*
X121202380Y-65547619D01*
X121202380Y-64880952D02*
X121202380Y-64214285D01*
X122202380Y-64642857D01*
X123642380Y-131761904D02*
X123642380Y-131142857D01*
X124023333Y-131476190D01*
X124023333Y-131333333D01*
X124070952Y-131238095D01*
X124118571Y-131190476D01*
X124213809Y-131142857D01*
X124451904Y-131142857D01*
X124547142Y-131190476D01*
X124594761Y-131238095D01*
X124642380Y-131333333D01*
X124642380Y-131619047D01*
X124594761Y-131714285D01*
X124547142Y-131761904D01*
X123642380Y-130523809D02*
X123642380Y-130428571D01*
X123690000Y-130333333D01*
X123737619Y-130285714D01*
X123832857Y-130238095D01*
X124023333Y-130190476D01*
X124261428Y-130190476D01*
X124451904Y-130238095D01*
X124547142Y-130285714D01*
X124594761Y-130333333D01*
X124642380Y-130428571D01*
X124642380Y-130523809D01*
X124594761Y-130619047D01*
X124547142Y-130666666D01*
X124451904Y-130714285D01*
X124261428Y-130761904D01*
X124023333Y-130761904D01*
X123832857Y-130714285D01*
X123737619Y-130666666D01*
X123690000Y-130619047D01*
X123642380Y-130523809D01*
X123642380Y-129571428D02*
X123642380Y-129476190D01*
X123690000Y-129380952D01*
X123737619Y-129333333D01*
X123832857Y-129285714D01*
X124023333Y-129238095D01*
X124261428Y-129238095D01*
X124451904Y-129285714D01*
X124547142Y-129333333D01*
X124594761Y-129380952D01*
X124642380Y-129476190D01*
X124642380Y-129571428D01*
X124594761Y-129666666D01*
X124547142Y-129714285D01*
X124451904Y-129761904D01*
X124261428Y-129809523D01*
X124023333Y-129809523D01*
X123832857Y-129761904D01*
X123737619Y-129714285D01*
X123690000Y-129666666D01*
X123642380Y-129571428D01*
X123975714Y-128380952D02*
X124642380Y-128380952D01*
X123975714Y-128809523D02*
X124499523Y-128809523D01*
X124594761Y-128761904D01*
X124642380Y-128666666D01*
X124642380Y-128523809D01*
X124594761Y-128428571D01*
X124547142Y-128380952D01*
X124642380Y-127904761D02*
X123642380Y-127904761D01*
X124118571Y-127904761D02*
X124118571Y-127333333D01*
X124642380Y-127333333D02*
X123642380Y-127333333D01*
X119505714Y-74166666D02*
X120172380Y-74166666D01*
X119124761Y-74404761D02*
X119839047Y-74642857D01*
X119839047Y-74023809D01*
X119172380Y-73738095D02*
X119172380Y-73071428D01*
X120172380Y-73500000D01*
X119505714Y-72690476D02*
X120172380Y-72690476D01*
X119600952Y-72690476D02*
X119553333Y-72642857D01*
X119505714Y-72547619D01*
X119505714Y-72404761D01*
X119553333Y-72309523D01*
X119648571Y-72261904D01*
X120172380Y-72261904D01*
X119648571Y-71452380D02*
X119648571Y-71785714D01*
X120172380Y-71785714D02*
X119172380Y-71785714D01*
X119172380Y-71309523D01*
D12*
X122285714Y-73895238D02*
X122323809Y-73933333D01*
X122361904Y-74047619D01*
X122361904Y-74123809D01*
X122323809Y-74238095D01*
X122247619Y-74314285D01*
X122171428Y-74352380D01*
X122019047Y-74390476D01*
X121904761Y-74390476D01*
X121752380Y-74352380D01*
X121676190Y-74314285D01*
X121600000Y-74238095D01*
X121561904Y-74123809D01*
X121561904Y-74047619D01*
X121600000Y-73933333D01*
X121638095Y-73895238D01*
X121561904Y-73209523D02*
X121561904Y-73361904D01*
X121600000Y-73438095D01*
X121638095Y-73476190D01*
X121752380Y-73552380D01*
X121904761Y-73590476D01*
X122209523Y-73590476D01*
X122285714Y-73552380D01*
X122323809Y-73514285D01*
X122361904Y-73438095D01*
X122361904Y-73285714D01*
X122323809Y-73209523D01*
X122285714Y-73171428D01*
X122209523Y-73133333D01*
X122019047Y-73133333D01*
X121942857Y-73171428D01*
X121904761Y-73209523D01*
X121866666Y-73285714D01*
X121866666Y-73438095D01*
X121904761Y-73514285D01*
X121942857Y-73552380D01*
X122019047Y-73590476D01*
X121561904Y-72638095D02*
X121561904Y-72561904D01*
X121600000Y-72485714D01*
X121638095Y-72447619D01*
X121714285Y-72409523D01*
X121866666Y-72371428D01*
X122057142Y-72371428D01*
X122209523Y-72409523D01*
X122285714Y-72447619D01*
X122323809Y-72485714D01*
X122361904Y-72561904D01*
X122361904Y-72638095D01*
X122323809Y-72714285D01*
X122285714Y-72752380D01*
X122209523Y-72790476D01*
X122057142Y-72828571D01*
X121866666Y-72828571D01*
X121714285Y-72790476D01*
X121638095Y-72752380D01*
X121600000Y-72714285D01*
X121561904Y-72638095D01*
X121561904Y-71685714D02*
X121561904Y-71838095D01*
X121600000Y-71914285D01*
X121638095Y-71952380D01*
X121752380Y-72028571D01*
X121904761Y-72066666D01*
X122209523Y-72066666D01*
X122285714Y-72028571D01*
X122323809Y-71990476D01*
X122361904Y-71914285D01*
X122361904Y-71761904D01*
X122323809Y-71685714D01*
X122285714Y-71647619D01*
X122209523Y-71609523D01*
X122019047Y-71609523D01*
X121942857Y-71647619D01*
X121904761Y-71685714D01*
X121866666Y-71761904D01*
X121866666Y-71914285D01*
X121904761Y-71990476D01*
X121942857Y-72028571D01*
X122019047Y-72066666D01*
D11*
X119505714Y-92666666D02*
X120172380Y-92666666D01*
X119124761Y-92904761D02*
X119839047Y-93142857D01*
X119839047Y-92523809D01*
X119172380Y-92238095D02*
X119172380Y-91571428D01*
X120172380Y-92000000D01*
X119505714Y-91190476D02*
X120172380Y-91190476D01*
X119600952Y-91190476D02*
X119553333Y-91142857D01*
X119505714Y-91047619D01*
X119505714Y-90904761D01*
X119553333Y-90809523D01*
X119648571Y-90761904D01*
X120172380Y-90761904D01*
X119648571Y-89952380D02*
X119648571Y-90285714D01*
X120172380Y-90285714D02*
X119172380Y-90285714D01*
X119172380Y-89809523D01*
D12*
X122285714Y-92395238D02*
X122323809Y-92433333D01*
X122361904Y-92547619D01*
X122361904Y-92623809D01*
X122323809Y-92738095D01*
X122247619Y-92814285D01*
X122171428Y-92852380D01*
X122019047Y-92890476D01*
X121904761Y-92890476D01*
X121752380Y-92852380D01*
X121676190Y-92814285D01*
X121600000Y-92738095D01*
X121561904Y-92623809D01*
X121561904Y-92547619D01*
X121600000Y-92433333D01*
X121638095Y-92395238D01*
X121561904Y-91709523D02*
X121561904Y-91861904D01*
X121600000Y-91938095D01*
X121638095Y-91976190D01*
X121752380Y-92052380D01*
X121904761Y-92090476D01*
X122209523Y-92090476D01*
X122285714Y-92052380D01*
X122323809Y-92014285D01*
X122361904Y-91938095D01*
X122361904Y-91785714D01*
X122323809Y-91709523D01*
X122285714Y-91671428D01*
X122209523Y-91633333D01*
X122019047Y-91633333D01*
X121942857Y-91671428D01*
X121904761Y-91709523D01*
X121866666Y-91785714D01*
X121866666Y-91938095D01*
X121904761Y-92014285D01*
X121942857Y-92052380D01*
X122019047Y-92090476D01*
X121561904Y-91138095D02*
X121561904Y-91061904D01*
X121600000Y-90985714D01*
X121638095Y-90947619D01*
X121714285Y-90909523D01*
X121866666Y-90871428D01*
X122057142Y-90871428D01*
X122209523Y-90909523D01*
X122285714Y-90947619D01*
X122323809Y-90985714D01*
X122361904Y-91061904D01*
X122361904Y-91138095D01*
X122323809Y-91214285D01*
X122285714Y-91252380D01*
X122209523Y-91290476D01*
X122057142Y-91328571D01*
X121866666Y-91328571D01*
X121714285Y-91290476D01*
X121638095Y-91252380D01*
X121600000Y-91214285D01*
X121561904Y-91138095D01*
X121561904Y-90604761D02*
X121561904Y-90071428D01*
X122361904Y-90414285D01*
D11*
X79285714Y-112666666D02*
X79952380Y-112666666D01*
X78904761Y-112904761D02*
X79619047Y-113142857D01*
X79619047Y-112523809D01*
X78952380Y-112238095D02*
X78952380Y-111571428D01*
X79952380Y-112000000D01*
X79285714Y-110761904D02*
X79952380Y-110761904D01*
X79285714Y-111190476D02*
X79809523Y-111190476D01*
X79904761Y-111142857D01*
X79952380Y-111047619D01*
X79952380Y-110904761D01*
X79904761Y-110809523D01*
X79857142Y-110761904D01*
X79428571Y-109952380D02*
X79428571Y-110285714D01*
X79952380Y-110285714D02*
X78952380Y-110285714D01*
X78952380Y-109809523D01*
X72357142Y-112619047D02*
X72404761Y-112666666D01*
X72452380Y-112809523D01*
X72452380Y-112904761D01*
X72404761Y-113047619D01*
X72309523Y-113142857D01*
X72214285Y-113190476D01*
X72023809Y-113238095D01*
X71880952Y-113238095D01*
X71690476Y-113190476D01*
X71595238Y-113142857D01*
X71500000Y-113047619D01*
X71452380Y-112904761D01*
X71452380Y-112809523D01*
X71500000Y-112666666D01*
X71547619Y-112619047D01*
X71452380Y-111761904D02*
X71452380Y-111952380D01*
X71500000Y-112047619D01*
X71547619Y-112095238D01*
X71690476Y-112190476D01*
X71880952Y-112238095D01*
X72261904Y-112238095D01*
X72357142Y-112190476D01*
X72404761Y-112142857D01*
X72452380Y-112047619D01*
X72452380Y-111857142D01*
X72404761Y-111761904D01*
X72357142Y-111714285D01*
X72261904Y-111666666D01*
X72023809Y-111666666D01*
X71928571Y-111714285D01*
X71880952Y-111761904D01*
X71833333Y-111857142D01*
X71833333Y-112047619D01*
X71880952Y-112142857D01*
X71928571Y-112190476D01*
X72023809Y-112238095D01*
X71452380Y-111047619D02*
X71452380Y-110952380D01*
X71500000Y-110857142D01*
X71547619Y-110809523D01*
X71642857Y-110761904D01*
X71833333Y-110714285D01*
X72071428Y-110714285D01*
X72261904Y-110761904D01*
X72357142Y-110809523D01*
X72404761Y-110857142D01*
X72452380Y-110952380D01*
X72452380Y-111047619D01*
X72404761Y-111142857D01*
X72357142Y-111190476D01*
X72261904Y-111238095D01*
X72071428Y-111285714D01*
X71833333Y-111285714D01*
X71642857Y-111238095D01*
X71547619Y-111190476D01*
X71500000Y-111142857D01*
X71452380Y-111047619D01*
X71880952Y-110142857D02*
X71833333Y-110238095D01*
X71785714Y-110285714D01*
X71690476Y-110333333D01*
X71642857Y-110333333D01*
X71547619Y-110285714D01*
X71500000Y-110238095D01*
X71452380Y-110142857D01*
X71452380Y-109952380D01*
X71500000Y-109857142D01*
X71547619Y-109809523D01*
X71642857Y-109761904D01*
X71690476Y-109761904D01*
X71785714Y-109809523D01*
X71833333Y-109857142D01*
X71880952Y-109952380D01*
X71880952Y-110142857D01*
X71928571Y-110238095D01*
X71976190Y-110285714D01*
X72071428Y-110333333D01*
X72261904Y-110333333D01*
X72357142Y-110285714D01*
X72404761Y-110238095D01*
X72452380Y-110142857D01*
X72452380Y-109952380D01*
X72404761Y-109857142D01*
X72357142Y-109809523D01*
X72261904Y-109761904D01*
X72071428Y-109761904D01*
X71976190Y-109809523D01*
X71928571Y-109857142D01*
X71880952Y-109952380D01*
X50771428Y-123000000D02*
X50771428Y-122238095D01*
X51152380Y-122619047D02*
X50390476Y-122619047D01*
X50628571Y-121428571D02*
X50676190Y-121285714D01*
X50723809Y-121238095D01*
X50819047Y-121190476D01*
X50961904Y-121190476D01*
X51057142Y-121238095D01*
X51104761Y-121285714D01*
X51152380Y-121380952D01*
X51152380Y-121761904D01*
X50152380Y-121761904D01*
X50152380Y-121428571D01*
X50200000Y-121333333D01*
X50247619Y-121285714D01*
X50342857Y-121238095D01*
X50438095Y-121238095D01*
X50533333Y-121285714D01*
X50580952Y-121333333D01*
X50628571Y-121428571D01*
X50628571Y-121761904D01*
X50866666Y-120809523D02*
X50866666Y-120333333D01*
X51152380Y-120904761D02*
X50152380Y-120571428D01*
X51152380Y-120238095D01*
X50152380Y-120047619D02*
X50152380Y-119476190D01*
X51152380Y-119761904D02*
X50152380Y-119761904D01*
X51247619Y-119380952D02*
X51247619Y-118619047D01*
X50152380Y-118190476D02*
X50152380Y-118000000D01*
X50200000Y-117904761D01*
X50295238Y-117809523D01*
X50485714Y-117761904D01*
X50819047Y-117761904D01*
X51009523Y-117809523D01*
X51104761Y-117904761D01*
X51152380Y-118000000D01*
X51152380Y-118190476D01*
X51104761Y-118285714D01*
X51009523Y-118380952D01*
X50819047Y-118428571D01*
X50485714Y-118428571D01*
X50295238Y-118380952D01*
X50200000Y-118285714D01*
X50152380Y-118190476D01*
X50152380Y-117333333D02*
X50961904Y-117333333D01*
X51057142Y-117285714D01*
X51104761Y-117238095D01*
X51152380Y-117142857D01*
X51152380Y-116952380D01*
X51104761Y-116857142D01*
X51057142Y-116809523D01*
X50961904Y-116761904D01*
X50152380Y-116761904D01*
X50152380Y-116428571D02*
X50152380Y-115857142D01*
X51152380Y-116142857D02*
X50152380Y-116142857D01*
X56452380Y-121085714D02*
X57166666Y-121085714D01*
X57309523Y-121133333D01*
X57404761Y-121228571D01*
X57452380Y-121371428D01*
X57452380Y-121466666D01*
X56452380Y-120180952D02*
X56452380Y-120371428D01*
X56500000Y-120466666D01*
X56547619Y-120514285D01*
X56690476Y-120609523D01*
X56880952Y-120657142D01*
X57261904Y-120657142D01*
X57357142Y-120609523D01*
X57404761Y-120561904D01*
X57452380Y-120466666D01*
X57452380Y-120276190D01*
X57404761Y-120180952D01*
X57357142Y-120133333D01*
X57261904Y-120085714D01*
X57023809Y-120085714D01*
X56928571Y-120133333D01*
X56880952Y-120180952D01*
X56833333Y-120276190D01*
X56833333Y-120466666D01*
X56880952Y-120561904D01*
X56928571Y-120609523D01*
X57023809Y-120657142D01*
X57452380Y-119133333D02*
X57452380Y-119704761D01*
X57452380Y-119419047D02*
X56452380Y-119419047D01*
X56595238Y-119514285D01*
X56690476Y-119609523D01*
X56738095Y-119704761D01*
X56452380Y-118800000D02*
X56452380Y-118180952D01*
X56833333Y-118514285D01*
X56833333Y-118371428D01*
X56880952Y-118276190D01*
X56928571Y-118228571D01*
X57023809Y-118180952D01*
X57261904Y-118180952D01*
X57357142Y-118228571D01*
X57404761Y-118276190D01*
X57452380Y-118371428D01*
X57452380Y-118657142D01*
X57404761Y-118752380D01*
X57357142Y-118800000D01*
X103702380Y-91500000D02*
X103702380Y-91976190D01*
X102702380Y-91976190D01*
X103702380Y-90690476D02*
X103702380Y-91166666D01*
X102702380Y-91166666D01*
X103035714Y-89928571D02*
X103702380Y-89928571D01*
X102654761Y-90166666D02*
X103369047Y-90404761D01*
X103369047Y-89785714D01*
X103702380Y-88880952D02*
X103702380Y-89452380D01*
X103702380Y-89166666D02*
X102702380Y-89166666D01*
X102845238Y-89261904D01*
X102940476Y-89357142D01*
X102988095Y-89452380D01*
X103035714Y-88023809D02*
X103702380Y-88023809D01*
X102654761Y-88261904D02*
X103369047Y-88500000D01*
X103369047Y-87880952D01*
X103130952Y-87357142D02*
X103083333Y-87452380D01*
X103035714Y-87500000D01*
X102940476Y-87547619D01*
X102892857Y-87547619D01*
X102797619Y-87500000D01*
X102750000Y-87452380D01*
X102702380Y-87357142D01*
X102702380Y-87166666D01*
X102750000Y-87071428D01*
X102797619Y-87023809D01*
X102892857Y-86976190D01*
X102940476Y-86976190D01*
X103035714Y-87023809D01*
X103083333Y-87071428D01*
X103130952Y-87166666D01*
X103130952Y-87357142D01*
X103178571Y-87452380D01*
X103226190Y-87500000D01*
X103321428Y-87547619D01*
X103511904Y-87547619D01*
X103607142Y-87500000D01*
X103654761Y-87452380D01*
X103702380Y-87357142D01*
X103702380Y-87166666D01*
X103654761Y-87071428D01*
X103607142Y-87023809D01*
X103511904Y-86976190D01*
X103321428Y-86976190D01*
X103226190Y-87023809D01*
X103178571Y-87071428D01*
X103130952Y-87166666D01*
X107202380Y-91190476D02*
X106202380Y-91190476D01*
X106202380Y-90952380D01*
X106250000Y-90809523D01*
X106345238Y-90714285D01*
X106440476Y-90666666D01*
X106630952Y-90619047D01*
X106773809Y-90619047D01*
X106964285Y-90666666D01*
X107059523Y-90714285D01*
X107154761Y-90809523D01*
X107202380Y-90952380D01*
X107202380Y-91190476D01*
X106202380Y-89761904D02*
X106202380Y-89952380D01*
X106250000Y-90047619D01*
X106297619Y-90095238D01*
X106440476Y-90190476D01*
X106630952Y-90238095D01*
X107011904Y-90238095D01*
X107107142Y-90190476D01*
X107154761Y-90142857D01*
X107202380Y-90047619D01*
X107202380Y-89857142D01*
X107154761Y-89761904D01*
X107107142Y-89714285D01*
X107011904Y-89666666D01*
X106773809Y-89666666D01*
X106678571Y-89714285D01*
X106630952Y-89761904D01*
X106583333Y-89857142D01*
X106583333Y-90047619D01*
X106630952Y-90142857D01*
X106678571Y-90190476D01*
X106773809Y-90238095D01*
X106202380Y-89047619D02*
X106202380Y-88952380D01*
X106250000Y-88857142D01*
X106297619Y-88809523D01*
X106392857Y-88761904D01*
X106583333Y-88714285D01*
X106821428Y-88714285D01*
X107011904Y-88761904D01*
X107107142Y-88809523D01*
X107154761Y-88857142D01*
X107202380Y-88952380D01*
X107202380Y-89047619D01*
X107154761Y-89142857D01*
X107107142Y-89190476D01*
X107011904Y-89238095D01*
X106821428Y-89285714D01*
X106583333Y-89285714D01*
X106392857Y-89238095D01*
X106297619Y-89190476D01*
X106250000Y-89142857D01*
X106202380Y-89047619D01*
X106297619Y-88333333D02*
X106250000Y-88285714D01*
X106202380Y-88190476D01*
X106202380Y-87952380D01*
X106250000Y-87857142D01*
X106297619Y-87809523D01*
X106392857Y-87761904D01*
X106488095Y-87761904D01*
X106630952Y-87809523D01*
X107202380Y-88380952D01*
X107202380Y-87761904D01*
X106785714Y-112666666D02*
X107452380Y-112666666D01*
X106404761Y-112904761D02*
X107119047Y-113142857D01*
X107119047Y-112523809D01*
X106452380Y-112238095D02*
X106452380Y-111571428D01*
X107452380Y-112000000D01*
X106785714Y-110761904D02*
X107452380Y-110761904D01*
X106785714Y-111190476D02*
X107309523Y-111190476D01*
X107404761Y-111142857D01*
X107452380Y-111047619D01*
X107452380Y-110904761D01*
X107404761Y-110809523D01*
X107357142Y-110761904D01*
X106928571Y-109952380D02*
X106928571Y-110285714D01*
X107452380Y-110285714D02*
X106452380Y-110285714D01*
X106452380Y-109809523D01*
X99857142Y-112619047D02*
X99904761Y-112666666D01*
X99952380Y-112809523D01*
X99952380Y-112904761D01*
X99904761Y-113047619D01*
X99809523Y-113142857D01*
X99714285Y-113190476D01*
X99523809Y-113238095D01*
X99380952Y-113238095D01*
X99190476Y-113190476D01*
X99095238Y-113142857D01*
X99000000Y-113047619D01*
X98952380Y-112904761D01*
X98952380Y-112809523D01*
X99000000Y-112666666D01*
X99047619Y-112619047D01*
X98952380Y-111761904D02*
X98952380Y-111952380D01*
X99000000Y-112047619D01*
X99047619Y-112095238D01*
X99190476Y-112190476D01*
X99380952Y-112238095D01*
X99761904Y-112238095D01*
X99857142Y-112190476D01*
X99904761Y-112142857D01*
X99952380Y-112047619D01*
X99952380Y-111857142D01*
X99904761Y-111761904D01*
X99857142Y-111714285D01*
X99761904Y-111666666D01*
X99523809Y-111666666D01*
X99428571Y-111714285D01*
X99380952Y-111761904D01*
X99333333Y-111857142D01*
X99333333Y-112047619D01*
X99380952Y-112142857D01*
X99428571Y-112190476D01*
X99523809Y-112238095D01*
X99952380Y-110714285D02*
X99952380Y-111285714D01*
X99952380Y-111000000D02*
X98952380Y-111000000D01*
X99095238Y-111095238D01*
X99190476Y-111190476D01*
X99238095Y-111285714D01*
X98952380Y-110095238D02*
X98952380Y-110000000D01*
X99000000Y-109904761D01*
X99047619Y-109857142D01*
X99142857Y-109809523D01*
X99333333Y-109761904D01*
X99571428Y-109761904D01*
X99761904Y-109809523D01*
X99857142Y-109857142D01*
X99904761Y-109904761D01*
X99952380Y-110000000D01*
X99952380Y-110095238D01*
X99904761Y-110190476D01*
X99857142Y-110238095D01*
X99761904Y-110285714D01*
X99571428Y-110333333D01*
X99333333Y-110333333D01*
X99142857Y-110285714D01*
X99047619Y-110238095D01*
X99000000Y-110190476D01*
X98952380Y-110095238D01*
X120535714Y-112666666D02*
X121202380Y-112666666D01*
X120154761Y-112904761D02*
X120869047Y-113142857D01*
X120869047Y-112523809D01*
X120202380Y-112238095D02*
X120202380Y-111571428D01*
X121202380Y-112000000D01*
X120535714Y-110761904D02*
X121202380Y-110761904D01*
X120535714Y-111190476D02*
X121059523Y-111190476D01*
X121154761Y-111142857D01*
X121202380Y-111047619D01*
X121202380Y-110904761D01*
X121154761Y-110809523D01*
X121107142Y-110761904D01*
X120678571Y-109952380D02*
X120678571Y-110285714D01*
X121202380Y-110285714D02*
X120202380Y-110285714D01*
X120202380Y-109809523D01*
X113607142Y-112619047D02*
X113654761Y-112666666D01*
X113702380Y-112809523D01*
X113702380Y-112904761D01*
X113654761Y-113047619D01*
X113559523Y-113142857D01*
X113464285Y-113190476D01*
X113273809Y-113238095D01*
X113130952Y-113238095D01*
X112940476Y-113190476D01*
X112845238Y-113142857D01*
X112750000Y-113047619D01*
X112702380Y-112904761D01*
X112702380Y-112809523D01*
X112750000Y-112666666D01*
X112797619Y-112619047D01*
X112702380Y-111761904D02*
X112702380Y-111952380D01*
X112750000Y-112047619D01*
X112797619Y-112095238D01*
X112940476Y-112190476D01*
X113130952Y-112238095D01*
X113511904Y-112238095D01*
X113607142Y-112190476D01*
X113654761Y-112142857D01*
X113702380Y-112047619D01*
X113702380Y-111857142D01*
X113654761Y-111761904D01*
X113607142Y-111714285D01*
X113511904Y-111666666D01*
X113273809Y-111666666D01*
X113178571Y-111714285D01*
X113130952Y-111761904D01*
X113083333Y-111857142D01*
X113083333Y-112047619D01*
X113130952Y-112142857D01*
X113178571Y-112190476D01*
X113273809Y-112238095D01*
X112702380Y-111047619D02*
X112702380Y-110952380D01*
X112750000Y-110857142D01*
X112797619Y-110809523D01*
X112892857Y-110761904D01*
X113083333Y-110714285D01*
X113321428Y-110714285D01*
X113511904Y-110761904D01*
X113607142Y-110809523D01*
X113654761Y-110857142D01*
X113702380Y-110952380D01*
X113702380Y-111047619D01*
X113654761Y-111142857D01*
X113607142Y-111190476D01*
X113511904Y-111238095D01*
X113321428Y-111285714D01*
X113083333Y-111285714D01*
X112892857Y-111238095D01*
X112797619Y-111190476D01*
X112750000Y-111142857D01*
X112702380Y-111047619D01*
X113702380Y-110238095D02*
X113702380Y-110047619D01*
X113654761Y-109952380D01*
X113607142Y-109904761D01*
X113464285Y-109809523D01*
X113273809Y-109761904D01*
X112892857Y-109761904D01*
X112797619Y-109809523D01*
X112750000Y-109857142D01*
X112702380Y-109952380D01*
X112702380Y-110142857D01*
X112750000Y-110238095D01*
X112797619Y-110285714D01*
X112892857Y-110333333D01*
X113130952Y-110333333D01*
X113226190Y-110285714D01*
X113273809Y-110238095D01*
X113321428Y-110142857D01*
X113321428Y-109952380D01*
X113273809Y-109857142D01*
X113226190Y-109809523D01*
X113130952Y-109761904D01*
X94437380Y-95285714D02*
X94437380Y-95761904D01*
X93437380Y-95761904D01*
X94437380Y-94952380D02*
X93437380Y-94952380D01*
X94151666Y-94619047D01*
X93437380Y-94285714D01*
X94437380Y-94285714D01*
X93437380Y-93333333D02*
X93437380Y-93809523D01*
X93913571Y-93857142D01*
X93865952Y-93809523D01*
X93818333Y-93714285D01*
X93818333Y-93476190D01*
X93865952Y-93380952D01*
X93913571Y-93333333D01*
X94008809Y-93285714D01*
X94246904Y-93285714D01*
X94342142Y-93333333D01*
X94389761Y-93380952D01*
X94437380Y-93476190D01*
X94437380Y-93714285D01*
X94389761Y-93809523D01*
X94342142Y-93857142D01*
X94437380Y-92333333D02*
X94437380Y-92904761D01*
X94437380Y-92619047D02*
X93437380Y-92619047D01*
X93580238Y-92714285D01*
X93675476Y-92809523D01*
X93723095Y-92904761D01*
X93437380Y-91714285D02*
X93437380Y-91619047D01*
X93485000Y-91523809D01*
X93532619Y-91476190D01*
X93627857Y-91428571D01*
X93818333Y-91380952D01*
X94056428Y-91380952D01*
X94246904Y-91428571D01*
X94342142Y-91476190D01*
X94389761Y-91523809D01*
X94437380Y-91619047D01*
X94437380Y-91714285D01*
X94389761Y-91809523D01*
X94342142Y-91857142D01*
X94246904Y-91904761D01*
X94056428Y-91952380D01*
X93818333Y-91952380D01*
X93627857Y-91904761D01*
X93532619Y-91857142D01*
X93485000Y-91809523D01*
X93437380Y-91714285D01*
X93770714Y-90523809D02*
X94437380Y-90523809D01*
X93389761Y-90761904D02*
X94104047Y-91000000D01*
X94104047Y-90380952D01*
X94437380Y-90000000D02*
X93437380Y-90000000D01*
X94151666Y-89666666D01*
X93437380Y-89333333D01*
X94437380Y-89333333D01*
X94437380Y-88857142D02*
X93437380Y-88857142D01*
X94437380Y-88285714D01*
X93437380Y-88285714D01*
X93437380Y-87619047D02*
X93437380Y-87428571D01*
X93485000Y-87333333D01*
X93580238Y-87238095D01*
X93770714Y-87190476D01*
X94104047Y-87190476D01*
X94294523Y-87238095D01*
X94389761Y-87333333D01*
X94437380Y-87428571D01*
X94437380Y-87619047D01*
X94389761Y-87714285D01*
X94294523Y-87809523D01*
X94104047Y-87857142D01*
X93770714Y-87857142D01*
X93580238Y-87809523D01*
X93485000Y-87714285D01*
X93437380Y-87619047D01*
X94437380Y-86761904D02*
X93437380Y-86761904D01*
X93437380Y-86380952D01*
X93485000Y-86285714D01*
X93532619Y-86238095D01*
X93627857Y-86190476D01*
X93770714Y-86190476D01*
X93865952Y-86238095D01*
X93913571Y-86285714D01*
X93961190Y-86380952D01*
X93961190Y-86761904D01*
X93913571Y-85428571D02*
X93961190Y-85285714D01*
X94008809Y-85238095D01*
X94104047Y-85190476D01*
X94246904Y-85190476D01*
X94342142Y-85238095D01*
X94389761Y-85285714D01*
X94437380Y-85380952D01*
X94437380Y-85761904D01*
X93437380Y-85761904D01*
X93437380Y-85428571D01*
X93485000Y-85333333D01*
X93532619Y-85285714D01*
X93627857Y-85238095D01*
X93723095Y-85238095D01*
X93818333Y-85285714D01*
X93865952Y-85333333D01*
X93913571Y-85428571D01*
X93913571Y-85761904D01*
X96848333Y-92180000D02*
X97641666Y-92180000D01*
X97735000Y-92133333D01*
X97781666Y-92086666D01*
X97828333Y-91993333D01*
X97828333Y-91806666D01*
X97781666Y-91713333D01*
X97735000Y-91666666D01*
X97641666Y-91620000D01*
X96848333Y-91620000D01*
X96848333Y-90733333D02*
X96848333Y-90920000D01*
X96895000Y-91013333D01*
X96941666Y-91060000D01*
X97081666Y-91153333D01*
X97268333Y-91200000D01*
X97641666Y-91200000D01*
X97735000Y-91153333D01*
X97781666Y-91106666D01*
X97828333Y-91013333D01*
X97828333Y-90826666D01*
X97781666Y-90733333D01*
X97735000Y-90686666D01*
X97641666Y-90640000D01*
X97408333Y-90640000D01*
X97315000Y-90686666D01*
X97268333Y-90733333D01*
X97221666Y-90826666D01*
X97221666Y-91013333D01*
X97268333Y-91106666D01*
X97315000Y-91153333D01*
X97408333Y-91200000D01*
X96848333Y-90033333D02*
X96848333Y-89940000D01*
X96895000Y-89846666D01*
X96941666Y-89800000D01*
X97035000Y-89753333D01*
X97221666Y-89706666D01*
X97455000Y-89706666D01*
X97641666Y-89753333D01*
X97735000Y-89800000D01*
X97781666Y-89846666D01*
X97828333Y-89940000D01*
X97828333Y-90033333D01*
X97781666Y-90126666D01*
X97735000Y-90173333D01*
X97641666Y-90220000D01*
X97455000Y-90266666D01*
X97221666Y-90266666D01*
X97035000Y-90220000D01*
X96941666Y-90173333D01*
X96895000Y-90126666D01*
X96848333Y-90033333D01*
X97828333Y-88773333D02*
X97828333Y-89333333D01*
X97828333Y-89053333D02*
X96848333Y-89053333D01*
X96988333Y-89146666D01*
X97081666Y-89240000D01*
X97128333Y-89333333D01*
X113102380Y-64095238D02*
X113102380Y-64666666D01*
X113102380Y-64380952D02*
X112102380Y-64380952D01*
X112245238Y-64476190D01*
X112340476Y-64571428D01*
X112388095Y-64666666D01*
X112102380Y-63476190D02*
X112102380Y-63380952D01*
X112150000Y-63285714D01*
X112197619Y-63238095D01*
X112292857Y-63190476D01*
X112483333Y-63142857D01*
X112721428Y-63142857D01*
X112911904Y-63190476D01*
X113007142Y-63238095D01*
X113054761Y-63285714D01*
X113102380Y-63380952D01*
X113102380Y-63476190D01*
X113054761Y-63571428D01*
X113007142Y-63619047D01*
X112911904Y-63666666D01*
X112721428Y-63714285D01*
X112483333Y-63714285D01*
X112292857Y-63666666D01*
X112197619Y-63619047D01*
X112150000Y-63571428D01*
X112102380Y-63476190D01*
X113102380Y-62714285D02*
X112102380Y-62714285D01*
X112721428Y-62619047D02*
X113102380Y-62333333D01*
X112435714Y-62333333D02*
X112816666Y-62714285D01*
D13*
X111226190Y-64059523D02*
X110988095Y-64226190D01*
X111226190Y-64345238D02*
X110726190Y-64345238D01*
X110726190Y-64154761D01*
X110750000Y-64107142D01*
X110773809Y-64083333D01*
X110821428Y-64059523D01*
X110892857Y-64059523D01*
X110940476Y-64083333D01*
X110964285Y-64107142D01*
X110988095Y-64154761D01*
X110988095Y-64345238D01*
X110726190Y-63630952D02*
X110726190Y-63726190D01*
X110750000Y-63773809D01*
X110773809Y-63797619D01*
X110845238Y-63845238D01*
X110940476Y-63869047D01*
X111130952Y-63869047D01*
X111178571Y-63845238D01*
X111202380Y-63821428D01*
X111226190Y-63773809D01*
X111226190Y-63678571D01*
X111202380Y-63630952D01*
X111178571Y-63607142D01*
X111130952Y-63583333D01*
X111011904Y-63583333D01*
X110964285Y-63607142D01*
X110940476Y-63630952D01*
X110916666Y-63678571D01*
X110916666Y-63773809D01*
X110940476Y-63821428D01*
X110964285Y-63845238D01*
X111011904Y-63869047D01*
X110726190Y-63273809D02*
X110726190Y-63226190D01*
X110750000Y-63178571D01*
X110773809Y-63154761D01*
X110821428Y-63130952D01*
X110916666Y-63107142D01*
X111035714Y-63107142D01*
X111130952Y-63130952D01*
X111178571Y-63154761D01*
X111202380Y-63178571D01*
X111226190Y-63226190D01*
X111226190Y-63273809D01*
X111202380Y-63321428D01*
X111178571Y-63345238D01*
X111130952Y-63369047D01*
X111035714Y-63392857D01*
X110916666Y-63392857D01*
X110821428Y-63369047D01*
X110773809Y-63345238D01*
X110750000Y-63321428D01*
X110726190Y-63273809D01*
X110726190Y-62654761D02*
X110726190Y-62892857D01*
X110964285Y-62916666D01*
X110940476Y-62892857D01*
X110916666Y-62845238D01*
X110916666Y-62726190D01*
X110940476Y-62678571D01*
X110964285Y-62654761D01*
X111011904Y-62630952D01*
X111130952Y-62630952D01*
X111178571Y-62654761D01*
X111202380Y-62678571D01*
X111226190Y-62726190D01*
X111226190Y-62845238D01*
X111202380Y-62892857D01*
X111178571Y-62916666D01*
D11*
X113102380Y-82595238D02*
X113102380Y-83166666D01*
X113102380Y-82880952D02*
X112102380Y-82880952D01*
X112245238Y-82976190D01*
X112340476Y-83071428D01*
X112388095Y-83166666D01*
X112102380Y-81976190D02*
X112102380Y-81880952D01*
X112150000Y-81785714D01*
X112197619Y-81738095D01*
X112292857Y-81690476D01*
X112483333Y-81642857D01*
X112721428Y-81642857D01*
X112911904Y-81690476D01*
X113007142Y-81738095D01*
X113054761Y-81785714D01*
X113102380Y-81880952D01*
X113102380Y-81976190D01*
X113054761Y-82071428D01*
X113007142Y-82119047D01*
X112911904Y-82166666D01*
X112721428Y-82214285D01*
X112483333Y-82214285D01*
X112292857Y-82166666D01*
X112197619Y-82119047D01*
X112150000Y-82071428D01*
X112102380Y-81976190D01*
X113102380Y-81214285D02*
X112102380Y-81214285D01*
X112721428Y-81119047D02*
X113102380Y-80833333D01*
X112435714Y-80833333D02*
X112816666Y-81214285D01*
D13*
X111226190Y-82559523D02*
X110988095Y-82726190D01*
X111226190Y-82845238D02*
X110726190Y-82845238D01*
X110726190Y-82654761D01*
X110750000Y-82607142D01*
X110773809Y-82583333D01*
X110821428Y-82559523D01*
X110892857Y-82559523D01*
X110940476Y-82583333D01*
X110964285Y-82607142D01*
X110988095Y-82654761D01*
X110988095Y-82845238D01*
X110726190Y-82130952D02*
X110726190Y-82226190D01*
X110750000Y-82273809D01*
X110773809Y-82297619D01*
X110845238Y-82345238D01*
X110940476Y-82369047D01*
X111130952Y-82369047D01*
X111178571Y-82345238D01*
X111202380Y-82321428D01*
X111226190Y-82273809D01*
X111226190Y-82178571D01*
X111202380Y-82130952D01*
X111178571Y-82107142D01*
X111130952Y-82083333D01*
X111011904Y-82083333D01*
X110964285Y-82107142D01*
X110940476Y-82130952D01*
X110916666Y-82178571D01*
X110916666Y-82273809D01*
X110940476Y-82321428D01*
X110964285Y-82345238D01*
X111011904Y-82369047D01*
X110726190Y-81773809D02*
X110726190Y-81726190D01*
X110750000Y-81678571D01*
X110773809Y-81654761D01*
X110821428Y-81630952D01*
X110916666Y-81607142D01*
X111035714Y-81607142D01*
X111130952Y-81630952D01*
X111178571Y-81654761D01*
X111202380Y-81678571D01*
X111226190Y-81726190D01*
X111226190Y-81773809D01*
X111202380Y-81821428D01*
X111178571Y-81845238D01*
X111130952Y-81869047D01*
X111035714Y-81892857D01*
X110916666Y-81892857D01*
X110821428Y-81869047D01*
X110773809Y-81845238D01*
X110750000Y-81821428D01*
X110726190Y-81773809D01*
X110892857Y-81178571D02*
X111226190Y-81178571D01*
X110702380Y-81297619D02*
X111059523Y-81416666D01*
X111059523Y-81107142D01*
D11*
X106785714Y-62302380D02*
X106214285Y-62302380D01*
X106500000Y-62302380D02*
X106500000Y-61302380D01*
X106404761Y-61445238D01*
X106309523Y-61540476D01*
X106214285Y-61588095D01*
X107785714Y-62302380D02*
X107452380Y-61826190D01*
X107214285Y-62302380D02*
X107214285Y-61302380D01*
X107595238Y-61302380D01*
X107690476Y-61350000D01*
X107738095Y-61397619D01*
X107785714Y-61492857D01*
X107785714Y-61635714D01*
X107738095Y-61730952D01*
X107690476Y-61778571D01*
X107595238Y-61826190D01*
X107214285Y-61826190D01*
D13*
X106440476Y-63726190D02*
X106273809Y-63488095D01*
X106154761Y-63726190D02*
X106154761Y-63226190D01*
X106345238Y-63226190D01*
X106392857Y-63250000D01*
X106416666Y-63273809D01*
X106440476Y-63321428D01*
X106440476Y-63392857D01*
X106416666Y-63440476D01*
X106392857Y-63464285D01*
X106345238Y-63488095D01*
X106154761Y-63488095D01*
X106869047Y-63226190D02*
X106773809Y-63226190D01*
X106726190Y-63250000D01*
X106702380Y-63273809D01*
X106654761Y-63345238D01*
X106630952Y-63440476D01*
X106630952Y-63630952D01*
X106654761Y-63678571D01*
X106678571Y-63702380D01*
X106726190Y-63726190D01*
X106821428Y-63726190D01*
X106869047Y-63702380D01*
X106892857Y-63678571D01*
X106916666Y-63630952D01*
X106916666Y-63511904D01*
X106892857Y-63464285D01*
X106869047Y-63440476D01*
X106821428Y-63416666D01*
X106726190Y-63416666D01*
X106678571Y-63440476D01*
X106654761Y-63464285D01*
X106630952Y-63511904D01*
X107226190Y-63226190D02*
X107273809Y-63226190D01*
X107321428Y-63250000D01*
X107345238Y-63273809D01*
X107369047Y-63321428D01*
X107392857Y-63416666D01*
X107392857Y-63535714D01*
X107369047Y-63630952D01*
X107345238Y-63678571D01*
X107321428Y-63702380D01*
X107273809Y-63726190D01*
X107226190Y-63726190D01*
X107178571Y-63702380D01*
X107154761Y-63678571D01*
X107130952Y-63630952D01*
X107107142Y-63535714D01*
X107107142Y-63416666D01*
X107130952Y-63321428D01*
X107154761Y-63273809D01*
X107178571Y-63250000D01*
X107226190Y-63226190D01*
X107559523Y-63226190D02*
X107869047Y-63226190D01*
X107702380Y-63416666D01*
X107773809Y-63416666D01*
X107821428Y-63440476D01*
X107845238Y-63464285D01*
X107869047Y-63511904D01*
X107869047Y-63630952D01*
X107845238Y-63678571D01*
X107821428Y-63702380D01*
X107773809Y-63726190D01*
X107630952Y-63726190D01*
X107583333Y-63702380D01*
X107559523Y-63678571D01*
D11*
X106785714Y-80802380D02*
X106214285Y-80802380D01*
X106500000Y-80802380D02*
X106500000Y-79802380D01*
X106404761Y-79945238D01*
X106309523Y-80040476D01*
X106214285Y-80088095D01*
X107785714Y-80802380D02*
X107452380Y-80326190D01*
X107214285Y-80802380D02*
X107214285Y-79802380D01*
X107595238Y-79802380D01*
X107690476Y-79850000D01*
X107738095Y-79897619D01*
X107785714Y-79992857D01*
X107785714Y-80135714D01*
X107738095Y-80230952D01*
X107690476Y-80278571D01*
X107595238Y-80326190D01*
X107214285Y-80326190D01*
D13*
X106440476Y-82226190D02*
X106273809Y-81988095D01*
X106154761Y-82226190D02*
X106154761Y-81726190D01*
X106345238Y-81726190D01*
X106392857Y-81750000D01*
X106416666Y-81773809D01*
X106440476Y-81821428D01*
X106440476Y-81892857D01*
X106416666Y-81940476D01*
X106392857Y-81964285D01*
X106345238Y-81988095D01*
X106154761Y-81988095D01*
X106869047Y-81726190D02*
X106773809Y-81726190D01*
X106726190Y-81750000D01*
X106702380Y-81773809D01*
X106654761Y-81845238D01*
X106630952Y-81940476D01*
X106630952Y-82130952D01*
X106654761Y-82178571D01*
X106678571Y-82202380D01*
X106726190Y-82226190D01*
X106821428Y-82226190D01*
X106869047Y-82202380D01*
X106892857Y-82178571D01*
X106916666Y-82130952D01*
X106916666Y-82011904D01*
X106892857Y-81964285D01*
X106869047Y-81940476D01*
X106821428Y-81916666D01*
X106726190Y-81916666D01*
X106678571Y-81940476D01*
X106654761Y-81964285D01*
X106630952Y-82011904D01*
X107226190Y-81726190D02*
X107273809Y-81726190D01*
X107321428Y-81750000D01*
X107345238Y-81773809D01*
X107369047Y-81821428D01*
X107392857Y-81916666D01*
X107392857Y-82035714D01*
X107369047Y-82130952D01*
X107345238Y-82178571D01*
X107321428Y-82202380D01*
X107273809Y-82226190D01*
X107226190Y-82226190D01*
X107178571Y-82202380D01*
X107154761Y-82178571D01*
X107130952Y-82130952D01*
X107107142Y-82035714D01*
X107107142Y-81916666D01*
X107130952Y-81821428D01*
X107154761Y-81773809D01*
X107178571Y-81750000D01*
X107226190Y-81726190D01*
X107583333Y-81773809D02*
X107607142Y-81750000D01*
X107654761Y-81726190D01*
X107773809Y-81726190D01*
X107821428Y-81750000D01*
X107845238Y-81773809D01*
X107869047Y-81821428D01*
X107869047Y-81869047D01*
X107845238Y-81940476D01*
X107559523Y-82226190D01*
X107869047Y-82226190D01*
D11*
X92903571Y-95302380D02*
X92332142Y-95302380D01*
X92617857Y-95302380D02*
X92617857Y-94302380D01*
X92522619Y-94445238D01*
X92427380Y-94540476D01*
X92332142Y-94588095D01*
X93522619Y-94302380D02*
X93617857Y-94302380D01*
X93713095Y-94350000D01*
X93760714Y-94397619D01*
X93808333Y-94492857D01*
X93855952Y-94683333D01*
X93855952Y-94921428D01*
X93808333Y-95111904D01*
X93760714Y-95207142D01*
X93713095Y-95254761D01*
X93617857Y-95302380D01*
X93522619Y-95302380D01*
X93427380Y-95254761D01*
X93379761Y-95207142D01*
X93332142Y-95111904D01*
X93284523Y-94921428D01*
X93284523Y-94683333D01*
X93332142Y-94492857D01*
X93379761Y-94397619D01*
X93427380Y-94350000D01*
X93522619Y-94302380D01*
X94475000Y-94302380D02*
X94570238Y-94302380D01*
X94665476Y-94350000D01*
X94713095Y-94397619D01*
X94760714Y-94492857D01*
X94808333Y-94683333D01*
X94808333Y-94921428D01*
X94760714Y-95111904D01*
X94713095Y-95207142D01*
X94665476Y-95254761D01*
X94570238Y-95302380D01*
X94475000Y-95302380D01*
X94379761Y-95254761D01*
X94332142Y-95207142D01*
X94284523Y-95111904D01*
X94236904Y-94921428D01*
X94236904Y-94683333D01*
X94284523Y-94492857D01*
X94332142Y-94397619D01*
X94379761Y-94350000D01*
X94475000Y-94302380D01*
X95236904Y-95302380D02*
X95236904Y-94302380D01*
X95332142Y-94921428D02*
X95617857Y-95302380D01*
X95617857Y-94635714D02*
X95236904Y-95016666D01*
D13*
X93415476Y-96726190D02*
X93248809Y-96488095D01*
X93129761Y-96726190D02*
X93129761Y-96226190D01*
X93320238Y-96226190D01*
X93367857Y-96250000D01*
X93391666Y-96273809D01*
X93415476Y-96321428D01*
X93415476Y-96392857D01*
X93391666Y-96440476D01*
X93367857Y-96464285D01*
X93320238Y-96488095D01*
X93129761Y-96488095D01*
X93844047Y-96226190D02*
X93748809Y-96226190D01*
X93701190Y-96250000D01*
X93677380Y-96273809D01*
X93629761Y-96345238D01*
X93605952Y-96440476D01*
X93605952Y-96630952D01*
X93629761Y-96678571D01*
X93653571Y-96702380D01*
X93701190Y-96726190D01*
X93796428Y-96726190D01*
X93844047Y-96702380D01*
X93867857Y-96678571D01*
X93891666Y-96630952D01*
X93891666Y-96511904D01*
X93867857Y-96464285D01*
X93844047Y-96440476D01*
X93796428Y-96416666D01*
X93701190Y-96416666D01*
X93653571Y-96440476D01*
X93629761Y-96464285D01*
X93605952Y-96511904D01*
X94201190Y-96226190D02*
X94248809Y-96226190D01*
X94296428Y-96250000D01*
X94320238Y-96273809D01*
X94344047Y-96321428D01*
X94367857Y-96416666D01*
X94367857Y-96535714D01*
X94344047Y-96630952D01*
X94320238Y-96678571D01*
X94296428Y-96702380D01*
X94248809Y-96726190D01*
X94201190Y-96726190D01*
X94153571Y-96702380D01*
X94129761Y-96678571D01*
X94105952Y-96630952D01*
X94082142Y-96535714D01*
X94082142Y-96416666D01*
X94105952Y-96321428D01*
X94129761Y-96273809D01*
X94153571Y-96250000D01*
X94201190Y-96226190D01*
X94844047Y-96726190D02*
X94558333Y-96726190D01*
X94701190Y-96726190D02*
X94701190Y-96226190D01*
X94653571Y-96297619D01*
X94605952Y-96345238D01*
X94558333Y-96369047D01*
D11*
X50771428Y-105000000D02*
X50771428Y-104238095D01*
X50628571Y-103428571D02*
X50676190Y-103285714D01*
X50723809Y-103238095D01*
X50819047Y-103190476D01*
X50961904Y-103190476D01*
X51057142Y-103238095D01*
X51104761Y-103285714D01*
X51152380Y-103380952D01*
X51152380Y-103761904D01*
X50152380Y-103761904D01*
X50152380Y-103428571D01*
X50200000Y-103333333D01*
X50247619Y-103285714D01*
X50342857Y-103238095D01*
X50438095Y-103238095D01*
X50533333Y-103285714D01*
X50580952Y-103333333D01*
X50628571Y-103428571D01*
X50628571Y-103761904D01*
X50866666Y-102809523D02*
X50866666Y-102333333D01*
X51152380Y-102904761D02*
X50152380Y-102571428D01*
X51152380Y-102238095D01*
X50152380Y-102047619D02*
X50152380Y-101476190D01*
X51152380Y-101761904D02*
X50152380Y-101761904D01*
X51247619Y-101380952D02*
X51247619Y-100619047D01*
X50152380Y-100190476D02*
X50152380Y-100000000D01*
X50200000Y-99904761D01*
X50295238Y-99809523D01*
X50485714Y-99761904D01*
X50819047Y-99761904D01*
X51009523Y-99809523D01*
X51104761Y-99904761D01*
X51152380Y-100000000D01*
X51152380Y-100190476D01*
X51104761Y-100285714D01*
X51009523Y-100380952D01*
X50819047Y-100428571D01*
X50485714Y-100428571D01*
X50295238Y-100380952D01*
X50200000Y-100285714D01*
X50152380Y-100190476D01*
X50152380Y-99333333D02*
X50961904Y-99333333D01*
X51057142Y-99285714D01*
X51104761Y-99238095D01*
X51152380Y-99142857D01*
X51152380Y-98952380D01*
X51104761Y-98857142D01*
X51057142Y-98809523D01*
X50961904Y-98761904D01*
X50152380Y-98761904D01*
X50152380Y-98428571D02*
X50152380Y-97857142D01*
X51152380Y-98142857D02*
X50152380Y-98142857D01*
X56452380Y-103085714D02*
X57166666Y-103085714D01*
X57309523Y-103133333D01*
X57404761Y-103228571D01*
X57452380Y-103371428D01*
X57452380Y-103466666D01*
X56452380Y-102180952D02*
X56452380Y-102371428D01*
X56500000Y-102466666D01*
X56547619Y-102514285D01*
X56690476Y-102609523D01*
X56880952Y-102657142D01*
X57261904Y-102657142D01*
X57357142Y-102609523D01*
X57404761Y-102561904D01*
X57452380Y-102466666D01*
X57452380Y-102276190D01*
X57404761Y-102180952D01*
X57357142Y-102133333D01*
X57261904Y-102085714D01*
X57023809Y-102085714D01*
X56928571Y-102133333D01*
X56880952Y-102180952D01*
X56833333Y-102276190D01*
X56833333Y-102466666D01*
X56880952Y-102561904D01*
X56928571Y-102609523D01*
X57023809Y-102657142D01*
X57452380Y-101133333D02*
X57452380Y-101704761D01*
X57452380Y-101419047D02*
X56452380Y-101419047D01*
X56595238Y-101514285D01*
X56690476Y-101609523D01*
X56738095Y-101704761D01*
X56785714Y-100276190D02*
X57452380Y-100276190D01*
X56404761Y-100514285D02*
X57119047Y-100752380D01*
X57119047Y-100133333D01*
X63371428Y-84833333D02*
X63371428Y-84071428D01*
X63228571Y-83261904D02*
X63276190Y-83119047D01*
X63323809Y-83071428D01*
X63419047Y-83023809D01*
X63561904Y-83023809D01*
X63657142Y-83071428D01*
X63704761Y-83119047D01*
X63752380Y-83214285D01*
X63752380Y-83595238D01*
X62752380Y-83595238D01*
X62752380Y-83261904D01*
X62800000Y-83166666D01*
X62847619Y-83119047D01*
X62942857Y-83071428D01*
X63038095Y-83071428D01*
X63133333Y-83119047D01*
X63180952Y-83166666D01*
X63228571Y-83261904D01*
X63228571Y-83595238D01*
X63466666Y-82642857D02*
X63466666Y-82166666D01*
X63752380Y-82738095D02*
X62752380Y-82404761D01*
X63752380Y-82071428D01*
X62752380Y-81880952D02*
X62752380Y-81309523D01*
X63752380Y-81595238D02*
X62752380Y-81595238D01*
X63847619Y-81214285D02*
X63847619Y-80452380D01*
X63752380Y-80214285D02*
X62752380Y-80214285D01*
X63752380Y-79738095D02*
X62752380Y-79738095D01*
X63752380Y-79166666D01*
X62752380Y-79166666D01*
X56452380Y-82985714D02*
X57166666Y-82985714D01*
X57309523Y-83033333D01*
X57404761Y-83128571D01*
X57452380Y-83271428D01*
X57452380Y-83366666D01*
X56452380Y-82080952D02*
X56452380Y-82271428D01*
X56500000Y-82366666D01*
X56547619Y-82414285D01*
X56690476Y-82509523D01*
X56880952Y-82557142D01*
X57261904Y-82557142D01*
X57357142Y-82509523D01*
X57404761Y-82461904D01*
X57452380Y-82366666D01*
X57452380Y-82176190D01*
X57404761Y-82080952D01*
X57357142Y-82033333D01*
X57261904Y-81985714D01*
X57023809Y-81985714D01*
X56928571Y-82033333D01*
X56880952Y-82080952D01*
X56833333Y-82176190D01*
X56833333Y-82366666D01*
X56880952Y-82461904D01*
X56928571Y-82509523D01*
X57023809Y-82557142D01*
X57452380Y-81033333D02*
X57452380Y-81604761D01*
X57452380Y-81319047D02*
X56452380Y-81319047D01*
X56595238Y-81414285D01*
X56690476Y-81509523D01*
X56738095Y-81604761D01*
X56547619Y-80652380D02*
X56500000Y-80604761D01*
X56452380Y-80509523D01*
X56452380Y-80271428D01*
X56500000Y-80176190D01*
X56547619Y-80128571D01*
X56642857Y-80080952D01*
X56738095Y-80080952D01*
X56880952Y-80128571D01*
X57452380Y-80700000D01*
X57452380Y-80080952D01*
X63371428Y-65833333D02*
X63371428Y-65071428D01*
X63752380Y-65452380D02*
X62990476Y-65452380D01*
X63228571Y-64261904D02*
X63276190Y-64119047D01*
X63323809Y-64071428D01*
X63419047Y-64023809D01*
X63561904Y-64023809D01*
X63657142Y-64071428D01*
X63704761Y-64119047D01*
X63752380Y-64214285D01*
X63752380Y-64595238D01*
X62752380Y-64595238D01*
X62752380Y-64261904D01*
X62800000Y-64166666D01*
X62847619Y-64119047D01*
X62942857Y-64071428D01*
X63038095Y-64071428D01*
X63133333Y-64119047D01*
X63180952Y-64166666D01*
X63228571Y-64261904D01*
X63228571Y-64595238D01*
X63466666Y-63642857D02*
X63466666Y-63166666D01*
X63752380Y-63738095D02*
X62752380Y-63404761D01*
X63752380Y-63071428D01*
X62752380Y-62880952D02*
X62752380Y-62309523D01*
X63752380Y-62595238D02*
X62752380Y-62595238D01*
X63847619Y-62214285D02*
X63847619Y-61452380D01*
X63752380Y-61214285D02*
X62752380Y-61214285D01*
X63752380Y-60738095D02*
X62752380Y-60738095D01*
X63752380Y-60166666D01*
X62752380Y-60166666D01*
X56452380Y-63985714D02*
X57166666Y-63985714D01*
X57309523Y-64033333D01*
X57404761Y-64128571D01*
X57452380Y-64271428D01*
X57452380Y-64366666D01*
X56452380Y-63080952D02*
X56452380Y-63271428D01*
X56500000Y-63366666D01*
X56547619Y-63414285D01*
X56690476Y-63509523D01*
X56880952Y-63557142D01*
X57261904Y-63557142D01*
X57357142Y-63509523D01*
X57404761Y-63461904D01*
X57452380Y-63366666D01*
X57452380Y-63176190D01*
X57404761Y-63080952D01*
X57357142Y-63033333D01*
X57261904Y-62985714D01*
X57023809Y-62985714D01*
X56928571Y-63033333D01*
X56880952Y-63080952D01*
X56833333Y-63176190D01*
X56833333Y-63366666D01*
X56880952Y-63461904D01*
X56928571Y-63509523D01*
X57023809Y-63557142D01*
X57452380Y-62033333D02*
X57452380Y-62604761D01*
X57452380Y-62319047D02*
X56452380Y-62319047D01*
X56595238Y-62414285D01*
X56690476Y-62509523D01*
X56738095Y-62604761D01*
X57452380Y-61080952D02*
X57452380Y-61652380D01*
X57452380Y-61366666D02*
X56452380Y-61366666D01*
X56595238Y-61461904D01*
X56690476Y-61557142D01*
X56738095Y-61652380D01*
X113202380Y-71619047D02*
X113202380Y-72190476D01*
X113202380Y-71904761D02*
X112202380Y-71904761D01*
X112345238Y-72000000D01*
X112440476Y-72095238D01*
X112488095Y-72190476D01*
X112202380Y-70714285D02*
X112202380Y-71190476D01*
X112678571Y-71238095D01*
X112630952Y-71190476D01*
X112583333Y-71095238D01*
X112583333Y-70857142D01*
X112630952Y-70761904D01*
X112678571Y-70714285D01*
X112773809Y-70666666D01*
X113011904Y-70666666D01*
X113107142Y-70714285D01*
X113154761Y-70761904D01*
X113202380Y-70857142D01*
X113202380Y-71095238D01*
X113154761Y-71190476D01*
X113107142Y-71238095D01*
X112202380Y-70380952D02*
X113202380Y-70047619D01*
X112202380Y-69714285D01*
X109702380Y-73166666D02*
X108702380Y-73166666D01*
X108702380Y-72928571D01*
X108750000Y-72785714D01*
X108845238Y-72690476D01*
X108940476Y-72642857D01*
X109130952Y-72595238D01*
X109273809Y-72595238D01*
X109464285Y-72642857D01*
X109559523Y-72690476D01*
X109654761Y-72785714D01*
X109702380Y-72928571D01*
X109702380Y-73166666D01*
X108702380Y-72261904D02*
X108702380Y-71595238D01*
X109702380Y-72261904D01*
X109702380Y-71595238D01*
X108702380Y-70785714D02*
X108702380Y-70976190D01*
X108750000Y-71071428D01*
X108797619Y-71119047D01*
X108940476Y-71214285D01*
X109130952Y-71261904D01*
X109511904Y-71261904D01*
X109607142Y-71214285D01*
X109654761Y-71166666D01*
X109702380Y-71071428D01*
X109702380Y-70880952D01*
X109654761Y-70785714D01*
X109607142Y-70738095D01*
X109511904Y-70690476D01*
X109273809Y-70690476D01*
X109178571Y-70738095D01*
X109130952Y-70785714D01*
X109083333Y-70880952D01*
X109083333Y-71071428D01*
X109130952Y-71166666D01*
X109178571Y-71214285D01*
X109273809Y-71261904D01*
X108702380Y-70071428D02*
X108702380Y-69976190D01*
X108750000Y-69880952D01*
X108797619Y-69833333D01*
X108892857Y-69785714D01*
X109083333Y-69738095D01*
X109321428Y-69738095D01*
X109511904Y-69785714D01*
X109607142Y-69833333D01*
X109654761Y-69880952D01*
X109702380Y-69976190D01*
X109702380Y-70071428D01*
X109654761Y-70166666D01*
X109607142Y-70214285D01*
X109511904Y-70261904D01*
X109321428Y-70309523D01*
X109083333Y-70309523D01*
X108892857Y-70261904D01*
X108797619Y-70214285D01*
X108750000Y-70166666D01*
X108702380Y-70071428D01*
X109035714Y-68880952D02*
X109702380Y-68880952D01*
X108654761Y-69119047D02*
X109369047Y-69357142D01*
X109369047Y-68738095D01*
X110202380Y-71619047D02*
X110202380Y-72190476D01*
X110202380Y-71904761D02*
X109202380Y-71904761D01*
X109345238Y-72000000D01*
X109440476Y-72095238D01*
X109488095Y-72190476D01*
X109202380Y-70714285D02*
X109202380Y-71190476D01*
X109678571Y-71238095D01*
X109630952Y-71190476D01*
X109583333Y-71095238D01*
X109583333Y-70857142D01*
X109630952Y-70761904D01*
X109678571Y-70714285D01*
X109773809Y-70666666D01*
X110011904Y-70666666D01*
X110107142Y-70714285D01*
X110154761Y-70761904D01*
X110202380Y-70857142D01*
X110202380Y-71095238D01*
X110154761Y-71190476D01*
X110107142Y-71238095D01*
X109202380Y-70380952D02*
X110202380Y-70047619D01*
X109202380Y-69714285D01*
X106702380Y-73166666D02*
X105702380Y-73166666D01*
X105702380Y-72928571D01*
X105750000Y-72785714D01*
X105845238Y-72690476D01*
X105940476Y-72642857D01*
X106130952Y-72595238D01*
X106273809Y-72595238D01*
X106464285Y-72642857D01*
X106559523Y-72690476D01*
X106654761Y-72785714D01*
X106702380Y-72928571D01*
X106702380Y-73166666D01*
X105702380Y-72261904D02*
X105702380Y-71595238D01*
X106702380Y-72261904D01*
X106702380Y-71595238D01*
X105702380Y-70785714D02*
X105702380Y-70976190D01*
X105750000Y-71071428D01*
X105797619Y-71119047D01*
X105940476Y-71214285D01*
X106130952Y-71261904D01*
X106511904Y-71261904D01*
X106607142Y-71214285D01*
X106654761Y-71166666D01*
X106702380Y-71071428D01*
X106702380Y-70880952D01*
X106654761Y-70785714D01*
X106607142Y-70738095D01*
X106511904Y-70690476D01*
X106273809Y-70690476D01*
X106178571Y-70738095D01*
X106130952Y-70785714D01*
X106083333Y-70880952D01*
X106083333Y-71071428D01*
X106130952Y-71166666D01*
X106178571Y-71214285D01*
X106273809Y-71261904D01*
X105702380Y-70071428D02*
X105702380Y-69976190D01*
X105750000Y-69880952D01*
X105797619Y-69833333D01*
X105892857Y-69785714D01*
X106083333Y-69738095D01*
X106321428Y-69738095D01*
X106511904Y-69785714D01*
X106607142Y-69833333D01*
X106654761Y-69880952D01*
X106702380Y-69976190D01*
X106702380Y-70071428D01*
X106654761Y-70166666D01*
X106607142Y-70214285D01*
X106511904Y-70261904D01*
X106321428Y-70309523D01*
X106083333Y-70309523D01*
X105892857Y-70261904D01*
X105797619Y-70214285D01*
X105750000Y-70166666D01*
X105702380Y-70071428D01*
X105702380Y-69404761D02*
X105702380Y-68785714D01*
X106083333Y-69119047D01*
X106083333Y-68976190D01*
X106130952Y-68880952D01*
X106178571Y-68833333D01*
X106273809Y-68785714D01*
X106511904Y-68785714D01*
X106607142Y-68833333D01*
X106654761Y-68880952D01*
X106702380Y-68976190D01*
X106702380Y-69261904D01*
X106654761Y-69357142D01*
X106607142Y-69404761D01*
X113202380Y-90119047D02*
X113202380Y-90690476D01*
X113202380Y-90404761D02*
X112202380Y-90404761D01*
X112345238Y-90500000D01*
X112440476Y-90595238D01*
X112488095Y-90690476D01*
X112202380Y-89214285D02*
X112202380Y-89690476D01*
X112678571Y-89738095D01*
X112630952Y-89690476D01*
X112583333Y-89595238D01*
X112583333Y-89357142D01*
X112630952Y-89261904D01*
X112678571Y-89214285D01*
X112773809Y-89166666D01*
X113011904Y-89166666D01*
X113107142Y-89214285D01*
X113154761Y-89261904D01*
X113202380Y-89357142D01*
X113202380Y-89595238D01*
X113154761Y-89690476D01*
X113107142Y-89738095D01*
X112202380Y-88880952D02*
X113202380Y-88547619D01*
X112202380Y-88214285D01*
X109702380Y-91666666D02*
X108702380Y-91666666D01*
X108702380Y-91428571D01*
X108750000Y-91285714D01*
X108845238Y-91190476D01*
X108940476Y-91142857D01*
X109130952Y-91095238D01*
X109273809Y-91095238D01*
X109464285Y-91142857D01*
X109559523Y-91190476D01*
X109654761Y-91285714D01*
X109702380Y-91428571D01*
X109702380Y-91666666D01*
X108702380Y-90761904D02*
X108702380Y-90095238D01*
X109702380Y-90761904D01*
X109702380Y-90095238D01*
X108702380Y-89285714D02*
X108702380Y-89476190D01*
X108750000Y-89571428D01*
X108797619Y-89619047D01*
X108940476Y-89714285D01*
X109130952Y-89761904D01*
X109511904Y-89761904D01*
X109607142Y-89714285D01*
X109654761Y-89666666D01*
X109702380Y-89571428D01*
X109702380Y-89380952D01*
X109654761Y-89285714D01*
X109607142Y-89238095D01*
X109511904Y-89190476D01*
X109273809Y-89190476D01*
X109178571Y-89238095D01*
X109130952Y-89285714D01*
X109083333Y-89380952D01*
X109083333Y-89571428D01*
X109130952Y-89666666D01*
X109178571Y-89714285D01*
X109273809Y-89761904D01*
X108702380Y-88571428D02*
X108702380Y-88476190D01*
X108750000Y-88380952D01*
X108797619Y-88333333D01*
X108892857Y-88285714D01*
X109083333Y-88238095D01*
X109321428Y-88238095D01*
X109511904Y-88285714D01*
X109607142Y-88333333D01*
X109654761Y-88380952D01*
X109702380Y-88476190D01*
X109702380Y-88571428D01*
X109654761Y-88666666D01*
X109607142Y-88714285D01*
X109511904Y-88761904D01*
X109321428Y-88809523D01*
X109083333Y-88809523D01*
X108892857Y-88761904D01*
X108797619Y-88714285D01*
X108750000Y-88666666D01*
X108702380Y-88571428D01*
X108797619Y-87857142D02*
X108750000Y-87809523D01*
X108702380Y-87714285D01*
X108702380Y-87476190D01*
X108750000Y-87380952D01*
X108797619Y-87333333D01*
X108892857Y-87285714D01*
X108988095Y-87285714D01*
X109130952Y-87333333D01*
X109702380Y-87904761D01*
X109702380Y-87285714D01*
X110202380Y-90119047D02*
X110202380Y-90690476D01*
X110202380Y-90404761D02*
X109202380Y-90404761D01*
X109345238Y-90500000D01*
X109440476Y-90595238D01*
X109488095Y-90690476D01*
X109202380Y-89214285D02*
X109202380Y-89690476D01*
X109678571Y-89738095D01*
X109630952Y-89690476D01*
X109583333Y-89595238D01*
X109583333Y-89357142D01*
X109630952Y-89261904D01*
X109678571Y-89214285D01*
X109773809Y-89166666D01*
X110011904Y-89166666D01*
X110107142Y-89214285D01*
X110154761Y-89261904D01*
X110202380Y-89357142D01*
X110202380Y-89595238D01*
X110154761Y-89690476D01*
X110107142Y-89738095D01*
X109202380Y-88880952D02*
X110202380Y-88547619D01*
X109202380Y-88214285D01*
X106702380Y-91666666D02*
X105702380Y-91666666D01*
X105702380Y-91428571D01*
X105750000Y-91285714D01*
X105845238Y-91190476D01*
X105940476Y-91142857D01*
X106130952Y-91095238D01*
X106273809Y-91095238D01*
X106464285Y-91142857D01*
X106559523Y-91190476D01*
X106654761Y-91285714D01*
X106702380Y-91428571D01*
X106702380Y-91666666D01*
X105702380Y-90761904D02*
X105702380Y-90095238D01*
X106702380Y-90761904D01*
X106702380Y-90095238D01*
X105702380Y-89285714D02*
X105702380Y-89476190D01*
X105750000Y-89571428D01*
X105797619Y-89619047D01*
X105940476Y-89714285D01*
X106130952Y-89761904D01*
X106511904Y-89761904D01*
X106607142Y-89714285D01*
X106654761Y-89666666D01*
X106702380Y-89571428D01*
X106702380Y-89380952D01*
X106654761Y-89285714D01*
X106607142Y-89238095D01*
X106511904Y-89190476D01*
X106273809Y-89190476D01*
X106178571Y-89238095D01*
X106130952Y-89285714D01*
X106083333Y-89380952D01*
X106083333Y-89571428D01*
X106130952Y-89666666D01*
X106178571Y-89714285D01*
X106273809Y-89761904D01*
X105702380Y-88571428D02*
X105702380Y-88476190D01*
X105750000Y-88380952D01*
X105797619Y-88333333D01*
X105892857Y-88285714D01*
X106083333Y-88238095D01*
X106321428Y-88238095D01*
X106511904Y-88285714D01*
X106607142Y-88333333D01*
X106654761Y-88380952D01*
X106702380Y-88476190D01*
X106702380Y-88571428D01*
X106654761Y-88666666D01*
X106607142Y-88714285D01*
X106511904Y-88761904D01*
X106321428Y-88809523D01*
X106083333Y-88809523D01*
X105892857Y-88761904D01*
X105797619Y-88714285D01*
X105750000Y-88666666D01*
X105702380Y-88571428D01*
X106702380Y-87285714D02*
X106702380Y-87857142D01*
X106702380Y-87571428D02*
X105702380Y-87571428D01*
X105845238Y-87666666D01*
X105940476Y-87761904D01*
X105988095Y-87857142D01*
X126928571Y-89095238D02*
X126928571Y-88761904D01*
X127452380Y-88619047D02*
X127452380Y-89095238D01*
X126452380Y-89095238D01*
X126452380Y-88619047D01*
X127404761Y-88238095D02*
X127452380Y-88095238D01*
X127452380Y-87857142D01*
X127404761Y-87761904D01*
X127357142Y-87714285D01*
X127261904Y-87666666D01*
X127166666Y-87666666D01*
X127071428Y-87714285D01*
X127023809Y-87761904D01*
X126976190Y-87857142D01*
X126928571Y-88047619D01*
X126880952Y-88142857D01*
X126833333Y-88190476D01*
X126738095Y-88238095D01*
X126642857Y-88238095D01*
X126547619Y-88190476D01*
X126500000Y-88142857D01*
X126452380Y-88047619D01*
X126452380Y-87809523D01*
X126500000Y-87666666D01*
X126547619Y-87285714D02*
X126500000Y-87238095D01*
X126452380Y-87142857D01*
X126452380Y-86904761D01*
X126500000Y-86809523D01*
X126547619Y-86761904D01*
X126642857Y-86714285D01*
X126738095Y-86714285D01*
X126880952Y-86761904D01*
X127452380Y-87333333D01*
X127452380Y-86714285D01*
X127166666Y-86333333D02*
X127166666Y-85857142D01*
X127452380Y-86428571D02*
X126452380Y-86095238D01*
X127452380Y-85761904D01*
X123952380Y-89190476D02*
X122952380Y-89190476D01*
X122952380Y-88952380D01*
X123000000Y-88809523D01*
X123095238Y-88714285D01*
X123190476Y-88666666D01*
X123380952Y-88619047D01*
X123523809Y-88619047D01*
X123714285Y-88666666D01*
X123809523Y-88714285D01*
X123904761Y-88809523D01*
X123952380Y-88952380D01*
X123952380Y-89190476D01*
X122952380Y-87761904D02*
X122952380Y-87952380D01*
X123000000Y-88047619D01*
X123047619Y-88095238D01*
X123190476Y-88190476D01*
X123380952Y-88238095D01*
X123761904Y-88238095D01*
X123857142Y-88190476D01*
X123904761Y-88142857D01*
X123952380Y-88047619D01*
X123952380Y-87857142D01*
X123904761Y-87761904D01*
X123857142Y-87714285D01*
X123761904Y-87666666D01*
X123523809Y-87666666D01*
X123428571Y-87714285D01*
X123380952Y-87761904D01*
X123333333Y-87857142D01*
X123333333Y-88047619D01*
X123380952Y-88142857D01*
X123428571Y-88190476D01*
X123523809Y-88238095D01*
X122952380Y-87047619D02*
X122952380Y-86952380D01*
X123000000Y-86857142D01*
X123047619Y-86809523D01*
X123142857Y-86761904D01*
X123333333Y-86714285D01*
X123571428Y-86714285D01*
X123761904Y-86761904D01*
X123857142Y-86809523D01*
X123904761Y-86857142D01*
X123952380Y-86952380D01*
X123952380Y-87047619D01*
X123904761Y-87142857D01*
X123857142Y-87190476D01*
X123761904Y-87238095D01*
X123571428Y-87285714D01*
X123333333Y-87285714D01*
X123142857Y-87238095D01*
X123047619Y-87190476D01*
X123000000Y-87142857D01*
X122952380Y-87047619D01*
X122952380Y-85809523D02*
X122952380Y-86285714D01*
X123428571Y-86333333D01*
X123380952Y-86285714D01*
X123333333Y-86190476D01*
X123333333Y-85952380D01*
X123380952Y-85857142D01*
X123428571Y-85809523D01*
X123523809Y-85761904D01*
X123761904Y-85761904D01*
X123857142Y-85809523D01*
X123904761Y-85857142D01*
X123952380Y-85952380D01*
X123952380Y-86190476D01*
X123904761Y-86285714D01*
X123857142Y-86333333D01*
X126928571Y-70595238D02*
X126928571Y-70261904D01*
X127452380Y-70119047D02*
X127452380Y-70595238D01*
X126452380Y-70595238D01*
X126452380Y-70119047D01*
X127404761Y-69738095D02*
X127452380Y-69595238D01*
X127452380Y-69357142D01*
X127404761Y-69261904D01*
X127357142Y-69214285D01*
X127261904Y-69166666D01*
X127166666Y-69166666D01*
X127071428Y-69214285D01*
X127023809Y-69261904D01*
X126976190Y-69357142D01*
X126928571Y-69547619D01*
X126880952Y-69642857D01*
X126833333Y-69690476D01*
X126738095Y-69738095D01*
X126642857Y-69738095D01*
X126547619Y-69690476D01*
X126500000Y-69642857D01*
X126452380Y-69547619D01*
X126452380Y-69309523D01*
X126500000Y-69166666D01*
X126547619Y-68785714D02*
X126500000Y-68738095D01*
X126452380Y-68642857D01*
X126452380Y-68404761D01*
X126500000Y-68309523D01*
X126547619Y-68261904D01*
X126642857Y-68214285D01*
X126738095Y-68214285D01*
X126880952Y-68261904D01*
X127452380Y-68833333D01*
X127452380Y-68214285D01*
X127166666Y-67833333D02*
X127166666Y-67357142D01*
X127452380Y-67928571D02*
X126452380Y-67595238D01*
X127452380Y-67261904D01*
X123952380Y-70690476D02*
X122952380Y-70690476D01*
X122952380Y-70452380D01*
X123000000Y-70309523D01*
X123095238Y-70214285D01*
X123190476Y-70166666D01*
X123380952Y-70119047D01*
X123523809Y-70119047D01*
X123714285Y-70166666D01*
X123809523Y-70214285D01*
X123904761Y-70309523D01*
X123952380Y-70452380D01*
X123952380Y-70690476D01*
X122952380Y-69261904D02*
X122952380Y-69452380D01*
X123000000Y-69547619D01*
X123047619Y-69595238D01*
X123190476Y-69690476D01*
X123380952Y-69738095D01*
X123761904Y-69738095D01*
X123857142Y-69690476D01*
X123904761Y-69642857D01*
X123952380Y-69547619D01*
X123952380Y-69357142D01*
X123904761Y-69261904D01*
X123857142Y-69214285D01*
X123761904Y-69166666D01*
X123523809Y-69166666D01*
X123428571Y-69214285D01*
X123380952Y-69261904D01*
X123333333Y-69357142D01*
X123333333Y-69547619D01*
X123380952Y-69642857D01*
X123428571Y-69690476D01*
X123523809Y-69738095D01*
X122952380Y-68547619D02*
X122952380Y-68452380D01*
X123000000Y-68357142D01*
X123047619Y-68309523D01*
X123142857Y-68261904D01*
X123333333Y-68214285D01*
X123571428Y-68214285D01*
X123761904Y-68261904D01*
X123857142Y-68309523D01*
X123904761Y-68357142D01*
X123952380Y-68452380D01*
X123952380Y-68547619D01*
X123904761Y-68642857D01*
X123857142Y-68690476D01*
X123761904Y-68738095D01*
X123571428Y-68785714D01*
X123333333Y-68785714D01*
X123142857Y-68738095D01*
X123047619Y-68690476D01*
X123000000Y-68642857D01*
X122952380Y-68547619D01*
X123285714Y-67357142D02*
X123952380Y-67357142D01*
X122904761Y-67595238D02*
X123619047Y-67833333D01*
X123619047Y-67214285D01*
X103702380Y-73000000D02*
X103702380Y-73476190D01*
X102702380Y-73476190D01*
X103702380Y-72190476D02*
X103702380Y-72666666D01*
X102702380Y-72666666D01*
X103035714Y-71428571D02*
X103702380Y-71428571D01*
X102654761Y-71666666D02*
X103369047Y-71904761D01*
X103369047Y-71285714D01*
X103702380Y-70380952D02*
X103702380Y-70952380D01*
X103702380Y-70666666D02*
X102702380Y-70666666D01*
X102845238Y-70761904D01*
X102940476Y-70857142D01*
X102988095Y-70952380D01*
X103035714Y-69523809D02*
X103702380Y-69523809D01*
X102654761Y-69761904D02*
X103369047Y-70000000D01*
X103369047Y-69380952D01*
X103130952Y-68857142D02*
X103083333Y-68952380D01*
X103035714Y-69000000D01*
X102940476Y-69047619D01*
X102892857Y-69047619D01*
X102797619Y-69000000D01*
X102750000Y-68952380D01*
X102702380Y-68857142D01*
X102702380Y-68666666D01*
X102750000Y-68571428D01*
X102797619Y-68523809D01*
X102892857Y-68476190D01*
X102940476Y-68476190D01*
X103035714Y-68523809D01*
X103083333Y-68571428D01*
X103130952Y-68666666D01*
X103130952Y-68857142D01*
X103178571Y-68952380D01*
X103226190Y-69000000D01*
X103321428Y-69047619D01*
X103511904Y-69047619D01*
X103607142Y-69000000D01*
X103654761Y-68952380D01*
X103702380Y-68857142D01*
X103702380Y-68666666D01*
X103654761Y-68571428D01*
X103607142Y-68523809D01*
X103511904Y-68476190D01*
X103321428Y-68476190D01*
X103226190Y-68523809D01*
X103178571Y-68571428D01*
X103130952Y-68666666D01*
X107202380Y-72690476D02*
X106202380Y-72690476D01*
X106202380Y-72452380D01*
X106250000Y-72309523D01*
X106345238Y-72214285D01*
X106440476Y-72166666D01*
X106630952Y-72119047D01*
X106773809Y-72119047D01*
X106964285Y-72166666D01*
X107059523Y-72214285D01*
X107154761Y-72309523D01*
X107202380Y-72452380D01*
X107202380Y-72690476D01*
X106202380Y-71261904D02*
X106202380Y-71452380D01*
X106250000Y-71547619D01*
X106297619Y-71595238D01*
X106440476Y-71690476D01*
X106630952Y-71738095D01*
X107011904Y-71738095D01*
X107107142Y-71690476D01*
X107154761Y-71642857D01*
X107202380Y-71547619D01*
X107202380Y-71357142D01*
X107154761Y-71261904D01*
X107107142Y-71214285D01*
X107011904Y-71166666D01*
X106773809Y-71166666D01*
X106678571Y-71214285D01*
X106630952Y-71261904D01*
X106583333Y-71357142D01*
X106583333Y-71547619D01*
X106630952Y-71642857D01*
X106678571Y-71690476D01*
X106773809Y-71738095D01*
X106202380Y-70547619D02*
X106202380Y-70452380D01*
X106250000Y-70357142D01*
X106297619Y-70309523D01*
X106392857Y-70261904D01*
X106583333Y-70214285D01*
X106821428Y-70214285D01*
X107011904Y-70261904D01*
X107107142Y-70309523D01*
X107154761Y-70357142D01*
X107202380Y-70452380D01*
X107202380Y-70547619D01*
X107154761Y-70642857D01*
X107107142Y-70690476D01*
X107011904Y-70738095D01*
X106821428Y-70785714D01*
X106583333Y-70785714D01*
X106392857Y-70738095D01*
X106297619Y-70690476D01*
X106250000Y-70642857D01*
X106202380Y-70547619D01*
X106202380Y-69880952D02*
X106202380Y-69261904D01*
X106583333Y-69595238D01*
X106583333Y-69452380D01*
X106630952Y-69357142D01*
X106678571Y-69309523D01*
X106773809Y-69261904D01*
X107011904Y-69261904D01*
X107107142Y-69309523D01*
X107154761Y-69357142D01*
X107202380Y-69452380D01*
X107202380Y-69738095D01*
X107154761Y-69833333D01*
X107107142Y-69880952D01*
X84702380Y-96500000D02*
X84702380Y-96976190D01*
X83702380Y-96976190D01*
X84702380Y-95690476D02*
X84702380Y-96166666D01*
X83702380Y-96166666D01*
X84035714Y-94928571D02*
X84702380Y-94928571D01*
X83654761Y-95166666D02*
X84369047Y-95404761D01*
X84369047Y-94785714D01*
X84702380Y-93880952D02*
X84702380Y-94452380D01*
X84702380Y-94166666D02*
X83702380Y-94166666D01*
X83845238Y-94261904D01*
X83940476Y-94357142D01*
X83988095Y-94452380D01*
X84035714Y-93023809D02*
X84702380Y-93023809D01*
X83654761Y-93261904D02*
X84369047Y-93500000D01*
X84369047Y-92880952D01*
X84130952Y-92357142D02*
X84083333Y-92452380D01*
X84035714Y-92500000D01*
X83940476Y-92547619D01*
X83892857Y-92547619D01*
X83797619Y-92500000D01*
X83750000Y-92452380D01*
X83702380Y-92357142D01*
X83702380Y-92166666D01*
X83750000Y-92071428D01*
X83797619Y-92023809D01*
X83892857Y-91976190D01*
X83940476Y-91976190D01*
X84035714Y-92023809D01*
X84083333Y-92071428D01*
X84130952Y-92166666D01*
X84130952Y-92357142D01*
X84178571Y-92452380D01*
X84226190Y-92500000D01*
X84321428Y-92547619D01*
X84511904Y-92547619D01*
X84607142Y-92500000D01*
X84654761Y-92452380D01*
X84702380Y-92357142D01*
X84702380Y-92166666D01*
X84654761Y-92071428D01*
X84607142Y-92023809D01*
X84511904Y-91976190D01*
X84321428Y-91976190D01*
X84226190Y-92023809D01*
X84178571Y-92071428D01*
X84130952Y-92166666D01*
X88202380Y-96190476D02*
X87202380Y-96190476D01*
X87202380Y-95952380D01*
X87250000Y-95809523D01*
X87345238Y-95714285D01*
X87440476Y-95666666D01*
X87630952Y-95619047D01*
X87773809Y-95619047D01*
X87964285Y-95666666D01*
X88059523Y-95714285D01*
X88154761Y-95809523D01*
X88202380Y-95952380D01*
X88202380Y-96190476D01*
X87202380Y-94761904D02*
X87202380Y-94952380D01*
X87250000Y-95047619D01*
X87297619Y-95095238D01*
X87440476Y-95190476D01*
X87630952Y-95238095D01*
X88011904Y-95238095D01*
X88107142Y-95190476D01*
X88154761Y-95142857D01*
X88202380Y-95047619D01*
X88202380Y-94857142D01*
X88154761Y-94761904D01*
X88107142Y-94714285D01*
X88011904Y-94666666D01*
X87773809Y-94666666D01*
X87678571Y-94714285D01*
X87630952Y-94761904D01*
X87583333Y-94857142D01*
X87583333Y-95047619D01*
X87630952Y-95142857D01*
X87678571Y-95190476D01*
X87773809Y-95238095D01*
X87202380Y-94047619D02*
X87202380Y-93952380D01*
X87250000Y-93857142D01*
X87297619Y-93809523D01*
X87392857Y-93761904D01*
X87583333Y-93714285D01*
X87821428Y-93714285D01*
X88011904Y-93761904D01*
X88107142Y-93809523D01*
X88154761Y-93857142D01*
X88202380Y-93952380D01*
X88202380Y-94047619D01*
X88154761Y-94142857D01*
X88107142Y-94190476D01*
X88011904Y-94238095D01*
X87821428Y-94285714D01*
X87583333Y-94285714D01*
X87392857Y-94238095D01*
X87297619Y-94190476D01*
X87250000Y-94142857D01*
X87202380Y-94047619D01*
X88202380Y-92761904D02*
X88202380Y-93333333D01*
X88202380Y-93047619D02*
X87202380Y-93047619D01*
X87345238Y-93142857D01*
X87440476Y-93238095D01*
X87488095Y-93333333D01*
X91802380Y-94547619D02*
X91802380Y-95119047D01*
X91802380Y-94833333D02*
X90802380Y-94833333D01*
X90945238Y-94928571D01*
X91040476Y-95023809D01*
X91088095Y-95119047D01*
X90802380Y-93928571D02*
X90802380Y-93833333D01*
X90850000Y-93738095D01*
X90897619Y-93690476D01*
X90992857Y-93642857D01*
X91183333Y-93595238D01*
X91421428Y-93595238D01*
X91611904Y-93642857D01*
X91707142Y-93690476D01*
X91754761Y-93738095D01*
X91802380Y-93833333D01*
X91802380Y-93928571D01*
X91754761Y-94023809D01*
X91707142Y-94071428D01*
X91611904Y-94119047D01*
X91421428Y-94166666D01*
X91183333Y-94166666D01*
X90992857Y-94119047D01*
X90897619Y-94071428D01*
X90850000Y-94023809D01*
X90802380Y-93928571D01*
X90802380Y-92976190D02*
X90802380Y-92880952D01*
X90850000Y-92785714D01*
X90897619Y-92738095D01*
X90992857Y-92690476D01*
X91183333Y-92642857D01*
X91421428Y-92642857D01*
X91611904Y-92690476D01*
X91707142Y-92738095D01*
X91754761Y-92785714D01*
X91802380Y-92880952D01*
X91802380Y-92976190D01*
X91754761Y-93071428D01*
X91707142Y-93119047D01*
X91611904Y-93166666D01*
X91421428Y-93214285D01*
X91183333Y-93214285D01*
X90992857Y-93166666D01*
X90897619Y-93119047D01*
X90850000Y-93071428D01*
X90802380Y-92976190D01*
X91135714Y-92214285D02*
X91802380Y-92214285D01*
X91230952Y-92214285D02*
X91183333Y-92166666D01*
X91135714Y-92071428D01*
X91135714Y-91928571D01*
X91183333Y-91833333D01*
X91278571Y-91785714D01*
X91802380Y-91785714D01*
X91278571Y-90976190D02*
X91278571Y-91309523D01*
X91802380Y-91309523D02*
X90802380Y-91309523D01*
X90802380Y-90833333D01*
D13*
X93178571Y-93559523D02*
X93202380Y-93583333D01*
X93226190Y-93654761D01*
X93226190Y-93702380D01*
X93202380Y-93773809D01*
X93154761Y-93821428D01*
X93107142Y-93845238D01*
X93011904Y-93869047D01*
X92940476Y-93869047D01*
X92845238Y-93845238D01*
X92797619Y-93821428D01*
X92750000Y-93773809D01*
X92726190Y-93702380D01*
X92726190Y-93654761D01*
X92750000Y-93583333D01*
X92773809Y-93559523D01*
X92726190Y-93130952D02*
X92726190Y-93226190D01*
X92750000Y-93273809D01*
X92773809Y-93297619D01*
X92845238Y-93345238D01*
X92940476Y-93369047D01*
X93130952Y-93369047D01*
X93178571Y-93345238D01*
X93202380Y-93321428D01*
X93226190Y-93273809D01*
X93226190Y-93178571D01*
X93202380Y-93130952D01*
X93178571Y-93107142D01*
X93130952Y-93083333D01*
X93011904Y-93083333D01*
X92964285Y-93107142D01*
X92940476Y-93130952D01*
X92916666Y-93178571D01*
X92916666Y-93273809D01*
X92940476Y-93321428D01*
X92964285Y-93345238D01*
X93011904Y-93369047D01*
X92726190Y-92773809D02*
X92726190Y-92726190D01*
X92750000Y-92678571D01*
X92773809Y-92654761D01*
X92821428Y-92630952D01*
X92916666Y-92607142D01*
X93035714Y-92607142D01*
X93130952Y-92630952D01*
X93178571Y-92654761D01*
X93202380Y-92678571D01*
X93226190Y-92726190D01*
X93226190Y-92773809D01*
X93202380Y-92821428D01*
X93178571Y-92845238D01*
X93130952Y-92869047D01*
X93035714Y-92892857D01*
X92916666Y-92892857D01*
X92821428Y-92869047D01*
X92773809Y-92845238D01*
X92750000Y-92821428D01*
X92726190Y-92773809D01*
X92726190Y-92154761D02*
X92726190Y-92392857D01*
X92964285Y-92416666D01*
X92940476Y-92392857D01*
X92916666Y-92345238D01*
X92916666Y-92226190D01*
X92940476Y-92178571D01*
X92964285Y-92154761D01*
X93011904Y-92130952D01*
X93130952Y-92130952D01*
X93178571Y-92154761D01*
X93202380Y-92178571D01*
X93226190Y-92226190D01*
X93226190Y-92345238D01*
X93202380Y-92392857D01*
X93178571Y-92416666D01*
D11*
X87402380Y-96095238D02*
X87402380Y-96666666D01*
X87402380Y-96380952D02*
X86402380Y-96380952D01*
X86545238Y-96476190D01*
X86640476Y-96571428D01*
X86688095Y-96666666D01*
X86735714Y-95238095D02*
X87402380Y-95238095D01*
X86735714Y-95666666D02*
X87259523Y-95666666D01*
X87354761Y-95619047D01*
X87402380Y-95523809D01*
X87402380Y-95380952D01*
X87354761Y-95285714D01*
X87307142Y-95238095D01*
X86878571Y-94428571D02*
X86878571Y-94761904D01*
X87402380Y-94761904D02*
X86402380Y-94761904D01*
X86402380Y-94285714D01*
X89857142Y-96619047D02*
X89904761Y-96666666D01*
X89952380Y-96809523D01*
X89952380Y-96904761D01*
X89904761Y-97047619D01*
X89809523Y-97142857D01*
X89714285Y-97190476D01*
X89523809Y-97238095D01*
X89380952Y-97238095D01*
X89190476Y-97190476D01*
X89095238Y-97142857D01*
X89000000Y-97047619D01*
X88952380Y-96904761D01*
X88952380Y-96809523D01*
X89000000Y-96666666D01*
X89047619Y-96619047D01*
X88952380Y-95761904D02*
X88952380Y-95952380D01*
X89000000Y-96047619D01*
X89047619Y-96095238D01*
X89190476Y-96190476D01*
X89380952Y-96238095D01*
X89761904Y-96238095D01*
X89857142Y-96190476D01*
X89904761Y-96142857D01*
X89952380Y-96047619D01*
X89952380Y-95857142D01*
X89904761Y-95761904D01*
X89857142Y-95714285D01*
X89761904Y-95666666D01*
X89523809Y-95666666D01*
X89428571Y-95714285D01*
X89380952Y-95761904D01*
X89333333Y-95857142D01*
X89333333Y-96047619D01*
X89380952Y-96142857D01*
X89428571Y-96190476D01*
X89523809Y-96238095D01*
X88952380Y-95047619D02*
X88952380Y-94952380D01*
X89000000Y-94857142D01*
X89047619Y-94809523D01*
X89142857Y-94761904D01*
X89333333Y-94714285D01*
X89571428Y-94714285D01*
X89761904Y-94761904D01*
X89857142Y-94809523D01*
X89904761Y-94857142D01*
X89952380Y-94952380D01*
X89952380Y-95047619D01*
X89904761Y-95142857D01*
X89857142Y-95190476D01*
X89761904Y-95238095D01*
X89571428Y-95285714D01*
X89333333Y-95285714D01*
X89142857Y-95238095D01*
X89047619Y-95190476D01*
X89000000Y-95142857D01*
X88952380Y-95047619D01*
X89285714Y-93857142D02*
X89952380Y-93857142D01*
X88904761Y-94095238D02*
X89619047Y-94333333D01*
X89619047Y-93714285D01*
X93285714Y-112666666D02*
X93952380Y-112666666D01*
X92904761Y-112904761D02*
X93619047Y-113142857D01*
X93619047Y-112523809D01*
X92952380Y-112238095D02*
X92952380Y-111571428D01*
X93952380Y-112000000D01*
X93285714Y-110761904D02*
X93952380Y-110761904D01*
X93285714Y-111190476D02*
X93809523Y-111190476D01*
X93904761Y-111142857D01*
X93952380Y-111047619D01*
X93952380Y-110904761D01*
X93904761Y-110809523D01*
X93857142Y-110761904D01*
X93428571Y-109952380D02*
X93428571Y-110285714D01*
X93952380Y-110285714D02*
X92952380Y-110285714D01*
X92952380Y-109809523D01*
X86357142Y-112619047D02*
X86404761Y-112666666D01*
X86452380Y-112809523D01*
X86452380Y-112904761D01*
X86404761Y-113047619D01*
X86309523Y-113142857D01*
X86214285Y-113190476D01*
X86023809Y-113238095D01*
X85880952Y-113238095D01*
X85690476Y-113190476D01*
X85595238Y-113142857D01*
X85500000Y-113047619D01*
X85452380Y-112904761D01*
X85452380Y-112809523D01*
X85500000Y-112666666D01*
X85547619Y-112619047D01*
X85452380Y-111761904D02*
X85452380Y-111952380D01*
X85500000Y-112047619D01*
X85547619Y-112095238D01*
X85690476Y-112190476D01*
X85880952Y-112238095D01*
X86261904Y-112238095D01*
X86357142Y-112190476D01*
X86404761Y-112142857D01*
X86452380Y-112047619D01*
X86452380Y-111857142D01*
X86404761Y-111761904D01*
X86357142Y-111714285D01*
X86261904Y-111666666D01*
X86023809Y-111666666D01*
X85928571Y-111714285D01*
X85880952Y-111761904D01*
X85833333Y-111857142D01*
X85833333Y-112047619D01*
X85880952Y-112142857D01*
X85928571Y-112190476D01*
X86023809Y-112238095D01*
X85452380Y-111047619D02*
X85452380Y-110952380D01*
X85500000Y-110857142D01*
X85547619Y-110809523D01*
X85642857Y-110761904D01*
X85833333Y-110714285D01*
X86071428Y-110714285D01*
X86261904Y-110761904D01*
X86357142Y-110809523D01*
X86404761Y-110857142D01*
X86452380Y-110952380D01*
X86452380Y-111047619D01*
X86404761Y-111142857D01*
X86357142Y-111190476D01*
X86261904Y-111238095D01*
X86071428Y-111285714D01*
X85833333Y-111285714D01*
X85642857Y-111238095D01*
X85547619Y-111190476D01*
X85500000Y-111142857D01*
X85452380Y-111047619D01*
X85452380Y-110380952D02*
X85452380Y-109761904D01*
X85833333Y-110095238D01*
X85833333Y-109952380D01*
X85880952Y-109857142D01*
X85928571Y-109809523D01*
X86023809Y-109761904D01*
X86261904Y-109761904D01*
X86357142Y-109809523D01*
X86404761Y-109857142D01*
X86452380Y-109952380D01*
X86452380Y-110238095D01*
X86404761Y-110333333D01*
X86357142Y-110380952D01*
X64035714Y-73119047D02*
X64702380Y-73119047D01*
X63654761Y-73357142D02*
X64369047Y-73595238D01*
X64369047Y-72976190D01*
X63702380Y-72690476D02*
X63702380Y-72023809D01*
X64702380Y-72452380D01*
X63702380Y-71452380D02*
X63702380Y-71357142D01*
X63750000Y-71261904D01*
X63797619Y-71214285D01*
X63892857Y-71166666D01*
X64083333Y-71119047D01*
X64321428Y-71119047D01*
X64511904Y-71166666D01*
X64607142Y-71214285D01*
X64654761Y-71261904D01*
X64702380Y-71357142D01*
X64702380Y-71452380D01*
X64654761Y-71547619D01*
X64607142Y-71595238D01*
X64511904Y-71642857D01*
X64321428Y-71690476D01*
X64083333Y-71690476D01*
X63892857Y-71642857D01*
X63797619Y-71595238D01*
X63750000Y-71547619D01*
X63702380Y-71452380D01*
X63702380Y-70500000D02*
X63702380Y-70404761D01*
X63750000Y-70309523D01*
X63797619Y-70261904D01*
X63892857Y-70214285D01*
X64083333Y-70166666D01*
X64321428Y-70166666D01*
X64511904Y-70214285D01*
X64607142Y-70261904D01*
X64654761Y-70309523D01*
X64702380Y-70404761D01*
X64702380Y-70500000D01*
X64654761Y-70595238D01*
X64607142Y-70642857D01*
X64511904Y-70690476D01*
X64321428Y-70738095D01*
X64083333Y-70738095D01*
X63892857Y-70690476D01*
X63797619Y-70642857D01*
X63750000Y-70595238D01*
X63702380Y-70500000D01*
X64035714Y-69309523D02*
X64702380Y-69309523D01*
X64035714Y-69738095D02*
X64559523Y-69738095D01*
X64654761Y-69690476D01*
X64702380Y-69595238D01*
X64702380Y-69452380D01*
X64654761Y-69357142D01*
X64607142Y-69309523D01*
X64178571Y-68500000D02*
X64178571Y-68833333D01*
X64702380Y-68833333D02*
X63702380Y-68833333D01*
X63702380Y-68357142D01*
X83357142Y-72119047D02*
X83404761Y-72166666D01*
X83452380Y-72309523D01*
X83452380Y-72404761D01*
X83404761Y-72547619D01*
X83309523Y-72642857D01*
X83214285Y-72690476D01*
X83023809Y-72738095D01*
X82880952Y-72738095D01*
X82690476Y-72690476D01*
X82595238Y-72642857D01*
X82500000Y-72547619D01*
X82452380Y-72404761D01*
X82452380Y-72309523D01*
X82500000Y-72166666D01*
X82547619Y-72119047D01*
X82452380Y-71261904D02*
X82452380Y-71452380D01*
X82500000Y-71547619D01*
X82547619Y-71595238D01*
X82690476Y-71690476D01*
X82880952Y-71738095D01*
X83261904Y-71738095D01*
X83357142Y-71690476D01*
X83404761Y-71642857D01*
X83452380Y-71547619D01*
X83452380Y-71357142D01*
X83404761Y-71261904D01*
X83357142Y-71214285D01*
X83261904Y-71166666D01*
X83023809Y-71166666D01*
X82928571Y-71214285D01*
X82880952Y-71261904D01*
X82833333Y-71357142D01*
X82833333Y-71547619D01*
X82880952Y-71642857D01*
X82928571Y-71690476D01*
X83023809Y-71738095D01*
X82452380Y-70547619D02*
X82452380Y-70452380D01*
X82500000Y-70357142D01*
X82547619Y-70309523D01*
X82642857Y-70261904D01*
X82833333Y-70214285D01*
X83071428Y-70214285D01*
X83261904Y-70261904D01*
X83357142Y-70309523D01*
X83404761Y-70357142D01*
X83452380Y-70452380D01*
X83452380Y-70547619D01*
X83404761Y-70642857D01*
X83357142Y-70690476D01*
X83261904Y-70738095D01*
X83071428Y-70785714D01*
X82833333Y-70785714D01*
X82642857Y-70738095D01*
X82547619Y-70690476D01*
X82500000Y-70642857D01*
X82452380Y-70547619D01*
X82547619Y-69833333D02*
X82500000Y-69785714D01*
X82452380Y-69690476D01*
X82452380Y-69452380D01*
X82500000Y-69357142D01*
X82547619Y-69309523D01*
X82642857Y-69261904D01*
X82738095Y-69261904D01*
X82880952Y-69309523D01*
X83452380Y-69880952D01*
X83452380Y-69261904D01*
X95102380Y-90047619D02*
X95102380Y-90619047D01*
X95102380Y-90333333D02*
X94102380Y-90333333D01*
X94245238Y-90428571D01*
X94340476Y-90523809D01*
X94388095Y-90619047D01*
X94102380Y-89428571D02*
X94102380Y-89333333D01*
X94150000Y-89238095D01*
X94197619Y-89190476D01*
X94292857Y-89142857D01*
X94483333Y-89095238D01*
X94721428Y-89095238D01*
X94911904Y-89142857D01*
X95007142Y-89190476D01*
X95054761Y-89238095D01*
X95102380Y-89333333D01*
X95102380Y-89428571D01*
X95054761Y-89523809D01*
X95007142Y-89571428D01*
X94911904Y-89619047D01*
X94721428Y-89666666D01*
X94483333Y-89666666D01*
X94292857Y-89619047D01*
X94197619Y-89571428D01*
X94150000Y-89523809D01*
X94102380Y-89428571D01*
X94102380Y-88476190D02*
X94102380Y-88380952D01*
X94150000Y-88285714D01*
X94197619Y-88238095D01*
X94292857Y-88190476D01*
X94483333Y-88142857D01*
X94721428Y-88142857D01*
X94911904Y-88190476D01*
X95007142Y-88238095D01*
X95054761Y-88285714D01*
X95102380Y-88380952D01*
X95102380Y-88476190D01*
X95054761Y-88571428D01*
X95007142Y-88619047D01*
X94911904Y-88666666D01*
X94721428Y-88714285D01*
X94483333Y-88714285D01*
X94292857Y-88666666D01*
X94197619Y-88619047D01*
X94150000Y-88571428D01*
X94102380Y-88476190D01*
X94435714Y-87714285D02*
X95102380Y-87714285D01*
X94530952Y-87714285D02*
X94483333Y-87666666D01*
X94435714Y-87571428D01*
X94435714Y-87428571D01*
X94483333Y-87333333D01*
X94578571Y-87285714D01*
X95102380Y-87285714D01*
X94578571Y-86476190D02*
X94578571Y-86809523D01*
X95102380Y-86809523D02*
X94102380Y-86809523D01*
X94102380Y-86333333D01*
D13*
X93178571Y-89059523D02*
X93202380Y-89083333D01*
X93226190Y-89154761D01*
X93226190Y-89202380D01*
X93202380Y-89273809D01*
X93154761Y-89321428D01*
X93107142Y-89345238D01*
X93011904Y-89369047D01*
X92940476Y-89369047D01*
X92845238Y-89345238D01*
X92797619Y-89321428D01*
X92750000Y-89273809D01*
X92726190Y-89202380D01*
X92726190Y-89154761D01*
X92750000Y-89083333D01*
X92773809Y-89059523D01*
X92726190Y-88630952D02*
X92726190Y-88726190D01*
X92750000Y-88773809D01*
X92773809Y-88797619D01*
X92845238Y-88845238D01*
X92940476Y-88869047D01*
X93130952Y-88869047D01*
X93178571Y-88845238D01*
X93202380Y-88821428D01*
X93226190Y-88773809D01*
X93226190Y-88678571D01*
X93202380Y-88630952D01*
X93178571Y-88607142D01*
X93130952Y-88583333D01*
X93011904Y-88583333D01*
X92964285Y-88607142D01*
X92940476Y-88630952D01*
X92916666Y-88678571D01*
X92916666Y-88773809D01*
X92940476Y-88821428D01*
X92964285Y-88845238D01*
X93011904Y-88869047D01*
X92726190Y-88273809D02*
X92726190Y-88226190D01*
X92750000Y-88178571D01*
X92773809Y-88154761D01*
X92821428Y-88130952D01*
X92916666Y-88107142D01*
X93035714Y-88107142D01*
X93130952Y-88130952D01*
X93178571Y-88154761D01*
X93202380Y-88178571D01*
X93226190Y-88226190D01*
X93226190Y-88273809D01*
X93202380Y-88321428D01*
X93178571Y-88345238D01*
X93130952Y-88369047D01*
X93035714Y-88392857D01*
X92916666Y-88392857D01*
X92821428Y-88369047D01*
X92773809Y-88345238D01*
X92750000Y-88321428D01*
X92726190Y-88273809D01*
X93226190Y-87630952D02*
X93226190Y-87916666D01*
X93226190Y-87773809D02*
X92726190Y-87773809D01*
X92797619Y-87821428D01*
X92845238Y-87869047D01*
X92869047Y-87916666D01*
D11*
X193238095Y-93512380D02*
X193238095Y-92512380D01*
X193476190Y-92512380D01*
X193619047Y-92560000D01*
X193714285Y-92655238D01*
X193761904Y-92750476D01*
X193809523Y-92940952D01*
X193809523Y-93083809D01*
X193761904Y-93274285D01*
X193714285Y-93369523D01*
X193619047Y-93464761D01*
X193476190Y-93512380D01*
X193238095Y-93512380D01*
X194238095Y-93512380D02*
X194238095Y-92512380D01*
X194666666Y-93464761D02*
X194809523Y-93512380D01*
X195047619Y-93512380D01*
X195142857Y-93464761D01*
X195190476Y-93417142D01*
X195238095Y-93321904D01*
X195238095Y-93226666D01*
X195190476Y-93131428D01*
X195142857Y-93083809D01*
X195047619Y-93036190D01*
X194857142Y-92988571D01*
X194761904Y-92940952D01*
X194714285Y-92893333D01*
X194666666Y-92798095D01*
X194666666Y-92702857D01*
X194714285Y-92607619D01*
X194761904Y-92560000D01*
X194857142Y-92512380D01*
X195095238Y-92512380D01*
X195238095Y-92560000D01*
X195619047Y-93226666D02*
X196095238Y-93226666D01*
X195523809Y-93512380D02*
X195857142Y-92512380D01*
X196190476Y-93512380D01*
X196857142Y-92988571D02*
X197000000Y-93036190D01*
X197047619Y-93083809D01*
X197095238Y-93179047D01*
X197095238Y-93321904D01*
X197047619Y-93417142D01*
X197000000Y-93464761D01*
X196904761Y-93512380D01*
X196523809Y-93512380D01*
X196523809Y-92512380D01*
X196857142Y-92512380D01*
X196952380Y-92560000D01*
X197000000Y-92607619D01*
X197047619Y-92702857D01*
X197047619Y-92798095D01*
X197000000Y-92893333D01*
X196952380Y-92940952D01*
X196857142Y-92988571D01*
X196523809Y-92988571D01*
X198000000Y-93512380D02*
X197523809Y-93512380D01*
X197523809Y-92512380D01*
X198333333Y-92988571D02*
X198666666Y-92988571D01*
X198809523Y-93512380D02*
X198333333Y-93512380D01*
X198333333Y-92512380D01*
X198809523Y-92512380D01*
X195452380Y-90305714D02*
X196166666Y-90305714D01*
X196309523Y-90353333D01*
X196404761Y-90448571D01*
X196452380Y-90591428D01*
X196452380Y-90686666D01*
X195785714Y-89400952D02*
X196452380Y-89400952D01*
X195404761Y-89639047D02*
X196119047Y-89877142D01*
X196119047Y-89258095D01*
X195452380Y-88686666D02*
X195452380Y-88591428D01*
X195500000Y-88496190D01*
X195547619Y-88448571D01*
X195642857Y-88400952D01*
X195833333Y-88353333D01*
X196071428Y-88353333D01*
X196261904Y-88400952D01*
X196357142Y-88448571D01*
X196404761Y-88496190D01*
X196452380Y-88591428D01*
X196452380Y-88686666D01*
X196404761Y-88781904D01*
X196357142Y-88829523D01*
X196261904Y-88877142D01*
X196071428Y-88924761D01*
X195833333Y-88924761D01*
X195642857Y-88877142D01*
X195547619Y-88829523D01*
X195500000Y-88781904D01*
X195452380Y-88686666D01*
X195547619Y-87972380D02*
X195500000Y-87924761D01*
X195452380Y-87829523D01*
X195452380Y-87591428D01*
X195500000Y-87496190D01*
X195547619Y-87448571D01*
X195642857Y-87400952D01*
X195738095Y-87400952D01*
X195880952Y-87448571D01*
X196452380Y-88020000D01*
X196452380Y-87400952D01*
X176697142Y-85766666D02*
X177173333Y-85766666D01*
X176601904Y-86052380D02*
X176935238Y-85052380D01*
X177268571Y-86052380D01*
X177459047Y-85052380D02*
X178030476Y-85052380D01*
X177744761Y-86052380D02*
X177744761Y-85052380D01*
X178363809Y-86052380D02*
X178363809Y-85052380D01*
X178697142Y-85766666D01*
X179030476Y-85052380D01*
X179030476Y-86052380D01*
X179506666Y-85528571D02*
X179840000Y-85528571D01*
X179982857Y-86052380D02*
X179506666Y-86052380D01*
X179506666Y-85052380D01*
X179982857Y-85052380D01*
X180935238Y-85100000D02*
X180840000Y-85052380D01*
X180697142Y-85052380D01*
X180554285Y-85100000D01*
X180459047Y-85195238D01*
X180411428Y-85290476D01*
X180363809Y-85480952D01*
X180363809Y-85623809D01*
X180411428Y-85814285D01*
X180459047Y-85909523D01*
X180554285Y-86004761D01*
X180697142Y-86052380D01*
X180792380Y-86052380D01*
X180935238Y-86004761D01*
X180982857Y-85957142D01*
X180982857Y-85623809D01*
X180792380Y-85623809D01*
X181363809Y-85766666D02*
X181840000Y-85766666D01*
X181268571Y-86052380D02*
X181601904Y-85052380D01*
X181935238Y-86052380D01*
X182173333Y-85052380D02*
X182792380Y-85052380D01*
X182459047Y-85433333D01*
X182601904Y-85433333D01*
X182697142Y-85480952D01*
X182744761Y-85528571D01*
X182792380Y-85623809D01*
X182792380Y-85861904D01*
X182744761Y-85957142D01*
X182697142Y-86004761D01*
X182601904Y-86052380D01*
X182316190Y-86052380D01*
X182220952Y-86004761D01*
X182173333Y-85957142D01*
X183173333Y-85147619D02*
X183220952Y-85100000D01*
X183316190Y-85052380D01*
X183554285Y-85052380D01*
X183649523Y-85100000D01*
X183697142Y-85147619D01*
X183744761Y-85242857D01*
X183744761Y-85338095D01*
X183697142Y-85480952D01*
X183125714Y-86052380D01*
X183744761Y-86052380D01*
X184316190Y-85480952D02*
X184220952Y-85433333D01*
X184173333Y-85385714D01*
X184125714Y-85290476D01*
X184125714Y-85242857D01*
X184173333Y-85147619D01*
X184220952Y-85100000D01*
X184316190Y-85052380D01*
X184506666Y-85052380D01*
X184601904Y-85100000D01*
X184649523Y-85147619D01*
X184697142Y-85242857D01*
X184697142Y-85290476D01*
X184649523Y-85385714D01*
X184601904Y-85433333D01*
X184506666Y-85480952D01*
X184316190Y-85480952D01*
X184220952Y-85528571D01*
X184173333Y-85576190D01*
X184125714Y-85671428D01*
X184125714Y-85861904D01*
X184173333Y-85957142D01*
X184220952Y-86004761D01*
X184316190Y-86052380D01*
X184506666Y-86052380D01*
X184601904Y-86004761D01*
X184649523Y-85957142D01*
X184697142Y-85861904D01*
X184697142Y-85671428D01*
X184649523Y-85576190D01*
X184601904Y-85528571D01*
X184506666Y-85480952D01*
X185125714Y-86052380D02*
X185125714Y-85052380D01*
X185506666Y-85052380D01*
X185601904Y-85100000D01*
X185649523Y-85147619D01*
X185697142Y-85242857D01*
X185697142Y-85385714D01*
X185649523Y-85480952D01*
X185601904Y-85528571D01*
X185506666Y-85576190D01*
X185125714Y-85576190D01*
X186125714Y-85671428D02*
X186887619Y-85671428D01*
X187363809Y-86052380D02*
X187363809Y-85052380D01*
X187744761Y-85052380D01*
X187840000Y-85100000D01*
X187887619Y-85147619D01*
X187935238Y-85242857D01*
X187935238Y-85385714D01*
X187887619Y-85480952D01*
X187840000Y-85528571D01*
X187744761Y-85576190D01*
X187363809Y-85576190D01*
X188363809Y-85052380D02*
X188363809Y-85861904D01*
X188411428Y-85957142D01*
X188459047Y-86004761D01*
X188554285Y-86052380D01*
X188744761Y-86052380D01*
X188840000Y-86004761D01*
X188887619Y-85957142D01*
X188935238Y-85861904D01*
X188935238Y-85052380D01*
X181125714Y-103892380D02*
X181125714Y-104701904D01*
X181173333Y-104797142D01*
X181220952Y-104844761D01*
X181316190Y-104892380D01*
X181506666Y-104892380D01*
X181601904Y-104844761D01*
X181649523Y-104797142D01*
X181697142Y-104701904D01*
X181697142Y-103892380D01*
X182601904Y-104225714D02*
X182601904Y-104892380D01*
X182363809Y-103844761D02*
X182125714Y-104559047D01*
X182744761Y-104559047D01*
X183316190Y-103892380D02*
X183411428Y-103892380D01*
X183506666Y-103940000D01*
X183554285Y-103987619D01*
X183601904Y-104082857D01*
X183649523Y-104273333D01*
X183649523Y-104511428D01*
X183601904Y-104701904D01*
X183554285Y-104797142D01*
X183506666Y-104844761D01*
X183411428Y-104892380D01*
X183316190Y-104892380D01*
X183220952Y-104844761D01*
X183173333Y-104797142D01*
X183125714Y-104701904D01*
X183078095Y-104511428D01*
X183078095Y-104273333D01*
X183125714Y-104082857D01*
X183173333Y-103987619D01*
X183220952Y-103940000D01*
X183316190Y-103892380D01*
X184601904Y-104892380D02*
X184030476Y-104892380D01*
X184316190Y-104892380D02*
X184316190Y-103892380D01*
X184220952Y-104035238D01*
X184125714Y-104130476D01*
X184030476Y-104178095D01*
D10*
X245740190Y-89472904D02*
X245502095Y-89639571D01*
X245740190Y-89758619D02*
X245240190Y-89758619D01*
X245240190Y-89568142D01*
X245264000Y-89520523D01*
X245287809Y-89496714D01*
X245335428Y-89472904D01*
X245406857Y-89472904D01*
X245454476Y-89496714D01*
X245478285Y-89520523D01*
X245502095Y-89568142D01*
X245502095Y-89758619D01*
X245240190Y-89115761D02*
X245597333Y-89115761D01*
X245668761Y-89139571D01*
X245716380Y-89187190D01*
X245740190Y-89258619D01*
X245740190Y-89306238D01*
X245406857Y-88663380D02*
X245740190Y-88663380D01*
X245216380Y-88782428D02*
X245573523Y-88901476D01*
X245573523Y-88591952D01*
X245240190Y-88163380D02*
X245240190Y-88401476D01*
X245478285Y-88425285D01*
X245454476Y-88401476D01*
X245430666Y-88353857D01*
X245430666Y-88234809D01*
X245454476Y-88187190D01*
X245478285Y-88163380D01*
X245525904Y-88139571D01*
X245644952Y-88139571D01*
X245692571Y-88163380D01*
X245716380Y-88187190D01*
X245740190Y-88234809D01*
X245740190Y-88353857D01*
X245716380Y-88401476D01*
X245692571Y-88425285D01*
X245744190Y-110327904D02*
X245506095Y-110494571D01*
X245744190Y-110613619D02*
X245244190Y-110613619D01*
X245244190Y-110423142D01*
X245268000Y-110375523D01*
X245291809Y-110351714D01*
X245339428Y-110327904D01*
X245410857Y-110327904D01*
X245458476Y-110351714D01*
X245482285Y-110375523D01*
X245506095Y-110423142D01*
X245506095Y-110613619D01*
X245244190Y-109970761D02*
X245601333Y-109970761D01*
X245672761Y-109994571D01*
X245720380Y-110042190D01*
X245744190Y-110113619D01*
X245744190Y-110161238D01*
X245410857Y-109518380D02*
X245744190Y-109518380D01*
X245220380Y-109637428D02*
X245577523Y-109756476D01*
X245577523Y-109446952D01*
X245244190Y-109018380D02*
X245244190Y-109256476D01*
X245482285Y-109280285D01*
X245458476Y-109256476D01*
X245434666Y-109208857D01*
X245434666Y-109089809D01*
X245458476Y-109042190D01*
X245482285Y-109018380D01*
X245529904Y-108994571D01*
X245648952Y-108994571D01*
X245696571Y-109018380D01*
X245720380Y-109042190D01*
X245744190Y-109089809D01*
X245744190Y-109208857D01*
X245720380Y-109256476D01*
X245696571Y-109280285D01*
D11*
X193928571Y-121862380D02*
X193928571Y-122671904D01*
X193976190Y-122767142D01*
X194023809Y-122814761D01*
X194119047Y-122862380D01*
X194309523Y-122862380D01*
X194404761Y-122814761D01*
X194452380Y-122767142D01*
X194500000Y-122671904D01*
X194500000Y-121862380D01*
X194928571Y-122814761D02*
X195071428Y-122862380D01*
X195309523Y-122862380D01*
X195404761Y-122814761D01*
X195452380Y-122767142D01*
X195500000Y-122671904D01*
X195500000Y-122576666D01*
X195452380Y-122481428D01*
X195404761Y-122433809D01*
X195309523Y-122386190D01*
X195119047Y-122338571D01*
X195023809Y-122290952D01*
X194976190Y-122243333D01*
X194928571Y-122148095D01*
X194928571Y-122052857D01*
X194976190Y-121957619D01*
X195023809Y-121910000D01*
X195119047Y-121862380D01*
X195357142Y-121862380D01*
X195500000Y-121910000D01*
X195880952Y-122576666D02*
X196357142Y-122576666D01*
X195785714Y-122862380D02*
X196119047Y-121862380D01*
X196452380Y-122862380D01*
X197357142Y-122862380D02*
X197023809Y-122386190D01*
X196785714Y-122862380D02*
X196785714Y-121862380D01*
X197166666Y-121862380D01*
X197261904Y-121910000D01*
X197309523Y-121957619D01*
X197357142Y-122052857D01*
X197357142Y-122195714D01*
X197309523Y-122290952D01*
X197261904Y-122338571D01*
X197166666Y-122386190D01*
X196785714Y-122386190D01*
X197642857Y-121862380D02*
X198214285Y-121862380D01*
X197928571Y-122862380D02*
X197928571Y-121862380D01*
X195452380Y-117555714D02*
X196166666Y-117555714D01*
X196309523Y-117603333D01*
X196404761Y-117698571D01*
X196452380Y-117841428D01*
X196452380Y-117936666D01*
X195785714Y-116650952D02*
X196452380Y-116650952D01*
X195404761Y-116889047D02*
X196119047Y-117127142D01*
X196119047Y-116508095D01*
X195452380Y-115936666D02*
X195452380Y-115841428D01*
X195500000Y-115746190D01*
X195547619Y-115698571D01*
X195642857Y-115650952D01*
X195833333Y-115603333D01*
X196071428Y-115603333D01*
X196261904Y-115650952D01*
X196357142Y-115698571D01*
X196404761Y-115746190D01*
X196452380Y-115841428D01*
X196452380Y-115936666D01*
X196404761Y-116031904D01*
X196357142Y-116079523D01*
X196261904Y-116127142D01*
X196071428Y-116174761D01*
X195833333Y-116174761D01*
X195642857Y-116127142D01*
X195547619Y-116079523D01*
X195500000Y-116031904D01*
X195452380Y-115936666D01*
X196452380Y-114650952D02*
X196452380Y-115222380D01*
X196452380Y-114936666D02*
X195452380Y-114936666D01*
X195595238Y-115031904D01*
X195690476Y-115127142D01*
X195738095Y-115222380D01*
X207711380Y-105966476D02*
X207711380Y-106537904D01*
X207711380Y-106252190D02*
X206711380Y-106252190D01*
X206854238Y-106347428D01*
X206949476Y-106442666D01*
X206997095Y-106537904D01*
X206711380Y-105109333D02*
X206711380Y-105299809D01*
X206759000Y-105395047D01*
X206806619Y-105442666D01*
X206949476Y-105537904D01*
X207139952Y-105585523D01*
X207520904Y-105585523D01*
X207616142Y-105537904D01*
X207663761Y-105490285D01*
X207711380Y-105395047D01*
X207711380Y-105204571D01*
X207663761Y-105109333D01*
X207616142Y-105061714D01*
X207520904Y-105014095D01*
X207282809Y-105014095D01*
X207187571Y-105061714D01*
X207139952Y-105109333D01*
X207092333Y-105204571D01*
X207092333Y-105395047D01*
X207139952Y-105490285D01*
X207187571Y-105537904D01*
X207282809Y-105585523D01*
X207711380Y-104585523D02*
X206711380Y-104585523D01*
X207425666Y-104252190D01*
X206711380Y-103918857D01*
X207711380Y-103918857D01*
X207711380Y-103442666D02*
X206711380Y-103442666D01*
X207187571Y-103442666D02*
X207187571Y-102871238D01*
X207711380Y-102871238D02*
X206711380Y-102871238D01*
X207044714Y-102490285D02*
X207044714Y-101966476D01*
X207711380Y-102490285D01*
X207711380Y-101966476D01*
X203710190Y-105704571D02*
X204186380Y-105704571D01*
X203186380Y-106037904D02*
X203710190Y-105704571D01*
X203186380Y-105371238D01*
X203281619Y-105085523D02*
X203234000Y-105037904D01*
X203186380Y-104942666D01*
X203186380Y-104704571D01*
X203234000Y-104609333D01*
X203281619Y-104561714D01*
X203376857Y-104514095D01*
X203472095Y-104514095D01*
X203614952Y-104561714D01*
X204186380Y-105133142D01*
X204186380Y-104514095D01*
X203186380Y-103895047D02*
X203186380Y-103799809D01*
X203234000Y-103704571D01*
X203281619Y-103656952D01*
X203376857Y-103609333D01*
X203567333Y-103561714D01*
X203805428Y-103561714D01*
X203995904Y-103609333D01*
X204091142Y-103656952D01*
X204138761Y-103704571D01*
X204186380Y-103799809D01*
X204186380Y-103895047D01*
X204138761Y-103990285D01*
X204091142Y-104037904D01*
X203995904Y-104085523D01*
X203805428Y-104133142D01*
X203567333Y-104133142D01*
X203376857Y-104085523D01*
X203281619Y-104037904D01*
X203234000Y-103990285D01*
X203186380Y-103895047D01*
X204186380Y-102609333D02*
X204186380Y-103180761D01*
X204186380Y-102895047D02*
X203186380Y-102895047D01*
X203329238Y-102990285D01*
X203424476Y-103085523D01*
X203472095Y-103180761D01*
X190023380Y-99714476D02*
X190023380Y-100285904D01*
X190023380Y-100000190D02*
X189023380Y-100000190D01*
X189166238Y-100095428D01*
X189261476Y-100190666D01*
X189309095Y-100285904D01*
X189023380Y-98857333D02*
X189023380Y-99047809D01*
X189071000Y-99143047D01*
X189118619Y-99190666D01*
X189261476Y-99285904D01*
X189451952Y-99333523D01*
X189832904Y-99333523D01*
X189928142Y-99285904D01*
X189975761Y-99238285D01*
X190023380Y-99143047D01*
X190023380Y-98952571D01*
X189975761Y-98857333D01*
X189928142Y-98809714D01*
X189832904Y-98762095D01*
X189594809Y-98762095D01*
X189499571Y-98809714D01*
X189451952Y-98857333D01*
X189404333Y-98952571D01*
X189404333Y-99143047D01*
X189451952Y-99238285D01*
X189499571Y-99285904D01*
X189594809Y-99333523D01*
X190023380Y-98333523D02*
X189023380Y-98333523D01*
X189737666Y-98000190D01*
X189023380Y-97666857D01*
X190023380Y-97666857D01*
X190023380Y-97190666D02*
X189023380Y-97190666D01*
X189499571Y-97190666D02*
X189499571Y-96619238D01*
X190023380Y-96619238D02*
X189023380Y-96619238D01*
X189356714Y-96238285D02*
X189356714Y-95714476D01*
X190023380Y-96238285D01*
X190023380Y-95714476D01*
X193072190Y-99452571D02*
X193548380Y-99452571D01*
X192548380Y-99785904D02*
X193072190Y-99452571D01*
X192548380Y-99119238D01*
X192881714Y-98357333D02*
X193548380Y-98357333D01*
X192500761Y-98595428D02*
X193215047Y-98833523D01*
X193215047Y-98214476D01*
X192548380Y-97643047D02*
X192548380Y-97547809D01*
X192596000Y-97452571D01*
X192643619Y-97404952D01*
X192738857Y-97357333D01*
X192929333Y-97309714D01*
X193167428Y-97309714D01*
X193357904Y-97357333D01*
X193453142Y-97404952D01*
X193500761Y-97452571D01*
X193548380Y-97547809D01*
X193548380Y-97643047D01*
X193500761Y-97738285D01*
X193453142Y-97785904D01*
X193357904Y-97833523D01*
X193167428Y-97881142D01*
X192929333Y-97881142D01*
X192738857Y-97833523D01*
X192643619Y-97785904D01*
X192596000Y-97738285D01*
X192548380Y-97643047D01*
X193548380Y-96357333D02*
X193548380Y-96928761D01*
X193548380Y-96643047D02*
X192548380Y-96643047D01*
X192691238Y-96738285D01*
X192786476Y-96833523D01*
X192834095Y-96928761D01*
M02*
