M48
METRIC
T1C0.600
T2C0.800
T3C1.000
T4C1.200
T5C1.300
T6C1.500
T7C1.600
T8C2.000
T9C5.300
%
G90
G05
T1
X53.025Y-119.5
X54.189Y-116.689
X54.189Y-122.311
X57.0Y-115.525
X57.0Y-123.475
X59.811Y-116.689
X59.811Y-122.311
X60.975Y-119.5
X53.025Y-63.0
X54.189Y-60.189
X54.189Y-65.811
X57.0Y-59.025
X57.0Y-66.975
X59.811Y-60.189
X59.811Y-65.811
X60.975Y-63.0
X53.025Y-101.5
X54.189Y-98.689
X54.189Y-104.311
X57.0Y-97.525
X57.0Y-105.475
X59.811Y-98.689
X59.811Y-104.311
X60.975Y-101.5
X53.025Y-82.0
X54.189Y-79.189
X54.189Y-84.811
X57.0Y-78.025
X57.0Y-85.975
X59.811Y-79.189
X59.811Y-84.811
X60.975Y-82.0
T2
X71.2Y-111.6
X92.8Y-116.6
X99.375Y-73.0
X101.5Y-87.5
X101.688Y-74.65
X102.4Y-84.8
X102.45Y-90.025
X104.0Y-121.2
X107.2Y-126.4
X116.5Y-103.75
X135.8Y-120.55
X135.894Y-117.644
X139.271Y-113.579
X140.5Y-109.175
X142.65Y-110.2
X143.4Y-101.0
X144.6Y-74.4
X145.6Y-105.95
X147.4Y-71.8
X147.45Y-100.75
X147.714Y-90.67
X152.4Y-125.2
X157.0Y-125.0
X163.9Y-105.2
X163.9Y-107.7
X166.017Y-70.883
X173.9Y-121.037
X174.4Y-88.2
X175.399Y-117.654
X179.9Y-98.2
X183.9Y-114.2
X186.4Y-115.8
X192.4Y-122.4
X192.6Y-93.0
X197.968Y-92.877
X199.6Y-70.8
X201.32Y-105.76
X201.65Y-85.35
X201.651Y-90.362
X201.651Y-101.386
X203.661Y-92.877
X203.773Y-86.573
X212.0Y-64.4
X215.9Y-68.58
X164.996Y-95.784
X164.996Y-100.664
X167.9Y-112.66
X167.9Y-115.2
X167.9Y-117.74
X167.9Y-120.28
X175.634Y-102.036
X175.634Y-106.916
X150.93Y-88.13
X150.93Y-90.67
X150.93Y-93.21
X150.93Y-95.75
X150.93Y-98.29
X150.93Y-100.83
X150.93Y-103.37
X150.93Y-105.91
X150.93Y-108.45
X150.93Y-110.99
X150.93Y-113.53
X150.93Y-116.07
X150.93Y-118.61
X150.93Y-121.15
X158.55Y-88.13
X158.55Y-90.67
X158.55Y-93.21
X158.55Y-95.75
X158.55Y-98.29
X158.55Y-100.83
X158.55Y-103.37
X158.55Y-105.91
X158.55Y-108.45
X158.55Y-110.99
X158.55Y-113.53
X158.55Y-116.07
X158.55Y-118.61
X158.55Y-121.15
X206.088Y-96.826
X206.088Y-99.366
X206.088Y-101.906
X206.088Y-104.446
X208.628Y-98.096
X208.628Y-100.636
X208.628Y-103.176
X208.628Y-105.716
X206.084Y-75.971
X206.084Y-78.511
X206.084Y-81.051
X206.084Y-83.591
X208.624Y-77.241
X208.624Y-79.781
X208.624Y-82.321
X208.624Y-84.861
T3
X167.9Y-87.95
X167.9Y-90.49
X86.8Y-106.0
X86.8Y-116.0
T4
X72.0Y-67.65
X72.0Y-72.65
X82.752Y-83.4
X87.752Y-83.4
X69.45Y-96.55
X74.45Y-96.55
X85.4Y-67.65
X85.4Y-72.65
X82.752Y-96.55
X87.752Y-96.55
X69.45Y-83.4
X74.45Y-83.4
T5
X76.6Y-106.0
X89.3Y-111.0
T6
X116.0Y-80.5
X116.0Y-85.95
X116.0Y-91.4
X116.0Y-62.0
X116.0Y-67.45
X116.0Y-72.9
T7
X211.928Y-93.521
X211.928Y-109.021
X211.924Y-72.666
X211.924Y-88.166
T8
X103.328Y-100.644
X132.0Y-100.8
T9
X57.0Y-119.5
X57.0Y-63.0
X57.0Y-101.5
X57.0Y-82.0
T0
M30
