%TF.GenerationSoftware,KiCad,Pcbnew,5.1.9+dfsg1-1~bpo10+1*%
%TF.CreationDate,2021-04-28T03:15:45+00:00*%
%TF.ProjectId,MCB19,4d434231-392e-46b6-9963-61645f706362,rev?*%
%TF.SameCoordinates,Original*%
%TF.FileFunction,Other,User*%
%FSLAX45Y45*%
G04 Gerber Fmt 4.5, Leading zero omitted, Abs format (unit mm)*
G04 Created by KiCad (PCBNEW 5.1.9+dfsg1-1~bpo10+1) date 2021-04-28 03:15:45*
%MOMM*%
%LPD*%
G01*
G04 APERTURE LIST*
%TA.AperFunction,Profile*%
%ADD10C,0.100000*%
%TD*%
%ADD11C,0.050000*%
G04 APERTURE END LIST*
D10*
X22285000Y-5050000D02*
X5000000Y-5050000D01*
X22285000Y-13200000D02*
X22285000Y-5050000D01*
X5000000Y-13200000D02*
X22285000Y-13200000D01*
X5000000Y-5050000D02*
X5000000Y-13200000D01*
D11*
X9105000Y-10475000D02*
X7535000Y-10474000D01*
X7535000Y-10474000D02*
X7535000Y-11725000D01*
X9105000Y-10475000D02*
X9105000Y-11725000D01*
X7535000Y-11725000D02*
X9105000Y-11725000D01*
X14850000Y-12650000D02*
X14550000Y-12650000D01*
X14850000Y-12650000D02*
X14850000Y-12350000D01*
X14550000Y-12350000D02*
X14550000Y-12650000D01*
X14550000Y-12350000D02*
X14850000Y-12350000D01*
X15470000Y-8050000D02*
X15170000Y-8050000D01*
X15470000Y-8050000D02*
X15470000Y-7750000D01*
X15170000Y-7750000D02*
X15170000Y-8050000D01*
X15170000Y-7750000D02*
X15470000Y-7750000D01*
X13085000Y-9015000D02*
X12715000Y-9015000D01*
X13085000Y-8825000D02*
X13085000Y-9015000D01*
X12715000Y-8825000D02*
X13085000Y-8825000D01*
X12715000Y-9015000D02*
X12715000Y-8825000D01*
X13085000Y-8775000D02*
X12715000Y-8775000D01*
X13085000Y-8585000D02*
X13085000Y-8775000D01*
X12715000Y-8585000D02*
X13085000Y-8585000D01*
X12715000Y-8775000D02*
X12715000Y-8585000D01*
X13085000Y-7815000D02*
X12715000Y-7815000D01*
X13085000Y-7625000D02*
X13085000Y-7815000D01*
X12715000Y-7625000D02*
X13085000Y-7625000D01*
X12715000Y-7815000D02*
X12715000Y-7625000D01*
X13085000Y-8055000D02*
X12715000Y-8055000D01*
X13085000Y-7865000D02*
X13085000Y-8055000D01*
X12715000Y-7865000D02*
X13085000Y-7865000D01*
X12715000Y-8055000D02*
X12715000Y-7865000D01*
X6955000Y-10795000D02*
X6955000Y-11165000D01*
X6765000Y-10795000D02*
X6955000Y-10795000D01*
X6765000Y-11165000D02*
X6765000Y-10795000D01*
X6955000Y-11165000D02*
X6765000Y-11165000D01*
X12367000Y-8850000D02*
X11983000Y-8850000D01*
X11983000Y-8850000D02*
X11983000Y-8050000D01*
X11983000Y-8050000D02*
X12367000Y-8050000D01*
X12367000Y-8050000D02*
X12367000Y-8850000D01*
X14157500Y-12205000D02*
X14527500Y-12205000D01*
X14157500Y-12395000D02*
X14157500Y-12205000D01*
X14527500Y-12395000D02*
X14157500Y-12395000D01*
X14527500Y-12205000D02*
X14527500Y-12395000D01*
X12367000Y-6218000D02*
X12367000Y-6982000D01*
X11983000Y-6218000D02*
X12367000Y-6218000D01*
X11983000Y-6982000D02*
X11983000Y-6218000D01*
X12367000Y-6982000D02*
X11983000Y-6982000D01*
X6712500Y-10970000D02*
X6342500Y-10970000D01*
X6712500Y-10780000D02*
X6712500Y-10970000D01*
X6342500Y-10780000D02*
X6712500Y-10780000D01*
X6342500Y-10970000D02*
X6342500Y-10780000D01*
X14325000Y-12615000D02*
X13955000Y-12615000D01*
X14325000Y-12425000D02*
X14325000Y-12615000D01*
X13955000Y-12425000D02*
X14325000Y-12425000D01*
X13955000Y-12615000D02*
X13955000Y-12425000D01*
X13085000Y-8535000D02*
X12715000Y-8535000D01*
X13085000Y-8345000D02*
X13085000Y-8535000D01*
X12715000Y-8345000D02*
X13085000Y-8345000D01*
X12715000Y-8535000D02*
X12715000Y-8345000D01*
X13085000Y-8295000D02*
X12715000Y-8295000D01*
X13085000Y-8105000D02*
X13085000Y-8295000D01*
X12715000Y-8105000D02*
X13085000Y-8105000D01*
X12715000Y-8295000D02*
X12715000Y-8105000D01*
X9175208Y-9655000D02*
G75*
G03*
X9175208Y-9655000I-650000J0D01*
G01*
X9190000Y-7015000D02*
G75*
G03*
X9190000Y-7015000I-650000J0D01*
G01*
X7850000Y-7015000D02*
G75*
G03*
X7850000Y-7015000I-650000J0D01*
G01*
X13195000Y-6145000D02*
X13195000Y-6515000D01*
X13005000Y-6145000D02*
X13195000Y-6145000D01*
X13005000Y-6515000D02*
X13005000Y-6145000D01*
X13195000Y-6515000D02*
X13005000Y-6515000D01*
X12705000Y-6145000D02*
X12895000Y-6145000D01*
X12895000Y-6145000D02*
X12895000Y-6515000D01*
X12895000Y-6515000D02*
X12705000Y-6515000D01*
X12705000Y-6515000D02*
X12705000Y-6145000D01*
X13074000Y-7575500D02*
X12704000Y-7575500D01*
X13074000Y-7385500D02*
X13074000Y-7575500D01*
X12704000Y-7385500D02*
X13074000Y-7385500D01*
X12704000Y-7575500D02*
X12704000Y-7385500D01*
X13074000Y-7346000D02*
X12704000Y-7346000D01*
X13074000Y-7156000D02*
X13074000Y-7346000D01*
X12704000Y-7156000D02*
X13074000Y-7156000D01*
X12704000Y-7346000D02*
X12704000Y-7156000D01*
X13189000Y-6816000D02*
X12699000Y-6816000D01*
X13189000Y-6592000D02*
X13189000Y-6816000D01*
X12699000Y-6592000D02*
X13189000Y-6592000D01*
X12699000Y-6816000D02*
X12699000Y-6592000D01*
X13189000Y-7103000D02*
X12699000Y-7103000D01*
X13189000Y-6879000D02*
X13189000Y-7103000D01*
X12699000Y-6879000D02*
X13189000Y-6879000D01*
X12699000Y-7103000D02*
X12699000Y-6879000D01*
X12367000Y-8050000D02*
X12367000Y-8850000D01*
X11983000Y-8050000D02*
X12367000Y-8050000D01*
X11983000Y-8850000D02*
X11983000Y-8050000D01*
X12367000Y-8850000D02*
X11983000Y-8850000D01*
X12367000Y-6218000D02*
X12367000Y-6982000D01*
X11983000Y-6218000D02*
X12367000Y-6218000D01*
X11983000Y-6982000D02*
X11983000Y-6218000D01*
X12367000Y-6982000D02*
X11983000Y-6982000D01*
X12042000Y-7545000D02*
X12042000Y-7055000D01*
X12358000Y-7545000D02*
X12042000Y-7545000D01*
X12358000Y-7055000D02*
X12358000Y-7545000D01*
X12042000Y-7055000D02*
X12358000Y-7055000D01*
X12042000Y-9395000D02*
X12042000Y-8905000D01*
X12358000Y-9395000D02*
X12042000Y-9395000D01*
X12358000Y-8905000D02*
X12358000Y-9395000D01*
X12042000Y-8905000D02*
X12358000Y-8905000D01*
X6255000Y-11950000D02*
G75*
G03*
X6255000Y-11950000I-555000J0D01*
G01*
X10390000Y-8485000D02*
X10610000Y-8485000D01*
X10390000Y-9415000D02*
X10390000Y-8485000D01*
X10610000Y-9415000D02*
X10390000Y-9415000D01*
X10610000Y-8485000D02*
X10610000Y-9415000D01*
X7845000Y-8340000D02*
G75*
G03*
X7845000Y-8340000I-650000J0D01*
G01*
X7845000Y-9655000D02*
G75*
G03*
X7845000Y-9655000I-650000J0D01*
G01*
X11195000Y-6165000D02*
X11195000Y-6535000D01*
X11005000Y-6165000D02*
X11195000Y-6165000D01*
X11005000Y-6535000D02*
X11005000Y-6165000D01*
X11195000Y-6535000D02*
X11005000Y-6535000D01*
X11195000Y-8015000D02*
X11195000Y-8385000D01*
X11005000Y-8015000D02*
X11195000Y-8015000D01*
X11005000Y-8385000D02*
X11005000Y-8015000D01*
X11195000Y-8385000D02*
X11005000Y-8385000D01*
X10515000Y-6255000D02*
X10885000Y-6255000D01*
X10515000Y-6445000D02*
X10515000Y-6255000D01*
X10885000Y-6445000D02*
X10515000Y-6445000D01*
X10885000Y-6255000D02*
X10885000Y-6445000D01*
X10515000Y-8105000D02*
X10885000Y-8105000D01*
X10515000Y-8295000D02*
X10515000Y-8105000D01*
X10885000Y-8295000D02*
X10515000Y-8295000D01*
X10885000Y-8105000D02*
X10885000Y-8295000D01*
X6255000Y-10150000D02*
G75*
G03*
X6255000Y-10150000I-555000J0D01*
G01*
X6255000Y-8200000D02*
G75*
G03*
X6255000Y-8200000I-555000J0D01*
G01*
X6255000Y-6300000D02*
G75*
G03*
X6255000Y-6300000I-555000J0D01*
G01*
X11210000Y-7565000D02*
X10990000Y-7565000D01*
X11210000Y-6635000D02*
X11210000Y-7565000D01*
X10990000Y-6635000D02*
X11210000Y-6635000D01*
X10990000Y-7565000D02*
X10990000Y-6635000D01*
X10910000Y-7565000D02*
X10690000Y-7565000D01*
X10910000Y-6635000D02*
X10910000Y-7565000D01*
X10690000Y-6635000D02*
X10910000Y-6635000D01*
X10690000Y-7565000D02*
X10690000Y-6635000D01*
X10990000Y-9415000D02*
X10990000Y-8485000D01*
X10990000Y-8485000D02*
X11210000Y-8485000D01*
X11210000Y-8485000D02*
X11210000Y-9415000D01*
X11210000Y-9415000D02*
X10990000Y-9415000D01*
X10910000Y-9415000D02*
X10690000Y-9415000D01*
X10910000Y-8485000D02*
X10910000Y-9415000D01*
X10690000Y-8485000D02*
X10910000Y-8485000D01*
X10690000Y-9415000D02*
X10690000Y-8485000D01*
X12415000Y-9215000D02*
X12415000Y-8285000D01*
X12415000Y-8285000D02*
X12635000Y-8285000D01*
X12635000Y-8285000D02*
X12635000Y-9215000D01*
X12635000Y-9215000D02*
X12415000Y-9215000D01*
X12635000Y-7365000D02*
X12415000Y-7365000D01*
X12635000Y-6435000D02*
X12635000Y-7365000D01*
X12415000Y-6435000D02*
X12635000Y-6435000D01*
X12415000Y-7365000D02*
X12415000Y-6435000D01*
X10390000Y-6635000D02*
X10610000Y-6635000D01*
X10390000Y-7565000D02*
X10390000Y-6635000D01*
X10610000Y-7565000D02*
X10390000Y-7565000D01*
X10610000Y-6635000D02*
X10610000Y-7565000D01*
X9175208Y-8340000D02*
G75*
G03*
X9175208Y-8340000I-650000J0D01*
G01*
X16610000Y-8615000D02*
X16965000Y-8615000D01*
X16965000Y-8615000D02*
X16965000Y-9225000D01*
X16965000Y-9225000D02*
X16610000Y-9225000D01*
X16610000Y-9225000D02*
X16610000Y-8615000D01*
X16010000Y-12275000D02*
X16010000Y-8650000D01*
X16010000Y-8650000D02*
X14940000Y-8650000D01*
X14940000Y-8650000D02*
X14940000Y-12275000D01*
X14940000Y-12275000D02*
X16010000Y-12275000D01*
X22590000Y-7240200D02*
X22590000Y-8842200D01*
X22590000Y-7240100D02*
X20456400Y-7240100D01*
X20456400Y-8842100D02*
X22590000Y-8842200D01*
X20456400Y-8842100D02*
X20456400Y-7240100D01*
X22590400Y-9325700D02*
X22590400Y-10927700D01*
X22590400Y-9325600D02*
X20456800Y-9325600D01*
X20456800Y-10927600D02*
X22590400Y-10927700D01*
X20456800Y-10927600D02*
X20456800Y-9325600D01*
X16610000Y-11086000D02*
X16610000Y-12206000D01*
X16610000Y-12206000D02*
X16970000Y-12206000D01*
X16970000Y-12206000D02*
X16970000Y-11086000D01*
X16970000Y-11086000D02*
X16610000Y-11086000D01*
X17283400Y-11041600D02*
X17843400Y-11041600D01*
X17843400Y-11041600D02*
X17843400Y-9851600D01*
X17843400Y-9851600D02*
X17283400Y-9851600D01*
X17283400Y-9851600D02*
X17283400Y-11041600D01*
X16779600Y-9228400D02*
X16219600Y-9228400D01*
X16219600Y-9228400D02*
X16219600Y-10418400D01*
X16219600Y-10418400D02*
X16779600Y-10418400D01*
X16779600Y-10418400D02*
X16779600Y-9228400D01*
M02*
