%TF.GenerationSoftware,KiCad,Pcbnew,5.1.9+dfsg1-1~bpo10+1*%
%TF.CreationDate,2021-06-17T15:16:06+00:00*%
%TF.ProjectId,MCB19,4d434231-392e-46b6-9963-61645f706362,rev?*%
%TF.SameCoordinates,Original*%
%TF.FileFunction,Soldermask,Bot*%
%TF.FilePolarity,Negative*%
%FSLAX45Y45*%
G04 Gerber Fmt 4.5, Leading zero omitted, Abs format (unit mm)*
G04 Created by KiCad (PCBNEW 5.1.9+dfsg1-1~bpo10+1) date 2021-06-17 15:16:06*
%MOMM*%
%LPD*%
G01*
G04 APERTURE LIST*
%TA.AperFunction,Profile*%
%ADD10C,0.100000*%
%TD*%
%ADD11C,3.000000*%
%ADD12C,2.500000*%
%ADD13C,5.000000*%
%ADD14C,2.400000*%
%ADD15R,2.400000X2.400000*%
%ADD16R,2.000000X2.000000*%
%ADD17R,1.700000X3.300000*%
%ADD18O,4.500000X2.500000*%
%ADD19R,4.500000X2.500000*%
%ADD20O,3.600000X3.600000*%
%ADD21R,0.900000X0.800000*%
%ADD22R,5.000000X10.000000*%
%ADD23R,6.400000X2.000000*%
%ADD24R,2.000000X0.600000*%
%ADD25C,0.900000*%
%ADD26C,10.599999*%
%ADD27C,10.600000*%
%ADD28R,3.300000X1.700000*%
%ADD29R,16.000000X10.000000*%
%ADD30R,4.000000X1.905000*%
%ADD31R,1.700000X1.700000*%
%ADD32O,1.700000X1.700000*%
%ADD33R,2.500000X1.600000*%
%ADD34O,2.500000X1.600000*%
%ADD35R,1.900000X0.800000*%
%ADD36C,3.650000*%
%ADD37R,1.550000X0.600000*%
%ADD38C,0.150000*%
G04 APERTURE END LIST*
D10*
X22285000Y-5050000D02*
X5000000Y-5050000D01*
X22285000Y-13200000D02*
X22285000Y-5050000D01*
X5000000Y-13200000D02*
X22285000Y-13200000D01*
X5000000Y-5050000D02*
X5000000Y-13200000D01*
X22285000Y-5050000D02*
X5000000Y-5050000D01*
X22285000Y-13200000D02*
X22285000Y-5050000D01*
X5000000Y-13200000D02*
X22285000Y-13200000D01*
X5000000Y-5050000D02*
X5000000Y-13200000D01*
D11*
X8930000Y-11100000D03*
D12*
X8680000Y-11600000D03*
D11*
X7660000Y-10600000D03*
D12*
X8680000Y-10600000D03*
G36*
G01*
X9987500Y-12105000D02*
X9987500Y-12015000D01*
G75*
G02*
X10012500Y-11990000I25000J0D01*
G01*
X10077500Y-11990000D01*
G75*
G02*
X10102500Y-12015000I0J-25000D01*
G01*
X10102500Y-12105000D01*
G75*
G02*
X10077500Y-12130000I-25000J0D01*
G01*
X10012500Y-12130000D01*
G75*
G02*
X9987500Y-12105000I0J25000D01*
G01*
G37*
G36*
G01*
X9782500Y-12105000D02*
X9782500Y-12015000D01*
G75*
G02*
X9807500Y-11990000I25000J0D01*
G01*
X9872500Y-11990000D01*
G75*
G02*
X9897500Y-12015000I0J-25000D01*
G01*
X9897500Y-12105000D01*
G75*
G02*
X9872500Y-12130000I-25000J0D01*
G01*
X9807500Y-12130000D01*
G75*
G02*
X9782500Y-12105000I0J25000D01*
G01*
G37*
G36*
G01*
X10342500Y-12512500D02*
X10342500Y-12327500D01*
G75*
G02*
X10367500Y-12302500I25000J0D01*
G01*
X10542500Y-12302500D01*
G75*
G02*
X10567500Y-12327500I0J-25000D01*
G01*
X10567500Y-12512500D01*
G75*
G02*
X10542500Y-12537500I-25000J0D01*
G01*
X10367500Y-12537500D01*
G75*
G02*
X10342500Y-12512500I0J25000D01*
G01*
G37*
G36*
G01*
X9832500Y-12512500D02*
X9832500Y-12327500D01*
G75*
G02*
X9857500Y-12302500I25000J0D01*
G01*
X10032500Y-12302500D01*
G75*
G02*
X10057500Y-12327500I0J-25000D01*
G01*
X10057500Y-12512500D01*
G75*
G02*
X10032500Y-12537500I-25000J0D01*
G01*
X9857500Y-12537500D01*
G75*
G02*
X9832500Y-12512500I0J25000D01*
G01*
G37*
D13*
X13200000Y-10080000D03*
X10332800Y-10064400D03*
G36*
G01*
X16405000Y-11045000D02*
X16405000Y-10955000D01*
G75*
G02*
X16430000Y-10930000I25000J0D01*
G01*
X16495000Y-10930000D01*
G75*
G02*
X16520000Y-10955000I0J-25000D01*
G01*
X16520000Y-11045000D01*
G75*
G02*
X16495000Y-11070000I-25000J0D01*
G01*
X16430000Y-11070000D01*
G75*
G02*
X16405000Y-11045000I0J25000D01*
G01*
G37*
G36*
G01*
X16200000Y-11045000D02*
X16200000Y-10955000D01*
G75*
G02*
X16225000Y-10930000I25000J0D01*
G01*
X16290000Y-10930000D01*
G75*
G02*
X16315000Y-10955000I0J-25000D01*
G01*
X16315000Y-11045000D01*
G75*
G02*
X16290000Y-11070000I-25000J0D01*
G01*
X16225000Y-11070000D01*
G75*
G02*
X16200000Y-11045000I0J25000D01*
G01*
G37*
G36*
G01*
X16315000Y-11255000D02*
X16315000Y-11345000D01*
G75*
G02*
X16290000Y-11370000I-25000J0D01*
G01*
X16225000Y-11370000D01*
G75*
G02*
X16200000Y-11345000I0J25000D01*
G01*
X16200000Y-11255000D01*
G75*
G02*
X16225000Y-11230000I25000J0D01*
G01*
X16290000Y-11230000D01*
G75*
G02*
X16315000Y-11255000I0J-25000D01*
G01*
G37*
G36*
G01*
X16520000Y-11255000D02*
X16520000Y-11345000D01*
G75*
G02*
X16495000Y-11370000I-25000J0D01*
G01*
X16430000Y-11370000D01*
G75*
G02*
X16405000Y-11345000I0J25000D01*
G01*
X16405000Y-11255000D01*
G75*
G02*
X16430000Y-11230000I25000J0D01*
G01*
X16495000Y-11230000D01*
G75*
G02*
X16520000Y-11255000I0J-25000D01*
G01*
G37*
G36*
G01*
X10137500Y-11865000D02*
X10137500Y-11775000D01*
G75*
G02*
X10162500Y-11750000I25000J0D01*
G01*
X10227500Y-11750000D01*
G75*
G02*
X10252500Y-11775000I0J-25000D01*
G01*
X10252500Y-11865000D01*
G75*
G02*
X10227500Y-11890000I-25000J0D01*
G01*
X10162500Y-11890000D01*
G75*
G02*
X10137500Y-11865000I0J25000D01*
G01*
G37*
G36*
G01*
X10342500Y-11865000D02*
X10342500Y-11775000D01*
G75*
G02*
X10367500Y-11750000I25000J0D01*
G01*
X10432500Y-11750000D01*
G75*
G02*
X10457500Y-11775000I0J-25000D01*
G01*
X10457500Y-11865000D01*
G75*
G02*
X10432500Y-11890000I-25000J0D01*
G01*
X10367500Y-11890000D01*
G75*
G02*
X10342500Y-11865000I0J25000D01*
G01*
G37*
D14*
X8775208Y-9655000D03*
D15*
X8275208Y-9655000D03*
G36*
G01*
X9515000Y-11340000D02*
X9605000Y-11340000D01*
G75*
G02*
X9630000Y-11365000I0J-25000D01*
G01*
X9630000Y-11430000D01*
G75*
G02*
X9605000Y-11455000I-25000J0D01*
G01*
X9515000Y-11455000D01*
G75*
G02*
X9490000Y-11430000I0J25000D01*
G01*
X9490000Y-11365000D01*
G75*
G02*
X9515000Y-11340000I25000J0D01*
G01*
G37*
G36*
G01*
X9515000Y-11545000D02*
X9605000Y-11545000D01*
G75*
G02*
X9630000Y-11570000I0J-25000D01*
G01*
X9630000Y-11635000D01*
G75*
G02*
X9605000Y-11660000I-25000J0D01*
G01*
X9515000Y-11660000D01*
G75*
G02*
X9490000Y-11635000I0J25000D01*
G01*
X9490000Y-11570000D01*
G75*
G02*
X9515000Y-11545000I25000J0D01*
G01*
G37*
G36*
G01*
X10434500Y-8345000D02*
X10464500Y-8345000D01*
G75*
G02*
X10479500Y-8360000I0J-15000D01*
G01*
X10479500Y-8525000D01*
G75*
G02*
X10464500Y-8540000I-15000J0D01*
G01*
X10434500Y-8540000D01*
G75*
G02*
X10419500Y-8525000I0J15000D01*
G01*
X10419500Y-8360000D01*
G75*
G02*
X10434500Y-8345000I15000J0D01*
G01*
G37*
G36*
G01*
X10561500Y-8345000D02*
X10591500Y-8345000D01*
G75*
G02*
X10606500Y-8360000I0J-15000D01*
G01*
X10606500Y-8525000D01*
G75*
G02*
X10591500Y-8540000I-15000J0D01*
G01*
X10561500Y-8540000D01*
G75*
G02*
X10546500Y-8525000I0J15000D01*
G01*
X10546500Y-8360000D01*
G75*
G02*
X10561500Y-8345000I15000J0D01*
G01*
G37*
G36*
G01*
X10688500Y-8345000D02*
X10718500Y-8345000D01*
G75*
G02*
X10733500Y-8360000I0J-15000D01*
G01*
X10733500Y-8525000D01*
G75*
G02*
X10718500Y-8540000I-15000J0D01*
G01*
X10688500Y-8540000D01*
G75*
G02*
X10673500Y-8525000I0J15000D01*
G01*
X10673500Y-8360000D01*
G75*
G02*
X10688500Y-8345000I15000J0D01*
G01*
G37*
G36*
G01*
X10815500Y-8345000D02*
X10845500Y-8345000D01*
G75*
G02*
X10860500Y-8360000I0J-15000D01*
G01*
X10860500Y-8525000D01*
G75*
G02*
X10845500Y-8540000I-15000J0D01*
G01*
X10815500Y-8540000D01*
G75*
G02*
X10800500Y-8525000I0J15000D01*
G01*
X10800500Y-8360000D01*
G75*
G02*
X10815500Y-8345000I15000J0D01*
G01*
G37*
G36*
G01*
X10815500Y-8840000D02*
X10845500Y-8840000D01*
G75*
G02*
X10860500Y-8855000I0J-15000D01*
G01*
X10860500Y-9020000D01*
G75*
G02*
X10845500Y-9035000I-15000J0D01*
G01*
X10815500Y-9035000D01*
G75*
G02*
X10800500Y-9020000I0J15000D01*
G01*
X10800500Y-8855000D01*
G75*
G02*
X10815500Y-8840000I15000J0D01*
G01*
G37*
G36*
G01*
X10688500Y-8840000D02*
X10718500Y-8840000D01*
G75*
G02*
X10733500Y-8855000I0J-15000D01*
G01*
X10733500Y-9020000D01*
G75*
G02*
X10718500Y-9035000I-15000J0D01*
G01*
X10688500Y-9035000D01*
G75*
G02*
X10673500Y-9020000I0J15000D01*
G01*
X10673500Y-8855000D01*
G75*
G02*
X10688500Y-8840000I15000J0D01*
G01*
G37*
G36*
G01*
X10561500Y-8840000D02*
X10591500Y-8840000D01*
G75*
G02*
X10606500Y-8855000I0J-15000D01*
G01*
X10606500Y-9020000D01*
G75*
G02*
X10591500Y-9035000I-15000J0D01*
G01*
X10561500Y-9035000D01*
G75*
G02*
X10546500Y-9020000I0J15000D01*
G01*
X10546500Y-8855000D01*
G75*
G02*
X10561500Y-8840000I15000J0D01*
G01*
G37*
G36*
G01*
X10434500Y-8840000D02*
X10464500Y-8840000D01*
G75*
G02*
X10479500Y-8855000I0J-15000D01*
G01*
X10479500Y-9020000D01*
G75*
G02*
X10464500Y-9035000I-15000J0D01*
G01*
X10434500Y-9035000D01*
G75*
G02*
X10419500Y-9020000I0J15000D01*
G01*
X10419500Y-8855000D01*
G75*
G02*
X10434500Y-8840000I15000J0D01*
G01*
G37*
D16*
X18902500Y-9922500D03*
D17*
X8350000Y-11215000D03*
X8350000Y-10665000D03*
D14*
X8540000Y-7265000D03*
D15*
X8540000Y-6765000D03*
D14*
X7200000Y-7265000D03*
D15*
X7200000Y-6765000D03*
D18*
X11600000Y-9140000D03*
X11600000Y-8595000D03*
D19*
X11600000Y-8050000D03*
D20*
X13586000Y-8595000D03*
G36*
G01*
X15318900Y-11340000D02*
X15318900Y-11250000D01*
G75*
G02*
X15343900Y-11225000I25000J0D01*
G01*
X15408900Y-11225000D01*
G75*
G02*
X15433900Y-11250000I0J-25000D01*
G01*
X15433900Y-11340000D01*
G75*
G02*
X15408900Y-11365000I-25000J0D01*
G01*
X15343900Y-11365000D01*
G75*
G02*
X15318900Y-11340000I0J25000D01*
G01*
G37*
G36*
G01*
X15523900Y-11340000D02*
X15523900Y-11250000D01*
G75*
G02*
X15548900Y-11225000I25000J0D01*
G01*
X15613900Y-11225000D01*
G75*
G02*
X15638900Y-11250000I0J-25000D01*
G01*
X15638900Y-11340000D01*
G75*
G02*
X15613900Y-11365000I-25000J0D01*
G01*
X15548900Y-11365000D01*
G75*
G02*
X15523900Y-11340000I0J25000D01*
G01*
G37*
D21*
X10400000Y-11365000D03*
X10400000Y-11555000D03*
X10200000Y-11460000D03*
X9780000Y-11555000D03*
X9980000Y-11650000D03*
X9980000Y-11460000D03*
D22*
X6660000Y-12380000D03*
X8920000Y-12380000D03*
X6659000Y-5853000D03*
X8919000Y-5853000D03*
G36*
G01*
X8492000Y-9195500D02*
X8492000Y-9105500D01*
G75*
G02*
X8517000Y-9080500I25000J0D01*
G01*
X8582000Y-9080500D01*
G75*
G02*
X8607000Y-9105500I0J-25000D01*
G01*
X8607000Y-9195500D01*
G75*
G02*
X8582000Y-9220500I-25000J0D01*
G01*
X8517000Y-9220500D01*
G75*
G02*
X8492000Y-9195500I0J25000D01*
G01*
G37*
G36*
G01*
X8287000Y-9195500D02*
X8287000Y-9105500D01*
G75*
G02*
X8312000Y-9080500I25000J0D01*
G01*
X8377000Y-9080500D01*
G75*
G02*
X8402000Y-9105500I0J-25000D01*
G01*
X8402000Y-9195500D01*
G75*
G02*
X8377000Y-9220500I-25000J0D01*
G01*
X8312000Y-9220500D01*
G75*
G02*
X8287000Y-9195500I0J25000D01*
G01*
G37*
G36*
G01*
X8492000Y-9425000D02*
X8492000Y-9335000D01*
G75*
G02*
X8517000Y-9310000I25000J0D01*
G01*
X8582000Y-9310000D01*
G75*
G02*
X8607000Y-9335000I0J-25000D01*
G01*
X8607000Y-9425000D01*
G75*
G02*
X8582000Y-9450000I-25000J0D01*
G01*
X8517000Y-9450000D01*
G75*
G02*
X8492000Y-9425000I0J25000D01*
G01*
G37*
G36*
G01*
X8287000Y-9425000D02*
X8287000Y-9335000D01*
G75*
G02*
X8312000Y-9310000I25000J0D01*
G01*
X8377000Y-9310000D01*
G75*
G02*
X8402000Y-9335000I0J-25000D01*
G01*
X8402000Y-9425000D01*
G75*
G02*
X8377000Y-9450000I-25000J0D01*
G01*
X8312000Y-9450000D01*
G75*
G02*
X8287000Y-9425000I0J25000D01*
G01*
G37*
G36*
G01*
X8527500Y-8662500D02*
X8527500Y-8537500D01*
G75*
G02*
X8552500Y-8512500I25000J0D01*
G01*
X8645000Y-8512500D01*
G75*
G02*
X8670000Y-8537500I0J-25000D01*
G01*
X8670000Y-8662500D01*
G75*
G02*
X8645000Y-8687500I-25000J0D01*
G01*
X8552500Y-8687500D01*
G75*
G02*
X8527500Y-8662500I0J25000D01*
G01*
G37*
G36*
G01*
X8230000Y-8662500D02*
X8230000Y-8537500D01*
G75*
G02*
X8255000Y-8512500I25000J0D01*
G01*
X8347500Y-8512500D01*
G75*
G02*
X8372500Y-8537500I0J-25000D01*
G01*
X8372500Y-8662500D01*
G75*
G02*
X8347500Y-8687500I-25000J0D01*
G01*
X8255000Y-8687500D01*
G75*
G02*
X8230000Y-8662500I0J25000D01*
G01*
G37*
G36*
G01*
X8527500Y-8949500D02*
X8527500Y-8824500D01*
G75*
G02*
X8552500Y-8799500I25000J0D01*
G01*
X8645000Y-8799500D01*
G75*
G02*
X8670000Y-8824500I0J-25000D01*
G01*
X8670000Y-8949500D01*
G75*
G02*
X8645000Y-8974500I-25000J0D01*
G01*
X8552500Y-8974500D01*
G75*
G02*
X8527500Y-8949500I0J25000D01*
G01*
G37*
G36*
G01*
X8230000Y-8949500D02*
X8230000Y-8824500D01*
G75*
G02*
X8255000Y-8799500I25000J0D01*
G01*
X8347500Y-8799500D01*
G75*
G02*
X8372500Y-8824500I0J-25000D01*
G01*
X8372500Y-8949500D01*
G75*
G02*
X8347500Y-8974500I-25000J0D01*
G01*
X8255000Y-8974500D01*
G75*
G02*
X8230000Y-8949500I0J25000D01*
G01*
G37*
G36*
G01*
X11825500Y-9745000D02*
X11795500Y-9745000D01*
G75*
G02*
X11780500Y-9730000I0J15000D01*
G01*
X11780500Y-9565000D01*
G75*
G02*
X11795500Y-9550000I15000J0D01*
G01*
X11825500Y-9550000D01*
G75*
G02*
X11840500Y-9565000I0J-15000D01*
G01*
X11840500Y-9730000D01*
G75*
G02*
X11825500Y-9745000I-15000J0D01*
G01*
G37*
G36*
G01*
X11698500Y-9745000D02*
X11668500Y-9745000D01*
G75*
G02*
X11653500Y-9730000I0J15000D01*
G01*
X11653500Y-9565000D01*
G75*
G02*
X11668500Y-9550000I15000J0D01*
G01*
X11698500Y-9550000D01*
G75*
G02*
X11713500Y-9565000I0J-15000D01*
G01*
X11713500Y-9730000D01*
G75*
G02*
X11698500Y-9745000I-15000J0D01*
G01*
G37*
G36*
G01*
X11571500Y-9745000D02*
X11541500Y-9745000D01*
G75*
G02*
X11526500Y-9730000I0J15000D01*
G01*
X11526500Y-9565000D01*
G75*
G02*
X11541500Y-9550000I15000J0D01*
G01*
X11571500Y-9550000D01*
G75*
G02*
X11586500Y-9565000I0J-15000D01*
G01*
X11586500Y-9730000D01*
G75*
G02*
X11571500Y-9745000I-15000J0D01*
G01*
G37*
G36*
G01*
X11444500Y-9745000D02*
X11414500Y-9745000D01*
G75*
G02*
X11399500Y-9730000I0J15000D01*
G01*
X11399500Y-9565000D01*
G75*
G02*
X11414500Y-9550000I15000J0D01*
G01*
X11444500Y-9550000D01*
G75*
G02*
X11459500Y-9565000I0J-15000D01*
G01*
X11459500Y-9730000D01*
G75*
G02*
X11444500Y-9745000I-15000J0D01*
G01*
G37*
G36*
G01*
X11444500Y-10240000D02*
X11414500Y-10240000D01*
G75*
G02*
X11399500Y-10225000I0J15000D01*
G01*
X11399500Y-10060000D01*
G75*
G02*
X11414500Y-10045000I15000J0D01*
G01*
X11444500Y-10045000D01*
G75*
G02*
X11459500Y-10060000I0J-15000D01*
G01*
X11459500Y-10225000D01*
G75*
G02*
X11444500Y-10240000I-15000J0D01*
G01*
G37*
G36*
G01*
X11571500Y-10240000D02*
X11541500Y-10240000D01*
G75*
G02*
X11526500Y-10225000I0J15000D01*
G01*
X11526500Y-10060000D01*
G75*
G02*
X11541500Y-10045000I15000J0D01*
G01*
X11571500Y-10045000D01*
G75*
G02*
X11586500Y-10060000I0J-15000D01*
G01*
X11586500Y-10225000D01*
G75*
G02*
X11571500Y-10240000I-15000J0D01*
G01*
G37*
G36*
G01*
X11698500Y-10240000D02*
X11668500Y-10240000D01*
G75*
G02*
X11653500Y-10225000I0J15000D01*
G01*
X11653500Y-10060000D01*
G75*
G02*
X11668500Y-10045000I15000J0D01*
G01*
X11698500Y-10045000D01*
G75*
G02*
X11713500Y-10060000I0J-15000D01*
G01*
X11713500Y-10225000D01*
G75*
G02*
X11698500Y-10240000I-15000J0D01*
G01*
G37*
G36*
G01*
X11825500Y-10240000D02*
X11795500Y-10240000D01*
G75*
G02*
X11780500Y-10225000I0J15000D01*
G01*
X11780500Y-10060000D01*
G75*
G02*
X11795500Y-10045000I15000J0D01*
G01*
X11825500Y-10045000D01*
G75*
G02*
X11840500Y-10060000I0J-15000D01*
G01*
X11840500Y-10225000D01*
G75*
G02*
X11825500Y-10240000I-15000J0D01*
G01*
G37*
D23*
X12295000Y-10105000D03*
X12295000Y-9685000D03*
D24*
X18172900Y-11199600D03*
X18172900Y-11072600D03*
X18172900Y-10945600D03*
X18172900Y-10818600D03*
X18172900Y-10691600D03*
X18172900Y-10564600D03*
X18172900Y-10437600D03*
X18172900Y-10310600D03*
X18172900Y-10183600D03*
X19112900Y-10183600D03*
X19112900Y-10310600D03*
X19112900Y-10437600D03*
X19112900Y-10564600D03*
X19112900Y-10691600D03*
X19112900Y-10818600D03*
X19112900Y-10945600D03*
X19112900Y-11072600D03*
X19112900Y-11199600D03*
G36*
G01*
X15433900Y-10795400D02*
X15433900Y-10885400D01*
G75*
G02*
X15408900Y-10910400I-25000J0D01*
G01*
X15343900Y-10910400D01*
G75*
G02*
X15318900Y-10885400I0J25000D01*
G01*
X15318900Y-10795400D01*
G75*
G02*
X15343900Y-10770400I25000J0D01*
G01*
X15408900Y-10770400D01*
G75*
G02*
X15433900Y-10795400I0J-25000D01*
G01*
G37*
G36*
G01*
X15638900Y-10795400D02*
X15638900Y-10885400D01*
G75*
G02*
X15613900Y-10910400I-25000J0D01*
G01*
X15548900Y-10910400D01*
G75*
G02*
X15523900Y-10885400I0J25000D01*
G01*
X15523900Y-10795400D01*
G75*
G02*
X15548900Y-10770400I25000J0D01*
G01*
X15613900Y-10770400D01*
G75*
G02*
X15638900Y-10795400I0J-25000D01*
G01*
G37*
G36*
G01*
X13825000Y-11950000D02*
X13735000Y-11950000D01*
G75*
G02*
X13710000Y-11925000I0J25000D01*
G01*
X13710000Y-11860000D01*
G75*
G02*
X13735000Y-11835000I25000J0D01*
G01*
X13825000Y-11835000D01*
G75*
G02*
X13850000Y-11860000I0J-25000D01*
G01*
X13850000Y-11925000D01*
G75*
G02*
X13825000Y-11950000I-25000J0D01*
G01*
G37*
G36*
G01*
X13825000Y-12155000D02*
X13735000Y-12155000D01*
G75*
G02*
X13710000Y-12130000I0J25000D01*
G01*
X13710000Y-12065000D01*
G75*
G02*
X13735000Y-12040000I25000J0D01*
G01*
X13825000Y-12040000D01*
G75*
G02*
X13850000Y-12065000I0J-25000D01*
G01*
X13850000Y-12130000D01*
G75*
G02*
X13825000Y-12155000I-25000J0D01*
G01*
G37*
G36*
G01*
X11265000Y-10000000D02*
X11175000Y-10000000D01*
G75*
G02*
X11150000Y-9975000I0J25000D01*
G01*
X11150000Y-9910000D01*
G75*
G02*
X11175000Y-9885000I25000J0D01*
G01*
X11265000Y-9885000D01*
G75*
G02*
X11290000Y-9910000I0J-25000D01*
G01*
X11290000Y-9975000D01*
G75*
G02*
X11265000Y-10000000I-25000J0D01*
G01*
G37*
G36*
G01*
X11265000Y-10205000D02*
X11175000Y-10205000D01*
G75*
G02*
X11150000Y-10180000I0J25000D01*
G01*
X11150000Y-10115000D01*
G75*
G02*
X11175000Y-10090000I25000J0D01*
G01*
X11265000Y-10090000D01*
G75*
G02*
X11290000Y-10115000I0J-25000D01*
G01*
X11290000Y-10180000D01*
G75*
G02*
X11265000Y-10205000I-25000J0D01*
G01*
G37*
D25*
X5981075Y-12231075D03*
X6097500Y-11950000D03*
X5981075Y-11668925D03*
X5700000Y-11552500D03*
X5418925Y-11668925D03*
X5302500Y-11950000D03*
X5418925Y-12231075D03*
X5700000Y-12347500D03*
D26*
X5700000Y-11950000D03*
D14*
X6945000Y-8340000D03*
D15*
X7445000Y-8340000D03*
D14*
X6945000Y-9655000D03*
D15*
X7445000Y-9655000D03*
D18*
X11600000Y-7290000D03*
X11600000Y-6745000D03*
D19*
X11600000Y-6200000D03*
D20*
X13586000Y-6745000D03*
G36*
G01*
X13959000Y-12030000D02*
X13989000Y-12030000D01*
G75*
G02*
X14004000Y-12045000I0J-15000D01*
G01*
X14004000Y-12210000D01*
G75*
G02*
X13989000Y-12225000I-15000J0D01*
G01*
X13959000Y-12225000D01*
G75*
G02*
X13944000Y-12210000I0J15000D01*
G01*
X13944000Y-12045000D01*
G75*
G02*
X13959000Y-12030000I15000J0D01*
G01*
G37*
G36*
G01*
X14086000Y-12030000D02*
X14116000Y-12030000D01*
G75*
G02*
X14131000Y-12045000I0J-15000D01*
G01*
X14131000Y-12210000D01*
G75*
G02*
X14116000Y-12225000I-15000J0D01*
G01*
X14086000Y-12225000D01*
G75*
G02*
X14071000Y-12210000I0J15000D01*
G01*
X14071000Y-12045000D01*
G75*
G02*
X14086000Y-12030000I15000J0D01*
G01*
G37*
G36*
G01*
X14213000Y-12030000D02*
X14243000Y-12030000D01*
G75*
G02*
X14258000Y-12045000I0J-15000D01*
G01*
X14258000Y-12210000D01*
G75*
G02*
X14243000Y-12225000I-15000J0D01*
G01*
X14213000Y-12225000D01*
G75*
G02*
X14198000Y-12210000I0J15000D01*
G01*
X14198000Y-12045000D01*
G75*
G02*
X14213000Y-12030000I15000J0D01*
G01*
G37*
G36*
G01*
X14340000Y-12030000D02*
X14370000Y-12030000D01*
G75*
G02*
X14385000Y-12045000I0J-15000D01*
G01*
X14385000Y-12210000D01*
G75*
G02*
X14370000Y-12225000I-15000J0D01*
G01*
X14340000Y-12225000D01*
G75*
G02*
X14325000Y-12210000I0J15000D01*
G01*
X14325000Y-12045000D01*
G75*
G02*
X14340000Y-12030000I15000J0D01*
G01*
G37*
G36*
G01*
X14467000Y-12030000D02*
X14497000Y-12030000D01*
G75*
G02*
X14512000Y-12045000I0J-15000D01*
G01*
X14512000Y-12210000D01*
G75*
G02*
X14497000Y-12225000I-15000J0D01*
G01*
X14467000Y-12225000D01*
G75*
G02*
X14452000Y-12210000I0J15000D01*
G01*
X14452000Y-12045000D01*
G75*
G02*
X14467000Y-12030000I15000J0D01*
G01*
G37*
G36*
G01*
X14594000Y-12030000D02*
X14624000Y-12030000D01*
G75*
G02*
X14639000Y-12045000I0J-15000D01*
G01*
X14639000Y-12210000D01*
G75*
G02*
X14624000Y-12225000I-15000J0D01*
G01*
X14594000Y-12225000D01*
G75*
G02*
X14579000Y-12210000I0J15000D01*
G01*
X14579000Y-12045000D01*
G75*
G02*
X14594000Y-12030000I15000J0D01*
G01*
G37*
G36*
G01*
X14721000Y-12030000D02*
X14751000Y-12030000D01*
G75*
G02*
X14766000Y-12045000I0J-15000D01*
G01*
X14766000Y-12210000D01*
G75*
G02*
X14751000Y-12225000I-15000J0D01*
G01*
X14721000Y-12225000D01*
G75*
G02*
X14706000Y-12210000I0J15000D01*
G01*
X14706000Y-12045000D01*
G75*
G02*
X14721000Y-12030000I15000J0D01*
G01*
G37*
G36*
G01*
X14721000Y-11535000D02*
X14751000Y-11535000D01*
G75*
G02*
X14766000Y-11550000I0J-15000D01*
G01*
X14766000Y-11715000D01*
G75*
G02*
X14751000Y-11730000I-15000J0D01*
G01*
X14721000Y-11730000D01*
G75*
G02*
X14706000Y-11715000I0J15000D01*
G01*
X14706000Y-11550000D01*
G75*
G02*
X14721000Y-11535000I15000J0D01*
G01*
G37*
G36*
G01*
X14594000Y-11535000D02*
X14624000Y-11535000D01*
G75*
G02*
X14639000Y-11550000I0J-15000D01*
G01*
X14639000Y-11715000D01*
G75*
G02*
X14624000Y-11730000I-15000J0D01*
G01*
X14594000Y-11730000D01*
G75*
G02*
X14579000Y-11715000I0J15000D01*
G01*
X14579000Y-11550000D01*
G75*
G02*
X14594000Y-11535000I15000J0D01*
G01*
G37*
G36*
G01*
X14467000Y-11535000D02*
X14497000Y-11535000D01*
G75*
G02*
X14512000Y-11550000I0J-15000D01*
G01*
X14512000Y-11715000D01*
G75*
G02*
X14497000Y-11730000I-15000J0D01*
G01*
X14467000Y-11730000D01*
G75*
G02*
X14452000Y-11715000I0J15000D01*
G01*
X14452000Y-11550000D01*
G75*
G02*
X14467000Y-11535000I15000J0D01*
G01*
G37*
G36*
G01*
X14340000Y-11535000D02*
X14370000Y-11535000D01*
G75*
G02*
X14385000Y-11550000I0J-15000D01*
G01*
X14385000Y-11715000D01*
G75*
G02*
X14370000Y-11730000I-15000J0D01*
G01*
X14340000Y-11730000D01*
G75*
G02*
X14325000Y-11715000I0J15000D01*
G01*
X14325000Y-11550000D01*
G75*
G02*
X14340000Y-11535000I15000J0D01*
G01*
G37*
G36*
G01*
X14213000Y-11535000D02*
X14243000Y-11535000D01*
G75*
G02*
X14258000Y-11550000I0J-15000D01*
G01*
X14258000Y-11715000D01*
G75*
G02*
X14243000Y-11730000I-15000J0D01*
G01*
X14213000Y-11730000D01*
G75*
G02*
X14198000Y-11715000I0J15000D01*
G01*
X14198000Y-11550000D01*
G75*
G02*
X14213000Y-11535000I15000J0D01*
G01*
G37*
G36*
G01*
X14086000Y-11535000D02*
X14116000Y-11535000D01*
G75*
G02*
X14131000Y-11550000I0J-15000D01*
G01*
X14131000Y-11715000D01*
G75*
G02*
X14116000Y-11730000I-15000J0D01*
G01*
X14086000Y-11730000D01*
G75*
G02*
X14071000Y-11715000I0J15000D01*
G01*
X14071000Y-11550000D01*
G75*
G02*
X14086000Y-11535000I15000J0D01*
G01*
G37*
G36*
G01*
X13959000Y-11535000D02*
X13989000Y-11535000D01*
G75*
G02*
X14004000Y-11550000I0J-15000D01*
G01*
X14004000Y-11715000D01*
G75*
G02*
X13989000Y-11730000I-15000J0D01*
G01*
X13959000Y-11730000D01*
G75*
G02*
X13944000Y-11715000I0J15000D01*
G01*
X13944000Y-11550000D01*
G75*
G02*
X13959000Y-11535000I15000J0D01*
G01*
G37*
G36*
G01*
X10700000Y-10140000D02*
X10790000Y-10140000D01*
G75*
G02*
X10815000Y-10165000I0J-25000D01*
G01*
X10815000Y-10230000D01*
G75*
G02*
X10790000Y-10255000I-25000J0D01*
G01*
X10700000Y-10255000D01*
G75*
G02*
X10675000Y-10230000I0J25000D01*
G01*
X10675000Y-10165000D01*
G75*
G02*
X10700000Y-10140000I25000J0D01*
G01*
G37*
G36*
G01*
X10700000Y-9935000D02*
X10790000Y-9935000D01*
G75*
G02*
X10815000Y-9960000I0J-25000D01*
G01*
X10815000Y-10025000D01*
G75*
G02*
X10790000Y-10050000I-25000J0D01*
G01*
X10700000Y-10050000D01*
G75*
G02*
X10675000Y-10025000I0J25000D01*
G01*
X10675000Y-9960000D01*
G75*
G02*
X10700000Y-9935000I25000J0D01*
G01*
G37*
G36*
G01*
X10595000Y-10425000D02*
X10595000Y-10515000D01*
G75*
G02*
X10570000Y-10540000I-25000J0D01*
G01*
X10505000Y-10540000D01*
G75*
G02*
X10480000Y-10515000I0J25000D01*
G01*
X10480000Y-10425000D01*
G75*
G02*
X10505000Y-10400000I25000J0D01*
G01*
X10570000Y-10400000D01*
G75*
G02*
X10595000Y-10425000I0J-25000D01*
G01*
G37*
G36*
G01*
X10800000Y-10425000D02*
X10800000Y-10515000D01*
G75*
G02*
X10775000Y-10540000I-25000J0D01*
G01*
X10710000Y-10540000D01*
G75*
G02*
X10685000Y-10515000I0J25000D01*
G01*
X10685000Y-10425000D01*
G75*
G02*
X10710000Y-10400000I25000J0D01*
G01*
X10775000Y-10400000D01*
G75*
G02*
X10800000Y-10425000I0J-25000D01*
G01*
G37*
G36*
G01*
X10995000Y-8722500D02*
X11085000Y-8722500D01*
G75*
G02*
X11110000Y-8747500I0J-25000D01*
G01*
X11110000Y-8812500D01*
G75*
G02*
X11085000Y-8837500I-25000J0D01*
G01*
X10995000Y-8837500D01*
G75*
G02*
X10970000Y-8812500I0J25000D01*
G01*
X10970000Y-8747500D01*
G75*
G02*
X10995000Y-8722500I25000J0D01*
G01*
G37*
G36*
G01*
X10995000Y-8927500D02*
X11085000Y-8927500D01*
G75*
G02*
X11110000Y-8952500I0J-25000D01*
G01*
X11110000Y-9017500D01*
G75*
G02*
X11085000Y-9042500I-25000J0D01*
G01*
X10995000Y-9042500D01*
G75*
G02*
X10970000Y-9017500I0J25000D01*
G01*
X10970000Y-8952500D01*
G75*
G02*
X10995000Y-8927500I25000J0D01*
G01*
G37*
G36*
G01*
X14670100Y-11303400D02*
X14670100Y-11393400D01*
G75*
G02*
X14645100Y-11418400I-25000J0D01*
G01*
X14580100Y-11418400D01*
G75*
G02*
X14555100Y-11393400I0J25000D01*
G01*
X14555100Y-11303400D01*
G75*
G02*
X14580100Y-11278400I25000J0D01*
G01*
X14645100Y-11278400D01*
G75*
G02*
X14670100Y-11303400I0J-25000D01*
G01*
G37*
G36*
G01*
X14875100Y-11303400D02*
X14875100Y-11393400D01*
G75*
G02*
X14850100Y-11418400I-25000J0D01*
G01*
X14785100Y-11418400D01*
G75*
G02*
X14760100Y-11393400I0J25000D01*
G01*
X14760100Y-11303400D01*
G75*
G02*
X14785100Y-11278400I25000J0D01*
G01*
X14850100Y-11278400D01*
G75*
G02*
X14875100Y-11303400I0J-25000D01*
G01*
G37*
G36*
G01*
X14670100Y-11049400D02*
X14670100Y-11139400D01*
G75*
G02*
X14645100Y-11164400I-25000J0D01*
G01*
X14580100Y-11164400D01*
G75*
G02*
X14555100Y-11139400I0J25000D01*
G01*
X14555100Y-11049400D01*
G75*
G02*
X14580100Y-11024400I25000J0D01*
G01*
X14645100Y-11024400D01*
G75*
G02*
X14670100Y-11049400I0J-25000D01*
G01*
G37*
G36*
G01*
X14875100Y-11049400D02*
X14875100Y-11139400D01*
G75*
G02*
X14850100Y-11164400I-25000J0D01*
G01*
X14785100Y-11164400D01*
G75*
G02*
X14760100Y-11139400I0J25000D01*
G01*
X14760100Y-11049400D01*
G75*
G02*
X14785100Y-11024400I25000J0D01*
G01*
X14850100Y-11024400D01*
G75*
G02*
X14875100Y-11049400I0J-25000D01*
G01*
G37*
G36*
G01*
X14760100Y-10885400D02*
X14760100Y-10795400D01*
G75*
G02*
X14785100Y-10770400I25000J0D01*
G01*
X14850100Y-10770400D01*
G75*
G02*
X14875100Y-10795400I0J-25000D01*
G01*
X14875100Y-10885400D01*
G75*
G02*
X14850100Y-10910400I-25000J0D01*
G01*
X14785100Y-10910400D01*
G75*
G02*
X14760100Y-10885400I0J25000D01*
G01*
G37*
G36*
G01*
X14555100Y-10885400D02*
X14555100Y-10795400D01*
G75*
G02*
X14580100Y-10770400I25000J0D01*
G01*
X14645100Y-10770400D01*
G75*
G02*
X14670100Y-10795400I0J-25000D01*
G01*
X14670100Y-10885400D01*
G75*
G02*
X14645100Y-10910400I-25000J0D01*
G01*
X14580100Y-10910400D01*
G75*
G02*
X14555100Y-10885400I0J25000D01*
G01*
G37*
D25*
X5981075Y-10431075D03*
X6097500Y-10150000D03*
X5981075Y-9868925D03*
X5700000Y-9752500D03*
X5418925Y-9868925D03*
X5302500Y-10150000D03*
X5418925Y-10431075D03*
X5700000Y-10547500D03*
D27*
X5700000Y-10150000D03*
D25*
X5418925Y-7918925D03*
X5302500Y-8200000D03*
X5418925Y-8481075D03*
X5700000Y-8597500D03*
X5981075Y-8481075D03*
X6097500Y-8200000D03*
X5981075Y-7918925D03*
X5700000Y-7802500D03*
D27*
X5700000Y-8200000D03*
D25*
X5418925Y-6018925D03*
X5302500Y-6300000D03*
X5418925Y-6581075D03*
X5700000Y-6697500D03*
X5981075Y-6581075D03*
X6097500Y-6300000D03*
X5981075Y-6018925D03*
X5700000Y-5902500D03*
D26*
X5700000Y-6300000D03*
D28*
X10415000Y-8090000D03*
X10965000Y-8090000D03*
G36*
G01*
X10160000Y-8205000D02*
X10160000Y-8295000D01*
G75*
G02*
X10135000Y-8320000I-25000J0D01*
G01*
X10070000Y-8320000D01*
G75*
G02*
X10045000Y-8295000I0J25000D01*
G01*
X10045000Y-8205000D01*
G75*
G02*
X10070000Y-8180000I25000J0D01*
G01*
X10135000Y-8180000D01*
G75*
G02*
X10160000Y-8205000I0J-25000D01*
G01*
G37*
G36*
G01*
X9955000Y-8205000D02*
X9955000Y-8295000D01*
G75*
G02*
X9930000Y-8320000I-25000J0D01*
G01*
X9865000Y-8320000D01*
G75*
G02*
X9840000Y-8295000I0J25000D01*
G01*
X9840000Y-8205000D01*
G75*
G02*
X9865000Y-8180000I25000J0D01*
G01*
X9930000Y-8180000D01*
G75*
G02*
X9955000Y-8205000I0J-25000D01*
G01*
G37*
G36*
G01*
X10065000Y-7690000D02*
X10065000Y-7875000D01*
G75*
G02*
X10040000Y-7900000I-25000J0D01*
G01*
X9865000Y-7900000D01*
G75*
G02*
X9840000Y-7875000I0J25000D01*
G01*
X9840000Y-7690000D01*
G75*
G02*
X9865000Y-7665000I25000J0D01*
G01*
X10040000Y-7665000D01*
G75*
G02*
X10065000Y-7690000I0J-25000D01*
G01*
G37*
G36*
G01*
X10575000Y-7690000D02*
X10575000Y-7875000D01*
G75*
G02*
X10550000Y-7900000I-25000J0D01*
G01*
X10375000Y-7900000D01*
G75*
G02*
X10350000Y-7875000I0J25000D01*
G01*
X10350000Y-7690000D01*
G75*
G02*
X10375000Y-7665000I25000J0D01*
G01*
X10550000Y-7665000D01*
G75*
G02*
X10575000Y-7690000I0J-25000D01*
G01*
G37*
D14*
X8775208Y-8340000D03*
D15*
X8275208Y-8340000D03*
G36*
G01*
X10995000Y-8280000D02*
X11085000Y-8280000D01*
G75*
G02*
X11110000Y-8305000I0J-25000D01*
G01*
X11110000Y-8370000D01*
G75*
G02*
X11085000Y-8395000I-25000J0D01*
G01*
X10995000Y-8395000D01*
G75*
G02*
X10970000Y-8370000I0J25000D01*
G01*
X10970000Y-8305000D01*
G75*
G02*
X10995000Y-8280000I25000J0D01*
G01*
G37*
G36*
G01*
X10995000Y-8485000D02*
X11085000Y-8485000D01*
G75*
G02*
X11110000Y-8510000I0J-25000D01*
G01*
X11110000Y-8575000D01*
G75*
G02*
X11085000Y-8600000I-25000J0D01*
G01*
X10995000Y-8600000D01*
G75*
G02*
X10970000Y-8575000I0J25000D01*
G01*
X10970000Y-8510000D01*
G75*
G02*
X10995000Y-8485000I25000J0D01*
G01*
G37*
G36*
G01*
X15523900Y-11115000D02*
X15523900Y-11025000D01*
G75*
G02*
X15548900Y-11000000I25000J0D01*
G01*
X15613900Y-11000000D01*
G75*
G02*
X15638900Y-11025000I0J-25000D01*
G01*
X15638900Y-11115000D01*
G75*
G02*
X15613900Y-11140000I-25000J0D01*
G01*
X15548900Y-11140000D01*
G75*
G02*
X15523900Y-11115000I0J25000D01*
G01*
G37*
G36*
G01*
X15318900Y-11115000D02*
X15318900Y-11025000D01*
G75*
G02*
X15343900Y-11000000I25000J0D01*
G01*
X15408900Y-11000000D01*
G75*
G02*
X15433900Y-11025000I0J-25000D01*
G01*
X15433900Y-11115000D01*
G75*
G02*
X15408900Y-11140000I-25000J0D01*
G01*
X15343900Y-11140000D01*
G75*
G02*
X15318900Y-11115000I0J25000D01*
G01*
G37*
G36*
G01*
X20905000Y-6787500D02*
X20815000Y-6787500D01*
G75*
G02*
X20790000Y-6762500I0J25000D01*
G01*
X20790000Y-6697500D01*
G75*
G02*
X20815000Y-6672500I25000J0D01*
G01*
X20905000Y-6672500D01*
G75*
G02*
X20930000Y-6697500I0J-25000D01*
G01*
X20930000Y-6762500D01*
G75*
G02*
X20905000Y-6787500I-25000J0D01*
G01*
G37*
G36*
G01*
X20905000Y-6992500D02*
X20815000Y-6992500D01*
G75*
G02*
X20790000Y-6967500I0J25000D01*
G01*
X20790000Y-6902500D01*
G75*
G02*
X20815000Y-6877500I25000J0D01*
G01*
X20905000Y-6877500D01*
G75*
G02*
X20930000Y-6902500I0J-25000D01*
G01*
X20930000Y-6967500D01*
G75*
G02*
X20905000Y-6992500I-25000J0D01*
G01*
G37*
G36*
G01*
X20415000Y-5870000D02*
X20505000Y-5870000D01*
G75*
G02*
X20530000Y-5895000I0J-25000D01*
G01*
X20530000Y-5960000D01*
G75*
G02*
X20505000Y-5985000I-25000J0D01*
G01*
X20415000Y-5985000D01*
G75*
G02*
X20390000Y-5960000I0J25000D01*
G01*
X20390000Y-5895000D01*
G75*
G02*
X20415000Y-5870000I25000J0D01*
G01*
G37*
G36*
G01*
X20415000Y-6075000D02*
X20505000Y-6075000D01*
G75*
G02*
X20530000Y-6100000I0J-25000D01*
G01*
X20530000Y-6165000D01*
G75*
G02*
X20505000Y-6190000I-25000J0D01*
G01*
X20415000Y-6190000D01*
G75*
G02*
X20390000Y-6165000I0J25000D01*
G01*
X20390000Y-6100000D01*
G75*
G02*
X20415000Y-6075000I25000J0D01*
G01*
G37*
G36*
G01*
X20552500Y-6542500D02*
X20367500Y-6542500D01*
G75*
G02*
X20342500Y-6517500I0J25000D01*
G01*
X20342500Y-6342500D01*
G75*
G02*
X20367500Y-6317500I25000J0D01*
G01*
X20552500Y-6317500D01*
G75*
G02*
X20577500Y-6342500I0J-25000D01*
G01*
X20577500Y-6517500D01*
G75*
G02*
X20552500Y-6542500I-25000J0D01*
G01*
G37*
G36*
G01*
X20552500Y-7052500D02*
X20367500Y-7052500D01*
G75*
G02*
X20342500Y-7027500I0J25000D01*
G01*
X20342500Y-6852500D01*
G75*
G02*
X20367500Y-6827500I25000J0D01*
G01*
X20552500Y-6827500D01*
G75*
G02*
X20577500Y-6852500I0J-25000D01*
G01*
X20577500Y-7027500D01*
G75*
G02*
X20552500Y-7052500I-25000J0D01*
G01*
G37*
G36*
G01*
X20767500Y-5807500D02*
X20952500Y-5807500D01*
G75*
G02*
X20977500Y-5832500I0J-25000D01*
G01*
X20977500Y-6007500D01*
G75*
G02*
X20952500Y-6032500I-25000J0D01*
G01*
X20767500Y-6032500D01*
G75*
G02*
X20742500Y-6007500I0J25000D01*
G01*
X20742500Y-5832500D01*
G75*
G02*
X20767500Y-5807500I25000J0D01*
G01*
G37*
G36*
G01*
X20767500Y-6317500D02*
X20952500Y-6317500D01*
G75*
G02*
X20977500Y-6342500I0J-25000D01*
G01*
X20977500Y-6517500D01*
G75*
G02*
X20952500Y-6542500I-25000J0D01*
G01*
X20767500Y-6542500D01*
G75*
G02*
X20742500Y-6517500I0J25000D01*
G01*
X20742500Y-6342500D01*
G75*
G02*
X20767500Y-6317500I25000J0D01*
G01*
G37*
D28*
X21335000Y-5930000D03*
X21885000Y-5930000D03*
D29*
X18660000Y-6430000D03*
D30*
X19955400Y-6176000D03*
X19955400Y-6430000D03*
X19955400Y-6684000D03*
G36*
G01*
X16530000Y-12070000D02*
X16530000Y-12160000D01*
G75*
G02*
X16505000Y-12185000I-25000J0D01*
G01*
X16440000Y-12185000D01*
G75*
G02*
X16415000Y-12160000I0J25000D01*
G01*
X16415000Y-12070000D01*
G75*
G02*
X16440000Y-12045000I25000J0D01*
G01*
X16505000Y-12045000D01*
G75*
G02*
X16530000Y-12070000I0J-25000D01*
G01*
G37*
G36*
G01*
X16325000Y-12070000D02*
X16325000Y-12160000D01*
G75*
G02*
X16300000Y-12185000I-25000J0D01*
G01*
X16235000Y-12185000D01*
G75*
G02*
X16210000Y-12160000I0J25000D01*
G01*
X16210000Y-12070000D01*
G75*
G02*
X16235000Y-12045000I25000J0D01*
G01*
X16300000Y-12045000D01*
G75*
G02*
X16325000Y-12070000I0J-25000D01*
G01*
G37*
D31*
X16790000Y-8795000D03*
D32*
X16790000Y-9049000D03*
G36*
G01*
X17185000Y-9532500D02*
X17095000Y-9532500D01*
G75*
G02*
X17070000Y-9507500I0J25000D01*
G01*
X17070000Y-9442500D01*
G75*
G02*
X17095000Y-9417500I25000J0D01*
G01*
X17185000Y-9417500D01*
G75*
G02*
X17210000Y-9442500I0J-25000D01*
G01*
X17210000Y-9507500D01*
G75*
G02*
X17185000Y-9532500I-25000J0D01*
G01*
G37*
G36*
G01*
X17185000Y-9327500D02*
X17095000Y-9327500D01*
G75*
G02*
X17070000Y-9302500I0J25000D01*
G01*
X17070000Y-9237500D01*
G75*
G02*
X17095000Y-9212500I25000J0D01*
G01*
X17185000Y-9212500D01*
G75*
G02*
X17210000Y-9237500I0J-25000D01*
G01*
X17210000Y-9302500D01*
G75*
G02*
X17185000Y-9327500I-25000J0D01*
G01*
G37*
G36*
G01*
X16550000Y-8800000D02*
X16550000Y-8890000D01*
G75*
G02*
X16525000Y-8915000I-25000J0D01*
G01*
X16460000Y-8915000D01*
G75*
G02*
X16435000Y-8890000I0J25000D01*
G01*
X16435000Y-8800000D01*
G75*
G02*
X16460000Y-8775000I25000J0D01*
G01*
X16525000Y-8775000D01*
G75*
G02*
X16550000Y-8800000I0J-25000D01*
G01*
G37*
G36*
G01*
X16345000Y-8800000D02*
X16345000Y-8890000D01*
G75*
G02*
X16320000Y-8915000I-25000J0D01*
G01*
X16255000Y-8915000D01*
G75*
G02*
X16230000Y-8890000I0J25000D01*
G01*
X16230000Y-8800000D01*
G75*
G02*
X16255000Y-8775000I25000J0D01*
G01*
X16320000Y-8775000D01*
G75*
G02*
X16345000Y-8800000I0J-25000D01*
G01*
G37*
D33*
X15855000Y-12115000D03*
D34*
X15093000Y-8813000D03*
X15855000Y-11861000D03*
X15093000Y-9067000D03*
X15855000Y-11607000D03*
X15093000Y-9321000D03*
X15855000Y-11353000D03*
X15093000Y-9575000D03*
X15855000Y-11099000D03*
X15093000Y-9829000D03*
X15855000Y-10845000D03*
X15093000Y-10083000D03*
X15855000Y-10591000D03*
X15093000Y-10337000D03*
X15855000Y-10337000D03*
X15093000Y-10591000D03*
X15855000Y-10083000D03*
X15093000Y-10845000D03*
X15855000Y-9829000D03*
X15093000Y-11099000D03*
X15855000Y-9575000D03*
X15093000Y-11353000D03*
X15855000Y-9321000D03*
X15093000Y-11607000D03*
X15855000Y-9067000D03*
X15093000Y-11861000D03*
X15855000Y-8813000D03*
X15093000Y-12115000D03*
G36*
G01*
X16097500Y-9120000D02*
X16097500Y-9030000D01*
G75*
G02*
X16122500Y-9005000I25000J0D01*
G01*
X16187500Y-9005000D01*
G75*
G02*
X16212500Y-9030000I0J-25000D01*
G01*
X16212500Y-9120000D01*
G75*
G02*
X16187500Y-9145000I-25000J0D01*
G01*
X16122500Y-9145000D01*
G75*
G02*
X16097500Y-9120000I0J25000D01*
G01*
G37*
G36*
G01*
X16302500Y-9120000D02*
X16302500Y-9030000D01*
G75*
G02*
X16327500Y-9005000I25000J0D01*
G01*
X16392500Y-9005000D01*
G75*
G02*
X16417500Y-9030000I0J-25000D01*
G01*
X16417500Y-9120000D01*
G75*
G02*
X16392500Y-9145000I-25000J0D01*
G01*
X16327500Y-9145000D01*
G75*
G02*
X16302500Y-9120000I0J25000D01*
G01*
G37*
G36*
G01*
X17417500Y-5807500D02*
X17602500Y-5807500D01*
G75*
G02*
X17627500Y-5832500I0J-25000D01*
G01*
X17627500Y-6007500D01*
G75*
G02*
X17602500Y-6032500I-25000J0D01*
G01*
X17417500Y-6032500D01*
G75*
G02*
X17392500Y-6007500I0J25000D01*
G01*
X17392500Y-5832500D01*
G75*
G02*
X17417500Y-5807500I25000J0D01*
G01*
G37*
G36*
G01*
X17417500Y-6317500D02*
X17602500Y-6317500D01*
G75*
G02*
X17627500Y-6342500I0J-25000D01*
G01*
X17627500Y-6517500D01*
G75*
G02*
X17602500Y-6542500I-25000J0D01*
G01*
X17417500Y-6542500D01*
G75*
G02*
X17392500Y-6517500I0J25000D01*
G01*
X17392500Y-6342500D01*
G75*
G02*
X17417500Y-6317500I25000J0D01*
G01*
G37*
G36*
G01*
X17202500Y-6537500D02*
X17017500Y-6537500D01*
G75*
G02*
X16992500Y-6512500I0J25000D01*
G01*
X16992500Y-6337500D01*
G75*
G02*
X17017500Y-6312500I25000J0D01*
G01*
X17202500Y-6312500D01*
G75*
G02*
X17227500Y-6337500I0J-25000D01*
G01*
X17227500Y-6512500D01*
G75*
G02*
X17202500Y-6537500I-25000J0D01*
G01*
G37*
G36*
G01*
X17202500Y-7047500D02*
X17017500Y-7047500D01*
G75*
G02*
X16992500Y-7022500I0J25000D01*
G01*
X16992500Y-6847500D01*
G75*
G02*
X17017500Y-6822500I25000J0D01*
G01*
X17202500Y-6822500D01*
G75*
G02*
X17227500Y-6847500I0J-25000D01*
G01*
X17227500Y-7022500D01*
G75*
G02*
X17202500Y-7047500I-25000J0D01*
G01*
G37*
D30*
X16605400Y-6684000D03*
X16605400Y-6430000D03*
X16605400Y-6176000D03*
D29*
X15310000Y-6430000D03*
D35*
X19935000Y-8735000D03*
X19635000Y-8640000D03*
X19635000Y-8830000D03*
G36*
G01*
X21832500Y-6165000D02*
X21957500Y-6165000D01*
G75*
G02*
X21982500Y-6190000I0J-25000D01*
G01*
X21982500Y-6282500D01*
G75*
G02*
X21957500Y-6307500I-25000J0D01*
G01*
X21832500Y-6307500D01*
G75*
G02*
X21807500Y-6282500I0J25000D01*
G01*
X21807500Y-6190000D01*
G75*
G02*
X21832500Y-6165000I25000J0D01*
G01*
G37*
G36*
G01*
X21832500Y-6462500D02*
X21957500Y-6462500D01*
G75*
G02*
X21982500Y-6487500I0J-25000D01*
G01*
X21982500Y-6580000D01*
G75*
G02*
X21957500Y-6605000I-25000J0D01*
G01*
X21832500Y-6605000D01*
G75*
G02*
X21807500Y-6580000I0J25000D01*
G01*
X21807500Y-6487500D01*
G75*
G02*
X21832500Y-6462500I25000J0D01*
G01*
G37*
D12*
X21192400Y-7266600D03*
X21192400Y-8816600D03*
D34*
X20608400Y-7597100D03*
X20862400Y-7724100D03*
X20608400Y-7851100D03*
X20862400Y-7978100D03*
X20608400Y-8105100D03*
X20862400Y-8232100D03*
X20608400Y-8359100D03*
X20862400Y-8486100D03*
D36*
X21497400Y-8613100D03*
X21497400Y-7470100D03*
D12*
X21192800Y-9352100D03*
X21192800Y-10902100D03*
D34*
X20608800Y-9682600D03*
X20862800Y-9809600D03*
X20608800Y-9936600D03*
X20862800Y-10063600D03*
X20608800Y-10190600D03*
X20862800Y-10317600D03*
X20608800Y-10444600D03*
X20862800Y-10571600D03*
D36*
X21497800Y-10698600D03*
X21497800Y-9555600D03*
G36*
G01*
X17095000Y-8786500D02*
X17185000Y-8786500D01*
G75*
G02*
X17210000Y-8811500I0J-25000D01*
G01*
X17210000Y-8876500D01*
G75*
G02*
X17185000Y-8901500I-25000J0D01*
G01*
X17095000Y-8901500D01*
G75*
G02*
X17070000Y-8876500I0J25000D01*
G01*
X17070000Y-8811500D01*
G75*
G02*
X17095000Y-8786500I25000J0D01*
G01*
G37*
G36*
G01*
X17095000Y-8991500D02*
X17185000Y-8991500D01*
G75*
G02*
X17210000Y-9016500I0J-25000D01*
G01*
X17210000Y-9081500D01*
G75*
G02*
X17185000Y-9106500I-25000J0D01*
G01*
X17095000Y-9106500D01*
G75*
G02*
X17070000Y-9081500I0J25000D01*
G01*
X17070000Y-9016500D01*
G75*
G02*
X17095000Y-8991500I25000J0D01*
G01*
G37*
G36*
G01*
X19050000Y-11375000D02*
X19050000Y-11465000D01*
G75*
G02*
X19025000Y-11490000I-25000J0D01*
G01*
X18960000Y-11490000D01*
G75*
G02*
X18935000Y-11465000I0J25000D01*
G01*
X18935000Y-11375000D01*
G75*
G02*
X18960000Y-11350000I25000J0D01*
G01*
X19025000Y-11350000D01*
G75*
G02*
X19050000Y-11375000I0J-25000D01*
G01*
G37*
G36*
G01*
X18845000Y-11375000D02*
X18845000Y-11465000D01*
G75*
G02*
X18820000Y-11490000I-25000J0D01*
G01*
X18755000Y-11490000D01*
G75*
G02*
X18730000Y-11465000I0J25000D01*
G01*
X18730000Y-11375000D01*
G75*
G02*
X18755000Y-11350000I25000J0D01*
G01*
X18820000Y-11350000D01*
G75*
G02*
X18845000Y-11375000I0J-25000D01*
G01*
G37*
G36*
G01*
X17762400Y-10392600D02*
X17762400Y-10482600D01*
G75*
G02*
X17737400Y-10507600I-25000J0D01*
G01*
X17672400Y-10507600D01*
G75*
G02*
X17647400Y-10482600I0J25000D01*
G01*
X17647400Y-10392600D01*
G75*
G02*
X17672400Y-10367600I25000J0D01*
G01*
X17737400Y-10367600D01*
G75*
G02*
X17762400Y-10392600I0J-25000D01*
G01*
G37*
G36*
G01*
X17557400Y-10392600D02*
X17557400Y-10482600D01*
G75*
G02*
X17532400Y-10507600I-25000J0D01*
G01*
X17467400Y-10507600D01*
G75*
G02*
X17442400Y-10482600I0J25000D01*
G01*
X17442400Y-10392600D01*
G75*
G02*
X17467400Y-10367600I25000J0D01*
G01*
X17532400Y-10367600D01*
G75*
G02*
X17557400Y-10392600I0J-25000D01*
G01*
G37*
G36*
G01*
X17657400Y-10101600D02*
X17657400Y-10011600D01*
G75*
G02*
X17682400Y-9986600I25000J0D01*
G01*
X17747400Y-9986600D01*
G75*
G02*
X17772400Y-10011600I0J-25000D01*
G01*
X17772400Y-10101600D01*
G75*
G02*
X17747400Y-10126600I-25000J0D01*
G01*
X17682400Y-10126600D01*
G75*
G02*
X17657400Y-10101600I0J25000D01*
G01*
G37*
G36*
G01*
X17862400Y-10101600D02*
X17862400Y-10011600D01*
G75*
G02*
X17887400Y-9986600I25000J0D01*
G01*
X17952400Y-9986600D01*
G75*
G02*
X17977400Y-10011600I0J-25000D01*
G01*
X17977400Y-10101600D01*
G75*
G02*
X17952400Y-10126600I-25000J0D01*
G01*
X17887400Y-10126600D01*
G75*
G02*
X17862400Y-10101600I0J25000D01*
G01*
G37*
G36*
G01*
X19250000Y-11575000D02*
X19250000Y-11665000D01*
G75*
G02*
X19225000Y-11690000I-25000J0D01*
G01*
X19160000Y-11690000D01*
G75*
G02*
X19135000Y-11665000I0J25000D01*
G01*
X19135000Y-11575000D01*
G75*
G02*
X19160000Y-11550000I25000J0D01*
G01*
X19225000Y-11550000D01*
G75*
G02*
X19250000Y-11575000I0J-25000D01*
G01*
G37*
G36*
G01*
X19045000Y-11575000D02*
X19045000Y-11665000D01*
G75*
G02*
X19020000Y-11690000I-25000J0D01*
G01*
X18955000Y-11690000D01*
G75*
G02*
X18930000Y-11665000I0J25000D01*
G01*
X18930000Y-11575000D01*
G75*
G02*
X18955000Y-11550000I25000J0D01*
G01*
X19020000Y-11550000D01*
G75*
G02*
X19045000Y-11575000I0J-25000D01*
G01*
G37*
G36*
G01*
X16185000Y-10730000D02*
X16095000Y-10730000D01*
G75*
G02*
X16070000Y-10705000I0J25000D01*
G01*
X16070000Y-10640000D01*
G75*
G02*
X16095000Y-10615000I25000J0D01*
G01*
X16185000Y-10615000D01*
G75*
G02*
X16210000Y-10640000I0J-25000D01*
G01*
X16210000Y-10705000D01*
G75*
G02*
X16185000Y-10730000I-25000J0D01*
G01*
G37*
G36*
G01*
X16185000Y-10525000D02*
X16095000Y-10525000D01*
G75*
G02*
X16070000Y-10500000I0J25000D01*
G01*
X16070000Y-10435000D01*
G75*
G02*
X16095000Y-10410000I25000J0D01*
G01*
X16185000Y-10410000D01*
G75*
G02*
X16210000Y-10435000I0J-25000D01*
G01*
X16210000Y-10500000D01*
G75*
G02*
X16185000Y-10525000I-25000J0D01*
G01*
G37*
G36*
G01*
X15435000Y-10630000D02*
X15345000Y-10630000D01*
G75*
G02*
X15320000Y-10605000I0J25000D01*
G01*
X15320000Y-10540000D01*
G75*
G02*
X15345000Y-10515000I25000J0D01*
G01*
X15435000Y-10515000D01*
G75*
G02*
X15460000Y-10540000I0J-25000D01*
G01*
X15460000Y-10605000D01*
G75*
G02*
X15435000Y-10630000I-25000J0D01*
G01*
G37*
G36*
G01*
X15435000Y-10425000D02*
X15345000Y-10425000D01*
G75*
G02*
X15320000Y-10400000I0J25000D01*
G01*
X15320000Y-10335000D01*
G75*
G02*
X15345000Y-10310000I25000J0D01*
G01*
X15435000Y-10310000D01*
G75*
G02*
X15460000Y-10335000I0J-25000D01*
G01*
X15460000Y-10400000D01*
G75*
G02*
X15435000Y-10425000I-25000J0D01*
G01*
G37*
G36*
G01*
X16339600Y-9877400D02*
X16339600Y-9787400D01*
G75*
G02*
X16364600Y-9762400I25000J0D01*
G01*
X16429600Y-9762400D01*
G75*
G02*
X16454600Y-9787400I0J-25000D01*
G01*
X16454600Y-9877400D01*
G75*
G02*
X16429600Y-9902400I-25000J0D01*
G01*
X16364600Y-9902400D01*
G75*
G02*
X16339600Y-9877400I0J25000D01*
G01*
G37*
G36*
G01*
X16544600Y-9877400D02*
X16544600Y-9787400D01*
G75*
G02*
X16569600Y-9762400I25000J0D01*
G01*
X16634600Y-9762400D01*
G75*
G02*
X16659600Y-9787400I0J-25000D01*
G01*
X16659600Y-9877400D01*
G75*
G02*
X16634600Y-9902400I-25000J0D01*
G01*
X16569600Y-9902400D01*
G75*
G02*
X16544600Y-9877400I0J25000D01*
G01*
G37*
G36*
G01*
X16532600Y-10231900D02*
X16532600Y-10321900D01*
G75*
G02*
X16507600Y-10346900I-25000J0D01*
G01*
X16442600Y-10346900D01*
G75*
G02*
X16417600Y-10321900I0J25000D01*
G01*
X16417600Y-10231900D01*
G75*
G02*
X16442600Y-10206900I25000J0D01*
G01*
X16507600Y-10206900D01*
G75*
G02*
X16532600Y-10231900I0J-25000D01*
G01*
G37*
G36*
G01*
X16327600Y-10231900D02*
X16327600Y-10321900D01*
G75*
G02*
X16302600Y-10346900I-25000J0D01*
G01*
X16237600Y-10346900D01*
G75*
G02*
X16212600Y-10321900I0J25000D01*
G01*
X16212600Y-10231900D01*
G75*
G02*
X16237600Y-10206900I25000J0D01*
G01*
X16302600Y-10206900D01*
G75*
G02*
X16327600Y-10231900I0J-25000D01*
G01*
G37*
G36*
G01*
X16075000Y-12330000D02*
X16075000Y-12420000D01*
G75*
G02*
X16050000Y-12445000I-25000J0D01*
G01*
X15985000Y-12445000D01*
G75*
G02*
X15960000Y-12420000I0J25000D01*
G01*
X15960000Y-12330000D01*
G75*
G02*
X15985000Y-12305000I25000J0D01*
G01*
X16050000Y-12305000D01*
G75*
G02*
X16075000Y-12330000I0J-25000D01*
G01*
G37*
G36*
G01*
X15870000Y-12330000D02*
X15870000Y-12420000D01*
G75*
G02*
X15845000Y-12445000I-25000J0D01*
G01*
X15780000Y-12445000D01*
G75*
G02*
X15755000Y-12420000I0J25000D01*
G01*
X15755000Y-12330000D01*
G75*
G02*
X15780000Y-12305000I25000J0D01*
G01*
X15845000Y-12305000D01*
G75*
G02*
X15870000Y-12330000I0J-25000D01*
G01*
G37*
G36*
G01*
X17065000Y-5870000D02*
X17155000Y-5870000D01*
G75*
G02*
X17180000Y-5895000I0J-25000D01*
G01*
X17180000Y-5960000D01*
G75*
G02*
X17155000Y-5985000I-25000J0D01*
G01*
X17065000Y-5985000D01*
G75*
G02*
X17040000Y-5960000I0J25000D01*
G01*
X17040000Y-5895000D01*
G75*
G02*
X17065000Y-5870000I25000J0D01*
G01*
G37*
G36*
G01*
X17065000Y-6075000D02*
X17155000Y-6075000D01*
G75*
G02*
X17180000Y-6100000I0J-25000D01*
G01*
X17180000Y-6165000D01*
G75*
G02*
X17155000Y-6190000I-25000J0D01*
G01*
X17065000Y-6190000D01*
G75*
G02*
X17040000Y-6165000I0J25000D01*
G01*
X17040000Y-6100000D01*
G75*
G02*
X17065000Y-6075000I25000J0D01*
G01*
G37*
G36*
G01*
X17555000Y-6987500D02*
X17465000Y-6987500D01*
G75*
G02*
X17440000Y-6962500I0J25000D01*
G01*
X17440000Y-6897500D01*
G75*
G02*
X17465000Y-6872500I25000J0D01*
G01*
X17555000Y-6872500D01*
G75*
G02*
X17580000Y-6897500I0J-25000D01*
G01*
X17580000Y-6962500D01*
G75*
G02*
X17555000Y-6987500I-25000J0D01*
G01*
G37*
G36*
G01*
X17555000Y-6782500D02*
X17465000Y-6782500D01*
G75*
G02*
X17440000Y-6757500I0J25000D01*
G01*
X17440000Y-6692500D01*
G75*
G02*
X17465000Y-6667500I25000J0D01*
G01*
X17555000Y-6667500D01*
G75*
G02*
X17580000Y-6692500I0J-25000D01*
G01*
X17580000Y-6757500D01*
G75*
G02*
X17555000Y-6782500I-25000J0D01*
G01*
G37*
D33*
X16790000Y-11266000D03*
D34*
X16790000Y-11520000D03*
X16790000Y-11774000D03*
X16790000Y-12028000D03*
X17563400Y-10691600D03*
X17563400Y-10203600D03*
X16499600Y-9578400D03*
X16499600Y-10066400D03*
D28*
X16567500Y-12640000D03*
X16017500Y-12640000D03*
X21335000Y-5680000D03*
X21885000Y-5680000D03*
D37*
X17820000Y-12060500D03*
X17820000Y-11933500D03*
X17820000Y-11806500D03*
X17820000Y-11679500D03*
X18360000Y-11679500D03*
X18360000Y-11806500D03*
X18360000Y-11933500D03*
X18360000Y-12060500D03*
G36*
G01*
X19130000Y-11465000D02*
X19130000Y-11375000D01*
G75*
G02*
X19155000Y-11350000I25000J0D01*
G01*
X19220000Y-11350000D01*
G75*
G02*
X19245000Y-11375000I0J-25000D01*
G01*
X19245000Y-11465000D01*
G75*
G02*
X19220000Y-11490000I-25000J0D01*
G01*
X19155000Y-11490000D01*
G75*
G02*
X19130000Y-11465000I0J25000D01*
G01*
G37*
G36*
G01*
X19335000Y-11465000D02*
X19335000Y-11375000D01*
G75*
G02*
X19360000Y-11350000I25000J0D01*
G01*
X19425000Y-11350000D01*
G75*
G02*
X19450000Y-11375000I0J-25000D01*
G01*
X19450000Y-11465000D01*
G75*
G02*
X19425000Y-11490000I-25000J0D01*
G01*
X19360000Y-11490000D01*
G75*
G02*
X19335000Y-11465000I0J25000D01*
G01*
G37*
G36*
G01*
X18400000Y-12225000D02*
X18400000Y-12315000D01*
G75*
G02*
X18375000Y-12340000I-25000J0D01*
G01*
X18310000Y-12340000D01*
G75*
G02*
X18285000Y-12315000I0J25000D01*
G01*
X18285000Y-12225000D01*
G75*
G02*
X18310000Y-12200000I25000J0D01*
G01*
X18375000Y-12200000D01*
G75*
G02*
X18400000Y-12225000I0J-25000D01*
G01*
G37*
G36*
G01*
X18195000Y-12225000D02*
X18195000Y-12315000D01*
G75*
G02*
X18170000Y-12340000I-25000J0D01*
G01*
X18105000Y-12340000D01*
G75*
G02*
X18080000Y-12315000I0J25000D01*
G01*
X18080000Y-12225000D01*
G75*
G02*
X18105000Y-12200000I25000J0D01*
G01*
X18170000Y-12200000D01*
G75*
G02*
X18195000Y-12225000I0J-25000D01*
G01*
G37*
G36*
G01*
X19895000Y-11710000D02*
X19985000Y-11710000D01*
G75*
G02*
X20010000Y-11735000I0J-25000D01*
G01*
X20010000Y-11800000D01*
G75*
G02*
X19985000Y-11825000I-25000J0D01*
G01*
X19895000Y-11825000D01*
G75*
G02*
X19870000Y-11800000I0J25000D01*
G01*
X19870000Y-11735000D01*
G75*
G02*
X19895000Y-11710000I25000J0D01*
G01*
G37*
G36*
G01*
X19895000Y-11915000D02*
X19985000Y-11915000D01*
G75*
G02*
X20010000Y-11940000I0J-25000D01*
G01*
X20010000Y-12005000D01*
G75*
G02*
X19985000Y-12030000I-25000J0D01*
G01*
X19895000Y-12030000D01*
G75*
G02*
X19870000Y-12005000I0J25000D01*
G01*
X19870000Y-11940000D01*
G75*
G02*
X19895000Y-11915000I25000J0D01*
G01*
G37*
G36*
G01*
X16422000Y-12415000D02*
X16422000Y-12325000D01*
G75*
G02*
X16447000Y-12300000I25000J0D01*
G01*
X16512000Y-12300000D01*
G75*
G02*
X16537000Y-12325000I0J-25000D01*
G01*
X16537000Y-12415000D01*
G75*
G02*
X16512000Y-12440000I-25000J0D01*
G01*
X16447000Y-12440000D01*
G75*
G02*
X16422000Y-12415000I0J25000D01*
G01*
G37*
G36*
G01*
X16627000Y-12415000D02*
X16627000Y-12325000D01*
G75*
G02*
X16652000Y-12300000I25000J0D01*
G01*
X16717000Y-12300000D01*
G75*
G02*
X16742000Y-12325000I0J-25000D01*
G01*
X16742000Y-12415000D01*
G75*
G02*
X16717000Y-12440000I-25000J0D01*
G01*
X16652000Y-12440000D01*
G75*
G02*
X16627000Y-12415000I0J25000D01*
G01*
G37*
G36*
G01*
X16212600Y-11909400D02*
X16212600Y-11819400D01*
G75*
G02*
X16237600Y-11794400I25000J0D01*
G01*
X16302600Y-11794400D01*
G75*
G02*
X16327600Y-11819400I0J-25000D01*
G01*
X16327600Y-11909400D01*
G75*
G02*
X16302600Y-11934400I-25000J0D01*
G01*
X16237600Y-11934400D01*
G75*
G02*
X16212600Y-11909400I0J25000D01*
G01*
G37*
G36*
G01*
X16417600Y-11909400D02*
X16417600Y-11819400D01*
G75*
G02*
X16442600Y-11794400I25000J0D01*
G01*
X16507600Y-11794400D01*
G75*
G02*
X16532600Y-11819400I0J-25000D01*
G01*
X16532600Y-11909400D01*
G75*
G02*
X16507600Y-11934400I-25000J0D01*
G01*
X16442600Y-11934400D01*
G75*
G02*
X16417600Y-11909400I0J25000D01*
G01*
G37*
G36*
G01*
X16212600Y-11655400D02*
X16212600Y-11565400D01*
G75*
G02*
X16237600Y-11540400I25000J0D01*
G01*
X16302600Y-11540400D01*
G75*
G02*
X16327600Y-11565400I0J-25000D01*
G01*
X16327600Y-11655400D01*
G75*
G02*
X16302600Y-11680400I-25000J0D01*
G01*
X16237600Y-11680400D01*
G75*
G02*
X16212600Y-11655400I0J25000D01*
G01*
G37*
G36*
G01*
X16417600Y-11655400D02*
X16417600Y-11565400D01*
G75*
G02*
X16442600Y-11540400I25000J0D01*
G01*
X16507600Y-11540400D01*
G75*
G02*
X16532600Y-11565400I0J-25000D01*
G01*
X16532600Y-11655400D01*
G75*
G02*
X16507600Y-11680400I-25000J0D01*
G01*
X16442600Y-11680400D01*
G75*
G02*
X16417600Y-11655400I0J25000D01*
G01*
G37*
D16*
X19690000Y-11220000D03*
X19690000Y-10320000D03*
X19640000Y-12020000D03*
X19640000Y-11720000D03*
X17640000Y-12320000D03*
X19690000Y-10620000D03*
X19690000Y-10920000D03*
X17640000Y-11420000D03*
D38*
G36*
X9832699Y-12512480D02*
G01*
X9833177Y-12517338D01*
X9834589Y-12521990D01*
X9836880Y-12526278D01*
X9839964Y-12530036D01*
X9843722Y-12533120D01*
X9848010Y-12535411D01*
X9852662Y-12536823D01*
X9857520Y-12537301D01*
X9857682Y-12537417D01*
X9857663Y-12537616D01*
X9857500Y-12537700D01*
X9848392Y-12537700D01*
X9848372Y-12537699D01*
X9844790Y-12537346D01*
X9844751Y-12537339D01*
X9841896Y-12536473D01*
X9841860Y-12536458D01*
X9839229Y-12535051D01*
X9839197Y-12535029D01*
X9836891Y-12533137D01*
X9836863Y-12533109D01*
X9834971Y-12530803D01*
X9834949Y-12530771D01*
X9833542Y-12528140D01*
X9833527Y-12528104D01*
X9832661Y-12525249D01*
X9832654Y-12525210D01*
X9832301Y-12521628D01*
X9832300Y-12521608D01*
X9832300Y-12512500D01*
X9832400Y-12512327D01*
X9832600Y-12512327D01*
X9832699Y-12512480D01*
G37*
G36*
X10057617Y-12512337D02*
G01*
X10057700Y-12512500D01*
X10057700Y-12521608D01*
X10057699Y-12521628D01*
X10057346Y-12525210D01*
X10057339Y-12525249D01*
X10056473Y-12528104D01*
X10056458Y-12528140D01*
X10055051Y-12530771D01*
X10055030Y-12530803D01*
X10053137Y-12533109D01*
X10053109Y-12533137D01*
X10050804Y-12535029D01*
X10050771Y-12535051D01*
X10048140Y-12536458D01*
X10048104Y-12536473D01*
X10045249Y-12537339D01*
X10045210Y-12537346D01*
X10041628Y-12537699D01*
X10041609Y-12537700D01*
X10032500Y-12537700D01*
X10032327Y-12537600D01*
X10032327Y-12537400D01*
X10032481Y-12537301D01*
X10037338Y-12536823D01*
X10041990Y-12535411D01*
X10046278Y-12533120D01*
X10050036Y-12530036D01*
X10053120Y-12526278D01*
X10055411Y-12521990D01*
X10056823Y-12517338D01*
X10057301Y-12512480D01*
X10057418Y-12512318D01*
X10057617Y-12512337D01*
G37*
G36*
X10342699Y-12512480D02*
G01*
X10343177Y-12517338D01*
X10344589Y-12521990D01*
X10346880Y-12526278D01*
X10349964Y-12530036D01*
X10353722Y-12533120D01*
X10358010Y-12535411D01*
X10362662Y-12536823D01*
X10367520Y-12537301D01*
X10367682Y-12537417D01*
X10367663Y-12537616D01*
X10367500Y-12537700D01*
X10358392Y-12537700D01*
X10358372Y-12537699D01*
X10354790Y-12537346D01*
X10354751Y-12537339D01*
X10351896Y-12536473D01*
X10351860Y-12536458D01*
X10349229Y-12535051D01*
X10349197Y-12535029D01*
X10346891Y-12533137D01*
X10346863Y-12533109D01*
X10344971Y-12530803D01*
X10344949Y-12530771D01*
X10343542Y-12528140D01*
X10343527Y-12528104D01*
X10342661Y-12525249D01*
X10342654Y-12525210D01*
X10342301Y-12521628D01*
X10342300Y-12521608D01*
X10342300Y-12512500D01*
X10342400Y-12512327D01*
X10342600Y-12512327D01*
X10342699Y-12512480D01*
G37*
G36*
X10567617Y-12512337D02*
G01*
X10567700Y-12512500D01*
X10567700Y-12521608D01*
X10567699Y-12521628D01*
X10567346Y-12525210D01*
X10567339Y-12525249D01*
X10566473Y-12528104D01*
X10566458Y-12528140D01*
X10565051Y-12530771D01*
X10565030Y-12530803D01*
X10563137Y-12533109D01*
X10563109Y-12533137D01*
X10560804Y-12535029D01*
X10560771Y-12535051D01*
X10558140Y-12536458D01*
X10558104Y-12536473D01*
X10555249Y-12537339D01*
X10555210Y-12537346D01*
X10551628Y-12537699D01*
X10551609Y-12537700D01*
X10542500Y-12537700D01*
X10542327Y-12537600D01*
X10542327Y-12537400D01*
X10542481Y-12537301D01*
X10547338Y-12536823D01*
X10551990Y-12535411D01*
X10556278Y-12533120D01*
X10560036Y-12530036D01*
X10563120Y-12526278D01*
X10565411Y-12521990D01*
X10566823Y-12517338D01*
X10567301Y-12512480D01*
X10567418Y-12512318D01*
X10567617Y-12512337D01*
G37*
G36*
X10367673Y-12302400D02*
G01*
X10367673Y-12302600D01*
X10367520Y-12302699D01*
X10362662Y-12303177D01*
X10358010Y-12304589D01*
X10353722Y-12306880D01*
X10349964Y-12309964D01*
X10346880Y-12313722D01*
X10344589Y-12318010D01*
X10343177Y-12322662D01*
X10342699Y-12327519D01*
X10342583Y-12327682D01*
X10342384Y-12327662D01*
X10342300Y-12327500D01*
X10342300Y-12318391D01*
X10342301Y-12318372D01*
X10342654Y-12314790D01*
X10342661Y-12314751D01*
X10343527Y-12311896D01*
X10343542Y-12311860D01*
X10344949Y-12309229D01*
X10344971Y-12309196D01*
X10346863Y-12306891D01*
X10346891Y-12306863D01*
X10349197Y-12304970D01*
X10349229Y-12304949D01*
X10351860Y-12303542D01*
X10351896Y-12303527D01*
X10354751Y-12302661D01*
X10354790Y-12302654D01*
X10358372Y-12302301D01*
X10358392Y-12302300D01*
X10367500Y-12302300D01*
X10367673Y-12302400D01*
G37*
G36*
X9857673Y-12302400D02*
G01*
X9857673Y-12302600D01*
X9857520Y-12302699D01*
X9852662Y-12303177D01*
X9848010Y-12304589D01*
X9843722Y-12306880D01*
X9839964Y-12309964D01*
X9836880Y-12313722D01*
X9834589Y-12318010D01*
X9833177Y-12322662D01*
X9832699Y-12327519D01*
X9832583Y-12327682D01*
X9832384Y-12327662D01*
X9832300Y-12327500D01*
X9832300Y-12318391D01*
X9832301Y-12318372D01*
X9832654Y-12314790D01*
X9832661Y-12314751D01*
X9833527Y-12311896D01*
X9833542Y-12311860D01*
X9834949Y-12309229D01*
X9834971Y-12309196D01*
X9836863Y-12306891D01*
X9836891Y-12306863D01*
X9839197Y-12304970D01*
X9839229Y-12304949D01*
X9841860Y-12303542D01*
X9841896Y-12303527D01*
X9844751Y-12302661D01*
X9844790Y-12302654D01*
X9848372Y-12302301D01*
X9848392Y-12302300D01*
X9857500Y-12302300D01*
X9857673Y-12302400D01*
G37*
G36*
X10551628Y-12302301D02*
G01*
X10555210Y-12302654D01*
X10555249Y-12302661D01*
X10558104Y-12303527D01*
X10558140Y-12303542D01*
X10560771Y-12304949D01*
X10560804Y-12304970D01*
X10563109Y-12306863D01*
X10563137Y-12306891D01*
X10565030Y-12309196D01*
X10565051Y-12309229D01*
X10566458Y-12311860D01*
X10566473Y-12311896D01*
X10567339Y-12314751D01*
X10567346Y-12314790D01*
X10567699Y-12318372D01*
X10567700Y-12318391D01*
X10567700Y-12327500D01*
X10567600Y-12327673D01*
X10567400Y-12327673D01*
X10567301Y-12327519D01*
X10566823Y-12322662D01*
X10565411Y-12318010D01*
X10563120Y-12313722D01*
X10560036Y-12309964D01*
X10556278Y-12306880D01*
X10551990Y-12304589D01*
X10547338Y-12303177D01*
X10542481Y-12302699D01*
X10542318Y-12302582D01*
X10542338Y-12302383D01*
X10542500Y-12302300D01*
X10551609Y-12302300D01*
X10551628Y-12302301D01*
G37*
G36*
X10041628Y-12302301D02*
G01*
X10045210Y-12302654D01*
X10045249Y-12302661D01*
X10048104Y-12303527D01*
X10048140Y-12303542D01*
X10050771Y-12304949D01*
X10050804Y-12304970D01*
X10053109Y-12306863D01*
X10053137Y-12306891D01*
X10055030Y-12309196D01*
X10055051Y-12309229D01*
X10056458Y-12311860D01*
X10056473Y-12311896D01*
X10057339Y-12314751D01*
X10057346Y-12314790D01*
X10057699Y-12318372D01*
X10057700Y-12318391D01*
X10057700Y-12327500D01*
X10057600Y-12327673D01*
X10057400Y-12327673D01*
X10057301Y-12327519D01*
X10056823Y-12322662D01*
X10055411Y-12318010D01*
X10053120Y-12313722D01*
X10050036Y-12309964D01*
X10046278Y-12306880D01*
X10041990Y-12304589D01*
X10037338Y-12303177D01*
X10032481Y-12302699D01*
X10032318Y-12302582D01*
X10032338Y-12302383D01*
X10032500Y-12302300D01*
X10041609Y-12302300D01*
X10041628Y-12302301D01*
G37*
G36*
X17657599Y-10101581D02*
G01*
X17658077Y-10106438D01*
X17659489Y-10111090D01*
X17661780Y-10115378D01*
X17664864Y-10119136D01*
X17668622Y-10122220D01*
X17672910Y-10124511D01*
X17677562Y-10125923D01*
X17682420Y-10126401D01*
X17682582Y-10126518D01*
X17682563Y-10126717D01*
X17682400Y-10126800D01*
X17675949Y-10126800D01*
X17675929Y-10126799D01*
X17675699Y-10126776D01*
X17673278Y-10126776D01*
X17670913Y-10127247D01*
X17668686Y-10128169D01*
X17666681Y-10129509D01*
X17664976Y-10131213D01*
X17663637Y-10133218D01*
X17662714Y-10135446D01*
X17662243Y-10137811D01*
X17662243Y-10140221D01*
X17662714Y-10142586D01*
X17663636Y-10144814D01*
X17664934Y-10146755D01*
X17664947Y-10146955D01*
X17664781Y-10147066D01*
X17664641Y-10147021D01*
X17652734Y-10137250D01*
X17641673Y-10131337D01*
X17641567Y-10131167D01*
X17641662Y-10130991D01*
X17641844Y-10130976D01*
X17643522Y-10131671D01*
X17645887Y-10132142D01*
X17648298Y-10132142D01*
X17650663Y-10131671D01*
X17652890Y-10130749D01*
X17654895Y-10129409D01*
X17656600Y-10127705D01*
X17657939Y-10125700D01*
X17658862Y-10123472D01*
X17659332Y-10121107D01*
X17659332Y-10118697D01*
X17658860Y-10116322D01*
X17657613Y-10112210D01*
X17657605Y-10112172D01*
X17657201Y-10108071D01*
X17657200Y-10108051D01*
X17657200Y-10101600D01*
X17657300Y-10101427D01*
X17657500Y-10101427D01*
X17657599Y-10101581D01*
G37*
G36*
X10350199Y-7874980D02*
G01*
X10350677Y-7879838D01*
X10352089Y-7884490D01*
X10354380Y-7888778D01*
X10357464Y-7892536D01*
X10361222Y-7895620D01*
X10365510Y-7897911D01*
X10370162Y-7899323D01*
X10375020Y-7899801D01*
X10375182Y-7899917D01*
X10375163Y-7900116D01*
X10375000Y-7900200D01*
X10365892Y-7900200D01*
X10365872Y-7900199D01*
X10362290Y-7899846D01*
X10362251Y-7899839D01*
X10359396Y-7898973D01*
X10359360Y-7898958D01*
X10356729Y-7897551D01*
X10356697Y-7897529D01*
X10354391Y-7895637D01*
X10354363Y-7895609D01*
X10352471Y-7893303D01*
X10352449Y-7893271D01*
X10351042Y-7890640D01*
X10351027Y-7890604D01*
X10350161Y-7887749D01*
X10350154Y-7887710D01*
X10349801Y-7884128D01*
X10349800Y-7884108D01*
X10349800Y-7875000D01*
X10349900Y-7874827D01*
X10350100Y-7874827D01*
X10350199Y-7874980D01*
G37*
G36*
X10575117Y-7874837D02*
G01*
X10575200Y-7875000D01*
X10575200Y-7884108D01*
X10575199Y-7884128D01*
X10574846Y-7887710D01*
X10574839Y-7887749D01*
X10573973Y-7890604D01*
X10573958Y-7890640D01*
X10572551Y-7893271D01*
X10572530Y-7893303D01*
X10570637Y-7895609D01*
X10570609Y-7895637D01*
X10568304Y-7897529D01*
X10568271Y-7897551D01*
X10565640Y-7898958D01*
X10565604Y-7898973D01*
X10562749Y-7899839D01*
X10562710Y-7899846D01*
X10559128Y-7900199D01*
X10559109Y-7900200D01*
X10550000Y-7900200D01*
X10549827Y-7900100D01*
X10549827Y-7899900D01*
X10549981Y-7899801D01*
X10554838Y-7899323D01*
X10559490Y-7897911D01*
X10563778Y-7895620D01*
X10567536Y-7892536D01*
X10570620Y-7888778D01*
X10572911Y-7884490D01*
X10574323Y-7879838D01*
X10574801Y-7874980D01*
X10574918Y-7874818D01*
X10575117Y-7874837D01*
G37*
G36*
X10065117Y-7874837D02*
G01*
X10065200Y-7875000D01*
X10065200Y-7884108D01*
X10065199Y-7884128D01*
X10064846Y-7887710D01*
X10064839Y-7887749D01*
X10063973Y-7890604D01*
X10063958Y-7890640D01*
X10062551Y-7893271D01*
X10062530Y-7893303D01*
X10060637Y-7895609D01*
X10060609Y-7895637D01*
X10058304Y-7897529D01*
X10058271Y-7897551D01*
X10055640Y-7898958D01*
X10055604Y-7898973D01*
X10052749Y-7899839D01*
X10052710Y-7899846D01*
X10049128Y-7900199D01*
X10049109Y-7900200D01*
X10040000Y-7900200D01*
X10039827Y-7900100D01*
X10039827Y-7899900D01*
X10039981Y-7899801D01*
X10044838Y-7899323D01*
X10049490Y-7897911D01*
X10053778Y-7895620D01*
X10057536Y-7892536D01*
X10060620Y-7888778D01*
X10062911Y-7884490D01*
X10064323Y-7879838D01*
X10064801Y-7874980D01*
X10064918Y-7874818D01*
X10065117Y-7874837D01*
G37*
G36*
X9840199Y-7874980D02*
G01*
X9840677Y-7879838D01*
X9842089Y-7884490D01*
X9844380Y-7888778D01*
X9847464Y-7892536D01*
X9851222Y-7895620D01*
X9855510Y-7897911D01*
X9860162Y-7899323D01*
X9865020Y-7899801D01*
X9865182Y-7899917D01*
X9865163Y-7900116D01*
X9865000Y-7900200D01*
X9855892Y-7900200D01*
X9855872Y-7900199D01*
X9852290Y-7899846D01*
X9852251Y-7899839D01*
X9849396Y-7898973D01*
X9849360Y-7898958D01*
X9846729Y-7897551D01*
X9846697Y-7897529D01*
X9844391Y-7895637D01*
X9844363Y-7895609D01*
X9842471Y-7893303D01*
X9842449Y-7893271D01*
X9841042Y-7890640D01*
X9841027Y-7890604D01*
X9840161Y-7887749D01*
X9840154Y-7887710D01*
X9839801Y-7884128D01*
X9839800Y-7884108D01*
X9839800Y-7875000D01*
X9839900Y-7874827D01*
X9840100Y-7874827D01*
X9840199Y-7874980D01*
G37*
G36*
X9865173Y-7664900D02*
G01*
X9865173Y-7665100D01*
X9865020Y-7665199D01*
X9860162Y-7665677D01*
X9855510Y-7667089D01*
X9851222Y-7669380D01*
X9847464Y-7672464D01*
X9844380Y-7676222D01*
X9842089Y-7680510D01*
X9840677Y-7685162D01*
X9840199Y-7690019D01*
X9840083Y-7690182D01*
X9839884Y-7690162D01*
X9839800Y-7690000D01*
X9839800Y-7680891D01*
X9839801Y-7680872D01*
X9840154Y-7677290D01*
X9840161Y-7677251D01*
X9841027Y-7674396D01*
X9841042Y-7674360D01*
X9842449Y-7671729D01*
X9842471Y-7671696D01*
X9844363Y-7669391D01*
X9844391Y-7669363D01*
X9846697Y-7667470D01*
X9846729Y-7667449D01*
X9849360Y-7666042D01*
X9849396Y-7666027D01*
X9852251Y-7665161D01*
X9852290Y-7665154D01*
X9855872Y-7664801D01*
X9855892Y-7664800D01*
X9865000Y-7664800D01*
X9865173Y-7664900D01*
G37*
G36*
X10375173Y-7664900D02*
G01*
X10375173Y-7665100D01*
X10375020Y-7665199D01*
X10370162Y-7665677D01*
X10365510Y-7667089D01*
X10361222Y-7669380D01*
X10357464Y-7672464D01*
X10354380Y-7676222D01*
X10352089Y-7680510D01*
X10350677Y-7685162D01*
X10350199Y-7690019D01*
X10350083Y-7690182D01*
X10349884Y-7690162D01*
X10349800Y-7690000D01*
X10349800Y-7680891D01*
X10349801Y-7680872D01*
X10350154Y-7677290D01*
X10350161Y-7677251D01*
X10351027Y-7674396D01*
X10351042Y-7674360D01*
X10352449Y-7671729D01*
X10352471Y-7671696D01*
X10354363Y-7669391D01*
X10354391Y-7669363D01*
X10356697Y-7667470D01*
X10356729Y-7667449D01*
X10359360Y-7666042D01*
X10359396Y-7666027D01*
X10362251Y-7665161D01*
X10362290Y-7665154D01*
X10365872Y-7664801D01*
X10365892Y-7664800D01*
X10375000Y-7664800D01*
X10375173Y-7664900D01*
G37*
G36*
X10559128Y-7664801D02*
G01*
X10562710Y-7665154D01*
X10562749Y-7665161D01*
X10565604Y-7666027D01*
X10565640Y-7666042D01*
X10568271Y-7667449D01*
X10568304Y-7667470D01*
X10570609Y-7669363D01*
X10570637Y-7669391D01*
X10572530Y-7671696D01*
X10572551Y-7671729D01*
X10573958Y-7674360D01*
X10573973Y-7674396D01*
X10574839Y-7677251D01*
X10574846Y-7677290D01*
X10575199Y-7680872D01*
X10575200Y-7680891D01*
X10575200Y-7690000D01*
X10575100Y-7690173D01*
X10574900Y-7690173D01*
X10574801Y-7690019D01*
X10574323Y-7685162D01*
X10572911Y-7680510D01*
X10570620Y-7676222D01*
X10567536Y-7672464D01*
X10563778Y-7669380D01*
X10559490Y-7667089D01*
X10554838Y-7665677D01*
X10549981Y-7665199D01*
X10549818Y-7665082D01*
X10549838Y-7664883D01*
X10550000Y-7664800D01*
X10559109Y-7664800D01*
X10559128Y-7664801D01*
G37*
G36*
X10049128Y-7664801D02*
G01*
X10052710Y-7665154D01*
X10052749Y-7665161D01*
X10055604Y-7666027D01*
X10055640Y-7666042D01*
X10058271Y-7667449D01*
X10058304Y-7667470D01*
X10060609Y-7669363D01*
X10060637Y-7669391D01*
X10062530Y-7671696D01*
X10062551Y-7671729D01*
X10063958Y-7674360D01*
X10063973Y-7674396D01*
X10064839Y-7677251D01*
X10064846Y-7677290D01*
X10065199Y-7680872D01*
X10065200Y-7680891D01*
X10065200Y-7690000D01*
X10065100Y-7690173D01*
X10064900Y-7690173D01*
X10064801Y-7690019D01*
X10064323Y-7685162D01*
X10062911Y-7680510D01*
X10060620Y-7676222D01*
X10057536Y-7672464D01*
X10053778Y-7669380D01*
X10049490Y-7667089D01*
X10044838Y-7665677D01*
X10039981Y-7665199D01*
X10039818Y-7665082D01*
X10039838Y-7664883D01*
X10040000Y-7664800D01*
X10049109Y-7664800D01*
X10049128Y-7664801D01*
G37*
G36*
X20577617Y-7027337D02*
G01*
X20577700Y-7027500D01*
X20577700Y-7036608D01*
X20577699Y-7036628D01*
X20577346Y-7040210D01*
X20577339Y-7040249D01*
X20576473Y-7043104D01*
X20576458Y-7043140D01*
X20575051Y-7045771D01*
X20575030Y-7045803D01*
X20573137Y-7048109D01*
X20573109Y-7048137D01*
X20570804Y-7050029D01*
X20570771Y-7050051D01*
X20568140Y-7051458D01*
X20568104Y-7051473D01*
X20565249Y-7052339D01*
X20565210Y-7052346D01*
X20561628Y-7052699D01*
X20561609Y-7052700D01*
X20552500Y-7052700D01*
X20552327Y-7052600D01*
X20552327Y-7052400D01*
X20552481Y-7052301D01*
X20557338Y-7051823D01*
X20561990Y-7050411D01*
X20566278Y-7048120D01*
X20570036Y-7045036D01*
X20573120Y-7041278D01*
X20575411Y-7036990D01*
X20576823Y-7032338D01*
X20577301Y-7027480D01*
X20577418Y-7027318D01*
X20577617Y-7027337D01*
G37*
G36*
X20342699Y-7027480D02*
G01*
X20343177Y-7032338D01*
X20344589Y-7036990D01*
X20346880Y-7041278D01*
X20349964Y-7045036D01*
X20353722Y-7048120D01*
X20358010Y-7050411D01*
X20362662Y-7051823D01*
X20367520Y-7052301D01*
X20367682Y-7052417D01*
X20367663Y-7052616D01*
X20367500Y-7052700D01*
X20358392Y-7052700D01*
X20358372Y-7052699D01*
X20354790Y-7052346D01*
X20354751Y-7052339D01*
X20351896Y-7051473D01*
X20351860Y-7051458D01*
X20349229Y-7050051D01*
X20349197Y-7050029D01*
X20346891Y-7048137D01*
X20346863Y-7048109D01*
X20344971Y-7045803D01*
X20344949Y-7045771D01*
X20343542Y-7043140D01*
X20343527Y-7043104D01*
X20342661Y-7040249D01*
X20342654Y-7040210D01*
X20342301Y-7036628D01*
X20342300Y-7036608D01*
X20342300Y-7027500D01*
X20342400Y-7027327D01*
X20342600Y-7027327D01*
X20342699Y-7027480D01*
G37*
G36*
X16992699Y-7022480D02*
G01*
X16993177Y-7027337D01*
X16994589Y-7031990D01*
X16996880Y-7036278D01*
X16999964Y-7040036D01*
X17003722Y-7043120D01*
X17008010Y-7045411D01*
X17012662Y-7046823D01*
X17017520Y-7047301D01*
X17017682Y-7047417D01*
X17017663Y-7047616D01*
X17017500Y-7047700D01*
X17008392Y-7047700D01*
X17008372Y-7047699D01*
X17004790Y-7047346D01*
X17004751Y-7047339D01*
X17001896Y-7046473D01*
X17001860Y-7046458D01*
X16999229Y-7045051D01*
X16999197Y-7045029D01*
X16996891Y-7043137D01*
X16996863Y-7043109D01*
X16994971Y-7040803D01*
X16994949Y-7040771D01*
X16993542Y-7038140D01*
X16993527Y-7038104D01*
X16992661Y-7035249D01*
X16992654Y-7035210D01*
X16992301Y-7031628D01*
X16992300Y-7031608D01*
X16992300Y-7022500D01*
X16992400Y-7022327D01*
X16992600Y-7022327D01*
X16992699Y-7022480D01*
G37*
G36*
X17227617Y-7022337D02*
G01*
X17227700Y-7022500D01*
X17227700Y-7031608D01*
X17227699Y-7031628D01*
X17227346Y-7035210D01*
X17227339Y-7035249D01*
X17226473Y-7038104D01*
X17226458Y-7038140D01*
X17225051Y-7040771D01*
X17225030Y-7040803D01*
X17223137Y-7043109D01*
X17223109Y-7043137D01*
X17220804Y-7045029D01*
X17220771Y-7045051D01*
X17218140Y-7046458D01*
X17218104Y-7046473D01*
X17215249Y-7047339D01*
X17215210Y-7047346D01*
X17211628Y-7047699D01*
X17211609Y-7047700D01*
X17202500Y-7047700D01*
X17202327Y-7047600D01*
X17202327Y-7047400D01*
X17202481Y-7047301D01*
X17207338Y-7046823D01*
X17211990Y-7045411D01*
X17216278Y-7043120D01*
X17220036Y-7040036D01*
X17223120Y-7036278D01*
X17225411Y-7031990D01*
X17226823Y-7027337D01*
X17227301Y-7022480D01*
X17227418Y-7022318D01*
X17227617Y-7022337D01*
G37*
G36*
X20367673Y-6827400D02*
G01*
X20367673Y-6827600D01*
X20367520Y-6827699D01*
X20362662Y-6828177D01*
X20358010Y-6829589D01*
X20353722Y-6831880D01*
X20349964Y-6834964D01*
X20346880Y-6838722D01*
X20344589Y-6843010D01*
X20343177Y-6847662D01*
X20342699Y-6852519D01*
X20342583Y-6852682D01*
X20342384Y-6852662D01*
X20342300Y-6852500D01*
X20342300Y-6843391D01*
X20342301Y-6843372D01*
X20342654Y-6839790D01*
X20342661Y-6839751D01*
X20343527Y-6836896D01*
X20343542Y-6836860D01*
X20344949Y-6834229D01*
X20344971Y-6834196D01*
X20346863Y-6831891D01*
X20346891Y-6831863D01*
X20349197Y-6829970D01*
X20349229Y-6829949D01*
X20351860Y-6828542D01*
X20351896Y-6828527D01*
X20354751Y-6827661D01*
X20354790Y-6827654D01*
X20358372Y-6827301D01*
X20358392Y-6827300D01*
X20367500Y-6827300D01*
X20367673Y-6827400D01*
G37*
G36*
X20561628Y-6827301D02*
G01*
X20565210Y-6827654D01*
X20565249Y-6827661D01*
X20568104Y-6828527D01*
X20568140Y-6828542D01*
X20570771Y-6829949D01*
X20570804Y-6829970D01*
X20573109Y-6831863D01*
X20573137Y-6831891D01*
X20575030Y-6834196D01*
X20575051Y-6834229D01*
X20576458Y-6836860D01*
X20576473Y-6836896D01*
X20577339Y-6839751D01*
X20577346Y-6839790D01*
X20577699Y-6843372D01*
X20577700Y-6843391D01*
X20577700Y-6852500D01*
X20577600Y-6852673D01*
X20577400Y-6852673D01*
X20577301Y-6852519D01*
X20576823Y-6847662D01*
X20575411Y-6843010D01*
X20573120Y-6838722D01*
X20570036Y-6834964D01*
X20566278Y-6831880D01*
X20561990Y-6829589D01*
X20557338Y-6828177D01*
X20552481Y-6827699D01*
X20552318Y-6827582D01*
X20552338Y-6827383D01*
X20552500Y-6827300D01*
X20561609Y-6827300D01*
X20561628Y-6827301D01*
G37*
G36*
X17017673Y-6822400D02*
G01*
X17017673Y-6822600D01*
X17017520Y-6822699D01*
X17012662Y-6823177D01*
X17008010Y-6824589D01*
X17003722Y-6826880D01*
X16999964Y-6829964D01*
X16996880Y-6833722D01*
X16994589Y-6838010D01*
X16993177Y-6842662D01*
X16992699Y-6847519D01*
X16992583Y-6847682D01*
X16992384Y-6847662D01*
X16992300Y-6847500D01*
X16992300Y-6838391D01*
X16992301Y-6838372D01*
X16992654Y-6834790D01*
X16992661Y-6834751D01*
X16993527Y-6831896D01*
X16993542Y-6831860D01*
X16994949Y-6829229D01*
X16994971Y-6829196D01*
X16996863Y-6826891D01*
X16996891Y-6826863D01*
X16999197Y-6824970D01*
X16999229Y-6824949D01*
X17001860Y-6823542D01*
X17001896Y-6823527D01*
X17004751Y-6822661D01*
X17004790Y-6822654D01*
X17008372Y-6822301D01*
X17008392Y-6822300D01*
X17017500Y-6822300D01*
X17017673Y-6822400D01*
G37*
G36*
X17211628Y-6822301D02*
G01*
X17215210Y-6822654D01*
X17215249Y-6822661D01*
X17218104Y-6823527D01*
X17218140Y-6823542D01*
X17220771Y-6824949D01*
X17220804Y-6824970D01*
X17223109Y-6826863D01*
X17223137Y-6826891D01*
X17225030Y-6829196D01*
X17225051Y-6829229D01*
X17226458Y-6831860D01*
X17226473Y-6831896D01*
X17227339Y-6834751D01*
X17227346Y-6834790D01*
X17227699Y-6838372D01*
X17227700Y-6838391D01*
X17227700Y-6847500D01*
X17227600Y-6847673D01*
X17227400Y-6847673D01*
X17227301Y-6847519D01*
X17226823Y-6842662D01*
X17225411Y-6838010D01*
X17223120Y-6833722D01*
X17220036Y-6829964D01*
X17216278Y-6826880D01*
X17211990Y-6824589D01*
X17207338Y-6823177D01*
X17202481Y-6822699D01*
X17202318Y-6822582D01*
X17202338Y-6822383D01*
X17202500Y-6822300D01*
X17211609Y-6822300D01*
X17211628Y-6822301D01*
G37*
G36*
X20342699Y-6517480D02*
G01*
X20343177Y-6522338D01*
X20344589Y-6526990D01*
X20346880Y-6531278D01*
X20349964Y-6535036D01*
X20353722Y-6538120D01*
X20358010Y-6540411D01*
X20362662Y-6541823D01*
X20367520Y-6542301D01*
X20367682Y-6542417D01*
X20367663Y-6542616D01*
X20367500Y-6542700D01*
X20358392Y-6542700D01*
X20358372Y-6542699D01*
X20354790Y-6542346D01*
X20354751Y-6542339D01*
X20351896Y-6541473D01*
X20351860Y-6541458D01*
X20349229Y-6540051D01*
X20349197Y-6540029D01*
X20346891Y-6538137D01*
X20346863Y-6538109D01*
X20344971Y-6535803D01*
X20344949Y-6535771D01*
X20343542Y-6533140D01*
X20343527Y-6533104D01*
X20342661Y-6530249D01*
X20342654Y-6530210D01*
X20342301Y-6526628D01*
X20342300Y-6526608D01*
X20342300Y-6517500D01*
X20342400Y-6517327D01*
X20342600Y-6517327D01*
X20342699Y-6517480D01*
G37*
G36*
X20977617Y-6517337D02*
G01*
X20977700Y-6517500D01*
X20977700Y-6526608D01*
X20977699Y-6526628D01*
X20977346Y-6530210D01*
X20977339Y-6530249D01*
X20976473Y-6533104D01*
X20976458Y-6533140D01*
X20975051Y-6535771D01*
X20975030Y-6535803D01*
X20973137Y-6538109D01*
X20973109Y-6538137D01*
X20970804Y-6540029D01*
X20970771Y-6540051D01*
X20968140Y-6541458D01*
X20968104Y-6541473D01*
X20965249Y-6542339D01*
X20965210Y-6542346D01*
X20961628Y-6542699D01*
X20961609Y-6542700D01*
X20952500Y-6542700D01*
X20952327Y-6542600D01*
X20952327Y-6542400D01*
X20952481Y-6542301D01*
X20957338Y-6541823D01*
X20961990Y-6540411D01*
X20966278Y-6538120D01*
X20970036Y-6535036D01*
X20973120Y-6531278D01*
X20975411Y-6526990D01*
X20976823Y-6522338D01*
X20977301Y-6517480D01*
X20977418Y-6517318D01*
X20977617Y-6517337D01*
G37*
G36*
X20742699Y-6517480D02*
G01*
X20743177Y-6522338D01*
X20744589Y-6526990D01*
X20746880Y-6531278D01*
X20749964Y-6535036D01*
X20753722Y-6538120D01*
X20758010Y-6540411D01*
X20762662Y-6541823D01*
X20767520Y-6542301D01*
X20767682Y-6542417D01*
X20767663Y-6542616D01*
X20767500Y-6542700D01*
X20758392Y-6542700D01*
X20758372Y-6542699D01*
X20754790Y-6542346D01*
X20754751Y-6542339D01*
X20751896Y-6541473D01*
X20751860Y-6541458D01*
X20749229Y-6540051D01*
X20749197Y-6540029D01*
X20746891Y-6538137D01*
X20746863Y-6538109D01*
X20744971Y-6535803D01*
X20744949Y-6535771D01*
X20743542Y-6533140D01*
X20743527Y-6533104D01*
X20742661Y-6530249D01*
X20742654Y-6530210D01*
X20742301Y-6526628D01*
X20742300Y-6526608D01*
X20742300Y-6517500D01*
X20742400Y-6517327D01*
X20742600Y-6517327D01*
X20742699Y-6517480D01*
G37*
G36*
X17392699Y-6517480D02*
G01*
X17393177Y-6522338D01*
X17394589Y-6526990D01*
X17396880Y-6531278D01*
X17399964Y-6535036D01*
X17403722Y-6538120D01*
X17408010Y-6540411D01*
X17412662Y-6541823D01*
X17417520Y-6542301D01*
X17417682Y-6542417D01*
X17417663Y-6542616D01*
X17417500Y-6542700D01*
X17408392Y-6542700D01*
X17408372Y-6542699D01*
X17404790Y-6542346D01*
X17404751Y-6542339D01*
X17401896Y-6541473D01*
X17401860Y-6541458D01*
X17399229Y-6540051D01*
X17399197Y-6540029D01*
X17396891Y-6538137D01*
X17396863Y-6538109D01*
X17394971Y-6535803D01*
X17394949Y-6535771D01*
X17393542Y-6533140D01*
X17393527Y-6533104D01*
X17392661Y-6530249D01*
X17392654Y-6530210D01*
X17392301Y-6526628D01*
X17392300Y-6526608D01*
X17392300Y-6517500D01*
X17392400Y-6517327D01*
X17392600Y-6517327D01*
X17392699Y-6517480D01*
G37*
G36*
X20577617Y-6517337D02*
G01*
X20577700Y-6517500D01*
X20577700Y-6526608D01*
X20577699Y-6526628D01*
X20577346Y-6530210D01*
X20577339Y-6530249D01*
X20576473Y-6533104D01*
X20576458Y-6533140D01*
X20575051Y-6535771D01*
X20575030Y-6535803D01*
X20573137Y-6538109D01*
X20573109Y-6538137D01*
X20570804Y-6540029D01*
X20570771Y-6540051D01*
X20568140Y-6541458D01*
X20568104Y-6541473D01*
X20565249Y-6542339D01*
X20565210Y-6542346D01*
X20561628Y-6542699D01*
X20561609Y-6542700D01*
X20552500Y-6542700D01*
X20552327Y-6542600D01*
X20552327Y-6542400D01*
X20552481Y-6542301D01*
X20557338Y-6541823D01*
X20561990Y-6540411D01*
X20566278Y-6538120D01*
X20570036Y-6535036D01*
X20573120Y-6531278D01*
X20575411Y-6526990D01*
X20576823Y-6522338D01*
X20577301Y-6517480D01*
X20577418Y-6517318D01*
X20577617Y-6517337D01*
G37*
G36*
X17627617Y-6517337D02*
G01*
X17627700Y-6517500D01*
X17627700Y-6526608D01*
X17627699Y-6526628D01*
X17627346Y-6530210D01*
X17627339Y-6530249D01*
X17626473Y-6533104D01*
X17626458Y-6533140D01*
X17625051Y-6535771D01*
X17625030Y-6535803D01*
X17623137Y-6538109D01*
X17623109Y-6538137D01*
X17620804Y-6540029D01*
X17620771Y-6540051D01*
X17618140Y-6541458D01*
X17618104Y-6541473D01*
X17615249Y-6542339D01*
X17615210Y-6542346D01*
X17611628Y-6542699D01*
X17611609Y-6542700D01*
X17602500Y-6542700D01*
X17602327Y-6542600D01*
X17602327Y-6542400D01*
X17602481Y-6542301D01*
X17607338Y-6541823D01*
X17611990Y-6540411D01*
X17616278Y-6538120D01*
X17620036Y-6535036D01*
X17623120Y-6531278D01*
X17625411Y-6526990D01*
X17626823Y-6522338D01*
X17627301Y-6517480D01*
X17627418Y-6517318D01*
X17627617Y-6517337D01*
G37*
G36*
X17227617Y-6512337D02*
G01*
X17227700Y-6512500D01*
X17227700Y-6521608D01*
X17227699Y-6521628D01*
X17227346Y-6525210D01*
X17227339Y-6525249D01*
X17226473Y-6528104D01*
X17226458Y-6528140D01*
X17225051Y-6530771D01*
X17225030Y-6530803D01*
X17223137Y-6533109D01*
X17223109Y-6533137D01*
X17220804Y-6535029D01*
X17220771Y-6535051D01*
X17218140Y-6536458D01*
X17218104Y-6536473D01*
X17215249Y-6537339D01*
X17215210Y-6537346D01*
X17211628Y-6537699D01*
X17211609Y-6537700D01*
X17202500Y-6537700D01*
X17202327Y-6537600D01*
X17202327Y-6537400D01*
X17202481Y-6537301D01*
X17207338Y-6536823D01*
X17211990Y-6535411D01*
X17216278Y-6533120D01*
X17220036Y-6530036D01*
X17223120Y-6526278D01*
X17225411Y-6521990D01*
X17226823Y-6517337D01*
X17227301Y-6512480D01*
X17227418Y-6512318D01*
X17227617Y-6512337D01*
G37*
G36*
X16992699Y-6512480D02*
G01*
X16993177Y-6517337D01*
X16994589Y-6521990D01*
X16996880Y-6526278D01*
X16999964Y-6530036D01*
X17003722Y-6533120D01*
X17008010Y-6535411D01*
X17012662Y-6536823D01*
X17017520Y-6537301D01*
X17017682Y-6537417D01*
X17017663Y-6537616D01*
X17017500Y-6537700D01*
X17008392Y-6537700D01*
X17008372Y-6537699D01*
X17004790Y-6537346D01*
X17004751Y-6537339D01*
X17001896Y-6536473D01*
X17001860Y-6536458D01*
X16999229Y-6535051D01*
X16999197Y-6535029D01*
X16996891Y-6533137D01*
X16996863Y-6533109D01*
X16994971Y-6530803D01*
X16994949Y-6530771D01*
X16993542Y-6528140D01*
X16993527Y-6528104D01*
X16992661Y-6525249D01*
X16992654Y-6525210D01*
X16992301Y-6521628D01*
X16992300Y-6521608D01*
X16992300Y-6512500D01*
X16992400Y-6512327D01*
X16992600Y-6512327D01*
X16992699Y-6512480D01*
G37*
G36*
X20767673Y-6317400D02*
G01*
X20767673Y-6317600D01*
X20767520Y-6317699D01*
X20762662Y-6318177D01*
X20758010Y-6319589D01*
X20753722Y-6321880D01*
X20749964Y-6324964D01*
X20746880Y-6328722D01*
X20744589Y-6333010D01*
X20743177Y-6337662D01*
X20742699Y-6342519D01*
X20742583Y-6342682D01*
X20742384Y-6342662D01*
X20742300Y-6342500D01*
X20742300Y-6333391D01*
X20742301Y-6333372D01*
X20742654Y-6329790D01*
X20742661Y-6329751D01*
X20743527Y-6326896D01*
X20743542Y-6326860D01*
X20744949Y-6324229D01*
X20744971Y-6324196D01*
X20746863Y-6321891D01*
X20746891Y-6321863D01*
X20749197Y-6319970D01*
X20749229Y-6319949D01*
X20751860Y-6318542D01*
X20751896Y-6318527D01*
X20754751Y-6317661D01*
X20754790Y-6317654D01*
X20758372Y-6317301D01*
X20758392Y-6317300D01*
X20767500Y-6317300D01*
X20767673Y-6317400D01*
G37*
G36*
X17417673Y-6317400D02*
G01*
X17417673Y-6317600D01*
X17417520Y-6317699D01*
X17412662Y-6318177D01*
X17408010Y-6319589D01*
X17403722Y-6321880D01*
X17399964Y-6324964D01*
X17396880Y-6328722D01*
X17394589Y-6333010D01*
X17393177Y-6337662D01*
X17392699Y-6342519D01*
X17392583Y-6342682D01*
X17392384Y-6342662D01*
X17392300Y-6342500D01*
X17392300Y-6333391D01*
X17392301Y-6333372D01*
X17392654Y-6329790D01*
X17392661Y-6329751D01*
X17393527Y-6326896D01*
X17393542Y-6326860D01*
X17394949Y-6324229D01*
X17394971Y-6324196D01*
X17396863Y-6321891D01*
X17396891Y-6321863D01*
X17399197Y-6319970D01*
X17399229Y-6319949D01*
X17401860Y-6318542D01*
X17401896Y-6318527D01*
X17404751Y-6317661D01*
X17404790Y-6317654D01*
X17408372Y-6317301D01*
X17408392Y-6317300D01*
X17417500Y-6317300D01*
X17417673Y-6317400D01*
G37*
G36*
X20367673Y-6317400D02*
G01*
X20367673Y-6317600D01*
X20367520Y-6317699D01*
X20362662Y-6318177D01*
X20358010Y-6319589D01*
X20353722Y-6321880D01*
X20349964Y-6324964D01*
X20346880Y-6328722D01*
X20344589Y-6333010D01*
X20343177Y-6337662D01*
X20342699Y-6342519D01*
X20342583Y-6342682D01*
X20342384Y-6342662D01*
X20342300Y-6342500D01*
X20342300Y-6333391D01*
X20342301Y-6333372D01*
X20342654Y-6329790D01*
X20342661Y-6329751D01*
X20343527Y-6326896D01*
X20343542Y-6326860D01*
X20344949Y-6324229D01*
X20344971Y-6324196D01*
X20346863Y-6321891D01*
X20346891Y-6321863D01*
X20349197Y-6319970D01*
X20349229Y-6319949D01*
X20351860Y-6318542D01*
X20351896Y-6318527D01*
X20354751Y-6317661D01*
X20354790Y-6317654D01*
X20358372Y-6317301D01*
X20358392Y-6317300D01*
X20367500Y-6317300D01*
X20367673Y-6317400D01*
G37*
G36*
X20961628Y-6317301D02*
G01*
X20965210Y-6317654D01*
X20965249Y-6317661D01*
X20968104Y-6318527D01*
X20968140Y-6318542D01*
X20970771Y-6319949D01*
X20970804Y-6319970D01*
X20973109Y-6321863D01*
X20973137Y-6321891D01*
X20975030Y-6324196D01*
X20975051Y-6324229D01*
X20976458Y-6326860D01*
X20976473Y-6326896D01*
X20977339Y-6329751D01*
X20977346Y-6329790D01*
X20977699Y-6333372D01*
X20977700Y-6333391D01*
X20977700Y-6342500D01*
X20977600Y-6342673D01*
X20977400Y-6342673D01*
X20977301Y-6342519D01*
X20976823Y-6337662D01*
X20975411Y-6333010D01*
X20973120Y-6328722D01*
X20970036Y-6324964D01*
X20966278Y-6321880D01*
X20961990Y-6319589D01*
X20957338Y-6318177D01*
X20952481Y-6317699D01*
X20952318Y-6317582D01*
X20952338Y-6317383D01*
X20952500Y-6317300D01*
X20961609Y-6317300D01*
X20961628Y-6317301D01*
G37*
G36*
X17611628Y-6317301D02*
G01*
X17615210Y-6317654D01*
X17615249Y-6317661D01*
X17618104Y-6318527D01*
X17618140Y-6318542D01*
X17620771Y-6319949D01*
X17620804Y-6319970D01*
X17623109Y-6321863D01*
X17623137Y-6321891D01*
X17625030Y-6324196D01*
X17625051Y-6324229D01*
X17626458Y-6326860D01*
X17626473Y-6326896D01*
X17627339Y-6329751D01*
X17627346Y-6329790D01*
X17627699Y-6333372D01*
X17627700Y-6333391D01*
X17627700Y-6342500D01*
X17627600Y-6342673D01*
X17627400Y-6342673D01*
X17627301Y-6342519D01*
X17626823Y-6337662D01*
X17625411Y-6333010D01*
X17623120Y-6328722D01*
X17620036Y-6324964D01*
X17616278Y-6321880D01*
X17611990Y-6319589D01*
X17607338Y-6318177D01*
X17602481Y-6317699D01*
X17602318Y-6317582D01*
X17602338Y-6317383D01*
X17602500Y-6317300D01*
X17611609Y-6317300D01*
X17611628Y-6317301D01*
G37*
G36*
X20561628Y-6317301D02*
G01*
X20565210Y-6317654D01*
X20565249Y-6317661D01*
X20568104Y-6318527D01*
X20568140Y-6318542D01*
X20570771Y-6319949D01*
X20570804Y-6319970D01*
X20573109Y-6321863D01*
X20573137Y-6321891D01*
X20575030Y-6324196D01*
X20575051Y-6324229D01*
X20576458Y-6326860D01*
X20576473Y-6326896D01*
X20577339Y-6329751D01*
X20577346Y-6329790D01*
X20577699Y-6333372D01*
X20577700Y-6333391D01*
X20577700Y-6342500D01*
X20577600Y-6342673D01*
X20577400Y-6342673D01*
X20577301Y-6342519D01*
X20576823Y-6337662D01*
X20575411Y-6333010D01*
X20573120Y-6328722D01*
X20570036Y-6324964D01*
X20566278Y-6321880D01*
X20561990Y-6319589D01*
X20557338Y-6318177D01*
X20552481Y-6317699D01*
X20552318Y-6317582D01*
X20552338Y-6317383D01*
X20552500Y-6317300D01*
X20561609Y-6317300D01*
X20561628Y-6317301D01*
G37*
G36*
X17017673Y-6312400D02*
G01*
X17017673Y-6312600D01*
X17017520Y-6312699D01*
X17012662Y-6313177D01*
X17008010Y-6314589D01*
X17003722Y-6316880D01*
X16999964Y-6319964D01*
X16996880Y-6323722D01*
X16994589Y-6328010D01*
X16993177Y-6332662D01*
X16992699Y-6337519D01*
X16992583Y-6337682D01*
X16992384Y-6337662D01*
X16992300Y-6337500D01*
X16992300Y-6328391D01*
X16992301Y-6328372D01*
X16992654Y-6324790D01*
X16992661Y-6324751D01*
X16993527Y-6321896D01*
X16993542Y-6321860D01*
X16994949Y-6319229D01*
X16994971Y-6319196D01*
X16996863Y-6316891D01*
X16996891Y-6316863D01*
X16999197Y-6314970D01*
X16999229Y-6314949D01*
X17001860Y-6313542D01*
X17001896Y-6313527D01*
X17004751Y-6312661D01*
X17004790Y-6312654D01*
X17008372Y-6312301D01*
X17008392Y-6312300D01*
X17017500Y-6312300D01*
X17017673Y-6312400D01*
G37*
G36*
X17211628Y-6312301D02*
G01*
X17215210Y-6312654D01*
X17215249Y-6312661D01*
X17218104Y-6313527D01*
X17218140Y-6313542D01*
X17220771Y-6314949D01*
X17220804Y-6314970D01*
X17223109Y-6316863D01*
X17223137Y-6316891D01*
X17225030Y-6319196D01*
X17225051Y-6319229D01*
X17226458Y-6321860D01*
X17226473Y-6321896D01*
X17227339Y-6324751D01*
X17227346Y-6324790D01*
X17227699Y-6328372D01*
X17227700Y-6328391D01*
X17227700Y-6337500D01*
X17227600Y-6337673D01*
X17227400Y-6337673D01*
X17227301Y-6337519D01*
X17226823Y-6332662D01*
X17225411Y-6328010D01*
X17223120Y-6323722D01*
X17220036Y-6319964D01*
X17216278Y-6316880D01*
X17211990Y-6314589D01*
X17207338Y-6313177D01*
X17202481Y-6312699D01*
X17202318Y-6312582D01*
X17202338Y-6312383D01*
X17202500Y-6312300D01*
X17211609Y-6312300D01*
X17211628Y-6312301D01*
G37*
G36*
X20977617Y-6007337D02*
G01*
X20977700Y-6007500D01*
X20977700Y-6016608D01*
X20977699Y-6016628D01*
X20977346Y-6020210D01*
X20977339Y-6020249D01*
X20976473Y-6023104D01*
X20976458Y-6023140D01*
X20975051Y-6025771D01*
X20975030Y-6025803D01*
X20973137Y-6028109D01*
X20973109Y-6028137D01*
X20970804Y-6030029D01*
X20970771Y-6030051D01*
X20968140Y-6031458D01*
X20968104Y-6031473D01*
X20965249Y-6032339D01*
X20965210Y-6032346D01*
X20961628Y-6032699D01*
X20961609Y-6032700D01*
X20952500Y-6032700D01*
X20952327Y-6032600D01*
X20952327Y-6032400D01*
X20952481Y-6032301D01*
X20957338Y-6031823D01*
X20961990Y-6030411D01*
X20966278Y-6028120D01*
X20970036Y-6025036D01*
X20973120Y-6021278D01*
X20975411Y-6016990D01*
X20976823Y-6012338D01*
X20977301Y-6007480D01*
X20977418Y-6007318D01*
X20977617Y-6007337D01*
G37*
G36*
X20742699Y-6007480D02*
G01*
X20743177Y-6012338D01*
X20744589Y-6016990D01*
X20746880Y-6021278D01*
X20749964Y-6025036D01*
X20753722Y-6028120D01*
X20758010Y-6030411D01*
X20762662Y-6031823D01*
X20767520Y-6032301D01*
X20767682Y-6032417D01*
X20767663Y-6032616D01*
X20767500Y-6032700D01*
X20758392Y-6032700D01*
X20758372Y-6032699D01*
X20754790Y-6032346D01*
X20754751Y-6032339D01*
X20751896Y-6031473D01*
X20751860Y-6031458D01*
X20749229Y-6030051D01*
X20749197Y-6030029D01*
X20746891Y-6028137D01*
X20746863Y-6028109D01*
X20744971Y-6025803D01*
X20744949Y-6025771D01*
X20743542Y-6023140D01*
X20743527Y-6023104D01*
X20742661Y-6020249D01*
X20742654Y-6020210D01*
X20742301Y-6016628D01*
X20742300Y-6016608D01*
X20742300Y-6007500D01*
X20742400Y-6007327D01*
X20742600Y-6007327D01*
X20742699Y-6007480D01*
G37*
G36*
X17392699Y-6007480D02*
G01*
X17393177Y-6012338D01*
X17394589Y-6016990D01*
X17396880Y-6021278D01*
X17399964Y-6025036D01*
X17403722Y-6028120D01*
X17408010Y-6030411D01*
X17412662Y-6031823D01*
X17417520Y-6032301D01*
X17417682Y-6032417D01*
X17417663Y-6032616D01*
X17417500Y-6032700D01*
X17408392Y-6032700D01*
X17408372Y-6032699D01*
X17404790Y-6032346D01*
X17404751Y-6032339D01*
X17401896Y-6031473D01*
X17401860Y-6031458D01*
X17399229Y-6030051D01*
X17399197Y-6030029D01*
X17396891Y-6028137D01*
X17396863Y-6028109D01*
X17394971Y-6025803D01*
X17394949Y-6025771D01*
X17393542Y-6023140D01*
X17393527Y-6023104D01*
X17392661Y-6020249D01*
X17392654Y-6020210D01*
X17392301Y-6016628D01*
X17392300Y-6016608D01*
X17392300Y-6007500D01*
X17392400Y-6007327D01*
X17392600Y-6007327D01*
X17392699Y-6007480D01*
G37*
G36*
X17627617Y-6007337D02*
G01*
X17627700Y-6007500D01*
X17627700Y-6016608D01*
X17627699Y-6016628D01*
X17627346Y-6020210D01*
X17627339Y-6020249D01*
X17626473Y-6023104D01*
X17626458Y-6023140D01*
X17625051Y-6025771D01*
X17625030Y-6025803D01*
X17623137Y-6028109D01*
X17623109Y-6028137D01*
X17620804Y-6030029D01*
X17620771Y-6030051D01*
X17618140Y-6031458D01*
X17618104Y-6031473D01*
X17615249Y-6032339D01*
X17615210Y-6032346D01*
X17611628Y-6032699D01*
X17611609Y-6032700D01*
X17602500Y-6032700D01*
X17602327Y-6032600D01*
X17602327Y-6032400D01*
X17602481Y-6032301D01*
X17607338Y-6031823D01*
X17611990Y-6030411D01*
X17616278Y-6028120D01*
X17620036Y-6025036D01*
X17623120Y-6021278D01*
X17625411Y-6016990D01*
X17626823Y-6012338D01*
X17627301Y-6007480D01*
X17627418Y-6007318D01*
X17627617Y-6007337D01*
G37*
G36*
X17417673Y-5807400D02*
G01*
X17417673Y-5807600D01*
X17417520Y-5807699D01*
X17412662Y-5808177D01*
X17408010Y-5809589D01*
X17403722Y-5811880D01*
X17399964Y-5814964D01*
X17396880Y-5818722D01*
X17394589Y-5823010D01*
X17393177Y-5827662D01*
X17392699Y-5832519D01*
X17392583Y-5832682D01*
X17392384Y-5832662D01*
X17392300Y-5832500D01*
X17392300Y-5823391D01*
X17392301Y-5823372D01*
X17392654Y-5819790D01*
X17392661Y-5819751D01*
X17393527Y-5816896D01*
X17393542Y-5816860D01*
X17394949Y-5814229D01*
X17394971Y-5814196D01*
X17396863Y-5811891D01*
X17396891Y-5811863D01*
X17399197Y-5809970D01*
X17399229Y-5809949D01*
X17401860Y-5808542D01*
X17401896Y-5808527D01*
X17404751Y-5807661D01*
X17404790Y-5807654D01*
X17408372Y-5807301D01*
X17408392Y-5807300D01*
X17417500Y-5807300D01*
X17417673Y-5807400D01*
G37*
G36*
X20767673Y-5807400D02*
G01*
X20767673Y-5807600D01*
X20767520Y-5807699D01*
X20762662Y-5808177D01*
X20758010Y-5809589D01*
X20753722Y-5811880D01*
X20749964Y-5814964D01*
X20746880Y-5818722D01*
X20744589Y-5823010D01*
X20743177Y-5827662D01*
X20742699Y-5832519D01*
X20742583Y-5832682D01*
X20742384Y-5832662D01*
X20742300Y-5832500D01*
X20742300Y-5823391D01*
X20742301Y-5823372D01*
X20742654Y-5819790D01*
X20742661Y-5819751D01*
X20743527Y-5816896D01*
X20743542Y-5816860D01*
X20744949Y-5814229D01*
X20744971Y-5814196D01*
X20746863Y-5811891D01*
X20746891Y-5811863D01*
X20749197Y-5809970D01*
X20749229Y-5809949D01*
X20751860Y-5808542D01*
X20751896Y-5808527D01*
X20754751Y-5807661D01*
X20754790Y-5807654D01*
X20758372Y-5807301D01*
X20758392Y-5807300D01*
X20767500Y-5807300D01*
X20767673Y-5807400D01*
G37*
G36*
X20961628Y-5807301D02*
G01*
X20965210Y-5807654D01*
X20965249Y-5807661D01*
X20968104Y-5808527D01*
X20968140Y-5808542D01*
X20970771Y-5809949D01*
X20970804Y-5809970D01*
X20973109Y-5811863D01*
X20973137Y-5811891D01*
X20975030Y-5814196D01*
X20975051Y-5814229D01*
X20976458Y-5816860D01*
X20976473Y-5816896D01*
X20977339Y-5819751D01*
X20977346Y-5819790D01*
X20977699Y-5823372D01*
X20977700Y-5823391D01*
X20977700Y-5832500D01*
X20977600Y-5832673D01*
X20977400Y-5832673D01*
X20977301Y-5832519D01*
X20976823Y-5827662D01*
X20975411Y-5823010D01*
X20973120Y-5818722D01*
X20970036Y-5814964D01*
X20966278Y-5811880D01*
X20961990Y-5809589D01*
X20957338Y-5808177D01*
X20952481Y-5807699D01*
X20952318Y-5807582D01*
X20952338Y-5807383D01*
X20952500Y-5807300D01*
X20961609Y-5807300D01*
X20961628Y-5807301D01*
G37*
G36*
X17611628Y-5807301D02*
G01*
X17615210Y-5807654D01*
X17615249Y-5807661D01*
X17618104Y-5808527D01*
X17618140Y-5808542D01*
X17620771Y-5809949D01*
X17620804Y-5809970D01*
X17623109Y-5811863D01*
X17623137Y-5811891D01*
X17625030Y-5814196D01*
X17625051Y-5814229D01*
X17626458Y-5816860D01*
X17626473Y-5816896D01*
X17627339Y-5819751D01*
X17627346Y-5819790D01*
X17627699Y-5823372D01*
X17627700Y-5823391D01*
X17627700Y-5832500D01*
X17627600Y-5832673D01*
X17627400Y-5832673D01*
X17627301Y-5832519D01*
X17626823Y-5827662D01*
X17625411Y-5823010D01*
X17623120Y-5818722D01*
X17620036Y-5814964D01*
X17616278Y-5811880D01*
X17611990Y-5809589D01*
X17607338Y-5808177D01*
X17602481Y-5807699D01*
X17602318Y-5807582D01*
X17602338Y-5807383D01*
X17602500Y-5807300D01*
X17611609Y-5807300D01*
X17611628Y-5807301D01*
G37*
M02*
