G04 #@! TF.GenerationSoftware,KiCad,Pcbnew,5.1.4*
G04 #@! TF.CreationDate,2019-10-29T22:11:30-03:00*
G04 #@! TF.ProjectId,MCB19,4d434231-392e-46b6-9963-61645f706362,rev?*
G04 #@! TF.SameCoordinates,Original*
G04 #@! TF.FileFunction,Other,User*
%FSLAX46Y46*%
G04 Gerber Fmt 4.6, Leading zero omitted, Abs format (unit mm)*
G04 Created by KiCad (PCBNEW 5.1.4) date 2019-10-29 22:11:30*
%MOMM*%
%LPD*%
G04 APERTURE LIST*
%ADD10C,0.050000*%
G04 APERTURE END LIST*
D10*
X64960000Y-124450000D02*
X65360000Y-125250000D01*
X65360000Y-122750000D02*
X64960000Y-123550000D01*
X66410000Y-122150000D02*
X66660000Y-122150000D01*
X66060000Y-122250000D02*
X66410000Y-122150000D01*
X65360000Y-122750000D02*
X66060000Y-122250000D01*
X64960000Y-124450000D02*
X64960000Y-123550000D01*
X66060000Y-125750000D02*
X65360000Y-125250000D01*
X66410000Y-125850000D02*
X66060000Y-125750000D01*
X66660000Y-125850000D02*
X66410000Y-125850000D01*
X90860000Y-122750000D02*
X91260000Y-123550000D01*
X90160000Y-122250000D02*
X90860000Y-122750000D01*
X89810000Y-122150000D02*
X90160000Y-122250000D01*
X89560000Y-122150000D02*
X89810000Y-122150000D01*
X90160000Y-125750000D02*
X89810000Y-125850000D01*
X90860000Y-125250000D02*
X90160000Y-125750000D01*
X91260000Y-124450000D02*
X90860000Y-125250000D01*
X91260000Y-123550000D02*
X91260000Y-124450000D01*
X89560000Y-125850000D02*
X89810000Y-125850000D01*
X89560000Y-122150000D02*
X89560000Y-119050000D01*
X89560000Y-125850000D02*
X89560000Y-128950000D01*
X66660000Y-125850000D02*
X66660000Y-128950000D01*
X66660000Y-128950000D02*
X89560000Y-128950000D01*
X89560000Y-119050000D02*
X66660000Y-119050000D01*
X66660000Y-119050000D02*
X66660000Y-122150000D01*
X91260000Y-57960000D02*
X90860000Y-57160000D01*
X90860000Y-59660000D02*
X91260000Y-58860000D01*
X89810000Y-60260000D02*
X89560000Y-60260000D01*
X90160000Y-60160000D02*
X89810000Y-60260000D01*
X90860000Y-59660000D02*
X90160000Y-60160000D01*
X91260000Y-57960000D02*
X91260000Y-58860000D01*
X90160000Y-56660000D02*
X90860000Y-57160000D01*
X89810000Y-56560000D02*
X90160000Y-56660000D01*
X89560000Y-56560000D02*
X89810000Y-56560000D01*
X65360000Y-59660000D02*
X64960000Y-58860000D01*
X66060000Y-60160000D02*
X65360000Y-59660000D01*
X66410000Y-60260000D02*
X66060000Y-60160000D01*
X66660000Y-60260000D02*
X66410000Y-60260000D01*
X66060000Y-56660000D02*
X66410000Y-56560000D01*
X65360000Y-57160000D02*
X66060000Y-56660000D01*
X64960000Y-57960000D02*
X65360000Y-57160000D01*
X64960000Y-58860000D02*
X64960000Y-57960000D01*
X66660000Y-56560000D02*
X66410000Y-56560000D01*
X66660000Y-60260000D02*
X66660000Y-63360000D01*
X66660000Y-56560000D02*
X66660000Y-53460000D01*
X89560000Y-56560000D02*
X89560000Y-53460000D01*
X89560000Y-53460000D02*
X66660000Y-53460000D01*
X66660000Y-63360000D02*
X89560000Y-63360000D01*
X89560000Y-63360000D02*
X89560000Y-60260000D01*
X134354999Y-110230000D02*
X134354999Y-113930000D01*
X136254999Y-110230000D02*
X134354999Y-110230000D01*
X136254999Y-113930000D02*
X136254999Y-110230000D01*
X134354999Y-113930000D02*
X136254999Y-113930000D01*
X136650000Y-110230000D02*
X136650000Y-113930000D01*
X138550000Y-110230000D02*
X136650000Y-110230000D01*
X138550000Y-113930000D02*
X138550000Y-110230000D01*
X136650000Y-113930000D02*
X138550000Y-113930000D01*
X128680000Y-109600000D02*
X128680000Y-114500000D01*
X130920000Y-109600000D02*
X128680000Y-109600000D01*
X130920000Y-114500000D02*
X130920000Y-109600000D01*
X128680000Y-114500000D02*
X130920000Y-114500000D01*
X131550000Y-109600000D02*
X131550000Y-114500000D01*
X133790000Y-109600000D02*
X131550000Y-109600000D01*
X133790000Y-114500000D02*
X133790000Y-109600000D01*
X131550000Y-114500000D02*
X133790000Y-114500000D01*
X106755001Y-72240000D02*
X106755001Y-68540000D01*
X104855001Y-72240000D02*
X106755001Y-72240000D01*
X104855001Y-68540000D02*
X104855001Y-72240000D01*
X106755001Y-68540000D02*
X104855001Y-68540000D01*
X104460000Y-72240000D02*
X104460000Y-68540000D01*
X102560000Y-72240000D02*
X104460000Y-72240000D01*
X102560000Y-68540000D02*
X102560000Y-72240000D01*
X104460000Y-68540000D02*
X102560000Y-68540000D01*
X109560000Y-72790000D02*
X109560000Y-67890000D01*
X107320000Y-72790000D02*
X109560000Y-72790000D01*
X107320000Y-67890000D02*
X107320000Y-72790000D01*
X109560000Y-67890000D02*
X107320000Y-67890000D01*
X112430000Y-72790000D02*
X112430000Y-67890000D01*
X110190000Y-72790000D02*
X112430000Y-72790000D01*
X110190000Y-67890000D02*
X110190000Y-72790000D01*
X112430000Y-67890000D02*
X110190000Y-67890000D01*
X144050000Y-80300000D02*
X151450000Y-80300000D01*
X144050000Y-85700000D02*
X144050000Y-80300000D01*
X151450000Y-85700000D02*
X144050000Y-85700000D01*
X151450000Y-80300000D02*
X151450000Y-85700000D01*
X151100000Y-72800000D02*
X144400000Y-72800000D01*
X151100000Y-79700000D02*
X151100000Y-72800000D01*
X144400000Y-79700000D02*
X151100000Y-79700000D01*
X144400000Y-72800000D02*
X144400000Y-79700000D01*
X208579000Y-112866000D02*
X208579000Y-100566000D01*
X220479000Y-112866000D02*
X220479000Y-100566000D01*
X208579000Y-112866000D02*
X220479000Y-112866000D01*
X208579000Y-100566000D02*
X220479000Y-100566000D01*
X174325000Y-107300000D02*
X170625000Y-107300000D01*
X174325000Y-109200000D02*
X174325000Y-107300000D01*
X170625000Y-109200000D02*
X174325000Y-109200000D01*
X170625000Y-107300000D02*
X170625000Y-109200000D01*
X169625000Y-84450000D02*
X173325000Y-84450000D01*
X169625000Y-82550000D02*
X169625000Y-84450000D01*
X173325000Y-82550000D02*
X169625000Y-82550000D01*
X173325000Y-84450000D02*
X173325000Y-82550000D01*
X147400000Y-87950000D02*
X151100000Y-87950000D01*
X147400000Y-86050000D02*
X147400000Y-87950000D01*
X151100000Y-86050000D02*
X147400000Y-86050000D01*
X151100000Y-87950000D02*
X151100000Y-86050000D01*
X113500000Y-59250000D02*
X142280000Y-59250000D01*
X142280000Y-59250000D02*
X142280000Y-75650000D01*
X142280000Y-75650000D02*
X113500000Y-75650000D01*
X113500000Y-75650000D02*
X113500000Y-59250000D01*
X113500000Y-77750000D02*
X142280000Y-77750000D01*
X142280000Y-77750000D02*
X142280000Y-94150000D01*
X142280000Y-94150000D02*
X113500000Y-94150000D01*
X113500000Y-94150000D02*
X113500000Y-77750000D01*
X175450000Y-82330000D02*
X168050000Y-82330000D01*
X175450000Y-73170000D02*
X175450000Y-82330000D01*
X168050000Y-73170000D02*
X175450000Y-73170000D01*
X168050000Y-82330000D02*
X168050000Y-73170000D01*
X121550000Y-109625000D02*
X121550000Y-113325000D01*
X123450000Y-109625000D02*
X121550000Y-109625000D01*
X123450000Y-113325000D02*
X123450000Y-109625000D01*
X121550000Y-113325000D02*
X123450000Y-113325000D01*
X123450000Y-109350000D02*
X123450000Y-105650000D01*
X121550000Y-109350000D02*
X123450000Y-109350000D01*
X121550000Y-105650000D02*
X121550000Y-109350000D01*
X123450000Y-105650000D02*
X121550000Y-105650000D01*
X174325000Y-104675000D02*
X170625000Y-104675000D01*
X174325000Y-106575000D02*
X174325000Y-104675000D01*
X170625000Y-106575000D02*
X174325000Y-106575000D01*
X170625000Y-104675000D02*
X170625000Y-106575000D01*
X170625000Y-114450000D02*
X174325000Y-114450000D01*
X170625000Y-112550000D02*
X170625000Y-114450000D01*
X174325000Y-112550000D02*
X170625000Y-112550000D01*
X174325000Y-114450000D02*
X174325000Y-112550000D01*
X174325000Y-102050000D02*
X170625000Y-102050000D01*
X174325000Y-103950000D02*
X174325000Y-102050000D01*
X170625000Y-103950000D02*
X174325000Y-103950000D01*
X170625000Y-102050000D02*
X170625000Y-103950000D01*
X170625000Y-111825000D02*
X174325000Y-111825000D01*
X170625000Y-109925000D02*
X170625000Y-111825000D01*
X174325000Y-109925000D02*
X170625000Y-109925000D01*
X174325000Y-111825000D02*
X174325000Y-109925000D01*
X210550000Y-65675000D02*
X210550000Y-69375000D01*
X212450000Y-65675000D02*
X210550000Y-65675000D01*
X212450000Y-69375000D02*
X212450000Y-65675000D01*
X210550000Y-69375000D02*
X212450000Y-69375000D01*
X208450000Y-57650000D02*
X206550000Y-57650000D01*
X206550000Y-57650000D02*
X206550000Y-61350000D01*
X206550000Y-61350000D02*
X208450000Y-61350000D01*
X208450000Y-61350000D02*
X208450000Y-57650000D01*
X205650000Y-62130000D02*
X205650000Y-69970000D01*
X209350000Y-62130000D02*
X205650000Y-62130000D01*
X209350000Y-69970000D02*
X209350000Y-62130000D01*
X205650000Y-69970000D02*
X209350000Y-69970000D01*
X213350000Y-57030000D02*
X209650000Y-57030000D01*
X209650000Y-57030000D02*
X209650000Y-64870000D01*
X209650000Y-64870000D02*
X213350000Y-64870000D01*
X213350000Y-64870000D02*
X213350000Y-57030000D01*
X214350000Y-59600000D02*
X223650000Y-59600000D01*
X223650000Y-59600000D02*
X223650000Y-57400000D01*
X223650000Y-57400000D02*
X214350000Y-57400000D01*
X214350000Y-57400000D02*
X214350000Y-59600000D01*
X181474000Y-58250000D02*
X202434000Y-58250000D01*
X202434000Y-58250000D02*
X202434000Y-68750000D01*
X202434000Y-68750000D02*
X181474000Y-68750000D01*
X181474000Y-68750000D02*
X181474000Y-58250000D01*
X193650000Y-121900000D02*
X193650000Y-120000000D01*
X193650000Y-120000000D02*
X189950000Y-120000000D01*
X189950000Y-120000000D02*
X189950000Y-121900000D01*
X189950000Y-121900000D02*
X193650000Y-121900000D01*
X198550000Y-95375000D02*
X200450000Y-95375000D01*
X200450000Y-95375000D02*
X200450000Y-91675000D01*
X200450000Y-91675000D02*
X198550000Y-91675000D01*
X198550000Y-91675000D02*
X198550000Y-95375000D01*
X193850000Y-89200000D02*
X193850000Y-87300000D01*
X193850000Y-87300000D02*
X190150000Y-87300000D01*
X190150000Y-87300000D02*
X190150000Y-89200000D01*
X190150000Y-89200000D02*
X193850000Y-89200000D01*
X188825000Y-89600000D02*
X188825000Y-91500000D01*
X188825000Y-91500000D02*
X192525000Y-91500000D01*
X192525000Y-91500000D02*
X192525000Y-89600000D01*
X192525000Y-89600000D02*
X188825000Y-89600000D01*
X179850000Y-57030000D02*
X176150000Y-57030000D01*
X176150000Y-57030000D02*
X176150000Y-64870000D01*
X176150000Y-64870000D02*
X179850000Y-64870000D01*
X179850000Y-64870000D02*
X179850000Y-57030000D01*
X172150000Y-62080000D02*
X172150000Y-69920000D01*
X175850000Y-62080000D02*
X172150000Y-62080000D01*
X175850000Y-69920000D02*
X175850000Y-62080000D01*
X172150000Y-69920000D02*
X175850000Y-69920000D01*
X147974000Y-68750000D02*
X147974000Y-58250000D01*
X168934000Y-68750000D02*
X147974000Y-68750000D01*
X168934000Y-58250000D02*
X168934000Y-68750000D01*
X147974000Y-58250000D02*
X168934000Y-58250000D01*
X223250000Y-85400000D02*
X223250000Y-88900000D01*
X228650000Y-85400000D02*
X223250000Y-85400000D01*
X228650000Y-88900000D02*
X228650000Y-85400000D01*
X223250000Y-88900000D02*
X228650000Y-88900000D01*
X224550000Y-54880000D02*
X224550000Y-57120000D01*
X224550000Y-57120000D02*
X229450000Y-57120000D01*
X229450000Y-57120000D02*
X229450000Y-54880000D01*
X229450000Y-54880000D02*
X224550000Y-54880000D01*
X200450000Y-87415000D02*
X198550000Y-87415000D01*
X198550000Y-87415000D02*
X198550000Y-91115000D01*
X198550000Y-91115000D02*
X200450000Y-91115000D01*
X200450000Y-91115000D02*
X200450000Y-87415000D01*
X218850000Y-114950000D02*
X218850000Y-113050000D01*
X218850000Y-113050000D02*
X215150000Y-113050000D01*
X215150000Y-113050000D02*
X215150000Y-114950000D01*
X215150000Y-114950000D02*
X218850000Y-114950000D01*
X205974000Y-105126000D02*
X205974000Y-103226000D01*
X205974000Y-103226000D02*
X202274000Y-103226000D01*
X202274000Y-103226000D02*
X202274000Y-105126000D01*
X202274000Y-105126000D02*
X205974000Y-105126000D01*
X204424000Y-99416000D02*
X204424000Y-101316000D01*
X204424000Y-101316000D02*
X208124000Y-101316000D01*
X208124000Y-101316000D02*
X208124000Y-99416000D01*
X208124000Y-99416000D02*
X204424000Y-99416000D01*
X220850000Y-116950000D02*
X220850000Y-115050000D01*
X220850000Y-115050000D02*
X217150000Y-115050000D01*
X217150000Y-115050000D02*
X217150000Y-116950000D01*
X217150000Y-116950000D02*
X220850000Y-116950000D01*
X188550000Y-107350000D02*
X190450000Y-107350000D01*
X190450000Y-107350000D02*
X190450000Y-103650000D01*
X190450000Y-103650000D02*
X188550000Y-103650000D01*
X188550000Y-103650000D02*
X188550000Y-107350000D01*
X181050000Y-106350000D02*
X182950000Y-106350000D01*
X182950000Y-106350000D02*
X182950000Y-102650000D01*
X182950000Y-102650000D02*
X181050000Y-102650000D01*
X181050000Y-102650000D02*
X181050000Y-106350000D01*
X191246000Y-97174000D02*
X191246000Y-99074000D01*
X191246000Y-99074000D02*
X194946000Y-99074000D01*
X194946000Y-99074000D02*
X194946000Y-97174000D01*
X194946000Y-97174000D02*
X191246000Y-97174000D01*
X193676000Y-103519000D02*
X193676000Y-101619000D01*
X193676000Y-101619000D02*
X189976000Y-101619000D01*
X189976000Y-101619000D02*
X189976000Y-103519000D01*
X189976000Y-103519000D02*
X193676000Y-103519000D01*
X189100000Y-124500000D02*
X189100000Y-122600000D01*
X189100000Y-122600000D02*
X185400000Y-122600000D01*
X185400000Y-122600000D02*
X185400000Y-124500000D01*
X185400000Y-124500000D02*
X189100000Y-124500000D01*
X174950000Y-57650000D02*
X173050000Y-57650000D01*
X173050000Y-57650000D02*
X173050000Y-61350000D01*
X173050000Y-61350000D02*
X174950000Y-61350000D01*
X174950000Y-61350000D02*
X174950000Y-57650000D01*
X177050000Y-69325000D02*
X178950000Y-69325000D01*
X178950000Y-69325000D02*
X178950000Y-65625000D01*
X178950000Y-65625000D02*
X177050000Y-65625000D01*
X177050000Y-65625000D02*
X177050000Y-69325000D01*
X194700000Y-125050000D02*
X185400000Y-125050000D01*
X185400000Y-125050000D02*
X185400000Y-127250000D01*
X185400000Y-127250000D02*
X194700000Y-127250000D01*
X194700000Y-127250000D02*
X194700000Y-125050000D01*
X214350000Y-57100000D02*
X223650000Y-57100000D01*
X223650000Y-57100000D02*
X223650000Y-54900000D01*
X223650000Y-54900000D02*
X214350000Y-54900000D01*
X214350000Y-54900000D02*
X214350000Y-57100000D01*
X205270000Y-121200000D02*
X205270000Y-115800000D01*
X212730000Y-121200000D02*
X212730000Y-115800000D01*
X205270000Y-121200000D02*
X212730000Y-121200000D01*
X205270000Y-115800000D02*
X212730000Y-115800000D01*
X219150000Y-113050000D02*
X219150000Y-114950000D01*
X219150000Y-114950000D02*
X222850000Y-114950000D01*
X222850000Y-114950000D02*
X222850000Y-113050000D01*
X222850000Y-113050000D02*
X219150000Y-113050000D01*
X212350000Y-123450000D02*
X212350000Y-121550000D01*
X212350000Y-121550000D02*
X208650000Y-121550000D01*
X208650000Y-121550000D02*
X208650000Y-123450000D01*
X208650000Y-123450000D02*
X212350000Y-123450000D01*
X228450000Y-116650000D02*
X226550000Y-116650000D01*
X226550000Y-116650000D02*
X226550000Y-120350000D01*
X226550000Y-120350000D02*
X228450000Y-120350000D01*
X228450000Y-120350000D02*
X228450000Y-116650000D01*
X192070000Y-122550000D02*
X192070000Y-124450000D01*
X192070000Y-124450000D02*
X195770000Y-124450000D01*
X195770000Y-124450000D02*
X195770000Y-122550000D01*
X195770000Y-122550000D02*
X192070000Y-122550000D01*
X189976000Y-117494000D02*
X189976000Y-119394000D01*
X189976000Y-119394000D02*
X193676000Y-119394000D01*
X193676000Y-119394000D02*
X193676000Y-117494000D01*
X193676000Y-117494000D02*
X189976000Y-117494000D01*
X189976000Y-114954000D02*
X189976000Y-116854000D01*
X189976000Y-116854000D02*
X193676000Y-116854000D01*
X193676000Y-116854000D02*
X193676000Y-114954000D01*
X193676000Y-114954000D02*
X189976000Y-114954000D01*
X223500000Y-110500000D02*
X223500000Y-113500000D01*
X223500000Y-110500000D02*
X226500000Y-110500000D01*
X226500000Y-113500000D02*
X223500000Y-113500000D01*
X226500000Y-113500000D02*
X226500000Y-110500000D01*
X223500000Y-101500000D02*
X223500000Y-104500000D01*
X223500000Y-101500000D02*
X226500000Y-101500000D01*
X226500000Y-104500000D02*
X223500000Y-104500000D01*
X226500000Y-104500000D02*
X226500000Y-101500000D01*
X226000000Y-118500000D02*
X223000000Y-118500000D01*
X226000000Y-118500000D02*
X226000000Y-121500000D01*
X223000000Y-121500000D02*
X223000000Y-118500000D01*
X223000000Y-121500000D02*
X226000000Y-121500000D01*
X223000000Y-118500000D02*
X226000000Y-118500000D01*
X223000000Y-118500000D02*
X223000000Y-115500000D01*
X226000000Y-115500000D02*
X226000000Y-118500000D01*
X226000000Y-115500000D02*
X223000000Y-115500000D01*
X178000000Y-86000000D02*
X181000000Y-86000000D01*
X178000000Y-86000000D02*
X178000000Y-83000000D01*
X181000000Y-83000000D02*
X181000000Y-86000000D01*
X181000000Y-83000000D02*
X178000000Y-83000000D01*
X203000000Y-121500000D02*
X203000000Y-124500000D01*
X203000000Y-121500000D02*
X206000000Y-121500000D01*
X206000000Y-124500000D02*
X203000000Y-124500000D01*
X206000000Y-124500000D02*
X206000000Y-121500000D01*
X223500000Y-104500000D02*
X223500000Y-107500000D01*
X223500000Y-104500000D02*
X226500000Y-104500000D01*
X226500000Y-107500000D02*
X223500000Y-107500000D01*
X226500000Y-107500000D02*
X226500000Y-104500000D01*
X223500000Y-107500000D02*
X223500000Y-110500000D01*
X223500000Y-107500000D02*
X226500000Y-107500000D01*
X226500000Y-110500000D02*
X223500000Y-110500000D01*
X226500000Y-110500000D02*
X226500000Y-107500000D01*
X203000000Y-112500000D02*
X203000000Y-115500000D01*
X203000000Y-112500000D02*
X206000000Y-112500000D01*
X206000000Y-115500000D02*
X203000000Y-115500000D01*
X206000000Y-115500000D02*
X206000000Y-112500000D01*
M02*
