%TF.GenerationSoftware,KiCad,Pcbnew,5.1.7+dfsg1-1~bpo10+1*%
%TF.CreationDate,2021-01-05T11:32:25+00:00*%
%TF.ProjectId,MCB19,4d434231-392e-46b6-9963-61645f706362,rev?*%
%TF.SameCoordinates,Original*%
%TF.FileFunction,Other,Fab,Bot*%
%FSLAX45Y45*%
G04 Gerber Fmt 4.5, Leading zero omitted, Abs format (unit mm)*
G04 Created by KiCad (PCBNEW 5.1.7+dfsg1-1~bpo10+1) date 2021-01-05 11:32:25*
%MOMM*%
%LPD*%
G01*
G04 APERTURE LIST*
%TA.AperFunction,Profile*%
%ADD10C,0.100000*%
%TD*%
%ADD11C,0.100000*%
%ADD12C,0.150000*%
%ADD13C,0.080000*%
%ADD14C,0.075000*%
%ADD15C,0.120000*%
G04 APERTURE END LIST*
D10*
X22285000Y-5050000D02*
X5000000Y-5050000D01*
X22285000Y-13200000D02*
X22285000Y-5050000D01*
X5000000Y-13200000D02*
X22285000Y-13200000D01*
X5000000Y-5050000D02*
X5000000Y-13200000D01*
D11*
X10042500Y-12000000D02*
X9842500Y-12000000D01*
X10042500Y-12120000D02*
X10042500Y-12000000D01*
X9842500Y-12120000D02*
X10042500Y-12120000D01*
X9842500Y-12000000D02*
X9842500Y-12120000D01*
X10500000Y-12260000D02*
X10500000Y-12580000D01*
X9900000Y-12260000D02*
X10500000Y-12260000D01*
X9900000Y-12500000D02*
X9900000Y-12260000D01*
X9980000Y-12580000D02*
X9900000Y-12500000D01*
X10500000Y-12580000D02*
X9980000Y-12580000D01*
X16460000Y-10940000D02*
X16260000Y-10940000D01*
X16460000Y-11060000D02*
X16460000Y-10940000D01*
X16260000Y-11060000D02*
X16460000Y-11060000D01*
X16260000Y-10940000D02*
X16260000Y-11060000D01*
X16260000Y-11360000D02*
X16260000Y-11240000D01*
X16460000Y-11360000D02*
X16260000Y-11360000D01*
X16460000Y-11270000D02*
X16460000Y-11360000D01*
X16430000Y-11240000D02*
X16460000Y-11270000D01*
X16260000Y-11240000D02*
X16430000Y-11240000D01*
X10197500Y-11760000D02*
X10197500Y-11880000D01*
X10197500Y-11880000D02*
X10397500Y-11880000D01*
X10397500Y-11880000D02*
X10397500Y-11760000D01*
X10397500Y-11760000D02*
X10197500Y-11760000D01*
X9620000Y-11400000D02*
X9500000Y-11400000D01*
X9500000Y-11400000D02*
X9500000Y-11600000D01*
X9500000Y-11600000D02*
X9620000Y-11600000D01*
X9620000Y-11600000D02*
X9620000Y-11400000D01*
X10395000Y-8592500D02*
X10395000Y-8885000D01*
X10395000Y-8885000D02*
X10885000Y-8885000D01*
X10885000Y-8885000D02*
X10885000Y-8495000D01*
X10885000Y-8495000D02*
X10492500Y-8495000D01*
X10492500Y-8495000D02*
X10395000Y-8592500D01*
X8350000Y-10865000D02*
X8350000Y-10905000D01*
X8350000Y-10905000D02*
X8295000Y-10905000D01*
X8350000Y-10905000D02*
X8405000Y-10905000D01*
X8350000Y-10905000D02*
X8310000Y-10965000D01*
X8310000Y-10965000D02*
X8390000Y-10965000D01*
X8390000Y-10965000D02*
X8350000Y-10905000D01*
X8350000Y-10965000D02*
X8350000Y-11015000D01*
X8270000Y-10775000D02*
X8270000Y-11105000D01*
X8430000Y-10775000D02*
X8270000Y-10775000D01*
X8430000Y-11105000D02*
X8430000Y-10775000D01*
X8270000Y-11105000D02*
X8430000Y-11105000D01*
X12108000Y-9140000D02*
X11600000Y-9140000D01*
X12108000Y-8595000D02*
X11600000Y-8595000D01*
X12108000Y-8050000D02*
X11600000Y-8050000D01*
X12108000Y-9390000D02*
X12108000Y-7800000D01*
X14203000Y-9390000D02*
X12108000Y-9390000D01*
X14203000Y-7800000D02*
X14203000Y-9390000D01*
X12108000Y-7800000D02*
X14203000Y-7800000D01*
X13766500Y-8595000D02*
G75*
G03*
X13766500Y-8595000I-180500J0D01*
G01*
X15378900Y-11235000D02*
X15378900Y-11355000D01*
X15378900Y-11355000D02*
X15578900Y-11355000D01*
X15578900Y-11355000D02*
X15578900Y-11235000D01*
X15578900Y-11235000D02*
X15378900Y-11235000D01*
X10370000Y-11365000D02*
X10370000Y-11610000D01*
X10315000Y-11308000D02*
X10230000Y-11308000D01*
X10370000Y-11365000D02*
X10315000Y-11308000D01*
X10230000Y-11308000D02*
X10230000Y-11612000D01*
X10370000Y-11612000D02*
X10230000Y-11612000D01*
X9950000Y-11707000D02*
X9810000Y-11707000D01*
X9810000Y-11403000D02*
X9810000Y-11707000D01*
X9950000Y-11460000D02*
X9895000Y-11403000D01*
X9895000Y-11403000D02*
X9810000Y-11403000D01*
X9950000Y-11460000D02*
X9950000Y-11705000D01*
X6670000Y-11910000D02*
X8910000Y-11910000D01*
X6670000Y-12850000D02*
X6670000Y-11910000D01*
X8910000Y-12850000D02*
X6670000Y-12850000D01*
X8910000Y-11910000D02*
X8910000Y-12850000D01*
X6669000Y-5383000D02*
X8909000Y-5383000D01*
X6669000Y-6323000D02*
X6669000Y-5383000D01*
X8909000Y-6323000D02*
X6669000Y-6323000D01*
X8909000Y-5383000D02*
X8909000Y-6323000D01*
X8547000Y-9090500D02*
X8347000Y-9090500D01*
X8547000Y-9210500D02*
X8547000Y-9090500D01*
X8347000Y-9210500D02*
X8547000Y-9210500D01*
X8347000Y-9090500D02*
X8347000Y-9210500D01*
X8547000Y-9320000D02*
X8347000Y-9320000D01*
X8547000Y-9440000D02*
X8547000Y-9320000D01*
X8347000Y-9440000D02*
X8547000Y-9440000D01*
X8347000Y-9320000D02*
X8347000Y-9440000D01*
X8610000Y-8520000D02*
X8290000Y-8520000D01*
X8610000Y-8680000D02*
X8610000Y-8520000D01*
X8290000Y-8680000D02*
X8610000Y-8680000D01*
X8290000Y-8520000D02*
X8290000Y-8680000D01*
X8610000Y-8807000D02*
X8290000Y-8807000D01*
X8610000Y-8967000D02*
X8610000Y-8807000D01*
X8290000Y-8967000D02*
X8610000Y-8967000D01*
X8290000Y-8807000D02*
X8290000Y-8967000D01*
X11767500Y-10090000D02*
X11865000Y-9992500D01*
X11375000Y-10090000D02*
X11767500Y-10090000D01*
X11375000Y-9700000D02*
X11375000Y-10090000D01*
X11865000Y-9700000D02*
X11375000Y-9700000D01*
X11865000Y-9992500D02*
X11865000Y-9700000D01*
D12*
X18367900Y-11271600D02*
X19017900Y-11271600D01*
X19017900Y-11271600D02*
X19017900Y-10111600D01*
X19017900Y-10111600D02*
X18267900Y-10111600D01*
X18267900Y-10111600D02*
X18267900Y-11171600D01*
X18267900Y-11171600D02*
X18367900Y-11271600D01*
D11*
X15378900Y-10900400D02*
X15578900Y-10900400D01*
X15378900Y-10780400D02*
X15378900Y-10900400D01*
X15578900Y-10780400D02*
X15378900Y-10780400D01*
X15578900Y-10900400D02*
X15578900Y-10780400D01*
X13720000Y-11895000D02*
X13720000Y-12095000D01*
X13840000Y-11895000D02*
X13720000Y-11895000D01*
X13840000Y-12095000D02*
X13840000Y-11895000D01*
X13720000Y-12095000D02*
X13840000Y-12095000D01*
X11160000Y-9945000D02*
X11160000Y-10145000D01*
X11280000Y-9945000D02*
X11160000Y-9945000D01*
X11280000Y-10145000D02*
X11280000Y-9945000D01*
X11160000Y-10145000D02*
X11280000Y-10145000D01*
X12108000Y-7290000D02*
X11600000Y-7290000D01*
X12108000Y-6745000D02*
X11600000Y-6745000D01*
X12108000Y-6200000D02*
X11600000Y-6200000D01*
X12108000Y-7540000D02*
X12108000Y-5950000D01*
X14203000Y-7540000D02*
X12108000Y-7540000D01*
X14203000Y-5950000D02*
X14203000Y-7540000D01*
X12108000Y-5950000D02*
X14203000Y-5950000D01*
X13766500Y-6745000D02*
G75*
G03*
X13766500Y-6745000I-180500J0D01*
G01*
X14020000Y-11685000D02*
X13922500Y-11782500D01*
X14787500Y-11685000D02*
X14020000Y-11685000D01*
X14787500Y-12075000D02*
X14787500Y-11685000D01*
X13922500Y-12075000D02*
X14787500Y-12075000D01*
X13922500Y-11782500D02*
X13922500Y-12075000D01*
X10805000Y-10195000D02*
X10805000Y-9995000D01*
X10685000Y-10195000D02*
X10805000Y-10195000D01*
X10685000Y-9995000D02*
X10685000Y-10195000D01*
X10805000Y-9995000D02*
X10685000Y-9995000D01*
X10540000Y-10530000D02*
X10740000Y-10530000D01*
X10540000Y-10410000D02*
X10540000Y-10530000D01*
X10740000Y-10410000D02*
X10540000Y-10410000D01*
X10740000Y-10530000D02*
X10740000Y-10410000D01*
X11100000Y-8782500D02*
X10980000Y-8782500D01*
X10980000Y-8782500D02*
X10980000Y-8982500D01*
X10980000Y-8982500D02*
X11100000Y-8982500D01*
X11100000Y-8982500D02*
X11100000Y-8782500D01*
X14615100Y-11408400D02*
X14815100Y-11408400D01*
X14615100Y-11288400D02*
X14615100Y-11408400D01*
X14815100Y-11288400D02*
X14615100Y-11288400D01*
X14815100Y-11408400D02*
X14815100Y-11288400D01*
X14615100Y-11154400D02*
X14815100Y-11154400D01*
X14615100Y-11034400D02*
X14615100Y-11154400D01*
X14815100Y-11034400D02*
X14615100Y-11034400D01*
X14815100Y-11154400D02*
X14815100Y-11034400D01*
X14815100Y-10780400D02*
X14615100Y-10780400D01*
X14815100Y-10900400D02*
X14815100Y-10780400D01*
X14615100Y-10900400D02*
X14815100Y-10900400D01*
X14615100Y-10780400D02*
X14615100Y-10900400D01*
X10765000Y-8090000D02*
X10725000Y-8090000D01*
X10725000Y-8090000D02*
X10725000Y-8035000D01*
X10725000Y-8090000D02*
X10725000Y-8145000D01*
X10725000Y-8090000D02*
X10665000Y-8050000D01*
X10665000Y-8050000D02*
X10665000Y-8130000D01*
X10665000Y-8130000D02*
X10725000Y-8090000D01*
X10665000Y-8090000D02*
X10615000Y-8090000D01*
X10855000Y-8010000D02*
X10525000Y-8010000D01*
X10855000Y-8170000D02*
X10855000Y-8010000D01*
X10525000Y-8170000D02*
X10855000Y-8170000D01*
X10525000Y-8010000D02*
X10525000Y-8170000D01*
X10100000Y-8310000D02*
X10100000Y-8190000D01*
X10100000Y-8190000D02*
X9900000Y-8190000D01*
X9900000Y-8190000D02*
X9900000Y-8310000D01*
X9900000Y-8310000D02*
X10100000Y-8310000D01*
X9907500Y-7942500D02*
X9907500Y-7622500D01*
X10507500Y-7942500D02*
X9907500Y-7942500D01*
X10507500Y-7702500D02*
X10507500Y-7942500D01*
X10427500Y-7622500D02*
X10507500Y-7702500D01*
X9907500Y-7622500D02*
X10427500Y-7622500D01*
X11100000Y-8340000D02*
X10980000Y-8340000D01*
X10980000Y-8340000D02*
X10980000Y-8540000D01*
X10980000Y-8540000D02*
X11100000Y-8540000D01*
X11100000Y-8540000D02*
X11100000Y-8340000D01*
X15578900Y-11010000D02*
X15378900Y-11010000D01*
X15578900Y-11130000D02*
X15578900Y-11010000D01*
X15378900Y-11130000D02*
X15578900Y-11130000D01*
X15378900Y-11010000D02*
X15378900Y-11130000D01*
X20800000Y-6732500D02*
X20800000Y-6932500D01*
X20920000Y-6732500D02*
X20800000Y-6732500D01*
X20920000Y-6932500D02*
X20920000Y-6732500D01*
X20800000Y-6932500D02*
X20920000Y-6932500D01*
X20520000Y-5930000D02*
X20400000Y-5930000D01*
X20400000Y-5930000D02*
X20400000Y-6130000D01*
X20400000Y-6130000D02*
X20520000Y-6130000D01*
X20520000Y-6130000D02*
X20520000Y-5930000D01*
X20300000Y-6385000D02*
X20620000Y-6385000D01*
X20300000Y-6985000D02*
X20300000Y-6385000D01*
X20540000Y-6985000D02*
X20300000Y-6985000D01*
X20620000Y-6905000D02*
X20540000Y-6985000D01*
X20620000Y-6385000D02*
X20620000Y-6905000D01*
X20700000Y-6475000D02*
X20700000Y-5955000D01*
X20700000Y-5955000D02*
X20780000Y-5875000D01*
X20780000Y-5875000D02*
X21020000Y-5875000D01*
X21020000Y-5875000D02*
X21020000Y-6475000D01*
X21020000Y-6475000D02*
X20700000Y-6475000D01*
X21775000Y-6010000D02*
X21775000Y-5850000D01*
X21775000Y-5850000D02*
X21445000Y-5850000D01*
X21445000Y-5850000D02*
X21445000Y-6010000D01*
X21445000Y-6010000D02*
X21775000Y-6010000D01*
X21635000Y-5930000D02*
X21685000Y-5930000D01*
X21635000Y-5890000D02*
X21575000Y-5930000D01*
X21635000Y-5970000D02*
X21635000Y-5890000D01*
X21575000Y-5930000D02*
X21635000Y-5970000D01*
X21575000Y-5930000D02*
X21575000Y-5875000D01*
X21575000Y-5930000D02*
X21575000Y-5985000D01*
X21535000Y-5930000D02*
X21575000Y-5930000D01*
X18347400Y-6430000D02*
G75*
G03*
X18347400Y-6430000I-185000J0D01*
G01*
X18522400Y-5930000D02*
X17882400Y-5930000D01*
X17882400Y-5930000D02*
X17882400Y-6930000D01*
X17882400Y-6930000D02*
X18522400Y-6930000D01*
X18522400Y-6930000D02*
X18522400Y-5930000D01*
X19447400Y-5930000D02*
X18522400Y-5930000D01*
X18522400Y-5930000D02*
X18522400Y-6930000D01*
X18522400Y-6930000D02*
X19447400Y-6930000D01*
X19447400Y-6930000D02*
X19447400Y-5930000D01*
X19447400Y-6176000D02*
X19828400Y-6176000D01*
X19447400Y-6430000D02*
X19828400Y-6430000D01*
X19447400Y-6684000D02*
X19828400Y-6684000D01*
X16470000Y-12175000D02*
X16470000Y-12055000D01*
X16470000Y-12055000D02*
X16270000Y-12055000D01*
X16270000Y-12055000D02*
X16270000Y-12175000D01*
X16270000Y-12175000D02*
X16470000Y-12175000D01*
X17080000Y-9472500D02*
X17200000Y-9472500D01*
X17200000Y-9472500D02*
X17200000Y-9272500D01*
X17200000Y-9272500D02*
X17080000Y-9272500D01*
X17080000Y-9272500D02*
X17080000Y-9472500D01*
X16290000Y-8785000D02*
X16460000Y-8785000D01*
X16460000Y-8785000D02*
X16490000Y-8815000D01*
X16490000Y-8815000D02*
X16490000Y-8905000D01*
X16490000Y-8905000D02*
X16290000Y-8905000D01*
X16290000Y-8905000D02*
X16290000Y-8785000D01*
X16157500Y-9015000D02*
X16157500Y-9135000D01*
X16157500Y-9135000D02*
X16357500Y-9135000D01*
X16357500Y-9135000D02*
X16357500Y-9015000D01*
X16357500Y-9015000D02*
X16157500Y-9015000D01*
X17350000Y-6475000D02*
X17350000Y-5955000D01*
X17350000Y-5955000D02*
X17430000Y-5875000D01*
X17430000Y-5875000D02*
X17670000Y-5875000D01*
X17670000Y-5875000D02*
X17670000Y-6475000D01*
X17670000Y-6475000D02*
X17350000Y-6475000D01*
X16950000Y-6380000D02*
X17270000Y-6380000D01*
X16950000Y-6980000D02*
X16950000Y-6380000D01*
X17190000Y-6980000D02*
X16950000Y-6980000D01*
X17270000Y-6900000D02*
X17190000Y-6980000D01*
X17270000Y-6380000D02*
X17270000Y-6900000D01*
X16097400Y-6684000D02*
X16478400Y-6684000D01*
X16097400Y-6430000D02*
X16478400Y-6430000D01*
X16097400Y-6176000D02*
X16478400Y-6176000D01*
X16097400Y-6930000D02*
X16097400Y-5930000D01*
X15172400Y-6930000D02*
X16097400Y-6930000D01*
X15172400Y-5930000D02*
X15172400Y-6930000D01*
X16097400Y-5930000D02*
X15172400Y-5930000D01*
X15172400Y-6930000D02*
X15172400Y-5930000D01*
X14532400Y-6930000D02*
X15172400Y-6930000D01*
X14532400Y-5930000D02*
X14532400Y-6930000D01*
X15172400Y-5930000D02*
X14532400Y-5930000D01*
X14997400Y-6430000D02*
G75*
G03*
X14997400Y-6430000I-185000J0D01*
G01*
X19715000Y-8583000D02*
X19855000Y-8583000D01*
X19855000Y-8887000D02*
X19855000Y-8583000D01*
X19715000Y-8830000D02*
X19770000Y-8887000D01*
X19770000Y-8887000D02*
X19855000Y-8887000D01*
X19715000Y-8830000D02*
X19715000Y-8585000D01*
X21975000Y-6225000D02*
X21815000Y-6225000D01*
X21815000Y-6225000D02*
X21815000Y-6545000D01*
X21815000Y-6545000D02*
X21975000Y-6545000D01*
X21975000Y-6545000D02*
X21975000Y-6225000D01*
X17200000Y-8846500D02*
X17080000Y-8846500D01*
X17080000Y-8846500D02*
X17080000Y-9046500D01*
X17080000Y-9046500D02*
X17200000Y-9046500D01*
X17200000Y-9046500D02*
X17200000Y-8846500D01*
X18990000Y-11480000D02*
X18990000Y-11360000D01*
X18990000Y-11360000D02*
X18790000Y-11360000D01*
X18790000Y-11360000D02*
X18790000Y-11480000D01*
X18790000Y-11480000D02*
X18990000Y-11480000D01*
X17702400Y-10497600D02*
X17702400Y-10377600D01*
X17702400Y-10377600D02*
X17502400Y-10377600D01*
X17502400Y-10377600D02*
X17502400Y-10497600D01*
X17502400Y-10497600D02*
X17702400Y-10497600D01*
X17717400Y-9996600D02*
X17717400Y-10116600D01*
X17717400Y-10116600D02*
X17917400Y-10116600D01*
X17917400Y-10116600D02*
X17917400Y-9996600D01*
X17917400Y-9996600D02*
X17717400Y-9996600D01*
X19190000Y-11680000D02*
X19190000Y-11560000D01*
X19190000Y-11560000D02*
X18990000Y-11560000D01*
X18990000Y-11560000D02*
X18990000Y-11680000D01*
X18990000Y-11680000D02*
X19190000Y-11680000D01*
X16080000Y-10670000D02*
X16200000Y-10670000D01*
X16200000Y-10670000D02*
X16200000Y-10470000D01*
X16200000Y-10470000D02*
X16080000Y-10470000D01*
X16080000Y-10470000D02*
X16080000Y-10670000D01*
X15330000Y-10570000D02*
X15450000Y-10570000D01*
X15450000Y-10570000D02*
X15450000Y-10370000D01*
X15450000Y-10370000D02*
X15330000Y-10370000D01*
X15330000Y-10370000D02*
X15330000Y-10570000D01*
X16399600Y-9772400D02*
X16399600Y-9892400D01*
X16399600Y-9892400D02*
X16599600Y-9892400D01*
X16599600Y-9892400D02*
X16599600Y-9772400D01*
X16599600Y-9772400D02*
X16399600Y-9772400D01*
X16472600Y-10336900D02*
X16472600Y-10216900D01*
X16472600Y-10216900D02*
X16272600Y-10216900D01*
X16272600Y-10216900D02*
X16272600Y-10336900D01*
X16272600Y-10336900D02*
X16472600Y-10336900D01*
X16015000Y-12435000D02*
X16015000Y-12315000D01*
X16015000Y-12315000D02*
X15815000Y-12315000D01*
X15815000Y-12315000D02*
X15815000Y-12435000D01*
X15815000Y-12435000D02*
X16015000Y-12435000D01*
X17170000Y-5930000D02*
X17050000Y-5930000D01*
X17050000Y-5930000D02*
X17050000Y-6130000D01*
X17050000Y-6130000D02*
X17170000Y-6130000D01*
X17170000Y-6130000D02*
X17170000Y-5930000D01*
X17450000Y-6927500D02*
X17570000Y-6927500D01*
X17570000Y-6927500D02*
X17570000Y-6727500D01*
X17570000Y-6727500D02*
X17450000Y-6727500D01*
X17450000Y-6727500D02*
X17450000Y-6927500D01*
X16127500Y-12560000D02*
X16127500Y-12720000D01*
X16127500Y-12720000D02*
X16457500Y-12720000D01*
X16457500Y-12720000D02*
X16457500Y-12560000D01*
X16457500Y-12560000D02*
X16127500Y-12560000D01*
X16267500Y-12640000D02*
X16217500Y-12640000D01*
X16267500Y-12680000D02*
X16327500Y-12640000D01*
X16267500Y-12600000D02*
X16267500Y-12680000D01*
X16327500Y-12640000D02*
X16267500Y-12600000D01*
X16327500Y-12640000D02*
X16327500Y-12695000D01*
X16327500Y-12640000D02*
X16327500Y-12585000D01*
X16367500Y-12640000D02*
X16327500Y-12640000D01*
X21775000Y-5760000D02*
X21775000Y-5600000D01*
X21775000Y-5600000D02*
X21445000Y-5600000D01*
X21445000Y-5600000D02*
X21445000Y-5760000D01*
X21445000Y-5760000D02*
X21775000Y-5760000D01*
X21635000Y-5680000D02*
X21685000Y-5680000D01*
X21635000Y-5640000D02*
X21575000Y-5680000D01*
X21635000Y-5720000D02*
X21635000Y-5640000D01*
X21575000Y-5680000D02*
X21635000Y-5720000D01*
X21575000Y-5680000D02*
X21575000Y-5625000D01*
X21575000Y-5680000D02*
X21575000Y-5735000D01*
X21535000Y-5680000D02*
X21575000Y-5680000D01*
X17995000Y-12115000D02*
X18285000Y-12115000D01*
X18285000Y-12115000D02*
X18285000Y-11625000D01*
X18285000Y-11625000D02*
X17895000Y-11625000D01*
X17895000Y-11625000D02*
X17895000Y-12015000D01*
X17895000Y-12015000D02*
X17995000Y-12115000D01*
X19190000Y-11360000D02*
X19190000Y-11480000D01*
X19190000Y-11480000D02*
X19390000Y-11480000D01*
X19390000Y-11480000D02*
X19390000Y-11360000D01*
X19390000Y-11360000D02*
X19190000Y-11360000D01*
X18340000Y-12330000D02*
X18340000Y-12210000D01*
X18340000Y-12210000D02*
X18140000Y-12210000D01*
X18140000Y-12210000D02*
X18140000Y-12330000D01*
X18140000Y-12330000D02*
X18340000Y-12330000D01*
X20000000Y-11770000D02*
X19880000Y-11770000D01*
X19880000Y-11770000D02*
X19880000Y-11970000D01*
X19880000Y-11970000D02*
X20000000Y-11970000D01*
X20000000Y-11970000D02*
X20000000Y-11770000D01*
X16482000Y-12310000D02*
X16482000Y-12430000D01*
X16482000Y-12430000D02*
X16682000Y-12430000D01*
X16682000Y-12430000D02*
X16682000Y-12310000D01*
X16682000Y-12310000D02*
X16482000Y-12310000D01*
X16272600Y-11804400D02*
X16272600Y-11924400D01*
X16272600Y-11924400D02*
X16472600Y-11924400D01*
X16472600Y-11924400D02*
X16472600Y-11804400D01*
X16472600Y-11804400D02*
X16272600Y-11804400D01*
X16272600Y-11550400D02*
X16272600Y-11670400D01*
X16272600Y-11670400D02*
X16472600Y-11670400D01*
X16472600Y-11670400D02*
X16472600Y-11550400D01*
X16472600Y-11550400D02*
X16272600Y-11550400D01*
D13*
X9998452Y-12077857D02*
X10000833Y-12080238D01*
X10007976Y-12082619D01*
X10012738Y-12082619D01*
X10019881Y-12080238D01*
X10024643Y-12075476D01*
X10027024Y-12070714D01*
X10029405Y-12061190D01*
X10029405Y-12054048D01*
X10027024Y-12044524D01*
X10024643Y-12039762D01*
X10019881Y-12035000D01*
X10012738Y-12032619D01*
X10007976Y-12032619D01*
X10000833Y-12035000D01*
X9998452Y-12037381D01*
X9955595Y-12032619D02*
X9965119Y-12032619D01*
X9969881Y-12035000D01*
X9972262Y-12037381D01*
X9977024Y-12044524D01*
X9979405Y-12054048D01*
X9979405Y-12073095D01*
X9977024Y-12077857D01*
X9974643Y-12080238D01*
X9969881Y-12082619D01*
X9960357Y-12082619D01*
X9955595Y-12080238D01*
X9953214Y-12077857D01*
X9950833Y-12073095D01*
X9950833Y-12061190D01*
X9953214Y-12056428D01*
X9955595Y-12054048D01*
X9960357Y-12051667D01*
X9969881Y-12051667D01*
X9974643Y-12054048D01*
X9977024Y-12056428D01*
X9979405Y-12061190D01*
X9931786Y-12037381D02*
X9929405Y-12035000D01*
X9924643Y-12032619D01*
X9912738Y-12032619D01*
X9907976Y-12035000D01*
X9905595Y-12037381D01*
X9903214Y-12042143D01*
X9903214Y-12046905D01*
X9905595Y-12054048D01*
X9934167Y-12082619D01*
X9903214Y-12082619D01*
X9879405Y-12082619D02*
X9869881Y-12082619D01*
X9865119Y-12080238D01*
X9862738Y-12077857D01*
X9857976Y-12070714D01*
X9855595Y-12061190D01*
X9855595Y-12042143D01*
X9857976Y-12037381D01*
X9860357Y-12035000D01*
X9865119Y-12032619D01*
X9874643Y-12032619D01*
X9879405Y-12035000D01*
X9881786Y-12037381D01*
X9884167Y-12042143D01*
X9884167Y-12054048D01*
X9881786Y-12058809D01*
X9879405Y-12061190D01*
X9874643Y-12063571D01*
X9865119Y-12063571D01*
X9860357Y-12061190D01*
X9857976Y-12058809D01*
X9855595Y-12054048D01*
D12*
X10311905Y-12455714D02*
X10316667Y-12460476D01*
X10330952Y-12465238D01*
X10340476Y-12465238D01*
X10354762Y-12460476D01*
X10364286Y-12450952D01*
X10369048Y-12441428D01*
X10373810Y-12422381D01*
X10373810Y-12408095D01*
X10369048Y-12389048D01*
X10364286Y-12379524D01*
X10354762Y-12370000D01*
X10340476Y-12365238D01*
X10330952Y-12365238D01*
X10316667Y-12370000D01*
X10311905Y-12374762D01*
X10226190Y-12365238D02*
X10245238Y-12365238D01*
X10254762Y-12370000D01*
X10259524Y-12374762D01*
X10269048Y-12389048D01*
X10273810Y-12408095D01*
X10273810Y-12446190D01*
X10269048Y-12455714D01*
X10264286Y-12460476D01*
X10254762Y-12465238D01*
X10235714Y-12465238D01*
X10226190Y-12460476D01*
X10221429Y-12455714D01*
X10216667Y-12446190D01*
X10216667Y-12422381D01*
X10221429Y-12412857D01*
X10226190Y-12408095D01*
X10235714Y-12403333D01*
X10254762Y-12403333D01*
X10264286Y-12408095D01*
X10269048Y-12412857D01*
X10273810Y-12422381D01*
X10178571Y-12374762D02*
X10173810Y-12370000D01*
X10164286Y-12365238D01*
X10140476Y-12365238D01*
X10130952Y-12370000D01*
X10126190Y-12374762D01*
X10121429Y-12384286D01*
X10121429Y-12393809D01*
X10126190Y-12408095D01*
X10183333Y-12465238D01*
X10121429Y-12465238D01*
X10064286Y-12408095D02*
X10073810Y-12403333D01*
X10078571Y-12398571D01*
X10083333Y-12389048D01*
X10083333Y-12384286D01*
X10078571Y-12374762D01*
X10073810Y-12370000D01*
X10064286Y-12365238D01*
X10045238Y-12365238D01*
X10035714Y-12370000D01*
X10030952Y-12374762D01*
X10026190Y-12384286D01*
X10026190Y-12389048D01*
X10030952Y-12398571D01*
X10035714Y-12403333D01*
X10045238Y-12408095D01*
X10064286Y-12408095D01*
X10073810Y-12412857D01*
X10078571Y-12417619D01*
X10083333Y-12427143D01*
X10083333Y-12446190D01*
X10078571Y-12455714D01*
X10073810Y-12460476D01*
X10064286Y-12465238D01*
X10045238Y-12465238D01*
X10035714Y-12460476D01*
X10030952Y-12455714D01*
X10026190Y-12446190D01*
X10026190Y-12427143D01*
X10030952Y-12417619D01*
X10035714Y-12412857D01*
X10045238Y-12408095D01*
D13*
X16415952Y-11022619D02*
X16432619Y-10998810D01*
X16444524Y-11022619D02*
X16444524Y-10972619D01*
X16425476Y-10972619D01*
X16420714Y-10975000D01*
X16418333Y-10977381D01*
X16415952Y-10982143D01*
X16415952Y-10989286D01*
X16418333Y-10994048D01*
X16420714Y-10996429D01*
X16425476Y-10998810D01*
X16444524Y-10998810D01*
X16373095Y-10989286D02*
X16373095Y-11022619D01*
X16385000Y-10970238D02*
X16396905Y-11005952D01*
X16365952Y-11005952D01*
X16337381Y-10972619D02*
X16332619Y-10972619D01*
X16327857Y-10975000D01*
X16325476Y-10977381D01*
X16323095Y-10982143D01*
X16320714Y-10991667D01*
X16320714Y-11003571D01*
X16323095Y-11013095D01*
X16325476Y-11017857D01*
X16327857Y-11020238D01*
X16332619Y-11022619D01*
X16337381Y-11022619D01*
X16342143Y-11020238D01*
X16344524Y-11017857D01*
X16346905Y-11013095D01*
X16349286Y-11003571D01*
X16349286Y-10991667D01*
X16346905Y-10982143D01*
X16344524Y-10977381D01*
X16342143Y-10975000D01*
X16337381Y-10972619D01*
X16277857Y-10989286D02*
X16277857Y-11022619D01*
X16289762Y-10970238D02*
X16301667Y-11005952D01*
X16270714Y-11005952D01*
X16444524Y-11322619D02*
X16444524Y-11272619D01*
X16432619Y-11272619D01*
X16425476Y-11275000D01*
X16420714Y-11279762D01*
X16418333Y-11284524D01*
X16415952Y-11294048D01*
X16415952Y-11301190D01*
X16418333Y-11310714D01*
X16420714Y-11315476D01*
X16425476Y-11320238D01*
X16432619Y-11322619D01*
X16444524Y-11322619D01*
X16373095Y-11289286D02*
X16373095Y-11322619D01*
X16385000Y-11270238D02*
X16396905Y-11305952D01*
X16365952Y-11305952D01*
X16337381Y-11272619D02*
X16332619Y-11272619D01*
X16327857Y-11275000D01*
X16325476Y-11277381D01*
X16323095Y-11282143D01*
X16320714Y-11291667D01*
X16320714Y-11303571D01*
X16323095Y-11313095D01*
X16325476Y-11317857D01*
X16327857Y-11320238D01*
X16332619Y-11322619D01*
X16337381Y-11322619D01*
X16342143Y-11320238D01*
X16344524Y-11317857D01*
X16346905Y-11313095D01*
X16349286Y-11303571D01*
X16349286Y-11291667D01*
X16346905Y-11282143D01*
X16344524Y-11277381D01*
X16342143Y-11275000D01*
X16337381Y-11272619D01*
X16301667Y-11277381D02*
X16299286Y-11275000D01*
X16294524Y-11272619D01*
X16282619Y-11272619D01*
X16277857Y-11275000D01*
X16275476Y-11277381D01*
X16273095Y-11282143D01*
X16273095Y-11286905D01*
X16275476Y-11294048D01*
X16304048Y-11322619D01*
X16273095Y-11322619D01*
X10551719Y-11950848D02*
X10527910Y-11934181D01*
X10551719Y-11922276D02*
X10501719Y-11922276D01*
X10501719Y-11941324D01*
X10504100Y-11946086D01*
X10506481Y-11948467D01*
X10511243Y-11950848D01*
X10518386Y-11950848D01*
X10523148Y-11948467D01*
X10525529Y-11946086D01*
X10527910Y-11941324D01*
X10527910Y-11922276D01*
X10501719Y-11993705D02*
X10501719Y-11984181D01*
X10504100Y-11979419D01*
X10506481Y-11977038D01*
X10513624Y-11972276D01*
X10523148Y-11969895D01*
X10542195Y-11969895D01*
X10546957Y-11972276D01*
X10549338Y-11974657D01*
X10551719Y-11979419D01*
X10551719Y-11988943D01*
X10549338Y-11993705D01*
X10546957Y-11996086D01*
X10542195Y-11998467D01*
X10530290Y-11998467D01*
X10525529Y-11996086D01*
X10523148Y-11993705D01*
X10520767Y-11988943D01*
X10520767Y-11979419D01*
X10523148Y-11974657D01*
X10525529Y-11972276D01*
X10530290Y-11969895D01*
X10551719Y-12046086D02*
X10551719Y-12017514D01*
X10551719Y-12031800D02*
X10501719Y-12031800D01*
X10508862Y-12027038D01*
X10513624Y-12022276D01*
X10516005Y-12017514D01*
X10551719Y-12093705D02*
X10551719Y-12065133D01*
X10551719Y-12079419D02*
X10501719Y-12079419D01*
X10508862Y-12074657D01*
X10513624Y-12069895D01*
X10516005Y-12065133D01*
X9582619Y-11444048D02*
X9558810Y-11427381D01*
X9582619Y-11415476D02*
X9532619Y-11415476D01*
X9532619Y-11434524D01*
X9535000Y-11439286D01*
X9537381Y-11441667D01*
X9542143Y-11444048D01*
X9549286Y-11444048D01*
X9554048Y-11441667D01*
X9556429Y-11439286D01*
X9558810Y-11434524D01*
X9558810Y-11415476D01*
X9532619Y-11486905D02*
X9532619Y-11477381D01*
X9535000Y-11472619D01*
X9537381Y-11470238D01*
X9544524Y-11465476D01*
X9554048Y-11463095D01*
X9573095Y-11463095D01*
X9577857Y-11465476D01*
X9580238Y-11467857D01*
X9582619Y-11472619D01*
X9582619Y-11482143D01*
X9580238Y-11486905D01*
X9577857Y-11489286D01*
X9573095Y-11491667D01*
X9561190Y-11491667D01*
X9556429Y-11489286D01*
X9554048Y-11486905D01*
X9551667Y-11482143D01*
X9551667Y-11472619D01*
X9554048Y-11467857D01*
X9556429Y-11465476D01*
X9561190Y-11463095D01*
X9582619Y-11539286D02*
X9582619Y-11510714D01*
X9582619Y-11525000D02*
X9532619Y-11525000D01*
X9539762Y-11520238D01*
X9544524Y-11515476D01*
X9546905Y-11510714D01*
X9537381Y-11558333D02*
X9535000Y-11560714D01*
X9532619Y-11565476D01*
X9532619Y-11577381D01*
X9535000Y-11582143D01*
X9537381Y-11584524D01*
X9542143Y-11586905D01*
X9546905Y-11586905D01*
X9554048Y-11584524D01*
X9582619Y-11555952D01*
X9582619Y-11586905D01*
D12*
X10586333Y-8522000D02*
X10665667Y-8522000D01*
X10675000Y-8526667D01*
X10679667Y-8531333D01*
X10684333Y-8540667D01*
X10684333Y-8559333D01*
X10679667Y-8568667D01*
X10675000Y-8573333D01*
X10665667Y-8578000D01*
X10586333Y-8578000D01*
X10586333Y-8666667D02*
X10586333Y-8648000D01*
X10591000Y-8638667D01*
X10595667Y-8634000D01*
X10609667Y-8624667D01*
X10628333Y-8620000D01*
X10665667Y-8620000D01*
X10675000Y-8624667D01*
X10679667Y-8629333D01*
X10684333Y-8638667D01*
X10684333Y-8657333D01*
X10679667Y-8666667D01*
X10675000Y-8671333D01*
X10665667Y-8676000D01*
X10642333Y-8676000D01*
X10633000Y-8671333D01*
X10628333Y-8666667D01*
X10623667Y-8657333D01*
X10623667Y-8638667D01*
X10628333Y-8629333D01*
X10633000Y-8624667D01*
X10642333Y-8620000D01*
X10586333Y-8736667D02*
X10586333Y-8746000D01*
X10591000Y-8755333D01*
X10595667Y-8760000D01*
X10605000Y-8764667D01*
X10623667Y-8769333D01*
X10647000Y-8769333D01*
X10665667Y-8764667D01*
X10675000Y-8760000D01*
X10679667Y-8755333D01*
X10684333Y-8746000D01*
X10684333Y-8736667D01*
X10679667Y-8727333D01*
X10675000Y-8722667D01*
X10665667Y-8718000D01*
X10647000Y-8713333D01*
X10623667Y-8713333D01*
X10605000Y-8718000D01*
X10595667Y-8722667D01*
X10591000Y-8727333D01*
X10586333Y-8736667D01*
X10684333Y-8862667D02*
X10684333Y-8806667D01*
X10684333Y-8834667D02*
X10586333Y-8834667D01*
X10600333Y-8825333D01*
X10609667Y-8816000D01*
X10614333Y-8806667D01*
X19123929Y-9667738D02*
X19066786Y-9667738D01*
X19095357Y-9767738D02*
X19095357Y-9667738D01*
X19033452Y-9767738D02*
X19033452Y-9667738D01*
X18995357Y-9667738D01*
X18985833Y-9672500D01*
X18981071Y-9677262D01*
X18976310Y-9686786D01*
X18976310Y-9701071D01*
X18981071Y-9710595D01*
X18985833Y-9715357D01*
X18995357Y-9720119D01*
X19033452Y-9720119D01*
X18938214Y-9677262D02*
X18933452Y-9672500D01*
X18923929Y-9667738D01*
X18900119Y-9667738D01*
X18890595Y-9672500D01*
X18885833Y-9677262D01*
X18881071Y-9686786D01*
X18881071Y-9696310D01*
X18885833Y-9710595D01*
X18942976Y-9767738D01*
X18881071Y-9767738D01*
X18819167Y-9667738D02*
X18809643Y-9667738D01*
X18800119Y-9672500D01*
X18795357Y-9677262D01*
X18790595Y-9686786D01*
X18785833Y-9705833D01*
X18785833Y-9729643D01*
X18790595Y-9748690D01*
X18795357Y-9758214D01*
X18800119Y-9762976D01*
X18809643Y-9767738D01*
X18819167Y-9767738D01*
X18828690Y-9762976D01*
X18833452Y-9758214D01*
X18838214Y-9748690D01*
X18842976Y-9729643D01*
X18842976Y-9705833D01*
X18838214Y-9686786D01*
X18833452Y-9677262D01*
X18828690Y-9672500D01*
X18819167Y-9667738D01*
X18738214Y-9767738D02*
X18719167Y-9767738D01*
X18709643Y-9762976D01*
X18704881Y-9758214D01*
X18695357Y-9743929D01*
X18690595Y-9724881D01*
X18690595Y-9686786D01*
X18695357Y-9677262D01*
X18700119Y-9672500D01*
X18709643Y-9667738D01*
X18728690Y-9667738D01*
X18738214Y-9672500D01*
X18742976Y-9677262D01*
X18747738Y-9686786D01*
X18747738Y-9710595D01*
X18742976Y-9720119D01*
X18738214Y-9724881D01*
X18728690Y-9729643D01*
X18709643Y-9729643D01*
X18700119Y-9724881D01*
X18695357Y-9720119D01*
X18690595Y-9710595D01*
X8220238Y-10770952D02*
X8120238Y-10770952D01*
X8120238Y-10794762D01*
X8125000Y-10809048D01*
X8134524Y-10818571D01*
X8144048Y-10823333D01*
X8163095Y-10828095D01*
X8177381Y-10828095D01*
X8196428Y-10823333D01*
X8205952Y-10818571D01*
X8215476Y-10809048D01*
X8220238Y-10794762D01*
X8220238Y-10770952D01*
X8120238Y-10913810D02*
X8120238Y-10894762D01*
X8125000Y-10885238D01*
X8129762Y-10880476D01*
X8144048Y-10870952D01*
X8163095Y-10866190D01*
X8201190Y-10866190D01*
X8210714Y-10870952D01*
X8215476Y-10875714D01*
X8220238Y-10885238D01*
X8220238Y-10904286D01*
X8215476Y-10913810D01*
X8210714Y-10918571D01*
X8201190Y-10923333D01*
X8177381Y-10923333D01*
X8167857Y-10918571D01*
X8163095Y-10913810D01*
X8158333Y-10904286D01*
X8158333Y-10885238D01*
X8163095Y-10875714D01*
X8167857Y-10870952D01*
X8177381Y-10866190D01*
X8120238Y-10985238D02*
X8120238Y-10994762D01*
X8125000Y-11004286D01*
X8129762Y-11009048D01*
X8139286Y-11013810D01*
X8158333Y-11018571D01*
X8182143Y-11018571D01*
X8201190Y-11013810D01*
X8210714Y-11009048D01*
X8215476Y-11004286D01*
X8220238Y-10994762D01*
X8220238Y-10985238D01*
X8215476Y-10975714D01*
X8210714Y-10970952D01*
X8201190Y-10966190D01*
X8182143Y-10961429D01*
X8158333Y-10961429D01*
X8139286Y-10966190D01*
X8129762Y-10970952D01*
X8125000Y-10975714D01*
X8120238Y-10985238D01*
X8120238Y-11104286D02*
X8120238Y-11085238D01*
X8125000Y-11075714D01*
X8129762Y-11070952D01*
X8144048Y-11061429D01*
X8163095Y-11056667D01*
X8201190Y-11056667D01*
X8210714Y-11061429D01*
X8215476Y-11066190D01*
X8220238Y-11075714D01*
X8220238Y-11094762D01*
X8215476Y-11104286D01*
X8210714Y-11109048D01*
X8201190Y-11113810D01*
X8177381Y-11113810D01*
X8167857Y-11109048D01*
X8163095Y-11104286D01*
X8158333Y-11094762D01*
X8158333Y-11075714D01*
X8163095Y-11066190D01*
X8167857Y-11061429D01*
X8177381Y-11056667D01*
X11309762Y-8490238D02*
X11305000Y-8480714D01*
X11295476Y-8471190D01*
X11281190Y-8456905D01*
X11276428Y-8447381D01*
X11276428Y-8437857D01*
X11300238Y-8442619D02*
X11295476Y-8433095D01*
X11285952Y-8423571D01*
X11266905Y-8418810D01*
X11233571Y-8418810D01*
X11214524Y-8423571D01*
X11205000Y-8433095D01*
X11200238Y-8442619D01*
X11200238Y-8461667D01*
X11205000Y-8471190D01*
X11214524Y-8480714D01*
X11233571Y-8485476D01*
X11266905Y-8485476D01*
X11285952Y-8480714D01*
X11295476Y-8471190D01*
X11300238Y-8461667D01*
X11300238Y-8442619D01*
X11200238Y-8571190D02*
X11200238Y-8552143D01*
X11205000Y-8542619D01*
X11209762Y-8537857D01*
X11224048Y-8528333D01*
X11243095Y-8523571D01*
X11281190Y-8523571D01*
X11290714Y-8528333D01*
X11295476Y-8533095D01*
X11300238Y-8542619D01*
X11300238Y-8561667D01*
X11295476Y-8571190D01*
X11290714Y-8575952D01*
X11281190Y-8580714D01*
X11257381Y-8580714D01*
X11247857Y-8575952D01*
X11243095Y-8571190D01*
X11238333Y-8561667D01*
X11238333Y-8542619D01*
X11243095Y-8533095D01*
X11247857Y-8528333D01*
X11257381Y-8523571D01*
X11200238Y-8642619D02*
X11200238Y-8652143D01*
X11205000Y-8661667D01*
X11209762Y-8666429D01*
X11219286Y-8671190D01*
X11238333Y-8675952D01*
X11262143Y-8675952D01*
X11281190Y-8671190D01*
X11290714Y-8666429D01*
X11295476Y-8661667D01*
X11300238Y-8652143D01*
X11300238Y-8642619D01*
X11295476Y-8633095D01*
X11290714Y-8628333D01*
X11281190Y-8623571D01*
X11262143Y-8618810D01*
X11238333Y-8618810D01*
X11219286Y-8623571D01*
X11209762Y-8628333D01*
X11205000Y-8633095D01*
X11200238Y-8642619D01*
X11209762Y-8714048D02*
X11205000Y-8718810D01*
X11200238Y-8728333D01*
X11200238Y-8752143D01*
X11205000Y-8761667D01*
X11209762Y-8766429D01*
X11219286Y-8771190D01*
X11228809Y-8771190D01*
X11243095Y-8766429D01*
X11300238Y-8709286D01*
X11300238Y-8771190D01*
D13*
X15534852Y-11312857D02*
X15537233Y-11315238D01*
X15544376Y-11317619D01*
X15549138Y-11317619D01*
X15556281Y-11315238D01*
X15561043Y-11310476D01*
X15563424Y-11305714D01*
X15565805Y-11296190D01*
X15565805Y-11289048D01*
X15563424Y-11279524D01*
X15561043Y-11274762D01*
X15556281Y-11270000D01*
X15549138Y-11267619D01*
X15544376Y-11267619D01*
X15537233Y-11270000D01*
X15534852Y-11272381D01*
X15491995Y-11284286D02*
X15491995Y-11317619D01*
X15503900Y-11265238D02*
X15515805Y-11300952D01*
X15484852Y-11300952D01*
X15456281Y-11267619D02*
X15451519Y-11267619D01*
X15446757Y-11270000D01*
X15444376Y-11272381D01*
X15441995Y-11277143D01*
X15439614Y-11286667D01*
X15439614Y-11298571D01*
X15441995Y-11308095D01*
X15444376Y-11312857D01*
X15446757Y-11315238D01*
X15451519Y-11317619D01*
X15456281Y-11317619D01*
X15461043Y-11315238D01*
X15463424Y-11312857D01*
X15465805Y-11308095D01*
X15468186Y-11298571D01*
X15468186Y-11286667D01*
X15465805Y-11277143D01*
X15463424Y-11272381D01*
X15461043Y-11270000D01*
X15456281Y-11267619D01*
X15415805Y-11317619D02*
X15406281Y-11317619D01*
X15401519Y-11315238D01*
X15399138Y-11312857D01*
X15394376Y-11305714D01*
X15391995Y-11296190D01*
X15391995Y-11277143D01*
X15394376Y-11272381D01*
X15396757Y-11270000D01*
X15401519Y-11267619D01*
X15411043Y-11267619D01*
X15415805Y-11270000D01*
X15418186Y-11272381D01*
X15420567Y-11277143D01*
X15420567Y-11289048D01*
X15418186Y-11293809D01*
X15415805Y-11296190D01*
X15411043Y-11298571D01*
X15401519Y-11298571D01*
X15396757Y-11296190D01*
X15394376Y-11293809D01*
X15391995Y-11289048D01*
D14*
X10327381Y-11407619D02*
X10325000Y-11402857D01*
X10320238Y-11398095D01*
X10313095Y-11390952D01*
X10310714Y-11386190D01*
X10310714Y-11381428D01*
X10322619Y-11383809D02*
X10320238Y-11379048D01*
X10315476Y-11374286D01*
X10305952Y-11371905D01*
X10289286Y-11371905D01*
X10279762Y-11374286D01*
X10275000Y-11379048D01*
X10272619Y-11383809D01*
X10272619Y-11393333D01*
X10275000Y-11398095D01*
X10279762Y-11402857D01*
X10289286Y-11405238D01*
X10305952Y-11405238D01*
X10315476Y-11402857D01*
X10320238Y-11398095D01*
X10322619Y-11393333D01*
X10322619Y-11383809D01*
X10272619Y-11448095D02*
X10272619Y-11438571D01*
X10275000Y-11433809D01*
X10277381Y-11431428D01*
X10284524Y-11426667D01*
X10294048Y-11424286D01*
X10313095Y-11424286D01*
X10317857Y-11426667D01*
X10320238Y-11429048D01*
X10322619Y-11433809D01*
X10322619Y-11443333D01*
X10320238Y-11448095D01*
X10317857Y-11450476D01*
X10313095Y-11452857D01*
X10301190Y-11452857D01*
X10296429Y-11450476D01*
X10294048Y-11448095D01*
X10291667Y-11443333D01*
X10291667Y-11433809D01*
X10294048Y-11429048D01*
X10296429Y-11426667D01*
X10301190Y-11424286D01*
X10272619Y-11483809D02*
X10272619Y-11488571D01*
X10275000Y-11493333D01*
X10277381Y-11495714D01*
X10282143Y-11498095D01*
X10291667Y-11500476D01*
X10303571Y-11500476D01*
X10313095Y-11498095D01*
X10317857Y-11495714D01*
X10320238Y-11493333D01*
X10322619Y-11488571D01*
X10322619Y-11483809D01*
X10320238Y-11479048D01*
X10317857Y-11476667D01*
X10313095Y-11474286D01*
X10303571Y-11471905D01*
X10291667Y-11471905D01*
X10282143Y-11474286D01*
X10277381Y-11476667D01*
X10275000Y-11479048D01*
X10272619Y-11483809D01*
X10289286Y-11543333D02*
X10322619Y-11543333D01*
X10270238Y-11531428D02*
X10305952Y-11519524D01*
X10305952Y-11550476D01*
X9907381Y-11502619D02*
X9905000Y-11497857D01*
X9900238Y-11493095D01*
X9893095Y-11485952D01*
X9890714Y-11481190D01*
X9890714Y-11476428D01*
X9902619Y-11478809D02*
X9900238Y-11474048D01*
X9895476Y-11469286D01*
X9885952Y-11466905D01*
X9869286Y-11466905D01*
X9859762Y-11469286D01*
X9855000Y-11474048D01*
X9852619Y-11478809D01*
X9852619Y-11488333D01*
X9855000Y-11493095D01*
X9859762Y-11497857D01*
X9869286Y-11500238D01*
X9885952Y-11500238D01*
X9895476Y-11497857D01*
X9900238Y-11493095D01*
X9902619Y-11488333D01*
X9902619Y-11478809D01*
X9852619Y-11543095D02*
X9852619Y-11533571D01*
X9855000Y-11528809D01*
X9857381Y-11526428D01*
X9864524Y-11521667D01*
X9874048Y-11519286D01*
X9893095Y-11519286D01*
X9897857Y-11521667D01*
X9900238Y-11524048D01*
X9902619Y-11528809D01*
X9902619Y-11538333D01*
X9900238Y-11543095D01*
X9897857Y-11545476D01*
X9893095Y-11547857D01*
X9881190Y-11547857D01*
X9876429Y-11545476D01*
X9874048Y-11543095D01*
X9871667Y-11538333D01*
X9871667Y-11528809D01*
X9874048Y-11524048D01*
X9876429Y-11521667D01*
X9881190Y-11519286D01*
X9852619Y-11578809D02*
X9852619Y-11583571D01*
X9855000Y-11588333D01*
X9857381Y-11590714D01*
X9862143Y-11593095D01*
X9871667Y-11595476D01*
X9883571Y-11595476D01*
X9893095Y-11593095D01*
X9897857Y-11590714D01*
X9900238Y-11588333D01*
X9902619Y-11583571D01*
X9902619Y-11578809D01*
X9900238Y-11574048D01*
X9897857Y-11571667D01*
X9893095Y-11569286D01*
X9883571Y-11566905D01*
X9871667Y-11566905D01*
X9862143Y-11569286D01*
X9857381Y-11571667D01*
X9855000Y-11574048D01*
X9852619Y-11578809D01*
X9852619Y-11612143D02*
X9852619Y-11643095D01*
X9871667Y-11626428D01*
X9871667Y-11633571D01*
X9874048Y-11638333D01*
X9876429Y-11640714D01*
X9881190Y-11643095D01*
X9893095Y-11643095D01*
X9897857Y-11640714D01*
X9900238Y-11638333D01*
X9902619Y-11633571D01*
X9902619Y-11619286D01*
X9900238Y-11614524D01*
X9897857Y-11612143D01*
D12*
X7923571Y-12772857D02*
X7956905Y-12772857D01*
X7956905Y-12825238D02*
X7956905Y-12725238D01*
X7909286Y-12725238D01*
X7828333Y-12725238D02*
X7847381Y-12725238D01*
X7856905Y-12730000D01*
X7861667Y-12734762D01*
X7871190Y-12749048D01*
X7875952Y-12768095D01*
X7875952Y-12806190D01*
X7871190Y-12815714D01*
X7866428Y-12820476D01*
X7856905Y-12825238D01*
X7837857Y-12825238D01*
X7828333Y-12820476D01*
X7823571Y-12815714D01*
X7818809Y-12806190D01*
X7818809Y-12782381D01*
X7823571Y-12772857D01*
X7828333Y-12768095D01*
X7837857Y-12763333D01*
X7856905Y-12763333D01*
X7866428Y-12768095D01*
X7871190Y-12772857D01*
X7875952Y-12782381D01*
X7756905Y-12725238D02*
X7747381Y-12725238D01*
X7737857Y-12730000D01*
X7733095Y-12734762D01*
X7728333Y-12744286D01*
X7723571Y-12763333D01*
X7723571Y-12787143D01*
X7728333Y-12806190D01*
X7733095Y-12815714D01*
X7737857Y-12820476D01*
X7747381Y-12825238D01*
X7756905Y-12825238D01*
X7766428Y-12820476D01*
X7771190Y-12815714D01*
X7775952Y-12806190D01*
X7780714Y-12787143D01*
X7780714Y-12763333D01*
X7775952Y-12744286D01*
X7771190Y-12734762D01*
X7766428Y-12730000D01*
X7756905Y-12725238D01*
X7685476Y-12734762D02*
X7680714Y-12730000D01*
X7671190Y-12725238D01*
X7647381Y-12725238D01*
X7637857Y-12730000D01*
X7633095Y-12734762D01*
X7628333Y-12744286D01*
X7628333Y-12753809D01*
X7633095Y-12768095D01*
X7690238Y-12825238D01*
X7628333Y-12825238D01*
X7922571Y-6245857D02*
X7955905Y-6245857D01*
X7955905Y-6298238D02*
X7955905Y-6198238D01*
X7908286Y-6198238D01*
X7827333Y-6198238D02*
X7846381Y-6198238D01*
X7855905Y-6203000D01*
X7860667Y-6207762D01*
X7870190Y-6222048D01*
X7874952Y-6241095D01*
X7874952Y-6279190D01*
X7870190Y-6288714D01*
X7865428Y-6293476D01*
X7855905Y-6298238D01*
X7836857Y-6298238D01*
X7827333Y-6293476D01*
X7822571Y-6288714D01*
X7817809Y-6279190D01*
X7817809Y-6255381D01*
X7822571Y-6245857D01*
X7827333Y-6241095D01*
X7836857Y-6236333D01*
X7855905Y-6236333D01*
X7865428Y-6241095D01*
X7870190Y-6245857D01*
X7874952Y-6255381D01*
X7755905Y-6198238D02*
X7746381Y-6198238D01*
X7736857Y-6203000D01*
X7732095Y-6207762D01*
X7727333Y-6217286D01*
X7722571Y-6236333D01*
X7722571Y-6260143D01*
X7727333Y-6279190D01*
X7732095Y-6288714D01*
X7736857Y-6293476D01*
X7746381Y-6298238D01*
X7755905Y-6298238D01*
X7765428Y-6293476D01*
X7770190Y-6288714D01*
X7774952Y-6279190D01*
X7779714Y-6260143D01*
X7779714Y-6236333D01*
X7774952Y-6217286D01*
X7770190Y-6207762D01*
X7765428Y-6203000D01*
X7755905Y-6198238D01*
X7627333Y-6298238D02*
X7684476Y-6298238D01*
X7655905Y-6298238D02*
X7655905Y-6198238D01*
X7665428Y-6212524D01*
X7674952Y-6222048D01*
X7684476Y-6226809D01*
D13*
X8502952Y-9168357D02*
X8505333Y-9170738D01*
X8512476Y-9173119D01*
X8517238Y-9173119D01*
X8524381Y-9170738D01*
X8529143Y-9165976D01*
X8531524Y-9161214D01*
X8533905Y-9151690D01*
X8533905Y-9144548D01*
X8531524Y-9135024D01*
X8529143Y-9130262D01*
X8524381Y-9125500D01*
X8517238Y-9123119D01*
X8512476Y-9123119D01*
X8505333Y-9125500D01*
X8502952Y-9127881D01*
X8460095Y-9123119D02*
X8469619Y-9123119D01*
X8474381Y-9125500D01*
X8476762Y-9127881D01*
X8481524Y-9135024D01*
X8483905Y-9144548D01*
X8483905Y-9163595D01*
X8481524Y-9168357D01*
X8479143Y-9170738D01*
X8474381Y-9173119D01*
X8464857Y-9173119D01*
X8460095Y-9170738D01*
X8457714Y-9168357D01*
X8455333Y-9163595D01*
X8455333Y-9151690D01*
X8457714Y-9146928D01*
X8460095Y-9144548D01*
X8464857Y-9142167D01*
X8474381Y-9142167D01*
X8479143Y-9144548D01*
X8481524Y-9146928D01*
X8483905Y-9151690D01*
X8436286Y-9127881D02*
X8433905Y-9125500D01*
X8429143Y-9123119D01*
X8417238Y-9123119D01*
X8412476Y-9125500D01*
X8410095Y-9127881D01*
X8407714Y-9132643D01*
X8407714Y-9137405D01*
X8410095Y-9144548D01*
X8438667Y-9173119D01*
X8407714Y-9173119D01*
X8376762Y-9123119D02*
X8372000Y-9123119D01*
X8367238Y-9125500D01*
X8364857Y-9127881D01*
X8362476Y-9132643D01*
X8360095Y-9142167D01*
X8360095Y-9154071D01*
X8362476Y-9163595D01*
X8364857Y-9168357D01*
X8367238Y-9170738D01*
X8372000Y-9173119D01*
X8376762Y-9173119D01*
X8381524Y-9170738D01*
X8383905Y-9168357D01*
X8386286Y-9163595D01*
X8388667Y-9154071D01*
X8388667Y-9142167D01*
X8386286Y-9132643D01*
X8383905Y-9127881D01*
X8381524Y-9125500D01*
X8376762Y-9123119D01*
X8502952Y-9397857D02*
X8505333Y-9400238D01*
X8512476Y-9402619D01*
X8517238Y-9402619D01*
X8524381Y-9400238D01*
X8529143Y-9395476D01*
X8531524Y-9390714D01*
X8533905Y-9381190D01*
X8533905Y-9374048D01*
X8531524Y-9364524D01*
X8529143Y-9359762D01*
X8524381Y-9355000D01*
X8517238Y-9352619D01*
X8512476Y-9352619D01*
X8505333Y-9355000D01*
X8502952Y-9357381D01*
X8460095Y-9352619D02*
X8469619Y-9352619D01*
X8474381Y-9355000D01*
X8476762Y-9357381D01*
X8481524Y-9364524D01*
X8483905Y-9374048D01*
X8483905Y-9393095D01*
X8481524Y-9397857D01*
X8479143Y-9400238D01*
X8474381Y-9402619D01*
X8464857Y-9402619D01*
X8460095Y-9400238D01*
X8457714Y-9397857D01*
X8455333Y-9393095D01*
X8455333Y-9381190D01*
X8457714Y-9376429D01*
X8460095Y-9374048D01*
X8464857Y-9371667D01*
X8474381Y-9371667D01*
X8479143Y-9374048D01*
X8481524Y-9376429D01*
X8483905Y-9381190D01*
X8407714Y-9402619D02*
X8436286Y-9402619D01*
X8422000Y-9402619D02*
X8422000Y-9352619D01*
X8426762Y-9359762D01*
X8431524Y-9364524D01*
X8436286Y-9366905D01*
X8383905Y-9402619D02*
X8374381Y-9402619D01*
X8369619Y-9400238D01*
X8367238Y-9397857D01*
X8362476Y-9390714D01*
X8360095Y-9381190D01*
X8360095Y-9362143D01*
X8362476Y-9357381D01*
X8364857Y-9355000D01*
X8369619Y-9352619D01*
X8379143Y-9352619D01*
X8383905Y-9355000D01*
X8386286Y-9357381D01*
X8388667Y-9362143D01*
X8388667Y-9374048D01*
X8386286Y-9378810D01*
X8383905Y-9381190D01*
X8379143Y-9383571D01*
X8369619Y-9383571D01*
X8364857Y-9381190D01*
X8362476Y-9378810D01*
X8360095Y-9374048D01*
D15*
X8539524Y-8628571D02*
X8543333Y-8632381D01*
X8554762Y-8636190D01*
X8562381Y-8636190D01*
X8573810Y-8632381D01*
X8581429Y-8624762D01*
X8585238Y-8617143D01*
X8589048Y-8601905D01*
X8589048Y-8590476D01*
X8585238Y-8575238D01*
X8581429Y-8567619D01*
X8573810Y-8560000D01*
X8562381Y-8556190D01*
X8554762Y-8556190D01*
X8543333Y-8560000D01*
X8539524Y-8563810D01*
X8470952Y-8556190D02*
X8486190Y-8556190D01*
X8493810Y-8560000D01*
X8497619Y-8563810D01*
X8505238Y-8575238D01*
X8509048Y-8590476D01*
X8509048Y-8620952D01*
X8505238Y-8628571D01*
X8501429Y-8632381D01*
X8493810Y-8636190D01*
X8478571Y-8636190D01*
X8470952Y-8632381D01*
X8467143Y-8628571D01*
X8463333Y-8620952D01*
X8463333Y-8601905D01*
X8467143Y-8594286D01*
X8470952Y-8590476D01*
X8478571Y-8586667D01*
X8493810Y-8586667D01*
X8501429Y-8590476D01*
X8505238Y-8594286D01*
X8509048Y-8601905D01*
X8387143Y-8636190D02*
X8432857Y-8636190D01*
X8410000Y-8636190D02*
X8410000Y-8556190D01*
X8417619Y-8567619D01*
X8425238Y-8575238D01*
X8432857Y-8579048D01*
X8341428Y-8590476D02*
X8349048Y-8586667D01*
X8352857Y-8582857D01*
X8356667Y-8575238D01*
X8356667Y-8571429D01*
X8352857Y-8563810D01*
X8349048Y-8560000D01*
X8341428Y-8556190D01*
X8326190Y-8556190D01*
X8318571Y-8560000D01*
X8314762Y-8563810D01*
X8310952Y-8571429D01*
X8310952Y-8575238D01*
X8314762Y-8582857D01*
X8318571Y-8586667D01*
X8326190Y-8590476D01*
X8341428Y-8590476D01*
X8349048Y-8594286D01*
X8352857Y-8598095D01*
X8356667Y-8605714D01*
X8356667Y-8620952D01*
X8352857Y-8628571D01*
X8349048Y-8632381D01*
X8341428Y-8636190D01*
X8326190Y-8636190D01*
X8318571Y-8632381D01*
X8314762Y-8628571D01*
X8310952Y-8620952D01*
X8310952Y-8605714D01*
X8314762Y-8598095D01*
X8318571Y-8594286D01*
X8326190Y-8590476D01*
X8539524Y-8915571D02*
X8543333Y-8919381D01*
X8554762Y-8923190D01*
X8562381Y-8923190D01*
X8573810Y-8919381D01*
X8581429Y-8911762D01*
X8585238Y-8904143D01*
X8589048Y-8888905D01*
X8589048Y-8877476D01*
X8585238Y-8862238D01*
X8581429Y-8854619D01*
X8573810Y-8847000D01*
X8562381Y-8843190D01*
X8554762Y-8843190D01*
X8543333Y-8847000D01*
X8539524Y-8850810D01*
X8470952Y-8843190D02*
X8486190Y-8843190D01*
X8493810Y-8847000D01*
X8497619Y-8850810D01*
X8505238Y-8862238D01*
X8509048Y-8877476D01*
X8509048Y-8907952D01*
X8505238Y-8915571D01*
X8501429Y-8919381D01*
X8493810Y-8923190D01*
X8478571Y-8923190D01*
X8470952Y-8919381D01*
X8467143Y-8915571D01*
X8463333Y-8907952D01*
X8463333Y-8888905D01*
X8467143Y-8881286D01*
X8470952Y-8877476D01*
X8478571Y-8873667D01*
X8493810Y-8873667D01*
X8501429Y-8877476D01*
X8505238Y-8881286D01*
X8509048Y-8888905D01*
X8387143Y-8923190D02*
X8432857Y-8923190D01*
X8410000Y-8923190D02*
X8410000Y-8843190D01*
X8417619Y-8854619D01*
X8425238Y-8862238D01*
X8432857Y-8866048D01*
X8360476Y-8843190D02*
X8307143Y-8843190D01*
X8341428Y-8923190D01*
D12*
X11566333Y-9727000D02*
X11645667Y-9727000D01*
X11655000Y-9731667D01*
X11659667Y-9736333D01*
X11664333Y-9745667D01*
X11664333Y-9764333D01*
X11659667Y-9773667D01*
X11655000Y-9778333D01*
X11645667Y-9783000D01*
X11566333Y-9783000D01*
X11566333Y-9871667D02*
X11566333Y-9853000D01*
X11571000Y-9843667D01*
X11575667Y-9839000D01*
X11589667Y-9829667D01*
X11608333Y-9825000D01*
X11645667Y-9825000D01*
X11655000Y-9829667D01*
X11659667Y-9834333D01*
X11664333Y-9843667D01*
X11664333Y-9862333D01*
X11659667Y-9871667D01*
X11655000Y-9876333D01*
X11645667Y-9881000D01*
X11622333Y-9881000D01*
X11613000Y-9876333D01*
X11608333Y-9871667D01*
X11603667Y-9862333D01*
X11603667Y-9843667D01*
X11608333Y-9834333D01*
X11613000Y-9829667D01*
X11622333Y-9825000D01*
X11566333Y-9941667D02*
X11566333Y-9951000D01*
X11571000Y-9960333D01*
X11575667Y-9965000D01*
X11585000Y-9969667D01*
X11603667Y-9974333D01*
X11627000Y-9974333D01*
X11645667Y-9969667D01*
X11655000Y-9965000D01*
X11659667Y-9960333D01*
X11664333Y-9951000D01*
X11664333Y-9941667D01*
X11659667Y-9932333D01*
X11655000Y-9927667D01*
X11645667Y-9923000D01*
X11627000Y-9918333D01*
X11603667Y-9918333D01*
X11585000Y-9923000D01*
X11575667Y-9927667D01*
X11571000Y-9932333D01*
X11566333Y-9941667D01*
X11575667Y-10011667D02*
X11571000Y-10016333D01*
X11566333Y-10025667D01*
X11566333Y-10049000D01*
X11571000Y-10058333D01*
X11575667Y-10063000D01*
X11585000Y-10067667D01*
X11594333Y-10067667D01*
X11608333Y-10063000D01*
X11664333Y-10007000D01*
X11664333Y-10067667D01*
X18814329Y-10636838D02*
X18814329Y-10717790D01*
X18809567Y-10727314D01*
X18804805Y-10732076D01*
X18795281Y-10736838D01*
X18776233Y-10736838D01*
X18766710Y-10732076D01*
X18761948Y-10727314D01*
X18757186Y-10717790D01*
X18757186Y-10636838D01*
X18714329Y-10646362D02*
X18709567Y-10641600D01*
X18700043Y-10636838D01*
X18676233Y-10636838D01*
X18666710Y-10641600D01*
X18661948Y-10646362D01*
X18657186Y-10655886D01*
X18657186Y-10665410D01*
X18661948Y-10679695D01*
X18719090Y-10736838D01*
X18657186Y-10736838D01*
X18595281Y-10636838D02*
X18585757Y-10636838D01*
X18576233Y-10641600D01*
X18571471Y-10646362D01*
X18566710Y-10655886D01*
X18561948Y-10674933D01*
X18561948Y-10698743D01*
X18566710Y-10717790D01*
X18571471Y-10727314D01*
X18576233Y-10732076D01*
X18585757Y-10736838D01*
X18595281Y-10736838D01*
X18604805Y-10732076D01*
X18609567Y-10727314D01*
X18614329Y-10717790D01*
X18619090Y-10698743D01*
X18619090Y-10674933D01*
X18614329Y-10655886D01*
X18609567Y-10646362D01*
X18604805Y-10641600D01*
X18595281Y-10636838D01*
X18523852Y-10646362D02*
X18519090Y-10641600D01*
X18509567Y-10636838D01*
X18485757Y-10636838D01*
X18476233Y-10641600D01*
X18471471Y-10646362D01*
X18466710Y-10655886D01*
X18466710Y-10665410D01*
X18471471Y-10679695D01*
X18528614Y-10736838D01*
X18466710Y-10736838D01*
D13*
X15534852Y-10858257D02*
X15537233Y-10860638D01*
X15544376Y-10863019D01*
X15549138Y-10863019D01*
X15556281Y-10860638D01*
X15561043Y-10855876D01*
X15563424Y-10851114D01*
X15565805Y-10841590D01*
X15565805Y-10834448D01*
X15563424Y-10824924D01*
X15561043Y-10820162D01*
X15556281Y-10815400D01*
X15549138Y-10813019D01*
X15544376Y-10813019D01*
X15537233Y-10815400D01*
X15534852Y-10817781D01*
X15491995Y-10829686D02*
X15491995Y-10863019D01*
X15503900Y-10810638D02*
X15515805Y-10846352D01*
X15484852Y-10846352D01*
X15456281Y-10813019D02*
X15451519Y-10813019D01*
X15446757Y-10815400D01*
X15444376Y-10817781D01*
X15441995Y-10822543D01*
X15439614Y-10832067D01*
X15439614Y-10843971D01*
X15441995Y-10853495D01*
X15444376Y-10858257D01*
X15446757Y-10860638D01*
X15451519Y-10863019D01*
X15456281Y-10863019D01*
X15461043Y-10860638D01*
X15463424Y-10858257D01*
X15465805Y-10853495D01*
X15468186Y-10843971D01*
X15468186Y-10832067D01*
X15465805Y-10822543D01*
X15463424Y-10817781D01*
X15461043Y-10815400D01*
X15456281Y-10813019D01*
X15422948Y-10813019D02*
X15389614Y-10813019D01*
X15411043Y-10863019D01*
X13797857Y-11939048D02*
X13800238Y-11936667D01*
X13802619Y-11929524D01*
X13802619Y-11924762D01*
X13800238Y-11917619D01*
X13795476Y-11912857D01*
X13790714Y-11910476D01*
X13781190Y-11908095D01*
X13774048Y-11908095D01*
X13764524Y-11910476D01*
X13759762Y-11912857D01*
X13755000Y-11917619D01*
X13752619Y-11924762D01*
X13752619Y-11929524D01*
X13755000Y-11936667D01*
X13757381Y-11939048D01*
X13752619Y-11981905D02*
X13752619Y-11972381D01*
X13755000Y-11967619D01*
X13757381Y-11965238D01*
X13764524Y-11960476D01*
X13774048Y-11958095D01*
X13793095Y-11958095D01*
X13797857Y-11960476D01*
X13800238Y-11962857D01*
X13802619Y-11967619D01*
X13802619Y-11977143D01*
X13800238Y-11981905D01*
X13797857Y-11984286D01*
X13793095Y-11986667D01*
X13781190Y-11986667D01*
X13776428Y-11984286D01*
X13774048Y-11981905D01*
X13771667Y-11977143D01*
X13771667Y-11967619D01*
X13774048Y-11962857D01*
X13776428Y-11960476D01*
X13781190Y-11958095D01*
X13802619Y-12034286D02*
X13802619Y-12005714D01*
X13802619Y-12020000D02*
X13752619Y-12020000D01*
X13759762Y-12015238D01*
X13764524Y-12010476D01*
X13766905Y-12005714D01*
X13757381Y-12053333D02*
X13755000Y-12055714D01*
X13752619Y-12060476D01*
X13752619Y-12072381D01*
X13755000Y-12077143D01*
X13757381Y-12079524D01*
X13762143Y-12081905D01*
X13766905Y-12081905D01*
X13774048Y-12079524D01*
X13802619Y-12050952D01*
X13802619Y-12081905D01*
X11237857Y-9989048D02*
X11240238Y-9986667D01*
X11242619Y-9979524D01*
X11242619Y-9974762D01*
X11240238Y-9967619D01*
X11235476Y-9962857D01*
X11230714Y-9960476D01*
X11221190Y-9958095D01*
X11214048Y-9958095D01*
X11204524Y-9960476D01*
X11199762Y-9962857D01*
X11195000Y-9967619D01*
X11192619Y-9974762D01*
X11192619Y-9979524D01*
X11195000Y-9986667D01*
X11197381Y-9989048D01*
X11192619Y-10031905D02*
X11192619Y-10022381D01*
X11195000Y-10017619D01*
X11197381Y-10015238D01*
X11204524Y-10010476D01*
X11214048Y-10008095D01*
X11233095Y-10008095D01*
X11237857Y-10010476D01*
X11240238Y-10012857D01*
X11242619Y-10017619D01*
X11242619Y-10027143D01*
X11240238Y-10031905D01*
X11237857Y-10034286D01*
X11233095Y-10036667D01*
X11221190Y-10036667D01*
X11216428Y-10034286D01*
X11214048Y-10031905D01*
X11211667Y-10027143D01*
X11211667Y-10017619D01*
X11214048Y-10012857D01*
X11216428Y-10010476D01*
X11221190Y-10008095D01*
X11242619Y-10084286D02*
X11242619Y-10055714D01*
X11242619Y-10070000D02*
X11192619Y-10070000D01*
X11199762Y-10065238D01*
X11204524Y-10060476D01*
X11206905Y-10055714D01*
X11242619Y-10131905D02*
X11242619Y-10103333D01*
X11242619Y-10117619D02*
X11192619Y-10117619D01*
X11199762Y-10112857D01*
X11204524Y-10108095D01*
X11206905Y-10103333D01*
D12*
X11309762Y-6640238D02*
X11305000Y-6630714D01*
X11295476Y-6621190D01*
X11281190Y-6606905D01*
X11276428Y-6597381D01*
X11276428Y-6587857D01*
X11300238Y-6592619D02*
X11295476Y-6583095D01*
X11285952Y-6573571D01*
X11266905Y-6568809D01*
X11233571Y-6568809D01*
X11214524Y-6573571D01*
X11205000Y-6583095D01*
X11200238Y-6592619D01*
X11200238Y-6611667D01*
X11205000Y-6621190D01*
X11214524Y-6630714D01*
X11233571Y-6635476D01*
X11266905Y-6635476D01*
X11285952Y-6630714D01*
X11295476Y-6621190D01*
X11300238Y-6611667D01*
X11300238Y-6592619D01*
X11200238Y-6721190D02*
X11200238Y-6702143D01*
X11205000Y-6692619D01*
X11209762Y-6687857D01*
X11224048Y-6678333D01*
X11243095Y-6673571D01*
X11281190Y-6673571D01*
X11290714Y-6678333D01*
X11295476Y-6683095D01*
X11300238Y-6692619D01*
X11300238Y-6711667D01*
X11295476Y-6721190D01*
X11290714Y-6725952D01*
X11281190Y-6730714D01*
X11257381Y-6730714D01*
X11247857Y-6725952D01*
X11243095Y-6721190D01*
X11238333Y-6711667D01*
X11238333Y-6692619D01*
X11243095Y-6683095D01*
X11247857Y-6678333D01*
X11257381Y-6673571D01*
X11200238Y-6792619D02*
X11200238Y-6802143D01*
X11205000Y-6811667D01*
X11209762Y-6816428D01*
X11219286Y-6821190D01*
X11238333Y-6825952D01*
X11262143Y-6825952D01*
X11281190Y-6821190D01*
X11290714Y-6816428D01*
X11295476Y-6811667D01*
X11300238Y-6802143D01*
X11300238Y-6792619D01*
X11295476Y-6783095D01*
X11290714Y-6778333D01*
X11281190Y-6773571D01*
X11262143Y-6768809D01*
X11238333Y-6768809D01*
X11219286Y-6773571D01*
X11209762Y-6778333D01*
X11205000Y-6783095D01*
X11200238Y-6792619D01*
X11300238Y-6921190D02*
X11300238Y-6864048D01*
X11300238Y-6892619D02*
X11200238Y-6892619D01*
X11214524Y-6883095D01*
X11224048Y-6873571D01*
X11228809Y-6864048D01*
X14301333Y-11712000D02*
X14380667Y-11712000D01*
X14390000Y-11716667D01*
X14394667Y-11721333D01*
X14399333Y-11730667D01*
X14399333Y-11749333D01*
X14394667Y-11758667D01*
X14390000Y-11763333D01*
X14380667Y-11768000D01*
X14301333Y-11768000D01*
X14301333Y-11856667D02*
X14301333Y-11838000D01*
X14306000Y-11828667D01*
X14310667Y-11824000D01*
X14324667Y-11814667D01*
X14343333Y-11810000D01*
X14380667Y-11810000D01*
X14390000Y-11814667D01*
X14394667Y-11819333D01*
X14399333Y-11828667D01*
X14399333Y-11847333D01*
X14394667Y-11856667D01*
X14390000Y-11861333D01*
X14380667Y-11866000D01*
X14357333Y-11866000D01*
X14348000Y-11861333D01*
X14343333Y-11856667D01*
X14338667Y-11847333D01*
X14338667Y-11828667D01*
X14343333Y-11819333D01*
X14348000Y-11814667D01*
X14357333Y-11810000D01*
X14301333Y-11926667D02*
X14301333Y-11936000D01*
X14306000Y-11945333D01*
X14310667Y-11950000D01*
X14320000Y-11954667D01*
X14338667Y-11959333D01*
X14362000Y-11959333D01*
X14380667Y-11954667D01*
X14390000Y-11950000D01*
X14394667Y-11945333D01*
X14399333Y-11936000D01*
X14399333Y-11926667D01*
X14394667Y-11917333D01*
X14390000Y-11912667D01*
X14380667Y-11908000D01*
X14362000Y-11903333D01*
X14338667Y-11903333D01*
X14320000Y-11908000D01*
X14310667Y-11912667D01*
X14306000Y-11917333D01*
X14301333Y-11926667D01*
X14301333Y-11992000D02*
X14301333Y-12052667D01*
X14338667Y-12020000D01*
X14338667Y-12034000D01*
X14343333Y-12043333D01*
X14348000Y-12048000D01*
X14357333Y-12052667D01*
X14380667Y-12052667D01*
X14390000Y-12048000D01*
X14394667Y-12043333D01*
X14399333Y-12034000D01*
X14399333Y-12006000D01*
X14394667Y-11996667D01*
X14390000Y-11992000D01*
D13*
X10767619Y-10039048D02*
X10743810Y-10022381D01*
X10767619Y-10010476D02*
X10717619Y-10010476D01*
X10717619Y-10029524D01*
X10720000Y-10034286D01*
X10722381Y-10036667D01*
X10727143Y-10039048D01*
X10734286Y-10039048D01*
X10739048Y-10036667D01*
X10741429Y-10034286D01*
X10743810Y-10029524D01*
X10743810Y-10010476D01*
X10717619Y-10081905D02*
X10717619Y-10072381D01*
X10720000Y-10067619D01*
X10722381Y-10065238D01*
X10729524Y-10060476D01*
X10739048Y-10058095D01*
X10758095Y-10058095D01*
X10762857Y-10060476D01*
X10765238Y-10062857D01*
X10767619Y-10067619D01*
X10767619Y-10077143D01*
X10765238Y-10081905D01*
X10762857Y-10084286D01*
X10758095Y-10086667D01*
X10746190Y-10086667D01*
X10741429Y-10084286D01*
X10739048Y-10081905D01*
X10736667Y-10077143D01*
X10736667Y-10067619D01*
X10739048Y-10062857D01*
X10741429Y-10060476D01*
X10746190Y-10058095D01*
X10767619Y-10134286D02*
X10767619Y-10105714D01*
X10767619Y-10120000D02*
X10717619Y-10120000D01*
X10724762Y-10115238D01*
X10729524Y-10110476D01*
X10731905Y-10105714D01*
X10717619Y-10165238D02*
X10717619Y-10170000D01*
X10720000Y-10174762D01*
X10722381Y-10177143D01*
X10727143Y-10179524D01*
X10736667Y-10181905D01*
X10748571Y-10181905D01*
X10758095Y-10179524D01*
X10762857Y-10177143D01*
X10765238Y-10174762D01*
X10767619Y-10170000D01*
X10767619Y-10165238D01*
X10765238Y-10160476D01*
X10762857Y-10158095D01*
X10758095Y-10155714D01*
X10748571Y-10153333D01*
X10736667Y-10153333D01*
X10727143Y-10155714D01*
X10722381Y-10158095D01*
X10720000Y-10160476D01*
X10717619Y-10165238D01*
X10695952Y-10492619D02*
X10712619Y-10468810D01*
X10724524Y-10492619D02*
X10724524Y-10442619D01*
X10705476Y-10442619D01*
X10700714Y-10445000D01*
X10698333Y-10447381D01*
X10695952Y-10452143D01*
X10695952Y-10459286D01*
X10698333Y-10464048D01*
X10700714Y-10466429D01*
X10705476Y-10468810D01*
X10724524Y-10468810D01*
X10653095Y-10442619D02*
X10662619Y-10442619D01*
X10667381Y-10445000D01*
X10669762Y-10447381D01*
X10674524Y-10454524D01*
X10676905Y-10464048D01*
X10676905Y-10483095D01*
X10674524Y-10487857D01*
X10672143Y-10490238D01*
X10667381Y-10492619D01*
X10657857Y-10492619D01*
X10653095Y-10490238D01*
X10650714Y-10487857D01*
X10648333Y-10483095D01*
X10648333Y-10471190D01*
X10650714Y-10466429D01*
X10653095Y-10464048D01*
X10657857Y-10461667D01*
X10667381Y-10461667D01*
X10672143Y-10464048D01*
X10674524Y-10466429D01*
X10676905Y-10471190D01*
X10617381Y-10442619D02*
X10612619Y-10442619D01*
X10607857Y-10445000D01*
X10605476Y-10447381D01*
X10603095Y-10452143D01*
X10600714Y-10461667D01*
X10600714Y-10473571D01*
X10603095Y-10483095D01*
X10605476Y-10487857D01*
X10607857Y-10490238D01*
X10612619Y-10492619D01*
X10617381Y-10492619D01*
X10622143Y-10490238D01*
X10624524Y-10487857D01*
X10626905Y-10483095D01*
X10629286Y-10473571D01*
X10629286Y-10461667D01*
X10626905Y-10452143D01*
X10624524Y-10447381D01*
X10622143Y-10445000D01*
X10617381Y-10442619D01*
X10576905Y-10492619D02*
X10567381Y-10492619D01*
X10562619Y-10490238D01*
X10560238Y-10487857D01*
X10555476Y-10480714D01*
X10553095Y-10471190D01*
X10553095Y-10452143D01*
X10555476Y-10447381D01*
X10557857Y-10445000D01*
X10562619Y-10442619D01*
X10572143Y-10442619D01*
X10576905Y-10445000D01*
X10579286Y-10447381D01*
X10581667Y-10452143D01*
X10581667Y-10464048D01*
X10579286Y-10468810D01*
X10576905Y-10471190D01*
X10572143Y-10473571D01*
X10562619Y-10473571D01*
X10557857Y-10471190D01*
X10555476Y-10468810D01*
X10553095Y-10464048D01*
X11062619Y-8826548D02*
X11038810Y-8809881D01*
X11062619Y-8797976D02*
X11012619Y-8797976D01*
X11012619Y-8817024D01*
X11015000Y-8821786D01*
X11017381Y-8824167D01*
X11022143Y-8826548D01*
X11029286Y-8826548D01*
X11034048Y-8824167D01*
X11036429Y-8821786D01*
X11038810Y-8817024D01*
X11038810Y-8797976D01*
X11012619Y-8869405D02*
X11012619Y-8859881D01*
X11015000Y-8855119D01*
X11017381Y-8852738D01*
X11024524Y-8847976D01*
X11034048Y-8845595D01*
X11053095Y-8845595D01*
X11057857Y-8847976D01*
X11060238Y-8850357D01*
X11062619Y-8855119D01*
X11062619Y-8864643D01*
X11060238Y-8869405D01*
X11057857Y-8871786D01*
X11053095Y-8874167D01*
X11041190Y-8874167D01*
X11036429Y-8871786D01*
X11034048Y-8869405D01*
X11031667Y-8864643D01*
X11031667Y-8855119D01*
X11034048Y-8850357D01*
X11036429Y-8847976D01*
X11041190Y-8845595D01*
X11012619Y-8905119D02*
X11012619Y-8909881D01*
X11015000Y-8914643D01*
X11017381Y-8917024D01*
X11022143Y-8919405D01*
X11031667Y-8921786D01*
X11043571Y-8921786D01*
X11053095Y-8919405D01*
X11057857Y-8917024D01*
X11060238Y-8914643D01*
X11062619Y-8909881D01*
X11062619Y-8905119D01*
X11060238Y-8900357D01*
X11057857Y-8897976D01*
X11053095Y-8895595D01*
X11043571Y-8893214D01*
X11031667Y-8893214D01*
X11022143Y-8895595D01*
X11017381Y-8897976D01*
X11015000Y-8900357D01*
X11012619Y-8905119D01*
X11062619Y-8969405D02*
X11062619Y-8940833D01*
X11062619Y-8955119D02*
X11012619Y-8955119D01*
X11019762Y-8950357D01*
X11024524Y-8945595D01*
X11026905Y-8940833D01*
X14771052Y-11371019D02*
X14787719Y-11347209D01*
X14799624Y-11371019D02*
X14799624Y-11321019D01*
X14780576Y-11321019D01*
X14775814Y-11323400D01*
X14773433Y-11325781D01*
X14771052Y-11330543D01*
X14771052Y-11337686D01*
X14773433Y-11342448D01*
X14775814Y-11344828D01*
X14780576Y-11347209D01*
X14799624Y-11347209D01*
X14728195Y-11337686D02*
X14728195Y-11371019D01*
X14740100Y-11318638D02*
X14752005Y-11354352D01*
X14721052Y-11354352D01*
X14692481Y-11321019D02*
X14687719Y-11321019D01*
X14682957Y-11323400D01*
X14680576Y-11325781D01*
X14678195Y-11330543D01*
X14675814Y-11340067D01*
X14675814Y-11351971D01*
X14678195Y-11361495D01*
X14680576Y-11366257D01*
X14682957Y-11368638D01*
X14687719Y-11371019D01*
X14692481Y-11371019D01*
X14697243Y-11368638D01*
X14699624Y-11366257D01*
X14702005Y-11361495D01*
X14704386Y-11351971D01*
X14704386Y-11340067D01*
X14702005Y-11330543D01*
X14699624Y-11325781D01*
X14697243Y-11323400D01*
X14692481Y-11321019D01*
X14652005Y-11371019D02*
X14642481Y-11371019D01*
X14637719Y-11368638D01*
X14635338Y-11366257D01*
X14630576Y-11359114D01*
X14628195Y-11349590D01*
X14628195Y-11330543D01*
X14630576Y-11325781D01*
X14632957Y-11323400D01*
X14637719Y-11321019D01*
X14647243Y-11321019D01*
X14652005Y-11323400D01*
X14654386Y-11325781D01*
X14656767Y-11330543D01*
X14656767Y-11342448D01*
X14654386Y-11347209D01*
X14652005Y-11349590D01*
X14647243Y-11351971D01*
X14637719Y-11351971D01*
X14632957Y-11349590D01*
X14630576Y-11347209D01*
X14628195Y-11342448D01*
X14771052Y-11117019D02*
X14787719Y-11093210D01*
X14799624Y-11117019D02*
X14799624Y-11067019D01*
X14780576Y-11067019D01*
X14775814Y-11069400D01*
X14773433Y-11071781D01*
X14771052Y-11076543D01*
X14771052Y-11083686D01*
X14773433Y-11088448D01*
X14775814Y-11090829D01*
X14780576Y-11093210D01*
X14799624Y-11093210D01*
X14728195Y-11083686D02*
X14728195Y-11117019D01*
X14740100Y-11064638D02*
X14752005Y-11100352D01*
X14721052Y-11100352D01*
X14692481Y-11067019D02*
X14687719Y-11067019D01*
X14682957Y-11069400D01*
X14680576Y-11071781D01*
X14678195Y-11076543D01*
X14675814Y-11086067D01*
X14675814Y-11097971D01*
X14678195Y-11107495D01*
X14680576Y-11112257D01*
X14682957Y-11114638D01*
X14687719Y-11117019D01*
X14692481Y-11117019D01*
X14697243Y-11114638D01*
X14699624Y-11112257D01*
X14702005Y-11107495D01*
X14704386Y-11097971D01*
X14704386Y-11086067D01*
X14702005Y-11076543D01*
X14699624Y-11071781D01*
X14697243Y-11069400D01*
X14692481Y-11067019D01*
X14647243Y-11088448D02*
X14652005Y-11086067D01*
X14654386Y-11083686D01*
X14656767Y-11078924D01*
X14656767Y-11076543D01*
X14654386Y-11071781D01*
X14652005Y-11069400D01*
X14647243Y-11067019D01*
X14637719Y-11067019D01*
X14632957Y-11069400D01*
X14630576Y-11071781D01*
X14628195Y-11076543D01*
X14628195Y-11078924D01*
X14630576Y-11083686D01*
X14632957Y-11086067D01*
X14637719Y-11088448D01*
X14647243Y-11088448D01*
X14652005Y-11090829D01*
X14654386Y-11093210D01*
X14656767Y-11097971D01*
X14656767Y-11107495D01*
X14654386Y-11112257D01*
X14652005Y-11114638D01*
X14647243Y-11117019D01*
X14637719Y-11117019D01*
X14632957Y-11114638D01*
X14630576Y-11112257D01*
X14628195Y-11107495D01*
X14628195Y-11097971D01*
X14630576Y-11093210D01*
X14632957Y-11090829D01*
X14637719Y-11088448D01*
X14771052Y-10863019D02*
X14787719Y-10839210D01*
X14799624Y-10863019D02*
X14799624Y-10813019D01*
X14780576Y-10813019D01*
X14775814Y-10815400D01*
X14773433Y-10817781D01*
X14771052Y-10822543D01*
X14771052Y-10829686D01*
X14773433Y-10834448D01*
X14775814Y-10836829D01*
X14780576Y-10839210D01*
X14799624Y-10839210D01*
X14728195Y-10829686D02*
X14728195Y-10863019D01*
X14740100Y-10810638D02*
X14752005Y-10846352D01*
X14721052Y-10846352D01*
X14692481Y-10813019D02*
X14687719Y-10813019D01*
X14682957Y-10815400D01*
X14680576Y-10817781D01*
X14678195Y-10822543D01*
X14675814Y-10832067D01*
X14675814Y-10843971D01*
X14678195Y-10853495D01*
X14680576Y-10858257D01*
X14682957Y-10860638D01*
X14687719Y-10863019D01*
X14692481Y-10863019D01*
X14697243Y-10860638D01*
X14699624Y-10858257D01*
X14702005Y-10853495D01*
X14704386Y-10843971D01*
X14704386Y-10832067D01*
X14702005Y-10822543D01*
X14699624Y-10817781D01*
X14697243Y-10815400D01*
X14692481Y-10813019D01*
X14659148Y-10813019D02*
X14625814Y-10813019D01*
X14647243Y-10863019D01*
D12*
X10859048Y-7960238D02*
X10859048Y-7860238D01*
X10835238Y-7860238D01*
X10820952Y-7865000D01*
X10811429Y-7874524D01*
X10806667Y-7884048D01*
X10801905Y-7903095D01*
X10801905Y-7917381D01*
X10806667Y-7936428D01*
X10811429Y-7945952D01*
X10820952Y-7955476D01*
X10835238Y-7960238D01*
X10859048Y-7960238D01*
X10716190Y-7860238D02*
X10735238Y-7860238D01*
X10744762Y-7865000D01*
X10749524Y-7869762D01*
X10759048Y-7884048D01*
X10763810Y-7903095D01*
X10763810Y-7941190D01*
X10759048Y-7950714D01*
X10754286Y-7955476D01*
X10744762Y-7960238D01*
X10725714Y-7960238D01*
X10716190Y-7955476D01*
X10711429Y-7950714D01*
X10706667Y-7941190D01*
X10706667Y-7917381D01*
X10711429Y-7907857D01*
X10716190Y-7903095D01*
X10725714Y-7898333D01*
X10744762Y-7898333D01*
X10754286Y-7903095D01*
X10759048Y-7907857D01*
X10763810Y-7917381D01*
X10644762Y-7860238D02*
X10635238Y-7860238D01*
X10625714Y-7865000D01*
X10620952Y-7869762D01*
X10616190Y-7879286D01*
X10611429Y-7898333D01*
X10611429Y-7922143D01*
X10616190Y-7941190D01*
X10620952Y-7950714D01*
X10625714Y-7955476D01*
X10635238Y-7960238D01*
X10644762Y-7960238D01*
X10654286Y-7955476D01*
X10659048Y-7950714D01*
X10663810Y-7941190D01*
X10668571Y-7922143D01*
X10668571Y-7898333D01*
X10663810Y-7879286D01*
X10659048Y-7869762D01*
X10654286Y-7865000D01*
X10644762Y-7860238D01*
X10516190Y-7960238D02*
X10573333Y-7960238D01*
X10544762Y-7960238D02*
X10544762Y-7860238D01*
X10554286Y-7874524D01*
X10563810Y-7884048D01*
X10573333Y-7888809D01*
D13*
X10055952Y-8267857D02*
X10058333Y-8270238D01*
X10065476Y-8272619D01*
X10070238Y-8272619D01*
X10077381Y-8270238D01*
X10082143Y-8265476D01*
X10084524Y-8260714D01*
X10086905Y-8251190D01*
X10086905Y-8244048D01*
X10084524Y-8234524D01*
X10082143Y-8229762D01*
X10077381Y-8225000D01*
X10070238Y-8222619D01*
X10065476Y-8222619D01*
X10058333Y-8225000D01*
X10055952Y-8227381D01*
X10013095Y-8222619D02*
X10022619Y-8222619D01*
X10027381Y-8225000D01*
X10029762Y-8227381D01*
X10034524Y-8234524D01*
X10036905Y-8244048D01*
X10036905Y-8263095D01*
X10034524Y-8267857D01*
X10032143Y-8270238D01*
X10027381Y-8272619D01*
X10017857Y-8272619D01*
X10013095Y-8270238D01*
X10010714Y-8267857D01*
X10008333Y-8263095D01*
X10008333Y-8251190D01*
X10010714Y-8246428D01*
X10013095Y-8244048D01*
X10017857Y-8241667D01*
X10027381Y-8241667D01*
X10032143Y-8244048D01*
X10034524Y-8246428D01*
X10036905Y-8251190D01*
X9977381Y-8222619D02*
X9972619Y-8222619D01*
X9967857Y-8225000D01*
X9965476Y-8227381D01*
X9963095Y-8232143D01*
X9960714Y-8241667D01*
X9960714Y-8253571D01*
X9963095Y-8263095D01*
X9965476Y-8267857D01*
X9967857Y-8270238D01*
X9972619Y-8272619D01*
X9977381Y-8272619D01*
X9982143Y-8270238D01*
X9984524Y-8267857D01*
X9986905Y-8263095D01*
X9989286Y-8253571D01*
X9989286Y-8241667D01*
X9986905Y-8232143D01*
X9984524Y-8227381D01*
X9982143Y-8225000D01*
X9977381Y-8222619D01*
X9915476Y-8222619D02*
X9939286Y-8222619D01*
X9941667Y-8246428D01*
X9939286Y-8244048D01*
X9934524Y-8241667D01*
X9922619Y-8241667D01*
X9917857Y-8244048D01*
X9915476Y-8246428D01*
X9913095Y-8251190D01*
X9913095Y-8263095D01*
X9915476Y-8267857D01*
X9917857Y-8270238D01*
X9922619Y-8272619D01*
X9934524Y-8272619D01*
X9939286Y-8270238D01*
X9941667Y-8267857D01*
D12*
X10319405Y-7818214D02*
X10324167Y-7822976D01*
X10338452Y-7827738D01*
X10347976Y-7827738D01*
X10362262Y-7822976D01*
X10371786Y-7813452D01*
X10376548Y-7803928D01*
X10381310Y-7784881D01*
X10381310Y-7770595D01*
X10376548Y-7751548D01*
X10371786Y-7742024D01*
X10362262Y-7732500D01*
X10347976Y-7727738D01*
X10338452Y-7727738D01*
X10324167Y-7732500D01*
X10319405Y-7737262D01*
X10233690Y-7727738D02*
X10252738Y-7727738D01*
X10262262Y-7732500D01*
X10267024Y-7737262D01*
X10276548Y-7751548D01*
X10281310Y-7770595D01*
X10281310Y-7808690D01*
X10276548Y-7818214D01*
X10271786Y-7822976D01*
X10262262Y-7827738D01*
X10243214Y-7827738D01*
X10233690Y-7822976D01*
X10228929Y-7818214D01*
X10224167Y-7808690D01*
X10224167Y-7784881D01*
X10228929Y-7775357D01*
X10233690Y-7770595D01*
X10243214Y-7765833D01*
X10262262Y-7765833D01*
X10271786Y-7770595D01*
X10276548Y-7775357D01*
X10281310Y-7784881D01*
X10162262Y-7727738D02*
X10152738Y-7727738D01*
X10143214Y-7732500D01*
X10138452Y-7737262D01*
X10133690Y-7746786D01*
X10128929Y-7765833D01*
X10128929Y-7789643D01*
X10133690Y-7808690D01*
X10138452Y-7818214D01*
X10143214Y-7822976D01*
X10152738Y-7827738D01*
X10162262Y-7827738D01*
X10171786Y-7822976D01*
X10176548Y-7818214D01*
X10181310Y-7808690D01*
X10186071Y-7789643D01*
X10186071Y-7765833D01*
X10181310Y-7746786D01*
X10176548Y-7737262D01*
X10171786Y-7732500D01*
X10162262Y-7727738D01*
X10043214Y-7761071D02*
X10043214Y-7827738D01*
X10067024Y-7722976D02*
X10090833Y-7794405D01*
X10028929Y-7794405D01*
D13*
X11057857Y-8384048D02*
X11060238Y-8381667D01*
X11062619Y-8374524D01*
X11062619Y-8369762D01*
X11060238Y-8362619D01*
X11055476Y-8357857D01*
X11050714Y-8355476D01*
X11041190Y-8353095D01*
X11034048Y-8353095D01*
X11024524Y-8355476D01*
X11019762Y-8357857D01*
X11015000Y-8362619D01*
X11012619Y-8369762D01*
X11012619Y-8374524D01*
X11015000Y-8381667D01*
X11017381Y-8384048D01*
X11012619Y-8426905D02*
X11012619Y-8417381D01*
X11015000Y-8412619D01*
X11017381Y-8410238D01*
X11024524Y-8405476D01*
X11034048Y-8403095D01*
X11053095Y-8403095D01*
X11057857Y-8405476D01*
X11060238Y-8407857D01*
X11062619Y-8412619D01*
X11062619Y-8422143D01*
X11060238Y-8426905D01*
X11057857Y-8429286D01*
X11053095Y-8431667D01*
X11041190Y-8431667D01*
X11036429Y-8429286D01*
X11034048Y-8426905D01*
X11031667Y-8422143D01*
X11031667Y-8412619D01*
X11034048Y-8407857D01*
X11036429Y-8405476D01*
X11041190Y-8403095D01*
X11012619Y-8462619D02*
X11012619Y-8467381D01*
X11015000Y-8472143D01*
X11017381Y-8474524D01*
X11022143Y-8476905D01*
X11031667Y-8479286D01*
X11043571Y-8479286D01*
X11053095Y-8476905D01*
X11057857Y-8474524D01*
X11060238Y-8472143D01*
X11062619Y-8467381D01*
X11062619Y-8462619D01*
X11060238Y-8457857D01*
X11057857Y-8455476D01*
X11053095Y-8453095D01*
X11043571Y-8450714D01*
X11031667Y-8450714D01*
X11022143Y-8453095D01*
X11017381Y-8455476D01*
X11015000Y-8457857D01*
X11012619Y-8462619D01*
X11062619Y-8526905D02*
X11062619Y-8498333D01*
X11062619Y-8512619D02*
X11012619Y-8512619D01*
X11019762Y-8507857D01*
X11024524Y-8503095D01*
X11026905Y-8498333D01*
X15535752Y-11075557D02*
X15538133Y-11077938D01*
X15545276Y-11080319D01*
X15550038Y-11080319D01*
X15557181Y-11077938D01*
X15561943Y-11073176D01*
X15564324Y-11068414D01*
X15566705Y-11058890D01*
X15566705Y-11051748D01*
X15564324Y-11042224D01*
X15561943Y-11037462D01*
X15557181Y-11032700D01*
X15550038Y-11030319D01*
X15545276Y-11030319D01*
X15538133Y-11032700D01*
X15535752Y-11035081D01*
X15492895Y-11046986D02*
X15492895Y-11080319D01*
X15504800Y-11027938D02*
X15516705Y-11063652D01*
X15485752Y-11063652D01*
X15457181Y-11030319D02*
X15452419Y-11030319D01*
X15447657Y-11032700D01*
X15445276Y-11035081D01*
X15442895Y-11039843D01*
X15440514Y-11049367D01*
X15440514Y-11061271D01*
X15442895Y-11070795D01*
X15445276Y-11075557D01*
X15447657Y-11077938D01*
X15452419Y-11080319D01*
X15457181Y-11080319D01*
X15461943Y-11077938D01*
X15464324Y-11075557D01*
X15466705Y-11070795D01*
X15469086Y-11061271D01*
X15469086Y-11049367D01*
X15466705Y-11039843D01*
X15464324Y-11035081D01*
X15461943Y-11032700D01*
X15457181Y-11030319D01*
X15411943Y-11051748D02*
X15416705Y-11049367D01*
X15419086Y-11046986D01*
X15421467Y-11042224D01*
X15421467Y-11039843D01*
X15419086Y-11035081D01*
X15416705Y-11032700D01*
X15411943Y-11030319D01*
X15402419Y-11030319D01*
X15397657Y-11032700D01*
X15395276Y-11035081D01*
X15392895Y-11039843D01*
X15392895Y-11042224D01*
X15395276Y-11046986D01*
X15397657Y-11049367D01*
X15402419Y-11051748D01*
X15411943Y-11051748D01*
X15416705Y-11054129D01*
X15419086Y-11056510D01*
X15421467Y-11061271D01*
X15421467Y-11070795D01*
X15419086Y-11075557D01*
X15416705Y-11077938D01*
X15411943Y-11080319D01*
X15402419Y-11080319D01*
X15397657Y-11077938D01*
X15395276Y-11075557D01*
X15392895Y-11070795D01*
X15392895Y-11061271D01*
X15395276Y-11056510D01*
X15397657Y-11054129D01*
X15402419Y-11051748D01*
X20877857Y-6776548D02*
X20880238Y-6774167D01*
X20882619Y-6767024D01*
X20882619Y-6762262D01*
X20880238Y-6755119D01*
X20875476Y-6750357D01*
X20870714Y-6747976D01*
X20861190Y-6745595D01*
X20854048Y-6745595D01*
X20844524Y-6747976D01*
X20839762Y-6750357D01*
X20835000Y-6755119D01*
X20832619Y-6762262D01*
X20832619Y-6767024D01*
X20835000Y-6774167D01*
X20837381Y-6776548D01*
X20832619Y-6793214D02*
X20832619Y-6824167D01*
X20851667Y-6807500D01*
X20851667Y-6814643D01*
X20854048Y-6819405D01*
X20856429Y-6821786D01*
X20861190Y-6824167D01*
X20873095Y-6824167D01*
X20877857Y-6821786D01*
X20880238Y-6819405D01*
X20882619Y-6814643D01*
X20882619Y-6800357D01*
X20880238Y-6795595D01*
X20877857Y-6793214D01*
X20832619Y-6855119D02*
X20832619Y-6859881D01*
X20835000Y-6864643D01*
X20837381Y-6867024D01*
X20842143Y-6869405D01*
X20851667Y-6871786D01*
X20863571Y-6871786D01*
X20873095Y-6869405D01*
X20877857Y-6867024D01*
X20880238Y-6864643D01*
X20882619Y-6859881D01*
X20882619Y-6855119D01*
X20880238Y-6850357D01*
X20877857Y-6847976D01*
X20873095Y-6845595D01*
X20863571Y-6843214D01*
X20851667Y-6843214D01*
X20842143Y-6845595D01*
X20837381Y-6847976D01*
X20835000Y-6850357D01*
X20832619Y-6855119D01*
X20832619Y-6888452D02*
X20832619Y-6919405D01*
X20851667Y-6902738D01*
X20851667Y-6909881D01*
X20854048Y-6914643D01*
X20856429Y-6917024D01*
X20861190Y-6919405D01*
X20873095Y-6919405D01*
X20877857Y-6917024D01*
X20880238Y-6914643D01*
X20882619Y-6909881D01*
X20882619Y-6895595D01*
X20880238Y-6890833D01*
X20877857Y-6888452D01*
X20477857Y-5974048D02*
X20480238Y-5971667D01*
X20482619Y-5964524D01*
X20482619Y-5959762D01*
X20480238Y-5952619D01*
X20475476Y-5947857D01*
X20470714Y-5945476D01*
X20461190Y-5943095D01*
X20454048Y-5943095D01*
X20444524Y-5945476D01*
X20439762Y-5947857D01*
X20435000Y-5952619D01*
X20432619Y-5959762D01*
X20432619Y-5964524D01*
X20435000Y-5971667D01*
X20437381Y-5974048D01*
X20432619Y-5990714D02*
X20432619Y-6021667D01*
X20451667Y-6005000D01*
X20451667Y-6012143D01*
X20454048Y-6016905D01*
X20456429Y-6019286D01*
X20461190Y-6021667D01*
X20473095Y-6021667D01*
X20477857Y-6019286D01*
X20480238Y-6016905D01*
X20482619Y-6012143D01*
X20482619Y-5997857D01*
X20480238Y-5993095D01*
X20477857Y-5990714D01*
X20432619Y-6052619D02*
X20432619Y-6057381D01*
X20435000Y-6062143D01*
X20437381Y-6064524D01*
X20442143Y-6066905D01*
X20451667Y-6069286D01*
X20463571Y-6069286D01*
X20473095Y-6066905D01*
X20477857Y-6064524D01*
X20480238Y-6062143D01*
X20482619Y-6057381D01*
X20482619Y-6052619D01*
X20480238Y-6047857D01*
X20477857Y-6045476D01*
X20473095Y-6043095D01*
X20463571Y-6040714D01*
X20451667Y-6040714D01*
X20442143Y-6043095D01*
X20437381Y-6045476D01*
X20435000Y-6047857D01*
X20432619Y-6052619D01*
X20437381Y-6088333D02*
X20435000Y-6090714D01*
X20432619Y-6095476D01*
X20432619Y-6107381D01*
X20435000Y-6112143D01*
X20437381Y-6114524D01*
X20442143Y-6116905D01*
X20446905Y-6116905D01*
X20454048Y-6114524D01*
X20482619Y-6085952D01*
X20482619Y-6116905D01*
D12*
X20495714Y-6573095D02*
X20500476Y-6568333D01*
X20505238Y-6554048D01*
X20505238Y-6544524D01*
X20500476Y-6530238D01*
X20490952Y-6520714D01*
X20481429Y-6515952D01*
X20462381Y-6511190D01*
X20448095Y-6511190D01*
X20429048Y-6515952D01*
X20419524Y-6520714D01*
X20410000Y-6530238D01*
X20405238Y-6544524D01*
X20405238Y-6554048D01*
X20410000Y-6568333D01*
X20414762Y-6573095D01*
X20405238Y-6606428D02*
X20405238Y-6668333D01*
X20443333Y-6635000D01*
X20443333Y-6649286D01*
X20448095Y-6658809D01*
X20452857Y-6663571D01*
X20462381Y-6668333D01*
X20486190Y-6668333D01*
X20495714Y-6663571D01*
X20500476Y-6658809D01*
X20505238Y-6649286D01*
X20505238Y-6620714D01*
X20500476Y-6611190D01*
X20495714Y-6606428D01*
X20405238Y-6730238D02*
X20405238Y-6739762D01*
X20410000Y-6749286D01*
X20414762Y-6754048D01*
X20424286Y-6758809D01*
X20443333Y-6763571D01*
X20467143Y-6763571D01*
X20486190Y-6758809D01*
X20495714Y-6754048D01*
X20500476Y-6749286D01*
X20505238Y-6739762D01*
X20505238Y-6730238D01*
X20500476Y-6720714D01*
X20495714Y-6715952D01*
X20486190Y-6711190D01*
X20467143Y-6706428D01*
X20443333Y-6706428D01*
X20424286Y-6711190D01*
X20414762Y-6715952D01*
X20410000Y-6720714D01*
X20405238Y-6730238D01*
X20438571Y-6849286D02*
X20505238Y-6849286D01*
X20400476Y-6825476D02*
X20471905Y-6801667D01*
X20471905Y-6863571D01*
X20895714Y-6063095D02*
X20900476Y-6058333D01*
X20905238Y-6044048D01*
X20905238Y-6034524D01*
X20900476Y-6020238D01*
X20890952Y-6010714D01*
X20881429Y-6005952D01*
X20862381Y-6001190D01*
X20848095Y-6001190D01*
X20829048Y-6005952D01*
X20819524Y-6010714D01*
X20810000Y-6020238D01*
X20805238Y-6034524D01*
X20805238Y-6044048D01*
X20810000Y-6058333D01*
X20814762Y-6063095D01*
X20805238Y-6096428D02*
X20805238Y-6158333D01*
X20843333Y-6125000D01*
X20843333Y-6139286D01*
X20848095Y-6148809D01*
X20852857Y-6153571D01*
X20862381Y-6158333D01*
X20886190Y-6158333D01*
X20895714Y-6153571D01*
X20900476Y-6148809D01*
X20905238Y-6139286D01*
X20905238Y-6110714D01*
X20900476Y-6101190D01*
X20895714Y-6096428D01*
X20805238Y-6220238D02*
X20805238Y-6229762D01*
X20810000Y-6239286D01*
X20814762Y-6244048D01*
X20824286Y-6248809D01*
X20843333Y-6253571D01*
X20867143Y-6253571D01*
X20886190Y-6248809D01*
X20895714Y-6244048D01*
X20900476Y-6239286D01*
X20905238Y-6229762D01*
X20905238Y-6220238D01*
X20900476Y-6210714D01*
X20895714Y-6205952D01*
X20886190Y-6201190D01*
X20867143Y-6196428D01*
X20843333Y-6196428D01*
X20824286Y-6201190D01*
X20814762Y-6205952D01*
X20810000Y-6210714D01*
X20805238Y-6220238D01*
X20905238Y-6348809D02*
X20905238Y-6291667D01*
X20905238Y-6320238D02*
X20805238Y-6320238D01*
X20819524Y-6310714D01*
X20829048Y-6301190D01*
X20833810Y-6291667D01*
X21779048Y-6150238D02*
X21779048Y-6050238D01*
X21755238Y-6050238D01*
X21740952Y-6055000D01*
X21731429Y-6064524D01*
X21726667Y-6074048D01*
X21721905Y-6093095D01*
X21721905Y-6107381D01*
X21726667Y-6126428D01*
X21731429Y-6135952D01*
X21740952Y-6145476D01*
X21755238Y-6150238D01*
X21779048Y-6150238D01*
X21688571Y-6050238D02*
X21626667Y-6050238D01*
X21660000Y-6088333D01*
X21645714Y-6088333D01*
X21636190Y-6093095D01*
X21631429Y-6097857D01*
X21626667Y-6107381D01*
X21626667Y-6131190D01*
X21631429Y-6140714D01*
X21636190Y-6145476D01*
X21645714Y-6150238D01*
X21674286Y-6150238D01*
X21683810Y-6145476D01*
X21688571Y-6140714D01*
X21564762Y-6050238D02*
X21555238Y-6050238D01*
X21545714Y-6055000D01*
X21540952Y-6059762D01*
X21536190Y-6069286D01*
X21531429Y-6088333D01*
X21531429Y-6112143D01*
X21536190Y-6131190D01*
X21540952Y-6140714D01*
X21545714Y-6145476D01*
X21555238Y-6150238D01*
X21564762Y-6150238D01*
X21574286Y-6145476D01*
X21579048Y-6140714D01*
X21583810Y-6131190D01*
X21588571Y-6112143D01*
X21588571Y-6088333D01*
X21583810Y-6069286D01*
X21579048Y-6059762D01*
X21574286Y-6055000D01*
X21564762Y-6050238D01*
X21436190Y-6150238D02*
X21493333Y-6150238D01*
X21464762Y-6150238D02*
X21464762Y-6050238D01*
X21474286Y-6064524D01*
X21483810Y-6074048D01*
X21493333Y-6078809D01*
X17715638Y-6258571D02*
X17796590Y-6258571D01*
X17806114Y-6263333D01*
X17810876Y-6268095D01*
X17815638Y-6277619D01*
X17815638Y-6296667D01*
X17810876Y-6306190D01*
X17806114Y-6310952D01*
X17796590Y-6315714D01*
X17715638Y-6315714D01*
X17715638Y-6353809D02*
X17715638Y-6415714D01*
X17753733Y-6382381D01*
X17753733Y-6396667D01*
X17758495Y-6406190D01*
X17763257Y-6410952D01*
X17772781Y-6415714D01*
X17796590Y-6415714D01*
X17806114Y-6410952D01*
X17810876Y-6406190D01*
X17815638Y-6396667D01*
X17815638Y-6368095D01*
X17810876Y-6358571D01*
X17806114Y-6353809D01*
X17715638Y-6477619D02*
X17715638Y-6487143D01*
X17720400Y-6496667D01*
X17725162Y-6501428D01*
X17734686Y-6506190D01*
X17753733Y-6510952D01*
X17777543Y-6510952D01*
X17796590Y-6506190D01*
X17806114Y-6501428D01*
X17810876Y-6496667D01*
X17815638Y-6487143D01*
X17815638Y-6477619D01*
X17810876Y-6468095D01*
X17806114Y-6463333D01*
X17796590Y-6458571D01*
X17777543Y-6453809D01*
X17753733Y-6453809D01*
X17734686Y-6458571D01*
X17725162Y-6463333D01*
X17720400Y-6468095D01*
X17715638Y-6477619D01*
X17815638Y-6606190D02*
X17815638Y-6549048D01*
X17815638Y-6577619D02*
X17715638Y-6577619D01*
X17729924Y-6568095D01*
X17739448Y-6558571D01*
X17744210Y-6549048D01*
D13*
X16425952Y-12137619D02*
X16442619Y-12113809D01*
X16454524Y-12137619D02*
X16454524Y-12087619D01*
X16435476Y-12087619D01*
X16430714Y-12090000D01*
X16428333Y-12092381D01*
X16425952Y-12097143D01*
X16425952Y-12104286D01*
X16428333Y-12109048D01*
X16430714Y-12111428D01*
X16435476Y-12113809D01*
X16454524Y-12113809D01*
X16383095Y-12104286D02*
X16383095Y-12137619D01*
X16395000Y-12085238D02*
X16406905Y-12120952D01*
X16375952Y-12120952D01*
X16330714Y-12137619D02*
X16359286Y-12137619D01*
X16345000Y-12137619D02*
X16345000Y-12087619D01*
X16349762Y-12094762D01*
X16354524Y-12099524D01*
X16359286Y-12101905D01*
X16283095Y-12137619D02*
X16311667Y-12137619D01*
X16297381Y-12137619D02*
X16297381Y-12087619D01*
X16302143Y-12094762D01*
X16306905Y-12099524D01*
X16311667Y-12101905D01*
X17162619Y-9316548D02*
X17138810Y-9299881D01*
X17162619Y-9287976D02*
X17112619Y-9287976D01*
X17112619Y-9307024D01*
X17115000Y-9311786D01*
X17117381Y-9314167D01*
X17122143Y-9316548D01*
X17129286Y-9316548D01*
X17134048Y-9314167D01*
X17136429Y-9311786D01*
X17138810Y-9307024D01*
X17138810Y-9287976D01*
X17129286Y-9359405D02*
X17162619Y-9359405D01*
X17110238Y-9347500D02*
X17145952Y-9335595D01*
X17145952Y-9366548D01*
X17162619Y-9411786D02*
X17162619Y-9383214D01*
X17162619Y-9397500D02*
X17112619Y-9397500D01*
X17119762Y-9392738D01*
X17124524Y-9387976D01*
X17126905Y-9383214D01*
X17112619Y-9442738D02*
X17112619Y-9447500D01*
X17115000Y-9452262D01*
X17117381Y-9454643D01*
X17122143Y-9457024D01*
X17131667Y-9459405D01*
X17143571Y-9459405D01*
X17153095Y-9457024D01*
X17157857Y-9454643D01*
X17160238Y-9452262D01*
X17162619Y-9447500D01*
X17162619Y-9442738D01*
X17160238Y-9437976D01*
X17157857Y-9435595D01*
X17153095Y-9433214D01*
X17143571Y-9430833D01*
X17131667Y-9430833D01*
X17122143Y-9433214D01*
X17117381Y-9435595D01*
X17115000Y-9437976D01*
X17112619Y-9442738D01*
X16474524Y-8867619D02*
X16474524Y-8817619D01*
X16462619Y-8817619D01*
X16455476Y-8820000D01*
X16450714Y-8824762D01*
X16448333Y-8829524D01*
X16445952Y-8839048D01*
X16445952Y-8846190D01*
X16448333Y-8855714D01*
X16450714Y-8860476D01*
X16455476Y-8865238D01*
X16462619Y-8867619D01*
X16474524Y-8867619D01*
X16403095Y-8834286D02*
X16403095Y-8867619D01*
X16415000Y-8815238D02*
X16426905Y-8850952D01*
X16395952Y-8850952D01*
X16367381Y-8817619D02*
X16362619Y-8817619D01*
X16357857Y-8820000D01*
X16355476Y-8822381D01*
X16353095Y-8827143D01*
X16350714Y-8836667D01*
X16350714Y-8848571D01*
X16353095Y-8858095D01*
X16355476Y-8862857D01*
X16357857Y-8865238D01*
X16362619Y-8867619D01*
X16367381Y-8867619D01*
X16372143Y-8865238D01*
X16374524Y-8862857D01*
X16376905Y-8858095D01*
X16379286Y-8848571D01*
X16379286Y-8836667D01*
X16376905Y-8827143D01*
X16374524Y-8822381D01*
X16372143Y-8820000D01*
X16367381Y-8817619D01*
X16334048Y-8817619D02*
X16303095Y-8817619D01*
X16319762Y-8836667D01*
X16312619Y-8836667D01*
X16307857Y-8839048D01*
X16305476Y-8841429D01*
X16303095Y-8846190D01*
X16303095Y-8858095D01*
X16305476Y-8862857D01*
X16307857Y-8865238D01*
X16312619Y-8867619D01*
X16326905Y-8867619D01*
X16331667Y-8865238D01*
X16334048Y-8862857D01*
X16313452Y-9097619D02*
X16330119Y-9073810D01*
X16342024Y-9097619D02*
X16342024Y-9047619D01*
X16322976Y-9047619D01*
X16318214Y-9050000D01*
X16315833Y-9052381D01*
X16313452Y-9057143D01*
X16313452Y-9064286D01*
X16315833Y-9069048D01*
X16318214Y-9071429D01*
X16322976Y-9073810D01*
X16342024Y-9073810D01*
X16270595Y-9064286D02*
X16270595Y-9097619D01*
X16282500Y-9045238D02*
X16294405Y-9080952D01*
X16263452Y-9080952D01*
X16234881Y-9047619D02*
X16230119Y-9047619D01*
X16225357Y-9050000D01*
X16222976Y-9052381D01*
X16220595Y-9057143D01*
X16218214Y-9066667D01*
X16218214Y-9078571D01*
X16220595Y-9088095D01*
X16222976Y-9092857D01*
X16225357Y-9095238D01*
X16230119Y-9097619D01*
X16234881Y-9097619D01*
X16239643Y-9095238D01*
X16242024Y-9092857D01*
X16244405Y-9088095D01*
X16246786Y-9078571D01*
X16246786Y-9066667D01*
X16244405Y-9057143D01*
X16242024Y-9052381D01*
X16239643Y-9050000D01*
X16234881Y-9047619D01*
X16175357Y-9047619D02*
X16184881Y-9047619D01*
X16189643Y-9050000D01*
X16192024Y-9052381D01*
X16196786Y-9059524D01*
X16199167Y-9069048D01*
X16199167Y-9088095D01*
X16196786Y-9092857D01*
X16194405Y-9095238D01*
X16189643Y-9097619D01*
X16180119Y-9097619D01*
X16175357Y-9095238D01*
X16172976Y-9092857D01*
X16170595Y-9088095D01*
X16170595Y-9076190D01*
X16172976Y-9071429D01*
X16175357Y-9069048D01*
X16180119Y-9066667D01*
X16189643Y-9066667D01*
X16194405Y-9069048D01*
X16196786Y-9071429D01*
X16199167Y-9076190D01*
D12*
X17545714Y-6063095D02*
X17550476Y-6058333D01*
X17555238Y-6044048D01*
X17555238Y-6034524D01*
X17550476Y-6020238D01*
X17540952Y-6010714D01*
X17531429Y-6005952D01*
X17512381Y-6001190D01*
X17498095Y-6001190D01*
X17479048Y-6005952D01*
X17469524Y-6010714D01*
X17460000Y-6020238D01*
X17455238Y-6034524D01*
X17455238Y-6044048D01*
X17460000Y-6058333D01*
X17464762Y-6063095D01*
X17455238Y-6153571D02*
X17455238Y-6105952D01*
X17502857Y-6101190D01*
X17498095Y-6105952D01*
X17493333Y-6115476D01*
X17493333Y-6139286D01*
X17498095Y-6148809D01*
X17502857Y-6153571D01*
X17512381Y-6158333D01*
X17536190Y-6158333D01*
X17545714Y-6153571D01*
X17550476Y-6148809D01*
X17555238Y-6139286D01*
X17555238Y-6115476D01*
X17550476Y-6105952D01*
X17545714Y-6101190D01*
X17455238Y-6220238D02*
X17455238Y-6229762D01*
X17460000Y-6239286D01*
X17464762Y-6244048D01*
X17474286Y-6248809D01*
X17493333Y-6253571D01*
X17517143Y-6253571D01*
X17536190Y-6248809D01*
X17545714Y-6244048D01*
X17550476Y-6239286D01*
X17555238Y-6229762D01*
X17555238Y-6220238D01*
X17550476Y-6210714D01*
X17545714Y-6205952D01*
X17536190Y-6201190D01*
X17517143Y-6196428D01*
X17493333Y-6196428D01*
X17474286Y-6201190D01*
X17464762Y-6205952D01*
X17460000Y-6210714D01*
X17455238Y-6220238D01*
X17555238Y-6348809D02*
X17555238Y-6291667D01*
X17555238Y-6320238D02*
X17455238Y-6320238D01*
X17469524Y-6310714D01*
X17479048Y-6301190D01*
X17483810Y-6291667D01*
X17145714Y-6568095D02*
X17150476Y-6563333D01*
X17155238Y-6549048D01*
X17155238Y-6539524D01*
X17150476Y-6525238D01*
X17140952Y-6515714D01*
X17131429Y-6510952D01*
X17112381Y-6506190D01*
X17098095Y-6506190D01*
X17079048Y-6510952D01*
X17069524Y-6515714D01*
X17060000Y-6525238D01*
X17055238Y-6539524D01*
X17055238Y-6549048D01*
X17060000Y-6563333D01*
X17064762Y-6568095D01*
X17055238Y-6658571D02*
X17055238Y-6610952D01*
X17102857Y-6606190D01*
X17098095Y-6610952D01*
X17093333Y-6620476D01*
X17093333Y-6644286D01*
X17098095Y-6653809D01*
X17102857Y-6658571D01*
X17112381Y-6663333D01*
X17136190Y-6663333D01*
X17145714Y-6658571D01*
X17150476Y-6653809D01*
X17155238Y-6644286D01*
X17155238Y-6620476D01*
X17150476Y-6610952D01*
X17145714Y-6606190D01*
X17055238Y-6725238D02*
X17055238Y-6734762D01*
X17060000Y-6744286D01*
X17064762Y-6749048D01*
X17074286Y-6753809D01*
X17093333Y-6758571D01*
X17117143Y-6758571D01*
X17136190Y-6753809D01*
X17145714Y-6749048D01*
X17150476Y-6744286D01*
X17155238Y-6734762D01*
X17155238Y-6725238D01*
X17150476Y-6715714D01*
X17145714Y-6710952D01*
X17136190Y-6706190D01*
X17117143Y-6701428D01*
X17093333Y-6701428D01*
X17074286Y-6706190D01*
X17064762Y-6710952D01*
X17060000Y-6715714D01*
X17055238Y-6725238D01*
X17088571Y-6844286D02*
X17155238Y-6844286D01*
X17050476Y-6820476D02*
X17121905Y-6796667D01*
X17121905Y-6858571D01*
X14365638Y-6258571D02*
X14446590Y-6258571D01*
X14456114Y-6263333D01*
X14460876Y-6268095D01*
X14465638Y-6277619D01*
X14465638Y-6296667D01*
X14460876Y-6306190D01*
X14456114Y-6310952D01*
X14446590Y-6315714D01*
X14365638Y-6315714D01*
X14365638Y-6410952D02*
X14365638Y-6363333D01*
X14413257Y-6358571D01*
X14408495Y-6363333D01*
X14403733Y-6372857D01*
X14403733Y-6396667D01*
X14408495Y-6406190D01*
X14413257Y-6410952D01*
X14422781Y-6415714D01*
X14446590Y-6415714D01*
X14456114Y-6410952D01*
X14460876Y-6406190D01*
X14465638Y-6396667D01*
X14465638Y-6372857D01*
X14460876Y-6363333D01*
X14456114Y-6358571D01*
X14365638Y-6477619D02*
X14365638Y-6487143D01*
X14370400Y-6496667D01*
X14375162Y-6501428D01*
X14384686Y-6506190D01*
X14403733Y-6510952D01*
X14427543Y-6510952D01*
X14446590Y-6506190D01*
X14456114Y-6501428D01*
X14460876Y-6496667D01*
X14465638Y-6487143D01*
X14465638Y-6477619D01*
X14460876Y-6468095D01*
X14456114Y-6463333D01*
X14446590Y-6458571D01*
X14427543Y-6453809D01*
X14403733Y-6453809D01*
X14384686Y-6458571D01*
X14375162Y-6463333D01*
X14370400Y-6468095D01*
X14365638Y-6477619D01*
X14465638Y-6606190D02*
X14465638Y-6549048D01*
X14465638Y-6577619D02*
X14365638Y-6577619D01*
X14379924Y-6568095D01*
X14389448Y-6558571D01*
X14394209Y-6549048D01*
D14*
X19807619Y-8650476D02*
X19757619Y-8650476D01*
X19757619Y-8662381D01*
X19760000Y-8669524D01*
X19764762Y-8674286D01*
X19769524Y-8676667D01*
X19779048Y-8679048D01*
X19786190Y-8679048D01*
X19795714Y-8676667D01*
X19800476Y-8674286D01*
X19805238Y-8669524D01*
X19807619Y-8662381D01*
X19807619Y-8650476D01*
X19762381Y-8698095D02*
X19760000Y-8700476D01*
X19757619Y-8705238D01*
X19757619Y-8717143D01*
X19760000Y-8721905D01*
X19762381Y-8724286D01*
X19767143Y-8726667D01*
X19771905Y-8726667D01*
X19779048Y-8724286D01*
X19807619Y-8695714D01*
X19807619Y-8726667D01*
X19757619Y-8757619D02*
X19757619Y-8762381D01*
X19760000Y-8767143D01*
X19762381Y-8769524D01*
X19767143Y-8771905D01*
X19776667Y-8774286D01*
X19788571Y-8774286D01*
X19798095Y-8771905D01*
X19802857Y-8769524D01*
X19805238Y-8767143D01*
X19807619Y-8762381D01*
X19807619Y-8757619D01*
X19805238Y-8752857D01*
X19802857Y-8750476D01*
X19798095Y-8748095D01*
X19788571Y-8745714D01*
X19776667Y-8745714D01*
X19767143Y-8748095D01*
X19762381Y-8750476D01*
X19760000Y-8752857D01*
X19757619Y-8757619D01*
X19807619Y-8821905D02*
X19807619Y-8793333D01*
X19807619Y-8807619D02*
X19757619Y-8807619D01*
X19764762Y-8802857D01*
X19769524Y-8798095D01*
X19771905Y-8793333D01*
D15*
X21889286Y-6282143D02*
X21889286Y-6255476D01*
X21931190Y-6255476D02*
X21851190Y-6255476D01*
X21851190Y-6293571D01*
X21851190Y-6362143D02*
X21851190Y-6324048D01*
X21889286Y-6320238D01*
X21885476Y-6324048D01*
X21881667Y-6331667D01*
X21881667Y-6350714D01*
X21885476Y-6358333D01*
X21889286Y-6362143D01*
X21896905Y-6365952D01*
X21915952Y-6365952D01*
X21923571Y-6362143D01*
X21927381Y-6358333D01*
X21931190Y-6350714D01*
X21931190Y-6331667D01*
X21927381Y-6324048D01*
X21923571Y-6320238D01*
X21851190Y-6415476D02*
X21851190Y-6423095D01*
X21855000Y-6430714D01*
X21858810Y-6434524D01*
X21866429Y-6438333D01*
X21881667Y-6442143D01*
X21900714Y-6442143D01*
X21915952Y-6438333D01*
X21923571Y-6434524D01*
X21927381Y-6430714D01*
X21931190Y-6423095D01*
X21931190Y-6415476D01*
X21927381Y-6407857D01*
X21923571Y-6404048D01*
X21915952Y-6400238D01*
X21900714Y-6396428D01*
X21881667Y-6396428D01*
X21866429Y-6400238D01*
X21858810Y-6404048D01*
X21855000Y-6407857D01*
X21851190Y-6415476D01*
X21931190Y-6518333D02*
X21931190Y-6472619D01*
X21931190Y-6495476D02*
X21851190Y-6495476D01*
X21862619Y-6487857D01*
X21870238Y-6480238D01*
X21874048Y-6472619D01*
D13*
X17157857Y-8890548D02*
X17160238Y-8888167D01*
X17162619Y-8881024D01*
X17162619Y-8876262D01*
X17160238Y-8869119D01*
X17155476Y-8864357D01*
X17150714Y-8861976D01*
X17141190Y-8859595D01*
X17134048Y-8859595D01*
X17124524Y-8861976D01*
X17119762Y-8864357D01*
X17115000Y-8869119D01*
X17112619Y-8876262D01*
X17112619Y-8881024D01*
X17115000Y-8888167D01*
X17117381Y-8890548D01*
X17117381Y-8909595D02*
X17115000Y-8911976D01*
X17112619Y-8916738D01*
X17112619Y-8928643D01*
X17115000Y-8933405D01*
X17117381Y-8935786D01*
X17122143Y-8938167D01*
X17126905Y-8938167D01*
X17134048Y-8935786D01*
X17162619Y-8907214D01*
X17162619Y-8938167D01*
X17112619Y-8969119D02*
X17112619Y-8973881D01*
X17115000Y-8978643D01*
X17117381Y-8981024D01*
X17122143Y-8983405D01*
X17131667Y-8985786D01*
X17143571Y-8985786D01*
X17153095Y-8983405D01*
X17157857Y-8981024D01*
X17160238Y-8978643D01*
X17162619Y-8973881D01*
X17162619Y-8969119D01*
X17160238Y-8964357D01*
X17157857Y-8961976D01*
X17153095Y-8959595D01*
X17143571Y-8957214D01*
X17131667Y-8957214D01*
X17122143Y-8959595D01*
X17117381Y-8961976D01*
X17115000Y-8964357D01*
X17112619Y-8969119D01*
X17162619Y-9033405D02*
X17162619Y-9004833D01*
X17162619Y-9019119D02*
X17112619Y-9019119D01*
X17119762Y-9014357D01*
X17124524Y-9009595D01*
X17126905Y-9004833D01*
X18945952Y-11437857D02*
X18948333Y-11440238D01*
X18955476Y-11442619D01*
X18960238Y-11442619D01*
X18967381Y-11440238D01*
X18972143Y-11435476D01*
X18974524Y-11430714D01*
X18976905Y-11421190D01*
X18976905Y-11414048D01*
X18974524Y-11404524D01*
X18972143Y-11399762D01*
X18967381Y-11395000D01*
X18960238Y-11392619D01*
X18955476Y-11392619D01*
X18948333Y-11395000D01*
X18945952Y-11397381D01*
X18926905Y-11397381D02*
X18924524Y-11395000D01*
X18919762Y-11392619D01*
X18907857Y-11392619D01*
X18903095Y-11395000D01*
X18900714Y-11397381D01*
X18898333Y-11402143D01*
X18898333Y-11406905D01*
X18900714Y-11414048D01*
X18929286Y-11442619D01*
X18898333Y-11442619D01*
X18867381Y-11392619D02*
X18862619Y-11392619D01*
X18857857Y-11395000D01*
X18855476Y-11397381D01*
X18853095Y-11402143D01*
X18850714Y-11411667D01*
X18850714Y-11423571D01*
X18853095Y-11433095D01*
X18855476Y-11437857D01*
X18857857Y-11440238D01*
X18862619Y-11442619D01*
X18867381Y-11442619D01*
X18872143Y-11440238D01*
X18874524Y-11437857D01*
X18876905Y-11433095D01*
X18879286Y-11423571D01*
X18879286Y-11411667D01*
X18876905Y-11402143D01*
X18874524Y-11397381D01*
X18872143Y-11395000D01*
X18867381Y-11392619D01*
X18831667Y-11397381D02*
X18829286Y-11395000D01*
X18824524Y-11392619D01*
X18812619Y-11392619D01*
X18807857Y-11395000D01*
X18805476Y-11397381D01*
X18803095Y-11402143D01*
X18803095Y-11406905D01*
X18805476Y-11414048D01*
X18834048Y-11442619D01*
X18803095Y-11442619D01*
X17658352Y-10455457D02*
X17660733Y-10457838D01*
X17667876Y-10460219D01*
X17672638Y-10460219D01*
X17679781Y-10457838D01*
X17684543Y-10453076D01*
X17686924Y-10448314D01*
X17689305Y-10438790D01*
X17689305Y-10431648D01*
X17686924Y-10422124D01*
X17684543Y-10417362D01*
X17679781Y-10412600D01*
X17672638Y-10410219D01*
X17667876Y-10410219D01*
X17660733Y-10412600D01*
X17658352Y-10414981D01*
X17639305Y-10414981D02*
X17636924Y-10412600D01*
X17632162Y-10410219D01*
X17620257Y-10410219D01*
X17615495Y-10412600D01*
X17613114Y-10414981D01*
X17610733Y-10419743D01*
X17610733Y-10424505D01*
X17613114Y-10431648D01*
X17641686Y-10460219D01*
X17610733Y-10460219D01*
X17579781Y-10410219D02*
X17575019Y-10410219D01*
X17570257Y-10412600D01*
X17567876Y-10414981D01*
X17565495Y-10419743D01*
X17563114Y-10429267D01*
X17563114Y-10441171D01*
X17565495Y-10450695D01*
X17567876Y-10455457D01*
X17570257Y-10457838D01*
X17575019Y-10460219D01*
X17579781Y-10460219D01*
X17584543Y-10457838D01*
X17586924Y-10455457D01*
X17589305Y-10450695D01*
X17591686Y-10441171D01*
X17591686Y-10429267D01*
X17589305Y-10419743D01*
X17586924Y-10414981D01*
X17584543Y-10412600D01*
X17579781Y-10410219D01*
X17546448Y-10410219D02*
X17515495Y-10410219D01*
X17532162Y-10429267D01*
X17525019Y-10429267D01*
X17520257Y-10431648D01*
X17517876Y-10434029D01*
X17515495Y-10438790D01*
X17515495Y-10450695D01*
X17517876Y-10455457D01*
X17520257Y-10457838D01*
X17525019Y-10460219D01*
X17539305Y-10460219D01*
X17544067Y-10457838D01*
X17546448Y-10455457D01*
X17873352Y-10074457D02*
X17875733Y-10076838D01*
X17882876Y-10079219D01*
X17887638Y-10079219D01*
X17894781Y-10076838D01*
X17899543Y-10072076D01*
X17901924Y-10067314D01*
X17904305Y-10057790D01*
X17904305Y-10050648D01*
X17901924Y-10041124D01*
X17899543Y-10036362D01*
X17894781Y-10031600D01*
X17887638Y-10029219D01*
X17882876Y-10029219D01*
X17875733Y-10031600D01*
X17873352Y-10033981D01*
X17854305Y-10033981D02*
X17851924Y-10031600D01*
X17847162Y-10029219D01*
X17835257Y-10029219D01*
X17830495Y-10031600D01*
X17828114Y-10033981D01*
X17825733Y-10038743D01*
X17825733Y-10043505D01*
X17828114Y-10050648D01*
X17856686Y-10079219D01*
X17825733Y-10079219D01*
X17794781Y-10029219D02*
X17790019Y-10029219D01*
X17785257Y-10031600D01*
X17782876Y-10033981D01*
X17780495Y-10038743D01*
X17778114Y-10048267D01*
X17778114Y-10060171D01*
X17780495Y-10069695D01*
X17782876Y-10074457D01*
X17785257Y-10076838D01*
X17790019Y-10079219D01*
X17794781Y-10079219D01*
X17799543Y-10076838D01*
X17801924Y-10074457D01*
X17804305Y-10069695D01*
X17806686Y-10060171D01*
X17806686Y-10048267D01*
X17804305Y-10038743D01*
X17801924Y-10033981D01*
X17799543Y-10031600D01*
X17794781Y-10029219D01*
X17735257Y-10045886D02*
X17735257Y-10079219D01*
X17747162Y-10026838D02*
X17759067Y-10062552D01*
X17728114Y-10062552D01*
X19145952Y-11637857D02*
X19148333Y-11640238D01*
X19155476Y-11642619D01*
X19160238Y-11642619D01*
X19167381Y-11640238D01*
X19172143Y-11635476D01*
X19174524Y-11630714D01*
X19176905Y-11621190D01*
X19176905Y-11614048D01*
X19174524Y-11604524D01*
X19172143Y-11599762D01*
X19167381Y-11595000D01*
X19160238Y-11592619D01*
X19155476Y-11592619D01*
X19148333Y-11595000D01*
X19145952Y-11597381D01*
X19126905Y-11597381D02*
X19124524Y-11595000D01*
X19119762Y-11592619D01*
X19107857Y-11592619D01*
X19103095Y-11595000D01*
X19100714Y-11597381D01*
X19098333Y-11602143D01*
X19098333Y-11606905D01*
X19100714Y-11614048D01*
X19129286Y-11642619D01*
X19098333Y-11642619D01*
X19067381Y-11592619D02*
X19062619Y-11592619D01*
X19057857Y-11595000D01*
X19055476Y-11597381D01*
X19053095Y-11602143D01*
X19050714Y-11611667D01*
X19050714Y-11623571D01*
X19053095Y-11633095D01*
X19055476Y-11637857D01*
X19057857Y-11640238D01*
X19062619Y-11642619D01*
X19067381Y-11642619D01*
X19072143Y-11640238D01*
X19074524Y-11637857D01*
X19076905Y-11633095D01*
X19079286Y-11623571D01*
X19079286Y-11611667D01*
X19076905Y-11602143D01*
X19074524Y-11597381D01*
X19072143Y-11595000D01*
X19067381Y-11592619D01*
X19005476Y-11592619D02*
X19029286Y-11592619D01*
X19031667Y-11616428D01*
X19029286Y-11614048D01*
X19024524Y-11611667D01*
X19012619Y-11611667D01*
X19007857Y-11614048D01*
X19005476Y-11616428D01*
X19003095Y-11621190D01*
X19003095Y-11633095D01*
X19005476Y-11637857D01*
X19007857Y-11640238D01*
X19012619Y-11642619D01*
X19024524Y-11642619D01*
X19029286Y-11640238D01*
X19031667Y-11637857D01*
X16157857Y-10514048D02*
X16160238Y-10511667D01*
X16162619Y-10504524D01*
X16162619Y-10499762D01*
X16160238Y-10492619D01*
X16155476Y-10487857D01*
X16150714Y-10485476D01*
X16141190Y-10483095D01*
X16134048Y-10483095D01*
X16124524Y-10485476D01*
X16119762Y-10487857D01*
X16115000Y-10492619D01*
X16112619Y-10499762D01*
X16112619Y-10504524D01*
X16115000Y-10511667D01*
X16117381Y-10514048D01*
X16129286Y-10556905D02*
X16162619Y-10556905D01*
X16110238Y-10545000D02*
X16145952Y-10533095D01*
X16145952Y-10564048D01*
X16112619Y-10592619D02*
X16112619Y-10597381D01*
X16115000Y-10602143D01*
X16117381Y-10604524D01*
X16122143Y-10606905D01*
X16131667Y-10609286D01*
X16143571Y-10609286D01*
X16153095Y-10606905D01*
X16157857Y-10604524D01*
X16160238Y-10602143D01*
X16162619Y-10597381D01*
X16162619Y-10592619D01*
X16160238Y-10587857D01*
X16157857Y-10585476D01*
X16153095Y-10583095D01*
X16143571Y-10580714D01*
X16131667Y-10580714D01*
X16122143Y-10583095D01*
X16117381Y-10585476D01*
X16115000Y-10587857D01*
X16112619Y-10592619D01*
X16162619Y-10656905D02*
X16162619Y-10628333D01*
X16162619Y-10642619D02*
X16112619Y-10642619D01*
X16119762Y-10637857D01*
X16124524Y-10633095D01*
X16126905Y-10628333D01*
X15407857Y-10414048D02*
X15410238Y-10411667D01*
X15412619Y-10404524D01*
X15412619Y-10399762D01*
X15410238Y-10392619D01*
X15405476Y-10387857D01*
X15400714Y-10385476D01*
X15391190Y-10383095D01*
X15384048Y-10383095D01*
X15374524Y-10385476D01*
X15369762Y-10387857D01*
X15365000Y-10392619D01*
X15362619Y-10399762D01*
X15362619Y-10404524D01*
X15365000Y-10411667D01*
X15367381Y-10414048D01*
X15379286Y-10456905D02*
X15412619Y-10456905D01*
X15360238Y-10445000D02*
X15395952Y-10433095D01*
X15395952Y-10464048D01*
X15362619Y-10492619D02*
X15362619Y-10497381D01*
X15365000Y-10502143D01*
X15367381Y-10504524D01*
X15372143Y-10506905D01*
X15381667Y-10509286D01*
X15393571Y-10509286D01*
X15403095Y-10506905D01*
X15407857Y-10504524D01*
X15410238Y-10502143D01*
X15412619Y-10497381D01*
X15412619Y-10492619D01*
X15410238Y-10487857D01*
X15407857Y-10485476D01*
X15403095Y-10483095D01*
X15393571Y-10480714D01*
X15381667Y-10480714D01*
X15372143Y-10483095D01*
X15367381Y-10485476D01*
X15365000Y-10487857D01*
X15362619Y-10492619D01*
X15367381Y-10528333D02*
X15365000Y-10530714D01*
X15362619Y-10535476D01*
X15362619Y-10547381D01*
X15365000Y-10552143D01*
X15367381Y-10554524D01*
X15372143Y-10556905D01*
X15376905Y-10556905D01*
X15384048Y-10554524D01*
X15412619Y-10525952D01*
X15412619Y-10556905D01*
X16555552Y-9850257D02*
X16557933Y-9852638D01*
X16565076Y-9855019D01*
X16569838Y-9855019D01*
X16576981Y-9852638D01*
X16581743Y-9847876D01*
X16584124Y-9843114D01*
X16586505Y-9833590D01*
X16586505Y-9826448D01*
X16584124Y-9816924D01*
X16581743Y-9812162D01*
X16576981Y-9807400D01*
X16569838Y-9805019D01*
X16565076Y-9805019D01*
X16557933Y-9807400D01*
X16555552Y-9809781D01*
X16512695Y-9821686D02*
X16512695Y-9855019D01*
X16524600Y-9802638D02*
X16536505Y-9838352D01*
X16505552Y-9838352D01*
X16476981Y-9805019D02*
X16472219Y-9805019D01*
X16467457Y-9807400D01*
X16465076Y-9809781D01*
X16462695Y-9814543D01*
X16460314Y-9824067D01*
X16460314Y-9835971D01*
X16462695Y-9845495D01*
X16465076Y-9850257D01*
X16467457Y-9852638D01*
X16472219Y-9855019D01*
X16476981Y-9855019D01*
X16481743Y-9852638D01*
X16484124Y-9850257D01*
X16486505Y-9845495D01*
X16488886Y-9835971D01*
X16488886Y-9824067D01*
X16486505Y-9814543D01*
X16484124Y-9809781D01*
X16481743Y-9807400D01*
X16476981Y-9805019D01*
X16443648Y-9805019D02*
X16412695Y-9805019D01*
X16429362Y-9824067D01*
X16422219Y-9824067D01*
X16417457Y-9826448D01*
X16415076Y-9828829D01*
X16412695Y-9833590D01*
X16412695Y-9845495D01*
X16415076Y-9850257D01*
X16417457Y-9852638D01*
X16422219Y-9855019D01*
X16436505Y-9855019D01*
X16441267Y-9852638D01*
X16443648Y-9850257D01*
X16428552Y-10294757D02*
X16430933Y-10297138D01*
X16438076Y-10299519D01*
X16442838Y-10299519D01*
X16449981Y-10297138D01*
X16454743Y-10292376D01*
X16457124Y-10287614D01*
X16459505Y-10278090D01*
X16459505Y-10270948D01*
X16457124Y-10261424D01*
X16454743Y-10256662D01*
X16449981Y-10251900D01*
X16442838Y-10249519D01*
X16438076Y-10249519D01*
X16430933Y-10251900D01*
X16428552Y-10254281D01*
X16385695Y-10266186D02*
X16385695Y-10299519D01*
X16397600Y-10247138D02*
X16409505Y-10282852D01*
X16378552Y-10282852D01*
X16349981Y-10249519D02*
X16345219Y-10249519D01*
X16340457Y-10251900D01*
X16338076Y-10254281D01*
X16335695Y-10259043D01*
X16333314Y-10268567D01*
X16333314Y-10280471D01*
X16335695Y-10289995D01*
X16338076Y-10294757D01*
X16340457Y-10297138D01*
X16345219Y-10299519D01*
X16349981Y-10299519D01*
X16354743Y-10297138D01*
X16357124Y-10294757D01*
X16359505Y-10289995D01*
X16361886Y-10280471D01*
X16361886Y-10268567D01*
X16359505Y-10259043D01*
X16357124Y-10254281D01*
X16354743Y-10251900D01*
X16349981Y-10249519D01*
X16290457Y-10266186D02*
X16290457Y-10299519D01*
X16302362Y-10247138D02*
X16314267Y-10282852D01*
X16283314Y-10282852D01*
X15970952Y-12392857D02*
X15973333Y-12395238D01*
X15980476Y-12397619D01*
X15985238Y-12397619D01*
X15992381Y-12395238D01*
X15997143Y-12390476D01*
X15999524Y-12385714D01*
X16001905Y-12376190D01*
X16001905Y-12369048D01*
X15999524Y-12359524D01*
X15997143Y-12354762D01*
X15992381Y-12350000D01*
X15985238Y-12347619D01*
X15980476Y-12347619D01*
X15973333Y-12350000D01*
X15970952Y-12352381D01*
X15928095Y-12364286D02*
X15928095Y-12397619D01*
X15940000Y-12345238D02*
X15951905Y-12380952D01*
X15920952Y-12380952D01*
X15892381Y-12347619D02*
X15887619Y-12347619D01*
X15882857Y-12350000D01*
X15880476Y-12352381D01*
X15878095Y-12357143D01*
X15875714Y-12366667D01*
X15875714Y-12378571D01*
X15878095Y-12388095D01*
X15880476Y-12392857D01*
X15882857Y-12395238D01*
X15887619Y-12397619D01*
X15892381Y-12397619D01*
X15897143Y-12395238D01*
X15899524Y-12392857D01*
X15901905Y-12388095D01*
X15904286Y-12378571D01*
X15904286Y-12366667D01*
X15901905Y-12357143D01*
X15899524Y-12352381D01*
X15897143Y-12350000D01*
X15892381Y-12347619D01*
X15832857Y-12347619D02*
X15842381Y-12347619D01*
X15847143Y-12350000D01*
X15849524Y-12352381D01*
X15854286Y-12359524D01*
X15856667Y-12369048D01*
X15856667Y-12388095D01*
X15854286Y-12392857D01*
X15851905Y-12395238D01*
X15847143Y-12397619D01*
X15837619Y-12397619D01*
X15832857Y-12395238D01*
X15830476Y-12392857D01*
X15828095Y-12388095D01*
X15828095Y-12376190D01*
X15830476Y-12371428D01*
X15832857Y-12369048D01*
X15837619Y-12366667D01*
X15847143Y-12366667D01*
X15851905Y-12369048D01*
X15854286Y-12371428D01*
X15856667Y-12376190D01*
X17127857Y-5974048D02*
X17130238Y-5971667D01*
X17132619Y-5964524D01*
X17132619Y-5959762D01*
X17130238Y-5952619D01*
X17125476Y-5947857D01*
X17120714Y-5945476D01*
X17111190Y-5943095D01*
X17104048Y-5943095D01*
X17094524Y-5945476D01*
X17089762Y-5947857D01*
X17085000Y-5952619D01*
X17082619Y-5959762D01*
X17082619Y-5964524D01*
X17085000Y-5971667D01*
X17087381Y-5974048D01*
X17082619Y-6019286D02*
X17082619Y-5995476D01*
X17106429Y-5993095D01*
X17104048Y-5995476D01*
X17101667Y-6000238D01*
X17101667Y-6012143D01*
X17104048Y-6016905D01*
X17106429Y-6019286D01*
X17111190Y-6021667D01*
X17123095Y-6021667D01*
X17127857Y-6019286D01*
X17130238Y-6016905D01*
X17132619Y-6012143D01*
X17132619Y-6000238D01*
X17130238Y-5995476D01*
X17127857Y-5993095D01*
X17082619Y-6052619D02*
X17082619Y-6057381D01*
X17085000Y-6062143D01*
X17087381Y-6064524D01*
X17092143Y-6066905D01*
X17101667Y-6069286D01*
X17113571Y-6069286D01*
X17123095Y-6066905D01*
X17127857Y-6064524D01*
X17130238Y-6062143D01*
X17132619Y-6057381D01*
X17132619Y-6052619D01*
X17130238Y-6047857D01*
X17127857Y-6045476D01*
X17123095Y-6043095D01*
X17113571Y-6040714D01*
X17101667Y-6040714D01*
X17092143Y-6043095D01*
X17087381Y-6045476D01*
X17085000Y-6047857D01*
X17082619Y-6052619D01*
X17087381Y-6088333D02*
X17085000Y-6090714D01*
X17082619Y-6095476D01*
X17082619Y-6107381D01*
X17085000Y-6112143D01*
X17087381Y-6114524D01*
X17092143Y-6116905D01*
X17096905Y-6116905D01*
X17104048Y-6114524D01*
X17132619Y-6085952D01*
X17132619Y-6116905D01*
X17527857Y-6771548D02*
X17530238Y-6769167D01*
X17532619Y-6762024D01*
X17532619Y-6757262D01*
X17530238Y-6750119D01*
X17525476Y-6745357D01*
X17520714Y-6742976D01*
X17511190Y-6740595D01*
X17504048Y-6740595D01*
X17494524Y-6742976D01*
X17489762Y-6745357D01*
X17485000Y-6750119D01*
X17482619Y-6757262D01*
X17482619Y-6762024D01*
X17485000Y-6769167D01*
X17487381Y-6771548D01*
X17482619Y-6816786D02*
X17482619Y-6792976D01*
X17506429Y-6790595D01*
X17504048Y-6792976D01*
X17501667Y-6797738D01*
X17501667Y-6809643D01*
X17504048Y-6814405D01*
X17506429Y-6816786D01*
X17511190Y-6819167D01*
X17523095Y-6819167D01*
X17527857Y-6816786D01*
X17530238Y-6814405D01*
X17532619Y-6809643D01*
X17532619Y-6797738D01*
X17530238Y-6792976D01*
X17527857Y-6790595D01*
X17482619Y-6850119D02*
X17482619Y-6854881D01*
X17485000Y-6859643D01*
X17487381Y-6862024D01*
X17492143Y-6864405D01*
X17501667Y-6866786D01*
X17513571Y-6866786D01*
X17523095Y-6864405D01*
X17527857Y-6862024D01*
X17530238Y-6859643D01*
X17532619Y-6854881D01*
X17532619Y-6850119D01*
X17530238Y-6845357D01*
X17527857Y-6842976D01*
X17523095Y-6840595D01*
X17513571Y-6838214D01*
X17501667Y-6838214D01*
X17492143Y-6840595D01*
X17487381Y-6842976D01*
X17485000Y-6845357D01*
X17482619Y-6850119D01*
X17482619Y-6883452D02*
X17482619Y-6914405D01*
X17501667Y-6897738D01*
X17501667Y-6904881D01*
X17504048Y-6909643D01*
X17506429Y-6912024D01*
X17511190Y-6914405D01*
X17523095Y-6914405D01*
X17527857Y-6912024D01*
X17530238Y-6909643D01*
X17532619Y-6904881D01*
X17532619Y-6890595D01*
X17530238Y-6885833D01*
X17527857Y-6883452D01*
D12*
X16461548Y-12510238D02*
X16461548Y-12410238D01*
X16437738Y-12410238D01*
X16423452Y-12415000D01*
X16413928Y-12424524D01*
X16409167Y-12434048D01*
X16404405Y-12453095D01*
X16404405Y-12467381D01*
X16409167Y-12486428D01*
X16413928Y-12495952D01*
X16423452Y-12505476D01*
X16437738Y-12510238D01*
X16461548Y-12510238D01*
X16318690Y-12443571D02*
X16318690Y-12510238D01*
X16342500Y-12405476D02*
X16366309Y-12476905D01*
X16304405Y-12476905D01*
X16247262Y-12410238D02*
X16237738Y-12410238D01*
X16228214Y-12415000D01*
X16223452Y-12419762D01*
X16218690Y-12429286D01*
X16213928Y-12448333D01*
X16213928Y-12472143D01*
X16218690Y-12491190D01*
X16223452Y-12500714D01*
X16228214Y-12505476D01*
X16237738Y-12510238D01*
X16247262Y-12510238D01*
X16256786Y-12505476D01*
X16261548Y-12500714D01*
X16266309Y-12491190D01*
X16271071Y-12472143D01*
X16271071Y-12448333D01*
X16266309Y-12429286D01*
X16261548Y-12419762D01*
X16256786Y-12415000D01*
X16247262Y-12410238D01*
X16118690Y-12510238D02*
X16175833Y-12510238D01*
X16147262Y-12510238D02*
X16147262Y-12410238D01*
X16156786Y-12424524D01*
X16166309Y-12434048D01*
X16175833Y-12438809D01*
X21779048Y-5900238D02*
X21779048Y-5800238D01*
X21755238Y-5800238D01*
X21740952Y-5805000D01*
X21731429Y-5814524D01*
X21726667Y-5824048D01*
X21721905Y-5843095D01*
X21721905Y-5857381D01*
X21726667Y-5876428D01*
X21731429Y-5885952D01*
X21740952Y-5895476D01*
X21755238Y-5900238D01*
X21779048Y-5900238D01*
X21631429Y-5800238D02*
X21679048Y-5800238D01*
X21683810Y-5847857D01*
X21679048Y-5843095D01*
X21669524Y-5838333D01*
X21645714Y-5838333D01*
X21636190Y-5843095D01*
X21631429Y-5847857D01*
X21626667Y-5857381D01*
X21626667Y-5881190D01*
X21631429Y-5890714D01*
X21636190Y-5895476D01*
X21645714Y-5900238D01*
X21669524Y-5900238D01*
X21679048Y-5895476D01*
X21683810Y-5890714D01*
X21564762Y-5800238D02*
X21555238Y-5800238D01*
X21545714Y-5805000D01*
X21540952Y-5809762D01*
X21536190Y-5819286D01*
X21531429Y-5838333D01*
X21531429Y-5862143D01*
X21536190Y-5881190D01*
X21540952Y-5890714D01*
X21545714Y-5895476D01*
X21555238Y-5900238D01*
X21564762Y-5900238D01*
X21574286Y-5895476D01*
X21579048Y-5890714D01*
X21583810Y-5881190D01*
X21588571Y-5862143D01*
X21588571Y-5838333D01*
X21583810Y-5819286D01*
X21579048Y-5809762D01*
X21574286Y-5805000D01*
X21564762Y-5800238D01*
X21436190Y-5900238D02*
X21493333Y-5900238D01*
X21464762Y-5900238D02*
X21464762Y-5800238D01*
X21474286Y-5814524D01*
X21483810Y-5824048D01*
X21493333Y-5828809D01*
X18261429Y-11815238D02*
X18261429Y-11896190D01*
X18256667Y-11905714D01*
X18251905Y-11910476D01*
X18242381Y-11915238D01*
X18223333Y-11915238D01*
X18213810Y-11910476D01*
X18209048Y-11905714D01*
X18204286Y-11896190D01*
X18204286Y-11815238D01*
X18161429Y-11824762D02*
X18156667Y-11820000D01*
X18147143Y-11815238D01*
X18123333Y-11815238D01*
X18113810Y-11820000D01*
X18109048Y-11824762D01*
X18104286Y-11834286D01*
X18104286Y-11843809D01*
X18109048Y-11858095D01*
X18166190Y-11915238D01*
X18104286Y-11915238D01*
X18042381Y-11815238D02*
X18032857Y-11815238D01*
X18023333Y-11820000D01*
X18018571Y-11824762D01*
X18013810Y-11834286D01*
X18009048Y-11853333D01*
X18009048Y-11877143D01*
X18013810Y-11896190D01*
X18018571Y-11905714D01*
X18023333Y-11910476D01*
X18032857Y-11915238D01*
X18042381Y-11915238D01*
X18051905Y-11910476D01*
X18056667Y-11905714D01*
X18061429Y-11896190D01*
X18066190Y-11877143D01*
X18066190Y-11853333D01*
X18061429Y-11834286D01*
X18056667Y-11824762D01*
X18051905Y-11820000D01*
X18042381Y-11815238D01*
X17913810Y-11915238D02*
X17970952Y-11915238D01*
X17942381Y-11915238D02*
X17942381Y-11815238D01*
X17951905Y-11829524D01*
X17961429Y-11839048D01*
X17970952Y-11843809D01*
D13*
X19345952Y-11442619D02*
X19362619Y-11418809D01*
X19374524Y-11442619D02*
X19374524Y-11392619D01*
X19355476Y-11392619D01*
X19350714Y-11395000D01*
X19348333Y-11397381D01*
X19345952Y-11402143D01*
X19345952Y-11409286D01*
X19348333Y-11414048D01*
X19350714Y-11416428D01*
X19355476Y-11418809D01*
X19374524Y-11418809D01*
X19326905Y-11397381D02*
X19324524Y-11395000D01*
X19319762Y-11392619D01*
X19307857Y-11392619D01*
X19303095Y-11395000D01*
X19300714Y-11397381D01*
X19298333Y-11402143D01*
X19298333Y-11406905D01*
X19300714Y-11414048D01*
X19329286Y-11442619D01*
X19298333Y-11442619D01*
X19267381Y-11392619D02*
X19262619Y-11392619D01*
X19257857Y-11395000D01*
X19255476Y-11397381D01*
X19253095Y-11402143D01*
X19250714Y-11411667D01*
X19250714Y-11423571D01*
X19253095Y-11433095D01*
X19255476Y-11437857D01*
X19257857Y-11440238D01*
X19262619Y-11442619D01*
X19267381Y-11442619D01*
X19272143Y-11440238D01*
X19274524Y-11437857D01*
X19276905Y-11433095D01*
X19279286Y-11423571D01*
X19279286Y-11411667D01*
X19276905Y-11402143D01*
X19274524Y-11397381D01*
X19272143Y-11395000D01*
X19267381Y-11392619D01*
X19234048Y-11392619D02*
X19203095Y-11392619D01*
X19219762Y-11411667D01*
X19212619Y-11411667D01*
X19207857Y-11414048D01*
X19205476Y-11416428D01*
X19203095Y-11421190D01*
X19203095Y-11433095D01*
X19205476Y-11437857D01*
X19207857Y-11440238D01*
X19212619Y-11442619D01*
X19226905Y-11442619D01*
X19231667Y-11440238D01*
X19234048Y-11437857D01*
X18295952Y-12292619D02*
X18312619Y-12268809D01*
X18324524Y-12292619D02*
X18324524Y-12242619D01*
X18305476Y-12242619D01*
X18300714Y-12245000D01*
X18298333Y-12247381D01*
X18295952Y-12252143D01*
X18295952Y-12259286D01*
X18298333Y-12264048D01*
X18300714Y-12266428D01*
X18305476Y-12268809D01*
X18324524Y-12268809D01*
X18276905Y-12247381D02*
X18274524Y-12245000D01*
X18269762Y-12242619D01*
X18257857Y-12242619D01*
X18253095Y-12245000D01*
X18250714Y-12247381D01*
X18248333Y-12252143D01*
X18248333Y-12256905D01*
X18250714Y-12264048D01*
X18279286Y-12292619D01*
X18248333Y-12292619D01*
X18217381Y-12242619D02*
X18212619Y-12242619D01*
X18207857Y-12245000D01*
X18205476Y-12247381D01*
X18203095Y-12252143D01*
X18200714Y-12261667D01*
X18200714Y-12273571D01*
X18203095Y-12283095D01*
X18205476Y-12287857D01*
X18207857Y-12290238D01*
X18212619Y-12292619D01*
X18217381Y-12292619D01*
X18222143Y-12290238D01*
X18224524Y-12287857D01*
X18226905Y-12283095D01*
X18229286Y-12273571D01*
X18229286Y-12261667D01*
X18226905Y-12252143D01*
X18224524Y-12247381D01*
X18222143Y-12245000D01*
X18217381Y-12242619D01*
X18181667Y-12247381D02*
X18179286Y-12245000D01*
X18174524Y-12242619D01*
X18162619Y-12242619D01*
X18157857Y-12245000D01*
X18155476Y-12247381D01*
X18153095Y-12252143D01*
X18153095Y-12256905D01*
X18155476Y-12264048D01*
X18184048Y-12292619D01*
X18153095Y-12292619D01*
X19962619Y-11814048D02*
X19938810Y-11797381D01*
X19962619Y-11785476D02*
X19912619Y-11785476D01*
X19912619Y-11804524D01*
X19915000Y-11809286D01*
X19917381Y-11811667D01*
X19922143Y-11814048D01*
X19929286Y-11814048D01*
X19934048Y-11811667D01*
X19936429Y-11809286D01*
X19938810Y-11804524D01*
X19938810Y-11785476D01*
X19917381Y-11833095D02*
X19915000Y-11835476D01*
X19912619Y-11840238D01*
X19912619Y-11852143D01*
X19915000Y-11856905D01*
X19917381Y-11859286D01*
X19922143Y-11861667D01*
X19926905Y-11861667D01*
X19934048Y-11859286D01*
X19962619Y-11830714D01*
X19962619Y-11861667D01*
X19912619Y-11892619D02*
X19912619Y-11897381D01*
X19915000Y-11902143D01*
X19917381Y-11904524D01*
X19922143Y-11906905D01*
X19931667Y-11909286D01*
X19943571Y-11909286D01*
X19953095Y-11906905D01*
X19957857Y-11904524D01*
X19960238Y-11902143D01*
X19962619Y-11897381D01*
X19962619Y-11892619D01*
X19960238Y-11887857D01*
X19957857Y-11885476D01*
X19953095Y-11883095D01*
X19943571Y-11880714D01*
X19931667Y-11880714D01*
X19922143Y-11883095D01*
X19917381Y-11885476D01*
X19915000Y-11887857D01*
X19912619Y-11892619D01*
X19962619Y-11956905D02*
X19962619Y-11928333D01*
X19962619Y-11942619D02*
X19912619Y-11942619D01*
X19919762Y-11937857D01*
X19924524Y-11933095D01*
X19926905Y-11928333D01*
X16637952Y-12392619D02*
X16654619Y-12368809D01*
X16666524Y-12392619D02*
X16666524Y-12342619D01*
X16647476Y-12342619D01*
X16642714Y-12345000D01*
X16640333Y-12347381D01*
X16637952Y-12352143D01*
X16637952Y-12359286D01*
X16640333Y-12364048D01*
X16642714Y-12366428D01*
X16647476Y-12368809D01*
X16666524Y-12368809D01*
X16595095Y-12359286D02*
X16595095Y-12392619D01*
X16607000Y-12340238D02*
X16618905Y-12375952D01*
X16587952Y-12375952D01*
X16559381Y-12342619D02*
X16554619Y-12342619D01*
X16549857Y-12345000D01*
X16547476Y-12347381D01*
X16545095Y-12352143D01*
X16542714Y-12361667D01*
X16542714Y-12373571D01*
X16545095Y-12383095D01*
X16547476Y-12387857D01*
X16549857Y-12390238D01*
X16554619Y-12392619D01*
X16559381Y-12392619D01*
X16564143Y-12390238D01*
X16566524Y-12387857D01*
X16568905Y-12383095D01*
X16571286Y-12373571D01*
X16571286Y-12361667D01*
X16568905Y-12352143D01*
X16566524Y-12347381D01*
X16564143Y-12345000D01*
X16559381Y-12342619D01*
X16495095Y-12392619D02*
X16523667Y-12392619D01*
X16509381Y-12392619D02*
X16509381Y-12342619D01*
X16514143Y-12349762D01*
X16518905Y-12354524D01*
X16523667Y-12356905D01*
X16428552Y-11887019D02*
X16445219Y-11863209D01*
X16457124Y-11887019D02*
X16457124Y-11837019D01*
X16438076Y-11837019D01*
X16433314Y-11839400D01*
X16430933Y-11841781D01*
X16428552Y-11846543D01*
X16428552Y-11853686D01*
X16430933Y-11858448D01*
X16433314Y-11860828D01*
X16438076Y-11863209D01*
X16457124Y-11863209D01*
X16385695Y-11853686D02*
X16385695Y-11887019D01*
X16397600Y-11834638D02*
X16409505Y-11870352D01*
X16378552Y-11870352D01*
X16349981Y-11837019D02*
X16345219Y-11837019D01*
X16340457Y-11839400D01*
X16338076Y-11841781D01*
X16335695Y-11846543D01*
X16333314Y-11856067D01*
X16333314Y-11867971D01*
X16335695Y-11877495D01*
X16338076Y-11882257D01*
X16340457Y-11884638D01*
X16345219Y-11887019D01*
X16349981Y-11887019D01*
X16354743Y-11884638D01*
X16357124Y-11882257D01*
X16359505Y-11877495D01*
X16361886Y-11867971D01*
X16361886Y-11856067D01*
X16359505Y-11846543D01*
X16357124Y-11841781D01*
X16354743Y-11839400D01*
X16349981Y-11837019D01*
X16314267Y-11841781D02*
X16311886Y-11839400D01*
X16307124Y-11837019D01*
X16295219Y-11837019D01*
X16290457Y-11839400D01*
X16288076Y-11841781D01*
X16285695Y-11846543D01*
X16285695Y-11851305D01*
X16288076Y-11858448D01*
X16316648Y-11887019D01*
X16285695Y-11887019D01*
X16428552Y-11633019D02*
X16445219Y-11609209D01*
X16457124Y-11633019D02*
X16457124Y-11583019D01*
X16438076Y-11583019D01*
X16433314Y-11585400D01*
X16430933Y-11587781D01*
X16428552Y-11592543D01*
X16428552Y-11599686D01*
X16430933Y-11604448D01*
X16433314Y-11606828D01*
X16438076Y-11609209D01*
X16457124Y-11609209D01*
X16385695Y-11599686D02*
X16385695Y-11633019D01*
X16397600Y-11580638D02*
X16409505Y-11616352D01*
X16378552Y-11616352D01*
X16349981Y-11583019D02*
X16345219Y-11583019D01*
X16340457Y-11585400D01*
X16338076Y-11587781D01*
X16335695Y-11592543D01*
X16333314Y-11602067D01*
X16333314Y-11613971D01*
X16335695Y-11623495D01*
X16338076Y-11628257D01*
X16340457Y-11630638D01*
X16345219Y-11633019D01*
X16349981Y-11633019D01*
X16354743Y-11630638D01*
X16357124Y-11628257D01*
X16359505Y-11623495D01*
X16361886Y-11613971D01*
X16361886Y-11602067D01*
X16359505Y-11592543D01*
X16357124Y-11587781D01*
X16354743Y-11585400D01*
X16349981Y-11583019D01*
X16316648Y-11583019D02*
X16285695Y-11583019D01*
X16302362Y-11602067D01*
X16295219Y-11602067D01*
X16290457Y-11604448D01*
X16288076Y-11606828D01*
X16285695Y-11611590D01*
X16285695Y-11623495D01*
X16288076Y-11628257D01*
X16290457Y-11630638D01*
X16295219Y-11633019D01*
X16309505Y-11633019D01*
X16314267Y-11630638D01*
X16316648Y-11628257D01*
D12*
X19435238Y-10998571D02*
X19435238Y-11055714D01*
X19535238Y-11027143D02*
X19435238Y-11027143D01*
X19535238Y-11089048D02*
X19435238Y-11089048D01*
X19435238Y-11127143D01*
X19440000Y-11136667D01*
X19444762Y-11141429D01*
X19454286Y-11146190D01*
X19468571Y-11146190D01*
X19478095Y-11141429D01*
X19482857Y-11136667D01*
X19487619Y-11127143D01*
X19487619Y-11089048D01*
X19444762Y-11184286D02*
X19440000Y-11189048D01*
X19435238Y-11198571D01*
X19435238Y-11222381D01*
X19440000Y-11231905D01*
X19444762Y-11236667D01*
X19454286Y-11241428D01*
X19463810Y-11241428D01*
X19478095Y-11236667D01*
X19535238Y-11179524D01*
X19535238Y-11241428D01*
X19435238Y-11303333D02*
X19435238Y-11312857D01*
X19440000Y-11322381D01*
X19444762Y-11327143D01*
X19454286Y-11331905D01*
X19473333Y-11336667D01*
X19497143Y-11336667D01*
X19516190Y-11331905D01*
X19525714Y-11327143D01*
X19530476Y-11322381D01*
X19535238Y-11312857D01*
X19535238Y-11303333D01*
X19530476Y-11293809D01*
X19525714Y-11289048D01*
X19516190Y-11284286D01*
X19497143Y-11279524D01*
X19473333Y-11279524D01*
X19454286Y-11284286D01*
X19444762Y-11289048D01*
X19440000Y-11293809D01*
X19435238Y-11303333D01*
X19435238Y-11427143D02*
X19435238Y-11379524D01*
X19482857Y-11374762D01*
X19478095Y-11379524D01*
X19473333Y-11389048D01*
X19473333Y-11412857D01*
X19478095Y-11422381D01*
X19482857Y-11427143D01*
X19492381Y-11431905D01*
X19516190Y-11431905D01*
X19525714Y-11427143D01*
X19530476Y-11422381D01*
X19535238Y-11412857D01*
X19535238Y-11389048D01*
X19530476Y-11379524D01*
X19525714Y-11374762D01*
X19435238Y-10098571D02*
X19435238Y-10155714D01*
X19535238Y-10127143D02*
X19435238Y-10127143D01*
X19535238Y-10189048D02*
X19435238Y-10189048D01*
X19435238Y-10227143D01*
X19440000Y-10236667D01*
X19444762Y-10241429D01*
X19454286Y-10246190D01*
X19468571Y-10246190D01*
X19478095Y-10241429D01*
X19482857Y-10236667D01*
X19487619Y-10227143D01*
X19487619Y-10189048D01*
X19444762Y-10284286D02*
X19440000Y-10289048D01*
X19435238Y-10298571D01*
X19435238Y-10322381D01*
X19440000Y-10331905D01*
X19444762Y-10336667D01*
X19454286Y-10341429D01*
X19463810Y-10341429D01*
X19478095Y-10336667D01*
X19535238Y-10279524D01*
X19535238Y-10341429D01*
X19435238Y-10403333D02*
X19435238Y-10412857D01*
X19440000Y-10422381D01*
X19444762Y-10427143D01*
X19454286Y-10431905D01*
X19473333Y-10436667D01*
X19497143Y-10436667D01*
X19516190Y-10431905D01*
X19525714Y-10427143D01*
X19530476Y-10422381D01*
X19535238Y-10412857D01*
X19535238Y-10403333D01*
X19530476Y-10393810D01*
X19525714Y-10389048D01*
X19516190Y-10384286D01*
X19497143Y-10379524D01*
X19473333Y-10379524D01*
X19454286Y-10384286D01*
X19444762Y-10389048D01*
X19440000Y-10393810D01*
X19435238Y-10403333D01*
X19435238Y-10522381D02*
X19435238Y-10503333D01*
X19440000Y-10493810D01*
X19444762Y-10489048D01*
X19459048Y-10479524D01*
X19478095Y-10474762D01*
X19516190Y-10474762D01*
X19525714Y-10479524D01*
X19530476Y-10484286D01*
X19535238Y-10493810D01*
X19535238Y-10512857D01*
X19530476Y-10522381D01*
X19525714Y-10527143D01*
X19516190Y-10531905D01*
X19492381Y-10531905D01*
X19482857Y-10527143D01*
X19478095Y-10522381D01*
X19473333Y-10512857D01*
X19473333Y-10493810D01*
X19478095Y-10484286D01*
X19482857Y-10479524D01*
X19492381Y-10474762D01*
X19861429Y-12165238D02*
X19804286Y-12165238D01*
X19832857Y-12265238D02*
X19832857Y-12165238D01*
X19770952Y-12265238D02*
X19770952Y-12165238D01*
X19732857Y-12165238D01*
X19723333Y-12170000D01*
X19718571Y-12174762D01*
X19713810Y-12184286D01*
X19713810Y-12198571D01*
X19718571Y-12208095D01*
X19723333Y-12212857D01*
X19732857Y-12217619D01*
X19770952Y-12217619D01*
X19675714Y-12174762D02*
X19670952Y-12170000D01*
X19661429Y-12165238D01*
X19637619Y-12165238D01*
X19628095Y-12170000D01*
X19623333Y-12174762D01*
X19618571Y-12184286D01*
X19618571Y-12193809D01*
X19623333Y-12208095D01*
X19680476Y-12265238D01*
X19618571Y-12265238D01*
X19556667Y-12165238D02*
X19547143Y-12165238D01*
X19537619Y-12170000D01*
X19532857Y-12174762D01*
X19528095Y-12184286D01*
X19523333Y-12203333D01*
X19523333Y-12227143D01*
X19528095Y-12246190D01*
X19532857Y-12255714D01*
X19537619Y-12260476D01*
X19547143Y-12265238D01*
X19556667Y-12265238D01*
X19566190Y-12260476D01*
X19570952Y-12255714D01*
X19575714Y-12246190D01*
X19580476Y-12227143D01*
X19580476Y-12203333D01*
X19575714Y-12184286D01*
X19570952Y-12174762D01*
X19566190Y-12170000D01*
X19556667Y-12165238D01*
X19490000Y-12165238D02*
X19423333Y-12165238D01*
X19466190Y-12265238D01*
X19861429Y-11865238D02*
X19804286Y-11865238D01*
X19832857Y-11965238D02*
X19832857Y-11865238D01*
X19770952Y-11965238D02*
X19770952Y-11865238D01*
X19732857Y-11865238D01*
X19723333Y-11870000D01*
X19718571Y-11874762D01*
X19713810Y-11884286D01*
X19713810Y-11898571D01*
X19718571Y-11908095D01*
X19723333Y-11912857D01*
X19732857Y-11917619D01*
X19770952Y-11917619D01*
X19675714Y-11874762D02*
X19670952Y-11870000D01*
X19661429Y-11865238D01*
X19637619Y-11865238D01*
X19628095Y-11870000D01*
X19623333Y-11874762D01*
X19618571Y-11884286D01*
X19618571Y-11893809D01*
X19623333Y-11908095D01*
X19680476Y-11965238D01*
X19618571Y-11965238D01*
X19556667Y-11865238D02*
X19547143Y-11865238D01*
X19537619Y-11870000D01*
X19532857Y-11874762D01*
X19528095Y-11884286D01*
X19523333Y-11903333D01*
X19523333Y-11927143D01*
X19528095Y-11946190D01*
X19532857Y-11955714D01*
X19537619Y-11960476D01*
X19547143Y-11965238D01*
X19556667Y-11965238D01*
X19566190Y-11960476D01*
X19570952Y-11955714D01*
X19575714Y-11946190D01*
X19580476Y-11927143D01*
X19580476Y-11903333D01*
X19575714Y-11884286D01*
X19570952Y-11874762D01*
X19566190Y-11870000D01*
X19556667Y-11865238D01*
X19466190Y-11908095D02*
X19475714Y-11903333D01*
X19480476Y-11898571D01*
X19485238Y-11889048D01*
X19485238Y-11884286D01*
X19480476Y-11874762D01*
X19475714Y-11870000D01*
X19466190Y-11865238D01*
X19447143Y-11865238D01*
X19437619Y-11870000D01*
X19432857Y-11874762D01*
X19428095Y-11884286D01*
X19428095Y-11889048D01*
X19432857Y-11898571D01*
X19437619Y-11903333D01*
X19447143Y-11908095D01*
X19466190Y-11908095D01*
X19475714Y-11912857D01*
X19480476Y-11917619D01*
X19485238Y-11927143D01*
X19485238Y-11946190D01*
X19480476Y-11955714D01*
X19475714Y-11960476D01*
X19466190Y-11965238D01*
X19447143Y-11965238D01*
X19437619Y-11960476D01*
X19432857Y-11955714D01*
X19428095Y-11946190D01*
X19428095Y-11927143D01*
X19432857Y-11917619D01*
X19437619Y-11912857D01*
X19447143Y-11908095D01*
X17385238Y-12098571D02*
X17385238Y-12155714D01*
X17485238Y-12127143D02*
X17385238Y-12127143D01*
X17485238Y-12189048D02*
X17385238Y-12189048D01*
X17385238Y-12227143D01*
X17390000Y-12236667D01*
X17394762Y-12241428D01*
X17404286Y-12246190D01*
X17418571Y-12246190D01*
X17428095Y-12241428D01*
X17432857Y-12236667D01*
X17437619Y-12227143D01*
X17437619Y-12189048D01*
X17394762Y-12284286D02*
X17390000Y-12289048D01*
X17385238Y-12298571D01*
X17385238Y-12322381D01*
X17390000Y-12331905D01*
X17394762Y-12336667D01*
X17404286Y-12341428D01*
X17413810Y-12341428D01*
X17428095Y-12336667D01*
X17485238Y-12279524D01*
X17485238Y-12341428D01*
X17385238Y-12403333D02*
X17385238Y-12412857D01*
X17390000Y-12422381D01*
X17394762Y-12427143D01*
X17404286Y-12431905D01*
X17423333Y-12436667D01*
X17447143Y-12436667D01*
X17466190Y-12431905D01*
X17475714Y-12427143D01*
X17480476Y-12422381D01*
X17485238Y-12412857D01*
X17485238Y-12403333D01*
X17480476Y-12393809D01*
X17475714Y-12389048D01*
X17466190Y-12384286D01*
X17447143Y-12379524D01*
X17423333Y-12379524D01*
X17404286Y-12384286D01*
X17394762Y-12389048D01*
X17390000Y-12393809D01*
X17385238Y-12403333D01*
X17385238Y-12470000D02*
X17385238Y-12531905D01*
X17423333Y-12498571D01*
X17423333Y-12512857D01*
X17428095Y-12522381D01*
X17432857Y-12527143D01*
X17442381Y-12531905D01*
X17466190Y-12531905D01*
X17475714Y-12527143D01*
X17480476Y-12522381D01*
X17485238Y-12512857D01*
X17485238Y-12484286D01*
X17480476Y-12474762D01*
X17475714Y-12470000D01*
X19435238Y-10398571D02*
X19435238Y-10455714D01*
X19535238Y-10427143D02*
X19435238Y-10427143D01*
X19535238Y-10489048D02*
X19435238Y-10489048D01*
X19435238Y-10527143D01*
X19440000Y-10536667D01*
X19444762Y-10541429D01*
X19454286Y-10546190D01*
X19468571Y-10546190D01*
X19478095Y-10541429D01*
X19482857Y-10536667D01*
X19487619Y-10527143D01*
X19487619Y-10489048D01*
X19444762Y-10584286D02*
X19440000Y-10589048D01*
X19435238Y-10598571D01*
X19435238Y-10622381D01*
X19440000Y-10631905D01*
X19444762Y-10636667D01*
X19454286Y-10641429D01*
X19463810Y-10641429D01*
X19478095Y-10636667D01*
X19535238Y-10579524D01*
X19535238Y-10641429D01*
X19435238Y-10703333D02*
X19435238Y-10712857D01*
X19440000Y-10722381D01*
X19444762Y-10727143D01*
X19454286Y-10731905D01*
X19473333Y-10736667D01*
X19497143Y-10736667D01*
X19516190Y-10731905D01*
X19525714Y-10727143D01*
X19530476Y-10722381D01*
X19535238Y-10712857D01*
X19535238Y-10703333D01*
X19530476Y-10693810D01*
X19525714Y-10689048D01*
X19516190Y-10684286D01*
X19497143Y-10679524D01*
X19473333Y-10679524D01*
X19454286Y-10684286D01*
X19444762Y-10689048D01*
X19440000Y-10693810D01*
X19435238Y-10703333D01*
X19535238Y-10831905D02*
X19535238Y-10774762D01*
X19535238Y-10803333D02*
X19435238Y-10803333D01*
X19449524Y-10793810D01*
X19459048Y-10784286D01*
X19463810Y-10774762D01*
X19435238Y-10698571D02*
X19435238Y-10755714D01*
X19535238Y-10727143D02*
X19435238Y-10727143D01*
X19535238Y-10789048D02*
X19435238Y-10789048D01*
X19435238Y-10827143D01*
X19440000Y-10836667D01*
X19444762Y-10841429D01*
X19454286Y-10846190D01*
X19468571Y-10846190D01*
X19478095Y-10841429D01*
X19482857Y-10836667D01*
X19487619Y-10827143D01*
X19487619Y-10789048D01*
X19444762Y-10884286D02*
X19440000Y-10889048D01*
X19435238Y-10898571D01*
X19435238Y-10922381D01*
X19440000Y-10931905D01*
X19444762Y-10936667D01*
X19454286Y-10941429D01*
X19463810Y-10941429D01*
X19478095Y-10936667D01*
X19535238Y-10879524D01*
X19535238Y-10941429D01*
X19435238Y-11003333D02*
X19435238Y-11012857D01*
X19440000Y-11022381D01*
X19444762Y-11027143D01*
X19454286Y-11031905D01*
X19473333Y-11036667D01*
X19497143Y-11036667D01*
X19516190Y-11031905D01*
X19525714Y-11027143D01*
X19530476Y-11022381D01*
X19535238Y-11012857D01*
X19535238Y-11003333D01*
X19530476Y-10993810D01*
X19525714Y-10989048D01*
X19516190Y-10984286D01*
X19497143Y-10979524D01*
X19473333Y-10979524D01*
X19454286Y-10984286D01*
X19444762Y-10989048D01*
X19440000Y-10993810D01*
X19435238Y-11003333D01*
X19444762Y-11074762D02*
X19440000Y-11079524D01*
X19435238Y-11089048D01*
X19435238Y-11112857D01*
X19440000Y-11122381D01*
X19444762Y-11127143D01*
X19454286Y-11131905D01*
X19463810Y-11131905D01*
X19478095Y-11127143D01*
X19535238Y-11070000D01*
X19535238Y-11131905D01*
X17385238Y-11198571D02*
X17385238Y-11255714D01*
X17485238Y-11227143D02*
X17385238Y-11227143D01*
X17485238Y-11289048D02*
X17385238Y-11289048D01*
X17385238Y-11327143D01*
X17390000Y-11336667D01*
X17394762Y-11341428D01*
X17404286Y-11346190D01*
X17418571Y-11346190D01*
X17428095Y-11341428D01*
X17432857Y-11336667D01*
X17437619Y-11327143D01*
X17437619Y-11289048D01*
X17394762Y-11384286D02*
X17390000Y-11389048D01*
X17385238Y-11398571D01*
X17385238Y-11422381D01*
X17390000Y-11431905D01*
X17394762Y-11436667D01*
X17404286Y-11441428D01*
X17413810Y-11441428D01*
X17428095Y-11436667D01*
X17485238Y-11379524D01*
X17485238Y-11441428D01*
X17385238Y-11503333D02*
X17385238Y-11512857D01*
X17390000Y-11522381D01*
X17394762Y-11527143D01*
X17404286Y-11531905D01*
X17423333Y-11536667D01*
X17447143Y-11536667D01*
X17466190Y-11531905D01*
X17475714Y-11527143D01*
X17480476Y-11522381D01*
X17485238Y-11512857D01*
X17485238Y-11503333D01*
X17480476Y-11493809D01*
X17475714Y-11489048D01*
X17466190Y-11484286D01*
X17447143Y-11479524D01*
X17423333Y-11479524D01*
X17404286Y-11484286D01*
X17394762Y-11489048D01*
X17390000Y-11493809D01*
X17385238Y-11503333D01*
X17418571Y-11622381D02*
X17485238Y-11622381D01*
X17380476Y-11598571D02*
X17451905Y-11574762D01*
X17451905Y-11636667D01*
M02*
