G04 #@! TF.GenerationSoftware,KiCad,Pcbnew,9.0.1-9.0.1-0~ubuntu24.04.1*
G04 #@! TF.CreationDate,2025-05-16T13:03:01-03:00*
G04 #@! TF.ProjectId,MCB19,4d434231-392e-46b6-9963-61645f706362,rev?*
G04 #@! TF.SameCoordinates,Original*
G04 #@! TF.FileFunction,Paste,Top*
G04 #@! TF.FilePolarity,Positive*
%FSLAX46Y46*%
G04 Gerber Fmt 4.6, Leading zero omitted, Abs format (unit mm)*
G04 Created by KiCad (PCBNEW 9.0.1-9.0.1-0~ubuntu24.04.1) date 2025-05-16 13:03:01*
%MOMM*%
%LPD*%
G01*
G04 APERTURE LIST*
G04 Aperture macros list*
%AMRoundRect*
0 Rectangle with rounded corners*
0 $1 Rounding radius*
0 $2 $3 $4 $5 $6 $7 $8 $9 X,Y pos of 4 corners*
0 Add a 4 corners polygon primitive as box body*
4,1,4,$2,$3,$4,$5,$6,$7,$8,$9,$2,$3,0*
0 Add four circle primitives for the rounded corners*
1,1,$1+$1,$2,$3*
1,1,$1+$1,$4,$5*
1,1,$1+$1,$6,$7*
1,1,$1+$1,$8,$9*
0 Add four rect primitives between the rounded corners*
20,1,$1+$1,$2,$3,$4,$5,0*
20,1,$1+$1,$4,$5,$6,$7,0*
20,1,$1+$1,$6,$7,$8,$9,0*
20,1,$1+$1,$8,$9,$2,$3,0*%
G04 Aperture macros list end*
%ADD10RoundRect,0.250000X-0.325000X-0.450000X0.325000X-0.450000X0.325000X0.450000X-0.325000X0.450000X0*%
%ADD11RoundRect,0.250001X-0.462499X-0.624999X0.462499X-0.624999X0.462499X0.624999X-0.462499X0.624999X0*%
%ADD12RoundRect,0.250000X0.325000X0.450000X-0.325000X0.450000X-0.325000X-0.450000X0.325000X-0.450000X0*%
%ADD13RoundRect,0.250000X0.450000X-0.325000X0.450000X0.325000X-0.450000X0.325000X-0.450000X-0.325000X0*%
%ADD14RoundRect,0.250001X-1.074999X0.462499X-1.074999X-0.462499X1.074999X-0.462499X1.074999X0.462499X0*%
%ADD15R,1.700000X3.300000*%
%ADD16RoundRect,0.250000X1.425000X-0.425000X1.425000X0.425000X-1.425000X0.425000X-1.425000X-0.425000X0*%
%ADD17RoundRect,0.249999X1.425001X-0.512501X1.425001X0.512501X-1.425001X0.512501X-1.425001X-0.512501X0*%
%ADD18RoundRect,0.250000X-0.450000X0.325000X-0.450000X-0.325000X0.450000X-0.325000X0.450000X0.325000X0*%
%ADD19RoundRect,0.250000X0.400000X0.600000X-0.400000X0.600000X-0.400000X-0.600000X0.400000X-0.600000X0*%
%ADD20RoundRect,0.125000X-0.125000X0.125000X-0.125000X-0.125000X0.125000X-0.125000X0.125000X0.125000X0*%
%ADD21RoundRect,0.125000X0.125000X0.125000X-0.125000X0.125000X-0.125000X-0.125000X0.125000X-0.125000X0*%
%ADD22RoundRect,0.250000X-0.600000X0.400000X-0.600000X-0.400000X0.600000X-0.400000X0.600000X0.400000X0*%
%ADD23RoundRect,0.150000X-0.150000X-0.200000X0.150000X-0.200000X0.150000X0.200000X-0.150000X0.200000X0*%
%ADD24RoundRect,0.250000X0.337500X0.475000X-0.337500X0.475000X-0.337500X-0.475000X0.337500X-0.475000X0*%
G04 APERTURE END LIST*
D10*
X127865000Y-72510000D03*
X129915000Y-72510000D03*
X127865000Y-74805001D03*
X129915000Y-74805001D03*
D11*
X127952500Y-67040000D03*
X130927500Y-67040000D03*
D12*
X108025000Y-63500000D03*
X105975000Y-63500000D03*
D13*
X111000000Y-83025000D03*
X111000000Y-80975000D03*
D14*
X122000000Y-90012500D03*
X122000000Y-92987500D03*
D15*
X111000000Y-73750000D03*
X111000000Y-68250000D03*
D13*
X111000000Y-64525000D03*
X111000000Y-62475000D03*
D12*
X108025000Y-82000000D03*
X105975000Y-82000000D03*
D15*
X111000000Y-92250000D03*
X111000000Y-86750000D03*
X105000000Y-68250000D03*
X105000000Y-73750000D03*
D16*
X121750000Y-68900000D03*
X121750000Y-63100000D03*
D15*
X105000000Y-86750000D03*
X105000000Y-92250000D03*
D17*
X121750000Y-87487500D03*
X121750000Y-81512500D03*
D15*
X108000000Y-73750000D03*
X108000000Y-68250000D03*
D11*
X127952500Y-69910000D03*
X130927500Y-69910000D03*
D15*
X125250000Y-71750000D03*
X125250000Y-66250000D03*
X108000000Y-92250000D03*
X108000000Y-86750000D03*
D14*
X122000000Y-71512500D03*
X122000000Y-74487500D03*
D15*
X125250000Y-90250000D03*
X125250000Y-84750000D03*
D18*
X128000000Y-62275000D03*
X128000000Y-64325000D03*
D13*
X131000000Y-64325000D03*
X131000000Y-62275000D03*
D10*
X127975000Y-82000000D03*
X130025000Y-82000000D03*
X127975000Y-84400000D03*
X130025000Y-84400000D03*
X140375000Y-125200000D03*
X142425000Y-125200000D03*
X64250000Y-108750000D03*
X66300000Y-108750000D03*
D16*
X121750000Y-68900000D03*
X121750000Y-63100000D03*
D12*
X144450000Y-123000000D03*
X142400000Y-123000000D03*
D17*
X121750000Y-87487500D03*
X121750000Y-81512500D03*
D13*
X68600000Y-110825000D03*
X68600000Y-108775000D03*
D10*
X127975000Y-79600000D03*
X130025000Y-79600000D03*
X127975000Y-77200000D03*
X130025000Y-77200000D03*
X127975000Y-86800000D03*
X130025000Y-86800000D03*
X127975000Y-89200000D03*
X130025000Y-89200000D03*
D19*
X138750000Y-105500000D03*
X135250000Y-105500000D03*
D20*
X128785000Y-118500000D03*
X128785000Y-120700000D03*
D21*
X139000000Y-103000000D03*
X136800000Y-103000000D03*
D22*
X131400000Y-118850000D03*
X131400000Y-122350000D03*
D23*
X148700000Y-111000000D03*
X147300000Y-111000000D03*
X148700000Y-113500000D03*
X147300000Y-113500000D03*
D24*
X73737500Y-115900000D03*
X71662500Y-115900000D03*
D10*
X71675000Y-118100000D03*
X73725000Y-118100000D03*
D23*
X148700000Y-108500000D03*
X147300000Y-108500000D03*
M02*
