%TF.GenerationSoftware,KiCad,Pcbnew,5.1.9+dfsg1-1~bpo10+1*%
%TF.CreationDate,2021-06-17T15:16:06+00:00*%
%TF.ProjectId,MCB19,4d434231-392e-46b6-9963-61645f706362,rev?*%
%TF.SameCoordinates,Original*%
%TF.FileFunction,Legend,Bot*%
%TF.FilePolarity,Positive*%
%FSLAX45Y45*%
G04 Gerber Fmt 4.5, Leading zero omitted, Abs format (unit mm)*
G04 Created by KiCad (PCBNEW 5.1.9+dfsg1-1~bpo10+1) date 2021-06-17 15:16:06*
%MOMM*%
%LPD*%
G01*
G04 APERTURE LIST*
%ADD10C,0.150000*%
%TA.AperFunction,Profile*%
%ADD11C,0.100000*%
%TD*%
%ADD12C,0.120000*%
%ADD13C,3.000000*%
%ADD14C,2.500000*%
%ADD15C,5.000000*%
%ADD16C,2.400000*%
%ADD17R,2.400000X2.400000*%
%ADD18R,2.000000X2.000000*%
%ADD19R,1.700000X3.300000*%
%ADD20O,4.500000X2.500000*%
%ADD21R,4.500000X2.500000*%
%ADD22O,3.600000X3.600000*%
%ADD23R,0.900000X0.800000*%
%ADD24R,5.000000X10.000000*%
%ADD25R,6.400000X2.000000*%
%ADD26R,2.000000X0.600000*%
%ADD27C,0.900000*%
%ADD28C,10.599999*%
%ADD29C,10.600000*%
%ADD30R,3.300000X1.700000*%
%ADD31R,16.000000X10.000000*%
%ADD32R,4.000000X1.905000*%
%ADD33R,1.700000X1.700000*%
%ADD34O,1.700000X1.700000*%
%ADD35R,2.500000X1.600000*%
%ADD36O,2.500000X1.600000*%
%ADD37R,1.900000X0.800000*%
%ADD38C,3.650000*%
%ADD39R,1.550000X0.600000*%
G04 APERTURE END LIST*
D10*
X3846190Y-9915476D02*
X3836667Y-9934524D01*
X3827143Y-9944048D01*
X3808095Y-9953571D01*
X3798571Y-9953571D01*
X3779524Y-9944048D01*
X3770000Y-9934524D01*
X3760476Y-9915476D01*
X3760476Y-9877381D01*
X3770000Y-9858333D01*
X3779524Y-9848810D01*
X3798571Y-9839286D01*
X3808095Y-9839286D01*
X3827143Y-9848810D01*
X3836667Y-9858333D01*
X3846190Y-9877381D01*
X3846190Y-9915476D01*
X3855714Y-9934524D01*
X3865238Y-9944048D01*
X3884286Y-9953571D01*
X3922381Y-9953571D01*
X3941428Y-9944048D01*
X3950952Y-9934524D01*
X3960476Y-9915476D01*
X3960476Y-9877381D01*
X3950952Y-9858333D01*
X3941428Y-9848810D01*
X3922381Y-9839286D01*
X3884286Y-9839286D01*
X3865238Y-9848810D01*
X3855714Y-9858333D01*
X3846190Y-9877381D01*
X3960476Y-9648810D02*
X3960476Y-9763095D01*
X3960476Y-9705952D02*
X3760476Y-9705952D01*
X3789048Y-9725000D01*
X3808095Y-9744048D01*
X3817619Y-9763095D01*
X3941428Y-9563095D02*
X3950952Y-9553571D01*
X3960476Y-9563095D01*
X3950952Y-9572619D01*
X3941428Y-9563095D01*
X3960476Y-9563095D01*
X3760476Y-9372619D02*
X3760476Y-9467857D01*
X3855714Y-9477381D01*
X3846190Y-9467857D01*
X3836667Y-9448810D01*
X3836667Y-9401190D01*
X3846190Y-9382143D01*
X3855714Y-9372619D01*
X3874762Y-9363095D01*
X3922381Y-9363095D01*
X3941428Y-9372619D01*
X3950952Y-9382143D01*
X3960476Y-9401190D01*
X3960476Y-9448810D01*
X3950952Y-9467857D01*
X3941428Y-9477381D01*
X3760476Y-9239286D02*
X3760476Y-9220238D01*
X3770000Y-9201190D01*
X3779524Y-9191667D01*
X3798571Y-9182143D01*
X3836667Y-9172619D01*
X3884286Y-9172619D01*
X3922381Y-9182143D01*
X3941428Y-9191667D01*
X3950952Y-9201190D01*
X3960476Y-9220238D01*
X3960476Y-9239286D01*
X3950952Y-9258333D01*
X3941428Y-9267857D01*
X3922381Y-9277381D01*
X3884286Y-9286905D01*
X3836667Y-9286905D01*
X3798571Y-9277381D01*
X3779524Y-9267857D01*
X3770000Y-9258333D01*
X3760476Y-9239286D01*
X3760476Y-9048810D02*
X3760476Y-9029762D01*
X3770000Y-9010714D01*
X3779524Y-9001190D01*
X3798571Y-8991667D01*
X3836667Y-8982143D01*
X3884286Y-8982143D01*
X3922381Y-8991667D01*
X3941428Y-9001190D01*
X3950952Y-9010714D01*
X3960476Y-9029762D01*
X3960476Y-9048810D01*
X3950952Y-9067857D01*
X3941428Y-9077381D01*
X3922381Y-9086905D01*
X3884286Y-9096429D01*
X3836667Y-9096429D01*
X3798571Y-9086905D01*
X3779524Y-9077381D01*
X3770000Y-9067857D01*
X3760476Y-9048810D01*
X3960476Y-8744048D02*
X3827143Y-8744048D01*
X3846190Y-8744048D02*
X3836667Y-8734524D01*
X3827143Y-8715476D01*
X3827143Y-8686905D01*
X3836667Y-8667857D01*
X3855714Y-8658333D01*
X3960476Y-8658333D01*
X3855714Y-8658333D02*
X3836667Y-8648810D01*
X3827143Y-8629762D01*
X3827143Y-8601190D01*
X3836667Y-8582143D01*
X3855714Y-8572619D01*
X3960476Y-8572619D01*
X3960476Y-8477381D02*
X3827143Y-8477381D01*
X3846190Y-8477381D02*
X3836667Y-8467857D01*
X3827143Y-8448810D01*
X3827143Y-8420238D01*
X3836667Y-8401190D01*
X3855714Y-8391667D01*
X3960476Y-8391667D01*
X3855714Y-8391667D02*
X3836667Y-8382143D01*
X3827143Y-8363095D01*
X3827143Y-8334524D01*
X3836667Y-8315476D01*
X3855714Y-8305952D01*
X3960476Y-8305952D01*
X4000000Y-13200000D02*
X4000000Y-5050000D01*
X5000000Y-13200000D02*
X3941358Y-13200000D01*
X5000000Y-5050000D02*
X3941358Y-5050000D01*
X4000000Y-5050000D02*
X4058642Y-5162650D01*
X4000000Y-5050000D02*
X3941358Y-5162650D01*
X4000000Y-13200000D02*
X4058642Y-13087350D01*
X4000000Y-13200000D02*
X3941358Y-13087350D01*
X12833476Y-4010476D02*
X12719190Y-4010476D01*
X12776333Y-4010476D02*
X12776333Y-3810476D01*
X12757286Y-3839048D01*
X12738238Y-3858095D01*
X12719190Y-3867619D01*
X12900143Y-3810476D02*
X13033476Y-3810476D01*
X12947762Y-4010476D01*
X13100143Y-3829524D02*
X13109667Y-3820000D01*
X13128714Y-3810476D01*
X13176333Y-3810476D01*
X13195381Y-3820000D01*
X13204905Y-3829524D01*
X13214428Y-3848571D01*
X13214428Y-3867619D01*
X13204905Y-3896190D01*
X13090619Y-4010476D01*
X13214428Y-4010476D01*
X13300143Y-3991428D02*
X13309667Y-4000952D01*
X13300143Y-4010476D01*
X13290619Y-4000952D01*
X13300143Y-3991428D01*
X13300143Y-4010476D01*
X13423952Y-3896190D02*
X13404905Y-3886667D01*
X13395381Y-3877143D01*
X13385857Y-3858095D01*
X13385857Y-3848571D01*
X13395381Y-3829524D01*
X13404905Y-3820000D01*
X13423952Y-3810476D01*
X13462048Y-3810476D01*
X13481095Y-3820000D01*
X13490619Y-3829524D01*
X13500143Y-3848571D01*
X13500143Y-3858095D01*
X13490619Y-3877143D01*
X13481095Y-3886667D01*
X13462048Y-3896190D01*
X13423952Y-3896190D01*
X13404905Y-3905714D01*
X13395381Y-3915238D01*
X13385857Y-3934286D01*
X13385857Y-3972381D01*
X13395381Y-3991428D01*
X13404905Y-4000952D01*
X13423952Y-4010476D01*
X13462048Y-4010476D01*
X13481095Y-4000952D01*
X13490619Y-3991428D01*
X13500143Y-3972381D01*
X13500143Y-3934286D01*
X13490619Y-3915238D01*
X13481095Y-3905714D01*
X13462048Y-3896190D01*
X13671571Y-3877143D02*
X13671571Y-4010476D01*
X13623952Y-3800952D02*
X13576333Y-3943809D01*
X13700143Y-3943809D01*
X13814428Y-3810476D02*
X13833476Y-3810476D01*
X13852524Y-3820000D01*
X13862048Y-3829524D01*
X13871571Y-3848571D01*
X13881095Y-3886667D01*
X13881095Y-3934286D01*
X13871571Y-3972381D01*
X13862048Y-3991428D01*
X13852524Y-4000952D01*
X13833476Y-4010476D01*
X13814428Y-4010476D01*
X13795381Y-4000952D01*
X13785857Y-3991428D01*
X13776333Y-3972381D01*
X13766809Y-3934286D01*
X13766809Y-3886667D01*
X13776333Y-3848571D01*
X13785857Y-3829524D01*
X13795381Y-3820000D01*
X13814428Y-3810476D01*
X14119190Y-4010476D02*
X14119190Y-3877143D01*
X14119190Y-3896190D02*
X14128714Y-3886667D01*
X14147762Y-3877143D01*
X14176333Y-3877143D01*
X14195381Y-3886667D01*
X14204905Y-3905714D01*
X14204905Y-4010476D01*
X14204905Y-3905714D02*
X14214428Y-3886667D01*
X14233476Y-3877143D01*
X14262048Y-3877143D01*
X14281095Y-3886667D01*
X14290619Y-3905714D01*
X14290619Y-4010476D01*
X14385857Y-4010476D02*
X14385857Y-3877143D01*
X14385857Y-3896190D02*
X14395381Y-3886667D01*
X14414428Y-3877143D01*
X14443000Y-3877143D01*
X14462048Y-3886667D01*
X14471571Y-3905714D01*
X14471571Y-4010476D01*
X14471571Y-3905714D02*
X14481095Y-3886667D01*
X14500143Y-3877143D01*
X14528714Y-3877143D01*
X14547762Y-3886667D01*
X14557286Y-3905714D01*
X14557286Y-4010476D01*
X5001000Y-4150000D02*
X22285000Y-4150000D01*
X5001000Y-5050000D02*
X5001000Y-4091358D01*
X22285000Y-5050000D02*
X22285000Y-4091358D01*
X22285000Y-4150000D02*
X22172350Y-4208642D01*
X22285000Y-4150000D02*
X22172350Y-4091358D01*
X5001000Y-4150000D02*
X5113650Y-4208642D01*
X5001000Y-4150000D02*
X5113650Y-4091358D01*
D11*
X22285000Y-5050000D02*
X5000000Y-5050000D01*
X22285000Y-13200000D02*
X22285000Y-5050000D01*
X5000000Y-13200000D02*
X22285000Y-13200000D01*
X5000000Y-5050000D02*
X5000000Y-13200000D01*
D12*
X9916375Y-11989000D02*
X9968625Y-11989000D01*
X9916375Y-12131000D02*
X9968625Y-12131000D01*
X9806500Y-12249000D02*
X10500000Y-12249000D01*
X9806500Y-12591000D02*
X9806500Y-12249000D01*
X10500000Y-12591000D02*
X9806500Y-12591000D01*
X16333875Y-10929000D02*
X16386125Y-10929000D01*
X16333875Y-11071000D02*
X16386125Y-11071000D01*
X16546000Y-11396000D02*
X16260000Y-11396000D01*
X16546000Y-11204000D02*
X16546000Y-11396000D01*
X16260000Y-11204000D02*
X16546000Y-11204000D01*
X10271375Y-11891000D02*
X10323625Y-11891000D01*
X10271375Y-11749000D02*
X10323625Y-11749000D01*
X9489000Y-11473875D02*
X9489000Y-11526125D01*
X9631000Y-11473875D02*
X9631000Y-11526125D01*
X10896000Y-8690000D02*
X10896000Y-8885000D01*
X10896000Y-8690000D02*
X10896000Y-8495000D01*
X10384000Y-8690000D02*
X10384000Y-8885000D01*
X10384000Y-8690000D02*
X10384000Y-8345000D01*
X19022500Y-10042500D02*
X19022500Y-9802500D01*
X18782500Y-10042500D02*
X19022500Y-10042500D01*
X18782500Y-9802500D02*
X18782500Y-10042500D01*
X19022500Y-9802500D02*
X18782500Y-9802500D01*
X8450000Y-10485000D02*
X8450000Y-11215000D01*
X8250000Y-10485000D02*
X8450000Y-10485000D01*
X8250000Y-11215000D02*
X8250000Y-10485000D01*
X11840000Y-9140000D02*
X12096000Y-9140000D01*
X11840000Y-8595000D02*
X12096000Y-8595000D01*
X11840000Y-8050000D02*
X12096000Y-8050000D01*
X12096000Y-9402000D02*
X14215000Y-9402000D01*
X12096000Y-7788000D02*
X14215000Y-7788000D01*
X14215000Y-7788000D02*
X14215000Y-9402000D01*
X12096000Y-7788000D02*
X12096000Y-9402000D01*
X15452775Y-11366000D02*
X15505025Y-11366000D01*
X15452775Y-11224000D02*
X15505025Y-11224000D01*
X10224000Y-11618000D02*
X10224000Y-11525000D01*
X10224000Y-11302000D02*
X10224000Y-11395000D01*
X10224000Y-11302000D02*
X10440000Y-11302000D01*
X10224000Y-11618000D02*
X10370000Y-11618000D01*
X9804000Y-11713000D02*
X9950000Y-11713000D01*
X9804000Y-11397000D02*
X10020000Y-11397000D01*
X9804000Y-11397000D02*
X9804000Y-11490000D01*
X9804000Y-11713000D02*
X9804000Y-11620000D01*
X8920000Y-12860000D02*
X8920000Y-12580000D01*
X8920000Y-12860000D02*
X6660000Y-12860000D01*
X8920000Y-11900000D02*
X6660000Y-11900000D01*
X8920000Y-12180000D02*
X8920000Y-11900000D01*
X6660000Y-12180000D02*
X6660000Y-11900000D01*
X6660000Y-12860000D02*
X6660000Y-12580000D01*
X8919000Y-6333000D02*
X8919000Y-6053000D01*
X8919000Y-6333000D02*
X6659000Y-6333000D01*
X8919000Y-5373000D02*
X6659000Y-5373000D01*
X8919000Y-5653000D02*
X8919000Y-5373000D01*
X6659000Y-5653000D02*
X6659000Y-5373000D01*
X6659000Y-6333000D02*
X6659000Y-6053000D01*
X8420875Y-9079500D02*
X8473125Y-9079500D01*
X8420875Y-9221500D02*
X8473125Y-9221500D01*
X8420875Y-9309000D02*
X8473125Y-9309000D01*
X8420875Y-9451000D02*
X8473125Y-9451000D01*
X8389794Y-8509000D02*
X8510206Y-8509000D01*
X8389794Y-8691000D02*
X8510206Y-8691000D01*
X8389794Y-8796000D02*
X8510206Y-8796000D01*
X8389794Y-8978000D02*
X8510206Y-8978000D01*
X11876000Y-9895000D02*
X11876000Y-10240000D01*
X11876000Y-9895000D02*
X11876000Y-9700000D01*
X11364000Y-9895000D02*
X11364000Y-10090000D01*
X11364000Y-9895000D02*
X11364000Y-9700000D01*
X11925000Y-10255000D02*
X12663300Y-10255000D01*
X11925000Y-9535000D02*
X11925000Y-10255000D01*
X12665000Y-9535000D02*
X11925000Y-9535000D01*
X12663300Y-10255000D02*
X12665000Y-9535000D01*
D10*
X18255400Y-11286600D02*
X18255400Y-11261600D01*
X19030400Y-11286600D02*
X19030400Y-11252100D01*
X19030400Y-10096600D02*
X19030400Y-10131100D01*
X18255400Y-10096600D02*
X18255400Y-10131100D01*
X18255400Y-11286600D02*
X19030400Y-11286600D01*
X18255400Y-10096600D02*
X19030400Y-10096600D01*
X18255400Y-11261600D02*
X18072900Y-11261600D01*
D12*
X15505025Y-10911400D02*
X15452775Y-10911400D01*
X15505025Y-10769400D02*
X15452775Y-10769400D01*
X13709000Y-12021125D02*
X13709000Y-11968875D01*
X13851000Y-12021125D02*
X13851000Y-11968875D01*
X11149000Y-10071125D02*
X11149000Y-10018875D01*
X11291000Y-10071125D02*
X11291000Y-10018875D01*
X11840000Y-7290000D02*
X12096000Y-7290000D01*
X11840000Y-6745000D02*
X12096000Y-6745000D01*
X11840000Y-6200000D02*
X12096000Y-6200000D01*
X12096000Y-7552000D02*
X14215000Y-7552000D01*
X12096000Y-5938000D02*
X14215000Y-5938000D01*
X14215000Y-5938000D02*
X14215000Y-7552000D01*
X12096000Y-5938000D02*
X12096000Y-7552000D01*
X13911500Y-11880000D02*
X13911500Y-11535000D01*
X13911500Y-11880000D02*
X13911500Y-12075000D01*
X14798500Y-11880000D02*
X14798500Y-11685000D01*
X14798500Y-11880000D02*
X14798500Y-12075000D01*
X10816000Y-10068875D02*
X10816000Y-10121125D01*
X10674000Y-10068875D02*
X10674000Y-10121125D01*
X10666125Y-10541000D02*
X10613875Y-10541000D01*
X10666125Y-10399000D02*
X10613875Y-10399000D01*
X10969000Y-8856375D02*
X10969000Y-8908625D01*
X11111000Y-8856375D02*
X11111000Y-8908625D01*
X14741225Y-11419400D02*
X14688975Y-11419400D01*
X14741225Y-11277400D02*
X14688975Y-11277400D01*
X14741225Y-11165400D02*
X14688975Y-11165400D01*
X14741225Y-11023400D02*
X14688975Y-11023400D01*
X14688975Y-10769400D02*
X14741225Y-10769400D01*
X14688975Y-10911400D02*
X14741225Y-10911400D01*
X11145000Y-8190000D02*
X10415000Y-8190000D01*
X11145000Y-7990000D02*
X11145000Y-8190000D01*
X10415000Y-7990000D02*
X11145000Y-7990000D01*
X10026125Y-8179000D02*
X9973875Y-8179000D01*
X10026125Y-8321000D02*
X9973875Y-8321000D01*
X10601000Y-7953500D02*
X9907500Y-7953500D01*
X10601000Y-7611500D02*
X10601000Y-7953500D01*
X9907500Y-7611500D02*
X10601000Y-7611500D01*
X10969000Y-8413875D02*
X10969000Y-8466125D01*
X11111000Y-8413875D02*
X11111000Y-8466125D01*
X15452775Y-10999000D02*
X15505025Y-10999000D01*
X15452775Y-11141000D02*
X15505025Y-11141000D01*
X20789000Y-6858625D02*
X20789000Y-6806375D01*
X20931000Y-6858625D02*
X20931000Y-6806375D01*
X20389000Y-6003875D02*
X20389000Y-6056125D01*
X20531000Y-6003875D02*
X20531000Y-6056125D01*
X20289000Y-7078500D02*
X20289000Y-6385000D01*
X20631000Y-7078500D02*
X20289000Y-7078500D01*
X20631000Y-6385000D02*
X20631000Y-7078500D01*
X20689000Y-6475000D02*
X20689000Y-5781500D01*
X20689000Y-5781500D02*
X21031000Y-5781500D01*
X21031000Y-5781500D02*
X21031000Y-6475000D01*
X21885000Y-6030000D02*
X21155000Y-6030000D01*
X21155000Y-6030000D02*
X21155000Y-5830000D01*
X21155000Y-5830000D02*
X21885000Y-5830000D01*
X19459400Y-5918000D02*
X19459400Y-6942000D01*
X17870400Y-5918000D02*
X17870400Y-6942000D01*
X17870400Y-5918000D02*
X19459400Y-5918000D01*
X17870400Y-6942000D02*
X19459400Y-6942000D01*
X19459400Y-6176000D02*
X19713400Y-6176000D01*
X19459400Y-6430000D02*
X19713400Y-6430000D01*
X19459400Y-6684000D02*
X19713400Y-6684000D01*
X16396125Y-12044000D02*
X16343875Y-12044000D01*
X16396125Y-12186000D02*
X16343875Y-12186000D01*
X17211000Y-9398625D02*
X17211000Y-9346375D01*
X17069000Y-9398625D02*
X17069000Y-9346375D01*
X16290000Y-8749000D02*
X16576000Y-8749000D01*
X16576000Y-8749000D02*
X16576000Y-8941000D01*
X16576000Y-8941000D02*
X16290000Y-8941000D01*
X16231375Y-9146000D02*
X16283625Y-9146000D01*
X16231375Y-9004000D02*
X16283625Y-9004000D01*
X17339000Y-6475000D02*
X17339000Y-5781500D01*
X17339000Y-5781500D02*
X17681000Y-5781500D01*
X17681000Y-5781500D02*
X17681000Y-6475000D01*
X16939000Y-7073500D02*
X16939000Y-6380000D01*
X17281000Y-7073500D02*
X16939000Y-7073500D01*
X17281000Y-6380000D02*
X17281000Y-7073500D01*
X16109400Y-6684000D02*
X16363400Y-6684000D01*
X16109400Y-6430000D02*
X16363400Y-6430000D01*
X16109400Y-6176000D02*
X16363400Y-6176000D01*
X14520400Y-6942000D02*
X16109400Y-6942000D01*
X14520400Y-5918000D02*
X16109400Y-5918000D01*
X14520400Y-5918000D02*
X14520400Y-6942000D01*
X16109400Y-5918000D02*
X16109400Y-6942000D01*
X19861000Y-8577000D02*
X19715000Y-8577000D01*
X19861000Y-8893000D02*
X19545000Y-8893000D01*
X19861000Y-8893000D02*
X19861000Y-8800000D01*
X19861000Y-8577000D02*
X19861000Y-8670000D01*
X21804000Y-6324794D02*
X21804000Y-6445206D01*
X21986000Y-6324794D02*
X21986000Y-6445206D01*
X17069000Y-8920375D02*
X17069000Y-8972625D01*
X17211000Y-8920375D02*
X17211000Y-8972625D01*
X18916125Y-11349000D02*
X18863875Y-11349000D01*
X18916125Y-11491000D02*
X18863875Y-11491000D01*
X17628525Y-10366600D02*
X17576275Y-10366600D01*
X17628525Y-10508600D02*
X17576275Y-10508600D01*
X17791275Y-10127600D02*
X17843525Y-10127600D01*
X17791275Y-9985600D02*
X17843525Y-9985600D01*
X19116125Y-11549000D02*
X19063875Y-11549000D01*
X19116125Y-11691000D02*
X19063875Y-11691000D01*
X16211000Y-10596125D02*
X16211000Y-10543875D01*
X16069000Y-10596125D02*
X16069000Y-10543875D01*
X15461000Y-10496125D02*
X15461000Y-10443875D01*
X15319000Y-10496125D02*
X15319000Y-10443875D01*
X16473475Y-9903400D02*
X16525725Y-9903400D01*
X16473475Y-9761400D02*
X16525725Y-9761400D01*
X16398725Y-10205900D02*
X16346475Y-10205900D01*
X16398725Y-10347900D02*
X16346475Y-10347900D01*
X15941125Y-12304000D02*
X15888875Y-12304000D01*
X15941125Y-12446000D02*
X15888875Y-12446000D01*
X17039000Y-6003875D02*
X17039000Y-6056125D01*
X17181000Y-6003875D02*
X17181000Y-6056125D01*
X17581000Y-6853625D02*
X17581000Y-6801375D01*
X17439000Y-6853625D02*
X17439000Y-6801375D01*
X16017500Y-12540000D02*
X16747500Y-12540000D01*
X16747500Y-12540000D02*
X16747500Y-12740000D01*
X16747500Y-12740000D02*
X16017500Y-12740000D01*
X21885000Y-5780000D02*
X21155000Y-5780000D01*
X21155000Y-5780000D02*
X21155000Y-5580000D01*
X21155000Y-5580000D02*
X21885000Y-5580000D01*
D10*
X17882500Y-12127500D02*
X17882500Y-12122500D01*
X18297500Y-12127500D02*
X18297500Y-12113000D01*
X18297500Y-11612500D02*
X18297500Y-11627000D01*
X17882500Y-11612500D02*
X17882500Y-11627000D01*
X17882500Y-12127500D02*
X18297500Y-12127500D01*
X17882500Y-11612500D02*
X18297500Y-11612500D01*
X17882500Y-12122500D02*
X17742500Y-12122500D01*
D12*
X19263875Y-11491000D02*
X19316125Y-11491000D01*
X19263875Y-11349000D02*
X19316125Y-11349000D01*
X18266125Y-12199000D02*
X18213875Y-12199000D01*
X18266125Y-12341000D02*
X18213875Y-12341000D01*
X19869000Y-11843875D02*
X19869000Y-11896125D01*
X20011000Y-11843875D02*
X20011000Y-11896125D01*
X16555875Y-12441000D02*
X16608125Y-12441000D01*
X16555875Y-12299000D02*
X16608125Y-12299000D01*
X16346475Y-11935400D02*
X16398725Y-11935400D01*
X16346475Y-11793400D02*
X16398725Y-11793400D01*
X16346475Y-11681400D02*
X16398725Y-11681400D01*
X16346475Y-11539400D02*
X16398725Y-11539400D01*
X19570000Y-11100000D02*
X19570000Y-11340000D01*
X19570000Y-11340000D02*
X19810000Y-11340000D01*
X19810000Y-11340000D02*
X19810000Y-11100000D01*
X19810000Y-11100000D02*
X19570000Y-11100000D01*
X19570000Y-10200000D02*
X19570000Y-10440000D01*
X19570000Y-10440000D02*
X19810000Y-10440000D01*
X19810000Y-10440000D02*
X19810000Y-10200000D01*
X19810000Y-10200000D02*
X19570000Y-10200000D01*
X19520000Y-11900000D02*
X19520000Y-12140000D01*
X19760000Y-11900000D02*
X19520000Y-11900000D01*
X19760000Y-12140000D02*
X19760000Y-11900000D01*
X19520000Y-12140000D02*
X19760000Y-12140000D01*
X19520000Y-11840000D02*
X19760000Y-11840000D01*
X19760000Y-11840000D02*
X19760000Y-11600000D01*
X19760000Y-11600000D02*
X19520000Y-11600000D01*
X19520000Y-11600000D02*
X19520000Y-11840000D01*
X17520000Y-12200000D02*
X17520000Y-12440000D01*
X17520000Y-12440000D02*
X17760000Y-12440000D01*
X17760000Y-12440000D02*
X17760000Y-12200000D01*
X17760000Y-12200000D02*
X17520000Y-12200000D01*
X19570000Y-10500000D02*
X19570000Y-10740000D01*
X19570000Y-10740000D02*
X19810000Y-10740000D01*
X19810000Y-10740000D02*
X19810000Y-10500000D01*
X19810000Y-10500000D02*
X19570000Y-10500000D01*
X19570000Y-10800000D02*
X19570000Y-11040000D01*
X19570000Y-11040000D02*
X19810000Y-11040000D01*
X19810000Y-11040000D02*
X19810000Y-10800000D01*
X19810000Y-10800000D02*
X19570000Y-10800000D01*
X17520000Y-11300000D02*
X17520000Y-11540000D01*
X17520000Y-11540000D02*
X17760000Y-11540000D01*
X17760000Y-11540000D02*
X17760000Y-11300000D01*
X17760000Y-11300000D02*
X17520000Y-11300000D01*
D10*
X10054405Y-12260714D02*
X10059167Y-12265476D01*
X10073452Y-12270238D01*
X10082976Y-12270238D01*
X10097262Y-12265476D01*
X10106786Y-12255952D01*
X10111548Y-12246428D01*
X10116310Y-12227381D01*
X10116310Y-12213095D01*
X10111548Y-12194048D01*
X10106786Y-12184524D01*
X10097262Y-12175000D01*
X10082976Y-12170238D01*
X10073452Y-12170238D01*
X10059167Y-12175000D01*
X10054405Y-12179762D01*
X9968690Y-12170238D02*
X9987738Y-12170238D01*
X9997262Y-12175000D01*
X10002024Y-12179762D01*
X10011548Y-12194048D01*
X10016310Y-12213095D01*
X10016310Y-12251190D01*
X10011548Y-12260714D01*
X10006786Y-12265476D01*
X9997262Y-12270238D01*
X9978214Y-12270238D01*
X9968690Y-12265476D01*
X9963929Y-12260714D01*
X9959167Y-12251190D01*
X9959167Y-12227381D01*
X9963929Y-12217857D01*
X9968690Y-12213095D01*
X9978214Y-12208333D01*
X9997262Y-12208333D01*
X10006786Y-12213095D01*
X10011548Y-12217857D01*
X10016310Y-12227381D01*
X9921071Y-12179762D02*
X9916310Y-12175000D01*
X9906786Y-12170238D01*
X9882976Y-12170238D01*
X9873452Y-12175000D01*
X9868690Y-12179762D01*
X9863929Y-12189286D01*
X9863929Y-12198809D01*
X9868690Y-12213095D01*
X9925833Y-12270238D01*
X9863929Y-12270238D01*
X9816310Y-12270238D02*
X9797262Y-12270238D01*
X9787738Y-12265476D01*
X9782976Y-12260714D01*
X9773452Y-12246428D01*
X9768690Y-12227381D01*
X9768690Y-12189286D01*
X9773452Y-12179762D01*
X9778214Y-12175000D01*
X9787738Y-12170238D01*
X9806786Y-12170238D01*
X9816310Y-12175000D01*
X9821071Y-12179762D01*
X9825833Y-12189286D01*
X9825833Y-12213095D01*
X9821071Y-12222619D01*
X9816310Y-12227381D01*
X9806786Y-12232143D01*
X9787738Y-12232143D01*
X9778214Y-12227381D01*
X9773452Y-12222619D01*
X9768690Y-12213095D01*
X10311905Y-12710714D02*
X10316667Y-12715476D01*
X10330952Y-12720238D01*
X10340476Y-12720238D01*
X10354762Y-12715476D01*
X10364286Y-12705952D01*
X10369048Y-12696428D01*
X10373810Y-12677381D01*
X10373810Y-12663095D01*
X10369048Y-12644048D01*
X10364286Y-12634524D01*
X10354762Y-12625000D01*
X10340476Y-12620238D01*
X10330952Y-12620238D01*
X10316667Y-12625000D01*
X10311905Y-12629762D01*
X10226190Y-12620238D02*
X10245238Y-12620238D01*
X10254762Y-12625000D01*
X10259524Y-12629762D01*
X10269048Y-12644048D01*
X10273810Y-12663095D01*
X10273810Y-12701190D01*
X10269048Y-12710714D01*
X10264286Y-12715476D01*
X10254762Y-12720238D01*
X10235714Y-12720238D01*
X10226190Y-12715476D01*
X10221429Y-12710714D01*
X10216667Y-12701190D01*
X10216667Y-12677381D01*
X10221429Y-12667857D01*
X10226190Y-12663095D01*
X10235714Y-12658333D01*
X10254762Y-12658333D01*
X10264286Y-12663095D01*
X10269048Y-12667857D01*
X10273810Y-12677381D01*
X10178571Y-12629762D02*
X10173810Y-12625000D01*
X10164286Y-12620238D01*
X10140476Y-12620238D01*
X10130952Y-12625000D01*
X10126190Y-12629762D01*
X10121429Y-12639286D01*
X10121429Y-12648809D01*
X10126190Y-12663095D01*
X10183333Y-12720238D01*
X10121429Y-12720238D01*
X10064286Y-12663095D02*
X10073810Y-12658333D01*
X10078571Y-12653571D01*
X10083333Y-12644048D01*
X10083333Y-12639286D01*
X10078571Y-12629762D01*
X10073810Y-12625000D01*
X10064286Y-12620238D01*
X10045238Y-12620238D01*
X10035714Y-12625000D01*
X10030952Y-12629762D01*
X10026190Y-12639286D01*
X10026190Y-12644048D01*
X10030952Y-12653571D01*
X10035714Y-12658333D01*
X10045238Y-12663095D01*
X10064286Y-12663095D01*
X10073810Y-12667857D01*
X10078571Y-12672619D01*
X10083333Y-12682143D01*
X10083333Y-12701190D01*
X10078571Y-12710714D01*
X10073810Y-12715476D01*
X10064286Y-12720238D01*
X10045238Y-12720238D01*
X10035714Y-12715476D01*
X10030952Y-12710714D01*
X10026190Y-12701190D01*
X10026190Y-12682143D01*
X10030952Y-12672619D01*
X10035714Y-12667857D01*
X10045238Y-12663095D01*
X16471905Y-11210238D02*
X16505238Y-11162619D01*
X16529048Y-11210238D02*
X16529048Y-11110238D01*
X16490952Y-11110238D01*
X16481428Y-11115000D01*
X16476667Y-11119762D01*
X16471905Y-11129286D01*
X16471905Y-11143571D01*
X16476667Y-11153095D01*
X16481428Y-11157857D01*
X16490952Y-11162619D01*
X16529048Y-11162619D01*
X16386190Y-11143571D02*
X16386190Y-11210238D01*
X16410000Y-11105476D02*
X16433809Y-11176905D01*
X16371905Y-11176905D01*
X16314762Y-11110238D02*
X16305238Y-11110238D01*
X16295714Y-11115000D01*
X16290952Y-11119762D01*
X16286190Y-11129286D01*
X16281428Y-11148333D01*
X16281428Y-11172143D01*
X16286190Y-11191190D01*
X16290952Y-11200714D01*
X16295714Y-11205476D01*
X16305238Y-11210238D01*
X16314762Y-11210238D01*
X16324286Y-11205476D01*
X16329048Y-11200714D01*
X16333809Y-11191190D01*
X16338571Y-11172143D01*
X16338571Y-11148333D01*
X16333809Y-11129286D01*
X16329048Y-11119762D01*
X16324286Y-11115000D01*
X16314762Y-11110238D01*
X16195714Y-11143571D02*
X16195714Y-11210238D01*
X16219524Y-11105476D02*
X16243333Y-11176905D01*
X16181428Y-11176905D01*
X16529048Y-11180238D02*
X16529048Y-11080238D01*
X16505238Y-11080238D01*
X16490952Y-11085000D01*
X16481428Y-11094524D01*
X16476667Y-11104048D01*
X16471905Y-11123095D01*
X16471905Y-11137381D01*
X16476667Y-11156429D01*
X16481428Y-11165952D01*
X16490952Y-11175476D01*
X16505238Y-11180238D01*
X16529048Y-11180238D01*
X16386190Y-11113571D02*
X16386190Y-11180238D01*
X16410000Y-11075476D02*
X16433809Y-11146905D01*
X16371905Y-11146905D01*
X16314762Y-11080238D02*
X16305238Y-11080238D01*
X16295714Y-11085000D01*
X16290952Y-11089762D01*
X16286190Y-11099286D01*
X16281428Y-11118333D01*
X16281428Y-11142143D01*
X16286190Y-11161190D01*
X16290952Y-11170714D01*
X16295714Y-11175476D01*
X16305238Y-11180238D01*
X16314762Y-11180238D01*
X16324286Y-11175476D01*
X16329048Y-11170714D01*
X16333809Y-11161190D01*
X16338571Y-11142143D01*
X16338571Y-11118333D01*
X16333809Y-11099286D01*
X16329048Y-11089762D01*
X16324286Y-11085000D01*
X16314762Y-11080238D01*
X16243333Y-11089762D02*
X16238571Y-11085000D01*
X16229048Y-11080238D01*
X16205238Y-11080238D01*
X16195714Y-11085000D01*
X16190952Y-11089762D01*
X16186190Y-11099286D01*
X16186190Y-11108810D01*
X16190952Y-11123095D01*
X16248095Y-11180238D01*
X16186190Y-11180238D01*
X10409405Y-12030238D02*
X10442738Y-11982619D01*
X10466548Y-12030238D02*
X10466548Y-11930238D01*
X10428452Y-11930238D01*
X10418929Y-11935000D01*
X10414167Y-11939762D01*
X10409405Y-11949286D01*
X10409405Y-11963571D01*
X10414167Y-11973095D01*
X10418929Y-11977857D01*
X10428452Y-11982619D01*
X10466548Y-11982619D01*
X10323690Y-11930238D02*
X10342738Y-11930238D01*
X10352262Y-11935000D01*
X10357024Y-11939762D01*
X10366548Y-11954048D01*
X10371310Y-11973095D01*
X10371310Y-12011190D01*
X10366548Y-12020714D01*
X10361786Y-12025476D01*
X10352262Y-12030238D01*
X10333214Y-12030238D01*
X10323690Y-12025476D01*
X10318929Y-12020714D01*
X10314167Y-12011190D01*
X10314167Y-11987381D01*
X10318929Y-11977857D01*
X10323690Y-11973095D01*
X10333214Y-11968333D01*
X10352262Y-11968333D01*
X10361786Y-11973095D01*
X10366548Y-11977857D01*
X10371310Y-11987381D01*
X10218929Y-12030238D02*
X10276071Y-12030238D01*
X10247500Y-12030238D02*
X10247500Y-11930238D01*
X10257024Y-11944524D01*
X10266548Y-11954048D01*
X10276071Y-11958809D01*
X10123690Y-12030238D02*
X10180833Y-12030238D01*
X10152262Y-12030238D02*
X10152262Y-11930238D01*
X10161786Y-11944524D01*
X10171310Y-11954048D01*
X10180833Y-11958809D01*
X9440238Y-11388095D02*
X9392619Y-11354762D01*
X9440238Y-11330952D02*
X9340238Y-11330952D01*
X9340238Y-11369048D01*
X9345000Y-11378571D01*
X9349762Y-11383333D01*
X9359286Y-11388095D01*
X9373571Y-11388095D01*
X9383095Y-11383333D01*
X9387857Y-11378571D01*
X9392619Y-11369048D01*
X9392619Y-11330952D01*
X9340238Y-11473809D02*
X9340238Y-11454762D01*
X9345000Y-11445238D01*
X9349762Y-11440476D01*
X9364048Y-11430952D01*
X9383095Y-11426190D01*
X9421190Y-11426190D01*
X9430714Y-11430952D01*
X9435476Y-11435714D01*
X9440238Y-11445238D01*
X9440238Y-11464286D01*
X9435476Y-11473809D01*
X9430714Y-11478571D01*
X9421190Y-11483333D01*
X9397381Y-11483333D01*
X9387857Y-11478571D01*
X9383095Y-11473809D01*
X9378333Y-11464286D01*
X9378333Y-11445238D01*
X9383095Y-11435714D01*
X9387857Y-11430952D01*
X9397381Y-11426190D01*
X9440238Y-11578571D02*
X9440238Y-11521428D01*
X9440238Y-11550000D02*
X9340238Y-11550000D01*
X9354524Y-11540476D01*
X9364048Y-11530952D01*
X9368810Y-11521428D01*
X9349762Y-11616667D02*
X9345000Y-11621428D01*
X9340238Y-11630952D01*
X9340238Y-11654762D01*
X9345000Y-11664286D01*
X9349762Y-11669048D01*
X9359286Y-11673809D01*
X9368810Y-11673809D01*
X9383095Y-11669048D01*
X9440238Y-11611905D01*
X9440238Y-11673809D01*
X10245238Y-8518571D02*
X10326190Y-8518571D01*
X10335714Y-8523333D01*
X10340476Y-8528095D01*
X10345238Y-8537619D01*
X10345238Y-8556667D01*
X10340476Y-8566190D01*
X10335714Y-8570952D01*
X10326190Y-8575714D01*
X10245238Y-8575714D01*
X10245238Y-8666190D02*
X10245238Y-8647143D01*
X10250000Y-8637619D01*
X10254762Y-8632857D01*
X10269048Y-8623333D01*
X10288095Y-8618571D01*
X10326190Y-8618571D01*
X10335714Y-8623333D01*
X10340476Y-8628095D01*
X10345238Y-8637619D01*
X10345238Y-8656667D01*
X10340476Y-8666190D01*
X10335714Y-8670952D01*
X10326190Y-8675714D01*
X10302381Y-8675714D01*
X10292857Y-8670952D01*
X10288095Y-8666190D01*
X10283333Y-8656667D01*
X10283333Y-8637619D01*
X10288095Y-8628095D01*
X10292857Y-8623333D01*
X10302381Y-8618571D01*
X10245238Y-8737619D02*
X10245238Y-8747143D01*
X10250000Y-8756667D01*
X10254762Y-8761429D01*
X10264286Y-8766190D01*
X10283333Y-8770952D01*
X10307143Y-8770952D01*
X10326190Y-8766190D01*
X10335714Y-8761429D01*
X10340476Y-8756667D01*
X10345238Y-8747143D01*
X10345238Y-8737619D01*
X10340476Y-8728095D01*
X10335714Y-8723333D01*
X10326190Y-8718571D01*
X10307143Y-8713810D01*
X10283333Y-8713810D01*
X10264286Y-8718571D01*
X10254762Y-8723333D01*
X10250000Y-8728095D01*
X10245238Y-8737619D01*
X10345238Y-8866190D02*
X10345238Y-8809048D01*
X10345238Y-8837619D02*
X10245238Y-8837619D01*
X10259524Y-8828095D01*
X10269048Y-8818571D01*
X10273810Y-8809048D01*
X19123929Y-9667938D02*
X19066786Y-9667938D01*
X19095357Y-9767938D02*
X19095357Y-9667938D01*
X19033452Y-9767938D02*
X19033452Y-9667938D01*
X18995357Y-9667938D01*
X18985833Y-9672700D01*
X18981071Y-9677462D01*
X18976310Y-9686986D01*
X18976310Y-9701271D01*
X18981071Y-9710795D01*
X18985833Y-9715557D01*
X18995357Y-9720319D01*
X19033452Y-9720319D01*
X18938214Y-9677462D02*
X18933452Y-9672700D01*
X18923929Y-9667938D01*
X18900119Y-9667938D01*
X18890595Y-9672700D01*
X18885833Y-9677462D01*
X18881071Y-9686986D01*
X18881071Y-9696510D01*
X18885833Y-9710795D01*
X18942976Y-9767938D01*
X18881071Y-9767938D01*
X18819167Y-9667938D02*
X18809643Y-9667938D01*
X18800119Y-9672700D01*
X18795357Y-9677462D01*
X18790595Y-9686986D01*
X18785833Y-9706033D01*
X18785833Y-9729843D01*
X18790595Y-9748890D01*
X18795357Y-9758414D01*
X18800119Y-9763176D01*
X18809643Y-9767938D01*
X18819167Y-9767938D01*
X18828690Y-9763176D01*
X18833452Y-9758414D01*
X18838214Y-9748890D01*
X18842976Y-9729843D01*
X18842976Y-9706033D01*
X18838214Y-9686986D01*
X18833452Y-9677462D01*
X18828690Y-9672700D01*
X18819167Y-9667938D01*
X18738214Y-9767938D02*
X18719167Y-9767938D01*
X18709643Y-9763176D01*
X18704881Y-9758414D01*
X18695357Y-9744129D01*
X18690595Y-9725081D01*
X18690595Y-9686986D01*
X18695357Y-9677462D01*
X18700119Y-9672700D01*
X18709643Y-9667938D01*
X18728690Y-9667938D01*
X18738214Y-9672700D01*
X18742976Y-9677462D01*
X18747738Y-9686986D01*
X18747738Y-9710795D01*
X18742976Y-9720319D01*
X18738214Y-9725081D01*
X18728690Y-9729843D01*
X18709643Y-9729843D01*
X18700119Y-9725081D01*
X18695357Y-9720319D01*
X18690595Y-9710795D01*
X8220238Y-10770952D02*
X8120238Y-10770952D01*
X8120238Y-10794762D01*
X8125000Y-10809048D01*
X8134524Y-10818571D01*
X8144048Y-10823333D01*
X8163095Y-10828095D01*
X8177381Y-10828095D01*
X8196428Y-10823333D01*
X8205952Y-10818571D01*
X8215476Y-10809048D01*
X8220238Y-10794762D01*
X8220238Y-10770952D01*
X8120238Y-10913810D02*
X8120238Y-10894762D01*
X8125000Y-10885238D01*
X8129762Y-10880476D01*
X8144048Y-10870952D01*
X8163095Y-10866190D01*
X8201190Y-10866190D01*
X8210714Y-10870952D01*
X8215476Y-10875714D01*
X8220238Y-10885238D01*
X8220238Y-10904286D01*
X8215476Y-10913810D01*
X8210714Y-10918571D01*
X8201190Y-10923333D01*
X8177381Y-10923333D01*
X8167857Y-10918571D01*
X8163095Y-10913810D01*
X8158333Y-10904286D01*
X8158333Y-10885238D01*
X8163095Y-10875714D01*
X8167857Y-10870952D01*
X8177381Y-10866190D01*
X8120238Y-10985238D02*
X8120238Y-10994762D01*
X8125000Y-11004286D01*
X8129762Y-11009048D01*
X8139286Y-11013810D01*
X8158333Y-11018571D01*
X8182143Y-11018571D01*
X8201190Y-11013810D01*
X8210714Y-11009048D01*
X8215476Y-11004286D01*
X8220238Y-10994762D01*
X8220238Y-10985238D01*
X8215476Y-10975714D01*
X8210714Y-10970952D01*
X8201190Y-10966190D01*
X8182143Y-10961429D01*
X8158333Y-10961429D01*
X8139286Y-10966190D01*
X8129762Y-10970952D01*
X8125000Y-10975714D01*
X8120238Y-10985238D01*
X8120238Y-11104286D02*
X8120238Y-11085238D01*
X8125000Y-11075714D01*
X8129762Y-11070952D01*
X8144048Y-11061429D01*
X8163095Y-11056667D01*
X8201190Y-11056667D01*
X8210714Y-11061429D01*
X8215476Y-11066190D01*
X8220238Y-11075714D01*
X8220238Y-11094762D01*
X8215476Y-11104286D01*
X8210714Y-11109048D01*
X8201190Y-11113810D01*
X8177381Y-11113810D01*
X8167857Y-11109048D01*
X8163095Y-11104286D01*
X8158333Y-11094762D01*
X8158333Y-11075714D01*
X8163095Y-11066190D01*
X8167857Y-11061429D01*
X8177381Y-11056667D01*
X11309762Y-8490238D02*
X11305000Y-8480714D01*
X11295476Y-8471190D01*
X11281190Y-8456905D01*
X11276428Y-8447381D01*
X11276428Y-8437857D01*
X11300238Y-8442619D02*
X11295476Y-8433095D01*
X11285952Y-8423571D01*
X11266905Y-8418810D01*
X11233571Y-8418810D01*
X11214524Y-8423571D01*
X11205000Y-8433095D01*
X11200238Y-8442619D01*
X11200238Y-8461667D01*
X11205000Y-8471190D01*
X11214524Y-8480714D01*
X11233571Y-8485476D01*
X11266905Y-8485476D01*
X11285952Y-8480714D01*
X11295476Y-8471190D01*
X11300238Y-8461667D01*
X11300238Y-8442619D01*
X11200238Y-8571190D02*
X11200238Y-8552143D01*
X11205000Y-8542619D01*
X11209762Y-8537857D01*
X11224048Y-8528333D01*
X11243095Y-8523571D01*
X11281190Y-8523571D01*
X11290714Y-8528333D01*
X11295476Y-8533095D01*
X11300238Y-8542619D01*
X11300238Y-8561667D01*
X11295476Y-8571190D01*
X11290714Y-8575952D01*
X11281190Y-8580714D01*
X11257381Y-8580714D01*
X11247857Y-8575952D01*
X11243095Y-8571190D01*
X11238333Y-8561667D01*
X11238333Y-8542619D01*
X11243095Y-8533095D01*
X11247857Y-8528333D01*
X11257381Y-8523571D01*
X11200238Y-8642619D02*
X11200238Y-8652143D01*
X11205000Y-8661667D01*
X11209762Y-8666429D01*
X11219286Y-8671190D01*
X11238333Y-8675952D01*
X11262143Y-8675952D01*
X11281190Y-8671190D01*
X11290714Y-8666429D01*
X11295476Y-8661667D01*
X11300238Y-8652143D01*
X11300238Y-8642619D01*
X11295476Y-8633095D01*
X11290714Y-8628333D01*
X11281190Y-8623571D01*
X11262143Y-8618810D01*
X11238333Y-8618810D01*
X11219286Y-8623571D01*
X11209762Y-8628333D01*
X11205000Y-8633095D01*
X11200238Y-8642619D01*
X11209762Y-8714048D02*
X11205000Y-8718810D01*
X11200238Y-8728333D01*
X11200238Y-8752143D01*
X11205000Y-8761667D01*
X11209762Y-8766429D01*
X11219286Y-8771190D01*
X11228809Y-8771190D01*
X11243095Y-8766429D01*
X11300238Y-8709286D01*
X11300238Y-8771190D01*
X15590805Y-11495714D02*
X15595567Y-11500476D01*
X15609852Y-11505238D01*
X15619376Y-11505238D01*
X15633662Y-11500476D01*
X15643186Y-11490952D01*
X15647948Y-11481428D01*
X15652709Y-11462381D01*
X15652709Y-11448095D01*
X15647948Y-11429048D01*
X15643186Y-11419524D01*
X15633662Y-11410000D01*
X15619376Y-11405238D01*
X15609852Y-11405238D01*
X15595567Y-11410000D01*
X15590805Y-11414762D01*
X15505090Y-11438571D02*
X15505090Y-11505238D01*
X15528900Y-11400476D02*
X15552709Y-11471905D01*
X15490805Y-11471905D01*
X15433662Y-11405238D02*
X15424138Y-11405238D01*
X15414614Y-11410000D01*
X15409852Y-11414762D01*
X15405090Y-11424286D01*
X15400328Y-11443333D01*
X15400328Y-11467143D01*
X15405090Y-11486190D01*
X15409852Y-11495714D01*
X15414614Y-11500476D01*
X15424138Y-11505238D01*
X15433662Y-11505238D01*
X15443186Y-11500476D01*
X15447948Y-11495714D01*
X15452709Y-11486190D01*
X15457471Y-11467143D01*
X15457471Y-11443333D01*
X15452709Y-11424286D01*
X15447948Y-11414762D01*
X15443186Y-11410000D01*
X15433662Y-11405238D01*
X15352709Y-11505238D02*
X15333662Y-11505238D01*
X15324138Y-11500476D01*
X15319376Y-11495714D01*
X15309852Y-11481428D01*
X15305090Y-11462381D01*
X15305090Y-11424286D01*
X15309852Y-11414762D01*
X15314614Y-11410000D01*
X15324138Y-11405238D01*
X15343186Y-11405238D01*
X15352709Y-11410000D01*
X15357471Y-11414762D01*
X15362233Y-11424286D01*
X15362233Y-11448095D01*
X15357471Y-11457619D01*
X15352709Y-11462381D01*
X15343186Y-11467143D01*
X15324138Y-11467143D01*
X15314614Y-11462381D01*
X15309852Y-11457619D01*
X15305090Y-11448095D01*
X10404762Y-11264762D02*
X10414286Y-11260000D01*
X10423810Y-11250476D01*
X10438095Y-11236190D01*
X10447619Y-11231428D01*
X10457143Y-11231428D01*
X10452381Y-11255238D02*
X10461905Y-11250476D01*
X10471429Y-11240952D01*
X10476190Y-11221905D01*
X10476190Y-11188571D01*
X10471429Y-11169524D01*
X10461905Y-11160000D01*
X10452381Y-11155238D01*
X10433333Y-11155238D01*
X10423810Y-11160000D01*
X10414286Y-11169524D01*
X10409524Y-11188571D01*
X10409524Y-11221905D01*
X10414286Y-11240952D01*
X10423810Y-11250476D01*
X10433333Y-11255238D01*
X10452381Y-11255238D01*
X10323810Y-11155238D02*
X10342857Y-11155238D01*
X10352381Y-11160000D01*
X10357143Y-11164762D01*
X10366667Y-11179048D01*
X10371429Y-11198095D01*
X10371429Y-11236190D01*
X10366667Y-11245714D01*
X10361905Y-11250476D01*
X10352381Y-11255238D01*
X10333333Y-11255238D01*
X10323810Y-11250476D01*
X10319048Y-11245714D01*
X10314286Y-11236190D01*
X10314286Y-11212381D01*
X10319048Y-11202857D01*
X10323810Y-11198095D01*
X10333333Y-11193333D01*
X10352381Y-11193333D01*
X10361905Y-11198095D01*
X10366667Y-11202857D01*
X10371429Y-11212381D01*
X10252381Y-11155238D02*
X10242857Y-11155238D01*
X10233333Y-11160000D01*
X10228571Y-11164762D01*
X10223810Y-11174286D01*
X10219048Y-11193333D01*
X10219048Y-11217143D01*
X10223810Y-11236190D01*
X10228571Y-11245714D01*
X10233333Y-11250476D01*
X10242857Y-11255238D01*
X10252381Y-11255238D01*
X10261905Y-11250476D01*
X10266667Y-11245714D01*
X10271429Y-11236190D01*
X10276190Y-11217143D01*
X10276190Y-11193333D01*
X10271429Y-11174286D01*
X10266667Y-11164762D01*
X10261905Y-11160000D01*
X10252381Y-11155238D01*
X10133333Y-11188571D02*
X10133333Y-11255238D01*
X10157143Y-11150476D02*
X10180952Y-11221905D01*
X10119048Y-11221905D01*
X9984762Y-11359762D02*
X9994286Y-11355000D01*
X10003810Y-11345476D01*
X10018095Y-11331190D01*
X10027619Y-11326428D01*
X10037143Y-11326428D01*
X10032381Y-11350238D02*
X10041905Y-11345476D01*
X10051429Y-11335952D01*
X10056190Y-11316905D01*
X10056190Y-11283571D01*
X10051429Y-11264524D01*
X10041905Y-11255000D01*
X10032381Y-11250238D01*
X10013333Y-11250238D01*
X10003810Y-11255000D01*
X9994286Y-11264524D01*
X9989524Y-11283571D01*
X9989524Y-11316905D01*
X9994286Y-11335952D01*
X10003810Y-11345476D01*
X10013333Y-11350238D01*
X10032381Y-11350238D01*
X9903810Y-11250238D02*
X9922857Y-11250238D01*
X9932381Y-11255000D01*
X9937143Y-11259762D01*
X9946667Y-11274048D01*
X9951429Y-11293095D01*
X9951429Y-11331190D01*
X9946667Y-11340714D01*
X9941905Y-11345476D01*
X9932381Y-11350238D01*
X9913333Y-11350238D01*
X9903810Y-11345476D01*
X9899048Y-11340714D01*
X9894286Y-11331190D01*
X9894286Y-11307381D01*
X9899048Y-11297857D01*
X9903810Y-11293095D01*
X9913333Y-11288333D01*
X9932381Y-11288333D01*
X9941905Y-11293095D01*
X9946667Y-11297857D01*
X9951429Y-11307381D01*
X9832381Y-11250238D02*
X9822857Y-11250238D01*
X9813333Y-11255000D01*
X9808571Y-11259762D01*
X9803810Y-11269286D01*
X9799048Y-11288333D01*
X9799048Y-11312143D01*
X9803810Y-11331190D01*
X9808571Y-11340714D01*
X9813333Y-11345476D01*
X9822857Y-11350238D01*
X9832381Y-11350238D01*
X9841905Y-11345476D01*
X9846667Y-11340714D01*
X9851429Y-11331190D01*
X9856190Y-11312143D01*
X9856190Y-11288333D01*
X9851429Y-11269286D01*
X9846667Y-11259762D01*
X9841905Y-11255000D01*
X9832381Y-11250238D01*
X9765714Y-11250238D02*
X9703810Y-11250238D01*
X9737143Y-11288333D01*
X9722857Y-11288333D01*
X9713333Y-11293095D01*
X9708571Y-11297857D01*
X9703810Y-11307381D01*
X9703810Y-11331190D01*
X9708571Y-11340714D01*
X9713333Y-11345476D01*
X9722857Y-11350238D01*
X9751429Y-11350238D01*
X9760952Y-11345476D01*
X9765714Y-11340714D01*
X7923571Y-11772857D02*
X7956905Y-11772857D01*
X7956905Y-11825238D02*
X7956905Y-11725238D01*
X7909286Y-11725238D01*
X7828333Y-11725238D02*
X7847381Y-11725238D01*
X7856905Y-11730000D01*
X7861667Y-11734762D01*
X7871190Y-11749048D01*
X7875952Y-11768095D01*
X7875952Y-11806190D01*
X7871190Y-11815714D01*
X7866428Y-11820476D01*
X7856905Y-11825238D01*
X7837857Y-11825238D01*
X7828333Y-11820476D01*
X7823571Y-11815714D01*
X7818809Y-11806190D01*
X7818809Y-11782381D01*
X7823571Y-11772857D01*
X7828333Y-11768095D01*
X7837857Y-11763333D01*
X7856905Y-11763333D01*
X7866428Y-11768095D01*
X7871190Y-11772857D01*
X7875952Y-11782381D01*
X7756905Y-11725238D02*
X7747381Y-11725238D01*
X7737857Y-11730000D01*
X7733095Y-11734762D01*
X7728333Y-11744286D01*
X7723571Y-11763333D01*
X7723571Y-11787143D01*
X7728333Y-11806190D01*
X7733095Y-11815714D01*
X7737857Y-11820476D01*
X7747381Y-11825238D01*
X7756905Y-11825238D01*
X7766428Y-11820476D01*
X7771190Y-11815714D01*
X7775952Y-11806190D01*
X7780714Y-11787143D01*
X7780714Y-11763333D01*
X7775952Y-11744286D01*
X7771190Y-11734762D01*
X7766428Y-11730000D01*
X7756905Y-11725238D01*
X7685476Y-11734762D02*
X7680714Y-11730000D01*
X7671190Y-11725238D01*
X7647381Y-11725238D01*
X7637857Y-11730000D01*
X7633095Y-11734762D01*
X7628333Y-11744286D01*
X7628333Y-11753809D01*
X7633095Y-11768095D01*
X7690238Y-11825238D01*
X7628333Y-11825238D01*
X7922571Y-5245857D02*
X7955905Y-5245857D01*
X7955905Y-5298238D02*
X7955905Y-5198238D01*
X7908286Y-5198238D01*
X7827333Y-5198238D02*
X7846381Y-5198238D01*
X7855905Y-5203000D01*
X7860667Y-5207762D01*
X7870190Y-5222048D01*
X7874952Y-5241095D01*
X7874952Y-5279190D01*
X7870190Y-5288714D01*
X7865428Y-5293476D01*
X7855905Y-5298238D01*
X7836857Y-5298238D01*
X7827333Y-5293476D01*
X7822571Y-5288714D01*
X7817809Y-5279190D01*
X7817809Y-5255381D01*
X7822571Y-5245857D01*
X7827333Y-5241095D01*
X7836857Y-5236333D01*
X7855905Y-5236333D01*
X7865428Y-5241095D01*
X7870190Y-5245857D01*
X7874952Y-5255381D01*
X7755905Y-5198238D02*
X7746381Y-5198238D01*
X7736857Y-5203000D01*
X7732095Y-5207762D01*
X7727333Y-5217286D01*
X7722571Y-5236333D01*
X7722571Y-5260143D01*
X7727333Y-5279190D01*
X7732095Y-5288714D01*
X7736857Y-5293476D01*
X7746381Y-5298238D01*
X7755905Y-5298238D01*
X7765428Y-5293476D01*
X7770190Y-5288714D01*
X7774952Y-5279190D01*
X7779714Y-5260143D01*
X7779714Y-5236333D01*
X7774952Y-5217286D01*
X7770190Y-5207762D01*
X7765428Y-5203000D01*
X7755905Y-5198238D01*
X7627333Y-5298238D02*
X7684476Y-5298238D01*
X7655905Y-5298238D02*
X7655905Y-5198238D01*
X7665428Y-5212524D01*
X7674952Y-5222048D01*
X7684476Y-5226810D01*
X8558905Y-9351214D02*
X8563667Y-9355976D01*
X8577952Y-9360738D01*
X8587476Y-9360738D01*
X8601762Y-9355976D01*
X8611286Y-9346452D01*
X8616048Y-9336928D01*
X8620810Y-9317881D01*
X8620810Y-9303595D01*
X8616048Y-9284548D01*
X8611286Y-9275024D01*
X8601762Y-9265500D01*
X8587476Y-9260738D01*
X8577952Y-9260738D01*
X8563667Y-9265500D01*
X8558905Y-9270262D01*
X8473190Y-9260738D02*
X8492238Y-9260738D01*
X8501762Y-9265500D01*
X8506524Y-9270262D01*
X8516048Y-9284548D01*
X8520810Y-9303595D01*
X8520810Y-9341690D01*
X8516048Y-9351214D01*
X8511286Y-9355976D01*
X8501762Y-9360738D01*
X8482714Y-9360738D01*
X8473190Y-9355976D01*
X8468429Y-9351214D01*
X8463667Y-9341690D01*
X8463667Y-9317881D01*
X8468429Y-9308357D01*
X8473190Y-9303595D01*
X8482714Y-9298833D01*
X8501762Y-9298833D01*
X8511286Y-9303595D01*
X8516048Y-9308357D01*
X8520810Y-9317881D01*
X8425571Y-9270262D02*
X8420810Y-9265500D01*
X8411286Y-9260738D01*
X8387476Y-9260738D01*
X8377952Y-9265500D01*
X8373190Y-9270262D01*
X8368428Y-9279786D01*
X8368428Y-9289309D01*
X8373190Y-9303595D01*
X8430333Y-9360738D01*
X8368428Y-9360738D01*
X8306524Y-9260738D02*
X8297000Y-9260738D01*
X8287476Y-9265500D01*
X8282714Y-9270262D01*
X8277952Y-9279786D01*
X8273190Y-9298833D01*
X8273190Y-9322643D01*
X8277952Y-9341690D01*
X8282714Y-9351214D01*
X8287476Y-9355976D01*
X8297000Y-9360738D01*
X8306524Y-9360738D01*
X8316048Y-9355976D01*
X8320809Y-9351214D01*
X8325571Y-9341690D01*
X8330333Y-9322643D01*
X8330333Y-9298833D01*
X8325571Y-9279786D01*
X8320809Y-9270262D01*
X8316048Y-9265500D01*
X8306524Y-9260738D01*
X8558905Y-9580714D02*
X8563667Y-9585476D01*
X8577952Y-9590238D01*
X8587476Y-9590238D01*
X8601762Y-9585476D01*
X8611286Y-9575952D01*
X8616048Y-9566429D01*
X8620810Y-9547381D01*
X8620810Y-9533095D01*
X8616048Y-9514048D01*
X8611286Y-9504524D01*
X8601762Y-9495000D01*
X8587476Y-9490238D01*
X8577952Y-9490238D01*
X8563667Y-9495000D01*
X8558905Y-9499762D01*
X8473190Y-9490238D02*
X8492238Y-9490238D01*
X8501762Y-9495000D01*
X8506524Y-9499762D01*
X8516048Y-9514048D01*
X8520810Y-9533095D01*
X8520810Y-9571190D01*
X8516048Y-9580714D01*
X8511286Y-9585476D01*
X8501762Y-9590238D01*
X8482714Y-9590238D01*
X8473190Y-9585476D01*
X8468429Y-9580714D01*
X8463667Y-9571190D01*
X8463667Y-9547381D01*
X8468429Y-9537857D01*
X8473190Y-9533095D01*
X8482714Y-9528333D01*
X8501762Y-9528333D01*
X8511286Y-9533095D01*
X8516048Y-9537857D01*
X8520810Y-9547381D01*
X8368428Y-9590238D02*
X8425571Y-9590238D01*
X8397000Y-9590238D02*
X8397000Y-9490238D01*
X8406524Y-9504524D01*
X8416048Y-9514048D01*
X8425571Y-9518810D01*
X8320809Y-9590238D02*
X8301762Y-9590238D01*
X8292238Y-9585476D01*
X8287476Y-9580714D01*
X8277952Y-9566429D01*
X8273190Y-9547381D01*
X8273190Y-9509286D01*
X8277952Y-9499762D01*
X8282714Y-9495000D01*
X8292238Y-9490238D01*
X8311286Y-9490238D01*
X8320809Y-9495000D01*
X8325571Y-9499762D01*
X8330333Y-9509286D01*
X8330333Y-9533095D01*
X8325571Y-9542619D01*
X8320809Y-9547381D01*
X8311286Y-9552143D01*
X8292238Y-9552143D01*
X8282714Y-9547381D01*
X8277952Y-9542619D01*
X8273190Y-9533095D01*
X8561905Y-8817714D02*
X8566667Y-8822476D01*
X8580952Y-8827238D01*
X8590476Y-8827238D01*
X8604762Y-8822476D01*
X8614286Y-8812952D01*
X8619048Y-8803429D01*
X8623810Y-8784381D01*
X8623810Y-8770095D01*
X8619048Y-8751048D01*
X8614286Y-8741524D01*
X8604762Y-8732000D01*
X8590476Y-8727238D01*
X8580952Y-8727238D01*
X8566667Y-8732000D01*
X8561905Y-8736762D01*
X8476190Y-8727238D02*
X8495238Y-8727238D01*
X8504762Y-8732000D01*
X8509524Y-8736762D01*
X8519048Y-8751048D01*
X8523810Y-8770095D01*
X8523810Y-8808190D01*
X8519048Y-8817714D01*
X8514286Y-8822476D01*
X8504762Y-8827238D01*
X8485714Y-8827238D01*
X8476190Y-8822476D01*
X8471429Y-8817714D01*
X8466667Y-8808190D01*
X8466667Y-8784381D01*
X8471429Y-8774857D01*
X8476190Y-8770095D01*
X8485714Y-8765333D01*
X8504762Y-8765333D01*
X8514286Y-8770095D01*
X8519048Y-8774857D01*
X8523810Y-8784381D01*
X8371428Y-8827238D02*
X8428571Y-8827238D01*
X8400000Y-8827238D02*
X8400000Y-8727238D01*
X8409524Y-8741524D01*
X8419048Y-8751048D01*
X8428571Y-8755810D01*
X8314286Y-8770095D02*
X8323809Y-8765333D01*
X8328571Y-8760571D01*
X8333333Y-8751048D01*
X8333333Y-8746286D01*
X8328571Y-8736762D01*
X8323809Y-8732000D01*
X8314286Y-8727238D01*
X8295238Y-8727238D01*
X8285714Y-8732000D01*
X8280952Y-8736762D01*
X8276190Y-8746286D01*
X8276190Y-8751048D01*
X8280952Y-8760571D01*
X8285714Y-8765333D01*
X8295238Y-8770095D01*
X8314286Y-8770095D01*
X8323809Y-8774857D01*
X8328571Y-8779619D01*
X8333333Y-8789143D01*
X8333333Y-8808190D01*
X8328571Y-8817714D01*
X8323809Y-8822476D01*
X8314286Y-8827238D01*
X8295238Y-8827238D01*
X8285714Y-8822476D01*
X8280952Y-8817714D01*
X8276190Y-8808190D01*
X8276190Y-8789143D01*
X8280952Y-8779619D01*
X8285714Y-8774857D01*
X8295238Y-8770095D01*
X8561905Y-9104714D02*
X8566667Y-9109476D01*
X8580952Y-9114238D01*
X8590476Y-9114238D01*
X8604762Y-9109476D01*
X8614286Y-9099952D01*
X8619048Y-9090429D01*
X8623810Y-9071381D01*
X8623810Y-9057095D01*
X8619048Y-9038048D01*
X8614286Y-9028524D01*
X8604762Y-9019000D01*
X8590476Y-9014238D01*
X8580952Y-9014238D01*
X8566667Y-9019000D01*
X8561905Y-9023762D01*
X8476190Y-9014238D02*
X8495238Y-9014238D01*
X8504762Y-9019000D01*
X8509524Y-9023762D01*
X8519048Y-9038048D01*
X8523810Y-9057095D01*
X8523810Y-9095190D01*
X8519048Y-9104714D01*
X8514286Y-9109476D01*
X8504762Y-9114238D01*
X8485714Y-9114238D01*
X8476190Y-9109476D01*
X8471429Y-9104714D01*
X8466667Y-9095190D01*
X8466667Y-9071381D01*
X8471429Y-9061857D01*
X8476190Y-9057095D01*
X8485714Y-9052333D01*
X8504762Y-9052333D01*
X8514286Y-9057095D01*
X8519048Y-9061857D01*
X8523810Y-9071381D01*
X8371428Y-9114238D02*
X8428571Y-9114238D01*
X8400000Y-9114238D02*
X8400000Y-9014238D01*
X8409524Y-9028524D01*
X8419048Y-9038048D01*
X8428571Y-9042810D01*
X8338095Y-9014238D02*
X8271428Y-9014238D01*
X8314286Y-9114238D01*
X11905238Y-9723571D02*
X11986190Y-9723571D01*
X11995714Y-9728333D01*
X12000476Y-9733095D01*
X12005238Y-9742619D01*
X12005238Y-9761667D01*
X12000476Y-9771190D01*
X11995714Y-9775952D01*
X11986190Y-9780714D01*
X11905238Y-9780714D01*
X11905238Y-9871190D02*
X11905238Y-9852143D01*
X11910000Y-9842619D01*
X11914762Y-9837857D01*
X11929048Y-9828333D01*
X11948095Y-9823571D01*
X11986190Y-9823571D01*
X11995714Y-9828333D01*
X12000476Y-9833095D01*
X12005238Y-9842619D01*
X12005238Y-9861667D01*
X12000476Y-9871190D01*
X11995714Y-9875952D01*
X11986190Y-9880714D01*
X11962381Y-9880714D01*
X11952857Y-9875952D01*
X11948095Y-9871190D01*
X11943333Y-9861667D01*
X11943333Y-9842619D01*
X11948095Y-9833095D01*
X11952857Y-9828333D01*
X11962381Y-9823571D01*
X11905238Y-9942619D02*
X11905238Y-9952143D01*
X11910000Y-9961667D01*
X11914762Y-9966429D01*
X11924286Y-9971190D01*
X11943333Y-9975952D01*
X11967143Y-9975952D01*
X11986190Y-9971190D01*
X11995714Y-9966429D01*
X12000476Y-9961667D01*
X12005238Y-9952143D01*
X12005238Y-9942619D01*
X12000476Y-9933095D01*
X11995714Y-9928333D01*
X11986190Y-9923571D01*
X11967143Y-9918810D01*
X11943333Y-9918810D01*
X11924286Y-9923571D01*
X11914762Y-9928333D01*
X11910000Y-9933095D01*
X11905238Y-9942619D01*
X11914762Y-10014048D02*
X11910000Y-10018810D01*
X11905238Y-10028333D01*
X11905238Y-10052143D01*
X11910000Y-10061667D01*
X11914762Y-10066429D01*
X11924286Y-10071190D01*
X11933809Y-10071190D01*
X11948095Y-10066429D01*
X12005238Y-10009286D01*
X12005238Y-10071190D01*
X12810238Y-9783095D02*
X12762619Y-9749762D01*
X12810238Y-9725952D02*
X12710238Y-9725952D01*
X12710238Y-9764048D01*
X12715000Y-9773571D01*
X12719762Y-9778333D01*
X12729286Y-9783095D01*
X12743571Y-9783095D01*
X12753095Y-9778333D01*
X12757857Y-9773571D01*
X12762619Y-9764048D01*
X12762619Y-9725952D01*
X12710238Y-9868810D02*
X12710238Y-9849762D01*
X12715000Y-9840238D01*
X12719762Y-9835476D01*
X12734048Y-9825952D01*
X12753095Y-9821190D01*
X12791190Y-9821190D01*
X12800714Y-9825952D01*
X12805476Y-9830714D01*
X12810238Y-9840238D01*
X12810238Y-9859286D01*
X12805476Y-9868810D01*
X12800714Y-9873571D01*
X12791190Y-9878333D01*
X12767381Y-9878333D01*
X12757857Y-9873571D01*
X12753095Y-9868810D01*
X12748333Y-9859286D01*
X12748333Y-9840238D01*
X12753095Y-9830714D01*
X12757857Y-9825952D01*
X12767381Y-9821190D01*
X12710238Y-9940238D02*
X12710238Y-9949762D01*
X12715000Y-9959286D01*
X12719762Y-9964048D01*
X12729286Y-9968810D01*
X12748333Y-9973571D01*
X12772143Y-9973571D01*
X12791190Y-9968810D01*
X12800714Y-9964048D01*
X12805476Y-9959286D01*
X12810238Y-9949762D01*
X12810238Y-9940238D01*
X12805476Y-9930714D01*
X12800714Y-9925952D01*
X12791190Y-9921190D01*
X12772143Y-9916429D01*
X12748333Y-9916429D01*
X12729286Y-9921190D01*
X12719762Y-9925952D01*
X12715000Y-9930714D01*
X12710238Y-9940238D01*
X12710238Y-10059286D02*
X12710238Y-10040238D01*
X12715000Y-10030714D01*
X12719762Y-10025952D01*
X12734048Y-10016429D01*
X12753095Y-10011667D01*
X12791190Y-10011667D01*
X12800714Y-10016429D01*
X12805476Y-10021190D01*
X12810238Y-10030714D01*
X12810238Y-10049762D01*
X12805476Y-10059286D01*
X12800714Y-10064048D01*
X12791190Y-10068810D01*
X12767381Y-10068810D01*
X12757857Y-10064048D01*
X12753095Y-10059286D01*
X12748333Y-10049762D01*
X12748333Y-10030714D01*
X12753095Y-10021190D01*
X12757857Y-10016429D01*
X12767381Y-10011667D01*
X18814329Y-11324338D02*
X18814329Y-11405290D01*
X18809567Y-11414814D01*
X18804805Y-11419576D01*
X18795281Y-11424338D01*
X18776233Y-11424338D01*
X18766710Y-11419576D01*
X18761948Y-11414814D01*
X18757186Y-11405290D01*
X18757186Y-11324338D01*
X18714329Y-11333862D02*
X18709567Y-11329100D01*
X18700043Y-11324338D01*
X18676233Y-11324338D01*
X18666710Y-11329100D01*
X18661948Y-11333862D01*
X18657186Y-11343386D01*
X18657186Y-11352909D01*
X18661948Y-11367195D01*
X18719090Y-11424338D01*
X18657186Y-11424338D01*
X18595281Y-11324338D02*
X18585757Y-11324338D01*
X18576233Y-11329100D01*
X18571471Y-11333862D01*
X18566710Y-11343386D01*
X18561948Y-11362433D01*
X18561948Y-11386243D01*
X18566710Y-11405290D01*
X18571471Y-11414814D01*
X18576233Y-11419576D01*
X18585757Y-11424338D01*
X18595281Y-11424338D01*
X18604805Y-11419576D01*
X18609567Y-11414814D01*
X18614329Y-11405290D01*
X18619090Y-11386243D01*
X18619090Y-11362433D01*
X18614329Y-11343386D01*
X18609567Y-11333862D01*
X18604805Y-11329100D01*
X18595281Y-11324338D01*
X18523852Y-11333862D02*
X18519090Y-11329100D01*
X18509567Y-11324338D01*
X18485757Y-11324338D01*
X18476233Y-11329100D01*
X18471471Y-11333862D01*
X18466710Y-11343386D01*
X18466710Y-11352909D01*
X18471471Y-11367195D01*
X18528614Y-11424338D01*
X18466710Y-11424338D01*
X15590805Y-10711114D02*
X15595567Y-10715876D01*
X15609852Y-10720638D01*
X15619376Y-10720638D01*
X15633662Y-10715876D01*
X15643186Y-10706352D01*
X15647948Y-10696829D01*
X15652709Y-10677781D01*
X15652709Y-10663495D01*
X15647948Y-10644448D01*
X15643186Y-10634924D01*
X15633662Y-10625400D01*
X15619376Y-10620638D01*
X15609852Y-10620638D01*
X15595567Y-10625400D01*
X15590805Y-10630162D01*
X15505090Y-10653971D02*
X15505090Y-10720638D01*
X15528900Y-10615876D02*
X15552709Y-10687305D01*
X15490805Y-10687305D01*
X15433662Y-10620638D02*
X15424138Y-10620638D01*
X15414614Y-10625400D01*
X15409852Y-10630162D01*
X15405090Y-10639686D01*
X15400328Y-10658733D01*
X15400328Y-10682543D01*
X15405090Y-10701590D01*
X15409852Y-10711114D01*
X15414614Y-10715876D01*
X15424138Y-10720638D01*
X15433662Y-10720638D01*
X15443186Y-10715876D01*
X15447948Y-10711114D01*
X15452709Y-10701590D01*
X15457471Y-10682543D01*
X15457471Y-10658733D01*
X15452709Y-10639686D01*
X15447948Y-10630162D01*
X15443186Y-10625400D01*
X15433662Y-10620638D01*
X15366995Y-10620638D02*
X15300328Y-10620638D01*
X15343186Y-10720638D01*
X13980714Y-11883095D02*
X13985476Y-11878333D01*
X13990238Y-11864048D01*
X13990238Y-11854524D01*
X13985476Y-11840238D01*
X13975952Y-11830714D01*
X13966428Y-11825952D01*
X13947381Y-11821190D01*
X13933095Y-11821190D01*
X13914048Y-11825952D01*
X13904524Y-11830714D01*
X13895000Y-11840238D01*
X13890238Y-11854524D01*
X13890238Y-11864048D01*
X13895000Y-11878333D01*
X13899762Y-11883095D01*
X13890238Y-11968809D02*
X13890238Y-11949762D01*
X13895000Y-11940238D01*
X13899762Y-11935476D01*
X13914048Y-11925952D01*
X13933095Y-11921190D01*
X13971190Y-11921190D01*
X13980714Y-11925952D01*
X13985476Y-11930714D01*
X13990238Y-11940238D01*
X13990238Y-11959286D01*
X13985476Y-11968809D01*
X13980714Y-11973571D01*
X13971190Y-11978333D01*
X13947381Y-11978333D01*
X13937857Y-11973571D01*
X13933095Y-11968809D01*
X13928333Y-11959286D01*
X13928333Y-11940238D01*
X13933095Y-11930714D01*
X13937857Y-11925952D01*
X13947381Y-11921190D01*
X13990238Y-12073571D02*
X13990238Y-12016428D01*
X13990238Y-12045000D02*
X13890238Y-12045000D01*
X13904524Y-12035476D01*
X13914048Y-12025952D01*
X13918809Y-12016428D01*
X13899762Y-12111667D02*
X13895000Y-12116428D01*
X13890238Y-12125952D01*
X13890238Y-12149762D01*
X13895000Y-12159286D01*
X13899762Y-12164048D01*
X13909286Y-12168809D01*
X13918809Y-12168809D01*
X13933095Y-12164048D01*
X13990238Y-12106905D01*
X13990238Y-12168809D01*
X11420714Y-9933095D02*
X11425476Y-9928333D01*
X11430238Y-9914048D01*
X11430238Y-9904524D01*
X11425476Y-9890238D01*
X11415952Y-9880714D01*
X11406428Y-9875952D01*
X11387381Y-9871190D01*
X11373095Y-9871190D01*
X11354048Y-9875952D01*
X11344524Y-9880714D01*
X11335000Y-9890238D01*
X11330238Y-9904524D01*
X11330238Y-9914048D01*
X11335000Y-9928333D01*
X11339762Y-9933095D01*
X11330238Y-10018810D02*
X11330238Y-9999762D01*
X11335000Y-9990238D01*
X11339762Y-9985476D01*
X11354048Y-9975952D01*
X11373095Y-9971190D01*
X11411190Y-9971190D01*
X11420714Y-9975952D01*
X11425476Y-9980714D01*
X11430238Y-9990238D01*
X11430238Y-10009286D01*
X11425476Y-10018810D01*
X11420714Y-10023571D01*
X11411190Y-10028333D01*
X11387381Y-10028333D01*
X11377857Y-10023571D01*
X11373095Y-10018810D01*
X11368333Y-10009286D01*
X11368333Y-9990238D01*
X11373095Y-9980714D01*
X11377857Y-9975952D01*
X11387381Y-9971190D01*
X11430238Y-10123571D02*
X11430238Y-10066429D01*
X11430238Y-10095000D02*
X11330238Y-10095000D01*
X11344524Y-10085476D01*
X11354048Y-10075952D01*
X11358809Y-10066429D01*
X11430238Y-10218810D02*
X11430238Y-10161667D01*
X11430238Y-10190238D02*
X11330238Y-10190238D01*
X11344524Y-10180714D01*
X11354048Y-10171190D01*
X11358809Y-10161667D01*
X11309762Y-6640238D02*
X11305000Y-6630714D01*
X11295476Y-6621190D01*
X11281190Y-6606905D01*
X11276428Y-6597381D01*
X11276428Y-6587857D01*
X11300238Y-6592619D02*
X11295476Y-6583095D01*
X11285952Y-6573571D01*
X11266905Y-6568809D01*
X11233571Y-6568809D01*
X11214524Y-6573571D01*
X11205000Y-6583095D01*
X11200238Y-6592619D01*
X11200238Y-6611667D01*
X11205000Y-6621190D01*
X11214524Y-6630714D01*
X11233571Y-6635476D01*
X11266905Y-6635476D01*
X11285952Y-6630714D01*
X11295476Y-6621190D01*
X11300238Y-6611667D01*
X11300238Y-6592619D01*
X11200238Y-6721190D02*
X11200238Y-6702143D01*
X11205000Y-6692619D01*
X11209762Y-6687857D01*
X11224048Y-6678333D01*
X11243095Y-6673571D01*
X11281190Y-6673571D01*
X11290714Y-6678333D01*
X11295476Y-6683095D01*
X11300238Y-6692619D01*
X11300238Y-6711667D01*
X11295476Y-6721190D01*
X11290714Y-6725952D01*
X11281190Y-6730714D01*
X11257381Y-6730714D01*
X11247857Y-6725952D01*
X11243095Y-6721190D01*
X11238333Y-6711667D01*
X11238333Y-6692619D01*
X11243095Y-6683095D01*
X11247857Y-6678333D01*
X11257381Y-6673571D01*
X11200238Y-6792619D02*
X11200238Y-6802143D01*
X11205000Y-6811667D01*
X11209762Y-6816428D01*
X11219286Y-6821190D01*
X11238333Y-6825952D01*
X11262143Y-6825952D01*
X11281190Y-6821190D01*
X11290714Y-6816428D01*
X11295476Y-6811667D01*
X11300238Y-6802143D01*
X11300238Y-6792619D01*
X11295476Y-6783095D01*
X11290714Y-6778333D01*
X11281190Y-6773571D01*
X11262143Y-6768809D01*
X11238333Y-6768809D01*
X11219286Y-6773571D01*
X11209762Y-6778333D01*
X11205000Y-6783095D01*
X11200238Y-6792619D01*
X11300238Y-6921190D02*
X11300238Y-6864048D01*
X11300238Y-6892619D02*
X11200238Y-6892619D01*
X11214524Y-6883095D01*
X11224048Y-6873571D01*
X11228809Y-6864048D01*
X13772238Y-11708571D02*
X13853190Y-11708571D01*
X13862714Y-11713333D01*
X13867476Y-11718095D01*
X13872238Y-11727619D01*
X13872238Y-11746667D01*
X13867476Y-11756190D01*
X13862714Y-11760952D01*
X13853190Y-11765714D01*
X13772238Y-11765714D01*
X13772238Y-11856190D02*
X13772238Y-11837143D01*
X13777000Y-11827619D01*
X13781762Y-11822857D01*
X13796048Y-11813333D01*
X13815095Y-11808571D01*
X13853190Y-11808571D01*
X13862714Y-11813333D01*
X13867476Y-11818095D01*
X13872238Y-11827619D01*
X13872238Y-11846667D01*
X13867476Y-11856190D01*
X13862714Y-11860952D01*
X13853190Y-11865714D01*
X13829381Y-11865714D01*
X13819857Y-11860952D01*
X13815095Y-11856190D01*
X13810333Y-11846667D01*
X13810333Y-11827619D01*
X13815095Y-11818095D01*
X13819857Y-11813333D01*
X13829381Y-11808571D01*
X13772238Y-11927619D02*
X13772238Y-11937143D01*
X13777000Y-11946667D01*
X13781762Y-11951428D01*
X13791286Y-11956190D01*
X13810333Y-11960952D01*
X13834143Y-11960952D01*
X13853190Y-11956190D01*
X13862714Y-11951428D01*
X13867476Y-11946667D01*
X13872238Y-11937143D01*
X13872238Y-11927619D01*
X13867476Y-11918095D01*
X13862714Y-11913333D01*
X13853190Y-11908571D01*
X13834143Y-11903809D01*
X13810333Y-11903809D01*
X13791286Y-11908571D01*
X13781762Y-11913333D01*
X13777000Y-11918095D01*
X13772238Y-11927619D01*
X13772238Y-11994286D02*
X13772238Y-12056190D01*
X13810333Y-12022857D01*
X13810333Y-12037143D01*
X13815095Y-12046667D01*
X13819857Y-12051428D01*
X13829381Y-12056190D01*
X13853190Y-12056190D01*
X13862714Y-12051428D01*
X13867476Y-12046667D01*
X13872238Y-12037143D01*
X13872238Y-12008571D01*
X13867476Y-11999048D01*
X13862714Y-11994286D01*
X10625238Y-9983095D02*
X10577619Y-9949762D01*
X10625238Y-9925952D02*
X10525238Y-9925952D01*
X10525238Y-9964048D01*
X10530000Y-9973571D01*
X10534762Y-9978333D01*
X10544286Y-9983095D01*
X10558571Y-9983095D01*
X10568095Y-9978333D01*
X10572857Y-9973571D01*
X10577619Y-9964048D01*
X10577619Y-9925952D01*
X10525238Y-10068810D02*
X10525238Y-10049762D01*
X10530000Y-10040238D01*
X10534762Y-10035476D01*
X10549048Y-10025952D01*
X10568095Y-10021190D01*
X10606190Y-10021190D01*
X10615714Y-10025952D01*
X10620476Y-10030714D01*
X10625238Y-10040238D01*
X10625238Y-10059286D01*
X10620476Y-10068810D01*
X10615714Y-10073571D01*
X10606190Y-10078333D01*
X10582381Y-10078333D01*
X10572857Y-10073571D01*
X10568095Y-10068810D01*
X10563333Y-10059286D01*
X10563333Y-10040238D01*
X10568095Y-10030714D01*
X10572857Y-10025952D01*
X10582381Y-10021190D01*
X10625238Y-10173571D02*
X10625238Y-10116429D01*
X10625238Y-10145000D02*
X10525238Y-10145000D01*
X10539524Y-10135476D01*
X10549048Y-10125952D01*
X10553810Y-10116429D01*
X10525238Y-10235476D02*
X10525238Y-10245000D01*
X10530000Y-10254524D01*
X10534762Y-10259286D01*
X10544286Y-10264048D01*
X10563333Y-10268810D01*
X10587143Y-10268810D01*
X10606190Y-10264048D01*
X10615714Y-10259286D01*
X10620476Y-10254524D01*
X10625238Y-10245000D01*
X10625238Y-10235476D01*
X10620476Y-10225952D01*
X10615714Y-10221190D01*
X10606190Y-10216429D01*
X10587143Y-10211667D01*
X10563333Y-10211667D01*
X10544286Y-10216429D01*
X10534762Y-10221190D01*
X10530000Y-10225952D01*
X10525238Y-10235476D01*
X10751905Y-10350238D02*
X10785238Y-10302619D01*
X10809048Y-10350238D02*
X10809048Y-10250238D01*
X10770952Y-10250238D01*
X10761429Y-10255000D01*
X10756667Y-10259762D01*
X10751905Y-10269286D01*
X10751905Y-10283571D01*
X10756667Y-10293095D01*
X10761429Y-10297857D01*
X10770952Y-10302619D01*
X10809048Y-10302619D01*
X10666190Y-10250238D02*
X10685238Y-10250238D01*
X10694762Y-10255000D01*
X10699524Y-10259762D01*
X10709048Y-10274048D01*
X10713810Y-10293095D01*
X10713810Y-10331190D01*
X10709048Y-10340714D01*
X10704286Y-10345476D01*
X10694762Y-10350238D01*
X10675714Y-10350238D01*
X10666190Y-10345476D01*
X10661429Y-10340714D01*
X10656667Y-10331190D01*
X10656667Y-10307381D01*
X10661429Y-10297857D01*
X10666190Y-10293095D01*
X10675714Y-10288333D01*
X10694762Y-10288333D01*
X10704286Y-10293095D01*
X10709048Y-10297857D01*
X10713810Y-10307381D01*
X10594762Y-10250238D02*
X10585238Y-10250238D01*
X10575714Y-10255000D01*
X10570952Y-10259762D01*
X10566190Y-10269286D01*
X10561429Y-10288333D01*
X10561429Y-10312143D01*
X10566190Y-10331190D01*
X10570952Y-10340714D01*
X10575714Y-10345476D01*
X10585238Y-10350238D01*
X10594762Y-10350238D01*
X10604286Y-10345476D01*
X10609048Y-10340714D01*
X10613810Y-10331190D01*
X10618571Y-10312143D01*
X10618571Y-10288333D01*
X10613810Y-10269286D01*
X10609048Y-10259762D01*
X10604286Y-10255000D01*
X10594762Y-10250238D01*
X10513810Y-10350238D02*
X10494762Y-10350238D01*
X10485238Y-10345476D01*
X10480476Y-10340714D01*
X10470952Y-10326429D01*
X10466190Y-10307381D01*
X10466190Y-10269286D01*
X10470952Y-10259762D01*
X10475714Y-10255000D01*
X10485238Y-10250238D01*
X10504286Y-10250238D01*
X10513810Y-10255000D01*
X10518571Y-10259762D01*
X10523333Y-10269286D01*
X10523333Y-10293095D01*
X10518571Y-10302619D01*
X10513810Y-10307381D01*
X10504286Y-10312143D01*
X10485238Y-10312143D01*
X10475714Y-10307381D01*
X10470952Y-10302619D01*
X10466190Y-10293095D01*
X10920238Y-8770595D02*
X10872619Y-8737262D01*
X10920238Y-8713452D02*
X10820238Y-8713452D01*
X10820238Y-8751548D01*
X10825000Y-8761071D01*
X10829762Y-8765833D01*
X10839286Y-8770595D01*
X10853571Y-8770595D01*
X10863095Y-8765833D01*
X10867857Y-8761071D01*
X10872619Y-8751548D01*
X10872619Y-8713452D01*
X10820238Y-8856310D02*
X10820238Y-8837262D01*
X10825000Y-8827738D01*
X10829762Y-8822976D01*
X10844048Y-8813452D01*
X10863095Y-8808690D01*
X10901190Y-8808690D01*
X10910714Y-8813452D01*
X10915476Y-8818214D01*
X10920238Y-8827738D01*
X10920238Y-8846786D01*
X10915476Y-8856310D01*
X10910714Y-8861071D01*
X10901190Y-8865833D01*
X10877381Y-8865833D01*
X10867857Y-8861071D01*
X10863095Y-8856310D01*
X10858333Y-8846786D01*
X10858333Y-8827738D01*
X10863095Y-8818214D01*
X10867857Y-8813452D01*
X10877381Y-8808690D01*
X10820238Y-8927738D02*
X10820238Y-8937262D01*
X10825000Y-8946786D01*
X10829762Y-8951548D01*
X10839286Y-8956310D01*
X10858333Y-8961071D01*
X10882143Y-8961071D01*
X10901190Y-8956310D01*
X10910714Y-8951548D01*
X10915476Y-8946786D01*
X10920238Y-8937262D01*
X10920238Y-8927738D01*
X10915476Y-8918214D01*
X10910714Y-8913452D01*
X10901190Y-8908690D01*
X10882143Y-8903929D01*
X10858333Y-8903929D01*
X10839286Y-8908690D01*
X10829762Y-8913452D01*
X10825000Y-8918214D01*
X10820238Y-8927738D01*
X10920238Y-9056310D02*
X10920238Y-8999167D01*
X10920238Y-9027738D02*
X10820238Y-9027738D01*
X10834524Y-9018214D01*
X10844048Y-9008690D01*
X10848810Y-8999167D01*
X14827005Y-11228638D02*
X14860338Y-11181019D01*
X14884148Y-11228638D02*
X14884148Y-11128638D01*
X14846052Y-11128638D01*
X14836528Y-11133400D01*
X14831767Y-11138162D01*
X14827005Y-11147686D01*
X14827005Y-11161971D01*
X14831767Y-11171495D01*
X14836528Y-11176257D01*
X14846052Y-11181019D01*
X14884148Y-11181019D01*
X14741290Y-11161971D02*
X14741290Y-11228638D01*
X14765100Y-11123876D02*
X14788909Y-11195305D01*
X14727005Y-11195305D01*
X14669862Y-11128638D02*
X14660338Y-11128638D01*
X14650814Y-11133400D01*
X14646052Y-11138162D01*
X14641290Y-11147686D01*
X14636528Y-11166733D01*
X14636528Y-11190543D01*
X14641290Y-11209590D01*
X14646052Y-11219114D01*
X14650814Y-11223876D01*
X14660338Y-11228638D01*
X14669862Y-11228638D01*
X14679386Y-11223876D01*
X14684148Y-11219114D01*
X14688909Y-11209590D01*
X14693671Y-11190543D01*
X14693671Y-11166733D01*
X14688909Y-11147686D01*
X14684148Y-11138162D01*
X14679386Y-11133400D01*
X14669862Y-11128638D01*
X14588909Y-11228638D02*
X14569862Y-11228638D01*
X14560338Y-11223876D01*
X14555576Y-11219114D01*
X14546052Y-11204828D01*
X14541290Y-11185781D01*
X14541290Y-11147686D01*
X14546052Y-11138162D01*
X14550814Y-11133400D01*
X14560338Y-11128638D01*
X14579386Y-11128638D01*
X14588909Y-11133400D01*
X14593671Y-11138162D01*
X14598433Y-11147686D01*
X14598433Y-11171495D01*
X14593671Y-11181019D01*
X14588909Y-11185781D01*
X14579386Y-11190543D01*
X14560338Y-11190543D01*
X14550814Y-11185781D01*
X14546052Y-11181019D01*
X14541290Y-11171495D01*
X14827005Y-10974638D02*
X14860338Y-10927019D01*
X14884148Y-10974638D02*
X14884148Y-10874638D01*
X14846052Y-10874638D01*
X14836528Y-10879400D01*
X14831767Y-10884162D01*
X14827005Y-10893686D01*
X14827005Y-10907971D01*
X14831767Y-10917495D01*
X14836528Y-10922257D01*
X14846052Y-10927019D01*
X14884148Y-10927019D01*
X14741290Y-10907971D02*
X14741290Y-10974638D01*
X14765100Y-10869876D02*
X14788909Y-10941305D01*
X14727005Y-10941305D01*
X14669862Y-10874638D02*
X14660338Y-10874638D01*
X14650814Y-10879400D01*
X14646052Y-10884162D01*
X14641290Y-10893686D01*
X14636528Y-10912733D01*
X14636528Y-10936543D01*
X14641290Y-10955590D01*
X14646052Y-10965114D01*
X14650814Y-10969876D01*
X14660338Y-10974638D01*
X14669862Y-10974638D01*
X14679386Y-10969876D01*
X14684148Y-10965114D01*
X14688909Y-10955590D01*
X14693671Y-10936543D01*
X14693671Y-10912733D01*
X14688909Y-10893686D01*
X14684148Y-10884162D01*
X14679386Y-10879400D01*
X14669862Y-10874638D01*
X14579386Y-10917495D02*
X14588909Y-10912733D01*
X14593671Y-10907971D01*
X14598433Y-10898448D01*
X14598433Y-10893686D01*
X14593671Y-10884162D01*
X14588909Y-10879400D01*
X14579386Y-10874638D01*
X14560338Y-10874638D01*
X14550814Y-10879400D01*
X14546052Y-10884162D01*
X14541290Y-10893686D01*
X14541290Y-10898448D01*
X14546052Y-10907971D01*
X14550814Y-10912733D01*
X14560338Y-10917495D01*
X14579386Y-10917495D01*
X14588909Y-10922257D01*
X14593671Y-10927019D01*
X14598433Y-10936543D01*
X14598433Y-10955590D01*
X14593671Y-10965114D01*
X14588909Y-10969876D01*
X14579386Y-10974638D01*
X14560338Y-10974638D01*
X14550814Y-10969876D01*
X14546052Y-10965114D01*
X14541290Y-10955590D01*
X14541290Y-10936543D01*
X14546052Y-10927019D01*
X14550814Y-10922257D01*
X14560338Y-10917495D01*
X14827005Y-11050638D02*
X14860338Y-11003019D01*
X14884148Y-11050638D02*
X14884148Y-10950638D01*
X14846052Y-10950638D01*
X14836528Y-10955400D01*
X14831767Y-10960162D01*
X14827005Y-10969686D01*
X14827005Y-10983971D01*
X14831767Y-10993495D01*
X14836528Y-10998257D01*
X14846052Y-11003019D01*
X14884148Y-11003019D01*
X14741290Y-10983971D02*
X14741290Y-11050638D01*
X14765100Y-10945876D02*
X14788909Y-11017305D01*
X14727005Y-11017305D01*
X14669862Y-10950638D02*
X14660338Y-10950638D01*
X14650814Y-10955400D01*
X14646052Y-10960162D01*
X14641290Y-10969686D01*
X14636528Y-10988733D01*
X14636528Y-11012543D01*
X14641290Y-11031590D01*
X14646052Y-11041114D01*
X14650814Y-11045876D01*
X14660338Y-11050638D01*
X14669862Y-11050638D01*
X14679386Y-11045876D01*
X14684148Y-11041114D01*
X14688909Y-11031590D01*
X14693671Y-11012543D01*
X14693671Y-10988733D01*
X14688909Y-10969686D01*
X14684148Y-10960162D01*
X14679386Y-10955400D01*
X14669862Y-10950638D01*
X14603195Y-10950638D02*
X14536528Y-10950638D01*
X14579386Y-11050638D01*
X10859048Y-7960238D02*
X10859048Y-7860238D01*
X10835238Y-7860238D01*
X10820952Y-7865000D01*
X10811429Y-7874524D01*
X10806667Y-7884048D01*
X10801905Y-7903095D01*
X10801905Y-7917381D01*
X10806667Y-7936428D01*
X10811429Y-7945952D01*
X10820952Y-7955476D01*
X10835238Y-7960238D01*
X10859048Y-7960238D01*
X10716190Y-7860238D02*
X10735238Y-7860238D01*
X10744762Y-7865000D01*
X10749524Y-7869762D01*
X10759048Y-7884048D01*
X10763810Y-7903095D01*
X10763810Y-7941190D01*
X10759048Y-7950714D01*
X10754286Y-7955476D01*
X10744762Y-7960238D01*
X10725714Y-7960238D01*
X10716190Y-7955476D01*
X10711429Y-7950714D01*
X10706667Y-7941190D01*
X10706667Y-7917381D01*
X10711429Y-7907857D01*
X10716190Y-7903095D01*
X10725714Y-7898333D01*
X10744762Y-7898333D01*
X10754286Y-7903095D01*
X10759048Y-7907857D01*
X10763810Y-7917381D01*
X10644762Y-7860238D02*
X10635238Y-7860238D01*
X10625714Y-7865000D01*
X10620952Y-7869762D01*
X10616190Y-7879286D01*
X10611429Y-7898333D01*
X10611429Y-7922143D01*
X10616190Y-7941190D01*
X10620952Y-7950714D01*
X10625714Y-7955476D01*
X10635238Y-7960238D01*
X10644762Y-7960238D01*
X10654286Y-7955476D01*
X10659048Y-7950714D01*
X10663810Y-7941190D01*
X10668571Y-7922143D01*
X10668571Y-7898333D01*
X10663810Y-7879286D01*
X10659048Y-7869762D01*
X10654286Y-7865000D01*
X10644762Y-7860238D01*
X10516190Y-7960238D02*
X10573333Y-7960238D01*
X10544762Y-7960238D02*
X10544762Y-7860238D01*
X10554286Y-7874524D01*
X10563810Y-7884048D01*
X10573333Y-7888809D01*
X10111905Y-8120714D02*
X10116667Y-8125476D01*
X10130952Y-8130238D01*
X10140476Y-8130238D01*
X10154762Y-8125476D01*
X10164286Y-8115952D01*
X10169048Y-8106428D01*
X10173810Y-8087381D01*
X10173810Y-8073095D01*
X10169048Y-8054048D01*
X10164286Y-8044524D01*
X10154762Y-8035000D01*
X10140476Y-8030238D01*
X10130952Y-8030238D01*
X10116667Y-8035000D01*
X10111905Y-8039762D01*
X10026190Y-8030238D02*
X10045238Y-8030238D01*
X10054762Y-8035000D01*
X10059524Y-8039762D01*
X10069048Y-8054048D01*
X10073810Y-8073095D01*
X10073810Y-8111190D01*
X10069048Y-8120714D01*
X10064286Y-8125476D01*
X10054762Y-8130238D01*
X10035714Y-8130238D01*
X10026190Y-8125476D01*
X10021429Y-8120714D01*
X10016667Y-8111190D01*
X10016667Y-8087381D01*
X10021429Y-8077857D01*
X10026190Y-8073095D01*
X10035714Y-8068333D01*
X10054762Y-8068333D01*
X10064286Y-8073095D01*
X10069048Y-8077857D01*
X10073810Y-8087381D01*
X9954762Y-8030238D02*
X9945238Y-8030238D01*
X9935714Y-8035000D01*
X9930952Y-8039762D01*
X9926190Y-8049286D01*
X9921429Y-8068333D01*
X9921429Y-8092143D01*
X9926190Y-8111190D01*
X9930952Y-8120714D01*
X9935714Y-8125476D01*
X9945238Y-8130238D01*
X9954762Y-8130238D01*
X9964286Y-8125476D01*
X9969048Y-8120714D01*
X9973810Y-8111190D01*
X9978571Y-8092143D01*
X9978571Y-8068333D01*
X9973810Y-8049286D01*
X9969048Y-8039762D01*
X9964286Y-8035000D01*
X9954762Y-8030238D01*
X9830952Y-8030238D02*
X9878571Y-8030238D01*
X9883333Y-8077857D01*
X9878571Y-8073095D01*
X9869048Y-8068333D01*
X9845238Y-8068333D01*
X9835714Y-8073095D01*
X9830952Y-8077857D01*
X9826190Y-8087381D01*
X9826190Y-8111190D01*
X9830952Y-8120714D01*
X9835714Y-8125476D01*
X9845238Y-8130238D01*
X9869048Y-8130238D01*
X9878571Y-8125476D01*
X9883333Y-8120714D01*
X10319405Y-7563214D02*
X10324167Y-7567976D01*
X10338452Y-7572738D01*
X10347976Y-7572738D01*
X10362262Y-7567976D01*
X10371786Y-7558452D01*
X10376548Y-7548928D01*
X10381310Y-7529881D01*
X10381310Y-7515595D01*
X10376548Y-7496548D01*
X10371786Y-7487024D01*
X10362262Y-7477500D01*
X10347976Y-7472738D01*
X10338452Y-7472738D01*
X10324167Y-7477500D01*
X10319405Y-7482262D01*
X10233690Y-7472738D02*
X10252738Y-7472738D01*
X10262262Y-7477500D01*
X10267024Y-7482262D01*
X10276548Y-7496548D01*
X10281310Y-7515595D01*
X10281310Y-7553690D01*
X10276548Y-7563214D01*
X10271786Y-7567976D01*
X10262262Y-7572738D01*
X10243214Y-7572738D01*
X10233690Y-7567976D01*
X10228929Y-7563214D01*
X10224167Y-7553690D01*
X10224167Y-7529881D01*
X10228929Y-7520357D01*
X10233690Y-7515595D01*
X10243214Y-7510833D01*
X10262262Y-7510833D01*
X10271786Y-7515595D01*
X10276548Y-7520357D01*
X10281310Y-7529881D01*
X10162262Y-7472738D02*
X10152738Y-7472738D01*
X10143214Y-7477500D01*
X10138452Y-7482262D01*
X10133690Y-7491786D01*
X10128929Y-7510833D01*
X10128929Y-7534643D01*
X10133690Y-7553690D01*
X10138452Y-7563214D01*
X10143214Y-7567976D01*
X10152738Y-7572738D01*
X10162262Y-7572738D01*
X10171786Y-7567976D01*
X10176548Y-7563214D01*
X10181310Y-7553690D01*
X10186071Y-7534643D01*
X10186071Y-7510833D01*
X10181310Y-7491786D01*
X10176548Y-7482262D01*
X10171786Y-7477500D01*
X10162262Y-7472738D01*
X10043214Y-7506071D02*
X10043214Y-7572738D01*
X10067024Y-7467976D02*
X10090833Y-7539405D01*
X10028929Y-7539405D01*
X10910714Y-8328095D02*
X10915476Y-8323333D01*
X10920238Y-8309048D01*
X10920238Y-8299524D01*
X10915476Y-8285238D01*
X10905952Y-8275714D01*
X10896429Y-8270952D01*
X10877381Y-8266190D01*
X10863095Y-8266190D01*
X10844048Y-8270952D01*
X10834524Y-8275714D01*
X10825000Y-8285238D01*
X10820238Y-8299524D01*
X10820238Y-8309048D01*
X10825000Y-8323333D01*
X10829762Y-8328095D01*
X10820238Y-8413810D02*
X10820238Y-8394762D01*
X10825000Y-8385238D01*
X10829762Y-8380476D01*
X10844048Y-8370952D01*
X10863095Y-8366190D01*
X10901190Y-8366190D01*
X10910714Y-8370952D01*
X10915476Y-8375714D01*
X10920238Y-8385238D01*
X10920238Y-8404286D01*
X10915476Y-8413810D01*
X10910714Y-8418571D01*
X10901190Y-8423333D01*
X10877381Y-8423333D01*
X10867857Y-8418571D01*
X10863095Y-8413810D01*
X10858333Y-8404286D01*
X10858333Y-8385238D01*
X10863095Y-8375714D01*
X10867857Y-8370952D01*
X10877381Y-8366190D01*
X10820238Y-8485238D02*
X10820238Y-8494762D01*
X10825000Y-8504286D01*
X10829762Y-8509048D01*
X10839286Y-8513810D01*
X10858333Y-8518571D01*
X10882143Y-8518571D01*
X10901190Y-8513810D01*
X10910714Y-8509048D01*
X10915476Y-8504286D01*
X10920238Y-8494762D01*
X10920238Y-8485238D01*
X10915476Y-8475714D01*
X10910714Y-8470952D01*
X10901190Y-8466190D01*
X10882143Y-8461429D01*
X10858333Y-8461429D01*
X10839286Y-8466190D01*
X10829762Y-8470952D01*
X10825000Y-8475714D01*
X10820238Y-8485238D01*
X10920238Y-8613810D02*
X10920238Y-8556667D01*
X10920238Y-8585238D02*
X10820238Y-8585238D01*
X10834524Y-8575714D01*
X10844048Y-8566190D01*
X10848810Y-8556667D01*
X15590805Y-11270714D02*
X15595567Y-11275476D01*
X15609852Y-11280238D01*
X15619376Y-11280238D01*
X15633662Y-11275476D01*
X15643186Y-11265952D01*
X15647948Y-11256428D01*
X15652709Y-11237381D01*
X15652709Y-11223095D01*
X15647948Y-11204048D01*
X15643186Y-11194524D01*
X15633662Y-11185000D01*
X15619376Y-11180238D01*
X15609852Y-11180238D01*
X15595567Y-11185000D01*
X15590805Y-11189762D01*
X15505090Y-11213571D02*
X15505090Y-11280238D01*
X15528900Y-11175476D02*
X15552709Y-11246905D01*
X15490805Y-11246905D01*
X15433662Y-11180238D02*
X15424138Y-11180238D01*
X15414614Y-11185000D01*
X15409852Y-11189762D01*
X15405090Y-11199286D01*
X15400328Y-11218333D01*
X15400328Y-11242143D01*
X15405090Y-11261190D01*
X15409852Y-11270714D01*
X15414614Y-11275476D01*
X15424138Y-11280238D01*
X15433662Y-11280238D01*
X15443186Y-11275476D01*
X15447948Y-11270714D01*
X15452709Y-11261190D01*
X15457471Y-11242143D01*
X15457471Y-11218333D01*
X15452709Y-11199286D01*
X15447948Y-11189762D01*
X15443186Y-11185000D01*
X15433662Y-11180238D01*
X15343186Y-11223095D02*
X15352709Y-11218333D01*
X15357471Y-11213571D01*
X15362233Y-11204048D01*
X15362233Y-11199286D01*
X15357471Y-11189762D01*
X15352709Y-11185000D01*
X15343186Y-11180238D01*
X15324138Y-11180238D01*
X15314614Y-11185000D01*
X15309852Y-11189762D01*
X15305090Y-11199286D01*
X15305090Y-11204048D01*
X15309852Y-11213571D01*
X15314614Y-11218333D01*
X15324138Y-11223095D01*
X15343186Y-11223095D01*
X15352709Y-11227857D01*
X15357471Y-11232619D01*
X15362233Y-11242143D01*
X15362233Y-11261190D01*
X15357471Y-11270714D01*
X15352709Y-11275476D01*
X15343186Y-11280238D01*
X15324138Y-11280238D01*
X15314614Y-11275476D01*
X15309852Y-11270714D01*
X15305090Y-11261190D01*
X15305090Y-11242143D01*
X15309852Y-11232619D01*
X15314614Y-11227857D01*
X15324138Y-11223095D01*
X21060714Y-6720595D02*
X21065476Y-6715833D01*
X21070238Y-6701548D01*
X21070238Y-6692024D01*
X21065476Y-6677738D01*
X21055952Y-6668214D01*
X21046429Y-6663452D01*
X21027381Y-6658690D01*
X21013095Y-6658690D01*
X20994048Y-6663452D01*
X20984524Y-6668214D01*
X20975000Y-6677738D01*
X20970238Y-6692024D01*
X20970238Y-6701548D01*
X20975000Y-6715833D01*
X20979762Y-6720595D01*
X20970238Y-6753928D02*
X20970238Y-6815833D01*
X21008333Y-6782500D01*
X21008333Y-6796786D01*
X21013095Y-6806309D01*
X21017857Y-6811071D01*
X21027381Y-6815833D01*
X21051190Y-6815833D01*
X21060714Y-6811071D01*
X21065476Y-6806309D01*
X21070238Y-6796786D01*
X21070238Y-6768214D01*
X21065476Y-6758690D01*
X21060714Y-6753928D01*
X20970238Y-6877738D02*
X20970238Y-6887262D01*
X20975000Y-6896786D01*
X20979762Y-6901548D01*
X20989286Y-6906309D01*
X21008333Y-6911071D01*
X21032143Y-6911071D01*
X21051190Y-6906309D01*
X21060714Y-6901548D01*
X21065476Y-6896786D01*
X21070238Y-6887262D01*
X21070238Y-6877738D01*
X21065476Y-6868214D01*
X21060714Y-6863452D01*
X21051190Y-6858690D01*
X21032143Y-6853928D01*
X21008333Y-6853928D01*
X20989286Y-6858690D01*
X20979762Y-6863452D01*
X20975000Y-6868214D01*
X20970238Y-6877738D01*
X20970238Y-6944405D02*
X20970238Y-7006309D01*
X21008333Y-6972976D01*
X21008333Y-6987262D01*
X21013095Y-6996786D01*
X21017857Y-7001548D01*
X21027381Y-7006309D01*
X21051190Y-7006309D01*
X21060714Y-7001548D01*
X21065476Y-6996786D01*
X21070238Y-6987262D01*
X21070238Y-6958690D01*
X21065476Y-6949167D01*
X21060714Y-6944405D01*
X20330714Y-5918095D02*
X20335476Y-5913333D01*
X20340238Y-5899048D01*
X20340238Y-5889524D01*
X20335476Y-5875238D01*
X20325952Y-5865714D01*
X20316429Y-5860952D01*
X20297381Y-5856190D01*
X20283095Y-5856190D01*
X20264048Y-5860952D01*
X20254524Y-5865714D01*
X20245000Y-5875238D01*
X20240238Y-5889524D01*
X20240238Y-5899048D01*
X20245000Y-5913333D01*
X20249762Y-5918095D01*
X20240238Y-5951428D02*
X20240238Y-6013333D01*
X20278333Y-5980000D01*
X20278333Y-5994286D01*
X20283095Y-6003809D01*
X20287857Y-6008571D01*
X20297381Y-6013333D01*
X20321190Y-6013333D01*
X20330714Y-6008571D01*
X20335476Y-6003809D01*
X20340238Y-5994286D01*
X20340238Y-5965714D01*
X20335476Y-5956190D01*
X20330714Y-5951428D01*
X20240238Y-6075238D02*
X20240238Y-6084762D01*
X20245000Y-6094286D01*
X20249762Y-6099048D01*
X20259286Y-6103809D01*
X20278333Y-6108571D01*
X20302143Y-6108571D01*
X20321190Y-6103809D01*
X20330714Y-6099048D01*
X20335476Y-6094286D01*
X20340238Y-6084762D01*
X20340238Y-6075238D01*
X20335476Y-6065714D01*
X20330714Y-6060952D01*
X20321190Y-6056190D01*
X20302143Y-6051428D01*
X20278333Y-6051428D01*
X20259286Y-6056190D01*
X20249762Y-6060952D01*
X20245000Y-6065714D01*
X20240238Y-6075238D01*
X20249762Y-6146667D02*
X20245000Y-6151428D01*
X20240238Y-6160952D01*
X20240238Y-6184762D01*
X20245000Y-6194286D01*
X20249762Y-6199048D01*
X20259286Y-6203809D01*
X20268810Y-6203809D01*
X20283095Y-6199048D01*
X20340238Y-6141905D01*
X20340238Y-6203809D01*
X20750714Y-6573095D02*
X20755476Y-6568333D01*
X20760238Y-6554048D01*
X20760238Y-6544524D01*
X20755476Y-6530238D01*
X20745952Y-6520714D01*
X20736429Y-6515952D01*
X20717381Y-6511190D01*
X20703095Y-6511190D01*
X20684048Y-6515952D01*
X20674524Y-6520714D01*
X20665000Y-6530238D01*
X20660238Y-6544524D01*
X20660238Y-6554048D01*
X20665000Y-6568333D01*
X20669762Y-6573095D01*
X20660238Y-6606428D02*
X20660238Y-6668333D01*
X20698333Y-6635000D01*
X20698333Y-6649286D01*
X20703095Y-6658809D01*
X20707857Y-6663571D01*
X20717381Y-6668333D01*
X20741190Y-6668333D01*
X20750714Y-6663571D01*
X20755476Y-6658809D01*
X20760238Y-6649286D01*
X20760238Y-6620714D01*
X20755476Y-6611190D01*
X20750714Y-6606428D01*
X20660238Y-6730238D02*
X20660238Y-6739762D01*
X20665000Y-6749286D01*
X20669762Y-6754048D01*
X20679286Y-6758809D01*
X20698333Y-6763571D01*
X20722143Y-6763571D01*
X20741190Y-6758809D01*
X20750714Y-6754048D01*
X20755476Y-6749286D01*
X20760238Y-6739762D01*
X20760238Y-6730238D01*
X20755476Y-6720714D01*
X20750714Y-6715952D01*
X20741190Y-6711190D01*
X20722143Y-6706428D01*
X20698333Y-6706428D01*
X20679286Y-6711190D01*
X20669762Y-6715952D01*
X20665000Y-6720714D01*
X20660238Y-6730238D01*
X20693571Y-6849286D02*
X20760238Y-6849286D01*
X20655476Y-6825476D02*
X20726905Y-6801667D01*
X20726905Y-6863571D01*
X20640714Y-6063095D02*
X20645476Y-6058333D01*
X20650238Y-6044048D01*
X20650238Y-6034524D01*
X20645476Y-6020238D01*
X20635952Y-6010714D01*
X20626429Y-6005952D01*
X20607381Y-6001190D01*
X20593095Y-6001190D01*
X20574048Y-6005952D01*
X20564524Y-6010714D01*
X20555000Y-6020238D01*
X20550238Y-6034524D01*
X20550238Y-6044048D01*
X20555000Y-6058333D01*
X20559762Y-6063095D01*
X20550238Y-6096428D02*
X20550238Y-6158333D01*
X20588333Y-6125000D01*
X20588333Y-6139286D01*
X20593095Y-6148809D01*
X20597857Y-6153571D01*
X20607381Y-6158333D01*
X20631190Y-6158333D01*
X20640714Y-6153571D01*
X20645476Y-6148809D01*
X20650238Y-6139286D01*
X20650238Y-6110714D01*
X20645476Y-6101190D01*
X20640714Y-6096428D01*
X20550238Y-6220238D02*
X20550238Y-6229762D01*
X20555000Y-6239286D01*
X20559762Y-6244048D01*
X20569286Y-6248809D01*
X20588333Y-6253571D01*
X20612143Y-6253571D01*
X20631190Y-6248809D01*
X20640714Y-6244048D01*
X20645476Y-6239286D01*
X20650238Y-6229762D01*
X20650238Y-6220238D01*
X20645476Y-6210714D01*
X20640714Y-6205952D01*
X20631190Y-6201190D01*
X20612143Y-6196428D01*
X20588333Y-6196428D01*
X20569286Y-6201190D01*
X20559762Y-6205952D01*
X20555000Y-6210714D01*
X20550238Y-6220238D01*
X20650238Y-6348809D02*
X20650238Y-6291667D01*
X20650238Y-6320238D02*
X20550238Y-6320238D01*
X20564524Y-6310714D01*
X20574048Y-6301190D01*
X20578810Y-6291667D01*
X21779048Y-6150238D02*
X21779048Y-6050238D01*
X21755238Y-6050238D01*
X21740952Y-6055000D01*
X21731429Y-6064524D01*
X21726667Y-6074048D01*
X21721905Y-6093095D01*
X21721905Y-6107381D01*
X21726667Y-6126428D01*
X21731429Y-6135952D01*
X21740952Y-6145476D01*
X21755238Y-6150238D01*
X21779048Y-6150238D01*
X21688571Y-6050238D02*
X21626667Y-6050238D01*
X21660000Y-6088333D01*
X21645714Y-6088333D01*
X21636190Y-6093095D01*
X21631429Y-6097857D01*
X21626667Y-6107381D01*
X21626667Y-6131190D01*
X21631429Y-6140714D01*
X21636190Y-6145476D01*
X21645714Y-6150238D01*
X21674286Y-6150238D01*
X21683810Y-6145476D01*
X21688571Y-6140714D01*
X21564762Y-6050238D02*
X21555238Y-6050238D01*
X21545714Y-6055000D01*
X21540952Y-6059762D01*
X21536190Y-6069286D01*
X21531429Y-6088333D01*
X21531429Y-6112143D01*
X21536190Y-6131190D01*
X21540952Y-6140714D01*
X21545714Y-6145476D01*
X21555238Y-6150238D01*
X21564762Y-6150238D01*
X21574286Y-6145476D01*
X21579048Y-6140714D01*
X21583810Y-6131190D01*
X21588571Y-6112143D01*
X21588571Y-6088333D01*
X21583810Y-6069286D01*
X21579048Y-6059762D01*
X21574286Y-6055000D01*
X21564762Y-6050238D01*
X21436190Y-6150238D02*
X21493333Y-6150238D01*
X21464762Y-6150238D02*
X21464762Y-6050238D01*
X21474286Y-6064524D01*
X21483810Y-6074048D01*
X21493333Y-6078809D01*
X17715638Y-6258571D02*
X17796590Y-6258571D01*
X17806114Y-6263333D01*
X17810876Y-6268095D01*
X17815638Y-6277619D01*
X17815638Y-6296667D01*
X17810876Y-6306190D01*
X17806114Y-6310952D01*
X17796590Y-6315714D01*
X17715638Y-6315714D01*
X17715638Y-6353809D02*
X17715638Y-6415714D01*
X17753733Y-6382381D01*
X17753733Y-6396667D01*
X17758495Y-6406190D01*
X17763257Y-6410952D01*
X17772781Y-6415714D01*
X17796590Y-6415714D01*
X17806114Y-6410952D01*
X17810876Y-6406190D01*
X17815638Y-6396667D01*
X17815638Y-6368095D01*
X17810876Y-6358571D01*
X17806114Y-6353809D01*
X17715638Y-6477619D02*
X17715638Y-6487143D01*
X17720400Y-6496667D01*
X17725162Y-6501428D01*
X17734686Y-6506190D01*
X17753733Y-6510952D01*
X17777543Y-6510952D01*
X17796590Y-6506190D01*
X17806114Y-6501428D01*
X17810876Y-6496667D01*
X17815638Y-6487143D01*
X17815638Y-6477619D01*
X17810876Y-6468095D01*
X17806114Y-6463333D01*
X17796590Y-6458571D01*
X17777543Y-6453809D01*
X17753733Y-6453809D01*
X17734686Y-6458571D01*
X17725162Y-6463333D01*
X17720400Y-6468095D01*
X17715638Y-6477619D01*
X17815638Y-6606190D02*
X17815638Y-6549048D01*
X17815638Y-6577619D02*
X17715638Y-6577619D01*
X17729924Y-6568095D01*
X17739448Y-6558571D01*
X17744210Y-6549048D01*
X16481905Y-11995238D02*
X16515238Y-11947619D01*
X16539048Y-11995238D02*
X16539048Y-11895238D01*
X16500952Y-11895238D01*
X16491428Y-11900000D01*
X16486667Y-11904762D01*
X16481905Y-11914286D01*
X16481905Y-11928571D01*
X16486667Y-11938095D01*
X16491428Y-11942857D01*
X16500952Y-11947619D01*
X16539048Y-11947619D01*
X16396190Y-11928571D02*
X16396190Y-11995238D01*
X16420000Y-11890476D02*
X16443809Y-11961905D01*
X16381905Y-11961905D01*
X16291428Y-11995238D02*
X16348571Y-11995238D01*
X16320000Y-11995238D02*
X16320000Y-11895238D01*
X16329524Y-11909524D01*
X16339048Y-11919048D01*
X16348571Y-11923809D01*
X16196190Y-11995238D02*
X16253333Y-11995238D01*
X16224762Y-11995238D02*
X16224762Y-11895238D01*
X16234286Y-11909524D01*
X16243809Y-11919048D01*
X16253333Y-11923809D01*
X17350238Y-9260595D02*
X17302619Y-9227262D01*
X17350238Y-9203452D02*
X17250238Y-9203452D01*
X17250238Y-9241548D01*
X17255000Y-9251071D01*
X17259762Y-9255833D01*
X17269286Y-9260595D01*
X17283571Y-9260595D01*
X17293095Y-9255833D01*
X17297857Y-9251071D01*
X17302619Y-9241548D01*
X17302619Y-9203452D01*
X17283571Y-9346310D02*
X17350238Y-9346310D01*
X17245476Y-9322500D02*
X17316905Y-9298690D01*
X17316905Y-9360595D01*
X17350238Y-9451071D02*
X17350238Y-9393929D01*
X17350238Y-9422500D02*
X17250238Y-9422500D01*
X17264524Y-9412976D01*
X17274048Y-9403452D01*
X17278810Y-9393929D01*
X17250238Y-9512976D02*
X17250238Y-9522500D01*
X17255000Y-9532024D01*
X17259762Y-9536786D01*
X17269286Y-9541548D01*
X17288333Y-9546310D01*
X17312143Y-9546310D01*
X17331190Y-9541548D01*
X17340714Y-9536786D01*
X17345476Y-9532024D01*
X17350238Y-9522500D01*
X17350238Y-9512976D01*
X17345476Y-9503452D01*
X17340714Y-9498690D01*
X17331190Y-9493929D01*
X17312143Y-9489167D01*
X17288333Y-9489167D01*
X17269286Y-9493929D01*
X17259762Y-9498690D01*
X17255000Y-9503452D01*
X17250238Y-9512976D01*
X16559048Y-8725238D02*
X16559048Y-8625238D01*
X16535238Y-8625238D01*
X16520952Y-8630000D01*
X16511428Y-8639524D01*
X16506667Y-8649048D01*
X16501905Y-8668095D01*
X16501905Y-8682381D01*
X16506667Y-8701429D01*
X16511428Y-8710952D01*
X16520952Y-8720476D01*
X16535238Y-8725238D01*
X16559048Y-8725238D01*
X16416190Y-8658571D02*
X16416190Y-8725238D01*
X16440000Y-8620476D02*
X16463809Y-8691905D01*
X16401905Y-8691905D01*
X16344762Y-8625238D02*
X16335238Y-8625238D01*
X16325714Y-8630000D01*
X16320952Y-8634762D01*
X16316190Y-8644286D01*
X16311428Y-8663333D01*
X16311428Y-8687143D01*
X16316190Y-8706190D01*
X16320952Y-8715714D01*
X16325714Y-8720476D01*
X16335238Y-8725238D01*
X16344762Y-8725238D01*
X16354286Y-8720476D01*
X16359048Y-8715714D01*
X16363809Y-8706190D01*
X16368571Y-8687143D01*
X16368571Y-8663333D01*
X16363809Y-8644286D01*
X16359048Y-8634762D01*
X16354286Y-8630000D01*
X16344762Y-8625238D01*
X16278095Y-8625238D02*
X16216190Y-8625238D01*
X16249524Y-8663333D01*
X16235238Y-8663333D01*
X16225714Y-8668095D01*
X16220952Y-8672857D01*
X16216190Y-8682381D01*
X16216190Y-8706190D01*
X16220952Y-8715714D01*
X16225714Y-8720476D01*
X16235238Y-8725238D01*
X16263809Y-8725238D01*
X16273333Y-8720476D01*
X16278095Y-8715714D01*
X16369405Y-9285238D02*
X16402738Y-9237619D01*
X16426548Y-9285238D02*
X16426548Y-9185238D01*
X16388452Y-9185238D01*
X16378928Y-9190000D01*
X16374167Y-9194762D01*
X16369405Y-9204286D01*
X16369405Y-9218571D01*
X16374167Y-9228095D01*
X16378928Y-9232857D01*
X16388452Y-9237619D01*
X16426548Y-9237619D01*
X16283690Y-9218571D02*
X16283690Y-9285238D01*
X16307500Y-9180476D02*
X16331309Y-9251905D01*
X16269405Y-9251905D01*
X16212262Y-9185238D02*
X16202738Y-9185238D01*
X16193214Y-9190000D01*
X16188452Y-9194762D01*
X16183690Y-9204286D01*
X16178928Y-9223333D01*
X16178928Y-9247143D01*
X16183690Y-9266190D01*
X16188452Y-9275714D01*
X16193214Y-9280476D01*
X16202738Y-9285238D01*
X16212262Y-9285238D01*
X16221786Y-9280476D01*
X16226548Y-9275714D01*
X16231309Y-9266190D01*
X16236071Y-9247143D01*
X16236071Y-9223333D01*
X16231309Y-9204286D01*
X16226548Y-9194762D01*
X16221786Y-9190000D01*
X16212262Y-9185238D01*
X16093214Y-9185238D02*
X16112262Y-9185238D01*
X16121786Y-9190000D01*
X16126548Y-9194762D01*
X16136071Y-9209048D01*
X16140833Y-9228095D01*
X16140833Y-9266190D01*
X16136071Y-9275714D01*
X16131309Y-9280476D01*
X16121786Y-9285238D01*
X16102738Y-9285238D01*
X16093214Y-9280476D01*
X16088452Y-9275714D01*
X16083690Y-9266190D01*
X16083690Y-9242381D01*
X16088452Y-9232857D01*
X16093214Y-9228095D01*
X16102738Y-9223333D01*
X16121786Y-9223333D01*
X16131309Y-9228095D01*
X16136071Y-9232857D01*
X16140833Y-9242381D01*
X17290714Y-6063095D02*
X17295476Y-6058333D01*
X17300238Y-6044048D01*
X17300238Y-6034524D01*
X17295476Y-6020238D01*
X17285952Y-6010714D01*
X17276429Y-6005952D01*
X17257381Y-6001190D01*
X17243095Y-6001190D01*
X17224048Y-6005952D01*
X17214524Y-6010714D01*
X17205000Y-6020238D01*
X17200238Y-6034524D01*
X17200238Y-6044048D01*
X17205000Y-6058333D01*
X17209762Y-6063095D01*
X17200238Y-6153571D02*
X17200238Y-6105952D01*
X17247857Y-6101190D01*
X17243095Y-6105952D01*
X17238333Y-6115476D01*
X17238333Y-6139286D01*
X17243095Y-6148809D01*
X17247857Y-6153571D01*
X17257381Y-6158333D01*
X17281190Y-6158333D01*
X17290714Y-6153571D01*
X17295476Y-6148809D01*
X17300238Y-6139286D01*
X17300238Y-6115476D01*
X17295476Y-6105952D01*
X17290714Y-6101190D01*
X17200238Y-6220238D02*
X17200238Y-6229762D01*
X17205000Y-6239286D01*
X17209762Y-6244048D01*
X17219286Y-6248809D01*
X17238333Y-6253571D01*
X17262143Y-6253571D01*
X17281190Y-6248809D01*
X17290714Y-6244048D01*
X17295476Y-6239286D01*
X17300238Y-6229762D01*
X17300238Y-6220238D01*
X17295476Y-6210714D01*
X17290714Y-6205952D01*
X17281190Y-6201190D01*
X17262143Y-6196428D01*
X17238333Y-6196428D01*
X17219286Y-6201190D01*
X17209762Y-6205952D01*
X17205000Y-6210714D01*
X17200238Y-6220238D01*
X17300238Y-6348809D02*
X17300238Y-6291667D01*
X17300238Y-6320238D02*
X17200238Y-6320238D01*
X17214524Y-6310714D01*
X17224048Y-6301190D01*
X17228810Y-6291667D01*
X17400714Y-6568095D02*
X17405476Y-6563333D01*
X17410238Y-6549048D01*
X17410238Y-6539524D01*
X17405476Y-6525238D01*
X17395952Y-6515714D01*
X17386429Y-6510952D01*
X17367381Y-6506190D01*
X17353095Y-6506190D01*
X17334048Y-6510952D01*
X17324524Y-6515714D01*
X17315000Y-6525238D01*
X17310238Y-6539524D01*
X17310238Y-6549048D01*
X17315000Y-6563333D01*
X17319762Y-6568095D01*
X17310238Y-6658571D02*
X17310238Y-6610952D01*
X17357857Y-6606190D01*
X17353095Y-6610952D01*
X17348333Y-6620476D01*
X17348333Y-6644286D01*
X17353095Y-6653809D01*
X17357857Y-6658571D01*
X17367381Y-6663333D01*
X17391190Y-6663333D01*
X17400714Y-6658571D01*
X17405476Y-6653809D01*
X17410238Y-6644286D01*
X17410238Y-6620476D01*
X17405476Y-6610952D01*
X17400714Y-6606190D01*
X17310238Y-6725238D02*
X17310238Y-6734762D01*
X17315000Y-6744286D01*
X17319762Y-6749048D01*
X17329286Y-6753809D01*
X17348333Y-6758571D01*
X17372143Y-6758571D01*
X17391190Y-6753809D01*
X17400714Y-6749048D01*
X17405476Y-6744286D01*
X17410238Y-6734762D01*
X17410238Y-6725238D01*
X17405476Y-6715714D01*
X17400714Y-6710952D01*
X17391190Y-6706190D01*
X17372143Y-6701428D01*
X17348333Y-6701428D01*
X17329286Y-6706190D01*
X17319762Y-6710952D01*
X17315000Y-6715714D01*
X17310238Y-6725238D01*
X17343571Y-6844286D02*
X17410238Y-6844286D01*
X17305476Y-6820476D02*
X17376905Y-6796667D01*
X17376905Y-6858571D01*
X14365638Y-6258571D02*
X14446590Y-6258571D01*
X14456114Y-6263333D01*
X14460876Y-6268095D01*
X14465638Y-6277619D01*
X14465638Y-6296667D01*
X14460876Y-6306190D01*
X14456114Y-6310952D01*
X14446590Y-6315714D01*
X14365638Y-6315714D01*
X14365638Y-6410952D02*
X14365638Y-6363333D01*
X14413257Y-6358571D01*
X14408495Y-6363333D01*
X14403733Y-6372857D01*
X14403733Y-6396667D01*
X14408495Y-6406190D01*
X14413257Y-6410952D01*
X14422781Y-6415714D01*
X14446590Y-6415714D01*
X14456114Y-6410952D01*
X14460876Y-6406190D01*
X14465638Y-6396667D01*
X14465638Y-6372857D01*
X14460876Y-6363333D01*
X14456114Y-6358571D01*
X14365638Y-6477619D02*
X14365638Y-6487143D01*
X14370400Y-6496667D01*
X14375162Y-6501428D01*
X14384686Y-6506190D01*
X14403733Y-6510952D01*
X14427543Y-6510952D01*
X14446590Y-6506190D01*
X14456114Y-6501428D01*
X14460876Y-6496667D01*
X14465638Y-6487143D01*
X14465638Y-6477619D01*
X14460876Y-6468095D01*
X14456114Y-6463333D01*
X14446590Y-6458571D01*
X14427543Y-6453809D01*
X14403733Y-6453809D01*
X14384686Y-6458571D01*
X14375162Y-6463333D01*
X14370400Y-6468095D01*
X14365638Y-6477619D01*
X14465638Y-6606190D02*
X14465638Y-6549048D01*
X14465638Y-6577619D02*
X14365638Y-6577619D01*
X14379924Y-6568095D01*
X14389448Y-6558571D01*
X14394209Y-6549048D01*
X19954048Y-9030238D02*
X19954048Y-8930238D01*
X19930238Y-8930238D01*
X19915952Y-8935000D01*
X19906429Y-8944524D01*
X19901667Y-8954048D01*
X19896905Y-8973095D01*
X19896905Y-8987381D01*
X19901667Y-9006429D01*
X19906429Y-9015952D01*
X19915952Y-9025476D01*
X19930238Y-9030238D01*
X19954048Y-9030238D01*
X19858810Y-8939762D02*
X19854048Y-8935000D01*
X19844524Y-8930238D01*
X19820714Y-8930238D01*
X19811190Y-8935000D01*
X19806429Y-8939762D01*
X19801667Y-8949286D01*
X19801667Y-8958810D01*
X19806429Y-8973095D01*
X19863571Y-9030238D01*
X19801667Y-9030238D01*
X19739762Y-8930238D02*
X19730238Y-8930238D01*
X19720714Y-8935000D01*
X19715952Y-8939762D01*
X19711190Y-8949286D01*
X19706429Y-8968333D01*
X19706429Y-8992143D01*
X19711190Y-9011190D01*
X19715952Y-9020714D01*
X19720714Y-9025476D01*
X19730238Y-9030238D01*
X19739762Y-9030238D01*
X19749286Y-9025476D01*
X19754048Y-9020714D01*
X19758810Y-9011190D01*
X19763571Y-8992143D01*
X19763571Y-8968333D01*
X19758810Y-8949286D01*
X19754048Y-8939762D01*
X19749286Y-8935000D01*
X19739762Y-8930238D01*
X19611190Y-9030238D02*
X19668333Y-9030238D01*
X19639762Y-9030238D02*
X19639762Y-8930238D01*
X19649286Y-8944524D01*
X19658810Y-8954048D01*
X19668333Y-8958810D01*
X21705857Y-6256428D02*
X21705857Y-6223095D01*
X21758238Y-6223095D02*
X21658238Y-6223095D01*
X21658238Y-6270714D01*
X21658238Y-6356428D02*
X21658238Y-6308809D01*
X21705857Y-6304048D01*
X21701095Y-6308809D01*
X21696333Y-6318333D01*
X21696333Y-6342143D01*
X21701095Y-6351667D01*
X21705857Y-6356428D01*
X21715381Y-6361190D01*
X21739190Y-6361190D01*
X21748714Y-6356428D01*
X21753476Y-6351667D01*
X21758238Y-6342143D01*
X21758238Y-6318333D01*
X21753476Y-6308809D01*
X21748714Y-6304048D01*
X21658238Y-6423095D02*
X21658238Y-6432619D01*
X21663000Y-6442143D01*
X21667762Y-6446905D01*
X21677286Y-6451667D01*
X21696333Y-6456428D01*
X21720143Y-6456428D01*
X21739190Y-6451667D01*
X21748714Y-6446905D01*
X21753476Y-6442143D01*
X21758238Y-6432619D01*
X21758238Y-6423095D01*
X21753476Y-6413571D01*
X21748714Y-6408809D01*
X21739190Y-6404048D01*
X21720143Y-6399286D01*
X21696333Y-6399286D01*
X21677286Y-6404048D01*
X21667762Y-6408809D01*
X21663000Y-6413571D01*
X21658238Y-6423095D01*
X21758238Y-6551667D02*
X21758238Y-6494524D01*
X21758238Y-6523095D02*
X21658238Y-6523095D01*
X21672524Y-6513571D01*
X21682048Y-6504048D01*
X21686810Y-6494524D01*
X17010714Y-8834595D02*
X17015476Y-8829833D01*
X17020238Y-8815548D01*
X17020238Y-8806024D01*
X17015476Y-8791738D01*
X17005952Y-8782214D01*
X16996429Y-8777452D01*
X16977381Y-8772690D01*
X16963095Y-8772690D01*
X16944048Y-8777452D01*
X16934524Y-8782214D01*
X16925000Y-8791738D01*
X16920238Y-8806024D01*
X16920238Y-8815548D01*
X16925000Y-8829833D01*
X16929762Y-8834595D01*
X16929762Y-8872690D02*
X16925000Y-8877452D01*
X16920238Y-8886976D01*
X16920238Y-8910786D01*
X16925000Y-8920310D01*
X16929762Y-8925071D01*
X16939286Y-8929833D01*
X16948810Y-8929833D01*
X16963095Y-8925071D01*
X17020238Y-8867929D01*
X17020238Y-8929833D01*
X16920238Y-8991738D02*
X16920238Y-9001262D01*
X16925000Y-9010786D01*
X16929762Y-9015548D01*
X16939286Y-9020310D01*
X16958333Y-9025071D01*
X16982143Y-9025071D01*
X17001190Y-9020310D01*
X17010714Y-9015548D01*
X17015476Y-9010786D01*
X17020238Y-9001262D01*
X17020238Y-8991738D01*
X17015476Y-8982214D01*
X17010714Y-8977452D01*
X17001190Y-8972690D01*
X16982143Y-8967929D01*
X16958333Y-8967929D01*
X16939286Y-8972690D01*
X16929762Y-8977452D01*
X16925000Y-8982214D01*
X16920238Y-8991738D01*
X17020238Y-9120310D02*
X17020238Y-9063167D01*
X17020238Y-9091738D02*
X16920238Y-9091738D01*
X16934524Y-9082214D01*
X16944048Y-9072690D01*
X16948810Y-9063167D01*
X19001905Y-11290714D02*
X19006667Y-11295476D01*
X19020952Y-11300238D01*
X19030476Y-11300238D01*
X19044762Y-11295476D01*
X19054286Y-11285952D01*
X19059048Y-11276428D01*
X19063810Y-11257381D01*
X19063810Y-11243095D01*
X19059048Y-11224048D01*
X19054286Y-11214524D01*
X19044762Y-11205000D01*
X19030476Y-11200238D01*
X19020952Y-11200238D01*
X19006667Y-11205000D01*
X19001905Y-11209762D01*
X18963810Y-11209762D02*
X18959048Y-11205000D01*
X18949524Y-11200238D01*
X18925714Y-11200238D01*
X18916190Y-11205000D01*
X18911429Y-11209762D01*
X18906667Y-11219286D01*
X18906667Y-11228809D01*
X18911429Y-11243095D01*
X18968571Y-11300238D01*
X18906667Y-11300238D01*
X18844762Y-11200238D02*
X18835238Y-11200238D01*
X18825714Y-11205000D01*
X18820952Y-11209762D01*
X18816190Y-11219286D01*
X18811429Y-11238333D01*
X18811429Y-11262143D01*
X18816190Y-11281190D01*
X18820952Y-11290714D01*
X18825714Y-11295476D01*
X18835238Y-11300238D01*
X18844762Y-11300238D01*
X18854286Y-11295476D01*
X18859048Y-11290714D01*
X18863810Y-11281190D01*
X18868571Y-11262143D01*
X18868571Y-11238333D01*
X18863810Y-11219286D01*
X18859048Y-11209762D01*
X18854286Y-11205000D01*
X18844762Y-11200238D01*
X18773333Y-11209762D02*
X18768571Y-11205000D01*
X18759048Y-11200238D01*
X18735238Y-11200238D01*
X18725714Y-11205000D01*
X18720952Y-11209762D01*
X18716190Y-11219286D01*
X18716190Y-11228809D01*
X18720952Y-11243095D01*
X18778095Y-11300238D01*
X18716190Y-11300238D01*
X17714305Y-10308314D02*
X17719067Y-10313076D01*
X17733352Y-10317838D01*
X17742876Y-10317838D01*
X17757162Y-10313076D01*
X17766686Y-10303552D01*
X17771448Y-10294029D01*
X17776210Y-10274981D01*
X17776210Y-10260695D01*
X17771448Y-10241648D01*
X17766686Y-10232124D01*
X17757162Y-10222600D01*
X17742876Y-10217838D01*
X17733352Y-10217838D01*
X17719067Y-10222600D01*
X17714305Y-10227362D01*
X17676210Y-10227362D02*
X17671448Y-10222600D01*
X17661924Y-10217838D01*
X17638114Y-10217838D01*
X17628590Y-10222600D01*
X17623829Y-10227362D01*
X17619067Y-10236886D01*
X17619067Y-10246410D01*
X17623829Y-10260695D01*
X17680971Y-10317838D01*
X17619067Y-10317838D01*
X17557162Y-10217838D02*
X17547638Y-10217838D01*
X17538114Y-10222600D01*
X17533352Y-10227362D01*
X17528590Y-10236886D01*
X17523829Y-10255933D01*
X17523829Y-10279743D01*
X17528590Y-10298790D01*
X17533352Y-10308314D01*
X17538114Y-10313076D01*
X17547638Y-10317838D01*
X17557162Y-10317838D01*
X17566686Y-10313076D01*
X17571448Y-10308314D01*
X17576210Y-10298790D01*
X17580971Y-10279743D01*
X17580971Y-10255933D01*
X17576210Y-10236886D01*
X17571448Y-10227362D01*
X17566686Y-10222600D01*
X17557162Y-10217838D01*
X17490495Y-10217838D02*
X17428590Y-10217838D01*
X17461924Y-10255933D01*
X17447638Y-10255933D01*
X17438114Y-10260695D01*
X17433352Y-10265457D01*
X17428590Y-10274981D01*
X17428590Y-10298790D01*
X17433352Y-10308314D01*
X17438114Y-10313076D01*
X17447638Y-10317838D01*
X17476210Y-10317838D01*
X17485733Y-10313076D01*
X17490495Y-10308314D01*
X17929305Y-10257314D02*
X17934067Y-10262076D01*
X17948352Y-10266838D01*
X17957876Y-10266838D01*
X17972162Y-10262076D01*
X17981686Y-10252552D01*
X17986448Y-10243029D01*
X17991210Y-10223981D01*
X17991210Y-10209695D01*
X17986448Y-10190648D01*
X17981686Y-10181124D01*
X17972162Y-10171600D01*
X17957876Y-10166838D01*
X17948352Y-10166838D01*
X17934067Y-10171600D01*
X17929305Y-10176362D01*
X17891210Y-10176362D02*
X17886448Y-10171600D01*
X17876924Y-10166838D01*
X17853114Y-10166838D01*
X17843590Y-10171600D01*
X17838829Y-10176362D01*
X17834067Y-10185886D01*
X17834067Y-10195410D01*
X17838829Y-10209695D01*
X17895971Y-10266838D01*
X17834067Y-10266838D01*
X17772162Y-10166838D02*
X17762638Y-10166838D01*
X17753114Y-10171600D01*
X17748352Y-10176362D01*
X17743590Y-10185886D01*
X17738829Y-10204933D01*
X17738829Y-10228743D01*
X17743590Y-10247790D01*
X17748352Y-10257314D01*
X17753114Y-10262076D01*
X17762638Y-10266838D01*
X17772162Y-10266838D01*
X17781686Y-10262076D01*
X17786448Y-10257314D01*
X17791210Y-10247790D01*
X17795971Y-10228743D01*
X17795971Y-10204933D01*
X17791210Y-10185886D01*
X17786448Y-10176362D01*
X17781686Y-10171600D01*
X17772162Y-10166838D01*
X17653114Y-10200171D02*
X17653114Y-10266838D01*
X17676924Y-10162076D02*
X17700733Y-10233505D01*
X17638829Y-10233505D01*
X19201905Y-11490714D02*
X19206667Y-11495476D01*
X19220952Y-11500238D01*
X19230476Y-11500238D01*
X19244762Y-11495476D01*
X19254286Y-11485952D01*
X19259048Y-11476428D01*
X19263810Y-11457381D01*
X19263810Y-11443095D01*
X19259048Y-11424048D01*
X19254286Y-11414524D01*
X19244762Y-11405000D01*
X19230476Y-11400238D01*
X19220952Y-11400238D01*
X19206667Y-11405000D01*
X19201905Y-11409762D01*
X19163810Y-11409762D02*
X19159048Y-11405000D01*
X19149524Y-11400238D01*
X19125714Y-11400238D01*
X19116190Y-11405000D01*
X19111429Y-11409762D01*
X19106667Y-11419286D01*
X19106667Y-11428809D01*
X19111429Y-11443095D01*
X19168571Y-11500238D01*
X19106667Y-11500238D01*
X19044762Y-11400238D02*
X19035238Y-11400238D01*
X19025714Y-11405000D01*
X19020952Y-11409762D01*
X19016190Y-11419286D01*
X19011429Y-11438333D01*
X19011429Y-11462143D01*
X19016190Y-11481190D01*
X19020952Y-11490714D01*
X19025714Y-11495476D01*
X19035238Y-11500238D01*
X19044762Y-11500238D01*
X19054286Y-11495476D01*
X19059048Y-11490714D01*
X19063810Y-11481190D01*
X19068571Y-11462143D01*
X19068571Y-11438333D01*
X19063810Y-11419286D01*
X19059048Y-11409762D01*
X19054286Y-11405000D01*
X19044762Y-11400238D01*
X18920952Y-11400238D02*
X18968571Y-11400238D01*
X18973333Y-11447857D01*
X18968571Y-11443095D01*
X18959048Y-11438333D01*
X18935238Y-11438333D01*
X18925714Y-11443095D01*
X18920952Y-11447857D01*
X18916190Y-11457381D01*
X18916190Y-11481190D01*
X18920952Y-11490714D01*
X18925714Y-11495476D01*
X18935238Y-11500238D01*
X18959048Y-11500238D01*
X18968571Y-11495476D01*
X18973333Y-11490714D01*
X16340714Y-10458095D02*
X16345476Y-10453333D01*
X16350238Y-10439048D01*
X16350238Y-10429524D01*
X16345476Y-10415238D01*
X16335952Y-10405714D01*
X16326428Y-10400952D01*
X16307381Y-10396190D01*
X16293095Y-10396190D01*
X16274048Y-10400952D01*
X16264524Y-10405714D01*
X16255000Y-10415238D01*
X16250238Y-10429524D01*
X16250238Y-10439048D01*
X16255000Y-10453333D01*
X16259762Y-10458095D01*
X16283571Y-10543810D02*
X16350238Y-10543810D01*
X16245476Y-10520000D02*
X16316905Y-10496190D01*
X16316905Y-10558095D01*
X16250238Y-10615238D02*
X16250238Y-10624762D01*
X16255000Y-10634286D01*
X16259762Y-10639048D01*
X16269286Y-10643810D01*
X16288333Y-10648571D01*
X16312143Y-10648571D01*
X16331190Y-10643810D01*
X16340714Y-10639048D01*
X16345476Y-10634286D01*
X16350238Y-10624762D01*
X16350238Y-10615238D01*
X16345476Y-10605714D01*
X16340714Y-10600952D01*
X16331190Y-10596190D01*
X16312143Y-10591429D01*
X16288333Y-10591429D01*
X16269286Y-10596190D01*
X16259762Y-10600952D01*
X16255000Y-10605714D01*
X16250238Y-10615238D01*
X16350238Y-10743810D02*
X16350238Y-10686667D01*
X16350238Y-10715238D02*
X16250238Y-10715238D01*
X16264524Y-10705714D01*
X16274048Y-10696190D01*
X16278809Y-10686667D01*
X15590714Y-10358095D02*
X15595476Y-10353333D01*
X15600238Y-10339048D01*
X15600238Y-10329524D01*
X15595476Y-10315238D01*
X15585952Y-10305714D01*
X15576428Y-10300952D01*
X15557381Y-10296190D01*
X15543095Y-10296190D01*
X15524048Y-10300952D01*
X15514524Y-10305714D01*
X15505000Y-10315238D01*
X15500238Y-10329524D01*
X15500238Y-10339048D01*
X15505000Y-10353333D01*
X15509762Y-10358095D01*
X15533571Y-10443810D02*
X15600238Y-10443810D01*
X15495476Y-10420000D02*
X15566905Y-10396190D01*
X15566905Y-10458095D01*
X15500238Y-10515238D02*
X15500238Y-10524762D01*
X15505000Y-10534286D01*
X15509762Y-10539048D01*
X15519286Y-10543810D01*
X15538333Y-10548571D01*
X15562143Y-10548571D01*
X15581190Y-10543810D01*
X15590714Y-10539048D01*
X15595476Y-10534286D01*
X15600238Y-10524762D01*
X15600238Y-10515238D01*
X15595476Y-10505714D01*
X15590714Y-10500952D01*
X15581190Y-10496190D01*
X15562143Y-10491429D01*
X15538333Y-10491429D01*
X15519286Y-10496190D01*
X15509762Y-10500952D01*
X15505000Y-10505714D01*
X15500238Y-10515238D01*
X15509762Y-10586667D02*
X15505000Y-10591429D01*
X15500238Y-10600952D01*
X15500238Y-10624762D01*
X15505000Y-10634286D01*
X15509762Y-10639048D01*
X15519286Y-10643810D01*
X15528809Y-10643810D01*
X15543095Y-10639048D01*
X15600238Y-10581905D01*
X15600238Y-10643810D01*
X16611505Y-10033114D02*
X16616267Y-10037876D01*
X16630552Y-10042638D01*
X16640076Y-10042638D01*
X16654362Y-10037876D01*
X16663886Y-10028352D01*
X16668648Y-10018829D01*
X16673409Y-9999781D01*
X16673409Y-9985495D01*
X16668648Y-9966448D01*
X16663886Y-9956924D01*
X16654362Y-9947400D01*
X16640076Y-9942638D01*
X16630552Y-9942638D01*
X16616267Y-9947400D01*
X16611505Y-9952162D01*
X16525790Y-9975971D02*
X16525790Y-10042638D01*
X16549600Y-9937876D02*
X16573409Y-10009305D01*
X16511505Y-10009305D01*
X16454362Y-9942638D02*
X16444838Y-9942638D01*
X16435314Y-9947400D01*
X16430552Y-9952162D01*
X16425790Y-9961686D01*
X16421028Y-9980733D01*
X16421028Y-10004543D01*
X16425790Y-10023590D01*
X16430552Y-10033114D01*
X16435314Y-10037876D01*
X16444838Y-10042638D01*
X16454362Y-10042638D01*
X16463886Y-10037876D01*
X16468648Y-10033114D01*
X16473409Y-10023590D01*
X16478171Y-10004543D01*
X16478171Y-9980733D01*
X16473409Y-9961686D01*
X16468648Y-9952162D01*
X16463886Y-9947400D01*
X16454362Y-9942638D01*
X16387695Y-9942638D02*
X16325790Y-9942638D01*
X16359124Y-9980733D01*
X16344838Y-9980733D01*
X16335314Y-9985495D01*
X16330552Y-9990257D01*
X16325790Y-9999781D01*
X16325790Y-10023590D01*
X16330552Y-10033114D01*
X16335314Y-10037876D01*
X16344838Y-10042638D01*
X16373409Y-10042638D01*
X16382933Y-10037876D01*
X16387695Y-10033114D01*
X16484505Y-10147614D02*
X16489267Y-10152376D01*
X16503552Y-10157138D01*
X16513076Y-10157138D01*
X16527362Y-10152376D01*
X16536886Y-10142852D01*
X16541648Y-10133329D01*
X16546409Y-10114281D01*
X16546409Y-10099995D01*
X16541648Y-10080948D01*
X16536886Y-10071424D01*
X16527362Y-10061900D01*
X16513076Y-10057138D01*
X16503552Y-10057138D01*
X16489267Y-10061900D01*
X16484505Y-10066662D01*
X16398790Y-10090471D02*
X16398790Y-10157138D01*
X16422600Y-10052376D02*
X16446409Y-10123805D01*
X16384505Y-10123805D01*
X16327362Y-10057138D02*
X16317838Y-10057138D01*
X16308314Y-10061900D01*
X16303552Y-10066662D01*
X16298790Y-10076186D01*
X16294028Y-10095233D01*
X16294028Y-10119043D01*
X16298790Y-10138090D01*
X16303552Y-10147614D01*
X16308314Y-10152376D01*
X16317838Y-10157138D01*
X16327362Y-10157138D01*
X16336886Y-10152376D01*
X16341648Y-10147614D01*
X16346409Y-10138090D01*
X16351171Y-10119043D01*
X16351171Y-10095233D01*
X16346409Y-10076186D01*
X16341648Y-10066662D01*
X16336886Y-10061900D01*
X16327362Y-10057138D01*
X16208314Y-10090471D02*
X16208314Y-10157138D01*
X16232124Y-10052376D02*
X16255933Y-10123805D01*
X16194028Y-10123805D01*
X16006905Y-12245714D02*
X16011667Y-12250476D01*
X16025952Y-12255238D01*
X16035476Y-12255238D01*
X16049762Y-12250476D01*
X16059286Y-12240952D01*
X16064048Y-12231428D01*
X16068809Y-12212381D01*
X16068809Y-12198095D01*
X16064048Y-12179048D01*
X16059286Y-12169524D01*
X16049762Y-12160000D01*
X16035476Y-12155238D01*
X16025952Y-12155238D01*
X16011667Y-12160000D01*
X16006905Y-12164762D01*
X15921190Y-12188571D02*
X15921190Y-12255238D01*
X15945000Y-12150476D02*
X15968809Y-12221905D01*
X15906905Y-12221905D01*
X15849762Y-12155238D02*
X15840238Y-12155238D01*
X15830714Y-12160000D01*
X15825952Y-12164762D01*
X15821190Y-12174286D01*
X15816428Y-12193333D01*
X15816428Y-12217143D01*
X15821190Y-12236190D01*
X15825952Y-12245714D01*
X15830714Y-12250476D01*
X15840238Y-12255238D01*
X15849762Y-12255238D01*
X15859286Y-12250476D01*
X15864048Y-12245714D01*
X15868809Y-12236190D01*
X15873571Y-12217143D01*
X15873571Y-12193333D01*
X15868809Y-12174286D01*
X15864048Y-12164762D01*
X15859286Y-12160000D01*
X15849762Y-12155238D01*
X15730714Y-12155238D02*
X15749762Y-12155238D01*
X15759286Y-12160000D01*
X15764048Y-12164762D01*
X15773571Y-12179048D01*
X15778333Y-12198095D01*
X15778333Y-12236190D01*
X15773571Y-12245714D01*
X15768809Y-12250476D01*
X15759286Y-12255238D01*
X15740238Y-12255238D01*
X15730714Y-12250476D01*
X15725952Y-12245714D01*
X15721190Y-12236190D01*
X15721190Y-12212381D01*
X15725952Y-12202857D01*
X15730714Y-12198095D01*
X15740238Y-12193333D01*
X15759286Y-12193333D01*
X15768809Y-12198095D01*
X15773571Y-12202857D01*
X15778333Y-12212381D01*
X16980714Y-5918095D02*
X16985476Y-5913333D01*
X16990238Y-5899048D01*
X16990238Y-5889524D01*
X16985476Y-5875238D01*
X16975952Y-5865714D01*
X16966429Y-5860952D01*
X16947381Y-5856190D01*
X16933095Y-5856190D01*
X16914048Y-5860952D01*
X16904524Y-5865714D01*
X16895000Y-5875238D01*
X16890238Y-5889524D01*
X16890238Y-5899048D01*
X16895000Y-5913333D01*
X16899762Y-5918095D01*
X16890238Y-6008571D02*
X16890238Y-5960952D01*
X16937857Y-5956190D01*
X16933095Y-5960952D01*
X16928333Y-5970476D01*
X16928333Y-5994286D01*
X16933095Y-6003809D01*
X16937857Y-6008571D01*
X16947381Y-6013333D01*
X16971190Y-6013333D01*
X16980714Y-6008571D01*
X16985476Y-6003809D01*
X16990238Y-5994286D01*
X16990238Y-5970476D01*
X16985476Y-5960952D01*
X16980714Y-5956190D01*
X16890238Y-6075238D02*
X16890238Y-6084762D01*
X16895000Y-6094286D01*
X16899762Y-6099048D01*
X16909286Y-6103809D01*
X16928333Y-6108571D01*
X16952143Y-6108571D01*
X16971190Y-6103809D01*
X16980714Y-6099048D01*
X16985476Y-6094286D01*
X16990238Y-6084762D01*
X16990238Y-6075238D01*
X16985476Y-6065714D01*
X16980714Y-6060952D01*
X16971190Y-6056190D01*
X16952143Y-6051428D01*
X16928333Y-6051428D01*
X16909286Y-6056190D01*
X16899762Y-6060952D01*
X16895000Y-6065714D01*
X16890238Y-6075238D01*
X16899762Y-6146667D02*
X16895000Y-6151428D01*
X16890238Y-6160952D01*
X16890238Y-6184762D01*
X16895000Y-6194286D01*
X16899762Y-6199048D01*
X16909286Y-6203809D01*
X16918810Y-6203809D01*
X16933095Y-6199048D01*
X16990238Y-6141905D01*
X16990238Y-6203809D01*
X17710714Y-6715595D02*
X17715476Y-6710833D01*
X17720238Y-6696548D01*
X17720238Y-6687024D01*
X17715476Y-6672738D01*
X17705952Y-6663214D01*
X17696429Y-6658452D01*
X17677381Y-6653690D01*
X17663095Y-6653690D01*
X17644048Y-6658452D01*
X17634524Y-6663214D01*
X17625000Y-6672738D01*
X17620238Y-6687024D01*
X17620238Y-6696548D01*
X17625000Y-6710833D01*
X17629762Y-6715595D01*
X17620238Y-6806071D02*
X17620238Y-6758452D01*
X17667857Y-6753690D01*
X17663095Y-6758452D01*
X17658333Y-6767976D01*
X17658333Y-6791786D01*
X17663095Y-6801309D01*
X17667857Y-6806071D01*
X17677381Y-6810833D01*
X17701190Y-6810833D01*
X17710714Y-6806071D01*
X17715476Y-6801309D01*
X17720238Y-6791786D01*
X17720238Y-6767976D01*
X17715476Y-6758452D01*
X17710714Y-6753690D01*
X17620238Y-6872738D02*
X17620238Y-6882262D01*
X17625000Y-6891786D01*
X17629762Y-6896548D01*
X17639286Y-6901309D01*
X17658333Y-6906071D01*
X17682143Y-6906071D01*
X17701190Y-6901309D01*
X17710714Y-6896548D01*
X17715476Y-6891786D01*
X17720238Y-6882262D01*
X17720238Y-6872738D01*
X17715476Y-6863214D01*
X17710714Y-6858452D01*
X17701190Y-6853690D01*
X17682143Y-6848928D01*
X17658333Y-6848928D01*
X17639286Y-6853690D01*
X17629762Y-6858452D01*
X17625000Y-6863214D01*
X17620238Y-6872738D01*
X17620238Y-6939405D02*
X17620238Y-7001309D01*
X17658333Y-6967976D01*
X17658333Y-6982262D01*
X17663095Y-6991786D01*
X17667857Y-6996548D01*
X17677381Y-7001309D01*
X17701190Y-7001309D01*
X17710714Y-6996548D01*
X17715476Y-6991786D01*
X17720238Y-6982262D01*
X17720238Y-6953690D01*
X17715476Y-6944167D01*
X17710714Y-6939405D01*
X16461548Y-12510238D02*
X16461548Y-12410238D01*
X16437738Y-12410238D01*
X16423452Y-12415000D01*
X16413928Y-12424524D01*
X16409167Y-12434048D01*
X16404405Y-12453095D01*
X16404405Y-12467381D01*
X16409167Y-12486428D01*
X16413928Y-12495952D01*
X16423452Y-12505476D01*
X16437738Y-12510238D01*
X16461548Y-12510238D01*
X16318690Y-12443571D02*
X16318690Y-12510238D01*
X16342500Y-12405476D02*
X16366309Y-12476905D01*
X16304405Y-12476905D01*
X16247262Y-12410238D02*
X16237738Y-12410238D01*
X16228214Y-12415000D01*
X16223452Y-12419762D01*
X16218690Y-12429286D01*
X16213928Y-12448333D01*
X16213928Y-12472143D01*
X16218690Y-12491190D01*
X16223452Y-12500714D01*
X16228214Y-12505476D01*
X16237738Y-12510238D01*
X16247262Y-12510238D01*
X16256786Y-12505476D01*
X16261548Y-12500714D01*
X16266309Y-12491190D01*
X16271071Y-12472143D01*
X16271071Y-12448333D01*
X16266309Y-12429286D01*
X16261548Y-12419762D01*
X16256786Y-12415000D01*
X16247262Y-12410238D01*
X16118690Y-12510238D02*
X16175833Y-12510238D01*
X16147262Y-12510238D02*
X16147262Y-12410238D01*
X16156786Y-12424524D01*
X16166309Y-12434048D01*
X16175833Y-12438809D01*
X21779048Y-5900238D02*
X21779048Y-5800238D01*
X21755238Y-5800238D01*
X21740952Y-5805000D01*
X21731429Y-5814524D01*
X21726667Y-5824048D01*
X21721905Y-5843095D01*
X21721905Y-5857381D01*
X21726667Y-5876428D01*
X21731429Y-5885952D01*
X21740952Y-5895476D01*
X21755238Y-5900238D01*
X21779048Y-5900238D01*
X21631429Y-5800238D02*
X21679048Y-5800238D01*
X21683810Y-5847857D01*
X21679048Y-5843095D01*
X21669524Y-5838333D01*
X21645714Y-5838333D01*
X21636190Y-5843095D01*
X21631429Y-5847857D01*
X21626667Y-5857381D01*
X21626667Y-5881190D01*
X21631429Y-5890714D01*
X21636190Y-5895476D01*
X21645714Y-5900238D01*
X21669524Y-5900238D01*
X21679048Y-5895476D01*
X21683810Y-5890714D01*
X21564762Y-5800238D02*
X21555238Y-5800238D01*
X21545714Y-5805000D01*
X21540952Y-5809762D01*
X21536190Y-5819286D01*
X21531429Y-5838333D01*
X21531429Y-5862143D01*
X21536190Y-5881190D01*
X21540952Y-5890714D01*
X21545714Y-5895476D01*
X21555238Y-5900238D01*
X21564762Y-5900238D01*
X21574286Y-5895476D01*
X21579048Y-5890714D01*
X21583810Y-5881190D01*
X21588571Y-5862143D01*
X21588571Y-5838333D01*
X21583810Y-5819286D01*
X21579048Y-5809762D01*
X21574286Y-5805000D01*
X21564762Y-5800238D01*
X21436190Y-5900238D02*
X21493333Y-5900238D01*
X21464762Y-5900238D02*
X21464762Y-5800238D01*
X21474286Y-5814524D01*
X21483810Y-5824048D01*
X21493333Y-5828809D01*
X18261429Y-12165238D02*
X18261429Y-12246190D01*
X18256667Y-12255714D01*
X18251905Y-12260476D01*
X18242381Y-12265238D01*
X18223333Y-12265238D01*
X18213810Y-12260476D01*
X18209048Y-12255714D01*
X18204286Y-12246190D01*
X18204286Y-12165238D01*
X18161429Y-12174762D02*
X18156667Y-12170000D01*
X18147143Y-12165238D01*
X18123333Y-12165238D01*
X18113810Y-12170000D01*
X18109048Y-12174762D01*
X18104286Y-12184286D01*
X18104286Y-12193809D01*
X18109048Y-12208095D01*
X18166190Y-12265238D01*
X18104286Y-12265238D01*
X18042381Y-12165238D02*
X18032857Y-12165238D01*
X18023333Y-12170000D01*
X18018571Y-12174762D01*
X18013810Y-12184286D01*
X18009048Y-12203333D01*
X18009048Y-12227143D01*
X18013810Y-12246190D01*
X18018571Y-12255714D01*
X18023333Y-12260476D01*
X18032857Y-12265238D01*
X18042381Y-12265238D01*
X18051905Y-12260476D01*
X18056667Y-12255714D01*
X18061429Y-12246190D01*
X18066190Y-12227143D01*
X18066190Y-12203333D01*
X18061429Y-12184286D01*
X18056667Y-12174762D01*
X18051905Y-12170000D01*
X18042381Y-12165238D01*
X17913810Y-12265238D02*
X17970952Y-12265238D01*
X17942381Y-12265238D02*
X17942381Y-12165238D01*
X17951905Y-12179524D01*
X17961429Y-12189048D01*
X17970952Y-12193809D01*
X19401905Y-11630238D02*
X19435238Y-11582619D01*
X19459048Y-11630238D02*
X19459048Y-11530238D01*
X19420952Y-11530238D01*
X19411429Y-11535000D01*
X19406667Y-11539762D01*
X19401905Y-11549286D01*
X19401905Y-11563571D01*
X19406667Y-11573095D01*
X19411429Y-11577857D01*
X19420952Y-11582619D01*
X19459048Y-11582619D01*
X19363810Y-11539762D02*
X19359048Y-11535000D01*
X19349524Y-11530238D01*
X19325714Y-11530238D01*
X19316190Y-11535000D01*
X19311429Y-11539762D01*
X19306667Y-11549286D01*
X19306667Y-11558809D01*
X19311429Y-11573095D01*
X19368571Y-11630238D01*
X19306667Y-11630238D01*
X19244762Y-11530238D02*
X19235238Y-11530238D01*
X19225714Y-11535000D01*
X19220952Y-11539762D01*
X19216190Y-11549286D01*
X19211429Y-11568333D01*
X19211429Y-11592143D01*
X19216190Y-11611190D01*
X19220952Y-11620714D01*
X19225714Y-11625476D01*
X19235238Y-11630238D01*
X19244762Y-11630238D01*
X19254286Y-11625476D01*
X19259048Y-11620714D01*
X19263810Y-11611190D01*
X19268571Y-11592143D01*
X19268571Y-11568333D01*
X19263810Y-11549286D01*
X19259048Y-11539762D01*
X19254286Y-11535000D01*
X19244762Y-11530238D01*
X19178095Y-11530238D02*
X19116190Y-11530238D01*
X19149524Y-11568333D01*
X19135238Y-11568333D01*
X19125714Y-11573095D01*
X19120952Y-11577857D01*
X19116190Y-11587381D01*
X19116190Y-11611190D01*
X19120952Y-11620714D01*
X19125714Y-11625476D01*
X19135238Y-11630238D01*
X19163810Y-11630238D01*
X19173333Y-11625476D01*
X19178095Y-11620714D01*
X18351905Y-12150238D02*
X18385238Y-12102619D01*
X18409048Y-12150238D02*
X18409048Y-12050238D01*
X18370952Y-12050238D01*
X18361429Y-12055000D01*
X18356667Y-12059762D01*
X18351905Y-12069286D01*
X18351905Y-12083571D01*
X18356667Y-12093095D01*
X18361429Y-12097857D01*
X18370952Y-12102619D01*
X18409048Y-12102619D01*
X18313810Y-12059762D02*
X18309048Y-12055000D01*
X18299524Y-12050238D01*
X18275714Y-12050238D01*
X18266190Y-12055000D01*
X18261429Y-12059762D01*
X18256667Y-12069286D01*
X18256667Y-12078809D01*
X18261429Y-12093095D01*
X18318571Y-12150238D01*
X18256667Y-12150238D01*
X18194762Y-12050238D02*
X18185238Y-12050238D01*
X18175714Y-12055000D01*
X18170952Y-12059762D01*
X18166190Y-12069286D01*
X18161429Y-12088333D01*
X18161429Y-12112143D01*
X18166190Y-12131190D01*
X18170952Y-12140714D01*
X18175714Y-12145476D01*
X18185238Y-12150238D01*
X18194762Y-12150238D01*
X18204286Y-12145476D01*
X18209048Y-12140714D01*
X18213810Y-12131190D01*
X18218571Y-12112143D01*
X18218571Y-12088333D01*
X18213810Y-12069286D01*
X18209048Y-12059762D01*
X18204286Y-12055000D01*
X18194762Y-12050238D01*
X18123333Y-12059762D02*
X18118571Y-12055000D01*
X18109048Y-12050238D01*
X18085238Y-12050238D01*
X18075714Y-12055000D01*
X18070952Y-12059762D01*
X18066190Y-12069286D01*
X18066190Y-12078809D01*
X18070952Y-12093095D01*
X18128095Y-12150238D01*
X18066190Y-12150238D01*
X19820238Y-11758095D02*
X19772619Y-11724762D01*
X19820238Y-11700952D02*
X19720238Y-11700952D01*
X19720238Y-11739048D01*
X19725000Y-11748571D01*
X19729762Y-11753333D01*
X19739286Y-11758095D01*
X19753571Y-11758095D01*
X19763095Y-11753333D01*
X19767857Y-11748571D01*
X19772619Y-11739048D01*
X19772619Y-11700952D01*
X19729762Y-11796190D02*
X19725000Y-11800952D01*
X19720238Y-11810476D01*
X19720238Y-11834286D01*
X19725000Y-11843809D01*
X19729762Y-11848571D01*
X19739286Y-11853333D01*
X19748810Y-11853333D01*
X19763095Y-11848571D01*
X19820238Y-11791428D01*
X19820238Y-11853333D01*
X19720238Y-11915238D02*
X19720238Y-11924762D01*
X19725000Y-11934286D01*
X19729762Y-11939048D01*
X19739286Y-11943809D01*
X19758333Y-11948571D01*
X19782143Y-11948571D01*
X19801190Y-11943809D01*
X19810714Y-11939048D01*
X19815476Y-11934286D01*
X19820238Y-11924762D01*
X19820238Y-11915238D01*
X19815476Y-11905714D01*
X19810714Y-11900952D01*
X19801190Y-11896190D01*
X19782143Y-11891428D01*
X19758333Y-11891428D01*
X19739286Y-11896190D01*
X19729762Y-11900952D01*
X19725000Y-11905714D01*
X19720238Y-11915238D01*
X19820238Y-12043809D02*
X19820238Y-11986667D01*
X19820238Y-12015238D02*
X19720238Y-12015238D01*
X19734524Y-12005714D01*
X19744048Y-11996190D01*
X19748810Y-11986667D01*
X16693905Y-12580238D02*
X16727238Y-12532619D01*
X16751048Y-12580238D02*
X16751048Y-12480238D01*
X16712952Y-12480238D01*
X16703428Y-12485000D01*
X16698667Y-12489762D01*
X16693905Y-12499286D01*
X16693905Y-12513571D01*
X16698667Y-12523095D01*
X16703428Y-12527857D01*
X16712952Y-12532619D01*
X16751048Y-12532619D01*
X16608190Y-12513571D02*
X16608190Y-12580238D01*
X16632000Y-12475476D02*
X16655809Y-12546905D01*
X16593905Y-12546905D01*
X16536762Y-12480238D02*
X16527238Y-12480238D01*
X16517714Y-12485000D01*
X16512952Y-12489762D01*
X16508190Y-12499286D01*
X16503428Y-12518333D01*
X16503428Y-12542143D01*
X16508190Y-12561190D01*
X16512952Y-12570714D01*
X16517714Y-12575476D01*
X16527238Y-12580238D01*
X16536762Y-12580238D01*
X16546286Y-12575476D01*
X16551048Y-12570714D01*
X16555809Y-12561190D01*
X16560571Y-12542143D01*
X16560571Y-12518333D01*
X16555809Y-12499286D01*
X16551048Y-12489762D01*
X16546286Y-12485000D01*
X16536762Y-12480238D01*
X16408190Y-12580238D02*
X16465333Y-12580238D01*
X16436762Y-12580238D02*
X16436762Y-12480238D01*
X16446286Y-12494524D01*
X16455809Y-12504048D01*
X16465333Y-12508809D01*
X16484505Y-12074638D02*
X16517838Y-12027019D01*
X16541648Y-12074638D02*
X16541648Y-11974638D01*
X16503552Y-11974638D01*
X16494028Y-11979400D01*
X16489267Y-11984162D01*
X16484505Y-11993686D01*
X16484505Y-12007971D01*
X16489267Y-12017495D01*
X16494028Y-12022257D01*
X16503552Y-12027019D01*
X16541648Y-12027019D01*
X16398790Y-12007971D02*
X16398790Y-12074638D01*
X16422600Y-11969876D02*
X16446409Y-12041305D01*
X16384505Y-12041305D01*
X16327362Y-11974638D02*
X16317838Y-11974638D01*
X16308314Y-11979400D01*
X16303552Y-11984162D01*
X16298790Y-11993686D01*
X16294028Y-12012733D01*
X16294028Y-12036543D01*
X16298790Y-12055590D01*
X16303552Y-12065114D01*
X16308314Y-12069876D01*
X16317838Y-12074638D01*
X16327362Y-12074638D01*
X16336886Y-12069876D01*
X16341648Y-12065114D01*
X16346409Y-12055590D01*
X16351171Y-12036543D01*
X16351171Y-12012733D01*
X16346409Y-11993686D01*
X16341648Y-11984162D01*
X16336886Y-11979400D01*
X16327362Y-11974638D01*
X16255933Y-11984162D02*
X16251171Y-11979400D01*
X16241648Y-11974638D01*
X16217838Y-11974638D01*
X16208314Y-11979400D01*
X16203552Y-11984162D01*
X16198790Y-11993686D01*
X16198790Y-12003209D01*
X16203552Y-12017495D01*
X16260695Y-12074638D01*
X16198790Y-12074638D01*
X16484505Y-11820638D02*
X16517838Y-11773019D01*
X16541648Y-11820638D02*
X16541648Y-11720638D01*
X16503552Y-11720638D01*
X16494028Y-11725400D01*
X16489267Y-11730162D01*
X16484505Y-11739686D01*
X16484505Y-11753971D01*
X16489267Y-11763495D01*
X16494028Y-11768257D01*
X16503552Y-11773019D01*
X16541648Y-11773019D01*
X16398790Y-11753971D02*
X16398790Y-11820638D01*
X16422600Y-11715876D02*
X16446409Y-11787305D01*
X16384505Y-11787305D01*
X16327362Y-11720638D02*
X16317838Y-11720638D01*
X16308314Y-11725400D01*
X16303552Y-11730162D01*
X16298790Y-11739686D01*
X16294028Y-11758733D01*
X16294028Y-11782543D01*
X16298790Y-11801590D01*
X16303552Y-11811114D01*
X16308314Y-11815876D01*
X16317838Y-11820638D01*
X16327362Y-11820638D01*
X16336886Y-11815876D01*
X16341648Y-11811114D01*
X16346409Y-11801590D01*
X16351171Y-11782543D01*
X16351171Y-11758733D01*
X16346409Y-11739686D01*
X16341648Y-11730162D01*
X16336886Y-11725400D01*
X16327362Y-11720638D01*
X16260695Y-11720638D02*
X16198790Y-11720638D01*
X16232124Y-11758733D01*
X16217838Y-11758733D01*
X16208314Y-11763495D01*
X16203552Y-11768257D01*
X16198790Y-11777781D01*
X16198790Y-11801590D01*
X16203552Y-11811114D01*
X16208314Y-11815876D01*
X16217838Y-11820638D01*
X16246409Y-11820638D01*
X16255933Y-11815876D01*
X16260695Y-11811114D01*
X19435438Y-10998571D02*
X19435438Y-11055714D01*
X19535438Y-11027143D02*
X19435438Y-11027143D01*
X19535438Y-11089048D02*
X19435438Y-11089048D01*
X19435438Y-11127143D01*
X19440200Y-11136667D01*
X19444962Y-11141429D01*
X19454486Y-11146190D01*
X19468771Y-11146190D01*
X19478295Y-11141429D01*
X19483057Y-11136667D01*
X19487819Y-11127143D01*
X19487819Y-11089048D01*
X19444962Y-11184286D02*
X19440200Y-11189048D01*
X19435438Y-11198571D01*
X19435438Y-11222381D01*
X19440200Y-11231905D01*
X19444962Y-11236667D01*
X19454486Y-11241428D01*
X19464010Y-11241428D01*
X19478295Y-11236667D01*
X19535438Y-11179524D01*
X19535438Y-11241428D01*
X19435438Y-11303333D02*
X19435438Y-11312857D01*
X19440200Y-11322381D01*
X19444962Y-11327143D01*
X19454486Y-11331905D01*
X19473533Y-11336667D01*
X19497343Y-11336667D01*
X19516390Y-11331905D01*
X19525914Y-11327143D01*
X19530676Y-11322381D01*
X19535438Y-11312857D01*
X19535438Y-11303333D01*
X19530676Y-11293809D01*
X19525914Y-11289048D01*
X19516390Y-11284286D01*
X19497343Y-11279524D01*
X19473533Y-11279524D01*
X19454486Y-11284286D01*
X19444962Y-11289048D01*
X19440200Y-11293809D01*
X19435438Y-11303333D01*
X19435438Y-11427143D02*
X19435438Y-11379524D01*
X19483057Y-11374762D01*
X19478295Y-11379524D01*
X19473533Y-11389048D01*
X19473533Y-11412857D01*
X19478295Y-11422381D01*
X19483057Y-11427143D01*
X19492581Y-11431905D01*
X19516390Y-11431905D01*
X19525914Y-11427143D01*
X19530676Y-11422381D01*
X19535438Y-11412857D01*
X19535438Y-11389048D01*
X19530676Y-11379524D01*
X19525914Y-11374762D01*
X19435438Y-10098571D02*
X19435438Y-10155714D01*
X19535438Y-10127143D02*
X19435438Y-10127143D01*
X19535438Y-10189048D02*
X19435438Y-10189048D01*
X19435438Y-10227143D01*
X19440200Y-10236667D01*
X19444962Y-10241429D01*
X19454486Y-10246190D01*
X19468771Y-10246190D01*
X19478295Y-10241429D01*
X19483057Y-10236667D01*
X19487819Y-10227143D01*
X19487819Y-10189048D01*
X19444962Y-10284286D02*
X19440200Y-10289048D01*
X19435438Y-10298571D01*
X19435438Y-10322381D01*
X19440200Y-10331905D01*
X19444962Y-10336667D01*
X19454486Y-10341429D01*
X19464010Y-10341429D01*
X19478295Y-10336667D01*
X19535438Y-10279524D01*
X19535438Y-10341429D01*
X19435438Y-10403333D02*
X19435438Y-10412857D01*
X19440200Y-10422381D01*
X19444962Y-10427143D01*
X19454486Y-10431905D01*
X19473533Y-10436667D01*
X19497343Y-10436667D01*
X19516390Y-10431905D01*
X19525914Y-10427143D01*
X19530676Y-10422381D01*
X19535438Y-10412857D01*
X19535438Y-10403333D01*
X19530676Y-10393810D01*
X19525914Y-10389048D01*
X19516390Y-10384286D01*
X19497343Y-10379524D01*
X19473533Y-10379524D01*
X19454486Y-10384286D01*
X19444962Y-10389048D01*
X19440200Y-10393810D01*
X19435438Y-10403333D01*
X19435438Y-10522381D02*
X19435438Y-10503333D01*
X19440200Y-10493810D01*
X19444962Y-10489048D01*
X19459248Y-10479524D01*
X19478295Y-10474762D01*
X19516390Y-10474762D01*
X19525914Y-10479524D01*
X19530676Y-10484286D01*
X19535438Y-10493810D01*
X19535438Y-10512857D01*
X19530676Y-10522381D01*
X19525914Y-10527143D01*
X19516390Y-10531905D01*
X19492581Y-10531905D01*
X19483057Y-10527143D01*
X19478295Y-10522381D01*
X19473533Y-10512857D01*
X19473533Y-10493810D01*
X19478295Y-10484286D01*
X19483057Y-10479524D01*
X19492581Y-10474762D01*
X19861429Y-12165038D02*
X19804286Y-12165038D01*
X19832857Y-12265038D02*
X19832857Y-12165038D01*
X19770952Y-12265038D02*
X19770952Y-12165038D01*
X19732857Y-12165038D01*
X19723333Y-12169800D01*
X19718571Y-12174562D01*
X19713810Y-12184086D01*
X19713810Y-12198371D01*
X19718571Y-12207895D01*
X19723333Y-12212657D01*
X19732857Y-12217419D01*
X19770952Y-12217419D01*
X19675714Y-12174562D02*
X19670952Y-12169800D01*
X19661429Y-12165038D01*
X19637619Y-12165038D01*
X19628095Y-12169800D01*
X19623333Y-12174562D01*
X19618571Y-12184086D01*
X19618571Y-12193609D01*
X19623333Y-12207895D01*
X19680476Y-12265038D01*
X19618571Y-12265038D01*
X19556667Y-12165038D02*
X19547143Y-12165038D01*
X19537619Y-12169800D01*
X19532857Y-12174562D01*
X19528095Y-12184086D01*
X19523333Y-12203133D01*
X19523333Y-12226943D01*
X19528095Y-12245990D01*
X19532857Y-12255514D01*
X19537619Y-12260276D01*
X19547143Y-12265038D01*
X19556667Y-12265038D01*
X19566190Y-12260276D01*
X19570952Y-12255514D01*
X19575714Y-12245990D01*
X19580476Y-12226943D01*
X19580476Y-12203133D01*
X19575714Y-12184086D01*
X19570952Y-12174562D01*
X19566190Y-12169800D01*
X19556667Y-12165038D01*
X19490000Y-12165038D02*
X19423333Y-12165038D01*
X19466190Y-12265038D01*
X19861429Y-11865038D02*
X19804286Y-11865038D01*
X19832857Y-11965038D02*
X19832857Y-11865038D01*
X19770952Y-11965038D02*
X19770952Y-11865038D01*
X19732857Y-11865038D01*
X19723333Y-11869800D01*
X19718571Y-11874562D01*
X19713810Y-11884086D01*
X19713810Y-11898371D01*
X19718571Y-11907895D01*
X19723333Y-11912657D01*
X19732857Y-11917419D01*
X19770952Y-11917419D01*
X19675714Y-11874562D02*
X19670952Y-11869800D01*
X19661429Y-11865038D01*
X19637619Y-11865038D01*
X19628095Y-11869800D01*
X19623333Y-11874562D01*
X19618571Y-11884086D01*
X19618571Y-11893609D01*
X19623333Y-11907895D01*
X19680476Y-11965038D01*
X19618571Y-11965038D01*
X19556667Y-11865038D02*
X19547143Y-11865038D01*
X19537619Y-11869800D01*
X19532857Y-11874562D01*
X19528095Y-11884086D01*
X19523333Y-11903133D01*
X19523333Y-11926943D01*
X19528095Y-11945990D01*
X19532857Y-11955514D01*
X19537619Y-11960276D01*
X19547143Y-11965038D01*
X19556667Y-11965038D01*
X19566190Y-11960276D01*
X19570952Y-11955514D01*
X19575714Y-11945990D01*
X19580476Y-11926943D01*
X19580476Y-11903133D01*
X19575714Y-11884086D01*
X19570952Y-11874562D01*
X19566190Y-11869800D01*
X19556667Y-11865038D01*
X19466190Y-11907895D02*
X19475714Y-11903133D01*
X19480476Y-11898371D01*
X19485238Y-11888848D01*
X19485238Y-11884086D01*
X19480476Y-11874562D01*
X19475714Y-11869800D01*
X19466190Y-11865038D01*
X19447143Y-11865038D01*
X19437619Y-11869800D01*
X19432857Y-11874562D01*
X19428095Y-11884086D01*
X19428095Y-11888848D01*
X19432857Y-11898371D01*
X19437619Y-11903133D01*
X19447143Y-11907895D01*
X19466190Y-11907895D01*
X19475714Y-11912657D01*
X19480476Y-11917419D01*
X19485238Y-11926943D01*
X19485238Y-11945990D01*
X19480476Y-11955514D01*
X19475714Y-11960276D01*
X19466190Y-11965038D01*
X19447143Y-11965038D01*
X19437619Y-11960276D01*
X19432857Y-11955514D01*
X19428095Y-11945990D01*
X19428095Y-11926943D01*
X19432857Y-11917419D01*
X19437619Y-11912657D01*
X19447143Y-11907895D01*
X17385438Y-12098571D02*
X17385438Y-12155714D01*
X17485438Y-12127143D02*
X17385438Y-12127143D01*
X17485438Y-12189048D02*
X17385438Y-12189048D01*
X17385438Y-12227143D01*
X17390200Y-12236667D01*
X17394962Y-12241428D01*
X17404486Y-12246190D01*
X17418771Y-12246190D01*
X17428295Y-12241428D01*
X17433057Y-12236667D01*
X17437819Y-12227143D01*
X17437819Y-12189048D01*
X17394962Y-12284286D02*
X17390200Y-12289048D01*
X17385438Y-12298571D01*
X17385438Y-12322381D01*
X17390200Y-12331905D01*
X17394962Y-12336667D01*
X17404486Y-12341428D01*
X17414010Y-12341428D01*
X17428295Y-12336667D01*
X17485438Y-12279524D01*
X17485438Y-12341428D01*
X17385438Y-12403333D02*
X17385438Y-12412857D01*
X17390200Y-12422381D01*
X17394962Y-12427143D01*
X17404486Y-12431905D01*
X17423533Y-12436667D01*
X17447343Y-12436667D01*
X17466390Y-12431905D01*
X17475914Y-12427143D01*
X17480676Y-12422381D01*
X17485438Y-12412857D01*
X17485438Y-12403333D01*
X17480676Y-12393809D01*
X17475914Y-12389048D01*
X17466390Y-12384286D01*
X17447343Y-12379524D01*
X17423533Y-12379524D01*
X17404486Y-12384286D01*
X17394962Y-12389048D01*
X17390200Y-12393809D01*
X17385438Y-12403333D01*
X17385438Y-12470000D02*
X17385438Y-12531905D01*
X17423533Y-12498571D01*
X17423533Y-12512857D01*
X17428295Y-12522381D01*
X17433057Y-12527143D01*
X17442581Y-12531905D01*
X17466390Y-12531905D01*
X17475914Y-12527143D01*
X17480676Y-12522381D01*
X17485438Y-12512857D01*
X17485438Y-12484286D01*
X17480676Y-12474762D01*
X17475914Y-12470000D01*
X19435438Y-10398571D02*
X19435438Y-10455714D01*
X19535438Y-10427143D02*
X19435438Y-10427143D01*
X19535438Y-10489048D02*
X19435438Y-10489048D01*
X19435438Y-10527143D01*
X19440200Y-10536667D01*
X19444962Y-10541429D01*
X19454486Y-10546190D01*
X19468771Y-10546190D01*
X19478295Y-10541429D01*
X19483057Y-10536667D01*
X19487819Y-10527143D01*
X19487819Y-10489048D01*
X19444962Y-10584286D02*
X19440200Y-10589048D01*
X19435438Y-10598571D01*
X19435438Y-10622381D01*
X19440200Y-10631905D01*
X19444962Y-10636667D01*
X19454486Y-10641429D01*
X19464010Y-10641429D01*
X19478295Y-10636667D01*
X19535438Y-10579524D01*
X19535438Y-10641429D01*
X19435438Y-10703333D02*
X19435438Y-10712857D01*
X19440200Y-10722381D01*
X19444962Y-10727143D01*
X19454486Y-10731905D01*
X19473533Y-10736667D01*
X19497343Y-10736667D01*
X19516390Y-10731905D01*
X19525914Y-10727143D01*
X19530676Y-10722381D01*
X19535438Y-10712857D01*
X19535438Y-10703333D01*
X19530676Y-10693810D01*
X19525914Y-10689048D01*
X19516390Y-10684286D01*
X19497343Y-10679524D01*
X19473533Y-10679524D01*
X19454486Y-10684286D01*
X19444962Y-10689048D01*
X19440200Y-10693810D01*
X19435438Y-10703333D01*
X19535438Y-10831905D02*
X19535438Y-10774762D01*
X19535438Y-10803333D02*
X19435438Y-10803333D01*
X19449724Y-10793810D01*
X19459248Y-10784286D01*
X19464010Y-10774762D01*
X19435438Y-10698571D02*
X19435438Y-10755714D01*
X19535438Y-10727143D02*
X19435438Y-10727143D01*
X19535438Y-10789048D02*
X19435438Y-10789048D01*
X19435438Y-10827143D01*
X19440200Y-10836667D01*
X19444962Y-10841429D01*
X19454486Y-10846190D01*
X19468771Y-10846190D01*
X19478295Y-10841429D01*
X19483057Y-10836667D01*
X19487819Y-10827143D01*
X19487819Y-10789048D01*
X19444962Y-10884286D02*
X19440200Y-10889048D01*
X19435438Y-10898571D01*
X19435438Y-10922381D01*
X19440200Y-10931905D01*
X19444962Y-10936667D01*
X19454486Y-10941429D01*
X19464010Y-10941429D01*
X19478295Y-10936667D01*
X19535438Y-10879524D01*
X19535438Y-10941429D01*
X19435438Y-11003333D02*
X19435438Y-11012857D01*
X19440200Y-11022381D01*
X19444962Y-11027143D01*
X19454486Y-11031905D01*
X19473533Y-11036667D01*
X19497343Y-11036667D01*
X19516390Y-11031905D01*
X19525914Y-11027143D01*
X19530676Y-11022381D01*
X19535438Y-11012857D01*
X19535438Y-11003333D01*
X19530676Y-10993810D01*
X19525914Y-10989048D01*
X19516390Y-10984286D01*
X19497343Y-10979524D01*
X19473533Y-10979524D01*
X19454486Y-10984286D01*
X19444962Y-10989048D01*
X19440200Y-10993810D01*
X19435438Y-11003333D01*
X19444962Y-11074762D02*
X19440200Y-11079524D01*
X19435438Y-11089048D01*
X19435438Y-11112857D01*
X19440200Y-11122381D01*
X19444962Y-11127143D01*
X19454486Y-11131905D01*
X19464010Y-11131905D01*
X19478295Y-11127143D01*
X19535438Y-11070000D01*
X19535438Y-11131905D01*
X17385438Y-11198571D02*
X17385438Y-11255714D01*
X17485438Y-11227143D02*
X17385438Y-11227143D01*
X17485438Y-11289048D02*
X17385438Y-11289048D01*
X17385438Y-11327143D01*
X17390200Y-11336667D01*
X17394962Y-11341428D01*
X17404486Y-11346190D01*
X17418771Y-11346190D01*
X17428295Y-11341428D01*
X17433057Y-11336667D01*
X17437819Y-11327143D01*
X17437819Y-11289048D01*
X17394962Y-11384286D02*
X17390200Y-11389048D01*
X17385438Y-11398571D01*
X17385438Y-11422381D01*
X17390200Y-11431905D01*
X17394962Y-11436667D01*
X17404486Y-11441428D01*
X17414010Y-11441428D01*
X17428295Y-11436667D01*
X17485438Y-11379524D01*
X17485438Y-11441428D01*
X17385438Y-11503333D02*
X17385438Y-11512857D01*
X17390200Y-11522381D01*
X17394962Y-11527143D01*
X17404486Y-11531905D01*
X17423533Y-11536667D01*
X17447343Y-11536667D01*
X17466390Y-11531905D01*
X17475914Y-11527143D01*
X17480676Y-11522381D01*
X17485438Y-11512857D01*
X17485438Y-11503333D01*
X17480676Y-11493809D01*
X17475914Y-11489048D01*
X17466390Y-11484286D01*
X17447343Y-11479524D01*
X17423533Y-11479524D01*
X17404486Y-11484286D01*
X17394962Y-11489048D01*
X17390200Y-11493809D01*
X17385438Y-11503333D01*
X17418771Y-11622381D02*
X17485438Y-11622381D01*
X17380676Y-11598571D02*
X17452105Y-11574762D01*
X17452105Y-11636667D01*
%LPC*%
D13*
X8930000Y-11100000D03*
D14*
X8680000Y-11600000D03*
D13*
X7660000Y-10600000D03*
D14*
X8680000Y-10600000D03*
G36*
G01*
X9987500Y-12105000D02*
X9987500Y-12015000D01*
G75*
G02*
X10012500Y-11990000I25000J0D01*
G01*
X10077500Y-11990000D01*
G75*
G02*
X10102500Y-12015000I0J-25000D01*
G01*
X10102500Y-12105000D01*
G75*
G02*
X10077500Y-12130000I-25000J0D01*
G01*
X10012500Y-12130000D01*
G75*
G02*
X9987500Y-12105000I0J25000D01*
G01*
G37*
G36*
G01*
X9782500Y-12105000D02*
X9782500Y-12015000D01*
G75*
G02*
X9807500Y-11990000I25000J0D01*
G01*
X9872500Y-11990000D01*
G75*
G02*
X9897500Y-12015000I0J-25000D01*
G01*
X9897500Y-12105000D01*
G75*
G02*
X9872500Y-12130000I-25000J0D01*
G01*
X9807500Y-12130000D01*
G75*
G02*
X9782500Y-12105000I0J25000D01*
G01*
G37*
G36*
G01*
X10342500Y-12512500D02*
X10342500Y-12327500D01*
G75*
G02*
X10367500Y-12302500I25000J0D01*
G01*
X10542500Y-12302500D01*
G75*
G02*
X10567500Y-12327500I0J-25000D01*
G01*
X10567500Y-12512500D01*
G75*
G02*
X10542500Y-12537500I-25000J0D01*
G01*
X10367500Y-12537500D01*
G75*
G02*
X10342500Y-12512500I0J25000D01*
G01*
G37*
G36*
G01*
X9832500Y-12512500D02*
X9832500Y-12327500D01*
G75*
G02*
X9857500Y-12302500I25000J0D01*
G01*
X10032500Y-12302500D01*
G75*
G02*
X10057500Y-12327500I0J-25000D01*
G01*
X10057500Y-12512500D01*
G75*
G02*
X10032500Y-12537500I-25000J0D01*
G01*
X9857500Y-12537500D01*
G75*
G02*
X9832500Y-12512500I0J25000D01*
G01*
G37*
D15*
X13200000Y-10080000D03*
X10332800Y-10064400D03*
G36*
G01*
X16405000Y-11045000D02*
X16405000Y-10955000D01*
G75*
G02*
X16430000Y-10930000I25000J0D01*
G01*
X16495000Y-10930000D01*
G75*
G02*
X16520000Y-10955000I0J-25000D01*
G01*
X16520000Y-11045000D01*
G75*
G02*
X16495000Y-11070000I-25000J0D01*
G01*
X16430000Y-11070000D01*
G75*
G02*
X16405000Y-11045000I0J25000D01*
G01*
G37*
G36*
G01*
X16200000Y-11045000D02*
X16200000Y-10955000D01*
G75*
G02*
X16225000Y-10930000I25000J0D01*
G01*
X16290000Y-10930000D01*
G75*
G02*
X16315000Y-10955000I0J-25000D01*
G01*
X16315000Y-11045000D01*
G75*
G02*
X16290000Y-11070000I-25000J0D01*
G01*
X16225000Y-11070000D01*
G75*
G02*
X16200000Y-11045000I0J25000D01*
G01*
G37*
G36*
G01*
X16315000Y-11255000D02*
X16315000Y-11345000D01*
G75*
G02*
X16290000Y-11370000I-25000J0D01*
G01*
X16225000Y-11370000D01*
G75*
G02*
X16200000Y-11345000I0J25000D01*
G01*
X16200000Y-11255000D01*
G75*
G02*
X16225000Y-11230000I25000J0D01*
G01*
X16290000Y-11230000D01*
G75*
G02*
X16315000Y-11255000I0J-25000D01*
G01*
G37*
G36*
G01*
X16520000Y-11255000D02*
X16520000Y-11345000D01*
G75*
G02*
X16495000Y-11370000I-25000J0D01*
G01*
X16430000Y-11370000D01*
G75*
G02*
X16405000Y-11345000I0J25000D01*
G01*
X16405000Y-11255000D01*
G75*
G02*
X16430000Y-11230000I25000J0D01*
G01*
X16495000Y-11230000D01*
G75*
G02*
X16520000Y-11255000I0J-25000D01*
G01*
G37*
G36*
G01*
X10137500Y-11865000D02*
X10137500Y-11775000D01*
G75*
G02*
X10162500Y-11750000I25000J0D01*
G01*
X10227500Y-11750000D01*
G75*
G02*
X10252500Y-11775000I0J-25000D01*
G01*
X10252500Y-11865000D01*
G75*
G02*
X10227500Y-11890000I-25000J0D01*
G01*
X10162500Y-11890000D01*
G75*
G02*
X10137500Y-11865000I0J25000D01*
G01*
G37*
G36*
G01*
X10342500Y-11865000D02*
X10342500Y-11775000D01*
G75*
G02*
X10367500Y-11750000I25000J0D01*
G01*
X10432500Y-11750000D01*
G75*
G02*
X10457500Y-11775000I0J-25000D01*
G01*
X10457500Y-11865000D01*
G75*
G02*
X10432500Y-11890000I-25000J0D01*
G01*
X10367500Y-11890000D01*
G75*
G02*
X10342500Y-11865000I0J25000D01*
G01*
G37*
D16*
X8775208Y-9655000D03*
D17*
X8275208Y-9655000D03*
G36*
G01*
X9515000Y-11340000D02*
X9605000Y-11340000D01*
G75*
G02*
X9630000Y-11365000I0J-25000D01*
G01*
X9630000Y-11430000D01*
G75*
G02*
X9605000Y-11455000I-25000J0D01*
G01*
X9515000Y-11455000D01*
G75*
G02*
X9490000Y-11430000I0J25000D01*
G01*
X9490000Y-11365000D01*
G75*
G02*
X9515000Y-11340000I25000J0D01*
G01*
G37*
G36*
G01*
X9515000Y-11545000D02*
X9605000Y-11545000D01*
G75*
G02*
X9630000Y-11570000I0J-25000D01*
G01*
X9630000Y-11635000D01*
G75*
G02*
X9605000Y-11660000I-25000J0D01*
G01*
X9515000Y-11660000D01*
G75*
G02*
X9490000Y-11635000I0J25000D01*
G01*
X9490000Y-11570000D01*
G75*
G02*
X9515000Y-11545000I25000J0D01*
G01*
G37*
G36*
G01*
X10434500Y-8345000D02*
X10464500Y-8345000D01*
G75*
G02*
X10479500Y-8360000I0J-15000D01*
G01*
X10479500Y-8525000D01*
G75*
G02*
X10464500Y-8540000I-15000J0D01*
G01*
X10434500Y-8540000D01*
G75*
G02*
X10419500Y-8525000I0J15000D01*
G01*
X10419500Y-8360000D01*
G75*
G02*
X10434500Y-8345000I15000J0D01*
G01*
G37*
G36*
G01*
X10561500Y-8345000D02*
X10591500Y-8345000D01*
G75*
G02*
X10606500Y-8360000I0J-15000D01*
G01*
X10606500Y-8525000D01*
G75*
G02*
X10591500Y-8540000I-15000J0D01*
G01*
X10561500Y-8540000D01*
G75*
G02*
X10546500Y-8525000I0J15000D01*
G01*
X10546500Y-8360000D01*
G75*
G02*
X10561500Y-8345000I15000J0D01*
G01*
G37*
G36*
G01*
X10688500Y-8345000D02*
X10718500Y-8345000D01*
G75*
G02*
X10733500Y-8360000I0J-15000D01*
G01*
X10733500Y-8525000D01*
G75*
G02*
X10718500Y-8540000I-15000J0D01*
G01*
X10688500Y-8540000D01*
G75*
G02*
X10673500Y-8525000I0J15000D01*
G01*
X10673500Y-8360000D01*
G75*
G02*
X10688500Y-8345000I15000J0D01*
G01*
G37*
G36*
G01*
X10815500Y-8345000D02*
X10845500Y-8345000D01*
G75*
G02*
X10860500Y-8360000I0J-15000D01*
G01*
X10860500Y-8525000D01*
G75*
G02*
X10845500Y-8540000I-15000J0D01*
G01*
X10815500Y-8540000D01*
G75*
G02*
X10800500Y-8525000I0J15000D01*
G01*
X10800500Y-8360000D01*
G75*
G02*
X10815500Y-8345000I15000J0D01*
G01*
G37*
G36*
G01*
X10815500Y-8840000D02*
X10845500Y-8840000D01*
G75*
G02*
X10860500Y-8855000I0J-15000D01*
G01*
X10860500Y-9020000D01*
G75*
G02*
X10845500Y-9035000I-15000J0D01*
G01*
X10815500Y-9035000D01*
G75*
G02*
X10800500Y-9020000I0J15000D01*
G01*
X10800500Y-8855000D01*
G75*
G02*
X10815500Y-8840000I15000J0D01*
G01*
G37*
G36*
G01*
X10688500Y-8840000D02*
X10718500Y-8840000D01*
G75*
G02*
X10733500Y-8855000I0J-15000D01*
G01*
X10733500Y-9020000D01*
G75*
G02*
X10718500Y-9035000I-15000J0D01*
G01*
X10688500Y-9035000D01*
G75*
G02*
X10673500Y-9020000I0J15000D01*
G01*
X10673500Y-8855000D01*
G75*
G02*
X10688500Y-8840000I15000J0D01*
G01*
G37*
G36*
G01*
X10561500Y-8840000D02*
X10591500Y-8840000D01*
G75*
G02*
X10606500Y-8855000I0J-15000D01*
G01*
X10606500Y-9020000D01*
G75*
G02*
X10591500Y-9035000I-15000J0D01*
G01*
X10561500Y-9035000D01*
G75*
G02*
X10546500Y-9020000I0J15000D01*
G01*
X10546500Y-8855000D01*
G75*
G02*
X10561500Y-8840000I15000J0D01*
G01*
G37*
G36*
G01*
X10434500Y-8840000D02*
X10464500Y-8840000D01*
G75*
G02*
X10479500Y-8855000I0J-15000D01*
G01*
X10479500Y-9020000D01*
G75*
G02*
X10464500Y-9035000I-15000J0D01*
G01*
X10434500Y-9035000D01*
G75*
G02*
X10419500Y-9020000I0J15000D01*
G01*
X10419500Y-8855000D01*
G75*
G02*
X10434500Y-8840000I15000J0D01*
G01*
G37*
D18*
X18902500Y-9922500D03*
D19*
X8350000Y-11215000D03*
X8350000Y-10665000D03*
D16*
X8540000Y-7265000D03*
D17*
X8540000Y-6765000D03*
D16*
X7200000Y-7265000D03*
D17*
X7200000Y-6765000D03*
D20*
X11600000Y-9140000D03*
X11600000Y-8595000D03*
D21*
X11600000Y-8050000D03*
D22*
X13586000Y-8595000D03*
G36*
G01*
X15318900Y-11340000D02*
X15318900Y-11250000D01*
G75*
G02*
X15343900Y-11225000I25000J0D01*
G01*
X15408900Y-11225000D01*
G75*
G02*
X15433900Y-11250000I0J-25000D01*
G01*
X15433900Y-11340000D01*
G75*
G02*
X15408900Y-11365000I-25000J0D01*
G01*
X15343900Y-11365000D01*
G75*
G02*
X15318900Y-11340000I0J25000D01*
G01*
G37*
G36*
G01*
X15523900Y-11340000D02*
X15523900Y-11250000D01*
G75*
G02*
X15548900Y-11225000I25000J0D01*
G01*
X15613900Y-11225000D01*
G75*
G02*
X15638900Y-11250000I0J-25000D01*
G01*
X15638900Y-11340000D01*
G75*
G02*
X15613900Y-11365000I-25000J0D01*
G01*
X15548900Y-11365000D01*
G75*
G02*
X15523900Y-11340000I0J25000D01*
G01*
G37*
D23*
X10400000Y-11365000D03*
X10400000Y-11555000D03*
X10200000Y-11460000D03*
X9780000Y-11555000D03*
X9980000Y-11650000D03*
X9980000Y-11460000D03*
D24*
X6660000Y-12380000D03*
X8920000Y-12380000D03*
X6659000Y-5853000D03*
X8919000Y-5853000D03*
G36*
G01*
X8492000Y-9195500D02*
X8492000Y-9105500D01*
G75*
G02*
X8517000Y-9080500I25000J0D01*
G01*
X8582000Y-9080500D01*
G75*
G02*
X8607000Y-9105500I0J-25000D01*
G01*
X8607000Y-9195500D01*
G75*
G02*
X8582000Y-9220500I-25000J0D01*
G01*
X8517000Y-9220500D01*
G75*
G02*
X8492000Y-9195500I0J25000D01*
G01*
G37*
G36*
G01*
X8287000Y-9195500D02*
X8287000Y-9105500D01*
G75*
G02*
X8312000Y-9080500I25000J0D01*
G01*
X8377000Y-9080500D01*
G75*
G02*
X8402000Y-9105500I0J-25000D01*
G01*
X8402000Y-9195500D01*
G75*
G02*
X8377000Y-9220500I-25000J0D01*
G01*
X8312000Y-9220500D01*
G75*
G02*
X8287000Y-9195500I0J25000D01*
G01*
G37*
G36*
G01*
X8492000Y-9425000D02*
X8492000Y-9335000D01*
G75*
G02*
X8517000Y-9310000I25000J0D01*
G01*
X8582000Y-9310000D01*
G75*
G02*
X8607000Y-9335000I0J-25000D01*
G01*
X8607000Y-9425000D01*
G75*
G02*
X8582000Y-9450000I-25000J0D01*
G01*
X8517000Y-9450000D01*
G75*
G02*
X8492000Y-9425000I0J25000D01*
G01*
G37*
G36*
G01*
X8287000Y-9425000D02*
X8287000Y-9335000D01*
G75*
G02*
X8312000Y-9310000I25000J0D01*
G01*
X8377000Y-9310000D01*
G75*
G02*
X8402000Y-9335000I0J-25000D01*
G01*
X8402000Y-9425000D01*
G75*
G02*
X8377000Y-9450000I-25000J0D01*
G01*
X8312000Y-9450000D01*
G75*
G02*
X8287000Y-9425000I0J25000D01*
G01*
G37*
G36*
G01*
X8527500Y-8662500D02*
X8527500Y-8537500D01*
G75*
G02*
X8552500Y-8512500I25000J0D01*
G01*
X8645000Y-8512500D01*
G75*
G02*
X8670000Y-8537500I0J-25000D01*
G01*
X8670000Y-8662500D01*
G75*
G02*
X8645000Y-8687500I-25000J0D01*
G01*
X8552500Y-8687500D01*
G75*
G02*
X8527500Y-8662500I0J25000D01*
G01*
G37*
G36*
G01*
X8230000Y-8662500D02*
X8230000Y-8537500D01*
G75*
G02*
X8255000Y-8512500I25000J0D01*
G01*
X8347500Y-8512500D01*
G75*
G02*
X8372500Y-8537500I0J-25000D01*
G01*
X8372500Y-8662500D01*
G75*
G02*
X8347500Y-8687500I-25000J0D01*
G01*
X8255000Y-8687500D01*
G75*
G02*
X8230000Y-8662500I0J25000D01*
G01*
G37*
G36*
G01*
X8527500Y-8949500D02*
X8527500Y-8824500D01*
G75*
G02*
X8552500Y-8799500I25000J0D01*
G01*
X8645000Y-8799500D01*
G75*
G02*
X8670000Y-8824500I0J-25000D01*
G01*
X8670000Y-8949500D01*
G75*
G02*
X8645000Y-8974500I-25000J0D01*
G01*
X8552500Y-8974500D01*
G75*
G02*
X8527500Y-8949500I0J25000D01*
G01*
G37*
G36*
G01*
X8230000Y-8949500D02*
X8230000Y-8824500D01*
G75*
G02*
X8255000Y-8799500I25000J0D01*
G01*
X8347500Y-8799500D01*
G75*
G02*
X8372500Y-8824500I0J-25000D01*
G01*
X8372500Y-8949500D01*
G75*
G02*
X8347500Y-8974500I-25000J0D01*
G01*
X8255000Y-8974500D01*
G75*
G02*
X8230000Y-8949500I0J25000D01*
G01*
G37*
G36*
G01*
X11825500Y-9745000D02*
X11795500Y-9745000D01*
G75*
G02*
X11780500Y-9730000I0J15000D01*
G01*
X11780500Y-9565000D01*
G75*
G02*
X11795500Y-9550000I15000J0D01*
G01*
X11825500Y-9550000D01*
G75*
G02*
X11840500Y-9565000I0J-15000D01*
G01*
X11840500Y-9730000D01*
G75*
G02*
X11825500Y-9745000I-15000J0D01*
G01*
G37*
G36*
G01*
X11698500Y-9745000D02*
X11668500Y-9745000D01*
G75*
G02*
X11653500Y-9730000I0J15000D01*
G01*
X11653500Y-9565000D01*
G75*
G02*
X11668500Y-9550000I15000J0D01*
G01*
X11698500Y-9550000D01*
G75*
G02*
X11713500Y-9565000I0J-15000D01*
G01*
X11713500Y-9730000D01*
G75*
G02*
X11698500Y-9745000I-15000J0D01*
G01*
G37*
G36*
G01*
X11571500Y-9745000D02*
X11541500Y-9745000D01*
G75*
G02*
X11526500Y-9730000I0J15000D01*
G01*
X11526500Y-9565000D01*
G75*
G02*
X11541500Y-9550000I15000J0D01*
G01*
X11571500Y-9550000D01*
G75*
G02*
X11586500Y-9565000I0J-15000D01*
G01*
X11586500Y-9730000D01*
G75*
G02*
X11571500Y-9745000I-15000J0D01*
G01*
G37*
G36*
G01*
X11444500Y-9745000D02*
X11414500Y-9745000D01*
G75*
G02*
X11399500Y-9730000I0J15000D01*
G01*
X11399500Y-9565000D01*
G75*
G02*
X11414500Y-9550000I15000J0D01*
G01*
X11444500Y-9550000D01*
G75*
G02*
X11459500Y-9565000I0J-15000D01*
G01*
X11459500Y-9730000D01*
G75*
G02*
X11444500Y-9745000I-15000J0D01*
G01*
G37*
G36*
G01*
X11444500Y-10240000D02*
X11414500Y-10240000D01*
G75*
G02*
X11399500Y-10225000I0J15000D01*
G01*
X11399500Y-10060000D01*
G75*
G02*
X11414500Y-10045000I15000J0D01*
G01*
X11444500Y-10045000D01*
G75*
G02*
X11459500Y-10060000I0J-15000D01*
G01*
X11459500Y-10225000D01*
G75*
G02*
X11444500Y-10240000I-15000J0D01*
G01*
G37*
G36*
G01*
X11571500Y-10240000D02*
X11541500Y-10240000D01*
G75*
G02*
X11526500Y-10225000I0J15000D01*
G01*
X11526500Y-10060000D01*
G75*
G02*
X11541500Y-10045000I15000J0D01*
G01*
X11571500Y-10045000D01*
G75*
G02*
X11586500Y-10060000I0J-15000D01*
G01*
X11586500Y-10225000D01*
G75*
G02*
X11571500Y-10240000I-15000J0D01*
G01*
G37*
G36*
G01*
X11698500Y-10240000D02*
X11668500Y-10240000D01*
G75*
G02*
X11653500Y-10225000I0J15000D01*
G01*
X11653500Y-10060000D01*
G75*
G02*
X11668500Y-10045000I15000J0D01*
G01*
X11698500Y-10045000D01*
G75*
G02*
X11713500Y-10060000I0J-15000D01*
G01*
X11713500Y-10225000D01*
G75*
G02*
X11698500Y-10240000I-15000J0D01*
G01*
G37*
G36*
G01*
X11825500Y-10240000D02*
X11795500Y-10240000D01*
G75*
G02*
X11780500Y-10225000I0J15000D01*
G01*
X11780500Y-10060000D01*
G75*
G02*
X11795500Y-10045000I15000J0D01*
G01*
X11825500Y-10045000D01*
G75*
G02*
X11840500Y-10060000I0J-15000D01*
G01*
X11840500Y-10225000D01*
G75*
G02*
X11825500Y-10240000I-15000J0D01*
G01*
G37*
D25*
X12295000Y-10105000D03*
X12295000Y-9685000D03*
D26*
X18172900Y-11199600D03*
X18172900Y-11072600D03*
X18172900Y-10945600D03*
X18172900Y-10818600D03*
X18172900Y-10691600D03*
X18172900Y-10564600D03*
X18172900Y-10437600D03*
X18172900Y-10310600D03*
X18172900Y-10183600D03*
X19112900Y-10183600D03*
X19112900Y-10310600D03*
X19112900Y-10437600D03*
X19112900Y-10564600D03*
X19112900Y-10691600D03*
X19112900Y-10818600D03*
X19112900Y-10945600D03*
X19112900Y-11072600D03*
X19112900Y-11199600D03*
G36*
G01*
X15433900Y-10795400D02*
X15433900Y-10885400D01*
G75*
G02*
X15408900Y-10910400I-25000J0D01*
G01*
X15343900Y-10910400D01*
G75*
G02*
X15318900Y-10885400I0J25000D01*
G01*
X15318900Y-10795400D01*
G75*
G02*
X15343900Y-10770400I25000J0D01*
G01*
X15408900Y-10770400D01*
G75*
G02*
X15433900Y-10795400I0J-25000D01*
G01*
G37*
G36*
G01*
X15638900Y-10795400D02*
X15638900Y-10885400D01*
G75*
G02*
X15613900Y-10910400I-25000J0D01*
G01*
X15548900Y-10910400D01*
G75*
G02*
X15523900Y-10885400I0J25000D01*
G01*
X15523900Y-10795400D01*
G75*
G02*
X15548900Y-10770400I25000J0D01*
G01*
X15613900Y-10770400D01*
G75*
G02*
X15638900Y-10795400I0J-25000D01*
G01*
G37*
G36*
G01*
X13825000Y-11950000D02*
X13735000Y-11950000D01*
G75*
G02*
X13710000Y-11925000I0J25000D01*
G01*
X13710000Y-11860000D01*
G75*
G02*
X13735000Y-11835000I25000J0D01*
G01*
X13825000Y-11835000D01*
G75*
G02*
X13850000Y-11860000I0J-25000D01*
G01*
X13850000Y-11925000D01*
G75*
G02*
X13825000Y-11950000I-25000J0D01*
G01*
G37*
G36*
G01*
X13825000Y-12155000D02*
X13735000Y-12155000D01*
G75*
G02*
X13710000Y-12130000I0J25000D01*
G01*
X13710000Y-12065000D01*
G75*
G02*
X13735000Y-12040000I25000J0D01*
G01*
X13825000Y-12040000D01*
G75*
G02*
X13850000Y-12065000I0J-25000D01*
G01*
X13850000Y-12130000D01*
G75*
G02*
X13825000Y-12155000I-25000J0D01*
G01*
G37*
G36*
G01*
X11265000Y-10000000D02*
X11175000Y-10000000D01*
G75*
G02*
X11150000Y-9975000I0J25000D01*
G01*
X11150000Y-9910000D01*
G75*
G02*
X11175000Y-9885000I25000J0D01*
G01*
X11265000Y-9885000D01*
G75*
G02*
X11290000Y-9910000I0J-25000D01*
G01*
X11290000Y-9975000D01*
G75*
G02*
X11265000Y-10000000I-25000J0D01*
G01*
G37*
G36*
G01*
X11265000Y-10205000D02*
X11175000Y-10205000D01*
G75*
G02*
X11150000Y-10180000I0J25000D01*
G01*
X11150000Y-10115000D01*
G75*
G02*
X11175000Y-10090000I25000J0D01*
G01*
X11265000Y-10090000D01*
G75*
G02*
X11290000Y-10115000I0J-25000D01*
G01*
X11290000Y-10180000D01*
G75*
G02*
X11265000Y-10205000I-25000J0D01*
G01*
G37*
D27*
X5981075Y-12231075D03*
X6097500Y-11950000D03*
X5981075Y-11668925D03*
X5700000Y-11552500D03*
X5418925Y-11668925D03*
X5302500Y-11950000D03*
X5418925Y-12231075D03*
X5700000Y-12347500D03*
D28*
X5700000Y-11950000D03*
D16*
X6945000Y-8340000D03*
D17*
X7445000Y-8340000D03*
D16*
X6945000Y-9655000D03*
D17*
X7445000Y-9655000D03*
D20*
X11600000Y-7290000D03*
X11600000Y-6745000D03*
D21*
X11600000Y-6200000D03*
D22*
X13586000Y-6745000D03*
G36*
G01*
X13959000Y-12030000D02*
X13989000Y-12030000D01*
G75*
G02*
X14004000Y-12045000I0J-15000D01*
G01*
X14004000Y-12210000D01*
G75*
G02*
X13989000Y-12225000I-15000J0D01*
G01*
X13959000Y-12225000D01*
G75*
G02*
X13944000Y-12210000I0J15000D01*
G01*
X13944000Y-12045000D01*
G75*
G02*
X13959000Y-12030000I15000J0D01*
G01*
G37*
G36*
G01*
X14086000Y-12030000D02*
X14116000Y-12030000D01*
G75*
G02*
X14131000Y-12045000I0J-15000D01*
G01*
X14131000Y-12210000D01*
G75*
G02*
X14116000Y-12225000I-15000J0D01*
G01*
X14086000Y-12225000D01*
G75*
G02*
X14071000Y-12210000I0J15000D01*
G01*
X14071000Y-12045000D01*
G75*
G02*
X14086000Y-12030000I15000J0D01*
G01*
G37*
G36*
G01*
X14213000Y-12030000D02*
X14243000Y-12030000D01*
G75*
G02*
X14258000Y-12045000I0J-15000D01*
G01*
X14258000Y-12210000D01*
G75*
G02*
X14243000Y-12225000I-15000J0D01*
G01*
X14213000Y-12225000D01*
G75*
G02*
X14198000Y-12210000I0J15000D01*
G01*
X14198000Y-12045000D01*
G75*
G02*
X14213000Y-12030000I15000J0D01*
G01*
G37*
G36*
G01*
X14340000Y-12030000D02*
X14370000Y-12030000D01*
G75*
G02*
X14385000Y-12045000I0J-15000D01*
G01*
X14385000Y-12210000D01*
G75*
G02*
X14370000Y-12225000I-15000J0D01*
G01*
X14340000Y-12225000D01*
G75*
G02*
X14325000Y-12210000I0J15000D01*
G01*
X14325000Y-12045000D01*
G75*
G02*
X14340000Y-12030000I15000J0D01*
G01*
G37*
G36*
G01*
X14467000Y-12030000D02*
X14497000Y-12030000D01*
G75*
G02*
X14512000Y-12045000I0J-15000D01*
G01*
X14512000Y-12210000D01*
G75*
G02*
X14497000Y-12225000I-15000J0D01*
G01*
X14467000Y-12225000D01*
G75*
G02*
X14452000Y-12210000I0J15000D01*
G01*
X14452000Y-12045000D01*
G75*
G02*
X14467000Y-12030000I15000J0D01*
G01*
G37*
G36*
G01*
X14594000Y-12030000D02*
X14624000Y-12030000D01*
G75*
G02*
X14639000Y-12045000I0J-15000D01*
G01*
X14639000Y-12210000D01*
G75*
G02*
X14624000Y-12225000I-15000J0D01*
G01*
X14594000Y-12225000D01*
G75*
G02*
X14579000Y-12210000I0J15000D01*
G01*
X14579000Y-12045000D01*
G75*
G02*
X14594000Y-12030000I15000J0D01*
G01*
G37*
G36*
G01*
X14721000Y-12030000D02*
X14751000Y-12030000D01*
G75*
G02*
X14766000Y-12045000I0J-15000D01*
G01*
X14766000Y-12210000D01*
G75*
G02*
X14751000Y-12225000I-15000J0D01*
G01*
X14721000Y-12225000D01*
G75*
G02*
X14706000Y-12210000I0J15000D01*
G01*
X14706000Y-12045000D01*
G75*
G02*
X14721000Y-12030000I15000J0D01*
G01*
G37*
G36*
G01*
X14721000Y-11535000D02*
X14751000Y-11535000D01*
G75*
G02*
X14766000Y-11550000I0J-15000D01*
G01*
X14766000Y-11715000D01*
G75*
G02*
X14751000Y-11730000I-15000J0D01*
G01*
X14721000Y-11730000D01*
G75*
G02*
X14706000Y-11715000I0J15000D01*
G01*
X14706000Y-11550000D01*
G75*
G02*
X14721000Y-11535000I15000J0D01*
G01*
G37*
G36*
G01*
X14594000Y-11535000D02*
X14624000Y-11535000D01*
G75*
G02*
X14639000Y-11550000I0J-15000D01*
G01*
X14639000Y-11715000D01*
G75*
G02*
X14624000Y-11730000I-15000J0D01*
G01*
X14594000Y-11730000D01*
G75*
G02*
X14579000Y-11715000I0J15000D01*
G01*
X14579000Y-11550000D01*
G75*
G02*
X14594000Y-11535000I15000J0D01*
G01*
G37*
G36*
G01*
X14467000Y-11535000D02*
X14497000Y-11535000D01*
G75*
G02*
X14512000Y-11550000I0J-15000D01*
G01*
X14512000Y-11715000D01*
G75*
G02*
X14497000Y-11730000I-15000J0D01*
G01*
X14467000Y-11730000D01*
G75*
G02*
X14452000Y-11715000I0J15000D01*
G01*
X14452000Y-11550000D01*
G75*
G02*
X14467000Y-11535000I15000J0D01*
G01*
G37*
G36*
G01*
X14340000Y-11535000D02*
X14370000Y-11535000D01*
G75*
G02*
X14385000Y-11550000I0J-15000D01*
G01*
X14385000Y-11715000D01*
G75*
G02*
X14370000Y-11730000I-15000J0D01*
G01*
X14340000Y-11730000D01*
G75*
G02*
X14325000Y-11715000I0J15000D01*
G01*
X14325000Y-11550000D01*
G75*
G02*
X14340000Y-11535000I15000J0D01*
G01*
G37*
G36*
G01*
X14213000Y-11535000D02*
X14243000Y-11535000D01*
G75*
G02*
X14258000Y-11550000I0J-15000D01*
G01*
X14258000Y-11715000D01*
G75*
G02*
X14243000Y-11730000I-15000J0D01*
G01*
X14213000Y-11730000D01*
G75*
G02*
X14198000Y-11715000I0J15000D01*
G01*
X14198000Y-11550000D01*
G75*
G02*
X14213000Y-11535000I15000J0D01*
G01*
G37*
G36*
G01*
X14086000Y-11535000D02*
X14116000Y-11535000D01*
G75*
G02*
X14131000Y-11550000I0J-15000D01*
G01*
X14131000Y-11715000D01*
G75*
G02*
X14116000Y-11730000I-15000J0D01*
G01*
X14086000Y-11730000D01*
G75*
G02*
X14071000Y-11715000I0J15000D01*
G01*
X14071000Y-11550000D01*
G75*
G02*
X14086000Y-11535000I15000J0D01*
G01*
G37*
G36*
G01*
X13959000Y-11535000D02*
X13989000Y-11535000D01*
G75*
G02*
X14004000Y-11550000I0J-15000D01*
G01*
X14004000Y-11715000D01*
G75*
G02*
X13989000Y-11730000I-15000J0D01*
G01*
X13959000Y-11730000D01*
G75*
G02*
X13944000Y-11715000I0J15000D01*
G01*
X13944000Y-11550000D01*
G75*
G02*
X13959000Y-11535000I15000J0D01*
G01*
G37*
G36*
G01*
X10700000Y-10140000D02*
X10790000Y-10140000D01*
G75*
G02*
X10815000Y-10165000I0J-25000D01*
G01*
X10815000Y-10230000D01*
G75*
G02*
X10790000Y-10255000I-25000J0D01*
G01*
X10700000Y-10255000D01*
G75*
G02*
X10675000Y-10230000I0J25000D01*
G01*
X10675000Y-10165000D01*
G75*
G02*
X10700000Y-10140000I25000J0D01*
G01*
G37*
G36*
G01*
X10700000Y-9935000D02*
X10790000Y-9935000D01*
G75*
G02*
X10815000Y-9960000I0J-25000D01*
G01*
X10815000Y-10025000D01*
G75*
G02*
X10790000Y-10050000I-25000J0D01*
G01*
X10700000Y-10050000D01*
G75*
G02*
X10675000Y-10025000I0J25000D01*
G01*
X10675000Y-9960000D01*
G75*
G02*
X10700000Y-9935000I25000J0D01*
G01*
G37*
G36*
G01*
X10595000Y-10425000D02*
X10595000Y-10515000D01*
G75*
G02*
X10570000Y-10540000I-25000J0D01*
G01*
X10505000Y-10540000D01*
G75*
G02*
X10480000Y-10515000I0J25000D01*
G01*
X10480000Y-10425000D01*
G75*
G02*
X10505000Y-10400000I25000J0D01*
G01*
X10570000Y-10400000D01*
G75*
G02*
X10595000Y-10425000I0J-25000D01*
G01*
G37*
G36*
G01*
X10800000Y-10425000D02*
X10800000Y-10515000D01*
G75*
G02*
X10775000Y-10540000I-25000J0D01*
G01*
X10710000Y-10540000D01*
G75*
G02*
X10685000Y-10515000I0J25000D01*
G01*
X10685000Y-10425000D01*
G75*
G02*
X10710000Y-10400000I25000J0D01*
G01*
X10775000Y-10400000D01*
G75*
G02*
X10800000Y-10425000I0J-25000D01*
G01*
G37*
G36*
G01*
X10995000Y-8722500D02*
X11085000Y-8722500D01*
G75*
G02*
X11110000Y-8747500I0J-25000D01*
G01*
X11110000Y-8812500D01*
G75*
G02*
X11085000Y-8837500I-25000J0D01*
G01*
X10995000Y-8837500D01*
G75*
G02*
X10970000Y-8812500I0J25000D01*
G01*
X10970000Y-8747500D01*
G75*
G02*
X10995000Y-8722500I25000J0D01*
G01*
G37*
G36*
G01*
X10995000Y-8927500D02*
X11085000Y-8927500D01*
G75*
G02*
X11110000Y-8952500I0J-25000D01*
G01*
X11110000Y-9017500D01*
G75*
G02*
X11085000Y-9042500I-25000J0D01*
G01*
X10995000Y-9042500D01*
G75*
G02*
X10970000Y-9017500I0J25000D01*
G01*
X10970000Y-8952500D01*
G75*
G02*
X10995000Y-8927500I25000J0D01*
G01*
G37*
G36*
G01*
X14670100Y-11303400D02*
X14670100Y-11393400D01*
G75*
G02*
X14645100Y-11418400I-25000J0D01*
G01*
X14580100Y-11418400D01*
G75*
G02*
X14555100Y-11393400I0J25000D01*
G01*
X14555100Y-11303400D01*
G75*
G02*
X14580100Y-11278400I25000J0D01*
G01*
X14645100Y-11278400D01*
G75*
G02*
X14670100Y-11303400I0J-25000D01*
G01*
G37*
G36*
G01*
X14875100Y-11303400D02*
X14875100Y-11393400D01*
G75*
G02*
X14850100Y-11418400I-25000J0D01*
G01*
X14785100Y-11418400D01*
G75*
G02*
X14760100Y-11393400I0J25000D01*
G01*
X14760100Y-11303400D01*
G75*
G02*
X14785100Y-11278400I25000J0D01*
G01*
X14850100Y-11278400D01*
G75*
G02*
X14875100Y-11303400I0J-25000D01*
G01*
G37*
G36*
G01*
X14670100Y-11049400D02*
X14670100Y-11139400D01*
G75*
G02*
X14645100Y-11164400I-25000J0D01*
G01*
X14580100Y-11164400D01*
G75*
G02*
X14555100Y-11139400I0J25000D01*
G01*
X14555100Y-11049400D01*
G75*
G02*
X14580100Y-11024400I25000J0D01*
G01*
X14645100Y-11024400D01*
G75*
G02*
X14670100Y-11049400I0J-25000D01*
G01*
G37*
G36*
G01*
X14875100Y-11049400D02*
X14875100Y-11139400D01*
G75*
G02*
X14850100Y-11164400I-25000J0D01*
G01*
X14785100Y-11164400D01*
G75*
G02*
X14760100Y-11139400I0J25000D01*
G01*
X14760100Y-11049400D01*
G75*
G02*
X14785100Y-11024400I25000J0D01*
G01*
X14850100Y-11024400D01*
G75*
G02*
X14875100Y-11049400I0J-25000D01*
G01*
G37*
G36*
G01*
X14760100Y-10885400D02*
X14760100Y-10795400D01*
G75*
G02*
X14785100Y-10770400I25000J0D01*
G01*
X14850100Y-10770400D01*
G75*
G02*
X14875100Y-10795400I0J-25000D01*
G01*
X14875100Y-10885400D01*
G75*
G02*
X14850100Y-10910400I-25000J0D01*
G01*
X14785100Y-10910400D01*
G75*
G02*
X14760100Y-10885400I0J25000D01*
G01*
G37*
G36*
G01*
X14555100Y-10885400D02*
X14555100Y-10795400D01*
G75*
G02*
X14580100Y-10770400I25000J0D01*
G01*
X14645100Y-10770400D01*
G75*
G02*
X14670100Y-10795400I0J-25000D01*
G01*
X14670100Y-10885400D01*
G75*
G02*
X14645100Y-10910400I-25000J0D01*
G01*
X14580100Y-10910400D01*
G75*
G02*
X14555100Y-10885400I0J25000D01*
G01*
G37*
D27*
X5981075Y-10431075D03*
X6097500Y-10150000D03*
X5981075Y-9868925D03*
X5700000Y-9752500D03*
X5418925Y-9868925D03*
X5302500Y-10150000D03*
X5418925Y-10431075D03*
X5700000Y-10547500D03*
D29*
X5700000Y-10150000D03*
D27*
X5418925Y-7918925D03*
X5302500Y-8200000D03*
X5418925Y-8481075D03*
X5700000Y-8597500D03*
X5981075Y-8481075D03*
X6097500Y-8200000D03*
X5981075Y-7918925D03*
X5700000Y-7802500D03*
D29*
X5700000Y-8200000D03*
D27*
X5418925Y-6018925D03*
X5302500Y-6300000D03*
X5418925Y-6581075D03*
X5700000Y-6697500D03*
X5981075Y-6581075D03*
X6097500Y-6300000D03*
X5981075Y-6018925D03*
X5700000Y-5902500D03*
D28*
X5700000Y-6300000D03*
D30*
X10415000Y-8090000D03*
X10965000Y-8090000D03*
G36*
G01*
X10160000Y-8205000D02*
X10160000Y-8295000D01*
G75*
G02*
X10135000Y-8320000I-25000J0D01*
G01*
X10070000Y-8320000D01*
G75*
G02*
X10045000Y-8295000I0J25000D01*
G01*
X10045000Y-8205000D01*
G75*
G02*
X10070000Y-8180000I25000J0D01*
G01*
X10135000Y-8180000D01*
G75*
G02*
X10160000Y-8205000I0J-25000D01*
G01*
G37*
G36*
G01*
X9955000Y-8205000D02*
X9955000Y-8295000D01*
G75*
G02*
X9930000Y-8320000I-25000J0D01*
G01*
X9865000Y-8320000D01*
G75*
G02*
X9840000Y-8295000I0J25000D01*
G01*
X9840000Y-8205000D01*
G75*
G02*
X9865000Y-8180000I25000J0D01*
G01*
X9930000Y-8180000D01*
G75*
G02*
X9955000Y-8205000I0J-25000D01*
G01*
G37*
G36*
G01*
X10065000Y-7690000D02*
X10065000Y-7875000D01*
G75*
G02*
X10040000Y-7900000I-25000J0D01*
G01*
X9865000Y-7900000D01*
G75*
G02*
X9840000Y-7875000I0J25000D01*
G01*
X9840000Y-7690000D01*
G75*
G02*
X9865000Y-7665000I25000J0D01*
G01*
X10040000Y-7665000D01*
G75*
G02*
X10065000Y-7690000I0J-25000D01*
G01*
G37*
G36*
G01*
X10575000Y-7690000D02*
X10575000Y-7875000D01*
G75*
G02*
X10550000Y-7900000I-25000J0D01*
G01*
X10375000Y-7900000D01*
G75*
G02*
X10350000Y-7875000I0J25000D01*
G01*
X10350000Y-7690000D01*
G75*
G02*
X10375000Y-7665000I25000J0D01*
G01*
X10550000Y-7665000D01*
G75*
G02*
X10575000Y-7690000I0J-25000D01*
G01*
G37*
D16*
X8775208Y-8340000D03*
D17*
X8275208Y-8340000D03*
G36*
G01*
X10995000Y-8280000D02*
X11085000Y-8280000D01*
G75*
G02*
X11110000Y-8305000I0J-25000D01*
G01*
X11110000Y-8370000D01*
G75*
G02*
X11085000Y-8395000I-25000J0D01*
G01*
X10995000Y-8395000D01*
G75*
G02*
X10970000Y-8370000I0J25000D01*
G01*
X10970000Y-8305000D01*
G75*
G02*
X10995000Y-8280000I25000J0D01*
G01*
G37*
G36*
G01*
X10995000Y-8485000D02*
X11085000Y-8485000D01*
G75*
G02*
X11110000Y-8510000I0J-25000D01*
G01*
X11110000Y-8575000D01*
G75*
G02*
X11085000Y-8600000I-25000J0D01*
G01*
X10995000Y-8600000D01*
G75*
G02*
X10970000Y-8575000I0J25000D01*
G01*
X10970000Y-8510000D01*
G75*
G02*
X10995000Y-8485000I25000J0D01*
G01*
G37*
G36*
G01*
X15523900Y-11115000D02*
X15523900Y-11025000D01*
G75*
G02*
X15548900Y-11000000I25000J0D01*
G01*
X15613900Y-11000000D01*
G75*
G02*
X15638900Y-11025000I0J-25000D01*
G01*
X15638900Y-11115000D01*
G75*
G02*
X15613900Y-11140000I-25000J0D01*
G01*
X15548900Y-11140000D01*
G75*
G02*
X15523900Y-11115000I0J25000D01*
G01*
G37*
G36*
G01*
X15318900Y-11115000D02*
X15318900Y-11025000D01*
G75*
G02*
X15343900Y-11000000I25000J0D01*
G01*
X15408900Y-11000000D01*
G75*
G02*
X15433900Y-11025000I0J-25000D01*
G01*
X15433900Y-11115000D01*
G75*
G02*
X15408900Y-11140000I-25000J0D01*
G01*
X15343900Y-11140000D01*
G75*
G02*
X15318900Y-11115000I0J25000D01*
G01*
G37*
G36*
G01*
X20905000Y-6787500D02*
X20815000Y-6787500D01*
G75*
G02*
X20790000Y-6762500I0J25000D01*
G01*
X20790000Y-6697500D01*
G75*
G02*
X20815000Y-6672500I25000J0D01*
G01*
X20905000Y-6672500D01*
G75*
G02*
X20930000Y-6697500I0J-25000D01*
G01*
X20930000Y-6762500D01*
G75*
G02*
X20905000Y-6787500I-25000J0D01*
G01*
G37*
G36*
G01*
X20905000Y-6992500D02*
X20815000Y-6992500D01*
G75*
G02*
X20790000Y-6967500I0J25000D01*
G01*
X20790000Y-6902500D01*
G75*
G02*
X20815000Y-6877500I25000J0D01*
G01*
X20905000Y-6877500D01*
G75*
G02*
X20930000Y-6902500I0J-25000D01*
G01*
X20930000Y-6967500D01*
G75*
G02*
X20905000Y-6992500I-25000J0D01*
G01*
G37*
G36*
G01*
X20415000Y-5870000D02*
X20505000Y-5870000D01*
G75*
G02*
X20530000Y-5895000I0J-25000D01*
G01*
X20530000Y-5960000D01*
G75*
G02*
X20505000Y-5985000I-25000J0D01*
G01*
X20415000Y-5985000D01*
G75*
G02*
X20390000Y-5960000I0J25000D01*
G01*
X20390000Y-5895000D01*
G75*
G02*
X20415000Y-5870000I25000J0D01*
G01*
G37*
G36*
G01*
X20415000Y-6075000D02*
X20505000Y-6075000D01*
G75*
G02*
X20530000Y-6100000I0J-25000D01*
G01*
X20530000Y-6165000D01*
G75*
G02*
X20505000Y-6190000I-25000J0D01*
G01*
X20415000Y-6190000D01*
G75*
G02*
X20390000Y-6165000I0J25000D01*
G01*
X20390000Y-6100000D01*
G75*
G02*
X20415000Y-6075000I25000J0D01*
G01*
G37*
G36*
G01*
X20552500Y-6542500D02*
X20367500Y-6542500D01*
G75*
G02*
X20342500Y-6517500I0J25000D01*
G01*
X20342500Y-6342500D01*
G75*
G02*
X20367500Y-6317500I25000J0D01*
G01*
X20552500Y-6317500D01*
G75*
G02*
X20577500Y-6342500I0J-25000D01*
G01*
X20577500Y-6517500D01*
G75*
G02*
X20552500Y-6542500I-25000J0D01*
G01*
G37*
G36*
G01*
X20552500Y-7052500D02*
X20367500Y-7052500D01*
G75*
G02*
X20342500Y-7027500I0J25000D01*
G01*
X20342500Y-6852500D01*
G75*
G02*
X20367500Y-6827500I25000J0D01*
G01*
X20552500Y-6827500D01*
G75*
G02*
X20577500Y-6852500I0J-25000D01*
G01*
X20577500Y-7027500D01*
G75*
G02*
X20552500Y-7052500I-25000J0D01*
G01*
G37*
G36*
G01*
X20767500Y-5807500D02*
X20952500Y-5807500D01*
G75*
G02*
X20977500Y-5832500I0J-25000D01*
G01*
X20977500Y-6007500D01*
G75*
G02*
X20952500Y-6032500I-25000J0D01*
G01*
X20767500Y-6032500D01*
G75*
G02*
X20742500Y-6007500I0J25000D01*
G01*
X20742500Y-5832500D01*
G75*
G02*
X20767500Y-5807500I25000J0D01*
G01*
G37*
G36*
G01*
X20767500Y-6317500D02*
X20952500Y-6317500D01*
G75*
G02*
X20977500Y-6342500I0J-25000D01*
G01*
X20977500Y-6517500D01*
G75*
G02*
X20952500Y-6542500I-25000J0D01*
G01*
X20767500Y-6542500D01*
G75*
G02*
X20742500Y-6517500I0J25000D01*
G01*
X20742500Y-6342500D01*
G75*
G02*
X20767500Y-6317500I25000J0D01*
G01*
G37*
D30*
X21335000Y-5930000D03*
X21885000Y-5930000D03*
D31*
X18660000Y-6430000D03*
D32*
X19955400Y-6176000D03*
X19955400Y-6430000D03*
X19955400Y-6684000D03*
G36*
G01*
X16530000Y-12070000D02*
X16530000Y-12160000D01*
G75*
G02*
X16505000Y-12185000I-25000J0D01*
G01*
X16440000Y-12185000D01*
G75*
G02*
X16415000Y-12160000I0J25000D01*
G01*
X16415000Y-12070000D01*
G75*
G02*
X16440000Y-12045000I25000J0D01*
G01*
X16505000Y-12045000D01*
G75*
G02*
X16530000Y-12070000I0J-25000D01*
G01*
G37*
G36*
G01*
X16325000Y-12070000D02*
X16325000Y-12160000D01*
G75*
G02*
X16300000Y-12185000I-25000J0D01*
G01*
X16235000Y-12185000D01*
G75*
G02*
X16210000Y-12160000I0J25000D01*
G01*
X16210000Y-12070000D01*
G75*
G02*
X16235000Y-12045000I25000J0D01*
G01*
X16300000Y-12045000D01*
G75*
G02*
X16325000Y-12070000I0J-25000D01*
G01*
G37*
D33*
X16790000Y-8795000D03*
D34*
X16790000Y-9049000D03*
G36*
G01*
X17185000Y-9532500D02*
X17095000Y-9532500D01*
G75*
G02*
X17070000Y-9507500I0J25000D01*
G01*
X17070000Y-9442500D01*
G75*
G02*
X17095000Y-9417500I25000J0D01*
G01*
X17185000Y-9417500D01*
G75*
G02*
X17210000Y-9442500I0J-25000D01*
G01*
X17210000Y-9507500D01*
G75*
G02*
X17185000Y-9532500I-25000J0D01*
G01*
G37*
G36*
G01*
X17185000Y-9327500D02*
X17095000Y-9327500D01*
G75*
G02*
X17070000Y-9302500I0J25000D01*
G01*
X17070000Y-9237500D01*
G75*
G02*
X17095000Y-9212500I25000J0D01*
G01*
X17185000Y-9212500D01*
G75*
G02*
X17210000Y-9237500I0J-25000D01*
G01*
X17210000Y-9302500D01*
G75*
G02*
X17185000Y-9327500I-25000J0D01*
G01*
G37*
G36*
G01*
X16550000Y-8800000D02*
X16550000Y-8890000D01*
G75*
G02*
X16525000Y-8915000I-25000J0D01*
G01*
X16460000Y-8915000D01*
G75*
G02*
X16435000Y-8890000I0J25000D01*
G01*
X16435000Y-8800000D01*
G75*
G02*
X16460000Y-8775000I25000J0D01*
G01*
X16525000Y-8775000D01*
G75*
G02*
X16550000Y-8800000I0J-25000D01*
G01*
G37*
G36*
G01*
X16345000Y-8800000D02*
X16345000Y-8890000D01*
G75*
G02*
X16320000Y-8915000I-25000J0D01*
G01*
X16255000Y-8915000D01*
G75*
G02*
X16230000Y-8890000I0J25000D01*
G01*
X16230000Y-8800000D01*
G75*
G02*
X16255000Y-8775000I25000J0D01*
G01*
X16320000Y-8775000D01*
G75*
G02*
X16345000Y-8800000I0J-25000D01*
G01*
G37*
D35*
X15855000Y-12115000D03*
D36*
X15093000Y-8813000D03*
X15855000Y-11861000D03*
X15093000Y-9067000D03*
X15855000Y-11607000D03*
X15093000Y-9321000D03*
X15855000Y-11353000D03*
X15093000Y-9575000D03*
X15855000Y-11099000D03*
X15093000Y-9829000D03*
X15855000Y-10845000D03*
X15093000Y-10083000D03*
X15855000Y-10591000D03*
X15093000Y-10337000D03*
X15855000Y-10337000D03*
X15093000Y-10591000D03*
X15855000Y-10083000D03*
X15093000Y-10845000D03*
X15855000Y-9829000D03*
X15093000Y-11099000D03*
X15855000Y-9575000D03*
X15093000Y-11353000D03*
X15855000Y-9321000D03*
X15093000Y-11607000D03*
X15855000Y-9067000D03*
X15093000Y-11861000D03*
X15855000Y-8813000D03*
X15093000Y-12115000D03*
G36*
G01*
X16097500Y-9120000D02*
X16097500Y-9030000D01*
G75*
G02*
X16122500Y-9005000I25000J0D01*
G01*
X16187500Y-9005000D01*
G75*
G02*
X16212500Y-9030000I0J-25000D01*
G01*
X16212500Y-9120000D01*
G75*
G02*
X16187500Y-9145000I-25000J0D01*
G01*
X16122500Y-9145000D01*
G75*
G02*
X16097500Y-9120000I0J25000D01*
G01*
G37*
G36*
G01*
X16302500Y-9120000D02*
X16302500Y-9030000D01*
G75*
G02*
X16327500Y-9005000I25000J0D01*
G01*
X16392500Y-9005000D01*
G75*
G02*
X16417500Y-9030000I0J-25000D01*
G01*
X16417500Y-9120000D01*
G75*
G02*
X16392500Y-9145000I-25000J0D01*
G01*
X16327500Y-9145000D01*
G75*
G02*
X16302500Y-9120000I0J25000D01*
G01*
G37*
G36*
G01*
X17417500Y-5807500D02*
X17602500Y-5807500D01*
G75*
G02*
X17627500Y-5832500I0J-25000D01*
G01*
X17627500Y-6007500D01*
G75*
G02*
X17602500Y-6032500I-25000J0D01*
G01*
X17417500Y-6032500D01*
G75*
G02*
X17392500Y-6007500I0J25000D01*
G01*
X17392500Y-5832500D01*
G75*
G02*
X17417500Y-5807500I25000J0D01*
G01*
G37*
G36*
G01*
X17417500Y-6317500D02*
X17602500Y-6317500D01*
G75*
G02*
X17627500Y-6342500I0J-25000D01*
G01*
X17627500Y-6517500D01*
G75*
G02*
X17602500Y-6542500I-25000J0D01*
G01*
X17417500Y-6542500D01*
G75*
G02*
X17392500Y-6517500I0J25000D01*
G01*
X17392500Y-6342500D01*
G75*
G02*
X17417500Y-6317500I25000J0D01*
G01*
G37*
G36*
G01*
X17202500Y-6537500D02*
X17017500Y-6537500D01*
G75*
G02*
X16992500Y-6512500I0J25000D01*
G01*
X16992500Y-6337500D01*
G75*
G02*
X17017500Y-6312500I25000J0D01*
G01*
X17202500Y-6312500D01*
G75*
G02*
X17227500Y-6337500I0J-25000D01*
G01*
X17227500Y-6512500D01*
G75*
G02*
X17202500Y-6537500I-25000J0D01*
G01*
G37*
G36*
G01*
X17202500Y-7047500D02*
X17017500Y-7047500D01*
G75*
G02*
X16992500Y-7022500I0J25000D01*
G01*
X16992500Y-6847500D01*
G75*
G02*
X17017500Y-6822500I25000J0D01*
G01*
X17202500Y-6822500D01*
G75*
G02*
X17227500Y-6847500I0J-25000D01*
G01*
X17227500Y-7022500D01*
G75*
G02*
X17202500Y-7047500I-25000J0D01*
G01*
G37*
D32*
X16605400Y-6684000D03*
X16605400Y-6430000D03*
X16605400Y-6176000D03*
D31*
X15310000Y-6430000D03*
D37*
X19935000Y-8735000D03*
X19635000Y-8640000D03*
X19635000Y-8830000D03*
G36*
G01*
X21832500Y-6165000D02*
X21957500Y-6165000D01*
G75*
G02*
X21982500Y-6190000I0J-25000D01*
G01*
X21982500Y-6282500D01*
G75*
G02*
X21957500Y-6307500I-25000J0D01*
G01*
X21832500Y-6307500D01*
G75*
G02*
X21807500Y-6282500I0J25000D01*
G01*
X21807500Y-6190000D01*
G75*
G02*
X21832500Y-6165000I25000J0D01*
G01*
G37*
G36*
G01*
X21832500Y-6462500D02*
X21957500Y-6462500D01*
G75*
G02*
X21982500Y-6487500I0J-25000D01*
G01*
X21982500Y-6580000D01*
G75*
G02*
X21957500Y-6605000I-25000J0D01*
G01*
X21832500Y-6605000D01*
G75*
G02*
X21807500Y-6580000I0J25000D01*
G01*
X21807500Y-6487500D01*
G75*
G02*
X21832500Y-6462500I25000J0D01*
G01*
G37*
D14*
X21192400Y-7266600D03*
X21192400Y-8816600D03*
D36*
X20608400Y-7597100D03*
X20862400Y-7724100D03*
X20608400Y-7851100D03*
X20862400Y-7978100D03*
X20608400Y-8105100D03*
X20862400Y-8232100D03*
X20608400Y-8359100D03*
X20862400Y-8486100D03*
D38*
X21497400Y-8613100D03*
X21497400Y-7470100D03*
D14*
X21192800Y-9352100D03*
X21192800Y-10902100D03*
D36*
X20608800Y-9682600D03*
X20862800Y-9809600D03*
X20608800Y-9936600D03*
X20862800Y-10063600D03*
X20608800Y-10190600D03*
X20862800Y-10317600D03*
X20608800Y-10444600D03*
X20862800Y-10571600D03*
D38*
X21497800Y-10698600D03*
X21497800Y-9555600D03*
G36*
G01*
X17095000Y-8786500D02*
X17185000Y-8786500D01*
G75*
G02*
X17210000Y-8811500I0J-25000D01*
G01*
X17210000Y-8876500D01*
G75*
G02*
X17185000Y-8901500I-25000J0D01*
G01*
X17095000Y-8901500D01*
G75*
G02*
X17070000Y-8876500I0J25000D01*
G01*
X17070000Y-8811500D01*
G75*
G02*
X17095000Y-8786500I25000J0D01*
G01*
G37*
G36*
G01*
X17095000Y-8991500D02*
X17185000Y-8991500D01*
G75*
G02*
X17210000Y-9016500I0J-25000D01*
G01*
X17210000Y-9081500D01*
G75*
G02*
X17185000Y-9106500I-25000J0D01*
G01*
X17095000Y-9106500D01*
G75*
G02*
X17070000Y-9081500I0J25000D01*
G01*
X17070000Y-9016500D01*
G75*
G02*
X17095000Y-8991500I25000J0D01*
G01*
G37*
G36*
G01*
X19050000Y-11375000D02*
X19050000Y-11465000D01*
G75*
G02*
X19025000Y-11490000I-25000J0D01*
G01*
X18960000Y-11490000D01*
G75*
G02*
X18935000Y-11465000I0J25000D01*
G01*
X18935000Y-11375000D01*
G75*
G02*
X18960000Y-11350000I25000J0D01*
G01*
X19025000Y-11350000D01*
G75*
G02*
X19050000Y-11375000I0J-25000D01*
G01*
G37*
G36*
G01*
X18845000Y-11375000D02*
X18845000Y-11465000D01*
G75*
G02*
X18820000Y-11490000I-25000J0D01*
G01*
X18755000Y-11490000D01*
G75*
G02*
X18730000Y-11465000I0J25000D01*
G01*
X18730000Y-11375000D01*
G75*
G02*
X18755000Y-11350000I25000J0D01*
G01*
X18820000Y-11350000D01*
G75*
G02*
X18845000Y-11375000I0J-25000D01*
G01*
G37*
G36*
G01*
X17762400Y-10392600D02*
X17762400Y-10482600D01*
G75*
G02*
X17737400Y-10507600I-25000J0D01*
G01*
X17672400Y-10507600D01*
G75*
G02*
X17647400Y-10482600I0J25000D01*
G01*
X17647400Y-10392600D01*
G75*
G02*
X17672400Y-10367600I25000J0D01*
G01*
X17737400Y-10367600D01*
G75*
G02*
X17762400Y-10392600I0J-25000D01*
G01*
G37*
G36*
G01*
X17557400Y-10392600D02*
X17557400Y-10482600D01*
G75*
G02*
X17532400Y-10507600I-25000J0D01*
G01*
X17467400Y-10507600D01*
G75*
G02*
X17442400Y-10482600I0J25000D01*
G01*
X17442400Y-10392600D01*
G75*
G02*
X17467400Y-10367600I25000J0D01*
G01*
X17532400Y-10367600D01*
G75*
G02*
X17557400Y-10392600I0J-25000D01*
G01*
G37*
G36*
G01*
X17657400Y-10101600D02*
X17657400Y-10011600D01*
G75*
G02*
X17682400Y-9986600I25000J0D01*
G01*
X17747400Y-9986600D01*
G75*
G02*
X17772400Y-10011600I0J-25000D01*
G01*
X17772400Y-10101600D01*
G75*
G02*
X17747400Y-10126600I-25000J0D01*
G01*
X17682400Y-10126600D01*
G75*
G02*
X17657400Y-10101600I0J25000D01*
G01*
G37*
G36*
G01*
X17862400Y-10101600D02*
X17862400Y-10011600D01*
G75*
G02*
X17887400Y-9986600I25000J0D01*
G01*
X17952400Y-9986600D01*
G75*
G02*
X17977400Y-10011600I0J-25000D01*
G01*
X17977400Y-10101600D01*
G75*
G02*
X17952400Y-10126600I-25000J0D01*
G01*
X17887400Y-10126600D01*
G75*
G02*
X17862400Y-10101600I0J25000D01*
G01*
G37*
G36*
G01*
X19250000Y-11575000D02*
X19250000Y-11665000D01*
G75*
G02*
X19225000Y-11690000I-25000J0D01*
G01*
X19160000Y-11690000D01*
G75*
G02*
X19135000Y-11665000I0J25000D01*
G01*
X19135000Y-11575000D01*
G75*
G02*
X19160000Y-11550000I25000J0D01*
G01*
X19225000Y-11550000D01*
G75*
G02*
X19250000Y-11575000I0J-25000D01*
G01*
G37*
G36*
G01*
X19045000Y-11575000D02*
X19045000Y-11665000D01*
G75*
G02*
X19020000Y-11690000I-25000J0D01*
G01*
X18955000Y-11690000D01*
G75*
G02*
X18930000Y-11665000I0J25000D01*
G01*
X18930000Y-11575000D01*
G75*
G02*
X18955000Y-11550000I25000J0D01*
G01*
X19020000Y-11550000D01*
G75*
G02*
X19045000Y-11575000I0J-25000D01*
G01*
G37*
G36*
G01*
X16185000Y-10730000D02*
X16095000Y-10730000D01*
G75*
G02*
X16070000Y-10705000I0J25000D01*
G01*
X16070000Y-10640000D01*
G75*
G02*
X16095000Y-10615000I25000J0D01*
G01*
X16185000Y-10615000D01*
G75*
G02*
X16210000Y-10640000I0J-25000D01*
G01*
X16210000Y-10705000D01*
G75*
G02*
X16185000Y-10730000I-25000J0D01*
G01*
G37*
G36*
G01*
X16185000Y-10525000D02*
X16095000Y-10525000D01*
G75*
G02*
X16070000Y-10500000I0J25000D01*
G01*
X16070000Y-10435000D01*
G75*
G02*
X16095000Y-10410000I25000J0D01*
G01*
X16185000Y-10410000D01*
G75*
G02*
X16210000Y-10435000I0J-25000D01*
G01*
X16210000Y-10500000D01*
G75*
G02*
X16185000Y-10525000I-25000J0D01*
G01*
G37*
G36*
G01*
X15435000Y-10630000D02*
X15345000Y-10630000D01*
G75*
G02*
X15320000Y-10605000I0J25000D01*
G01*
X15320000Y-10540000D01*
G75*
G02*
X15345000Y-10515000I25000J0D01*
G01*
X15435000Y-10515000D01*
G75*
G02*
X15460000Y-10540000I0J-25000D01*
G01*
X15460000Y-10605000D01*
G75*
G02*
X15435000Y-10630000I-25000J0D01*
G01*
G37*
G36*
G01*
X15435000Y-10425000D02*
X15345000Y-10425000D01*
G75*
G02*
X15320000Y-10400000I0J25000D01*
G01*
X15320000Y-10335000D01*
G75*
G02*
X15345000Y-10310000I25000J0D01*
G01*
X15435000Y-10310000D01*
G75*
G02*
X15460000Y-10335000I0J-25000D01*
G01*
X15460000Y-10400000D01*
G75*
G02*
X15435000Y-10425000I-25000J0D01*
G01*
G37*
G36*
G01*
X16339600Y-9877400D02*
X16339600Y-9787400D01*
G75*
G02*
X16364600Y-9762400I25000J0D01*
G01*
X16429600Y-9762400D01*
G75*
G02*
X16454600Y-9787400I0J-25000D01*
G01*
X16454600Y-9877400D01*
G75*
G02*
X16429600Y-9902400I-25000J0D01*
G01*
X16364600Y-9902400D01*
G75*
G02*
X16339600Y-9877400I0J25000D01*
G01*
G37*
G36*
G01*
X16544600Y-9877400D02*
X16544600Y-9787400D01*
G75*
G02*
X16569600Y-9762400I25000J0D01*
G01*
X16634600Y-9762400D01*
G75*
G02*
X16659600Y-9787400I0J-25000D01*
G01*
X16659600Y-9877400D01*
G75*
G02*
X16634600Y-9902400I-25000J0D01*
G01*
X16569600Y-9902400D01*
G75*
G02*
X16544600Y-9877400I0J25000D01*
G01*
G37*
G36*
G01*
X16532600Y-10231900D02*
X16532600Y-10321900D01*
G75*
G02*
X16507600Y-10346900I-25000J0D01*
G01*
X16442600Y-10346900D01*
G75*
G02*
X16417600Y-10321900I0J25000D01*
G01*
X16417600Y-10231900D01*
G75*
G02*
X16442600Y-10206900I25000J0D01*
G01*
X16507600Y-10206900D01*
G75*
G02*
X16532600Y-10231900I0J-25000D01*
G01*
G37*
G36*
G01*
X16327600Y-10231900D02*
X16327600Y-10321900D01*
G75*
G02*
X16302600Y-10346900I-25000J0D01*
G01*
X16237600Y-10346900D01*
G75*
G02*
X16212600Y-10321900I0J25000D01*
G01*
X16212600Y-10231900D01*
G75*
G02*
X16237600Y-10206900I25000J0D01*
G01*
X16302600Y-10206900D01*
G75*
G02*
X16327600Y-10231900I0J-25000D01*
G01*
G37*
G36*
G01*
X16075000Y-12330000D02*
X16075000Y-12420000D01*
G75*
G02*
X16050000Y-12445000I-25000J0D01*
G01*
X15985000Y-12445000D01*
G75*
G02*
X15960000Y-12420000I0J25000D01*
G01*
X15960000Y-12330000D01*
G75*
G02*
X15985000Y-12305000I25000J0D01*
G01*
X16050000Y-12305000D01*
G75*
G02*
X16075000Y-12330000I0J-25000D01*
G01*
G37*
G36*
G01*
X15870000Y-12330000D02*
X15870000Y-12420000D01*
G75*
G02*
X15845000Y-12445000I-25000J0D01*
G01*
X15780000Y-12445000D01*
G75*
G02*
X15755000Y-12420000I0J25000D01*
G01*
X15755000Y-12330000D01*
G75*
G02*
X15780000Y-12305000I25000J0D01*
G01*
X15845000Y-12305000D01*
G75*
G02*
X15870000Y-12330000I0J-25000D01*
G01*
G37*
G36*
G01*
X17065000Y-5870000D02*
X17155000Y-5870000D01*
G75*
G02*
X17180000Y-5895000I0J-25000D01*
G01*
X17180000Y-5960000D01*
G75*
G02*
X17155000Y-5985000I-25000J0D01*
G01*
X17065000Y-5985000D01*
G75*
G02*
X17040000Y-5960000I0J25000D01*
G01*
X17040000Y-5895000D01*
G75*
G02*
X17065000Y-5870000I25000J0D01*
G01*
G37*
G36*
G01*
X17065000Y-6075000D02*
X17155000Y-6075000D01*
G75*
G02*
X17180000Y-6100000I0J-25000D01*
G01*
X17180000Y-6165000D01*
G75*
G02*
X17155000Y-6190000I-25000J0D01*
G01*
X17065000Y-6190000D01*
G75*
G02*
X17040000Y-6165000I0J25000D01*
G01*
X17040000Y-6100000D01*
G75*
G02*
X17065000Y-6075000I25000J0D01*
G01*
G37*
G36*
G01*
X17555000Y-6987500D02*
X17465000Y-6987500D01*
G75*
G02*
X17440000Y-6962500I0J25000D01*
G01*
X17440000Y-6897500D01*
G75*
G02*
X17465000Y-6872500I25000J0D01*
G01*
X17555000Y-6872500D01*
G75*
G02*
X17580000Y-6897500I0J-25000D01*
G01*
X17580000Y-6962500D01*
G75*
G02*
X17555000Y-6987500I-25000J0D01*
G01*
G37*
G36*
G01*
X17555000Y-6782500D02*
X17465000Y-6782500D01*
G75*
G02*
X17440000Y-6757500I0J25000D01*
G01*
X17440000Y-6692500D01*
G75*
G02*
X17465000Y-6667500I25000J0D01*
G01*
X17555000Y-6667500D01*
G75*
G02*
X17580000Y-6692500I0J-25000D01*
G01*
X17580000Y-6757500D01*
G75*
G02*
X17555000Y-6782500I-25000J0D01*
G01*
G37*
D35*
X16790000Y-11266000D03*
D36*
X16790000Y-11520000D03*
X16790000Y-11774000D03*
X16790000Y-12028000D03*
X17563400Y-10691600D03*
X17563400Y-10203600D03*
X16499600Y-9578400D03*
X16499600Y-10066400D03*
D30*
X16567500Y-12640000D03*
X16017500Y-12640000D03*
X21335000Y-5680000D03*
X21885000Y-5680000D03*
D39*
X17820000Y-12060500D03*
X17820000Y-11933500D03*
X17820000Y-11806500D03*
X17820000Y-11679500D03*
X18360000Y-11679500D03*
X18360000Y-11806500D03*
X18360000Y-11933500D03*
X18360000Y-12060500D03*
G36*
G01*
X19130000Y-11465000D02*
X19130000Y-11375000D01*
G75*
G02*
X19155000Y-11350000I25000J0D01*
G01*
X19220000Y-11350000D01*
G75*
G02*
X19245000Y-11375000I0J-25000D01*
G01*
X19245000Y-11465000D01*
G75*
G02*
X19220000Y-11490000I-25000J0D01*
G01*
X19155000Y-11490000D01*
G75*
G02*
X19130000Y-11465000I0J25000D01*
G01*
G37*
G36*
G01*
X19335000Y-11465000D02*
X19335000Y-11375000D01*
G75*
G02*
X19360000Y-11350000I25000J0D01*
G01*
X19425000Y-11350000D01*
G75*
G02*
X19450000Y-11375000I0J-25000D01*
G01*
X19450000Y-11465000D01*
G75*
G02*
X19425000Y-11490000I-25000J0D01*
G01*
X19360000Y-11490000D01*
G75*
G02*
X19335000Y-11465000I0J25000D01*
G01*
G37*
G36*
G01*
X18400000Y-12225000D02*
X18400000Y-12315000D01*
G75*
G02*
X18375000Y-12340000I-25000J0D01*
G01*
X18310000Y-12340000D01*
G75*
G02*
X18285000Y-12315000I0J25000D01*
G01*
X18285000Y-12225000D01*
G75*
G02*
X18310000Y-12200000I25000J0D01*
G01*
X18375000Y-12200000D01*
G75*
G02*
X18400000Y-12225000I0J-25000D01*
G01*
G37*
G36*
G01*
X18195000Y-12225000D02*
X18195000Y-12315000D01*
G75*
G02*
X18170000Y-12340000I-25000J0D01*
G01*
X18105000Y-12340000D01*
G75*
G02*
X18080000Y-12315000I0J25000D01*
G01*
X18080000Y-12225000D01*
G75*
G02*
X18105000Y-12200000I25000J0D01*
G01*
X18170000Y-12200000D01*
G75*
G02*
X18195000Y-12225000I0J-25000D01*
G01*
G37*
G36*
G01*
X19895000Y-11710000D02*
X19985000Y-11710000D01*
G75*
G02*
X20010000Y-11735000I0J-25000D01*
G01*
X20010000Y-11800000D01*
G75*
G02*
X19985000Y-11825000I-25000J0D01*
G01*
X19895000Y-11825000D01*
G75*
G02*
X19870000Y-11800000I0J25000D01*
G01*
X19870000Y-11735000D01*
G75*
G02*
X19895000Y-11710000I25000J0D01*
G01*
G37*
G36*
G01*
X19895000Y-11915000D02*
X19985000Y-11915000D01*
G75*
G02*
X20010000Y-11940000I0J-25000D01*
G01*
X20010000Y-12005000D01*
G75*
G02*
X19985000Y-12030000I-25000J0D01*
G01*
X19895000Y-12030000D01*
G75*
G02*
X19870000Y-12005000I0J25000D01*
G01*
X19870000Y-11940000D01*
G75*
G02*
X19895000Y-11915000I25000J0D01*
G01*
G37*
G36*
G01*
X16422000Y-12415000D02*
X16422000Y-12325000D01*
G75*
G02*
X16447000Y-12300000I25000J0D01*
G01*
X16512000Y-12300000D01*
G75*
G02*
X16537000Y-12325000I0J-25000D01*
G01*
X16537000Y-12415000D01*
G75*
G02*
X16512000Y-12440000I-25000J0D01*
G01*
X16447000Y-12440000D01*
G75*
G02*
X16422000Y-12415000I0J25000D01*
G01*
G37*
G36*
G01*
X16627000Y-12415000D02*
X16627000Y-12325000D01*
G75*
G02*
X16652000Y-12300000I25000J0D01*
G01*
X16717000Y-12300000D01*
G75*
G02*
X16742000Y-12325000I0J-25000D01*
G01*
X16742000Y-12415000D01*
G75*
G02*
X16717000Y-12440000I-25000J0D01*
G01*
X16652000Y-12440000D01*
G75*
G02*
X16627000Y-12415000I0J25000D01*
G01*
G37*
G36*
G01*
X16212600Y-11909400D02*
X16212600Y-11819400D01*
G75*
G02*
X16237600Y-11794400I25000J0D01*
G01*
X16302600Y-11794400D01*
G75*
G02*
X16327600Y-11819400I0J-25000D01*
G01*
X16327600Y-11909400D01*
G75*
G02*
X16302600Y-11934400I-25000J0D01*
G01*
X16237600Y-11934400D01*
G75*
G02*
X16212600Y-11909400I0J25000D01*
G01*
G37*
G36*
G01*
X16417600Y-11909400D02*
X16417600Y-11819400D01*
G75*
G02*
X16442600Y-11794400I25000J0D01*
G01*
X16507600Y-11794400D01*
G75*
G02*
X16532600Y-11819400I0J-25000D01*
G01*
X16532600Y-11909400D01*
G75*
G02*
X16507600Y-11934400I-25000J0D01*
G01*
X16442600Y-11934400D01*
G75*
G02*
X16417600Y-11909400I0J25000D01*
G01*
G37*
G36*
G01*
X16212600Y-11655400D02*
X16212600Y-11565400D01*
G75*
G02*
X16237600Y-11540400I25000J0D01*
G01*
X16302600Y-11540400D01*
G75*
G02*
X16327600Y-11565400I0J-25000D01*
G01*
X16327600Y-11655400D01*
G75*
G02*
X16302600Y-11680400I-25000J0D01*
G01*
X16237600Y-11680400D01*
G75*
G02*
X16212600Y-11655400I0J25000D01*
G01*
G37*
G36*
G01*
X16417600Y-11655400D02*
X16417600Y-11565400D01*
G75*
G02*
X16442600Y-11540400I25000J0D01*
G01*
X16507600Y-11540400D01*
G75*
G02*
X16532600Y-11565400I0J-25000D01*
G01*
X16532600Y-11655400D01*
G75*
G02*
X16507600Y-11680400I-25000J0D01*
G01*
X16442600Y-11680400D01*
G75*
G02*
X16417600Y-11655400I0J25000D01*
G01*
G37*
D18*
X19690000Y-11220000D03*
X19690000Y-10320000D03*
X19640000Y-12020000D03*
X19640000Y-11720000D03*
X17640000Y-12320000D03*
X19690000Y-10620000D03*
X19690000Y-10920000D03*
X17640000Y-11420000D03*
M02*
