%TF.GenerationSoftware,KiCad,Pcbnew,5.1.5+dfsg1-2~bpo10+1*%
%TF.CreationDate,2020-10-07T12:31:16+00:00*%
%TF.ProjectId,MCB19,4d434231-392e-46b6-9963-61645f706362,rev?*%
%TF.SameCoordinates,Original*%
%TF.FileFunction,Other,User*%
%FSLAX45Y45*%
G04 Gerber Fmt 4.5, Leading zero omitted, Abs format (unit mm)*
G04 Created by KiCad (PCBNEW 5.1.5+dfsg1-2~bpo10+1) date 2020-10-07 12:31:16*
%MOMM*%
%LPD*%
G04 APERTURE LIST*
%ADD10C,0.100000*%
%ADD11C,0.050000*%
G04 APERTURE END LIST*
D10*
X22285000Y-5050000D02*
X5000000Y-5050000D01*
X22285000Y-13200000D02*
X22285000Y-5050000D01*
X5000000Y-13200000D02*
X22285000Y-13200000D01*
X5000000Y-5050000D02*
X5000000Y-13200000D01*
D11*
X9757500Y-11965000D02*
X9757500Y-12155000D01*
X9757500Y-12155000D02*
X10127500Y-12155000D01*
X10127500Y-12155000D02*
X10127500Y-11965000D01*
X10127500Y-11965000D02*
X9757500Y-11965000D01*
X9808000Y-12235000D02*
X9808000Y-12605000D01*
X9808000Y-12605000D02*
X10592000Y-12605000D01*
X10592000Y-12605000D02*
X10592000Y-12235000D01*
X10592000Y-12235000D02*
X9808000Y-12235000D01*
X16175000Y-10905000D02*
X16175000Y-11095000D01*
X16175000Y-11095000D02*
X16545000Y-11095000D01*
X16545000Y-11095000D02*
X16545000Y-10905000D01*
X16545000Y-10905000D02*
X16175000Y-10905000D01*
X16545000Y-11395000D02*
X16545000Y-11205000D01*
X16545000Y-11205000D02*
X16175000Y-11205000D01*
X16175000Y-11205000D02*
X16175000Y-11395000D01*
X16175000Y-11395000D02*
X16545000Y-11395000D01*
X10482500Y-11725000D02*
X10112500Y-11725000D01*
X10482500Y-11915000D02*
X10482500Y-11725000D01*
X10112500Y-11915000D02*
X10482500Y-11915000D01*
X10112500Y-11725000D02*
X10112500Y-11915000D01*
X9655000Y-11685000D02*
X9655000Y-11315000D01*
X9465000Y-11685000D02*
X9655000Y-11685000D01*
X9465000Y-11315000D02*
X9465000Y-11685000D01*
X9655000Y-11315000D02*
X9465000Y-11315000D01*
X10370000Y-9060000D02*
X10370000Y-8320000D01*
X10910000Y-9060000D02*
X10370000Y-9060000D01*
X10910000Y-8320000D02*
X10910000Y-9060000D01*
X10370000Y-8320000D02*
X10910000Y-8320000D01*
X19052500Y-9772500D02*
X18752500Y-9772500D01*
X19052500Y-9772500D02*
X19052500Y-10072500D01*
X18752500Y-10072500D02*
X18752500Y-9772500D01*
X18752500Y-10072500D02*
X19052500Y-10072500D01*
X8240000Y-10475000D02*
X8240000Y-11405000D01*
X8240000Y-11405000D02*
X8460000Y-11405000D01*
X8460000Y-11405000D02*
X8460000Y-10475000D01*
X8460000Y-10475000D02*
X8240000Y-10475000D01*
X11350000Y-7775000D02*
X14228000Y-7775000D01*
X14228000Y-7775000D02*
X14228000Y-9415000D01*
X14228000Y-9415000D02*
X11350000Y-9415000D01*
X11350000Y-9415000D02*
X11350000Y-7775000D01*
X15663900Y-11200000D02*
X15293900Y-11200000D01*
X15663900Y-11390000D02*
X15663900Y-11200000D01*
X15293900Y-11390000D02*
X15663900Y-11390000D01*
X15293900Y-11200000D02*
X15293900Y-11390000D01*
X10470000Y-11635000D02*
X10470000Y-11285000D01*
X10130000Y-11635000D02*
X10470000Y-11635000D01*
X10130000Y-11285000D02*
X10130000Y-11635000D01*
X10470000Y-11285000D02*
X10130000Y-11285000D01*
X10050000Y-11380000D02*
X9710000Y-11380000D01*
X9710000Y-11380000D02*
X9710000Y-11730000D01*
X9710000Y-11730000D02*
X10050000Y-11730000D01*
X10050000Y-11730000D02*
X10050000Y-11380000D01*
X8935000Y-12875000D02*
X8935000Y-12565000D01*
X6645000Y-12875000D02*
X8935000Y-12875000D01*
X8935000Y-11885000D02*
X6645000Y-11885000D01*
X8935000Y-12195000D02*
X8935000Y-11885000D01*
X6645000Y-12195000D02*
X6645000Y-11885000D01*
X6645000Y-12565000D02*
X6645000Y-12875000D01*
X6645000Y-12195000D02*
X6620000Y-12195000D01*
X6475000Y-12425000D02*
X6475000Y-12335000D01*
X6475000Y-12335000D02*
X6515000Y-12255000D01*
X6515000Y-12255000D02*
X6585000Y-12205000D01*
X6585000Y-12205000D02*
X6620000Y-12195000D01*
X6645000Y-12565000D02*
X6620000Y-12565000D01*
X6620000Y-12565000D02*
X6585000Y-12555000D01*
X6585000Y-12555000D02*
X6515000Y-12505000D01*
X6515000Y-12505000D02*
X6475000Y-12425000D01*
X8935000Y-12195000D02*
X8960000Y-12195000D01*
X8960000Y-12195000D02*
X8995000Y-12205000D01*
X8995000Y-12205000D02*
X9065000Y-12255000D01*
X9105000Y-12335000D02*
X9105000Y-12425000D01*
X9065000Y-12505000D02*
X8995000Y-12555000D01*
X8995000Y-12555000D02*
X8960000Y-12565000D01*
X8960000Y-12565000D02*
X8935000Y-12565000D01*
X9065000Y-12505000D02*
X9105000Y-12425000D01*
X9105000Y-12335000D02*
X9065000Y-12255000D01*
X8934000Y-6348000D02*
X8934000Y-6038000D01*
X6644000Y-6348000D02*
X8934000Y-6348000D01*
X8934000Y-5358000D02*
X6644000Y-5358000D01*
X8934000Y-5668000D02*
X8934000Y-5358000D01*
X6644000Y-5668000D02*
X6644000Y-5358000D01*
X6644000Y-6038000D02*
X6644000Y-6348000D01*
X6644000Y-5668000D02*
X6619000Y-5668000D01*
X6474000Y-5898000D02*
X6474000Y-5808000D01*
X6474000Y-5808000D02*
X6514000Y-5728000D01*
X6514000Y-5728000D02*
X6584000Y-5678000D01*
X6584000Y-5678000D02*
X6619000Y-5668000D01*
X6644000Y-6038000D02*
X6619000Y-6038000D01*
X6619000Y-6038000D02*
X6584000Y-6028000D01*
X6584000Y-6028000D02*
X6514000Y-5978000D01*
X6514000Y-5978000D02*
X6474000Y-5898000D01*
X8934000Y-5668000D02*
X8959000Y-5668000D01*
X8959000Y-5668000D02*
X8994000Y-5678000D01*
X8994000Y-5678000D02*
X9064000Y-5728000D01*
X9104000Y-5808000D02*
X9104000Y-5898000D01*
X9064000Y-5978000D02*
X8994000Y-6028000D01*
X8994000Y-6028000D02*
X8959000Y-6038000D01*
X8959000Y-6038000D02*
X8934000Y-6038000D01*
X9064000Y-5978000D02*
X9104000Y-5898000D01*
X9104000Y-5808000D02*
X9064000Y-5728000D01*
X8262000Y-9055500D02*
X8262000Y-9245500D01*
X8262000Y-9245500D02*
X8632000Y-9245500D01*
X8632000Y-9245500D02*
X8632000Y-9055500D01*
X8632000Y-9055500D02*
X8262000Y-9055500D01*
X8262000Y-9285000D02*
X8262000Y-9475000D01*
X8262000Y-9475000D02*
X8632000Y-9475000D01*
X8632000Y-9475000D02*
X8632000Y-9285000D01*
X8632000Y-9285000D02*
X8262000Y-9285000D01*
X8205000Y-8488000D02*
X8205000Y-8712000D01*
X8205000Y-8712000D02*
X8695000Y-8712000D01*
X8695000Y-8712000D02*
X8695000Y-8488000D01*
X8695000Y-8488000D02*
X8205000Y-8488000D01*
X8205000Y-8775000D02*
X8205000Y-8999000D01*
X8205000Y-8999000D02*
X8695000Y-8999000D01*
X8695000Y-8999000D02*
X8695000Y-8775000D01*
X8695000Y-8775000D02*
X8205000Y-8775000D01*
X11890000Y-10265000D02*
X11350000Y-10265000D01*
X11350000Y-10265000D02*
X11350000Y-9525000D01*
X11350000Y-9525000D02*
X11890000Y-9525000D01*
X11890000Y-9525000D02*
X11890000Y-10265000D01*
X12640000Y-9560000D02*
X11950000Y-9560000D01*
X11950000Y-9560000D02*
X11950000Y-10230000D01*
X11950000Y-10230000D02*
X12640000Y-10230000D01*
X12640000Y-10230000D02*
X12640000Y-9560000D01*
X18047900Y-10076600D02*
X19237900Y-10076600D01*
X18047900Y-11306600D02*
X19237900Y-11306600D01*
X19237900Y-11306600D02*
X19237900Y-10076600D01*
X18047900Y-11306600D02*
X18047900Y-10076600D01*
X15663900Y-10935400D02*
X15663900Y-10745400D01*
X15663900Y-10745400D02*
X15293900Y-10745400D01*
X15293900Y-10745400D02*
X15293900Y-10935400D01*
X15293900Y-10935400D02*
X15663900Y-10935400D01*
X13685000Y-12180000D02*
X13875000Y-12180000D01*
X13875000Y-12180000D02*
X13875000Y-11810000D01*
X13875000Y-11810000D02*
X13685000Y-11810000D01*
X13685000Y-11810000D02*
X13685000Y-12180000D01*
X11125000Y-10230000D02*
X11315000Y-10230000D01*
X11315000Y-10230000D02*
X11315000Y-9860000D01*
X11315000Y-9860000D02*
X11125000Y-9860000D01*
X11125000Y-9860000D02*
X11125000Y-10230000D01*
X11350000Y-5925000D02*
X14228000Y-5925000D01*
X14228000Y-5925000D02*
X14228000Y-7565000D01*
X14228000Y-7565000D02*
X11350000Y-7565000D01*
X11350000Y-7565000D02*
X11350000Y-5925000D01*
X13897000Y-11510000D02*
X14813000Y-11510000D01*
X14813000Y-11510000D02*
X14813000Y-12250000D01*
X14813000Y-12250000D02*
X13897000Y-12250000D01*
X13897000Y-12250000D02*
X13897000Y-11510000D01*
X10840000Y-9910000D02*
X10650000Y-9910000D01*
X10650000Y-9910000D02*
X10650000Y-10280000D01*
X10650000Y-10280000D02*
X10840000Y-10280000D01*
X10840000Y-10280000D02*
X10840000Y-9910000D01*
X10825000Y-10565000D02*
X10825000Y-10375000D01*
X10825000Y-10375000D02*
X10455000Y-10375000D01*
X10455000Y-10375000D02*
X10455000Y-10565000D01*
X10455000Y-10565000D02*
X10825000Y-10565000D01*
X11135000Y-9067500D02*
X11135000Y-8697500D01*
X10945000Y-9067500D02*
X11135000Y-9067500D01*
X10945000Y-8697500D02*
X10945000Y-9067500D01*
X11135000Y-8697500D02*
X10945000Y-8697500D01*
X14900100Y-11443400D02*
X14900100Y-11253400D01*
X14900100Y-11253400D02*
X14530100Y-11253400D01*
X14530100Y-11253400D02*
X14530100Y-11443400D01*
X14530100Y-11443400D02*
X14900100Y-11443400D01*
X14900100Y-11189400D02*
X14900100Y-10999400D01*
X14900100Y-10999400D02*
X14530100Y-10999400D01*
X14530100Y-10999400D02*
X14530100Y-11189400D01*
X14530100Y-11189400D02*
X14900100Y-11189400D01*
X14530100Y-10745400D02*
X14530100Y-10935400D01*
X14530100Y-10935400D02*
X14900100Y-10935400D01*
X14900100Y-10935400D02*
X14900100Y-10745400D01*
X14900100Y-10745400D02*
X14530100Y-10745400D01*
X11155000Y-7980000D02*
X10225000Y-7980000D01*
X10225000Y-7980000D02*
X10225000Y-8200000D01*
X10225000Y-8200000D02*
X11155000Y-8200000D01*
X11155000Y-8200000D02*
X11155000Y-7980000D01*
X9815000Y-8345000D02*
X10185000Y-8345000D01*
X9815000Y-8155000D02*
X9815000Y-8345000D01*
X10185000Y-8155000D02*
X9815000Y-8155000D01*
X10185000Y-8345000D02*
X10185000Y-8155000D01*
X10599500Y-7967500D02*
X10599500Y-7597500D01*
X10599500Y-7597500D02*
X9815500Y-7597500D01*
X9815500Y-7597500D02*
X9815500Y-7967500D01*
X9815500Y-7967500D02*
X10599500Y-7967500D01*
X11135000Y-8625000D02*
X11135000Y-8255000D01*
X10945000Y-8625000D02*
X11135000Y-8625000D01*
X10945000Y-8255000D02*
X10945000Y-8625000D01*
X11135000Y-8255000D02*
X10945000Y-8255000D01*
X15293900Y-10975000D02*
X15293900Y-11165000D01*
X15293900Y-11165000D02*
X15663900Y-11165000D01*
X15663900Y-11165000D02*
X15663900Y-10975000D01*
X15663900Y-10975000D02*
X15293900Y-10975000D01*
X20765000Y-7017500D02*
X20955000Y-7017500D01*
X20955000Y-7017500D02*
X20955000Y-6647500D01*
X20955000Y-6647500D02*
X20765000Y-6647500D01*
X20765000Y-6647500D02*
X20765000Y-7017500D01*
X20555000Y-6215000D02*
X20555000Y-5845000D01*
X20365000Y-6215000D02*
X20555000Y-6215000D01*
X20365000Y-5845000D02*
X20365000Y-6215000D01*
X20555000Y-5845000D02*
X20365000Y-5845000D01*
X20275000Y-7077000D02*
X20645000Y-7077000D01*
X20645000Y-7077000D02*
X20645000Y-6293000D01*
X20645000Y-6293000D02*
X20275000Y-6293000D01*
X20275000Y-6293000D02*
X20275000Y-7077000D01*
X21045000Y-6567000D02*
X21045000Y-5783000D01*
X20675000Y-6567000D02*
X21045000Y-6567000D01*
X20675000Y-5783000D02*
X20675000Y-6567000D01*
X21045000Y-5783000D02*
X20675000Y-5783000D01*
X21145000Y-5820000D02*
X21145000Y-6040000D01*
X22075000Y-5820000D02*
X21145000Y-5820000D01*
X22075000Y-6040000D02*
X22075000Y-5820000D01*
X21145000Y-6040000D02*
X22075000Y-6040000D01*
X17857400Y-6955000D02*
X17857400Y-5905000D01*
X19953400Y-6955000D02*
X17857400Y-6955000D01*
X19953400Y-5905000D02*
X19953400Y-6955000D01*
X17857400Y-5905000D02*
X19953400Y-5905000D01*
X16185000Y-12210000D02*
X16555000Y-12210000D01*
X16185000Y-12020000D02*
X16185000Y-12210000D01*
X16555000Y-12020000D02*
X16185000Y-12020000D01*
X16555000Y-12210000D02*
X16555000Y-12020000D01*
X17045000Y-9187500D02*
X17045000Y-9557500D01*
X17235000Y-9187500D02*
X17045000Y-9187500D01*
X17235000Y-9557500D02*
X17235000Y-9187500D01*
X17045000Y-9557500D02*
X17235000Y-9557500D01*
X16205000Y-8940000D02*
X16575000Y-8940000D01*
X16205000Y-8750000D02*
X16205000Y-8940000D01*
X16575000Y-8750000D02*
X16205000Y-8750000D01*
X16575000Y-8940000D02*
X16575000Y-8750000D01*
X16442500Y-8980000D02*
X16072500Y-8980000D01*
X16442500Y-9170000D02*
X16442500Y-8980000D01*
X16072500Y-9170000D02*
X16442500Y-9170000D01*
X16072500Y-8980000D02*
X16072500Y-9170000D01*
X17695000Y-6567000D02*
X17695000Y-5783000D01*
X17325000Y-6567000D02*
X17695000Y-6567000D01*
X17325000Y-5783000D02*
X17325000Y-6567000D01*
X17695000Y-5783000D02*
X17325000Y-5783000D01*
X16925000Y-7072000D02*
X17295000Y-7072000D01*
X17295000Y-7072000D02*
X17295000Y-6288000D01*
X17295000Y-6288000D02*
X16925000Y-6288000D01*
X16925000Y-6288000D02*
X16925000Y-7072000D01*
X14507400Y-5905000D02*
X16603400Y-5905000D01*
X16603400Y-5905000D02*
X16603400Y-6955000D01*
X16603400Y-6955000D02*
X14507400Y-6955000D01*
X14507400Y-6955000D02*
X14507400Y-5905000D01*
X19515000Y-8910000D02*
X20055000Y-8910000D01*
X20055000Y-8910000D02*
X20055000Y-8560000D01*
X20055000Y-8560000D02*
X19515000Y-8560000D01*
X19515000Y-8560000D02*
X19515000Y-8910000D01*
X22007000Y-6630000D02*
X22007000Y-6140000D01*
X21783000Y-6630000D02*
X22007000Y-6630000D01*
X21783000Y-6140000D02*
X21783000Y-6630000D01*
X22007000Y-6140000D02*
X21783000Y-6140000D01*
X17235000Y-9131500D02*
X17235000Y-8761500D01*
X17045000Y-9131500D02*
X17235000Y-9131500D01*
X17045000Y-8761500D02*
X17045000Y-9131500D01*
X17235000Y-8761500D02*
X17045000Y-8761500D01*
X18705000Y-11515000D02*
X19075000Y-11515000D01*
X18705000Y-11325000D02*
X18705000Y-11515000D01*
X19075000Y-11325000D02*
X18705000Y-11325000D01*
X19075000Y-11515000D02*
X19075000Y-11325000D01*
X17417400Y-10532600D02*
X17787400Y-10532600D01*
X17417400Y-10342600D02*
X17417400Y-10532600D01*
X17787400Y-10342600D02*
X17417400Y-10342600D01*
X17787400Y-10532600D02*
X17787400Y-10342600D01*
X18002400Y-9961600D02*
X17632400Y-9961600D01*
X18002400Y-10151600D02*
X18002400Y-9961600D01*
X17632400Y-10151600D02*
X18002400Y-10151600D01*
X17632400Y-9961600D02*
X17632400Y-10151600D01*
X18905000Y-11715000D02*
X19275000Y-11715000D01*
X18905000Y-11525000D02*
X18905000Y-11715000D01*
X19275000Y-11525000D02*
X18905000Y-11525000D01*
X19275000Y-11715000D02*
X19275000Y-11525000D01*
X16045000Y-10385000D02*
X16045000Y-10755000D01*
X16235000Y-10385000D02*
X16045000Y-10385000D01*
X16235000Y-10755000D02*
X16235000Y-10385000D01*
X16045000Y-10755000D02*
X16235000Y-10755000D01*
X15295000Y-10285000D02*
X15295000Y-10655000D01*
X15485000Y-10285000D02*
X15295000Y-10285000D01*
X15485000Y-10655000D02*
X15485000Y-10285000D01*
X15295000Y-10655000D02*
X15485000Y-10655000D01*
X16684600Y-9737400D02*
X16314600Y-9737400D01*
X16684600Y-9927400D02*
X16684600Y-9737400D01*
X16314600Y-9927400D02*
X16684600Y-9927400D01*
X16314600Y-9737400D02*
X16314600Y-9927400D01*
X16187600Y-10371900D02*
X16557600Y-10371900D01*
X16187600Y-10181900D02*
X16187600Y-10371900D01*
X16557600Y-10181900D02*
X16187600Y-10181900D01*
X16557600Y-10371900D02*
X16557600Y-10181900D01*
X15730000Y-12470000D02*
X16100000Y-12470000D01*
X15730000Y-12280000D02*
X15730000Y-12470000D01*
X16100000Y-12280000D02*
X15730000Y-12280000D01*
X16100000Y-12470000D02*
X16100000Y-12280000D01*
X17205000Y-6215000D02*
X17205000Y-5845000D01*
X17015000Y-6215000D02*
X17205000Y-6215000D01*
X17015000Y-5845000D02*
X17015000Y-6215000D01*
X17205000Y-5845000D02*
X17015000Y-5845000D01*
X17415000Y-6642500D02*
X17415000Y-7012500D01*
X17605000Y-6642500D02*
X17415000Y-6642500D01*
X17605000Y-7012500D02*
X17605000Y-6642500D01*
X17415000Y-7012500D02*
X17605000Y-7012500D01*
X16757500Y-12750000D02*
X16757500Y-12530000D01*
X15827500Y-12750000D02*
X16757500Y-12750000D01*
X15827500Y-12530000D02*
X15827500Y-12750000D01*
X16757500Y-12530000D02*
X15827500Y-12530000D01*
X21145000Y-5570000D02*
X21145000Y-5790000D01*
X22075000Y-5570000D02*
X21145000Y-5570000D01*
X22075000Y-5790000D02*
X22075000Y-5570000D01*
X21145000Y-5790000D02*
X22075000Y-5790000D01*
X17717000Y-11600000D02*
X18463000Y-11600000D01*
X17717000Y-12140000D02*
X18463000Y-12140000D01*
X18463000Y-12140000D02*
X18463000Y-11600000D01*
X17717000Y-12140000D02*
X17717000Y-11600000D01*
X19475000Y-11325000D02*
X19105000Y-11325000D01*
X19475000Y-11515000D02*
X19475000Y-11325000D01*
X19105000Y-11515000D02*
X19475000Y-11515000D01*
X19105000Y-11325000D02*
X19105000Y-11515000D01*
X18055000Y-12365000D02*
X18425000Y-12365000D01*
X18055000Y-12175000D02*
X18055000Y-12365000D01*
X18425000Y-12175000D02*
X18055000Y-12175000D01*
X18425000Y-12365000D02*
X18425000Y-12175000D01*
X20035000Y-12055000D02*
X20035000Y-11685000D01*
X19845000Y-12055000D02*
X20035000Y-12055000D01*
X19845000Y-11685000D02*
X19845000Y-12055000D01*
X20035000Y-11685000D02*
X19845000Y-11685000D01*
X16767000Y-12275000D02*
X16397000Y-12275000D01*
X16767000Y-12465000D02*
X16767000Y-12275000D01*
X16397000Y-12465000D02*
X16767000Y-12465000D01*
X16397000Y-12275000D02*
X16397000Y-12465000D01*
X16557600Y-11769400D02*
X16187600Y-11769400D01*
X16557600Y-11959400D02*
X16557600Y-11769400D01*
X16187600Y-11959400D02*
X16557600Y-11959400D01*
X16187600Y-11769400D02*
X16187600Y-11959400D01*
X16557600Y-11515400D02*
X16187600Y-11515400D01*
X16557600Y-11705400D02*
X16557600Y-11515400D01*
X16187600Y-11705400D02*
X16557600Y-11705400D01*
X16187600Y-11515400D02*
X16187600Y-11705400D01*
X19840000Y-11370000D02*
X19840000Y-11070000D01*
X19840000Y-11370000D02*
X19540000Y-11370000D01*
X19540000Y-11070000D02*
X19840000Y-11070000D01*
X19540000Y-11070000D02*
X19540000Y-11370000D01*
X19840000Y-10470000D02*
X19840000Y-10170000D01*
X19840000Y-10470000D02*
X19540000Y-10470000D01*
X19540000Y-10170000D02*
X19840000Y-10170000D01*
X19540000Y-10170000D02*
X19540000Y-10470000D01*
X19490000Y-12170000D02*
X19790000Y-12170000D01*
X19490000Y-12170000D02*
X19490000Y-11870000D01*
X19790000Y-11870000D02*
X19790000Y-12170000D01*
X19790000Y-11870000D02*
X19490000Y-11870000D01*
X19790000Y-11570000D02*
X19490000Y-11570000D01*
X19790000Y-11570000D02*
X19790000Y-11870000D01*
X19490000Y-11870000D02*
X19490000Y-11570000D01*
X19490000Y-11870000D02*
X19790000Y-11870000D01*
X17790000Y-12470000D02*
X17790000Y-12170000D01*
X17790000Y-12470000D02*
X17490000Y-12470000D01*
X17490000Y-12170000D02*
X17790000Y-12170000D01*
X17490000Y-12170000D02*
X17490000Y-12470000D01*
X19840000Y-10770000D02*
X19840000Y-10470000D01*
X19840000Y-10770000D02*
X19540000Y-10770000D01*
X19540000Y-10470000D02*
X19840000Y-10470000D01*
X19540000Y-10470000D02*
X19540000Y-10770000D01*
X19840000Y-11070000D02*
X19840000Y-10770000D01*
X19840000Y-11070000D02*
X19540000Y-11070000D01*
X19540000Y-10770000D02*
X19840000Y-10770000D01*
X19540000Y-10770000D02*
X19540000Y-11070000D01*
X17790000Y-11570000D02*
X17790000Y-11270000D01*
X17790000Y-11570000D02*
X17490000Y-11570000D01*
X17490000Y-11270000D02*
X17790000Y-11270000D01*
X17490000Y-11270000D02*
X17490000Y-11570000D01*
M02*
