%TF.GenerationSoftware,KiCad,Pcbnew,5.1.7+dfsg1-1~bpo10+1*%
%TF.CreationDate,2020-12-16T15:11:05+00:00*%
%TF.ProjectId,MCB19,4d434231-392e-46b6-9963-61645f706362,rev?*%
%TF.SameCoordinates,Original*%
%TF.FileFunction,Other,Fab,Top*%
%FSLAX45Y45*%
G04 Gerber Fmt 4.5, Leading zero omitted, Abs format (unit mm)*
G04 Created by KiCad (PCBNEW 5.1.7+dfsg1-1~bpo10+1) date 2020-12-16 15:11:05*
%MOMM*%
%LPD*%
G01*
G04 APERTURE LIST*
%TA.AperFunction,Profile*%
%ADD10C,0.100000*%
%TD*%
%ADD11C,0.120000*%
%ADD12C,0.100000*%
%ADD13C,0.150000*%
%ADD14C,0.080000*%
G04 APERTURE END LIST*
D10*
X22285000Y-5050000D02*
X5000000Y-5050000D01*
X22285000Y-13200000D02*
X22285000Y-5050000D01*
X5000000Y-13200000D02*
X22285000Y-13200000D01*
X5000000Y-5050000D02*
X5000000Y-13200000D01*
D11*
X9080000Y-10500000D02*
X9080000Y-11700000D01*
X7560000Y-10500000D02*
X9080000Y-10500000D01*
X7560000Y-11700000D02*
X7560000Y-10500000D01*
X9080000Y-11700000D02*
X7560000Y-11700000D01*
D12*
X13000000Y-8980000D02*
X12800000Y-8980000D01*
X13000000Y-8860000D02*
X13000000Y-8980000D01*
X12800000Y-8860000D02*
X13000000Y-8860000D01*
X12800000Y-8980000D02*
X12800000Y-8860000D01*
X13000000Y-8740000D02*
X12800000Y-8740000D01*
X13000000Y-8620000D02*
X13000000Y-8740000D01*
X12800000Y-8620000D02*
X13000000Y-8620000D01*
X12800000Y-8740000D02*
X12800000Y-8620000D01*
X13000000Y-7780000D02*
X12800000Y-7780000D01*
X13000000Y-7660000D02*
X13000000Y-7780000D01*
X12800000Y-7660000D02*
X13000000Y-7660000D01*
X12800000Y-7780000D02*
X12800000Y-7660000D01*
X13000000Y-8020000D02*
X12800000Y-8020000D01*
X13000000Y-7900000D02*
X13000000Y-8020000D01*
X12800000Y-7900000D02*
X13000000Y-7900000D01*
X12800000Y-8020000D02*
X12800000Y-7900000D01*
X6920000Y-10880000D02*
X6920000Y-11080000D01*
X6800000Y-10880000D02*
X6920000Y-10880000D01*
X6800000Y-11080000D02*
X6800000Y-10880000D01*
X6920000Y-11080000D02*
X6800000Y-11080000D01*
X12335000Y-8765000D02*
X12015000Y-8765000D01*
X12015000Y-8765000D02*
X12015000Y-8135000D01*
X12015000Y-8135000D02*
X12335000Y-8135000D01*
X12335000Y-8135000D02*
X12335000Y-8765000D01*
X14242500Y-12240000D02*
X14442500Y-12240000D01*
X14242500Y-12360000D02*
X14242500Y-12240000D01*
X14442500Y-12360000D02*
X14242500Y-12360000D01*
X14442500Y-12240000D02*
X14442500Y-12360000D01*
X12335000Y-6285000D02*
X12335000Y-6915000D01*
X12015000Y-6285000D02*
X12335000Y-6285000D01*
X12015000Y-6915000D02*
X12015000Y-6285000D01*
X12335000Y-6915000D02*
X12015000Y-6915000D01*
X6627500Y-10935000D02*
X6627500Y-10815000D01*
X6427500Y-10935000D02*
X6627500Y-10935000D01*
X6427500Y-10845000D02*
X6427500Y-10935000D01*
X6457500Y-10815000D02*
X6427500Y-10845000D01*
X6627500Y-10815000D02*
X6457500Y-10815000D01*
X14240000Y-12580000D02*
X14240000Y-12460000D01*
X14040000Y-12580000D02*
X14240000Y-12580000D01*
X14040000Y-12490000D02*
X14040000Y-12580000D01*
X14070000Y-12460000D02*
X14040000Y-12490000D01*
X14240000Y-12460000D02*
X14070000Y-12460000D01*
X13000000Y-8500000D02*
X12800000Y-8500000D01*
X13000000Y-8380000D02*
X13000000Y-8500000D01*
X12800000Y-8380000D02*
X13000000Y-8380000D01*
X12800000Y-8500000D02*
X12800000Y-8380000D01*
X13000000Y-8260000D02*
X12800000Y-8260000D01*
X13000000Y-8140000D02*
X13000000Y-8260000D01*
X12800000Y-8140000D02*
X13000000Y-8140000D01*
X12800000Y-8260000D02*
X12800000Y-8140000D01*
X8051059Y-9318750D02*
X8051059Y-9443750D01*
X7988559Y-9381250D02*
X8113559Y-9381250D01*
X9150208Y-9655000D02*
G75*
G03*
X9150208Y-9655000I-625000J0D01*
G01*
X8876250Y-6540851D02*
X8751250Y-6540851D01*
X8813750Y-6478351D02*
X8813750Y-6603351D01*
X9165000Y-7015000D02*
G75*
G03*
X9165000Y-7015000I-625000J0D01*
G01*
X7536250Y-6540851D02*
X7411250Y-6540851D01*
X7473750Y-6478351D02*
X7473750Y-6603351D01*
X7825000Y-7015000D02*
G75*
G03*
X7825000Y-7015000I-625000J0D01*
G01*
X13160000Y-6230000D02*
X13160000Y-6430000D01*
X13040000Y-6230000D02*
X13160000Y-6230000D01*
X13040000Y-6430000D02*
X13040000Y-6230000D01*
X13160000Y-6430000D02*
X13040000Y-6430000D01*
X12740000Y-6230000D02*
X12860000Y-6230000D01*
X12860000Y-6230000D02*
X12860000Y-6430000D01*
X12860000Y-6430000D02*
X12740000Y-6430000D01*
X12740000Y-6430000D02*
X12740000Y-6230000D01*
X12989000Y-7540500D02*
X12789000Y-7540500D01*
X12989000Y-7420500D02*
X12989000Y-7540500D01*
X12789000Y-7420500D02*
X12989000Y-7420500D01*
X12789000Y-7540500D02*
X12789000Y-7420500D01*
X12989000Y-7311000D02*
X12789000Y-7311000D01*
X12989000Y-7191000D02*
X12989000Y-7311000D01*
X12789000Y-7191000D02*
X12989000Y-7191000D01*
X12789000Y-7311000D02*
X12789000Y-7191000D01*
X13104000Y-6784000D02*
X12784000Y-6784000D01*
X13104000Y-6624000D02*
X13104000Y-6784000D01*
X12784000Y-6624000D02*
X13104000Y-6624000D01*
X12784000Y-6784000D02*
X12784000Y-6624000D01*
X13104000Y-7071000D02*
X12784000Y-7071000D01*
X13104000Y-6911000D02*
X13104000Y-7071000D01*
X12784000Y-6911000D02*
X13104000Y-6911000D01*
X12784000Y-7071000D02*
X12784000Y-6911000D01*
X12335000Y-8135000D02*
X12335000Y-8765000D01*
X12015000Y-8135000D02*
X12335000Y-8135000D01*
X12015000Y-8765000D02*
X12015000Y-8135000D01*
X12335000Y-8765000D02*
X12015000Y-8765000D01*
X12335000Y-6285000D02*
X12335000Y-6915000D01*
X12015000Y-6285000D02*
X12335000Y-6285000D01*
X12015000Y-6915000D02*
X12015000Y-6285000D01*
X12335000Y-6915000D02*
X12015000Y-6915000D01*
X12075000Y-7460000D02*
X12075000Y-7140000D01*
X12325000Y-7460000D02*
X12075000Y-7460000D01*
X12325000Y-7140000D02*
X12325000Y-7460000D01*
X12075000Y-7140000D02*
X12325000Y-7140000D01*
X12075000Y-9310000D02*
X12075000Y-8990000D01*
X12325000Y-9310000D02*
X12075000Y-9310000D01*
X12325000Y-8990000D02*
X12325000Y-9310000D01*
X12075000Y-8990000D02*
X12325000Y-8990000D01*
X10500000Y-8875000D02*
X10500000Y-8915000D01*
X10500000Y-8915000D02*
X10555000Y-8915000D01*
X10500000Y-8915000D02*
X10445000Y-8915000D01*
X10500000Y-8915000D02*
X10540000Y-8975000D01*
X10540000Y-8975000D02*
X10460000Y-8975000D01*
X10460000Y-8975000D02*
X10500000Y-8915000D01*
X10500000Y-8975000D02*
X10500000Y-9025000D01*
X10580000Y-8785000D02*
X10580000Y-9115000D01*
X10420000Y-8785000D02*
X10580000Y-8785000D01*
X10420000Y-9115000D02*
X10420000Y-8785000D01*
X10580000Y-9115000D02*
X10420000Y-9115000D01*
X7669149Y-8676250D02*
X7669149Y-8551250D01*
X7731649Y-8613750D02*
X7606649Y-8613750D01*
X7820000Y-8340000D02*
G75*
G03*
X7820000Y-8340000I-625000J0D01*
G01*
X7669149Y-9991250D02*
X7669149Y-9866250D01*
X7731649Y-9928750D02*
X7606649Y-9928750D01*
X7820000Y-9655000D02*
G75*
G03*
X7820000Y-9655000I-625000J0D01*
G01*
X11160000Y-6250000D02*
X11160000Y-6450000D01*
X11040000Y-6250000D02*
X11160000Y-6250000D01*
X11040000Y-6450000D02*
X11040000Y-6250000D01*
X11160000Y-6450000D02*
X11040000Y-6450000D01*
X11160000Y-8100000D02*
X11160000Y-8300000D01*
X11040000Y-8100000D02*
X11160000Y-8100000D01*
X11040000Y-8300000D02*
X11040000Y-8100000D01*
X11160000Y-8300000D02*
X11040000Y-8300000D01*
X10600000Y-6290000D02*
X10800000Y-6290000D01*
X10600000Y-6410000D02*
X10600000Y-6290000D01*
X10800000Y-6410000D02*
X10600000Y-6410000D01*
X10800000Y-6290000D02*
X10800000Y-6410000D01*
X10600000Y-8140000D02*
X10800000Y-8140000D01*
X10600000Y-8260000D02*
X10600000Y-8140000D01*
X10800000Y-8260000D02*
X10600000Y-8260000D01*
X10800000Y-8140000D02*
X10800000Y-8260000D01*
X11100000Y-7175000D02*
X11100000Y-7135000D01*
X11100000Y-7135000D02*
X11045000Y-7135000D01*
X11100000Y-7135000D02*
X11155000Y-7135000D01*
X11100000Y-7135000D02*
X11060000Y-7075000D01*
X11060000Y-7075000D02*
X11140000Y-7075000D01*
X11140000Y-7075000D02*
X11100000Y-7135000D01*
X11100000Y-7075000D02*
X11100000Y-7025000D01*
X11020000Y-7265000D02*
X11020000Y-6935000D01*
X11180000Y-7265000D02*
X11020000Y-7265000D01*
X11180000Y-6935000D02*
X11180000Y-7265000D01*
X11020000Y-6935000D02*
X11180000Y-6935000D01*
X10800000Y-7175000D02*
X10800000Y-7135000D01*
X10800000Y-7135000D02*
X10745000Y-7135000D01*
X10800000Y-7135000D02*
X10855000Y-7135000D01*
X10800000Y-7135000D02*
X10760000Y-7075000D01*
X10760000Y-7075000D02*
X10840000Y-7075000D01*
X10840000Y-7075000D02*
X10800000Y-7135000D01*
X10800000Y-7075000D02*
X10800000Y-7025000D01*
X10720000Y-7265000D02*
X10720000Y-6935000D01*
X10880000Y-7265000D02*
X10720000Y-7265000D01*
X10880000Y-6935000D02*
X10880000Y-7265000D01*
X10720000Y-6935000D02*
X10880000Y-6935000D01*
X11020000Y-8785000D02*
X11180000Y-8785000D01*
X11180000Y-8785000D02*
X11180000Y-9115000D01*
X11180000Y-9115000D02*
X11020000Y-9115000D01*
X11020000Y-9115000D02*
X11020000Y-8785000D01*
X11100000Y-8925000D02*
X11100000Y-8875000D01*
X11140000Y-8925000D02*
X11100000Y-8985000D01*
X11060000Y-8925000D02*
X11140000Y-8925000D01*
X11100000Y-8985000D02*
X11060000Y-8925000D01*
X11100000Y-8985000D02*
X11155000Y-8985000D01*
X11100000Y-8985000D02*
X11045000Y-8985000D01*
X11100000Y-9025000D02*
X11100000Y-8985000D01*
X10800000Y-9025000D02*
X10800000Y-8985000D01*
X10800000Y-8985000D02*
X10745000Y-8985000D01*
X10800000Y-8985000D02*
X10855000Y-8985000D01*
X10800000Y-8985000D02*
X10760000Y-8925000D01*
X10760000Y-8925000D02*
X10840000Y-8925000D01*
X10840000Y-8925000D02*
X10800000Y-8985000D01*
X10800000Y-8925000D02*
X10800000Y-8875000D01*
X10720000Y-9115000D02*
X10720000Y-8785000D01*
X10880000Y-9115000D02*
X10720000Y-9115000D01*
X10880000Y-8785000D02*
X10880000Y-9115000D01*
X10720000Y-8785000D02*
X10880000Y-8785000D01*
X12445000Y-8585000D02*
X12605000Y-8585000D01*
X12605000Y-8585000D02*
X12605000Y-8915000D01*
X12605000Y-8915000D02*
X12445000Y-8915000D01*
X12445000Y-8915000D02*
X12445000Y-8585000D01*
X12525000Y-8725000D02*
X12525000Y-8675000D01*
X12565000Y-8725000D02*
X12525000Y-8785000D01*
X12485000Y-8725000D02*
X12565000Y-8725000D01*
X12525000Y-8785000D02*
X12485000Y-8725000D01*
X12525000Y-8785000D02*
X12580000Y-8785000D01*
X12525000Y-8785000D02*
X12470000Y-8785000D01*
X12525000Y-8825000D02*
X12525000Y-8785000D01*
X12525000Y-6975000D02*
X12525000Y-6935000D01*
X12525000Y-6935000D02*
X12470000Y-6935000D01*
X12525000Y-6935000D02*
X12580000Y-6935000D01*
X12525000Y-6935000D02*
X12485000Y-6875000D01*
X12485000Y-6875000D02*
X12565000Y-6875000D01*
X12565000Y-6875000D02*
X12525000Y-6935000D01*
X12525000Y-6875000D02*
X12525000Y-6825000D01*
X12445000Y-7065000D02*
X12445000Y-6735000D01*
X12605000Y-7065000D02*
X12445000Y-7065000D01*
X12605000Y-6735000D02*
X12605000Y-7065000D01*
X12445000Y-6735000D02*
X12605000Y-6735000D01*
X10500000Y-7025000D02*
X10500000Y-7065000D01*
X10500000Y-7065000D02*
X10555000Y-7065000D01*
X10500000Y-7065000D02*
X10445000Y-7065000D01*
X10500000Y-7065000D02*
X10540000Y-7125000D01*
X10540000Y-7125000D02*
X10460000Y-7125000D01*
X10460000Y-7125000D02*
X10500000Y-7065000D01*
X10500000Y-7125000D02*
X10500000Y-7175000D01*
X10580000Y-6935000D02*
X10580000Y-7265000D01*
X10420000Y-6935000D02*
X10580000Y-6935000D01*
X10420000Y-7265000D02*
X10420000Y-6935000D01*
X10580000Y-7265000D02*
X10420000Y-7265000D01*
X8051059Y-8003750D02*
X8051059Y-8128750D01*
X7988559Y-8066250D02*
X8113559Y-8066250D01*
X9150208Y-8340000D02*
G75*
G03*
X9150208Y-8340000I-625000J0D01*
G01*
X16663000Y-8668000D02*
X16853500Y-8668000D01*
X16853500Y-8668000D02*
X16917000Y-8731500D01*
X16917000Y-8731500D02*
X16917000Y-9176000D01*
X16917000Y-9176000D02*
X16663000Y-9176000D01*
X16663000Y-9176000D02*
X16663000Y-8668000D01*
X15691500Y-12242000D02*
X15156500Y-12242000D01*
X15156500Y-12242000D02*
X15156500Y-8686000D01*
X15156500Y-8686000D02*
X15791500Y-8686000D01*
X15791500Y-8686000D02*
X15791500Y-12142000D01*
X15791500Y-12142000D02*
X15691500Y-12242000D01*
X15982000Y-12248000D02*
X15982000Y-8680000D01*
X15982000Y-8680000D02*
X14966000Y-8680000D01*
X14966000Y-8680000D02*
X14966000Y-12248000D01*
X14966000Y-12248000D02*
X15982000Y-12248000D01*
X16726500Y-11139000D02*
X16917000Y-11139000D01*
X16917000Y-11139000D02*
X16917000Y-12155000D01*
X16917000Y-12155000D02*
X16663000Y-12155000D01*
X16663000Y-12155000D02*
X16663000Y-11202500D01*
X16663000Y-11202500D02*
X16726500Y-11139000D01*
X17330900Y-10760100D02*
X17330900Y-10135100D01*
X17795900Y-10760100D02*
X17795900Y-10135100D01*
X17363400Y-10747600D02*
X17363400Y-10147600D01*
X17763400Y-10747600D02*
X17763400Y-10147600D01*
X17795900Y-10760100D02*
G75*
G02*
X17330900Y-10760100I-232500J0D01*
G01*
X17795900Y-10135100D02*
G75*
G03*
X17330900Y-10135100I-232500J0D01*
G01*
X17763400Y-10747600D02*
G75*
G02*
X17363400Y-10747600I-200000J0D01*
G01*
X17763400Y-10147600D02*
G75*
G03*
X17363400Y-10147600I-200000J0D01*
G01*
X16732100Y-9509900D02*
X16732100Y-10134900D01*
X16267100Y-9509900D02*
X16267100Y-10134900D01*
X16699600Y-9522400D02*
X16699600Y-10122400D01*
X16299600Y-9522400D02*
X16299600Y-10122400D01*
X16267100Y-9509900D02*
G75*
G02*
X16732100Y-9509900I232500J0D01*
G01*
X16267100Y-10134900D02*
G75*
G03*
X16732100Y-10134900I232500J0D01*
G01*
X16299600Y-9522400D02*
G75*
G02*
X16699600Y-9522400I200000J0D01*
G01*
X16299600Y-10122400D02*
G75*
G03*
X16699600Y-10122400I200000J0D01*
G01*
D13*
X9038571Y-11375238D02*
X8981429Y-11375238D01*
X9010000Y-11375238D02*
X9010000Y-11275238D01*
X9000476Y-11289524D01*
X8990952Y-11299048D01*
X8981429Y-11303809D01*
X14478571Y-12245238D02*
X14535714Y-12245238D01*
X14507143Y-12345238D02*
X14507143Y-12245238D01*
X14569048Y-12345238D02*
X14569048Y-12245238D01*
X14607143Y-12245238D01*
X14616667Y-12250000D01*
X14621428Y-12254762D01*
X14626190Y-12264286D01*
X14626190Y-12278571D01*
X14621428Y-12288095D01*
X14616667Y-12292857D01*
X14607143Y-12297619D01*
X14569048Y-12297619D01*
X14711905Y-12278571D02*
X14711905Y-12345238D01*
X14688095Y-12240476D02*
X14664286Y-12311905D01*
X14726190Y-12311905D01*
X14783333Y-12245238D02*
X14792857Y-12245238D01*
X14802381Y-12250000D01*
X14807143Y-12254762D01*
X14811905Y-12264286D01*
X14816667Y-12283333D01*
X14816667Y-12307143D01*
X14811905Y-12326190D01*
X14807143Y-12335714D01*
X14802381Y-12340476D01*
X14792857Y-12345238D01*
X14783333Y-12345238D01*
X14773809Y-12340476D01*
X14769048Y-12335714D01*
X14764286Y-12326190D01*
X14759524Y-12307143D01*
X14759524Y-12283333D01*
X14764286Y-12264286D01*
X14769048Y-12254762D01*
X14773809Y-12250000D01*
X14783333Y-12245238D01*
X14854762Y-12254762D02*
X14859524Y-12250000D01*
X14869048Y-12245238D01*
X14892857Y-12245238D01*
X14902381Y-12250000D01*
X14907143Y-12254762D01*
X14911905Y-12264286D01*
X14911905Y-12273809D01*
X14907143Y-12288095D01*
X14850000Y-12345238D01*
X14911905Y-12345238D01*
X15098571Y-7645238D02*
X15155714Y-7645238D01*
X15127143Y-7745238D02*
X15127143Y-7645238D01*
X15189048Y-7745238D02*
X15189048Y-7645238D01*
X15227143Y-7645238D01*
X15236667Y-7650000D01*
X15241428Y-7654762D01*
X15246190Y-7664286D01*
X15246190Y-7678571D01*
X15241428Y-7688095D01*
X15236667Y-7692857D01*
X15227143Y-7697619D01*
X15189048Y-7697619D01*
X15331905Y-7678571D02*
X15331905Y-7745238D01*
X15308095Y-7640476D02*
X15284286Y-7711905D01*
X15346190Y-7711905D01*
X15403333Y-7645238D02*
X15412857Y-7645238D01*
X15422381Y-7650000D01*
X15427143Y-7654762D01*
X15431905Y-7664286D01*
X15436667Y-7683333D01*
X15436667Y-7707143D01*
X15431905Y-7726190D01*
X15427143Y-7735714D01*
X15422381Y-7740476D01*
X15412857Y-7745238D01*
X15403333Y-7745238D01*
X15393809Y-7740476D01*
X15389048Y-7735714D01*
X15384286Y-7726190D01*
X15379524Y-7707143D01*
X15379524Y-7683333D01*
X15384286Y-7664286D01*
X15389048Y-7654762D01*
X15393809Y-7650000D01*
X15403333Y-7645238D01*
X15531905Y-7745238D02*
X15474762Y-7745238D01*
X15503333Y-7745238D02*
X15503333Y-7645238D01*
X15493809Y-7659524D01*
X15484286Y-7669048D01*
X15474762Y-7673809D01*
D14*
X12844048Y-8937857D02*
X12841667Y-8940238D01*
X12834524Y-8942619D01*
X12829762Y-8942619D01*
X12822619Y-8940238D01*
X12817857Y-8935476D01*
X12815476Y-8930714D01*
X12813095Y-8921190D01*
X12813095Y-8914048D01*
X12815476Y-8904524D01*
X12817857Y-8899762D01*
X12822619Y-8895000D01*
X12829762Y-8892619D01*
X12834524Y-8892619D01*
X12841667Y-8895000D01*
X12844048Y-8897381D01*
X12886905Y-8892619D02*
X12877381Y-8892619D01*
X12872619Y-8895000D01*
X12870238Y-8897381D01*
X12865476Y-8904524D01*
X12863095Y-8914048D01*
X12863095Y-8933095D01*
X12865476Y-8937857D01*
X12867857Y-8940238D01*
X12872619Y-8942619D01*
X12882143Y-8942619D01*
X12886905Y-8940238D01*
X12889286Y-8937857D01*
X12891667Y-8933095D01*
X12891667Y-8921190D01*
X12889286Y-8916429D01*
X12886905Y-8914048D01*
X12882143Y-8911667D01*
X12872619Y-8911667D01*
X12867857Y-8914048D01*
X12865476Y-8916429D01*
X12863095Y-8921190D01*
X12910714Y-8897381D02*
X12913095Y-8895000D01*
X12917857Y-8892619D01*
X12929762Y-8892619D01*
X12934524Y-8895000D01*
X12936905Y-8897381D01*
X12939286Y-8902143D01*
X12939286Y-8906905D01*
X12936905Y-8914048D01*
X12908333Y-8942619D01*
X12939286Y-8942619D01*
X12955952Y-8892619D02*
X12989286Y-8892619D01*
X12967857Y-8942619D01*
X12844048Y-8697857D02*
X12841667Y-8700238D01*
X12834524Y-8702619D01*
X12829762Y-8702619D01*
X12822619Y-8700238D01*
X12817857Y-8695476D01*
X12815476Y-8690714D01*
X12813095Y-8681190D01*
X12813095Y-8674048D01*
X12815476Y-8664524D01*
X12817857Y-8659762D01*
X12822619Y-8655000D01*
X12829762Y-8652619D01*
X12834524Y-8652619D01*
X12841667Y-8655000D01*
X12844048Y-8657381D01*
X12886905Y-8652619D02*
X12877381Y-8652619D01*
X12872619Y-8655000D01*
X12870238Y-8657381D01*
X12865476Y-8664524D01*
X12863095Y-8674048D01*
X12863095Y-8693095D01*
X12865476Y-8697857D01*
X12867857Y-8700238D01*
X12872619Y-8702619D01*
X12882143Y-8702619D01*
X12886905Y-8700238D01*
X12889286Y-8697857D01*
X12891667Y-8693095D01*
X12891667Y-8681190D01*
X12889286Y-8676429D01*
X12886905Y-8674048D01*
X12882143Y-8671667D01*
X12872619Y-8671667D01*
X12867857Y-8674048D01*
X12865476Y-8676429D01*
X12863095Y-8681190D01*
X12910714Y-8657381D02*
X12913095Y-8655000D01*
X12917857Y-8652619D01*
X12929762Y-8652619D01*
X12934524Y-8655000D01*
X12936905Y-8657381D01*
X12939286Y-8662143D01*
X12939286Y-8666905D01*
X12936905Y-8674048D01*
X12908333Y-8702619D01*
X12939286Y-8702619D01*
X12982143Y-8652619D02*
X12972619Y-8652619D01*
X12967857Y-8655000D01*
X12965476Y-8657381D01*
X12960714Y-8664524D01*
X12958333Y-8674048D01*
X12958333Y-8693095D01*
X12960714Y-8697857D01*
X12963095Y-8700238D01*
X12967857Y-8702619D01*
X12977381Y-8702619D01*
X12982143Y-8700238D01*
X12984524Y-8697857D01*
X12986905Y-8693095D01*
X12986905Y-8681190D01*
X12984524Y-8676429D01*
X12982143Y-8674048D01*
X12977381Y-8671667D01*
X12967857Y-8671667D01*
X12963095Y-8674048D01*
X12960714Y-8676429D01*
X12958333Y-8681190D01*
X12844048Y-7737857D02*
X12841667Y-7740238D01*
X12834524Y-7742619D01*
X12829762Y-7742619D01*
X12822619Y-7740238D01*
X12817857Y-7735476D01*
X12815476Y-7730714D01*
X12813095Y-7721190D01*
X12813095Y-7714048D01*
X12815476Y-7704524D01*
X12817857Y-7699762D01*
X12822619Y-7695000D01*
X12829762Y-7692619D01*
X12834524Y-7692619D01*
X12841667Y-7695000D01*
X12844048Y-7697381D01*
X12886905Y-7692619D02*
X12877381Y-7692619D01*
X12872619Y-7695000D01*
X12870238Y-7697381D01*
X12865476Y-7704524D01*
X12863095Y-7714048D01*
X12863095Y-7733095D01*
X12865476Y-7737857D01*
X12867857Y-7740238D01*
X12872619Y-7742619D01*
X12882143Y-7742619D01*
X12886905Y-7740238D01*
X12889286Y-7737857D01*
X12891667Y-7733095D01*
X12891667Y-7721190D01*
X12889286Y-7716428D01*
X12886905Y-7714048D01*
X12882143Y-7711667D01*
X12872619Y-7711667D01*
X12867857Y-7714048D01*
X12865476Y-7716428D01*
X12863095Y-7721190D01*
X12910714Y-7697381D02*
X12913095Y-7695000D01*
X12917857Y-7692619D01*
X12929762Y-7692619D01*
X12934524Y-7695000D01*
X12936905Y-7697381D01*
X12939286Y-7702143D01*
X12939286Y-7706905D01*
X12936905Y-7714048D01*
X12908333Y-7742619D01*
X12939286Y-7742619D01*
X12955952Y-7692619D02*
X12986905Y-7692619D01*
X12970238Y-7711667D01*
X12977381Y-7711667D01*
X12982143Y-7714048D01*
X12984524Y-7716428D01*
X12986905Y-7721190D01*
X12986905Y-7733095D01*
X12984524Y-7737857D01*
X12982143Y-7740238D01*
X12977381Y-7742619D01*
X12963095Y-7742619D01*
X12958333Y-7740238D01*
X12955952Y-7737857D01*
X12844048Y-7977857D02*
X12841667Y-7980238D01*
X12834524Y-7982619D01*
X12829762Y-7982619D01*
X12822619Y-7980238D01*
X12817857Y-7975476D01*
X12815476Y-7970714D01*
X12813095Y-7961190D01*
X12813095Y-7954048D01*
X12815476Y-7944524D01*
X12817857Y-7939762D01*
X12822619Y-7935000D01*
X12829762Y-7932619D01*
X12834524Y-7932619D01*
X12841667Y-7935000D01*
X12844048Y-7937381D01*
X12886905Y-7932619D02*
X12877381Y-7932619D01*
X12872619Y-7935000D01*
X12870238Y-7937381D01*
X12865476Y-7944524D01*
X12863095Y-7954048D01*
X12863095Y-7973095D01*
X12865476Y-7977857D01*
X12867857Y-7980238D01*
X12872619Y-7982619D01*
X12882143Y-7982619D01*
X12886905Y-7980238D01*
X12889286Y-7977857D01*
X12891667Y-7973095D01*
X12891667Y-7961190D01*
X12889286Y-7956428D01*
X12886905Y-7954048D01*
X12882143Y-7951667D01*
X12872619Y-7951667D01*
X12867857Y-7954048D01*
X12865476Y-7956428D01*
X12863095Y-7961190D01*
X12910714Y-7937381D02*
X12913095Y-7935000D01*
X12917857Y-7932619D01*
X12929762Y-7932619D01*
X12934524Y-7935000D01*
X12936905Y-7937381D01*
X12939286Y-7942143D01*
X12939286Y-7946905D01*
X12936905Y-7954048D01*
X12908333Y-7982619D01*
X12939286Y-7982619D01*
X12958333Y-7937381D02*
X12960714Y-7935000D01*
X12965476Y-7932619D01*
X12977381Y-7932619D01*
X12982143Y-7935000D01*
X12984524Y-7937381D01*
X12986905Y-7942143D01*
X12986905Y-7946905D01*
X12984524Y-7954048D01*
X12955952Y-7982619D01*
X12986905Y-7982619D01*
X6882619Y-11035952D02*
X6858809Y-11052619D01*
X6882619Y-11064524D02*
X6832619Y-11064524D01*
X6832619Y-11045476D01*
X6835000Y-11040714D01*
X6837381Y-11038333D01*
X6842143Y-11035952D01*
X6849286Y-11035952D01*
X6854048Y-11038333D01*
X6856428Y-11040714D01*
X6858809Y-11045476D01*
X6858809Y-11064524D01*
X6832619Y-10993095D02*
X6832619Y-11002619D01*
X6835000Y-11007381D01*
X6837381Y-11009762D01*
X6844524Y-11014524D01*
X6854048Y-11016905D01*
X6873095Y-11016905D01*
X6877857Y-11014524D01*
X6880238Y-11012143D01*
X6882619Y-11007381D01*
X6882619Y-10997857D01*
X6880238Y-10993095D01*
X6877857Y-10990714D01*
X6873095Y-10988333D01*
X6861190Y-10988333D01*
X6856428Y-10990714D01*
X6854048Y-10993095D01*
X6851667Y-10997857D01*
X6851667Y-11007381D01*
X6854048Y-11012143D01*
X6856428Y-11014524D01*
X6861190Y-11016905D01*
X6882619Y-10940714D02*
X6882619Y-10969286D01*
X6882619Y-10955000D02*
X6832619Y-10955000D01*
X6839762Y-10959762D01*
X6844524Y-10964524D01*
X6846905Y-10969286D01*
X6854048Y-10912143D02*
X6851667Y-10916905D01*
X6849286Y-10919286D01*
X6844524Y-10921667D01*
X6842143Y-10921667D01*
X6837381Y-10919286D01*
X6835000Y-10916905D01*
X6832619Y-10912143D01*
X6832619Y-10902619D01*
X6835000Y-10897857D01*
X6837381Y-10895476D01*
X6842143Y-10893095D01*
X6844524Y-10893095D01*
X6849286Y-10895476D01*
X6851667Y-10897857D01*
X6854048Y-10902619D01*
X6854048Y-10912143D01*
X6856428Y-10916905D01*
X6858809Y-10919286D01*
X6863571Y-10921667D01*
X6873095Y-10921667D01*
X6877857Y-10919286D01*
X6880238Y-10916905D01*
X6882619Y-10912143D01*
X6882619Y-10902619D01*
X6880238Y-10897857D01*
X6877857Y-10895476D01*
X6873095Y-10893095D01*
X6863571Y-10893095D01*
X6858809Y-10895476D01*
X6856428Y-10897857D01*
X6854048Y-10902619D01*
D13*
X12220238Y-8561905D02*
X12172619Y-8595238D01*
X12220238Y-8619048D02*
X12120238Y-8619048D01*
X12120238Y-8580952D01*
X12125000Y-8571429D01*
X12129762Y-8566667D01*
X12139286Y-8561905D01*
X12153571Y-8561905D01*
X12163095Y-8566667D01*
X12167857Y-8571429D01*
X12172619Y-8580952D01*
X12172619Y-8619048D01*
X12120238Y-8476190D02*
X12120238Y-8495238D01*
X12125000Y-8504762D01*
X12129762Y-8509524D01*
X12144048Y-8519048D01*
X12163095Y-8523810D01*
X12201190Y-8523810D01*
X12210714Y-8519048D01*
X12215476Y-8514286D01*
X12220238Y-8504762D01*
X12220238Y-8485714D01*
X12215476Y-8476190D01*
X12210714Y-8471429D01*
X12201190Y-8466667D01*
X12177381Y-8466667D01*
X12167857Y-8471429D01*
X12163095Y-8476190D01*
X12158333Y-8485714D01*
X12158333Y-8504762D01*
X12163095Y-8514286D01*
X12167857Y-8519048D01*
X12177381Y-8523810D01*
X12220238Y-8371428D02*
X12220238Y-8428571D01*
X12220238Y-8400000D02*
X12120238Y-8400000D01*
X12134524Y-8409524D01*
X12144048Y-8419048D01*
X12148809Y-8428571D01*
X12120238Y-8338095D02*
X12120238Y-8271428D01*
X12220238Y-8314286D01*
D14*
X14286548Y-12322619D02*
X14269881Y-12298809D01*
X14257976Y-12322619D02*
X14257976Y-12272619D01*
X14277024Y-12272619D01*
X14281786Y-12275000D01*
X14284167Y-12277381D01*
X14286548Y-12282143D01*
X14286548Y-12289286D01*
X14284167Y-12294048D01*
X14281786Y-12296428D01*
X14277024Y-12298809D01*
X14257976Y-12298809D01*
X14329405Y-12272619D02*
X14319881Y-12272619D01*
X14315119Y-12275000D01*
X14312738Y-12277381D01*
X14307976Y-12284524D01*
X14305595Y-12294048D01*
X14305595Y-12313095D01*
X14307976Y-12317857D01*
X14310357Y-12320238D01*
X14315119Y-12322619D01*
X14324643Y-12322619D01*
X14329405Y-12320238D01*
X14331786Y-12317857D01*
X14334167Y-12313095D01*
X14334167Y-12301190D01*
X14331786Y-12296428D01*
X14329405Y-12294048D01*
X14324643Y-12291667D01*
X14315119Y-12291667D01*
X14310357Y-12294048D01*
X14307976Y-12296428D01*
X14305595Y-12301190D01*
X14381786Y-12322619D02*
X14353214Y-12322619D01*
X14367500Y-12322619D02*
X14367500Y-12272619D01*
X14362738Y-12279762D01*
X14357976Y-12284524D01*
X14353214Y-12286905D01*
X14424643Y-12272619D02*
X14415119Y-12272619D01*
X14410357Y-12275000D01*
X14407976Y-12277381D01*
X14403214Y-12284524D01*
X14400833Y-12294048D01*
X14400833Y-12313095D01*
X14403214Y-12317857D01*
X14405595Y-12320238D01*
X14410357Y-12322619D01*
X14419881Y-12322619D01*
X14424643Y-12320238D01*
X14427024Y-12317857D01*
X14429405Y-12313095D01*
X14429405Y-12301190D01*
X14427024Y-12296428D01*
X14424643Y-12294048D01*
X14419881Y-12291667D01*
X14410357Y-12291667D01*
X14405595Y-12294048D01*
X14403214Y-12296428D01*
X14400833Y-12301190D01*
D13*
X12220238Y-6711905D02*
X12172619Y-6745238D01*
X12220238Y-6769048D02*
X12120238Y-6769048D01*
X12120238Y-6730952D01*
X12125000Y-6721428D01*
X12129762Y-6716667D01*
X12139286Y-6711905D01*
X12153571Y-6711905D01*
X12163095Y-6716667D01*
X12167857Y-6721428D01*
X12172619Y-6730952D01*
X12172619Y-6769048D01*
X12120238Y-6626190D02*
X12120238Y-6645238D01*
X12125000Y-6654762D01*
X12129762Y-6659524D01*
X12144048Y-6669048D01*
X12163095Y-6673809D01*
X12201190Y-6673809D01*
X12210714Y-6669048D01*
X12215476Y-6664286D01*
X12220238Y-6654762D01*
X12220238Y-6635714D01*
X12215476Y-6626190D01*
X12210714Y-6621428D01*
X12201190Y-6616667D01*
X12177381Y-6616667D01*
X12167857Y-6621428D01*
X12163095Y-6626190D01*
X12158333Y-6635714D01*
X12158333Y-6654762D01*
X12163095Y-6664286D01*
X12167857Y-6669048D01*
X12177381Y-6673809D01*
X12220238Y-6521428D02*
X12220238Y-6578571D01*
X12220238Y-6550000D02*
X12120238Y-6550000D01*
X12134524Y-6559524D01*
X12144048Y-6569048D01*
X12148809Y-6578571D01*
X12120238Y-6430952D02*
X12120238Y-6478571D01*
X12167857Y-6483333D01*
X12163095Y-6478571D01*
X12158333Y-6469048D01*
X12158333Y-6445238D01*
X12163095Y-6435714D01*
X12167857Y-6430952D01*
X12177381Y-6426190D01*
X12201190Y-6426190D01*
X12210714Y-6430952D01*
X12215476Y-6435714D01*
X12220238Y-6445238D01*
X12220238Y-6469048D01*
X12215476Y-6478571D01*
X12210714Y-6483333D01*
D14*
X6442976Y-10897619D02*
X6442976Y-10847619D01*
X6454881Y-10847619D01*
X6462024Y-10850000D01*
X6466786Y-10854762D01*
X6469167Y-10859524D01*
X6471548Y-10869048D01*
X6471548Y-10876190D01*
X6469167Y-10885714D01*
X6466786Y-10890476D01*
X6462024Y-10895238D01*
X6454881Y-10897619D01*
X6442976Y-10897619D01*
X6514405Y-10847619D02*
X6504881Y-10847619D01*
X6500119Y-10850000D01*
X6497738Y-10852381D01*
X6492976Y-10859524D01*
X6490595Y-10869048D01*
X6490595Y-10888095D01*
X6492976Y-10892857D01*
X6495357Y-10895238D01*
X6500119Y-10897619D01*
X6509643Y-10897619D01*
X6514405Y-10895238D01*
X6516786Y-10892857D01*
X6519167Y-10888095D01*
X6519167Y-10876190D01*
X6516786Y-10871429D01*
X6514405Y-10869048D01*
X6509643Y-10866667D01*
X6500119Y-10866667D01*
X6495357Y-10869048D01*
X6492976Y-10871429D01*
X6490595Y-10876190D01*
X6550119Y-10847619D02*
X6554881Y-10847619D01*
X6559643Y-10850000D01*
X6562024Y-10852381D01*
X6564405Y-10857143D01*
X6566786Y-10866667D01*
X6566786Y-10878571D01*
X6564405Y-10888095D01*
X6562024Y-10892857D01*
X6559643Y-10895238D01*
X6554881Y-10897619D01*
X6550119Y-10897619D01*
X6545357Y-10895238D01*
X6542976Y-10892857D01*
X6540595Y-10888095D01*
X6538214Y-10878571D01*
X6538214Y-10866667D01*
X6540595Y-10857143D01*
X6542976Y-10852381D01*
X6545357Y-10850000D01*
X6550119Y-10847619D01*
X6595357Y-10869048D02*
X6590595Y-10866667D01*
X6588214Y-10864286D01*
X6585833Y-10859524D01*
X6585833Y-10857143D01*
X6588214Y-10852381D01*
X6590595Y-10850000D01*
X6595357Y-10847619D01*
X6604881Y-10847619D01*
X6609643Y-10850000D01*
X6612024Y-10852381D01*
X6614405Y-10857143D01*
X6614405Y-10859524D01*
X6612024Y-10864286D01*
X6609643Y-10866667D01*
X6604881Y-10869048D01*
X6595357Y-10869048D01*
X6590595Y-10871429D01*
X6588214Y-10873810D01*
X6585833Y-10878571D01*
X6585833Y-10888095D01*
X6588214Y-10892857D01*
X6590595Y-10895238D01*
X6595357Y-10897619D01*
X6604881Y-10897619D01*
X6609643Y-10895238D01*
X6612024Y-10892857D01*
X6614405Y-10888095D01*
X6614405Y-10878571D01*
X6612024Y-10873810D01*
X6609643Y-10871429D01*
X6604881Y-10869048D01*
X14055476Y-12542619D02*
X14055476Y-12492619D01*
X14067381Y-12492619D01*
X14074524Y-12495000D01*
X14079286Y-12499762D01*
X14081667Y-12504524D01*
X14084048Y-12514048D01*
X14084048Y-12521190D01*
X14081667Y-12530714D01*
X14079286Y-12535476D01*
X14074524Y-12540238D01*
X14067381Y-12542619D01*
X14055476Y-12542619D01*
X14126905Y-12492619D02*
X14117381Y-12492619D01*
X14112619Y-12495000D01*
X14110238Y-12497381D01*
X14105476Y-12504524D01*
X14103095Y-12514048D01*
X14103095Y-12533095D01*
X14105476Y-12537857D01*
X14107857Y-12540238D01*
X14112619Y-12542619D01*
X14122143Y-12542619D01*
X14126905Y-12540238D01*
X14129286Y-12537857D01*
X14131667Y-12533095D01*
X14131667Y-12521190D01*
X14129286Y-12516428D01*
X14126905Y-12514048D01*
X14122143Y-12511667D01*
X14112619Y-12511667D01*
X14107857Y-12514048D01*
X14105476Y-12516428D01*
X14103095Y-12521190D01*
X14162619Y-12492619D02*
X14167381Y-12492619D01*
X14172143Y-12495000D01*
X14174524Y-12497381D01*
X14176905Y-12502143D01*
X14179286Y-12511667D01*
X14179286Y-12523571D01*
X14176905Y-12533095D01*
X14174524Y-12537857D01*
X14172143Y-12540238D01*
X14167381Y-12542619D01*
X14162619Y-12542619D01*
X14157857Y-12540238D01*
X14155476Y-12537857D01*
X14153095Y-12533095D01*
X14150714Y-12523571D01*
X14150714Y-12511667D01*
X14153095Y-12502143D01*
X14155476Y-12497381D01*
X14157857Y-12495000D01*
X14162619Y-12492619D01*
X14195952Y-12492619D02*
X14229286Y-12492619D01*
X14207857Y-12542619D01*
X12844048Y-8457857D02*
X12841667Y-8460238D01*
X12834524Y-8462619D01*
X12829762Y-8462619D01*
X12822619Y-8460238D01*
X12817857Y-8455476D01*
X12815476Y-8450714D01*
X12813095Y-8441190D01*
X12813095Y-8434048D01*
X12815476Y-8424524D01*
X12817857Y-8419762D01*
X12822619Y-8415000D01*
X12829762Y-8412619D01*
X12834524Y-8412619D01*
X12841667Y-8415000D01*
X12844048Y-8417381D01*
X12886905Y-8412619D02*
X12877381Y-8412619D01*
X12872619Y-8415000D01*
X12870238Y-8417381D01*
X12865476Y-8424524D01*
X12863095Y-8434048D01*
X12863095Y-8453095D01*
X12865476Y-8457857D01*
X12867857Y-8460238D01*
X12872619Y-8462619D01*
X12882143Y-8462619D01*
X12886905Y-8460238D01*
X12889286Y-8457857D01*
X12891667Y-8453095D01*
X12891667Y-8441190D01*
X12889286Y-8436429D01*
X12886905Y-8434048D01*
X12882143Y-8431667D01*
X12872619Y-8431667D01*
X12867857Y-8434048D01*
X12865476Y-8436429D01*
X12863095Y-8441190D01*
X12910714Y-8417381D02*
X12913095Y-8415000D01*
X12917857Y-8412619D01*
X12929762Y-8412619D01*
X12934524Y-8415000D01*
X12936905Y-8417381D01*
X12939286Y-8422143D01*
X12939286Y-8426905D01*
X12936905Y-8434048D01*
X12908333Y-8462619D01*
X12939286Y-8462619D01*
X12984524Y-8412619D02*
X12960714Y-8412619D01*
X12958333Y-8436429D01*
X12960714Y-8434048D01*
X12965476Y-8431667D01*
X12977381Y-8431667D01*
X12982143Y-8434048D01*
X12984524Y-8436429D01*
X12986905Y-8441190D01*
X12986905Y-8453095D01*
X12984524Y-8457857D01*
X12982143Y-8460238D01*
X12977381Y-8462619D01*
X12965476Y-8462619D01*
X12960714Y-8460238D01*
X12958333Y-8457857D01*
X12844048Y-8217857D02*
X12841667Y-8220238D01*
X12834524Y-8222619D01*
X12829762Y-8222619D01*
X12822619Y-8220238D01*
X12817857Y-8215476D01*
X12815476Y-8210714D01*
X12813095Y-8201190D01*
X12813095Y-8194048D01*
X12815476Y-8184524D01*
X12817857Y-8179762D01*
X12822619Y-8175000D01*
X12829762Y-8172619D01*
X12834524Y-8172619D01*
X12841667Y-8175000D01*
X12844048Y-8177381D01*
X12886905Y-8172619D02*
X12877381Y-8172619D01*
X12872619Y-8175000D01*
X12870238Y-8177381D01*
X12865476Y-8184524D01*
X12863095Y-8194048D01*
X12863095Y-8213095D01*
X12865476Y-8217857D01*
X12867857Y-8220238D01*
X12872619Y-8222619D01*
X12882143Y-8222619D01*
X12886905Y-8220238D01*
X12889286Y-8217857D01*
X12891667Y-8213095D01*
X12891667Y-8201190D01*
X12889286Y-8196428D01*
X12886905Y-8194048D01*
X12882143Y-8191667D01*
X12872619Y-8191667D01*
X12867857Y-8194048D01*
X12865476Y-8196428D01*
X12863095Y-8201190D01*
X12910714Y-8177381D02*
X12913095Y-8175000D01*
X12917857Y-8172619D01*
X12929762Y-8172619D01*
X12934524Y-8175000D01*
X12936905Y-8177381D01*
X12939286Y-8182143D01*
X12939286Y-8186905D01*
X12936905Y-8194048D01*
X12908333Y-8222619D01*
X12939286Y-8222619D01*
X12982143Y-8189286D02*
X12982143Y-8222619D01*
X12970238Y-8170238D02*
X12958333Y-8205952D01*
X12989286Y-8205952D01*
D13*
X8413303Y-9690714D02*
X8408542Y-9695476D01*
X8394256Y-9700238D01*
X8384732Y-9700238D01*
X8370446Y-9695476D01*
X8360922Y-9685952D01*
X8356160Y-9676429D01*
X8351399Y-9657381D01*
X8351399Y-9643095D01*
X8356160Y-9624048D01*
X8360922Y-9614524D01*
X8370446Y-9605000D01*
X8384732Y-9600238D01*
X8394256Y-9600238D01*
X8408542Y-9605000D01*
X8413303Y-9609762D01*
X8499018Y-9600238D02*
X8479970Y-9600238D01*
X8470446Y-9605000D01*
X8465684Y-9609762D01*
X8456161Y-9624048D01*
X8451399Y-9643095D01*
X8451399Y-9681190D01*
X8456161Y-9690714D01*
X8460922Y-9695476D01*
X8470446Y-9700238D01*
X8489494Y-9700238D01*
X8499018Y-9695476D01*
X8503780Y-9690714D01*
X8508542Y-9681190D01*
X8508542Y-9657381D01*
X8503780Y-9647857D01*
X8499018Y-9643095D01*
X8489494Y-9638333D01*
X8470446Y-9638333D01*
X8460922Y-9643095D01*
X8456161Y-9647857D01*
X8451399Y-9657381D01*
X8570446Y-9600238D02*
X8579970Y-9600238D01*
X8589494Y-9605000D01*
X8594256Y-9609762D01*
X8599018Y-9619286D01*
X8603780Y-9638333D01*
X8603780Y-9662143D01*
X8599018Y-9681190D01*
X8594256Y-9690714D01*
X8589494Y-9695476D01*
X8579970Y-9700238D01*
X8570446Y-9700238D01*
X8560922Y-9695476D01*
X8556161Y-9690714D01*
X8551399Y-9681190D01*
X8546637Y-9662143D01*
X8546637Y-9638333D01*
X8551399Y-9619286D01*
X8556161Y-9609762D01*
X8560922Y-9605000D01*
X8570446Y-9600238D01*
X8660922Y-9643095D02*
X8651399Y-9638333D01*
X8646637Y-9633571D01*
X8641875Y-9624048D01*
X8641875Y-9619286D01*
X8646637Y-9609762D01*
X8651399Y-9605000D01*
X8660922Y-9600238D01*
X8679970Y-9600238D01*
X8689494Y-9605000D01*
X8694256Y-9609762D01*
X8699018Y-9619286D01*
X8699018Y-9624048D01*
X8694256Y-9633571D01*
X8689494Y-9638333D01*
X8679970Y-9643095D01*
X8660922Y-9643095D01*
X8651399Y-9647857D01*
X8646637Y-9652619D01*
X8641875Y-9662143D01*
X8641875Y-9681190D01*
X8646637Y-9690714D01*
X8651399Y-9695476D01*
X8660922Y-9700238D01*
X8679970Y-9700238D01*
X8689494Y-9695476D01*
X8694256Y-9690714D01*
X8699018Y-9681190D01*
X8699018Y-9662143D01*
X8694256Y-9652619D01*
X8689494Y-9647857D01*
X8679970Y-9643095D01*
X8575714Y-7126905D02*
X8580476Y-7131667D01*
X8585238Y-7145952D01*
X8585238Y-7155476D01*
X8580476Y-7169762D01*
X8570952Y-7179286D01*
X8561429Y-7184048D01*
X8542381Y-7188809D01*
X8528095Y-7188809D01*
X8509048Y-7184048D01*
X8499524Y-7179286D01*
X8490000Y-7169762D01*
X8485238Y-7155476D01*
X8485238Y-7145952D01*
X8490000Y-7131667D01*
X8494762Y-7126905D01*
X8485238Y-7041190D02*
X8485238Y-7060238D01*
X8490000Y-7069762D01*
X8494762Y-7074524D01*
X8509048Y-7084048D01*
X8528095Y-7088809D01*
X8566190Y-7088809D01*
X8575714Y-7084048D01*
X8580476Y-7079286D01*
X8585238Y-7069762D01*
X8585238Y-7050714D01*
X8580476Y-7041190D01*
X8575714Y-7036428D01*
X8566190Y-7031667D01*
X8542381Y-7031667D01*
X8532857Y-7036428D01*
X8528095Y-7041190D01*
X8523333Y-7050714D01*
X8523333Y-7069762D01*
X8528095Y-7079286D01*
X8532857Y-7084048D01*
X8542381Y-7088809D01*
X8494762Y-6993571D02*
X8490000Y-6988809D01*
X8485238Y-6979286D01*
X8485238Y-6955476D01*
X8490000Y-6945952D01*
X8494762Y-6941190D01*
X8504286Y-6936428D01*
X8513810Y-6936428D01*
X8528095Y-6941190D01*
X8585238Y-6998333D01*
X8585238Y-6936428D01*
X8585238Y-6841190D02*
X8585238Y-6898333D01*
X8585238Y-6869762D02*
X8485238Y-6869762D01*
X8499524Y-6879286D01*
X8509048Y-6888809D01*
X8513810Y-6898333D01*
X7235714Y-7126905D02*
X7240476Y-7131667D01*
X7245238Y-7145952D01*
X7245238Y-7155476D01*
X7240476Y-7169762D01*
X7230952Y-7179286D01*
X7221428Y-7184048D01*
X7202381Y-7188809D01*
X7188095Y-7188809D01*
X7169048Y-7184048D01*
X7159524Y-7179286D01*
X7150000Y-7169762D01*
X7145238Y-7155476D01*
X7145238Y-7145952D01*
X7150000Y-7131667D01*
X7154762Y-7126905D01*
X7145238Y-7041190D02*
X7145238Y-7060238D01*
X7150000Y-7069762D01*
X7154762Y-7074524D01*
X7169048Y-7084048D01*
X7188095Y-7088809D01*
X7226190Y-7088809D01*
X7235714Y-7084048D01*
X7240476Y-7079286D01*
X7245238Y-7069762D01*
X7245238Y-7050714D01*
X7240476Y-7041190D01*
X7235714Y-7036428D01*
X7226190Y-7031667D01*
X7202381Y-7031667D01*
X7192857Y-7036428D01*
X7188095Y-7041190D01*
X7183333Y-7050714D01*
X7183333Y-7069762D01*
X7188095Y-7079286D01*
X7192857Y-7084048D01*
X7202381Y-7088809D01*
X7145238Y-6969762D02*
X7145238Y-6960238D01*
X7150000Y-6950714D01*
X7154762Y-6945952D01*
X7164286Y-6941190D01*
X7183333Y-6936428D01*
X7207143Y-6936428D01*
X7226190Y-6941190D01*
X7235714Y-6945952D01*
X7240476Y-6950714D01*
X7245238Y-6960238D01*
X7245238Y-6969762D01*
X7240476Y-6979286D01*
X7235714Y-6984048D01*
X7226190Y-6988809D01*
X7207143Y-6993571D01*
X7183333Y-6993571D01*
X7164286Y-6988809D01*
X7154762Y-6984048D01*
X7150000Y-6979286D01*
X7145238Y-6969762D01*
X7154762Y-6898333D02*
X7150000Y-6893571D01*
X7145238Y-6884048D01*
X7145238Y-6860238D01*
X7150000Y-6850714D01*
X7154762Y-6845952D01*
X7164286Y-6841190D01*
X7173809Y-6841190D01*
X7188095Y-6845952D01*
X7245238Y-6903095D01*
X7245238Y-6841190D01*
D14*
X13122619Y-6385952D02*
X13098809Y-6402619D01*
X13122619Y-6414524D02*
X13072619Y-6414524D01*
X13072619Y-6395476D01*
X13075000Y-6390714D01*
X13077381Y-6388333D01*
X13082143Y-6385952D01*
X13089286Y-6385952D01*
X13094048Y-6388333D01*
X13096428Y-6390714D01*
X13098809Y-6395476D01*
X13098809Y-6414524D01*
X13072619Y-6343095D02*
X13072619Y-6352619D01*
X13075000Y-6357381D01*
X13077381Y-6359762D01*
X13084524Y-6364524D01*
X13094048Y-6366905D01*
X13113095Y-6366905D01*
X13117857Y-6364524D01*
X13120238Y-6362143D01*
X13122619Y-6357381D01*
X13122619Y-6347857D01*
X13120238Y-6343095D01*
X13117857Y-6340714D01*
X13113095Y-6338333D01*
X13101190Y-6338333D01*
X13096428Y-6340714D01*
X13094048Y-6343095D01*
X13091667Y-6347857D01*
X13091667Y-6357381D01*
X13094048Y-6362143D01*
X13096428Y-6364524D01*
X13101190Y-6366905D01*
X13122619Y-6290714D02*
X13122619Y-6319286D01*
X13122619Y-6305000D02*
X13072619Y-6305000D01*
X13079762Y-6309762D01*
X13084524Y-6314524D01*
X13086905Y-6319286D01*
X13089286Y-6247857D02*
X13122619Y-6247857D01*
X13070238Y-6259762D02*
X13105952Y-6271667D01*
X13105952Y-6240714D01*
X12822619Y-6385952D02*
X12798809Y-6402619D01*
X12822619Y-6414524D02*
X12772619Y-6414524D01*
X12772619Y-6395476D01*
X12775000Y-6390714D01*
X12777381Y-6388333D01*
X12782143Y-6385952D01*
X12789286Y-6385952D01*
X12794048Y-6388333D01*
X12796428Y-6390714D01*
X12798809Y-6395476D01*
X12798809Y-6414524D01*
X12772619Y-6343095D02*
X12772619Y-6352619D01*
X12775000Y-6357381D01*
X12777381Y-6359762D01*
X12784524Y-6364524D01*
X12794048Y-6366905D01*
X12813095Y-6366905D01*
X12817857Y-6364524D01*
X12820238Y-6362143D01*
X12822619Y-6357381D01*
X12822619Y-6347857D01*
X12820238Y-6343095D01*
X12817857Y-6340714D01*
X12813095Y-6338333D01*
X12801190Y-6338333D01*
X12796428Y-6340714D01*
X12794048Y-6343095D01*
X12791667Y-6347857D01*
X12791667Y-6357381D01*
X12794048Y-6362143D01*
X12796428Y-6364524D01*
X12801190Y-6366905D01*
X12822619Y-6290714D02*
X12822619Y-6319286D01*
X12822619Y-6305000D02*
X12772619Y-6305000D01*
X12779762Y-6309762D01*
X12784524Y-6314524D01*
X12786905Y-6319286D01*
X12772619Y-6274048D02*
X12772619Y-6243095D01*
X12791667Y-6259762D01*
X12791667Y-6252619D01*
X12794048Y-6247857D01*
X12796428Y-6245476D01*
X12801190Y-6243095D01*
X12813095Y-6243095D01*
X12817857Y-6245476D01*
X12820238Y-6247857D01*
X12822619Y-6252619D01*
X12822619Y-6266905D01*
X12820238Y-6271667D01*
X12817857Y-6274048D01*
X12833048Y-7498357D02*
X12830667Y-7500738D01*
X12823524Y-7503119D01*
X12818762Y-7503119D01*
X12811619Y-7500738D01*
X12806857Y-7495976D01*
X12804476Y-7491214D01*
X12802095Y-7481690D01*
X12802095Y-7474548D01*
X12804476Y-7465024D01*
X12806857Y-7460262D01*
X12811619Y-7455500D01*
X12818762Y-7453119D01*
X12823524Y-7453119D01*
X12830667Y-7455500D01*
X12833048Y-7457881D01*
X12875905Y-7453119D02*
X12866381Y-7453119D01*
X12861619Y-7455500D01*
X12859238Y-7457881D01*
X12854476Y-7465024D01*
X12852095Y-7474548D01*
X12852095Y-7493595D01*
X12854476Y-7498357D01*
X12856857Y-7500738D01*
X12861619Y-7503119D01*
X12871143Y-7503119D01*
X12875905Y-7500738D01*
X12878286Y-7498357D01*
X12880667Y-7493595D01*
X12880667Y-7481690D01*
X12878286Y-7476929D01*
X12875905Y-7474548D01*
X12871143Y-7472167D01*
X12861619Y-7472167D01*
X12856857Y-7474548D01*
X12854476Y-7476929D01*
X12852095Y-7481690D01*
X12928286Y-7503119D02*
X12899714Y-7503119D01*
X12914000Y-7503119D02*
X12914000Y-7453119D01*
X12909238Y-7460262D01*
X12904476Y-7465024D01*
X12899714Y-7467405D01*
X12971143Y-7453119D02*
X12961619Y-7453119D01*
X12956857Y-7455500D01*
X12954476Y-7457881D01*
X12949714Y-7465024D01*
X12947333Y-7474548D01*
X12947333Y-7493595D01*
X12949714Y-7498357D01*
X12952095Y-7500738D01*
X12956857Y-7503119D01*
X12966381Y-7503119D01*
X12971143Y-7500738D01*
X12973524Y-7498357D01*
X12975905Y-7493595D01*
X12975905Y-7481690D01*
X12973524Y-7476929D01*
X12971143Y-7474548D01*
X12966381Y-7472167D01*
X12956857Y-7472167D01*
X12952095Y-7474548D01*
X12949714Y-7476929D01*
X12947333Y-7481690D01*
X12833048Y-7268857D02*
X12830667Y-7271238D01*
X12823524Y-7273619D01*
X12818762Y-7273619D01*
X12811619Y-7271238D01*
X12806857Y-7266476D01*
X12804476Y-7261714D01*
X12802095Y-7252190D01*
X12802095Y-7245048D01*
X12804476Y-7235524D01*
X12806857Y-7230762D01*
X12811619Y-7226000D01*
X12818762Y-7223619D01*
X12823524Y-7223619D01*
X12830667Y-7226000D01*
X12833048Y-7228381D01*
X12875905Y-7223619D02*
X12866381Y-7223619D01*
X12861619Y-7226000D01*
X12859238Y-7228381D01*
X12854476Y-7235524D01*
X12852095Y-7245048D01*
X12852095Y-7264095D01*
X12854476Y-7268857D01*
X12856857Y-7271238D01*
X12861619Y-7273619D01*
X12871143Y-7273619D01*
X12875905Y-7271238D01*
X12878286Y-7268857D01*
X12880667Y-7264095D01*
X12880667Y-7252190D01*
X12878286Y-7247428D01*
X12875905Y-7245048D01*
X12871143Y-7242667D01*
X12861619Y-7242667D01*
X12856857Y-7245048D01*
X12854476Y-7247428D01*
X12852095Y-7252190D01*
X12928286Y-7273619D02*
X12899714Y-7273619D01*
X12914000Y-7273619D02*
X12914000Y-7223619D01*
X12909238Y-7230762D01*
X12904476Y-7235524D01*
X12899714Y-7237905D01*
X12973524Y-7223619D02*
X12949714Y-7223619D01*
X12947333Y-7247428D01*
X12949714Y-7245048D01*
X12954476Y-7242667D01*
X12966381Y-7242667D01*
X12971143Y-7245048D01*
X12973524Y-7247428D01*
X12975905Y-7252190D01*
X12975905Y-7264095D01*
X12973524Y-7268857D01*
X12971143Y-7271238D01*
X12966381Y-7273619D01*
X12954476Y-7273619D01*
X12949714Y-7271238D01*
X12947333Y-7268857D01*
D11*
X12854476Y-6732571D02*
X12850667Y-6736381D01*
X12839238Y-6740190D01*
X12831619Y-6740190D01*
X12820190Y-6736381D01*
X12812571Y-6728762D01*
X12808762Y-6721143D01*
X12804952Y-6705905D01*
X12804952Y-6694476D01*
X12808762Y-6679238D01*
X12812571Y-6671619D01*
X12820190Y-6664000D01*
X12831619Y-6660190D01*
X12839238Y-6660190D01*
X12850667Y-6664000D01*
X12854476Y-6667809D01*
X12923048Y-6660190D02*
X12907809Y-6660190D01*
X12900190Y-6664000D01*
X12896381Y-6667809D01*
X12888762Y-6679238D01*
X12884952Y-6694476D01*
X12884952Y-6724952D01*
X12888762Y-6732571D01*
X12892571Y-6736381D01*
X12900190Y-6740190D01*
X12915428Y-6740190D01*
X12923048Y-6736381D01*
X12926857Y-6732571D01*
X12930667Y-6724952D01*
X12930667Y-6705905D01*
X12926857Y-6698286D01*
X12923048Y-6694476D01*
X12915428Y-6690667D01*
X12900190Y-6690667D01*
X12892571Y-6694476D01*
X12888762Y-6698286D01*
X12884952Y-6705905D01*
X13006857Y-6740190D02*
X12961143Y-6740190D01*
X12984000Y-6740190D02*
X12984000Y-6660190D01*
X12976381Y-6671619D01*
X12968762Y-6679238D01*
X12961143Y-6683048D01*
X13075428Y-6686857D02*
X13075428Y-6740190D01*
X13056381Y-6656381D02*
X13037333Y-6713524D01*
X13086857Y-6713524D01*
X12854476Y-7019571D02*
X12850667Y-7023381D01*
X12839238Y-7027190D01*
X12831619Y-7027190D01*
X12820190Y-7023381D01*
X12812571Y-7015762D01*
X12808762Y-7008143D01*
X12804952Y-6992905D01*
X12804952Y-6981476D01*
X12808762Y-6966238D01*
X12812571Y-6958619D01*
X12820190Y-6951000D01*
X12831619Y-6947190D01*
X12839238Y-6947190D01*
X12850667Y-6951000D01*
X12854476Y-6954809D01*
X12923048Y-6947190D02*
X12907809Y-6947190D01*
X12900190Y-6951000D01*
X12896381Y-6954809D01*
X12888762Y-6966238D01*
X12884952Y-6981476D01*
X12884952Y-7011952D01*
X12888762Y-7019571D01*
X12892571Y-7023381D01*
X12900190Y-7027190D01*
X12915428Y-7027190D01*
X12923048Y-7023381D01*
X12926857Y-7019571D01*
X12930667Y-7011952D01*
X12930667Y-6992905D01*
X12926857Y-6985286D01*
X12923048Y-6981476D01*
X12915428Y-6977667D01*
X12900190Y-6977667D01*
X12892571Y-6981476D01*
X12888762Y-6985286D01*
X12884952Y-6992905D01*
X13006857Y-7027190D02*
X12961143Y-7027190D01*
X12984000Y-7027190D02*
X12984000Y-6947190D01*
X12976381Y-6958619D01*
X12968762Y-6966238D01*
X12961143Y-6970048D01*
X13033524Y-6947190D02*
X13083048Y-6947190D01*
X13056381Y-6977667D01*
X13067809Y-6977667D01*
X13075428Y-6981476D01*
X13079238Y-6985286D01*
X13083048Y-6992905D01*
X13083048Y-7011952D01*
X13079238Y-7019571D01*
X13075428Y-7023381D01*
X13067809Y-7027190D01*
X13044952Y-7027190D01*
X13037333Y-7023381D01*
X13033524Y-7019571D01*
D13*
X12220238Y-8561905D02*
X12172619Y-8595238D01*
X12220238Y-8619048D02*
X12120238Y-8619048D01*
X12120238Y-8580952D01*
X12125000Y-8571429D01*
X12129762Y-8566667D01*
X12139286Y-8561905D01*
X12153571Y-8561905D01*
X12163095Y-8566667D01*
X12167857Y-8571429D01*
X12172619Y-8580952D01*
X12172619Y-8619048D01*
X12120238Y-8476190D02*
X12120238Y-8495238D01*
X12125000Y-8504762D01*
X12129762Y-8509524D01*
X12144048Y-8519048D01*
X12163095Y-8523810D01*
X12201190Y-8523810D01*
X12210714Y-8519048D01*
X12215476Y-8514286D01*
X12220238Y-8504762D01*
X12220238Y-8485714D01*
X12215476Y-8476190D01*
X12210714Y-8471429D01*
X12201190Y-8466667D01*
X12177381Y-8466667D01*
X12167857Y-8471429D01*
X12163095Y-8476190D01*
X12158333Y-8485714D01*
X12158333Y-8504762D01*
X12163095Y-8514286D01*
X12167857Y-8519048D01*
X12177381Y-8523810D01*
X12120238Y-8404762D02*
X12120238Y-8395238D01*
X12125000Y-8385714D01*
X12129762Y-8380952D01*
X12139286Y-8376190D01*
X12158333Y-8371428D01*
X12182143Y-8371428D01*
X12201190Y-8376190D01*
X12210714Y-8380952D01*
X12215476Y-8385714D01*
X12220238Y-8395238D01*
X12220238Y-8404762D01*
X12215476Y-8414286D01*
X12210714Y-8419048D01*
X12201190Y-8423810D01*
X12182143Y-8428571D01*
X12158333Y-8428571D01*
X12139286Y-8423810D01*
X12129762Y-8419048D01*
X12125000Y-8414286D01*
X12120238Y-8404762D01*
X12163095Y-8314286D02*
X12158333Y-8323809D01*
X12153571Y-8328571D01*
X12144048Y-8333333D01*
X12139286Y-8333333D01*
X12129762Y-8328571D01*
X12125000Y-8323809D01*
X12120238Y-8314286D01*
X12120238Y-8295238D01*
X12125000Y-8285714D01*
X12129762Y-8280952D01*
X12139286Y-8276190D01*
X12144048Y-8276190D01*
X12153571Y-8280952D01*
X12158333Y-8285714D01*
X12163095Y-8295238D01*
X12163095Y-8314286D01*
X12167857Y-8323809D01*
X12172619Y-8328571D01*
X12182143Y-8333333D01*
X12201190Y-8333333D01*
X12210714Y-8328571D01*
X12215476Y-8323809D01*
X12220238Y-8314286D01*
X12220238Y-8295238D01*
X12215476Y-8285714D01*
X12210714Y-8280952D01*
X12201190Y-8276190D01*
X12182143Y-8276190D01*
X12172619Y-8280952D01*
X12167857Y-8285714D01*
X12163095Y-8295238D01*
X12220238Y-6711905D02*
X12172619Y-6745238D01*
X12220238Y-6769048D02*
X12120238Y-6769048D01*
X12120238Y-6730952D01*
X12125000Y-6721428D01*
X12129762Y-6716667D01*
X12139286Y-6711905D01*
X12153571Y-6711905D01*
X12163095Y-6716667D01*
X12167857Y-6721428D01*
X12172619Y-6730952D01*
X12172619Y-6769048D01*
X12120238Y-6626190D02*
X12120238Y-6645238D01*
X12125000Y-6654762D01*
X12129762Y-6659524D01*
X12144048Y-6669048D01*
X12163095Y-6673809D01*
X12201190Y-6673809D01*
X12210714Y-6669048D01*
X12215476Y-6664286D01*
X12220238Y-6654762D01*
X12220238Y-6635714D01*
X12215476Y-6626190D01*
X12210714Y-6621428D01*
X12201190Y-6616667D01*
X12177381Y-6616667D01*
X12167857Y-6621428D01*
X12163095Y-6626190D01*
X12158333Y-6635714D01*
X12158333Y-6654762D01*
X12163095Y-6664286D01*
X12167857Y-6669048D01*
X12177381Y-6673809D01*
X12120238Y-6554762D02*
X12120238Y-6545238D01*
X12125000Y-6535714D01*
X12129762Y-6530952D01*
X12139286Y-6526190D01*
X12158333Y-6521428D01*
X12182143Y-6521428D01*
X12201190Y-6526190D01*
X12210714Y-6530952D01*
X12215476Y-6535714D01*
X12220238Y-6545238D01*
X12220238Y-6554762D01*
X12215476Y-6564286D01*
X12210714Y-6569048D01*
X12201190Y-6573809D01*
X12182143Y-6578571D01*
X12158333Y-6578571D01*
X12139286Y-6573809D01*
X12129762Y-6569048D01*
X12125000Y-6564286D01*
X12120238Y-6554762D01*
X12120238Y-6488095D02*
X12120238Y-6421428D01*
X12220238Y-6464286D01*
D11*
X12228571Y-7389524D02*
X12232381Y-7393333D01*
X12236190Y-7404762D01*
X12236190Y-7412381D01*
X12232381Y-7423809D01*
X12224762Y-7431428D01*
X12217143Y-7435238D01*
X12201905Y-7439048D01*
X12190476Y-7439048D01*
X12175238Y-7435238D01*
X12167619Y-7431428D01*
X12160000Y-7423809D01*
X12156190Y-7412381D01*
X12156190Y-7404762D01*
X12160000Y-7393333D01*
X12163809Y-7389524D01*
X12156190Y-7320952D02*
X12156190Y-7336190D01*
X12160000Y-7343809D01*
X12163809Y-7347619D01*
X12175238Y-7355238D01*
X12190476Y-7359048D01*
X12220952Y-7359048D01*
X12228571Y-7355238D01*
X12232381Y-7351428D01*
X12236190Y-7343809D01*
X12236190Y-7328571D01*
X12232381Y-7320952D01*
X12228571Y-7317143D01*
X12220952Y-7313333D01*
X12201905Y-7313333D01*
X12194286Y-7317143D01*
X12190476Y-7320952D01*
X12186667Y-7328571D01*
X12186667Y-7343809D01*
X12190476Y-7351428D01*
X12194286Y-7355238D01*
X12201905Y-7359048D01*
X12156190Y-7263809D02*
X12156190Y-7256190D01*
X12160000Y-7248571D01*
X12163809Y-7244762D01*
X12171428Y-7240952D01*
X12186667Y-7237143D01*
X12205714Y-7237143D01*
X12220952Y-7240952D01*
X12228571Y-7244762D01*
X12232381Y-7248571D01*
X12236190Y-7256190D01*
X12236190Y-7263809D01*
X12232381Y-7271428D01*
X12228571Y-7275238D01*
X12220952Y-7279048D01*
X12205714Y-7282857D01*
X12186667Y-7282857D01*
X12171428Y-7279048D01*
X12163809Y-7275238D01*
X12160000Y-7271428D01*
X12156190Y-7263809D01*
X12156190Y-7168571D02*
X12156190Y-7183809D01*
X12160000Y-7191428D01*
X12163809Y-7195238D01*
X12175238Y-7202857D01*
X12190476Y-7206667D01*
X12220952Y-7206667D01*
X12228571Y-7202857D01*
X12232381Y-7199048D01*
X12236190Y-7191428D01*
X12236190Y-7176190D01*
X12232381Y-7168571D01*
X12228571Y-7164762D01*
X12220952Y-7160952D01*
X12201905Y-7160952D01*
X12194286Y-7164762D01*
X12190476Y-7168571D01*
X12186667Y-7176190D01*
X12186667Y-7191428D01*
X12190476Y-7199048D01*
X12194286Y-7202857D01*
X12201905Y-7206667D01*
X12228571Y-9239524D02*
X12232381Y-9243333D01*
X12236190Y-9254762D01*
X12236190Y-9262381D01*
X12232381Y-9273810D01*
X12224762Y-9281429D01*
X12217143Y-9285238D01*
X12201905Y-9289048D01*
X12190476Y-9289048D01*
X12175238Y-9285238D01*
X12167619Y-9281429D01*
X12160000Y-9273810D01*
X12156190Y-9262381D01*
X12156190Y-9254762D01*
X12160000Y-9243333D01*
X12163809Y-9239524D01*
X12156190Y-9170952D02*
X12156190Y-9186190D01*
X12160000Y-9193810D01*
X12163809Y-9197619D01*
X12175238Y-9205238D01*
X12190476Y-9209048D01*
X12220952Y-9209048D01*
X12228571Y-9205238D01*
X12232381Y-9201429D01*
X12236190Y-9193810D01*
X12236190Y-9178571D01*
X12232381Y-9170952D01*
X12228571Y-9167143D01*
X12220952Y-9163333D01*
X12201905Y-9163333D01*
X12194286Y-9167143D01*
X12190476Y-9170952D01*
X12186667Y-9178571D01*
X12186667Y-9193810D01*
X12190476Y-9201429D01*
X12194286Y-9205238D01*
X12201905Y-9209048D01*
X12156190Y-9113810D02*
X12156190Y-9106190D01*
X12160000Y-9098571D01*
X12163809Y-9094762D01*
X12171428Y-9090952D01*
X12186667Y-9087143D01*
X12205714Y-9087143D01*
X12220952Y-9090952D01*
X12228571Y-9094762D01*
X12232381Y-9098571D01*
X12236190Y-9106190D01*
X12236190Y-9113810D01*
X12232381Y-9121429D01*
X12228571Y-9125238D01*
X12220952Y-9129048D01*
X12205714Y-9132857D01*
X12186667Y-9132857D01*
X12171428Y-9129048D01*
X12163809Y-9125238D01*
X12160000Y-9121429D01*
X12156190Y-9113810D01*
X12156190Y-9060476D02*
X12156190Y-9007143D01*
X12236190Y-9041429D01*
D13*
X5645238Y-12108571D02*
X5716667Y-12108571D01*
X5730952Y-12113333D01*
X5740476Y-12122857D01*
X5745238Y-12137143D01*
X5745238Y-12146667D01*
X5645238Y-12018095D02*
X5645238Y-12037143D01*
X5650000Y-12046667D01*
X5654762Y-12051428D01*
X5669048Y-12060952D01*
X5688095Y-12065714D01*
X5726190Y-12065714D01*
X5735714Y-12060952D01*
X5740476Y-12056190D01*
X5745238Y-12046667D01*
X5745238Y-12027619D01*
X5740476Y-12018095D01*
X5735714Y-12013333D01*
X5726190Y-12008571D01*
X5702381Y-12008571D01*
X5692857Y-12013333D01*
X5688095Y-12018095D01*
X5683333Y-12027619D01*
X5683333Y-12046667D01*
X5688095Y-12056190D01*
X5692857Y-12060952D01*
X5702381Y-12065714D01*
X5745238Y-11913333D02*
X5745238Y-11970476D01*
X5745238Y-11941905D02*
X5645238Y-11941905D01*
X5659524Y-11951428D01*
X5669048Y-11960952D01*
X5673809Y-11970476D01*
X5645238Y-11880000D02*
X5645238Y-11818095D01*
X5683333Y-11851428D01*
X5683333Y-11837143D01*
X5688095Y-11827619D01*
X5692857Y-11822857D01*
X5702381Y-11818095D01*
X5726190Y-11818095D01*
X5735714Y-11822857D01*
X5740476Y-11827619D01*
X5745238Y-11837143D01*
X5745238Y-11865714D01*
X5740476Y-11875238D01*
X5735714Y-11880000D01*
X10720238Y-9119048D02*
X10620238Y-9119048D01*
X10620238Y-9095238D01*
X10625000Y-9080952D01*
X10634524Y-9071429D01*
X10644048Y-9066667D01*
X10663095Y-9061905D01*
X10677381Y-9061905D01*
X10696429Y-9066667D01*
X10705952Y-9071429D01*
X10715476Y-9080952D01*
X10720238Y-9095238D01*
X10720238Y-9119048D01*
X10620238Y-8976190D02*
X10620238Y-8995238D01*
X10625000Y-9004762D01*
X10629762Y-9009524D01*
X10644048Y-9019048D01*
X10663095Y-9023810D01*
X10701190Y-9023810D01*
X10710714Y-9019048D01*
X10715476Y-9014286D01*
X10720238Y-9004762D01*
X10720238Y-8985714D01*
X10715476Y-8976190D01*
X10710714Y-8971429D01*
X10701190Y-8966667D01*
X10677381Y-8966667D01*
X10667857Y-8971429D01*
X10663095Y-8976190D01*
X10658333Y-8985714D01*
X10658333Y-9004762D01*
X10663095Y-9014286D01*
X10667857Y-9019048D01*
X10677381Y-9023810D01*
X10620238Y-8904762D02*
X10620238Y-8895238D01*
X10625000Y-8885714D01*
X10629762Y-8880952D01*
X10639286Y-8876190D01*
X10658333Y-8871429D01*
X10682143Y-8871429D01*
X10701190Y-8876190D01*
X10710714Y-8880952D01*
X10715476Y-8885714D01*
X10720238Y-8895238D01*
X10720238Y-8904762D01*
X10715476Y-8914286D01*
X10710714Y-8919048D01*
X10701190Y-8923810D01*
X10682143Y-8928571D01*
X10658333Y-8928571D01*
X10639286Y-8923810D01*
X10629762Y-8919048D01*
X10625000Y-8914286D01*
X10620238Y-8904762D01*
X10629762Y-8833333D02*
X10625000Y-8828571D01*
X10620238Y-8819048D01*
X10620238Y-8795238D01*
X10625000Y-8785714D01*
X10629762Y-8780952D01*
X10639286Y-8776190D01*
X10648810Y-8776190D01*
X10663095Y-8780952D01*
X10720238Y-8838095D01*
X10720238Y-8776190D01*
X7083095Y-8375714D02*
X7078333Y-8380476D01*
X7064048Y-8385238D01*
X7054524Y-8385238D01*
X7040238Y-8380476D01*
X7030714Y-8370952D01*
X7025952Y-8361428D01*
X7021190Y-8342381D01*
X7021190Y-8328095D01*
X7025952Y-8309048D01*
X7030714Y-8299524D01*
X7040238Y-8290000D01*
X7054524Y-8285238D01*
X7064048Y-8285238D01*
X7078333Y-8290000D01*
X7083095Y-8294762D01*
X7168809Y-8285238D02*
X7149762Y-8285238D01*
X7140238Y-8290000D01*
X7135476Y-8294762D01*
X7125952Y-8309048D01*
X7121190Y-8328095D01*
X7121190Y-8366190D01*
X7125952Y-8375714D01*
X7130714Y-8380476D01*
X7140238Y-8385238D01*
X7159286Y-8385238D01*
X7168809Y-8380476D01*
X7173571Y-8375714D01*
X7178333Y-8366190D01*
X7178333Y-8342381D01*
X7173571Y-8332857D01*
X7168809Y-8328095D01*
X7159286Y-8323333D01*
X7140238Y-8323333D01*
X7130714Y-8328095D01*
X7125952Y-8332857D01*
X7121190Y-8342381D01*
X7273571Y-8385238D02*
X7216428Y-8385238D01*
X7245000Y-8385238D02*
X7245000Y-8285238D01*
X7235476Y-8299524D01*
X7225952Y-8309048D01*
X7216428Y-8313809D01*
X7335476Y-8285238D02*
X7345000Y-8285238D01*
X7354524Y-8290000D01*
X7359286Y-8294762D01*
X7364048Y-8304286D01*
X7368809Y-8323333D01*
X7368809Y-8347143D01*
X7364048Y-8366190D01*
X7359286Y-8375714D01*
X7354524Y-8380476D01*
X7345000Y-8385238D01*
X7335476Y-8385238D01*
X7325952Y-8380476D01*
X7321190Y-8375714D01*
X7316428Y-8366190D01*
X7311667Y-8347143D01*
X7311667Y-8323333D01*
X7316428Y-8304286D01*
X7321190Y-8294762D01*
X7325952Y-8290000D01*
X7335476Y-8285238D01*
X7083095Y-9690714D02*
X7078333Y-9695476D01*
X7064048Y-9700238D01*
X7054524Y-9700238D01*
X7040238Y-9695476D01*
X7030714Y-9685952D01*
X7025952Y-9676429D01*
X7021190Y-9657381D01*
X7021190Y-9643095D01*
X7025952Y-9624048D01*
X7030714Y-9614524D01*
X7040238Y-9605000D01*
X7054524Y-9600238D01*
X7064048Y-9600238D01*
X7078333Y-9605000D01*
X7083095Y-9609762D01*
X7168809Y-9600238D02*
X7149762Y-9600238D01*
X7140238Y-9605000D01*
X7135476Y-9609762D01*
X7125952Y-9624048D01*
X7121190Y-9643095D01*
X7121190Y-9681190D01*
X7125952Y-9690714D01*
X7130714Y-9695476D01*
X7140238Y-9700238D01*
X7159286Y-9700238D01*
X7168809Y-9695476D01*
X7173571Y-9690714D01*
X7178333Y-9681190D01*
X7178333Y-9657381D01*
X7173571Y-9647857D01*
X7168809Y-9643095D01*
X7159286Y-9638333D01*
X7140238Y-9638333D01*
X7130714Y-9643095D01*
X7125952Y-9647857D01*
X7121190Y-9657381D01*
X7240238Y-9600238D02*
X7249762Y-9600238D01*
X7259286Y-9605000D01*
X7264048Y-9609762D01*
X7268809Y-9619286D01*
X7273571Y-9638333D01*
X7273571Y-9662143D01*
X7268809Y-9681190D01*
X7264048Y-9690714D01*
X7259286Y-9695476D01*
X7249762Y-9700238D01*
X7240238Y-9700238D01*
X7230714Y-9695476D01*
X7225952Y-9690714D01*
X7221190Y-9681190D01*
X7216428Y-9662143D01*
X7216428Y-9638333D01*
X7221190Y-9619286D01*
X7225952Y-9609762D01*
X7230714Y-9605000D01*
X7240238Y-9600238D01*
X7321190Y-9700238D02*
X7340238Y-9700238D01*
X7349762Y-9695476D01*
X7354524Y-9690714D01*
X7364048Y-9676429D01*
X7368809Y-9657381D01*
X7368809Y-9619286D01*
X7364048Y-9609762D01*
X7359286Y-9605000D01*
X7349762Y-9600238D01*
X7330714Y-9600238D01*
X7321190Y-9605000D01*
X7316428Y-9609762D01*
X7311667Y-9619286D01*
X7311667Y-9643095D01*
X7316428Y-9652619D01*
X7321190Y-9657381D01*
X7330714Y-9662143D01*
X7349762Y-9662143D01*
X7359286Y-9657381D01*
X7364048Y-9652619D01*
X7368809Y-9643095D01*
D14*
X11122619Y-6405952D02*
X11098810Y-6422619D01*
X11122619Y-6434524D02*
X11072619Y-6434524D01*
X11072619Y-6415476D01*
X11075000Y-6410714D01*
X11077381Y-6408333D01*
X11082143Y-6405952D01*
X11089286Y-6405952D01*
X11094048Y-6408333D01*
X11096429Y-6410714D01*
X11098810Y-6415476D01*
X11098810Y-6434524D01*
X11072619Y-6363095D02*
X11072619Y-6372619D01*
X11075000Y-6377381D01*
X11077381Y-6379762D01*
X11084524Y-6384524D01*
X11094048Y-6386905D01*
X11113095Y-6386905D01*
X11117857Y-6384524D01*
X11120238Y-6382143D01*
X11122619Y-6377381D01*
X11122619Y-6367857D01*
X11120238Y-6363095D01*
X11117857Y-6360714D01*
X11113095Y-6358333D01*
X11101190Y-6358333D01*
X11096429Y-6360714D01*
X11094048Y-6363095D01*
X11091667Y-6367857D01*
X11091667Y-6377381D01*
X11094048Y-6382143D01*
X11096429Y-6384524D01*
X11101190Y-6386905D01*
X11072619Y-6327381D02*
X11072619Y-6322619D01*
X11075000Y-6317857D01*
X11077381Y-6315476D01*
X11082143Y-6313095D01*
X11091667Y-6310714D01*
X11103571Y-6310714D01*
X11113095Y-6313095D01*
X11117857Y-6315476D01*
X11120238Y-6317857D01*
X11122619Y-6322619D01*
X11122619Y-6327381D01*
X11120238Y-6332143D01*
X11117857Y-6334524D01*
X11113095Y-6336905D01*
X11103571Y-6339286D01*
X11091667Y-6339286D01*
X11082143Y-6336905D01*
X11077381Y-6334524D01*
X11075000Y-6332143D01*
X11072619Y-6327381D01*
X11072619Y-6265476D02*
X11072619Y-6289286D01*
X11096429Y-6291667D01*
X11094048Y-6289286D01*
X11091667Y-6284524D01*
X11091667Y-6272619D01*
X11094048Y-6267857D01*
X11096429Y-6265476D01*
X11101190Y-6263095D01*
X11113095Y-6263095D01*
X11117857Y-6265476D01*
X11120238Y-6267857D01*
X11122619Y-6272619D01*
X11122619Y-6284524D01*
X11120238Y-6289286D01*
X11117857Y-6291667D01*
X11122619Y-8255952D02*
X11098810Y-8272619D01*
X11122619Y-8284524D02*
X11072619Y-8284524D01*
X11072619Y-8265476D01*
X11075000Y-8260714D01*
X11077381Y-8258333D01*
X11082143Y-8255952D01*
X11089286Y-8255952D01*
X11094048Y-8258333D01*
X11096429Y-8260714D01*
X11098810Y-8265476D01*
X11098810Y-8284524D01*
X11072619Y-8213095D02*
X11072619Y-8222619D01*
X11075000Y-8227381D01*
X11077381Y-8229762D01*
X11084524Y-8234524D01*
X11094048Y-8236905D01*
X11113095Y-8236905D01*
X11117857Y-8234524D01*
X11120238Y-8232143D01*
X11122619Y-8227381D01*
X11122619Y-8217857D01*
X11120238Y-8213095D01*
X11117857Y-8210714D01*
X11113095Y-8208333D01*
X11101190Y-8208333D01*
X11096429Y-8210714D01*
X11094048Y-8213095D01*
X11091667Y-8217857D01*
X11091667Y-8227381D01*
X11094048Y-8232143D01*
X11096429Y-8234524D01*
X11101190Y-8236905D01*
X11072619Y-8177381D02*
X11072619Y-8172619D01*
X11075000Y-8167857D01*
X11077381Y-8165476D01*
X11082143Y-8163095D01*
X11091667Y-8160714D01*
X11103571Y-8160714D01*
X11113095Y-8163095D01*
X11117857Y-8165476D01*
X11120238Y-8167857D01*
X11122619Y-8172619D01*
X11122619Y-8177381D01*
X11120238Y-8182143D01*
X11117857Y-8184524D01*
X11113095Y-8186905D01*
X11103571Y-8189286D01*
X11091667Y-8189286D01*
X11082143Y-8186905D01*
X11077381Y-8184524D01*
X11075000Y-8182143D01*
X11072619Y-8177381D01*
X11089286Y-8117857D02*
X11122619Y-8117857D01*
X11070238Y-8129762D02*
X11105952Y-8141667D01*
X11105952Y-8110714D01*
X10644048Y-6372619D02*
X10627381Y-6348809D01*
X10615476Y-6372619D02*
X10615476Y-6322619D01*
X10634524Y-6322619D01*
X10639286Y-6325000D01*
X10641667Y-6327381D01*
X10644048Y-6332143D01*
X10644048Y-6339286D01*
X10641667Y-6344048D01*
X10639286Y-6346428D01*
X10634524Y-6348809D01*
X10615476Y-6348809D01*
X10686905Y-6322619D02*
X10677381Y-6322619D01*
X10672619Y-6325000D01*
X10670238Y-6327381D01*
X10665476Y-6334524D01*
X10663095Y-6344048D01*
X10663095Y-6363095D01*
X10665476Y-6367857D01*
X10667857Y-6370238D01*
X10672619Y-6372619D01*
X10682143Y-6372619D01*
X10686905Y-6370238D01*
X10689286Y-6367857D01*
X10691667Y-6363095D01*
X10691667Y-6351190D01*
X10689286Y-6346428D01*
X10686905Y-6344048D01*
X10682143Y-6341667D01*
X10672619Y-6341667D01*
X10667857Y-6344048D01*
X10665476Y-6346428D01*
X10663095Y-6351190D01*
X10722619Y-6322619D02*
X10727381Y-6322619D01*
X10732143Y-6325000D01*
X10734524Y-6327381D01*
X10736905Y-6332143D01*
X10739286Y-6341667D01*
X10739286Y-6353571D01*
X10736905Y-6363095D01*
X10734524Y-6367857D01*
X10732143Y-6370238D01*
X10727381Y-6372619D01*
X10722619Y-6372619D01*
X10717857Y-6370238D01*
X10715476Y-6367857D01*
X10713095Y-6363095D01*
X10710714Y-6353571D01*
X10710714Y-6341667D01*
X10713095Y-6332143D01*
X10715476Y-6327381D01*
X10717857Y-6325000D01*
X10722619Y-6322619D01*
X10755952Y-6322619D02*
X10786905Y-6322619D01*
X10770238Y-6341667D01*
X10777381Y-6341667D01*
X10782143Y-6344048D01*
X10784524Y-6346428D01*
X10786905Y-6351190D01*
X10786905Y-6363095D01*
X10784524Y-6367857D01*
X10782143Y-6370238D01*
X10777381Y-6372619D01*
X10763095Y-6372619D01*
X10758333Y-6370238D01*
X10755952Y-6367857D01*
X10644048Y-8222619D02*
X10627381Y-8198809D01*
X10615476Y-8222619D02*
X10615476Y-8172619D01*
X10634524Y-8172619D01*
X10639286Y-8175000D01*
X10641667Y-8177381D01*
X10644048Y-8182143D01*
X10644048Y-8189286D01*
X10641667Y-8194048D01*
X10639286Y-8196428D01*
X10634524Y-8198809D01*
X10615476Y-8198809D01*
X10686905Y-8172619D02*
X10677381Y-8172619D01*
X10672619Y-8175000D01*
X10670238Y-8177381D01*
X10665476Y-8184524D01*
X10663095Y-8194048D01*
X10663095Y-8213095D01*
X10665476Y-8217857D01*
X10667857Y-8220238D01*
X10672619Y-8222619D01*
X10682143Y-8222619D01*
X10686905Y-8220238D01*
X10689286Y-8217857D01*
X10691667Y-8213095D01*
X10691667Y-8201190D01*
X10689286Y-8196428D01*
X10686905Y-8194048D01*
X10682143Y-8191667D01*
X10672619Y-8191667D01*
X10667857Y-8194048D01*
X10665476Y-8196428D01*
X10663095Y-8201190D01*
X10722619Y-8172619D02*
X10727381Y-8172619D01*
X10732143Y-8175000D01*
X10734524Y-8177381D01*
X10736905Y-8182143D01*
X10739286Y-8191667D01*
X10739286Y-8203571D01*
X10736905Y-8213095D01*
X10734524Y-8217857D01*
X10732143Y-8220238D01*
X10727381Y-8222619D01*
X10722619Y-8222619D01*
X10717857Y-8220238D01*
X10715476Y-8217857D01*
X10713095Y-8213095D01*
X10710714Y-8203571D01*
X10710714Y-8191667D01*
X10713095Y-8182143D01*
X10715476Y-8177381D01*
X10717857Y-8175000D01*
X10722619Y-8172619D01*
X10758333Y-8177381D02*
X10760714Y-8175000D01*
X10765476Y-8172619D01*
X10777381Y-8172619D01*
X10782143Y-8175000D01*
X10784524Y-8177381D01*
X10786905Y-8182143D01*
X10786905Y-8186905D01*
X10784524Y-8194048D01*
X10755952Y-8222619D01*
X10786905Y-8222619D01*
D13*
X5645238Y-10308571D02*
X5716667Y-10308571D01*
X5730952Y-10313333D01*
X5740476Y-10322857D01*
X5745238Y-10337143D01*
X5745238Y-10346667D01*
X5645238Y-10218095D02*
X5645238Y-10237143D01*
X5650000Y-10246667D01*
X5654762Y-10251429D01*
X5669048Y-10260952D01*
X5688095Y-10265714D01*
X5726190Y-10265714D01*
X5735714Y-10260952D01*
X5740476Y-10256190D01*
X5745238Y-10246667D01*
X5745238Y-10227619D01*
X5740476Y-10218095D01*
X5735714Y-10213333D01*
X5726190Y-10208571D01*
X5702381Y-10208571D01*
X5692857Y-10213333D01*
X5688095Y-10218095D01*
X5683333Y-10227619D01*
X5683333Y-10246667D01*
X5688095Y-10256190D01*
X5692857Y-10260952D01*
X5702381Y-10265714D01*
X5745238Y-10113333D02*
X5745238Y-10170476D01*
X5745238Y-10141905D02*
X5645238Y-10141905D01*
X5659524Y-10151429D01*
X5669048Y-10160952D01*
X5673809Y-10170476D01*
X5678571Y-10027619D02*
X5745238Y-10027619D01*
X5640476Y-10051429D02*
X5711905Y-10075238D01*
X5711905Y-10013333D01*
X5645238Y-8298571D02*
X5716667Y-8298571D01*
X5730952Y-8303333D01*
X5740476Y-8312857D01*
X5745238Y-8327143D01*
X5745238Y-8336667D01*
X5645238Y-8208095D02*
X5645238Y-8227143D01*
X5650000Y-8236667D01*
X5654762Y-8241428D01*
X5669048Y-8250952D01*
X5688095Y-8255714D01*
X5726190Y-8255714D01*
X5735714Y-8250952D01*
X5740476Y-8246190D01*
X5745238Y-8236667D01*
X5745238Y-8217619D01*
X5740476Y-8208095D01*
X5735714Y-8203333D01*
X5726190Y-8198571D01*
X5702381Y-8198571D01*
X5692857Y-8203333D01*
X5688095Y-8208095D01*
X5683333Y-8217619D01*
X5683333Y-8236667D01*
X5688095Y-8246190D01*
X5692857Y-8250952D01*
X5702381Y-8255714D01*
X5745238Y-8103333D02*
X5745238Y-8160476D01*
X5745238Y-8131905D02*
X5645238Y-8131905D01*
X5659524Y-8141428D01*
X5669048Y-8150952D01*
X5673809Y-8160476D01*
X5654762Y-8065238D02*
X5650000Y-8060476D01*
X5645238Y-8050952D01*
X5645238Y-8027143D01*
X5650000Y-8017619D01*
X5654762Y-8012857D01*
X5664286Y-8008095D01*
X5673809Y-8008095D01*
X5688095Y-8012857D01*
X5745238Y-8070000D01*
X5745238Y-8008095D01*
X5645238Y-6398571D02*
X5716667Y-6398571D01*
X5730952Y-6403333D01*
X5740476Y-6412857D01*
X5745238Y-6427143D01*
X5745238Y-6436667D01*
X5645238Y-6308095D02*
X5645238Y-6327143D01*
X5650000Y-6336667D01*
X5654762Y-6341428D01*
X5669048Y-6350952D01*
X5688095Y-6355714D01*
X5726190Y-6355714D01*
X5735714Y-6350952D01*
X5740476Y-6346190D01*
X5745238Y-6336667D01*
X5745238Y-6317619D01*
X5740476Y-6308095D01*
X5735714Y-6303333D01*
X5726190Y-6298571D01*
X5702381Y-6298571D01*
X5692857Y-6303333D01*
X5688095Y-6308095D01*
X5683333Y-6317619D01*
X5683333Y-6336667D01*
X5688095Y-6346190D01*
X5692857Y-6350952D01*
X5702381Y-6355714D01*
X5745238Y-6203333D02*
X5745238Y-6260476D01*
X5745238Y-6231905D02*
X5645238Y-6231905D01*
X5659524Y-6241428D01*
X5669048Y-6250952D01*
X5673809Y-6260476D01*
X5745238Y-6108095D02*
X5745238Y-6165238D01*
X5745238Y-6136667D02*
X5645238Y-6136667D01*
X5659524Y-6146190D01*
X5669048Y-6155714D01*
X5673809Y-6165238D01*
X10970238Y-7316667D02*
X10870238Y-7316667D01*
X10870238Y-7292857D01*
X10875000Y-7278571D01*
X10884524Y-7269048D01*
X10894048Y-7264286D01*
X10913095Y-7259524D01*
X10927381Y-7259524D01*
X10946429Y-7264286D01*
X10955952Y-7269048D01*
X10965476Y-7278571D01*
X10970238Y-7292857D01*
X10970238Y-7316667D01*
X10870238Y-7226190D02*
X10870238Y-7159524D01*
X10970238Y-7226190D01*
X10970238Y-7159524D01*
X10870238Y-7078571D02*
X10870238Y-7097619D01*
X10875000Y-7107143D01*
X10879762Y-7111905D01*
X10894048Y-7121428D01*
X10913095Y-7126190D01*
X10951190Y-7126190D01*
X10960714Y-7121428D01*
X10965476Y-7116667D01*
X10970238Y-7107143D01*
X10970238Y-7088095D01*
X10965476Y-7078571D01*
X10960714Y-7073809D01*
X10951190Y-7069048D01*
X10927381Y-7069048D01*
X10917857Y-7073809D01*
X10913095Y-7078571D01*
X10908333Y-7088095D01*
X10908333Y-7107143D01*
X10913095Y-7116667D01*
X10917857Y-7121428D01*
X10927381Y-7126190D01*
X10870238Y-7007143D02*
X10870238Y-6997619D01*
X10875000Y-6988095D01*
X10879762Y-6983333D01*
X10889286Y-6978571D01*
X10908333Y-6973809D01*
X10932143Y-6973809D01*
X10951190Y-6978571D01*
X10960714Y-6983333D01*
X10965476Y-6988095D01*
X10970238Y-6997619D01*
X10970238Y-7007143D01*
X10965476Y-7016667D01*
X10960714Y-7021428D01*
X10951190Y-7026190D01*
X10932143Y-7030952D01*
X10908333Y-7030952D01*
X10889286Y-7026190D01*
X10879762Y-7021428D01*
X10875000Y-7016667D01*
X10870238Y-7007143D01*
X10903571Y-6888095D02*
X10970238Y-6888095D01*
X10865476Y-6911905D02*
X10936905Y-6935714D01*
X10936905Y-6873809D01*
X10670238Y-7316667D02*
X10570238Y-7316667D01*
X10570238Y-7292857D01*
X10575000Y-7278571D01*
X10584524Y-7269048D01*
X10594048Y-7264286D01*
X10613095Y-7259524D01*
X10627381Y-7259524D01*
X10646429Y-7264286D01*
X10655952Y-7269048D01*
X10665476Y-7278571D01*
X10670238Y-7292857D01*
X10670238Y-7316667D01*
X10570238Y-7226190D02*
X10570238Y-7159524D01*
X10670238Y-7226190D01*
X10670238Y-7159524D01*
X10570238Y-7078571D02*
X10570238Y-7097619D01*
X10575000Y-7107143D01*
X10579762Y-7111905D01*
X10594048Y-7121428D01*
X10613095Y-7126190D01*
X10651190Y-7126190D01*
X10660714Y-7121428D01*
X10665476Y-7116667D01*
X10670238Y-7107143D01*
X10670238Y-7088095D01*
X10665476Y-7078571D01*
X10660714Y-7073809D01*
X10651190Y-7069048D01*
X10627381Y-7069048D01*
X10617857Y-7073809D01*
X10613095Y-7078571D01*
X10608333Y-7088095D01*
X10608333Y-7107143D01*
X10613095Y-7116667D01*
X10617857Y-7121428D01*
X10627381Y-7126190D01*
X10570238Y-7007143D02*
X10570238Y-6997619D01*
X10575000Y-6988095D01*
X10579762Y-6983333D01*
X10589286Y-6978571D01*
X10608333Y-6973809D01*
X10632143Y-6973809D01*
X10651190Y-6978571D01*
X10660714Y-6983333D01*
X10665476Y-6988095D01*
X10670238Y-6997619D01*
X10670238Y-7007143D01*
X10665476Y-7016667D01*
X10660714Y-7021428D01*
X10651190Y-7026190D01*
X10632143Y-7030952D01*
X10608333Y-7030952D01*
X10589286Y-7026190D01*
X10579762Y-7021428D01*
X10575000Y-7016667D01*
X10570238Y-7007143D01*
X10570238Y-6940476D02*
X10570238Y-6878571D01*
X10608333Y-6911905D01*
X10608333Y-6897619D01*
X10613095Y-6888095D01*
X10617857Y-6883333D01*
X10627381Y-6878571D01*
X10651190Y-6878571D01*
X10660714Y-6883333D01*
X10665476Y-6888095D01*
X10670238Y-6897619D01*
X10670238Y-6926190D01*
X10665476Y-6935714D01*
X10660714Y-6940476D01*
X10970238Y-9166667D02*
X10870238Y-9166667D01*
X10870238Y-9142857D01*
X10875000Y-9128571D01*
X10884524Y-9119048D01*
X10894048Y-9114286D01*
X10913095Y-9109524D01*
X10927381Y-9109524D01*
X10946429Y-9114286D01*
X10955952Y-9119048D01*
X10965476Y-9128571D01*
X10970238Y-9142857D01*
X10970238Y-9166667D01*
X10870238Y-9076190D02*
X10870238Y-9009524D01*
X10970238Y-9076190D01*
X10970238Y-9009524D01*
X10870238Y-8928571D02*
X10870238Y-8947619D01*
X10875000Y-8957143D01*
X10879762Y-8961905D01*
X10894048Y-8971429D01*
X10913095Y-8976190D01*
X10951190Y-8976190D01*
X10960714Y-8971429D01*
X10965476Y-8966667D01*
X10970238Y-8957143D01*
X10970238Y-8938095D01*
X10965476Y-8928571D01*
X10960714Y-8923810D01*
X10951190Y-8919048D01*
X10927381Y-8919048D01*
X10917857Y-8923810D01*
X10913095Y-8928571D01*
X10908333Y-8938095D01*
X10908333Y-8957143D01*
X10913095Y-8966667D01*
X10917857Y-8971429D01*
X10927381Y-8976190D01*
X10870238Y-8857143D02*
X10870238Y-8847619D01*
X10875000Y-8838095D01*
X10879762Y-8833333D01*
X10889286Y-8828571D01*
X10908333Y-8823810D01*
X10932143Y-8823810D01*
X10951190Y-8828571D01*
X10960714Y-8833333D01*
X10965476Y-8838095D01*
X10970238Y-8847619D01*
X10970238Y-8857143D01*
X10965476Y-8866667D01*
X10960714Y-8871429D01*
X10951190Y-8876190D01*
X10932143Y-8880952D01*
X10908333Y-8880952D01*
X10889286Y-8876190D01*
X10879762Y-8871429D01*
X10875000Y-8866667D01*
X10870238Y-8857143D01*
X10879762Y-8785714D02*
X10875000Y-8780952D01*
X10870238Y-8771429D01*
X10870238Y-8747619D01*
X10875000Y-8738095D01*
X10879762Y-8733333D01*
X10889286Y-8728571D01*
X10898810Y-8728571D01*
X10913095Y-8733333D01*
X10970238Y-8790476D01*
X10970238Y-8728571D01*
X10670238Y-9166667D02*
X10570238Y-9166667D01*
X10570238Y-9142857D01*
X10575000Y-9128571D01*
X10584524Y-9119048D01*
X10594048Y-9114286D01*
X10613095Y-9109524D01*
X10627381Y-9109524D01*
X10646429Y-9114286D01*
X10655952Y-9119048D01*
X10665476Y-9128571D01*
X10670238Y-9142857D01*
X10670238Y-9166667D01*
X10570238Y-9076190D02*
X10570238Y-9009524D01*
X10670238Y-9076190D01*
X10670238Y-9009524D01*
X10570238Y-8928571D02*
X10570238Y-8947619D01*
X10575000Y-8957143D01*
X10579762Y-8961905D01*
X10594048Y-8971429D01*
X10613095Y-8976190D01*
X10651190Y-8976190D01*
X10660714Y-8971429D01*
X10665476Y-8966667D01*
X10670238Y-8957143D01*
X10670238Y-8938095D01*
X10665476Y-8928571D01*
X10660714Y-8923810D01*
X10651190Y-8919048D01*
X10627381Y-8919048D01*
X10617857Y-8923810D01*
X10613095Y-8928571D01*
X10608333Y-8938095D01*
X10608333Y-8957143D01*
X10613095Y-8966667D01*
X10617857Y-8971429D01*
X10627381Y-8976190D01*
X10570238Y-8857143D02*
X10570238Y-8847619D01*
X10575000Y-8838095D01*
X10579762Y-8833333D01*
X10589286Y-8828571D01*
X10608333Y-8823810D01*
X10632143Y-8823810D01*
X10651190Y-8828571D01*
X10660714Y-8833333D01*
X10665476Y-8838095D01*
X10670238Y-8847619D01*
X10670238Y-8857143D01*
X10665476Y-8866667D01*
X10660714Y-8871429D01*
X10651190Y-8876190D01*
X10632143Y-8880952D01*
X10608333Y-8880952D01*
X10589286Y-8876190D01*
X10579762Y-8871429D01*
X10575000Y-8866667D01*
X10570238Y-8857143D01*
X10670238Y-8728571D02*
X10670238Y-8785714D01*
X10670238Y-8757143D02*
X10570238Y-8757143D01*
X10584524Y-8766667D01*
X10594048Y-8776190D01*
X10598810Y-8785714D01*
X12395238Y-8919048D02*
X12295238Y-8919048D01*
X12295238Y-8895238D01*
X12300000Y-8880952D01*
X12309524Y-8871429D01*
X12319048Y-8866667D01*
X12338095Y-8861905D01*
X12352381Y-8861905D01*
X12371428Y-8866667D01*
X12380952Y-8871429D01*
X12390476Y-8880952D01*
X12395238Y-8895238D01*
X12395238Y-8919048D01*
X12295238Y-8776190D02*
X12295238Y-8795238D01*
X12300000Y-8804762D01*
X12304762Y-8809524D01*
X12319048Y-8819048D01*
X12338095Y-8823810D01*
X12376190Y-8823810D01*
X12385714Y-8819048D01*
X12390476Y-8814286D01*
X12395238Y-8804762D01*
X12395238Y-8785714D01*
X12390476Y-8776190D01*
X12385714Y-8771429D01*
X12376190Y-8766667D01*
X12352381Y-8766667D01*
X12342857Y-8771429D01*
X12338095Y-8776190D01*
X12333333Y-8785714D01*
X12333333Y-8804762D01*
X12338095Y-8814286D01*
X12342857Y-8819048D01*
X12352381Y-8823810D01*
X12295238Y-8704762D02*
X12295238Y-8695238D01*
X12300000Y-8685714D01*
X12304762Y-8680952D01*
X12314286Y-8676190D01*
X12333333Y-8671429D01*
X12357143Y-8671429D01*
X12376190Y-8676190D01*
X12385714Y-8680952D01*
X12390476Y-8685714D01*
X12395238Y-8695238D01*
X12395238Y-8704762D01*
X12390476Y-8714286D01*
X12385714Y-8719048D01*
X12376190Y-8723810D01*
X12357143Y-8728571D01*
X12333333Y-8728571D01*
X12314286Y-8723810D01*
X12304762Y-8719048D01*
X12300000Y-8714286D01*
X12295238Y-8704762D01*
X12295238Y-8580952D02*
X12295238Y-8628571D01*
X12342857Y-8633333D01*
X12338095Y-8628571D01*
X12333333Y-8619048D01*
X12333333Y-8595238D01*
X12338095Y-8585714D01*
X12342857Y-8580952D01*
X12352381Y-8576190D01*
X12376190Y-8576190D01*
X12385714Y-8580952D01*
X12390476Y-8585714D01*
X12395238Y-8595238D01*
X12395238Y-8619048D01*
X12390476Y-8628571D01*
X12385714Y-8633333D01*
X12395238Y-7069048D02*
X12295238Y-7069048D01*
X12295238Y-7045238D01*
X12300000Y-7030952D01*
X12309524Y-7021428D01*
X12319048Y-7016667D01*
X12338095Y-7011905D01*
X12352381Y-7011905D01*
X12371428Y-7016667D01*
X12380952Y-7021428D01*
X12390476Y-7030952D01*
X12395238Y-7045238D01*
X12395238Y-7069048D01*
X12295238Y-6926190D02*
X12295238Y-6945238D01*
X12300000Y-6954762D01*
X12304762Y-6959524D01*
X12319048Y-6969048D01*
X12338095Y-6973809D01*
X12376190Y-6973809D01*
X12385714Y-6969048D01*
X12390476Y-6964286D01*
X12395238Y-6954762D01*
X12395238Y-6935714D01*
X12390476Y-6926190D01*
X12385714Y-6921428D01*
X12376190Y-6916667D01*
X12352381Y-6916667D01*
X12342857Y-6921428D01*
X12338095Y-6926190D01*
X12333333Y-6935714D01*
X12333333Y-6954762D01*
X12338095Y-6964286D01*
X12342857Y-6969048D01*
X12352381Y-6973809D01*
X12295238Y-6854762D02*
X12295238Y-6845238D01*
X12300000Y-6835714D01*
X12304762Y-6830952D01*
X12314286Y-6826190D01*
X12333333Y-6821428D01*
X12357143Y-6821428D01*
X12376190Y-6826190D01*
X12385714Y-6830952D01*
X12390476Y-6835714D01*
X12395238Y-6845238D01*
X12395238Y-6854762D01*
X12390476Y-6864286D01*
X12385714Y-6869048D01*
X12376190Y-6873809D01*
X12357143Y-6878571D01*
X12333333Y-6878571D01*
X12314286Y-6873809D01*
X12304762Y-6869048D01*
X12300000Y-6864286D01*
X12295238Y-6854762D01*
X12328571Y-6735714D02*
X12395238Y-6735714D01*
X12290476Y-6759524D02*
X12361905Y-6783333D01*
X12361905Y-6721428D01*
X10720238Y-7269048D02*
X10620238Y-7269048D01*
X10620238Y-7245238D01*
X10625000Y-7230952D01*
X10634524Y-7221428D01*
X10644048Y-7216667D01*
X10663095Y-7211905D01*
X10677381Y-7211905D01*
X10696429Y-7216667D01*
X10705952Y-7221428D01*
X10715476Y-7230952D01*
X10720238Y-7245238D01*
X10720238Y-7269048D01*
X10620238Y-7126190D02*
X10620238Y-7145238D01*
X10625000Y-7154762D01*
X10629762Y-7159524D01*
X10644048Y-7169048D01*
X10663095Y-7173809D01*
X10701190Y-7173809D01*
X10710714Y-7169048D01*
X10715476Y-7164286D01*
X10720238Y-7154762D01*
X10720238Y-7135714D01*
X10715476Y-7126190D01*
X10710714Y-7121428D01*
X10701190Y-7116667D01*
X10677381Y-7116667D01*
X10667857Y-7121428D01*
X10663095Y-7126190D01*
X10658333Y-7135714D01*
X10658333Y-7154762D01*
X10663095Y-7164286D01*
X10667857Y-7169048D01*
X10677381Y-7173809D01*
X10620238Y-7054762D02*
X10620238Y-7045238D01*
X10625000Y-7035714D01*
X10629762Y-7030952D01*
X10639286Y-7026190D01*
X10658333Y-7021428D01*
X10682143Y-7021428D01*
X10701190Y-7026190D01*
X10710714Y-7030952D01*
X10715476Y-7035714D01*
X10720238Y-7045238D01*
X10720238Y-7054762D01*
X10715476Y-7064286D01*
X10710714Y-7069048D01*
X10701190Y-7073809D01*
X10682143Y-7078571D01*
X10658333Y-7078571D01*
X10639286Y-7073809D01*
X10629762Y-7069048D01*
X10625000Y-7064286D01*
X10620238Y-7054762D01*
X10620238Y-6988095D02*
X10620238Y-6926190D01*
X10658333Y-6959524D01*
X10658333Y-6945238D01*
X10663095Y-6935714D01*
X10667857Y-6930952D01*
X10677381Y-6926190D01*
X10701190Y-6926190D01*
X10710714Y-6930952D01*
X10715476Y-6935714D01*
X10720238Y-6945238D01*
X10720238Y-6973809D01*
X10715476Y-6983333D01*
X10710714Y-6988095D01*
X8413303Y-8375714D02*
X8408542Y-8380476D01*
X8394256Y-8385238D01*
X8384732Y-8385238D01*
X8370446Y-8380476D01*
X8360922Y-8370952D01*
X8356160Y-8361428D01*
X8351399Y-8342381D01*
X8351399Y-8328095D01*
X8356160Y-8309048D01*
X8360922Y-8299524D01*
X8370446Y-8290000D01*
X8384732Y-8285238D01*
X8394256Y-8285238D01*
X8408542Y-8290000D01*
X8413303Y-8294762D01*
X8499018Y-8285238D02*
X8479970Y-8285238D01*
X8470446Y-8290000D01*
X8465684Y-8294762D01*
X8456161Y-8309048D01*
X8451399Y-8328095D01*
X8451399Y-8366190D01*
X8456161Y-8375714D01*
X8460922Y-8380476D01*
X8470446Y-8385238D01*
X8489494Y-8385238D01*
X8499018Y-8380476D01*
X8503780Y-8375714D01*
X8508542Y-8366190D01*
X8508542Y-8342381D01*
X8503780Y-8332857D01*
X8499018Y-8328095D01*
X8489494Y-8323333D01*
X8470446Y-8323333D01*
X8460922Y-8328095D01*
X8456161Y-8332857D01*
X8451399Y-8342381D01*
X8570446Y-8285238D02*
X8579970Y-8285238D01*
X8589494Y-8290000D01*
X8594256Y-8294762D01*
X8599018Y-8304286D01*
X8603780Y-8323333D01*
X8603780Y-8347143D01*
X8599018Y-8366190D01*
X8594256Y-8375714D01*
X8589494Y-8380476D01*
X8579970Y-8385238D01*
X8570446Y-8385238D01*
X8560922Y-8380476D01*
X8556161Y-8375714D01*
X8551399Y-8366190D01*
X8546637Y-8347143D01*
X8546637Y-8323333D01*
X8551399Y-8304286D01*
X8556161Y-8294762D01*
X8560922Y-8290000D01*
X8570446Y-8285238D01*
X8637113Y-8285238D02*
X8699018Y-8285238D01*
X8665684Y-8323333D01*
X8679970Y-8323333D01*
X8689494Y-8328095D01*
X8694256Y-8332857D01*
X8699018Y-8342381D01*
X8699018Y-8366190D01*
X8694256Y-8375714D01*
X8689494Y-8380476D01*
X8679970Y-8385238D01*
X8651399Y-8385238D01*
X8641875Y-8380476D01*
X8637113Y-8375714D01*
X16735238Y-9050571D02*
X16806667Y-9050571D01*
X16820952Y-9055333D01*
X16830476Y-9064857D01*
X16835238Y-9079143D01*
X16835238Y-9088667D01*
X16768571Y-8960095D02*
X16835238Y-8960095D01*
X16730476Y-8983905D02*
X16801905Y-9007714D01*
X16801905Y-8945810D01*
X16735238Y-8888667D02*
X16735238Y-8879143D01*
X16740000Y-8869619D01*
X16744762Y-8864857D01*
X16754286Y-8860095D01*
X16773333Y-8855333D01*
X16797143Y-8855333D01*
X16816190Y-8860095D01*
X16825714Y-8864857D01*
X16830476Y-8869619D01*
X16835238Y-8879143D01*
X16835238Y-8888667D01*
X16830476Y-8898190D01*
X16825714Y-8902952D01*
X16816190Y-8907714D01*
X16797143Y-8912476D01*
X16773333Y-8912476D01*
X16754286Y-8907714D01*
X16744762Y-8902952D01*
X16740000Y-8898190D01*
X16735238Y-8888667D01*
X16744762Y-8817238D02*
X16740000Y-8812476D01*
X16735238Y-8802952D01*
X16735238Y-8779143D01*
X16740000Y-8769619D01*
X16744762Y-8764857D01*
X16754286Y-8760095D01*
X16763809Y-8760095D01*
X16778095Y-8764857D01*
X16835238Y-8822000D01*
X16835238Y-8760095D01*
X15302571Y-10409238D02*
X15302571Y-10490190D01*
X15307333Y-10499714D01*
X15312095Y-10504476D01*
X15321619Y-10509238D01*
X15340667Y-10509238D01*
X15350190Y-10504476D01*
X15354952Y-10499714D01*
X15359714Y-10490190D01*
X15359714Y-10409238D01*
X15450190Y-10442571D02*
X15450190Y-10509238D01*
X15426381Y-10404476D02*
X15402571Y-10475905D01*
X15464476Y-10475905D01*
X15521619Y-10409238D02*
X15531143Y-10409238D01*
X15540667Y-10414000D01*
X15545428Y-10418762D01*
X15550190Y-10428286D01*
X15554952Y-10447333D01*
X15554952Y-10471143D01*
X15550190Y-10490190D01*
X15545428Y-10499714D01*
X15540667Y-10504476D01*
X15531143Y-10509238D01*
X15521619Y-10509238D01*
X15512095Y-10504476D01*
X15507333Y-10499714D01*
X15502571Y-10490190D01*
X15497809Y-10471143D01*
X15497809Y-10447333D01*
X15502571Y-10428286D01*
X15507333Y-10418762D01*
X15512095Y-10414000D01*
X15521619Y-10409238D01*
X15650190Y-10509238D02*
X15593048Y-10509238D01*
X15621619Y-10509238D02*
X15621619Y-10409238D01*
X15612095Y-10423524D01*
X15602571Y-10433048D01*
X15593048Y-10437810D01*
X16735238Y-11775571D02*
X16806667Y-11775571D01*
X16820952Y-11780333D01*
X16830476Y-11789857D01*
X16835238Y-11804143D01*
X16835238Y-11813667D01*
X16768571Y-11685095D02*
X16835238Y-11685095D01*
X16730476Y-11708905D02*
X16801905Y-11732714D01*
X16801905Y-11670809D01*
X16735238Y-11613667D02*
X16735238Y-11604143D01*
X16740000Y-11594619D01*
X16744762Y-11589857D01*
X16754286Y-11585095D01*
X16773333Y-11580333D01*
X16797143Y-11580333D01*
X16816190Y-11585095D01*
X16825714Y-11589857D01*
X16830476Y-11594619D01*
X16835238Y-11604143D01*
X16835238Y-11613667D01*
X16830476Y-11623190D01*
X16825714Y-11627952D01*
X16816190Y-11632714D01*
X16797143Y-11637476D01*
X16773333Y-11637476D01*
X16754286Y-11632714D01*
X16744762Y-11627952D01*
X16740000Y-11623190D01*
X16735238Y-11613667D01*
X16835238Y-11485095D02*
X16835238Y-11542238D01*
X16835238Y-11513667D02*
X16735238Y-11513667D01*
X16749524Y-11523190D01*
X16759048Y-11532714D01*
X16763809Y-11542238D01*
X17561019Y-10590457D02*
X17608638Y-10590457D01*
X17508638Y-10623790D02*
X17561019Y-10590457D01*
X17508638Y-10557124D01*
X17518162Y-10528552D02*
X17513400Y-10523790D01*
X17508638Y-10514267D01*
X17508638Y-10490457D01*
X17513400Y-10480933D01*
X17518162Y-10476171D01*
X17527686Y-10471410D01*
X17537210Y-10471410D01*
X17551495Y-10476171D01*
X17608638Y-10533314D01*
X17608638Y-10471410D01*
X17508638Y-10409505D02*
X17508638Y-10399981D01*
X17513400Y-10390457D01*
X17518162Y-10385695D01*
X17527686Y-10380933D01*
X17546733Y-10376171D01*
X17570543Y-10376171D01*
X17589590Y-10380933D01*
X17599114Y-10385695D01*
X17603876Y-10390457D01*
X17608638Y-10399981D01*
X17608638Y-10409505D01*
X17603876Y-10419029D01*
X17599114Y-10423790D01*
X17589590Y-10428552D01*
X17570543Y-10433314D01*
X17546733Y-10433314D01*
X17527686Y-10428552D01*
X17518162Y-10423790D01*
X17513400Y-10419029D01*
X17508638Y-10409505D01*
X17608638Y-10280933D02*
X17608638Y-10338076D01*
X17608638Y-10309505D02*
X17508638Y-10309505D01*
X17522924Y-10319029D01*
X17532448Y-10328552D01*
X17537210Y-10338076D01*
X16497219Y-9965257D02*
X16544838Y-9965257D01*
X16444838Y-9998590D02*
X16497219Y-9965257D01*
X16444838Y-9931924D01*
X16478171Y-9855733D02*
X16544838Y-9855733D01*
X16440076Y-9879543D02*
X16511505Y-9903352D01*
X16511505Y-9841448D01*
X16444838Y-9784305D02*
X16444838Y-9774781D01*
X16449600Y-9765257D01*
X16454362Y-9760495D01*
X16463886Y-9755733D01*
X16482933Y-9750971D01*
X16506743Y-9750971D01*
X16525790Y-9755733D01*
X16535314Y-9760495D01*
X16540076Y-9765257D01*
X16544838Y-9774781D01*
X16544838Y-9784305D01*
X16540076Y-9793829D01*
X16535314Y-9798590D01*
X16525790Y-9803352D01*
X16506743Y-9808114D01*
X16482933Y-9808114D01*
X16463886Y-9803352D01*
X16454362Y-9798590D01*
X16449600Y-9793829D01*
X16444838Y-9784305D01*
X16544838Y-9655733D02*
X16544838Y-9712876D01*
X16544838Y-9684305D02*
X16444838Y-9684305D01*
X16459124Y-9693829D01*
X16468648Y-9703352D01*
X16473409Y-9712876D01*
M02*
