%TF.GenerationSoftware,KiCad,Pcbnew,5.1.9+dfsg1-1~bpo10+1*%
%TF.CreationDate,2022-03-02T13:35:43+00:00*%
%TF.ProjectId,MCB19,4d434231-392e-46b6-9963-61645f706362,rev?*%
%TF.SameCoordinates,Original*%
%TF.FileFunction,Paste,Top*%
%TF.FilePolarity,Positive*%
%FSLAX45Y45*%
G04 Gerber Fmt 4.5, Leading zero omitted, Abs format (unit mm)*
G04 Created by KiCad (PCBNEW 5.1.9+dfsg1-1~bpo10+1) date 2022-03-02 13:35:43*
%MOMM*%
%LPD*%
G01*
G04 APERTURE LIST*
%TA.AperFunction,Profile*%
%ADD10C,0.100000*%
%TD*%
%ADD11R,1.700000X3.300000*%
G04 APERTURE END LIST*
D10*
X22285000Y-5050000D02*
X5000000Y-5050000D01*
X22285000Y-13200000D02*
X22285000Y-5050000D01*
X5000000Y-13200000D02*
X22285000Y-13200000D01*
X5000000Y-5050000D02*
X5000000Y-13200000D01*
G36*
G01*
X12945000Y-8965000D02*
X12945000Y-8875000D01*
G75*
G02*
X12970000Y-8850000I25000J0D01*
G01*
X13035000Y-8850000D01*
G75*
G02*
X13060000Y-8875000I0J-25000D01*
G01*
X13060000Y-8965000D01*
G75*
G02*
X13035000Y-8990000I-25000J0D01*
G01*
X12970000Y-8990000D01*
G75*
G02*
X12945000Y-8965000I0J25000D01*
G01*
G37*
G36*
G01*
X12740000Y-8965000D02*
X12740000Y-8875000D01*
G75*
G02*
X12765000Y-8850000I25000J0D01*
G01*
X12830000Y-8850000D01*
G75*
G02*
X12855000Y-8875000I0J-25000D01*
G01*
X12855000Y-8965000D01*
G75*
G02*
X12830000Y-8990000I-25000J0D01*
G01*
X12765000Y-8990000D01*
G75*
G02*
X12740000Y-8965000I0J25000D01*
G01*
G37*
G36*
G01*
X12945000Y-8725000D02*
X12945000Y-8635000D01*
G75*
G02*
X12970000Y-8610000I25000J0D01*
G01*
X13035000Y-8610000D01*
G75*
G02*
X13060000Y-8635000I0J-25000D01*
G01*
X13060000Y-8725000D01*
G75*
G02*
X13035000Y-8750000I-25000J0D01*
G01*
X12970000Y-8750000D01*
G75*
G02*
X12945000Y-8725000I0J25000D01*
G01*
G37*
G36*
G01*
X12740000Y-8725000D02*
X12740000Y-8635000D01*
G75*
G02*
X12765000Y-8610000I25000J0D01*
G01*
X12830000Y-8610000D01*
G75*
G02*
X12855000Y-8635000I0J-25000D01*
G01*
X12855000Y-8725000D01*
G75*
G02*
X12830000Y-8750000I-25000J0D01*
G01*
X12765000Y-8750000D01*
G75*
G02*
X12740000Y-8725000I0J25000D01*
G01*
G37*
G36*
G01*
X12945000Y-7765000D02*
X12945000Y-7675000D01*
G75*
G02*
X12970000Y-7650000I25000J0D01*
G01*
X13035000Y-7650000D01*
G75*
G02*
X13060000Y-7675000I0J-25000D01*
G01*
X13060000Y-7765000D01*
G75*
G02*
X13035000Y-7790000I-25000J0D01*
G01*
X12970000Y-7790000D01*
G75*
G02*
X12945000Y-7765000I0J25000D01*
G01*
G37*
G36*
G01*
X12740000Y-7765000D02*
X12740000Y-7675000D01*
G75*
G02*
X12765000Y-7650000I25000J0D01*
G01*
X12830000Y-7650000D01*
G75*
G02*
X12855000Y-7675000I0J-25000D01*
G01*
X12855000Y-7765000D01*
G75*
G02*
X12830000Y-7790000I-25000J0D01*
G01*
X12765000Y-7790000D01*
G75*
G02*
X12740000Y-7765000I0J25000D01*
G01*
G37*
G36*
G01*
X12945000Y-8005000D02*
X12945000Y-7915000D01*
G75*
G02*
X12970000Y-7890000I25000J0D01*
G01*
X13035000Y-7890000D01*
G75*
G02*
X13060000Y-7915000I0J-25000D01*
G01*
X13060000Y-8005000D01*
G75*
G02*
X13035000Y-8030000I-25000J0D01*
G01*
X12970000Y-8030000D01*
G75*
G02*
X12945000Y-8005000I0J25000D01*
G01*
G37*
G36*
G01*
X12740000Y-8005000D02*
X12740000Y-7915000D01*
G75*
G02*
X12765000Y-7890000I25000J0D01*
G01*
X12830000Y-7890000D01*
G75*
G02*
X12855000Y-7915000I0J-25000D01*
G01*
X12855000Y-8005000D01*
G75*
G02*
X12830000Y-8030000I-25000J0D01*
G01*
X12765000Y-8030000D01*
G75*
G02*
X12740000Y-8005000I0J25000D01*
G01*
G37*
G36*
G01*
X6905000Y-10935000D02*
X6815000Y-10935000D01*
G75*
G02*
X6790000Y-10910000I0J25000D01*
G01*
X6790000Y-10845000D01*
G75*
G02*
X6815000Y-10820000I25000J0D01*
G01*
X6905000Y-10820000D01*
G75*
G02*
X6930000Y-10845000I0J-25000D01*
G01*
X6930000Y-10910000D01*
G75*
G02*
X6905000Y-10935000I-25000J0D01*
G01*
G37*
G36*
G01*
X6905000Y-11140000D02*
X6815000Y-11140000D01*
G75*
G02*
X6790000Y-11115000I0J25000D01*
G01*
X6790000Y-11050000D01*
G75*
G02*
X6815000Y-11025000I25000J0D01*
G01*
X6905000Y-11025000D01*
G75*
G02*
X6930000Y-11050000I0J-25000D01*
G01*
X6930000Y-11115000D01*
G75*
G02*
X6905000Y-11140000I-25000J0D01*
G01*
G37*
G36*
G01*
X12317500Y-8825000D02*
X12032500Y-8825000D01*
G75*
G02*
X12007500Y-8800000I0J25000D01*
G01*
X12007500Y-8697500D01*
G75*
G02*
X12032500Y-8672500I25000J0D01*
G01*
X12317500Y-8672500D01*
G75*
G02*
X12342500Y-8697500I0J-25000D01*
G01*
X12342500Y-8800000D01*
G75*
G02*
X12317500Y-8825000I-25000J0D01*
G01*
G37*
G36*
G01*
X12317500Y-8227500D02*
X12032500Y-8227500D01*
G75*
G02*
X12007500Y-8202500I0J25000D01*
G01*
X12007500Y-8100000D01*
G75*
G02*
X12032500Y-8075000I25000J0D01*
G01*
X12317500Y-8075000D01*
G75*
G02*
X12342500Y-8100000I0J-25000D01*
G01*
X12342500Y-8202500D01*
G75*
G02*
X12317500Y-8227500I-25000J0D01*
G01*
G37*
G36*
G01*
X14297500Y-12255000D02*
X14297500Y-12345000D01*
G75*
G02*
X14272500Y-12370000I-25000J0D01*
G01*
X14207500Y-12370000D01*
G75*
G02*
X14182500Y-12345000I0J25000D01*
G01*
X14182500Y-12255000D01*
G75*
G02*
X14207500Y-12230000I25000J0D01*
G01*
X14272500Y-12230000D01*
G75*
G02*
X14297500Y-12255000I0J-25000D01*
G01*
G37*
G36*
G01*
X14502500Y-12255000D02*
X14502500Y-12345000D01*
G75*
G02*
X14477500Y-12370000I-25000J0D01*
G01*
X14412500Y-12370000D01*
G75*
G02*
X14387500Y-12345000I0J25000D01*
G01*
X14387500Y-12255000D01*
G75*
G02*
X14412500Y-12230000I25000J0D01*
G01*
X14477500Y-12230000D01*
G75*
G02*
X14502500Y-12255000I0J-25000D01*
G01*
G37*
G36*
G01*
X12317500Y-6377500D02*
X12032500Y-6377500D01*
G75*
G02*
X12007500Y-6352500I0J25000D01*
G01*
X12007500Y-6267500D01*
G75*
G02*
X12032500Y-6242500I25000J0D01*
G01*
X12317500Y-6242500D01*
G75*
G02*
X12342500Y-6267500I0J-25000D01*
G01*
X12342500Y-6352500D01*
G75*
G02*
X12317500Y-6377500I-25000J0D01*
G01*
G37*
G36*
G01*
X12317500Y-6957500D02*
X12032500Y-6957500D01*
G75*
G02*
X12007500Y-6932500I0J25000D01*
G01*
X12007500Y-6847500D01*
G75*
G02*
X12032500Y-6822500I25000J0D01*
G01*
X12317500Y-6822500D01*
G75*
G02*
X12342500Y-6847500I0J-25000D01*
G01*
X12342500Y-6932500D01*
G75*
G02*
X12317500Y-6957500I-25000J0D01*
G01*
G37*
G36*
G01*
X6572500Y-10920000D02*
X6572500Y-10830000D01*
G75*
G02*
X6597500Y-10805000I25000J0D01*
G01*
X6662500Y-10805000D01*
G75*
G02*
X6687500Y-10830000I0J-25000D01*
G01*
X6687500Y-10920000D01*
G75*
G02*
X6662500Y-10945000I-25000J0D01*
G01*
X6597500Y-10945000D01*
G75*
G02*
X6572500Y-10920000I0J25000D01*
G01*
G37*
G36*
G01*
X6367500Y-10920000D02*
X6367500Y-10830000D01*
G75*
G02*
X6392500Y-10805000I25000J0D01*
G01*
X6457500Y-10805000D01*
G75*
G02*
X6482500Y-10830000I0J-25000D01*
G01*
X6482500Y-10920000D01*
G75*
G02*
X6457500Y-10945000I-25000J0D01*
G01*
X6392500Y-10945000D01*
G75*
G02*
X6367500Y-10920000I0J25000D01*
G01*
G37*
G36*
G01*
X14185000Y-12565000D02*
X14185000Y-12475000D01*
G75*
G02*
X14210000Y-12450000I25000J0D01*
G01*
X14275000Y-12450000D01*
G75*
G02*
X14300000Y-12475000I0J-25000D01*
G01*
X14300000Y-12565000D01*
G75*
G02*
X14275000Y-12590000I-25000J0D01*
G01*
X14210000Y-12590000D01*
G75*
G02*
X14185000Y-12565000I0J25000D01*
G01*
G37*
G36*
G01*
X13980000Y-12565000D02*
X13980000Y-12475000D01*
G75*
G02*
X14005000Y-12450000I25000J0D01*
G01*
X14070000Y-12450000D01*
G75*
G02*
X14095000Y-12475000I0J-25000D01*
G01*
X14095000Y-12565000D01*
G75*
G02*
X14070000Y-12590000I-25000J0D01*
G01*
X14005000Y-12590000D01*
G75*
G02*
X13980000Y-12565000I0J25000D01*
G01*
G37*
G36*
G01*
X12945000Y-8485000D02*
X12945000Y-8395000D01*
G75*
G02*
X12970000Y-8370000I25000J0D01*
G01*
X13035000Y-8370000D01*
G75*
G02*
X13060000Y-8395000I0J-25000D01*
G01*
X13060000Y-8485000D01*
G75*
G02*
X13035000Y-8510000I-25000J0D01*
G01*
X12970000Y-8510000D01*
G75*
G02*
X12945000Y-8485000I0J25000D01*
G01*
G37*
G36*
G01*
X12740000Y-8485000D02*
X12740000Y-8395000D01*
G75*
G02*
X12765000Y-8370000I25000J0D01*
G01*
X12830000Y-8370000D01*
G75*
G02*
X12855000Y-8395000I0J-25000D01*
G01*
X12855000Y-8485000D01*
G75*
G02*
X12830000Y-8510000I-25000J0D01*
G01*
X12765000Y-8510000D01*
G75*
G02*
X12740000Y-8485000I0J25000D01*
G01*
G37*
G36*
G01*
X12945000Y-8245000D02*
X12945000Y-8155000D01*
G75*
G02*
X12970000Y-8130000I25000J0D01*
G01*
X13035000Y-8130000D01*
G75*
G02*
X13060000Y-8155000I0J-25000D01*
G01*
X13060000Y-8245000D01*
G75*
G02*
X13035000Y-8270000I-25000J0D01*
G01*
X12970000Y-8270000D01*
G75*
G02*
X12945000Y-8245000I0J25000D01*
G01*
G37*
G36*
G01*
X12740000Y-8245000D02*
X12740000Y-8155000D01*
G75*
G02*
X12765000Y-8130000I25000J0D01*
G01*
X12830000Y-8130000D01*
G75*
G02*
X12855000Y-8155000I0J-25000D01*
G01*
X12855000Y-8245000D01*
G75*
G02*
X12830000Y-8270000I-25000J0D01*
G01*
X12765000Y-8270000D01*
G75*
G02*
X12740000Y-8245000I0J25000D01*
G01*
G37*
G36*
G01*
X13145000Y-6285000D02*
X13055000Y-6285000D01*
G75*
G02*
X13030000Y-6260000I0J25000D01*
G01*
X13030000Y-6195000D01*
G75*
G02*
X13055000Y-6170000I25000J0D01*
G01*
X13145000Y-6170000D01*
G75*
G02*
X13170000Y-6195000I0J-25000D01*
G01*
X13170000Y-6260000D01*
G75*
G02*
X13145000Y-6285000I-25000J0D01*
G01*
G37*
G36*
G01*
X13145000Y-6490000D02*
X13055000Y-6490000D01*
G75*
G02*
X13030000Y-6465000I0J25000D01*
G01*
X13030000Y-6400000D01*
G75*
G02*
X13055000Y-6375000I25000J0D01*
G01*
X13145000Y-6375000D01*
G75*
G02*
X13170000Y-6400000I0J-25000D01*
G01*
X13170000Y-6465000D01*
G75*
G02*
X13145000Y-6490000I-25000J0D01*
G01*
G37*
G36*
G01*
X12755000Y-6170000D02*
X12845000Y-6170000D01*
G75*
G02*
X12870000Y-6195000I0J-25000D01*
G01*
X12870000Y-6260000D01*
G75*
G02*
X12845000Y-6285000I-25000J0D01*
G01*
X12755000Y-6285000D01*
G75*
G02*
X12730000Y-6260000I0J25000D01*
G01*
X12730000Y-6195000D01*
G75*
G02*
X12755000Y-6170000I25000J0D01*
G01*
G37*
G36*
G01*
X12755000Y-6375000D02*
X12845000Y-6375000D01*
G75*
G02*
X12870000Y-6400000I0J-25000D01*
G01*
X12870000Y-6465000D01*
G75*
G02*
X12845000Y-6490000I-25000J0D01*
G01*
X12755000Y-6490000D01*
G75*
G02*
X12730000Y-6465000I0J25000D01*
G01*
X12730000Y-6400000D01*
G75*
G02*
X12755000Y-6375000I25000J0D01*
G01*
G37*
G36*
G01*
X12934000Y-7525500D02*
X12934000Y-7435500D01*
G75*
G02*
X12959000Y-7410500I25000J0D01*
G01*
X13024000Y-7410500D01*
G75*
G02*
X13049000Y-7435500I0J-25000D01*
G01*
X13049000Y-7525500D01*
G75*
G02*
X13024000Y-7550500I-25000J0D01*
G01*
X12959000Y-7550500D01*
G75*
G02*
X12934000Y-7525500I0J25000D01*
G01*
G37*
G36*
G01*
X12729000Y-7525500D02*
X12729000Y-7435500D01*
G75*
G02*
X12754000Y-7410500I25000J0D01*
G01*
X12819000Y-7410500D01*
G75*
G02*
X12844000Y-7435500I0J-25000D01*
G01*
X12844000Y-7525500D01*
G75*
G02*
X12819000Y-7550500I-25000J0D01*
G01*
X12754000Y-7550500D01*
G75*
G02*
X12729000Y-7525500I0J25000D01*
G01*
G37*
G36*
G01*
X12934000Y-7296000D02*
X12934000Y-7206000D01*
G75*
G02*
X12959000Y-7181000I25000J0D01*
G01*
X13024000Y-7181000D01*
G75*
G02*
X13049000Y-7206000I0J-25000D01*
G01*
X13049000Y-7296000D01*
G75*
G02*
X13024000Y-7321000I-25000J0D01*
G01*
X12959000Y-7321000D01*
G75*
G02*
X12934000Y-7296000I0J25000D01*
G01*
G37*
G36*
G01*
X12729000Y-7296000D02*
X12729000Y-7206000D01*
G75*
G02*
X12754000Y-7181000I25000J0D01*
G01*
X12819000Y-7181000D01*
G75*
G02*
X12844000Y-7206000I0J-25000D01*
G01*
X12844000Y-7296000D01*
G75*
G02*
X12819000Y-7321000I-25000J0D01*
G01*
X12754000Y-7321000D01*
G75*
G02*
X12729000Y-7296000I0J25000D01*
G01*
G37*
G36*
G01*
X13021500Y-6766500D02*
X13021500Y-6641500D01*
G75*
G02*
X13046500Y-6616500I25000J0D01*
G01*
X13139000Y-6616500D01*
G75*
G02*
X13164000Y-6641500I0J-25000D01*
G01*
X13164000Y-6766500D01*
G75*
G02*
X13139000Y-6791500I-25000J0D01*
G01*
X13046500Y-6791500D01*
G75*
G02*
X13021500Y-6766500I0J25000D01*
G01*
G37*
G36*
G01*
X12724000Y-6766500D02*
X12724000Y-6641500D01*
G75*
G02*
X12749000Y-6616500I25000J0D01*
G01*
X12841500Y-6616500D01*
G75*
G02*
X12866500Y-6641500I0J-25000D01*
G01*
X12866500Y-6766500D01*
G75*
G02*
X12841500Y-6791500I-25000J0D01*
G01*
X12749000Y-6791500D01*
G75*
G02*
X12724000Y-6766500I0J25000D01*
G01*
G37*
G36*
G01*
X13021500Y-7053500D02*
X13021500Y-6928500D01*
G75*
G02*
X13046500Y-6903500I25000J0D01*
G01*
X13139000Y-6903500D01*
G75*
G02*
X13164000Y-6928500I0J-25000D01*
G01*
X13164000Y-7053500D01*
G75*
G02*
X13139000Y-7078500I-25000J0D01*
G01*
X13046500Y-7078500D01*
G75*
G02*
X13021500Y-7053500I0J25000D01*
G01*
G37*
G36*
G01*
X12724000Y-7053500D02*
X12724000Y-6928500D01*
G75*
G02*
X12749000Y-6903500I25000J0D01*
G01*
X12841500Y-6903500D01*
G75*
G02*
X12866500Y-6928500I0J-25000D01*
G01*
X12866500Y-7053500D01*
G75*
G02*
X12841500Y-7078500I-25000J0D01*
G01*
X12749000Y-7078500D01*
G75*
G02*
X12724000Y-7053500I0J25000D01*
G01*
G37*
G36*
G01*
X12317500Y-8227500D02*
X12032500Y-8227500D01*
G75*
G02*
X12007500Y-8202500I0J25000D01*
G01*
X12007500Y-8100000D01*
G75*
G02*
X12032500Y-8075000I25000J0D01*
G01*
X12317500Y-8075000D01*
G75*
G02*
X12342500Y-8100000I0J-25000D01*
G01*
X12342500Y-8202500D01*
G75*
G02*
X12317500Y-8227500I-25000J0D01*
G01*
G37*
G36*
G01*
X12317500Y-8825000D02*
X12032500Y-8825000D01*
G75*
G02*
X12007500Y-8800000I0J25000D01*
G01*
X12007500Y-8697500D01*
G75*
G02*
X12032500Y-8672500I25000J0D01*
G01*
X12317500Y-8672500D01*
G75*
G02*
X12342500Y-8697500I0J-25000D01*
G01*
X12342500Y-8800000D01*
G75*
G02*
X12317500Y-8825000I-25000J0D01*
G01*
G37*
G36*
G01*
X12317500Y-6377500D02*
X12032500Y-6377500D01*
G75*
G02*
X12007500Y-6352500I0J25000D01*
G01*
X12007500Y-6267500D01*
G75*
G02*
X12032500Y-6242500I25000J0D01*
G01*
X12317500Y-6242500D01*
G75*
G02*
X12342500Y-6267500I0J-25000D01*
G01*
X12342500Y-6352500D01*
G75*
G02*
X12317500Y-6377500I-25000J0D01*
G01*
G37*
G36*
G01*
X12317500Y-6957500D02*
X12032500Y-6957500D01*
G75*
G02*
X12007500Y-6932500I0J25000D01*
G01*
X12007500Y-6847500D01*
G75*
G02*
X12032500Y-6822500I25000J0D01*
G01*
X12317500Y-6822500D01*
G75*
G02*
X12342500Y-6847500I0J-25000D01*
G01*
X12342500Y-6932500D01*
G75*
G02*
X12317500Y-6957500I-25000J0D01*
G01*
G37*
G36*
G01*
X12092500Y-7377500D02*
X12307500Y-7377500D01*
G75*
G02*
X12332500Y-7402500I0J-25000D01*
G01*
X12332500Y-7495000D01*
G75*
G02*
X12307500Y-7520000I-25000J0D01*
G01*
X12092500Y-7520000D01*
G75*
G02*
X12067500Y-7495000I0J25000D01*
G01*
X12067500Y-7402500D01*
G75*
G02*
X12092500Y-7377500I25000J0D01*
G01*
G37*
G36*
G01*
X12092500Y-7080000D02*
X12307500Y-7080000D01*
G75*
G02*
X12332500Y-7105000I0J-25000D01*
G01*
X12332500Y-7197500D01*
G75*
G02*
X12307500Y-7222500I-25000J0D01*
G01*
X12092500Y-7222500D01*
G75*
G02*
X12067500Y-7197500I0J25000D01*
G01*
X12067500Y-7105000D01*
G75*
G02*
X12092500Y-7080000I25000J0D01*
G01*
G37*
G36*
G01*
X12092500Y-9227500D02*
X12307500Y-9227500D01*
G75*
G02*
X12332500Y-9252500I0J-25000D01*
G01*
X12332500Y-9345000D01*
G75*
G02*
X12307500Y-9370000I-25000J0D01*
G01*
X12092500Y-9370000D01*
G75*
G02*
X12067500Y-9345000I0J25000D01*
G01*
X12067500Y-9252500D01*
G75*
G02*
X12092500Y-9227500I25000J0D01*
G01*
G37*
G36*
G01*
X12092500Y-8930000D02*
X12307500Y-8930000D01*
G75*
G02*
X12332500Y-8955000I0J-25000D01*
G01*
X12332500Y-9047500D01*
G75*
G02*
X12307500Y-9072500I-25000J0D01*
G01*
X12092500Y-9072500D01*
G75*
G02*
X12067500Y-9047500I0J25000D01*
G01*
X12067500Y-8955000D01*
G75*
G02*
X12092500Y-8930000I25000J0D01*
G01*
G37*
D11*
X10500000Y-9225000D03*
X10500000Y-8675000D03*
G36*
G01*
X11145000Y-6305000D02*
X11055000Y-6305000D01*
G75*
G02*
X11030000Y-6280000I0J25000D01*
G01*
X11030000Y-6215000D01*
G75*
G02*
X11055000Y-6190000I25000J0D01*
G01*
X11145000Y-6190000D01*
G75*
G02*
X11170000Y-6215000I0J-25000D01*
G01*
X11170000Y-6280000D01*
G75*
G02*
X11145000Y-6305000I-25000J0D01*
G01*
G37*
G36*
G01*
X11145000Y-6510000D02*
X11055000Y-6510000D01*
G75*
G02*
X11030000Y-6485000I0J25000D01*
G01*
X11030000Y-6420000D01*
G75*
G02*
X11055000Y-6395000I25000J0D01*
G01*
X11145000Y-6395000D01*
G75*
G02*
X11170000Y-6420000I0J-25000D01*
G01*
X11170000Y-6485000D01*
G75*
G02*
X11145000Y-6510000I-25000J0D01*
G01*
G37*
G36*
G01*
X11145000Y-8155000D02*
X11055000Y-8155000D01*
G75*
G02*
X11030000Y-8130000I0J25000D01*
G01*
X11030000Y-8065000D01*
G75*
G02*
X11055000Y-8040000I25000J0D01*
G01*
X11145000Y-8040000D01*
G75*
G02*
X11170000Y-8065000I0J-25000D01*
G01*
X11170000Y-8130000D01*
G75*
G02*
X11145000Y-8155000I-25000J0D01*
G01*
G37*
G36*
G01*
X11145000Y-8360000D02*
X11055000Y-8360000D01*
G75*
G02*
X11030000Y-8335000I0J25000D01*
G01*
X11030000Y-8270000D01*
G75*
G02*
X11055000Y-8245000I25000J0D01*
G01*
X11145000Y-8245000D01*
G75*
G02*
X11170000Y-8270000I0J-25000D01*
G01*
X11170000Y-8335000D01*
G75*
G02*
X11145000Y-8360000I-25000J0D01*
G01*
G37*
G36*
G01*
X10655000Y-6305000D02*
X10655000Y-6395000D01*
G75*
G02*
X10630000Y-6420000I-25000J0D01*
G01*
X10565000Y-6420000D01*
G75*
G02*
X10540000Y-6395000I0J25000D01*
G01*
X10540000Y-6305000D01*
G75*
G02*
X10565000Y-6280000I25000J0D01*
G01*
X10630000Y-6280000D01*
G75*
G02*
X10655000Y-6305000I0J-25000D01*
G01*
G37*
G36*
G01*
X10860000Y-6305000D02*
X10860000Y-6395000D01*
G75*
G02*
X10835000Y-6420000I-25000J0D01*
G01*
X10770000Y-6420000D01*
G75*
G02*
X10745000Y-6395000I0J25000D01*
G01*
X10745000Y-6305000D01*
G75*
G02*
X10770000Y-6280000I25000J0D01*
G01*
X10835000Y-6280000D01*
G75*
G02*
X10860000Y-6305000I0J-25000D01*
G01*
G37*
G36*
G01*
X10655000Y-8155000D02*
X10655000Y-8245000D01*
G75*
G02*
X10630000Y-8270000I-25000J0D01*
G01*
X10565000Y-8270000D01*
G75*
G02*
X10540000Y-8245000I0J25000D01*
G01*
X10540000Y-8155000D01*
G75*
G02*
X10565000Y-8130000I25000J0D01*
G01*
X10630000Y-8130000D01*
G75*
G02*
X10655000Y-8155000I0J-25000D01*
G01*
G37*
G36*
G01*
X10860000Y-8155000D02*
X10860000Y-8245000D01*
G75*
G02*
X10835000Y-8270000I-25000J0D01*
G01*
X10770000Y-8270000D01*
G75*
G02*
X10745000Y-8245000I0J25000D01*
G01*
X10745000Y-8155000D01*
G75*
G02*
X10770000Y-8130000I25000J0D01*
G01*
X10835000Y-8130000D01*
G75*
G02*
X10860000Y-8155000I0J-25000D01*
G01*
G37*
X11100000Y-6825000D03*
X11100000Y-7375000D03*
X10800000Y-6825000D03*
X10800000Y-7375000D03*
X11100000Y-9225000D03*
X11100000Y-8675000D03*
X10800000Y-8675000D03*
X10800000Y-9225000D03*
X12525000Y-9025000D03*
X12525000Y-8475000D03*
X12525000Y-6625000D03*
X12525000Y-7175000D03*
X10500000Y-7375000D03*
X10500000Y-6825000D03*
M02*
