%TF.GenerationSoftware,KiCad,Pcbnew,5.1.9+dfsg1-1~bpo10+1*%
%TF.CreationDate,2021-12-08T12:10:41+00:00*%
%TF.ProjectId,MCB19,4d434231-392e-46b6-9963-61645f706362,rev?*%
%TF.SameCoordinates,Original*%
%TF.FileFunction,Plated,1,2,PTH,Drill*%
%TF.FilePolarity,Positive*%
%FSLAX46Y46*%
G04 Gerber Fmt 4.6, Leading zero omitted, Abs format (unit mm)*
G04 Created by KiCad (PCBNEW 5.1.9+dfsg1-1~bpo10+1) date 2021-12-08 12:10:41*
%MOMM*%
%LPD*%
G01*
G04 APERTURE LIST*
%TA.AperFunction,ComponentDrill*%
%ADD10C,0.600000*%
%TD*%
%TA.AperFunction,ViaDrill*%
%ADD11C,0.800000*%
%TD*%
%TA.AperFunction,ComponentDrill*%
%ADD12C,0.800000*%
%TD*%
%TA.AperFunction,ComponentDrill*%
%ADD13C,1.000000*%
%TD*%
%TA.AperFunction,ComponentDrill*%
%ADD14C,1.200000*%
%TD*%
%TA.AperFunction,ComponentDrill*%
%ADD15C,1.300000*%
%TD*%
%TA.AperFunction,ComponentDrill*%
%ADD16C,1.500000*%
%TD*%
%TA.AperFunction,ComponentDrill*%
%ADD17C,1.600000*%
%TD*%
%TA.AperFunction,ComponentDrill*%
%ADD18C,2.000000*%
%TD*%
%TA.AperFunction,ComponentDrill*%
%ADD19C,5.300000*%
%TD*%
G04 APERTURE END LIST*
D10*
%TO.C,J611*%
X53025000Y-63000000D03*
%TO.C,J612*%
X53025000Y-82000000D03*
%TO.C,J614*%
X53025000Y-101500000D03*
%TO.C,J613*%
X53025000Y-119500000D03*
%TO.C,J611*%
X54189251Y-60189251D03*
X54189251Y-65810749D03*
%TO.C,J612*%
X54189251Y-79189251D03*
X54189251Y-84810749D03*
%TO.C,J614*%
X54189251Y-98689251D03*
X54189251Y-104310749D03*
%TO.C,J613*%
X54189251Y-116689251D03*
X54189251Y-122310749D03*
%TO.C,J611*%
X57000000Y-59025000D03*
X57000000Y-66975000D03*
%TO.C,J612*%
X57000000Y-78025000D03*
X57000000Y-85975000D03*
%TO.C,J614*%
X57000000Y-97525000D03*
X57000000Y-105475000D03*
%TO.C,J613*%
X57000000Y-115525000D03*
X57000000Y-123475000D03*
%TO.C,J611*%
X59810749Y-60189251D03*
X59810749Y-65810749D03*
%TO.C,J612*%
X59810749Y-79189251D03*
X59810749Y-84810749D03*
%TO.C,J614*%
X59810749Y-98689251D03*
X59810749Y-104310749D03*
%TO.C,J613*%
X59810749Y-116689251D03*
X59810749Y-122310749D03*
%TO.C,J611*%
X60975000Y-63000000D03*
%TO.C,J612*%
X60975000Y-82000000D03*
%TO.C,J614*%
X60975000Y-101500000D03*
%TO.C,J613*%
X60975000Y-119500000D03*
%TD*%
D11*
X71200000Y-111600000D03*
X92800000Y-116600000D03*
X99375000Y-73000000D03*
X101500000Y-87500000D03*
X101687989Y-74650000D03*
X102400000Y-84800000D03*
X102450000Y-90025000D03*
X104000000Y-121200000D03*
X107200000Y-126400000D03*
X116500000Y-103750000D03*
X135800000Y-120550012D03*
X135893644Y-117644324D03*
X139270738Y-113579262D03*
X140500000Y-109175000D03*
X142650001Y-110200000D03*
X143400000Y-101000000D03*
X144599998Y-74400000D03*
X145600000Y-105950000D03*
X147400000Y-71800000D03*
X147450000Y-100750000D03*
X147714000Y-90670000D03*
D12*
%TO.C,U401*%
X150930000Y-88130000D03*
X150930000Y-90670000D03*
X150930000Y-93210000D03*
X150930000Y-95750000D03*
X150930000Y-98290000D03*
X150930000Y-100830000D03*
X150930000Y-103370000D03*
X150930000Y-105910000D03*
X150930000Y-108450000D03*
X150930000Y-110990000D03*
X150930000Y-113530000D03*
X150930000Y-116070000D03*
X150930000Y-118610000D03*
X150930000Y-121150000D03*
%TD*%
D11*
X152400000Y-125200000D03*
X157000000Y-125000000D03*
D12*
%TO.C,U401*%
X158550000Y-88130000D03*
X158550000Y-90670000D03*
X158550000Y-93210000D03*
X158550000Y-95750000D03*
X158550000Y-98290000D03*
X158550000Y-100830000D03*
X158550000Y-103370000D03*
X158550000Y-105910000D03*
X158550000Y-108450000D03*
X158550000Y-110990000D03*
X158550000Y-113530000D03*
X158550000Y-116070000D03*
X158550000Y-118610000D03*
X158550000Y-121150000D03*
%TD*%
D11*
X163900000Y-105200000D03*
X163900000Y-107700000D03*
D12*
%TO.C,Y401*%
X164996000Y-95784000D03*
X164996000Y-100664000D03*
%TD*%
D11*
X166017412Y-70882588D03*
D12*
%TO.C,J401*%
X167900000Y-112660000D03*
X167900000Y-115200000D03*
X167900000Y-117740000D03*
X167900000Y-120280000D03*
%TD*%
D11*
X173899988Y-121037235D03*
X174400000Y-88200000D03*
X175398744Y-117653990D03*
D12*
%TO.C,Y201*%
X175634000Y-102036000D03*
X175634000Y-106916000D03*
%TD*%
D11*
X179900000Y-98200000D03*
X183900000Y-114200000D03*
X186400000Y-115799998D03*
X192400000Y-122400000D03*
X192600000Y-93000000D03*
X197968000Y-92877000D03*
X199600000Y-70800000D03*
X201320114Y-105760291D03*
X201650002Y-85350000D03*
X201651000Y-90362010D03*
X201651000Y-101386000D03*
X203660709Y-92877000D03*
X203773354Y-86573354D03*
D12*
%TO.C,J601*%
X206084000Y-75971000D03*
X206084000Y-78511000D03*
X206084000Y-81051000D03*
X206084000Y-83591000D03*
%TO.C,J602*%
X206088000Y-96826000D03*
X206088000Y-99366000D03*
X206088000Y-101906000D03*
X206088000Y-104446000D03*
%TO.C,J601*%
X208624000Y-77241000D03*
X208624000Y-79781000D03*
X208624000Y-82321000D03*
X208624000Y-84861000D03*
%TO.C,J602*%
X208628000Y-98096000D03*
X208628000Y-100636000D03*
X208628000Y-103176000D03*
X208628000Y-105716000D03*
%TD*%
D11*
X212000000Y-64400000D03*
X215900000Y-68580000D03*
D13*
%TO.C,K601*%
X86800000Y-106000000D03*
X86800000Y-116000000D03*
%TO.C,J402*%
X167900000Y-87950000D03*
X167900000Y-90490000D03*
D14*
%TO.C,C610*%
X69450000Y-83400000D03*
%TO.C,C609*%
X69450000Y-96550000D03*
%TO.C,C602*%
X72000000Y-67650000D03*
X72000000Y-72650000D03*
%TO.C,C610*%
X74450000Y-83400000D03*
%TO.C,C609*%
X74450000Y-96550000D03*
%TO.C,C603*%
X82752082Y-83400000D03*
%TO.C,C608*%
X82752082Y-96550000D03*
%TO.C,C621*%
X85400000Y-67650000D03*
X85400000Y-72650000D03*
%TO.C,C603*%
X87752082Y-83400000D03*
%TO.C,C608*%
X87752082Y-96550000D03*
D15*
%TO.C,K601*%
X76600000Y-106000000D03*
X89300000Y-111000000D03*
D16*
%TO.C,Q601*%
X116000000Y-62000000D03*
X116000000Y-67450000D03*
X116000000Y-72900000D03*
%TO.C,Q602*%
X116000000Y-80500000D03*
X116000000Y-85950000D03*
X116000000Y-91400000D03*
D17*
%TO.C,J601*%
X211924000Y-72666000D03*
X211924000Y-88166000D03*
%TO.C,J602*%
X211928000Y-93521000D03*
X211928000Y-109021000D03*
D18*
%TO.C,L601*%
X103328000Y-100644000D03*
X132000000Y-100800000D03*
D19*
%TO.C,J611*%
X57000000Y-63000000D03*
%TO.C,J612*%
X57000000Y-82000000D03*
%TO.C,J614*%
X57000000Y-101500000D03*
%TO.C,J613*%
X57000000Y-119500000D03*
M02*
