M48
; DRILL file {KiCad 5.1.4} date Tue 29 Oct 2019 10:35:48 PM -03
; FORMAT={-:-/ absolute / inch / decimal}
; #@! TF.CreationDate,2019-10-29T22:35:48-03:00
; #@! TF.GenerationSoftware,Kicad,Pcbnew,5.1.4
FMAT,2
INCH
T1C0.0236
T2C0.0315
T3C0.0394
T4C0.0472
T5C0.0591
T6C0.0630
T7C0.0787
T8C0.2087
T9C0.1260
T10C0.1417
%
G90
G05
T1
X1.9943Y-2.0614
X2.0401Y-1.9508
X2.0401Y-2.1721
X2.1508Y-1.9049
X2.1508Y-2.2179
X2.2614Y-1.9508
X2.2614Y-2.1721
X2.3073Y-2.0614
X1.9943Y-3.5378
X2.0401Y-3.4271
X2.0401Y-3.6485
X2.1508Y-3.3813
X2.1508Y-3.6943
X2.2614Y-3.4271
X2.2614Y-3.6485
X2.3073Y-3.5378
X1.9943Y-2.8291
X2.0401Y-2.7185
X2.0401Y-2.9398
X2.1508Y-2.6726
X2.1508Y-2.9856
X2.2614Y-2.7185
X2.2614Y-2.9398
X2.3073Y-2.8291
X1.9943Y-6.3724
X2.0401Y-6.2618
X2.0401Y-6.4831
X2.1508Y-6.2159
X2.1508Y-6.5289
X2.2614Y-6.2618
X2.2614Y-6.4831
X2.3073Y-6.3724
X1.9943Y-1.3134
X2.0401Y-1.2027
X2.0401Y-1.424
X2.1508Y-1.1569
X2.1508Y-1.4699
X2.2614Y-1.2027
X2.2614Y-1.424
X2.3073Y-1.3134
X1.9943Y-5.6047
X2.0401Y-5.4941
X2.0401Y-5.7154
X2.1508Y-5.4482
X2.1508Y-5.7612
X2.2614Y-5.4941
X2.2614Y-5.7154
X2.3073Y-5.6047
X1.9943Y-7.0811
X2.0401Y-6.9704
X2.0401Y-7.1918
X2.1508Y-6.9246
X2.1508Y-7.2376
X2.2614Y-6.9704
X2.2614Y-7.1918
X2.3073Y-7.0811
X1.9943Y-4.8567
X2.0401Y-4.746
X2.0401Y-4.9674
X2.1508Y-4.7002
X2.1508Y-5.0132
X2.2614Y-4.746
X2.2614Y-4.9674
X2.3073Y-4.8567
T2
X3.2531Y-2.2976
X3.2531Y-5.8409
X3.4062Y-2.7656
X3.4062Y-6.309
X3.7256Y-2.5929
X3.7256Y-6.1362
X3.8122Y-2.1548
X3.8122Y-5.6981
X3.824Y-2.711
X3.824Y-6.2543
X3.9617Y-2.1598
X3.9617Y-5.7031
X4.6311Y-3.026
X4.6311Y-6.5693
X4.828Y-3.1441
X4.828Y-6.6874
X5.4185Y-1.5791
X5.4185Y-5.1224
X5.6252Y-2.2484
X5.6252Y-5.7917
X5.7335Y-2.3764
X5.7335Y-5.9197
X5.8417Y-2.3272
X5.8417Y-5.8705
X6.4264Y-2.1433
X6.4264Y-5.6867
X6.557Y-1.5922
X6.557Y-5.1355
X6.5799Y-2.9669
X6.5799Y-6.5102
X6.623Y-2.1955
X6.623Y-5.7388
X6.6587Y-2.7701
X6.6587Y-6.3134
X6.6751Y-1.6316
X6.6751Y-5.1749
X6.7374Y-2.1992
X6.7374Y-5.7425
X6.7965Y-3.5969
X6.7965Y-7.1402
X6.8358Y-2.9866
X6.8358Y-6.5299
X7.1508Y-3.7543
X7.1508Y-7.2976
X7.4657Y-2.9669
X7.4657Y-3.0654
X7.4657Y-6.5102
X7.4657Y-6.6087
X7.6232Y-3.774
X7.6232Y-7.3173
X7.8594Y-3.5904
X7.8594Y-7.1337
X7.8791Y-1.589
X7.8791Y-2.2976
X7.8791Y-5.1323
X7.8791Y-5.8409
X7.9185Y-3.4572
X7.9185Y-7.0006
X8.0957Y-2.6913
X8.0957Y-6.2346
X8.2531Y-3.3213
X8.2531Y-6.8646
X8.3713Y-3.3213
X8.3713Y-6.8646
X8.807Y-2.4818
X8.807Y-6.0251
X8.939Y-2.989
X8.939Y-6.5323
X8.952Y-2.1854
X8.952Y-5.7287
X8.952Y-2.3828
X8.952Y-2.8168
X8.952Y-5.9261
X8.952Y-6.3601
X9.0311Y-2.4818
X9.0311Y-6.0251
X9.0356Y-2.2336
X9.0356Y-5.7769
X6.9551Y-2.2949
X6.9551Y-2.3949
X6.9551Y-2.4949
X6.9551Y-2.5949
X6.9551Y-2.6949
X6.9551Y-2.7949
X6.9551Y-2.8949
X6.9551Y-2.9949
X6.9551Y-3.0949
X6.9551Y-3.1949
X6.9551Y-3.2949
X6.9551Y-3.3949
X6.9551Y-3.4949
X6.9551Y-3.5949
X7.2551Y-2.2949
X7.2551Y-2.3949
X7.2551Y-2.4949
X7.2551Y-2.5949
X7.2551Y-2.6949
X7.2551Y-2.7949
X7.2551Y-2.8949
X7.2551Y-2.9949
X7.2551Y-3.0949
X7.2551Y-3.1949
X7.2551Y-3.2949
X7.2551Y-3.3949
X7.2551Y-3.4949
X7.2551Y-3.5949
X7.6232Y-6.8039
X7.6232Y-6.9039
X7.6232Y-7.0039
X7.6232Y-7.1039
X9.1267Y-2.6372
X9.1267Y-2.7372
X9.1267Y-2.8372
X9.1267Y-2.9372
X9.2267Y-2.6872
X9.2267Y-2.7872
X9.2267Y-2.8872
X9.2267Y-2.9872
X9.1265Y-1.8162
X9.1265Y-1.9162
X9.1265Y-2.0162
X9.1265Y-2.1162
X9.2265Y-1.8662
X9.2265Y-1.9662
X9.2265Y-2.0662
X9.2265Y-2.1662
X7.9277Y-6.3857
X7.9277Y-6.5778
X9.1267Y-6.1806
X9.1267Y-6.2806
X9.1267Y-6.3806
X9.1267Y-6.4806
X9.2267Y-6.2306
X9.2267Y-6.3306
X9.2267Y-6.4306
X9.2267Y-6.5306
X7.9277Y-2.8424
X7.9277Y-3.0345
X7.5089Y-6.1395
X7.5089Y-6.3317
X7.5089Y-2.5962
X7.5089Y-2.7883
X7.6232Y-3.2606
X7.6232Y-3.3606
X7.6232Y-3.4606
X7.6232Y-3.5606
X9.1265Y-5.3595
X9.1265Y-5.4595
X9.1265Y-5.5595
X9.1265Y-5.6595
X9.2265Y-5.4095
X9.2265Y-5.5095
X9.2265Y-5.6095
X9.2265Y-5.7095
X6.9551Y-5.8382
X6.9551Y-5.9382
X6.9551Y-6.0382
X6.9551Y-6.1382
X6.9551Y-6.2382
X6.9551Y-6.3382
X6.9551Y-6.4382
X6.9551Y-6.5382
X6.9551Y-6.6382
X6.9551Y-6.7382
X6.9551Y-6.8382
X6.9551Y-6.9382
X6.9551Y-7.0382
X6.9551Y-7.1382
X7.2551Y-5.8382
X7.2551Y-5.9382
X7.2551Y-6.0382
X7.2551Y-6.1382
X7.2551Y-6.2382
X7.2551Y-6.3382
X7.2551Y-6.4382
X7.2551Y-6.5382
X7.2551Y-6.6382
X7.2551Y-6.7382
X7.2551Y-6.8382
X7.2551Y-6.9382
X7.2551Y-7.0382
X7.2551Y-7.1382
T3
X7.6232Y-2.2878
X7.6232Y-2.3878
X7.6232Y-5.8311
X7.6232Y-5.9311
T4
X4.3654Y-3.1244
X4.3654Y-3.3213
X3.2925Y-6.6677
X3.2925Y-6.8646
X4.3654Y-6.6677
X4.3654Y-6.8646
X2.7413Y-3.1244
X2.7413Y-3.3213
X2.7413Y-6.6677
X2.7413Y-6.8646
X3.824Y-3.1244
X3.824Y-3.3213
X3.824Y-6.6677
X3.824Y-6.8646
X3.2925Y-3.1244
X3.2925Y-3.3213
T5
X4.4736Y-4.8173
X4.4736Y-5.0319
X4.4736Y-5.2465
X4.4736Y-1.274
X4.4736Y-1.4886
X4.4736Y-1.7031
X4.4736Y-5.5457
X4.4736Y-5.7602
X4.4736Y-5.9748
X4.4736Y-2.0024
X4.4736Y-2.2169
X4.4736Y-2.4315
T6
X9.3565Y-5.2294
X9.3565Y-5.8396
X9.3566Y-2.5071
X9.3566Y-3.1174
X9.3565Y-1.6861
X9.3565Y-2.2963
X9.3566Y-6.0504
X9.3566Y-6.6607
T7
X5.2217Y-3.4984
X6.3505Y-3.5046
X5.2217Y-7.0417
X6.3505Y-7.0479
X3.1744Y-1.4315
X3.1744Y-1.8252
X3.1744Y-4.9748
X3.1744Y-5.3685
T8
X2.1508Y-6.3724
X2.1508Y-1.3134
X2.1508Y-5.6047
X2.1508Y-4.8567
X2.1508Y-2.0614
X2.1508Y-3.5378
X2.1508Y-2.8291
X2.1508Y-7.0811
T9
X9.4765Y-5.3095
X9.4765Y-5.7595
X9.4767Y-2.5872
X9.4767Y-3.0372
X9.4765Y-1.7662
X9.4765Y-2.2162
X9.4767Y-6.1306
X9.4767Y-6.5806
T10
X5.2555Y-5.0319
X5.2555Y-1.4886
X5.2555Y-5.7602
X5.2555Y-2.2169
T0
M30
