G04 #@! TF.GenerationSoftware,KiCad,Pcbnew,9.0.1-9.0.1-0~ubuntu24.04.1*
G04 #@! TF.CreationDate,2025-05-16T13:03:02-03:00*
G04 #@! TF.ProjectId,MCB19,4d434231-392e-46b6-9963-61645f706362,rev?*
G04 #@! TF.SameCoordinates,Original*
G04 #@! TF.FileFunction,Paste,Bot*
G04 #@! TF.FilePolarity,Positive*
%FSLAX46Y46*%
G04 Gerber Fmt 4.6, Leading zero omitted, Abs format (unit mm)*
G04 Created by KiCad (PCBNEW 9.0.1-9.0.1-0~ubuntu24.04.1) date 2025-05-16 13:03:02*
%MOMM*%
%LPD*%
G01*
G04 APERTURE LIST*
G04 Aperture macros list*
%AMRoundRect*
0 Rectangle with rounded corners*
0 $1 Rounding radius*
0 $2 $3 $4 $5 $6 $7 $8 $9 X,Y pos of 4 corners*
0 Add a 4 corners polygon primitive as box body*
4,1,4,$2,$3,$4,$5,$6,$7,$8,$9,$2,$3,0*
0 Add four circle primitives for the rounded corners*
1,1,$1+$1,$2,$3*
1,1,$1+$1,$4,$5*
1,1,$1+$1,$6,$7*
1,1,$1+$1,$8,$9*
0 Add four rect primitives between the rounded corners*
20,1,$1+$1,$2,$3,$4,$5,0*
20,1,$1+$1,$4,$5,$6,$7,0*
20,1,$1+$1,$6,$7,$8,$9,0*
20,1,$1+$1,$8,$9,$2,$3,0*%
G04 Aperture macros list end*
%ADD10RoundRect,0.250000X-0.337500X-0.475000X0.337500X-0.475000X0.337500X0.475000X-0.337500X0.475000X0*%
%ADD11RoundRect,0.250001X-0.462499X-0.624999X0.462499X-0.624999X0.462499X0.624999X-0.462499X0.624999X0*%
%ADD12RoundRect,0.250000X-0.450000X0.325000X-0.450000X-0.325000X0.450000X-0.325000X0.450000X0.325000X0*%
%ADD13RoundRect,0.150000X0.150000X-0.825000X0.150000X0.825000X-0.150000X0.825000X-0.150000X-0.825000X0*%
%ADD14R,6.400000X2.000000*%
%ADD15RoundRect,0.250000X0.450000X-0.325000X0.450000X0.325000X-0.450000X0.325000X-0.450000X-0.325000X0*%
%ADD16RoundRect,0.250000X0.875000X0.925000X-0.875000X0.925000X-0.875000X-0.925000X0.875000X-0.925000X0*%
%ADD17RoundRect,0.250000X0.325000X0.450000X-0.325000X0.450000X-0.325000X-0.450000X0.325000X-0.450000X0*%
%ADD18RoundRect,0.250000X-0.325000X-0.450000X0.325000X-0.450000X0.325000X0.450000X-0.325000X0.450000X0*%
%ADD19R,5.000000X10.000000*%
%ADD20RoundRect,0.150000X-0.150000X0.825000X-0.150000X-0.825000X0.150000X-0.825000X0.150000X0.825000X0*%
%ADD21R,0.900000X0.800000*%
%ADD22R,3.300000X1.700000*%
%ADD23RoundRect,0.250000X0.925000X-0.875000X0.925000X0.875000X-0.925000X0.875000X-0.925000X-0.875000X0*%
%ADD24R,2.000000X0.600000*%
%ADD25RoundRect,0.250001X-0.624999X0.462499X-0.624999X-0.462499X0.624999X-0.462499X0.624999X0.462499X0*%
%ADD26R,1.550000X0.600000*%
%ADD27R,4.000000X1.905000*%
%ADD28R,16.000000X10.000000*%
%ADD29R,1.900000X0.800000*%
%ADD30R,1.700000X3.300000*%
%ADD31RoundRect,0.250000X-0.875000X-0.925000X0.875000X-0.925000X0.875000X0.925000X-0.875000X0.925000X0*%
%ADD32RoundRect,0.250000X-0.925000X0.875000X-0.925000X-0.875000X0.925000X-0.875000X0.925000X0.875000X0*%
G04 APERTURE END LIST*
D10*
X83432500Y-93800000D03*
X85507500Y-93800000D03*
D11*
X83012500Y-86000000D03*
X85987500Y-86000000D03*
X83012500Y-88870000D03*
X85987500Y-88870000D03*
D12*
X110400000Y-83375000D03*
X110400000Y-85425000D03*
D13*
X118105000Y-101425000D03*
X116835000Y-101425000D03*
X115565000Y-101425000D03*
X114295000Y-101425000D03*
X114295000Y-96475000D03*
X115565000Y-96475000D03*
X116835000Y-96475000D03*
X118105000Y-96475000D03*
D14*
X122950000Y-101050000D03*
X122950000Y-96850000D03*
D15*
X112200000Y-101475000D03*
X112200000Y-99425000D03*
D12*
X110400000Y-87800000D03*
X110400000Y-89850000D03*
D16*
X104625000Y-77825000D03*
X99525000Y-77825000D03*
D17*
X101025000Y-82500000D03*
X98975000Y-82500000D03*
D18*
X83445000Y-91504999D03*
X85495000Y-91504999D03*
D19*
X89200000Y-123800000D03*
X66600000Y-123800000D03*
D20*
X104495000Y-84425000D03*
X105765000Y-84425000D03*
X107035000Y-84425000D03*
X108305000Y-84425000D03*
X108305000Y-89375000D03*
X107035000Y-89375000D03*
X105765000Y-89375000D03*
X104495000Y-89375000D03*
D18*
X101950000Y-118200000D03*
X104000000Y-118200000D03*
D21*
X99800000Y-114600000D03*
X99800000Y-116500000D03*
X97800000Y-115550000D03*
D22*
X109650000Y-80900000D03*
X104150000Y-80900000D03*
D21*
X104000000Y-113650000D03*
X104000000Y-115550000D03*
X102000000Y-114600000D03*
D12*
X95600000Y-113975000D03*
X95600000Y-116025000D03*
D18*
X153764000Y-112950000D03*
X155814000Y-112950000D03*
D17*
X183425000Y-122700000D03*
X181375000Y-122700000D03*
X164751000Y-102769000D03*
X162701000Y-102769000D03*
D18*
X164795000Y-123700000D03*
X166845000Y-123700000D03*
D17*
X160175000Y-123750000D03*
X158125000Y-123750000D03*
D22*
X213350000Y-56800000D03*
X218850000Y-56800000D03*
D17*
X177049000Y-104376000D03*
X174999000Y-104376000D03*
D18*
X161550000Y-90750000D03*
X163600000Y-90750000D03*
D17*
X164925000Y-88450000D03*
X162875000Y-88450000D03*
D22*
X213350000Y-59300000D03*
X218850000Y-59300000D03*
X165675000Y-126400000D03*
X160175000Y-126400000D03*
D17*
X155814000Y-108404000D03*
X153764000Y-108404000D03*
D23*
X171000000Y-69050000D03*
X171000000Y-63950000D03*
D17*
X148176000Y-113484000D03*
X146126000Y-113484000D03*
D18*
X146126000Y-108404000D03*
X148176000Y-108404000D03*
X153764000Y-110700000D03*
X155814000Y-110700000D03*
X162701000Y-118644000D03*
X164751000Y-118644000D03*
D15*
X208600000Y-69350000D03*
X208600000Y-67300000D03*
D12*
X171400000Y-88440000D03*
X171400000Y-90490000D03*
D15*
X161400000Y-106725000D03*
X161400000Y-104675000D03*
X171400000Y-94750000D03*
X171400000Y-92700000D03*
D18*
X162701000Y-116104000D03*
X164751000Y-116104000D03*
D20*
X139740000Y-116325000D03*
X141010000Y-116325000D03*
X142280000Y-116325000D03*
X143550000Y-116325000D03*
X144820000Y-116325000D03*
X146090000Y-116325000D03*
X147360000Y-116325000D03*
X147360000Y-121275000D03*
X146090000Y-121275000D03*
X144820000Y-121275000D03*
X143550000Y-121275000D03*
X142280000Y-121275000D03*
X141010000Y-121275000D03*
X139740000Y-121275000D03*
D17*
X164725000Y-121150000D03*
X162675000Y-121150000D03*
D18*
X163971000Y-98324000D03*
X166021000Y-98324000D03*
D24*
X181729000Y-111996000D03*
X181729000Y-110726000D03*
X181729000Y-109456000D03*
X181729000Y-108186000D03*
X181729000Y-106916000D03*
X181729000Y-105646000D03*
X181729000Y-104376000D03*
X181729000Y-103106000D03*
X181729000Y-101836000D03*
X191129000Y-101836000D03*
X191129000Y-103106000D03*
X191129000Y-104376000D03*
X191129000Y-105646000D03*
X191129000Y-106916000D03*
X191129000Y-108186000D03*
X191129000Y-109456000D03*
X191129000Y-110726000D03*
X191129000Y-111996000D03*
D18*
X191875000Y-114200000D03*
X193925000Y-114200000D03*
D17*
X191925000Y-116200000D03*
X189875000Y-116200000D03*
X148176000Y-110944000D03*
X146126000Y-110944000D03*
X189925000Y-114200000D03*
X187875000Y-114200000D03*
D15*
X175100000Y-69300000D03*
X175100000Y-67250000D03*
D25*
X218950000Y-62362500D03*
X218950000Y-65337500D03*
D26*
X178200000Y-120605000D03*
X178200000Y-119335000D03*
X178200000Y-118065000D03*
X178200000Y-116795000D03*
X183600000Y-116795000D03*
X183600000Y-118065000D03*
X183600000Y-119335000D03*
X183600000Y-120605000D03*
D12*
X199400000Y-117675000D03*
X199400000Y-119725000D03*
D27*
X199554000Y-61760000D03*
X199554000Y-64300000D03*
D28*
X186600000Y-64300000D03*
D27*
X199554000Y-66840000D03*
D12*
X204600000Y-59275000D03*
X204600000Y-61325000D03*
D18*
X177149000Y-100566000D03*
X179199000Y-100566000D03*
D12*
X171100000Y-59275000D03*
X171100000Y-61325000D03*
D27*
X166054000Y-61760000D03*
X166054000Y-64300000D03*
D28*
X153100000Y-64300000D03*
D27*
X166054000Y-66840000D03*
D15*
X153900000Y-105725000D03*
X153900000Y-103675000D03*
D29*
X196350000Y-88300000D03*
X196350000Y-86400000D03*
X199350000Y-87350000D03*
D15*
X137800000Y-120975000D03*
X137800000Y-118925000D03*
D30*
X83500000Y-106650000D03*
X83500000Y-112150000D03*
D17*
X164625000Y-113000000D03*
X162575000Y-113000000D03*
D18*
X162575000Y-110000000D03*
X164625000Y-110000000D03*
D31*
X99450000Y-124200000D03*
X104550000Y-124200000D03*
D18*
X98400000Y-120600000D03*
X100450000Y-120600000D03*
D19*
X89190000Y-58530000D03*
X66590000Y-58530000D03*
D23*
X204500000Y-69550000D03*
X204500000Y-64450000D03*
D32*
X175000000Y-58950000D03*
X175000000Y-64050000D03*
X208500000Y-59450000D03*
X208500000Y-64550000D03*
M02*
