<?xml version="1.0" standalone="no"?>
 <!DOCTYPE svg PUBLIC "-//W3C//DTD SVG 1.1//EN" 
 "http://www.w3.org/Graphics/SVG/1.1/DTD/svg11.dtd"> 
<svg xmlns="http://www.w3.org/2000/svg" version="1.1" 
    width="29.7002cm" height="21.0007cm" viewBox="0 0 116930 82680 ">
<title>SVG Picture created as +12V-supplies12.svg date 2020/08/14 00:15:54 </title>
  <desc>Picture generated by Eeschema-SVG </desc>
<g style="fill:#000000; fill-opacity:1;stroke:#000000; stroke-opacity:1;
stroke-linecap:round; stroke-linejoin:round; "
 transform="translate(0 0) scale(1 1)">
</g>
<g style="fill:#000000; fill-opacity:0.0; 
stroke:#000000; stroke-width:-10; stroke-opacity:1; 
stroke-linecap:round; stroke-linejoin:round;">
</g>
<g style="fill:#840000; fill-opacity:0.0; 
stroke:#840000; stroke-width:-10; stroke-opacity:1; 
stroke-linecap:round; stroke-linejoin:round;">
</g>
<g style="fill:#840000; fill-opacity:0.0; 
stroke:#840000; stroke-width:100; stroke-opacity:1; 
stroke-linecap:round; stroke-linejoin:round;">
</g>
<g style="fill:#840000; fill-opacity:0.0; 
stroke:#840000; stroke-width:60; stroke-opacity:1; 
stroke-linecap:round; stroke-linejoin:round;">
<rect x="69690" y="65360" width="42520" height="12600" rx="0" />
</g>
<g style="fill:#840000; fill-opacity:0.0; 
stroke:#840000; stroke-width:100; stroke-opacity:1; 
stroke-linecap:round; stroke-linejoin:round;">
</g>
<g style="fill:#840000; fill-opacity:0.0; 
stroke:#840000; stroke-width:60; stroke-opacity:1; 
stroke-linecap:round; stroke-linejoin:round;">
<rect x="3940" y="3940" width="109050" height="74800" rx="0" />
</g>
<g style="fill:#840000; fill-opacity:0.0; 
stroke:#840000; stroke-width:100; stroke-opacity:1; 
stroke-linecap:round; stroke-linejoin:round;">
</g>
<g style="fill:#840000; fill-opacity:0.0; 
stroke:#840000; stroke-width:60; stroke-opacity:1; 
stroke-linecap:round; stroke-linejoin:round;">
<rect x="4720" y="4720" width="107490" height="73240" rx="0" />
</g>
<g style="fill:#840000; fill-opacity:0.0; 
stroke:#840000; stroke-width:100; stroke-opacity:1; 
stroke-linecap:round; stroke-linejoin:round;">
</g>
<g style="fill:#840000; fill-opacity:0.0; 
stroke:#840000; stroke-width:60; stroke-opacity:1; 
stroke-linecap:round; stroke-linejoin:round;">
<path d="M23620 4720
L23620 3940
" />
</g>
<g style="fill:#840000; fill-opacity:0.0; 
stroke:#840000; stroke-width:100; stroke-opacity:1; 
stroke-linecap:round; stroke-linejoin:round;">
</g>
<g style="fill:#840000; fill-opacity:0.0; 
stroke:#840000; stroke-width:60; stroke-opacity:1; 
stroke-linecap:round; stroke-linejoin:round;">
<path d="M43310 4720
L43310 3940
" />
</g>
<g style="fill:#840000; fill-opacity:0.0; 
stroke:#840000; stroke-width:100; stroke-opacity:1; 
stroke-linecap:round; stroke-linejoin:round;">
</g>
<g style="fill:#840000; fill-opacity:0.0; 
stroke:#840000; stroke-width:60; stroke-opacity:1; 
stroke-linecap:round; stroke-linejoin:round;">
<path d="M62990 4720
L62990 3940
" />
</g>
<g style="fill:#840000; fill-opacity:0.0; 
stroke:#840000; stroke-width:100; stroke-opacity:1; 
stroke-linecap:round; stroke-linejoin:round;">
</g>
<g style="fill:#840000; fill-opacity:0.0; 
stroke:#840000; stroke-width:60; stroke-opacity:1; 
stroke-linecap:round; stroke-linejoin:round;">
<path d="M82680 4720
L82680 3940
" />
</g>
<g style="fill:#840000; fill-opacity:0.0; 
stroke:#840000; stroke-width:100; stroke-opacity:1; 
stroke-linecap:round; stroke-linejoin:round;">
</g>
<g style="fill:#840000; fill-opacity:0.0; 
stroke:#840000; stroke-width:60; stroke-opacity:1; 
stroke-linecap:round; stroke-linejoin:round;">
<path d="M102360 4720
L102360 3940
" />
</g>
<g style="fill:#840000; fill-opacity:0.0; 
stroke:#840000; stroke-width:100; stroke-opacity:1; 
stroke-linecap:round; stroke-linejoin:round;">
</g>
<g style="fill:#840000; fill-opacity:0.0; 
stroke:#840000; stroke-width:60; stroke-opacity:1; 
stroke-linecap:round; stroke-linejoin:round;">
<text x="13780" y="4580"
textLength="550" font-size="680" lengthAdjust="spacingAndGlyphs"
text-anchor="start" opacity="0">1</text>
<path d="M14190 4560
L13900 4560
" />
<path d="M14050 4560
L14050 4050
L14000 4120
L13950 4170
L13900 4190
" />
</g>
<g style="fill:#840000; fill-opacity:0.0; 
stroke:#840000; stroke-width:100; stroke-opacity:1; 
stroke-linecap:round; stroke-linejoin:round;">
</g>
<g style="fill:#840000; fill-opacity:0.0; 
stroke:#840000; stroke-width:60; stroke-opacity:1; 
stroke-linecap:round; stroke-linejoin:round;">
<text x="33460" y="4580"
textLength="550" font-size="680" lengthAdjust="spacingAndGlyphs"
text-anchor="start" opacity="0">2</text>
<path d="M33580 4090
L33610 4070
L33660 4050
L33780 4050
L33830 4070
L33850 4090
L33870 4140
L33870 4190
L33850 4260
L33560 4560
L33870 4560
" />
</g>
<g style="fill:#840000; fill-opacity:0.0; 
stroke:#840000; stroke-width:100; stroke-opacity:1; 
stroke-linecap:round; stroke-linejoin:round;">
</g>
<g style="fill:#840000; fill-opacity:0.0; 
stroke:#840000; stroke-width:60; stroke-opacity:1; 
stroke-linecap:round; stroke-linejoin:round;">
<text x="53150" y="4580"
textLength="550" font-size="680" lengthAdjust="spacingAndGlyphs"
text-anchor="start" opacity="0">3</text>
<path d="M53250 4050
L53560 4050
L53390 4240
L53470 4240
L53520 4260
L53540 4290
L53560 4340
L53560 4460
L53540 4510
L53520 4530
L53470 4560
L53320 4560
L53270 4530
L53250 4510
" />
</g>
<g style="fill:#840000; fill-opacity:0.0; 
stroke:#840000; stroke-width:100; stroke-opacity:1; 
stroke-linecap:round; stroke-linejoin:round;">
</g>
<g style="fill:#840000; fill-opacity:0.0; 
stroke:#840000; stroke-width:60; stroke-opacity:1; 
stroke-linecap:round; stroke-linejoin:round;">
<text x="72830" y="4580"
textLength="550" font-size="680" lengthAdjust="spacingAndGlyphs"
text-anchor="start" opacity="0">4</text>
<path d="M73200 4220
L73200 4560
" />
<path d="M73070 4020
L72950 4390
L73270 4390
" />
</g>
<g style="fill:#840000; fill-opacity:0.0; 
stroke:#840000; stroke-width:100; stroke-opacity:1; 
stroke-linecap:round; stroke-linejoin:round;">
</g>
<g style="fill:#840000; fill-opacity:0.0; 
stroke:#840000; stroke-width:60; stroke-opacity:1; 
stroke-linecap:round; stroke-linejoin:round;">
<text x="92520" y="4580"
textLength="550" font-size="680" lengthAdjust="spacingAndGlyphs"
text-anchor="start" opacity="0">5</text>
<path d="M92910 4050
L92670 4050
L92640 4290
L92670 4260
L92720 4240
L92840 4240
L92890 4260
L92910 4290
L92930 4340
L92930 4460
L92910 4510
L92890 4530
L92840 4560
L92720 4560
L92670 4530
L92640 4510
" />
</g>
<g style="fill:#840000; fill-opacity:0.0; 
stroke:#840000; stroke-width:100; stroke-opacity:1; 
stroke-linecap:round; stroke-linejoin:round;">
</g>
<g style="fill:#840000; fill-opacity:0.0; 
stroke:#840000; stroke-width:60; stroke-opacity:1; 
stroke-linecap:round; stroke-linejoin:round;">
<text x="112200" y="4580"
textLength="550" font-size="680" lengthAdjust="spacingAndGlyphs"
text-anchor="start" opacity="0">6</text>
<path d="M112570 4050
L112470 4050
L112420 4070
L112400 4090
L112350 4170
L112320 4260
L112320 4460
L112350 4510
L112370 4530
L112420 4560
L112520 4560
L112570 4530
L112590 4510
L112610 4460
L112610 4340
L112590 4290
L112570 4260
L112520 4240
L112420 4240
L112370 4260
L112350 4290
L112320 4340
" />
</g>
<g style="fill:#840000; fill-opacity:0.0; 
stroke:#840000; stroke-width:100; stroke-opacity:1; 
stroke-linecap:round; stroke-linejoin:round;">
</g>
<g style="fill:#840000; fill-opacity:0.0; 
stroke:#840000; stroke-width:60; stroke-opacity:1; 
stroke-linecap:round; stroke-linejoin:round;">
<path d="M23620 77960
L23620 78740
" />
</g>
<g style="fill:#840000; fill-opacity:0.0; 
stroke:#840000; stroke-width:100; stroke-opacity:1; 
stroke-linecap:round; stroke-linejoin:round;">
</g>
<g style="fill:#840000; fill-opacity:0.0; 
stroke:#840000; stroke-width:60; stroke-opacity:1; 
stroke-linecap:round; stroke-linejoin:round;">
<path d="M43310 77960
L43310 78740
" />
</g>
<g style="fill:#840000; fill-opacity:0.0; 
stroke:#840000; stroke-width:100; stroke-opacity:1; 
stroke-linecap:round; stroke-linejoin:round;">
</g>
<g style="fill:#840000; fill-opacity:0.0; 
stroke:#840000; stroke-width:60; stroke-opacity:1; 
stroke-linecap:round; stroke-linejoin:round;">
<path d="M62990 77960
L62990 78740
" />
</g>
<g style="fill:#840000; fill-opacity:0.0; 
stroke:#840000; stroke-width:100; stroke-opacity:1; 
stroke-linecap:round; stroke-linejoin:round;">
</g>
<g style="fill:#840000; fill-opacity:0.0; 
stroke:#840000; stroke-width:60; stroke-opacity:1; 
stroke-linecap:round; stroke-linejoin:round;">
<path d="M82680 77960
L82680 78740
" />
</g>
<g style="fill:#840000; fill-opacity:0.0; 
stroke:#840000; stroke-width:100; stroke-opacity:1; 
stroke-linecap:round; stroke-linejoin:round;">
</g>
<g style="fill:#840000; fill-opacity:0.0; 
stroke:#840000; stroke-width:60; stroke-opacity:1; 
stroke-linecap:round; stroke-linejoin:round;">
<path d="M102360 77960
L102360 78740
" />
</g>
<g style="fill:#840000; fill-opacity:0.0; 
stroke:#840000; stroke-width:100; stroke-opacity:1; 
stroke-linecap:round; stroke-linejoin:round;">
</g>
<g style="fill:#840000; fill-opacity:0.0; 
stroke:#840000; stroke-width:60; stroke-opacity:1; 
stroke-linecap:round; stroke-linejoin:round;">
<text x="13780" y="78600"
textLength="550" font-size="680" lengthAdjust="spacingAndGlyphs"
text-anchor="start" opacity="0">1</text>
<path d="M14190 78580
L13900 78580
" />
<path d="M14050 78580
L14050 78070
L14000 78140
L13950 78190
L13900 78210
" />
</g>
<g style="fill:#840000; fill-opacity:0.0; 
stroke:#840000; stroke-width:100; stroke-opacity:1; 
stroke-linecap:round; stroke-linejoin:round;">
</g>
<g style="fill:#840000; fill-opacity:0.0; 
stroke:#840000; stroke-width:60; stroke-opacity:1; 
stroke-linecap:round; stroke-linejoin:round;">
<text x="33460" y="78600"
textLength="550" font-size="680" lengthAdjust="spacingAndGlyphs"
text-anchor="start" opacity="0">2</text>
<path d="M33580 78110
L33610 78090
L33660 78070
L33780 78070
L33830 78090
L33850 78110
L33870 78160
L33870 78210
L33850 78280
L33560 78580
L33870 78580
" />
</g>
<g style="fill:#840000; fill-opacity:0.0; 
stroke:#840000; stroke-width:100; stroke-opacity:1; 
stroke-linecap:round; stroke-linejoin:round;">
</g>
<g style="fill:#840000; fill-opacity:0.0; 
stroke:#840000; stroke-width:60; stroke-opacity:1; 
stroke-linecap:round; stroke-linejoin:round;">
<text x="53150" y="78600"
textLength="550" font-size="680" lengthAdjust="spacingAndGlyphs"
text-anchor="start" opacity="0">3</text>
<path d="M53250 78070
L53560 78070
L53390 78260
L53470 78260
L53520 78280
L53540 78310
L53560 78360
L53560 78480
L53540 78530
L53520 78550
L53470 78580
L53320 78580
L53270 78550
L53250 78530
" />
</g>
<g style="fill:#840000; fill-opacity:0.0; 
stroke:#840000; stroke-width:100; stroke-opacity:1; 
stroke-linecap:round; stroke-linejoin:round;">
</g>
<g style="fill:#840000; fill-opacity:0.0; 
stroke:#840000; stroke-width:60; stroke-opacity:1; 
stroke-linecap:round; stroke-linejoin:round;">
<text x="72830" y="78600"
textLength="550" font-size="680" lengthAdjust="spacingAndGlyphs"
text-anchor="start" opacity="0">4</text>
<path d="M73200 78240
L73200 78580
" />
<path d="M73070 78040
L72950 78410
L73270 78410
" />
</g>
<g style="fill:#840000; fill-opacity:0.0; 
stroke:#840000; stroke-width:100; stroke-opacity:1; 
stroke-linecap:round; stroke-linejoin:round;">
</g>
<g style="fill:#840000; fill-opacity:0.0; 
stroke:#840000; stroke-width:60; stroke-opacity:1; 
stroke-linecap:round; stroke-linejoin:round;">
<text x="92520" y="78600"
textLength="550" font-size="680" lengthAdjust="spacingAndGlyphs"
text-anchor="start" opacity="0">5</text>
<path d="M92910 78070
L92670 78070
L92640 78310
L92670 78280
L92720 78260
L92840 78260
L92890 78280
L92910 78310
L92930 78360
L92930 78480
L92910 78530
L92890 78550
L92840 78580
L92720 78580
L92670 78550
L92640 78530
" />
</g>
<g style="fill:#840000; fill-opacity:0.0; 
stroke:#840000; stroke-width:100; stroke-opacity:1; 
stroke-linecap:round; stroke-linejoin:round;">
</g>
<g style="fill:#840000; fill-opacity:0.0; 
stroke:#840000; stroke-width:60; stroke-opacity:1; 
stroke-linecap:round; stroke-linejoin:round;">
<text x="112200" y="78600"
textLength="550" font-size="680" lengthAdjust="spacingAndGlyphs"
text-anchor="start" opacity="0">6</text>
<path d="M112570 78070
L112470 78070
L112420 78090
L112400 78110
L112350 78190
L112320 78280
L112320 78480
L112350 78530
L112370 78550
L112420 78580
L112520 78580
L112570 78550
L112590 78530
L112610 78480
L112610 78360
L112590 78310
L112570 78280
L112520 78260
L112420 78260
L112370 78280
L112350 78310
L112320 78360
" />
</g>
<g style="fill:#840000; fill-opacity:0.0; 
stroke:#840000; stroke-width:100; stroke-opacity:1; 
stroke-linecap:round; stroke-linejoin:round;">
</g>
<g style="fill:#840000; fill-opacity:0.0; 
stroke:#840000; stroke-width:60; stroke-opacity:1; 
stroke-linecap:round; stroke-linejoin:round;">
<path d="M3940 23620
L4720 23620
" />
</g>
<g style="fill:#840000; fill-opacity:0.0; 
stroke:#840000; stroke-width:100; stroke-opacity:1; 
stroke-linecap:round; stroke-linejoin:round;">
</g>
<g style="fill:#840000; fill-opacity:0.0; 
stroke:#840000; stroke-width:60; stroke-opacity:1; 
stroke-linecap:round; stroke-linejoin:round;">
<path d="M3940 43310
L4720 43310
" />
</g>
<g style="fill:#840000; fill-opacity:0.0; 
stroke:#840000; stroke-width:100; stroke-opacity:1; 
stroke-linecap:round; stroke-linejoin:round;">
</g>
<g style="fill:#840000; fill-opacity:0.0; 
stroke:#840000; stroke-width:60; stroke-opacity:1; 
stroke-linecap:round; stroke-linejoin:round;">
<path d="M3940 62990
L4720 62990
" />
</g>
<g style="fill:#840000; fill-opacity:0.0; 
stroke:#840000; stroke-width:100; stroke-opacity:1; 
stroke-linecap:round; stroke-linejoin:round;">
</g>
<g style="fill:#840000; fill-opacity:0.0; 
stroke:#840000; stroke-width:60; stroke-opacity:1; 
stroke-linecap:round; stroke-linejoin:round;">
<text x="4330" y="14030"
textLength="500" font-size="680" lengthAdjust="spacingAndGlyphs"
text-anchor="middle" opacity="0">A</text>
<path d="M4200 13860
L4450 13860
" />
<path d="M4160 14010
L4330 13500
L4500 14010
" />
</g>
<g style="fill:#840000; fill-opacity:0.0; 
stroke:#840000; stroke-width:100; stroke-opacity:1; 
stroke-linecap:round; stroke-linejoin:round;">
</g>
<g style="fill:#840000; fill-opacity:0.0; 
stroke:#840000; stroke-width:60; stroke-opacity:1; 
stroke-linecap:round; stroke-linejoin:round;">
<text x="4330" y="33710"
textLength="570" font-size="680" lengthAdjust="spacingAndGlyphs"
text-anchor="middle" opacity="0">B</text>
<path d="M4360 33420
L4430 33440
L4460 33470
L4480 33520
L4480 33590
L4460 33640
L4430 33660
L4390 33690
L4190 33690
L4190 33180
L4360 33180
L4410 33200
L4430 33220
L4460 33270
L4460 33320
L4430 33370
L4410 33390
L4360 33420
L4190 33420
" />
</g>
<g style="fill:#840000; fill-opacity:0.0; 
stroke:#840000; stroke-width:100; stroke-opacity:1; 
stroke-linecap:round; stroke-linejoin:round;">
</g>
<g style="fill:#840000; fill-opacity:0.0; 
stroke:#840000; stroke-width:60; stroke-opacity:1; 
stroke-linecap:round; stroke-linejoin:round;">
<text x="4330" y="53400"
textLength="570" font-size="680" lengthAdjust="spacingAndGlyphs"
text-anchor="middle" opacity="0">C</text>
<path d="M4480 53330
L4460 53350
L4390 53380
L4340 53380
L4260 53350
L4220 53300
L4190 53250
L4170 53160
L4170 53080
L4190 52990
L4220 52940
L4260 52890
L4340 52870
L4390 52870
L4460 52890
L4480 52910
" />
</g>
<g style="fill:#840000; fill-opacity:0.0; 
stroke:#840000; stroke-width:100; stroke-opacity:1; 
stroke-linecap:round; stroke-linejoin:round;">
</g>
<g style="fill:#840000; fill-opacity:0.0; 
stroke:#840000; stroke-width:60; stroke-opacity:1; 
stroke-linecap:round; stroke-linejoin:round;">
<text x="4330" y="73080"
textLength="570" font-size="680" lengthAdjust="spacingAndGlyphs"
text-anchor="middle" opacity="0">D</text>
<path d="M4190 73060
L4190 72550
L4310 72550
L4390 72570
L4430 72620
L4460 72670
L4480 72760
L4480 72840
L4460 72930
L4430 72980
L4390 73030
L4310 73060
L4190 73060
" />
</g>
<g style="fill:#840000; fill-opacity:0.0; 
stroke:#840000; stroke-width:100; stroke-opacity:1; 
stroke-linecap:round; stroke-linejoin:round;">
</g>
<g style="fill:#840000; fill-opacity:0.0; 
stroke:#840000; stroke-width:60; stroke-opacity:1; 
stroke-linecap:round; stroke-linejoin:round;">
<path d="M112990 23620
L112210 23620
" />
</g>
<g style="fill:#840000; fill-opacity:0.0; 
stroke:#840000; stroke-width:100; stroke-opacity:1; 
stroke-linecap:round; stroke-linejoin:round;">
</g>
<g style="fill:#840000; fill-opacity:0.0; 
stroke:#840000; stroke-width:60; stroke-opacity:1; 
stroke-linecap:round; stroke-linejoin:round;">
<path d="M112990 43310
L112210 43310
" />
</g>
<g style="fill:#840000; fill-opacity:0.0; 
stroke:#840000; stroke-width:100; stroke-opacity:1; 
stroke-linecap:round; stroke-linejoin:round;">
</g>
<g style="fill:#840000; fill-opacity:0.0; 
stroke:#840000; stroke-width:60; stroke-opacity:1; 
stroke-linecap:round; stroke-linejoin:round;">
<path d="M112990 62990
L112210 62990
" />
</g>
<g style="fill:#840000; fill-opacity:0.0; 
stroke:#840000; stroke-width:100; stroke-opacity:1; 
stroke-linecap:round; stroke-linejoin:round;">
</g>
<g style="fill:#840000; fill-opacity:0.0; 
stroke:#840000; stroke-width:60; stroke-opacity:1; 
stroke-linecap:round; stroke-linejoin:round;">
<text x="112600" y="14030"
textLength="500" font-size="680" lengthAdjust="spacingAndGlyphs"
text-anchor="middle" opacity="0">A</text>
<path d="M112470 13860
L112720 13860
" />
<path d="M112430 14010
L112600 13500
L112770 14010
" />
</g>
<g style="fill:#840000; fill-opacity:0.0; 
stroke:#840000; stroke-width:100; stroke-opacity:1; 
stroke-linecap:round; stroke-linejoin:round;">
</g>
<g style="fill:#840000; fill-opacity:0.0; 
stroke:#840000; stroke-width:60; stroke-opacity:1; 
stroke-linecap:round; stroke-linejoin:round;">
<text x="112600" y="33710"
textLength="570" font-size="680" lengthAdjust="spacingAndGlyphs"
text-anchor="middle" opacity="0">B</text>
<path d="M112630 33420
L112700 33440
L112730 33470
L112750 33520
L112750 33590
L112730 33640
L112700 33660
L112660 33690
L112460 33690
L112460 33180
L112630 33180
L112680 33200
L112700 33220
L112730 33270
L112730 33320
L112700 33370
L112680 33390
L112630 33420
L112460 33420
" />
</g>
<g style="fill:#840000; fill-opacity:0.0; 
stroke:#840000; stroke-width:100; stroke-opacity:1; 
stroke-linecap:round; stroke-linejoin:round;">
</g>
<g style="fill:#840000; fill-opacity:0.0; 
stroke:#840000; stroke-width:60; stroke-opacity:1; 
stroke-linecap:round; stroke-linejoin:round;">
<text x="112600" y="53400"
textLength="570" font-size="680" lengthAdjust="spacingAndGlyphs"
text-anchor="middle" opacity="0">C</text>
<path d="M112750 53330
L112730 53350
L112660 53380
L112610 53380
L112530 53350
L112490 53300
L112460 53250
L112440 53160
L112440 53080
L112460 52990
L112490 52940
L112530 52890
L112610 52870
L112660 52870
L112730 52890
L112750 52910
" />
</g>
<g style="fill:#840000; fill-opacity:0.0; 
stroke:#840000; stroke-width:100; stroke-opacity:1; 
stroke-linecap:round; stroke-linejoin:round;">
</g>
<g style="fill:#840000; fill-opacity:0.0; 
stroke:#840000; stroke-width:60; stroke-opacity:1; 
stroke-linecap:round; stroke-linejoin:round;">
<text x="112600" y="73080"
textLength="570" font-size="680" lengthAdjust="spacingAndGlyphs"
text-anchor="middle" opacity="0">D</text>
<path d="M112460 73060
L112460 72550
L112580 72550
L112660 72570
L112700 72620
L112730 72670
L112750 72760
L112750 72840
L112730 72930
L112700 72980
L112660 73030
L112580 73060
L112460 73060
" />
</g>
<g style="fill:#840000; fill-opacity:0.0; 
stroke:#840000; stroke-width:100; stroke-opacity:1; 
stroke-linecap:round; stroke-linejoin:round;">
</g>
<g style="fill:#840000; fill-opacity:0.0; 
stroke:#840000; stroke-width:60; stroke-opacity:1; 
stroke-linecap:round; stroke-linejoin:round;">
<text x="78740" y="76320"
textLength="2760" font-size="780" lengthAdjust="spacingAndGlyphs"
text-anchor="start" opacity="0">Date: </text>
<path d="M78910 76290
L78910 75700
L79050 75700
L79130 75730
L79190 75790
L79210 75840
L79240 75950
L79240 76040
L79210 76150
L79190 76210
L79130 76260
L79050 76290
L78910 76290
" />
<path d="M79750 76290
L79750 75980
L79720 75930
L79660 75900
L79550 75900
L79500 75930
" />
<path d="M79750 76260
L79690 76290
L79550 76290
L79500 76260
L79470 76210
L79470 76150
L79500 76100
L79550 76070
L79690 76070
L79750 76040
" />
<path d="M79950 75900
L80170 75900
" />
<path d="M80030 75700
L80030 76210
L80060 76260
L80110 76290
L80170 76290
" />
<path d="M80590 76260
L80540 76290
L80420 76290
L80370 76260
L80340 76210
L80340 75980
L80370 75930
L80420 75900
L80540 75900
L80590 75930
L80620 75980
L80620 76040
L80340 76100
" />
<path d="M80870 76240
L80900 76260
L80870 76290
L80840 76260
L80870 76240
L80870 76290
" />
<path d="M80870 75930
L80900 75950
L80870 75980
L80840 75950
L80870 75930
L80870 75980
" />
</g>
<g style="fill:#840000; fill-opacity:0.0; 
stroke:#840000; stroke-width:100; stroke-opacity:1; 
stroke-linecap:round; stroke-linejoin:round;">
</g>
<g style="fill:#840000; fill-opacity:0.0; 
stroke:#840000; stroke-width:60; stroke-opacity:1; 
stroke-linecap:round; stroke-linejoin:round;">
<path d="M69690 76580
L112210 76580
" />
</g>
<g style="fill:#840000; fill-opacity:0.0; 
stroke:#840000; stroke-width:100; stroke-opacity:1; 
stroke-linecap:round; stroke-linejoin:round;">
</g>
<g style="fill:#840000; fill-opacity:0.0; 
stroke:#840000; stroke-width:60; stroke-opacity:1; 
stroke-linecap:round; stroke-linejoin:round;">
<text x="70080" y="77420"
textLength="21950" font-size="780" lengthAdjust="spacingAndGlyphs"
text-anchor="start" opacity="0">KiCad E.D.A.  eeschema 5.1.5+dfsg1-2~bpo10+1</text>
<path d="M70250 77390
L70250 76800
" />
<path d="M70580 77390
L70330 77050
" />
<path d="M70580 76800
L70250 77140
" />
<path d="M70840 77390
L70840 77000
" />
<path d="M70840 76800
L70810 76830
L70840 76860
L70860 76830
L70840 76800
L70840 76860
" />
<path d="M71450 77340
L71430 77360
L71340 77390
L71290 77390
L71200 77360
L71140 77310
L71120 77250
L71090 77140
L71090 77050
L71120 76940
L71140 76890
L71200 76830
L71290 76800
L71340 76800
L71430 76830
L71450 76860
" />
<path d="M71960 77390
L71960 77080
L71930 77030
L71880 77000
L71760 77000
L71710 77030
" />
<path d="M71960 77360
L71900 77390
L71760 77390
L71710 77360
L71680 77310
L71680 77250
L71710 77200
L71760 77170
L71900 77170
L71960 77140
" />
<path d="M72490 77390
L72490 76800
" />
<path d="M72490 77360
L72440 77390
L72320 77390
L72270 77360
L72240 77340
L72210 77280
L72210 77110
L72240 77050
L72270 77030
L72320 77000
L72440 77000
L72490 77030
" />
<path d="M73220 77080
L73420 77080
" />
<path d="M73500 77390
L73220 77390
L73220 76800
L73500 76800
" />
<path d="M73760 77340
L73790 77360
L73760 77390
L73730 77360
L73760 77340
L73760 77390
" />
<path d="M74040 77390
L74040 76800
L74180 76800
L74260 76830
L74320 76890
L74350 76940
L74380 77050
L74380 77140
L74350 77250
L74320 77310
L74260 77360
L74180 77390
L74040 77390
" />
<path d="M74630 77340
L74660 77360
L74630 77390
L74600 77360
L74630 77340
L74630 77390
" />
<path d="M74880 77220
L75160 77220
" />
<path d="M74830 77390
L75020 76800
L75220 77390
" />
<path d="M75420 77340
L75440 77360
L75420 77390
L75390 77360
L75420 77340
L75420 77390
" />
<path d="M76820 77360
L76760 77390
L76650 77390
L76600 77360
L76570 77310
L76570 77080
L76600 77030
L76650 77000
L76760 77000
L76820 77030
L76850 77080
L76850 77140
L76570 77200
" />
<path d="M77330 77360
L77270 77390
L77160 77390
L77100 77360
L77070 77310
L77070 77080
L77100 77030
L77160 77000
L77270 77000
L77330 77030
L77350 77080
L77350 77140
L77070 77200
" />
<path d="M77580 77360
L77630 77390
L77750 77390
L77800 77360
L77830 77310
L77830 77280
L77800 77220
L77750 77200
L77660 77200
L77610 77170
L77580 77110
L77580 77080
L77610 77030
L77660 77000
L77750 77000
L77800 77030
" />
<path d="M78340 77360
L78280 77390
L78170 77390
L78110 77360
L78080 77340
L78060 77280
L78060 77110
L78080 77050
L78110 77030
L78170 77000
L78280 77000
L78340 77030
" />
<path d="M78590 77390
L78590 76800
" />
<path d="M78840 77390
L78840 77080
L78810 77030
L78760 77000
L78670 77000
L78620 77030
L78590 77050
" />
<path d="M79350 77360
L79290 77390
L79180 77390
L79120 77360
L79100 77310
L79100 77080
L79120 77030
L79180 77000
L79290 77000
L79350 77030
L79380 77080
L79380 77140
L79100 77200
" />
<path d="M79630 77390
L79630 77000
" />
<path d="M79630 77050
L79660 77030
L79710 77000
L79800 77000
L79850 77030
L79880 77080
L79880 77390
" />
<path d="M79880 77080
L79910 77030
L79970 77000
L80050 77000
L80110 77030
L80140 77080
L80140 77390
" />
<path d="M80670 77390
L80670 77080
L80640 77030
L80580 77000
L80470 77000
L80420 77030
" />
<path d="M80670 77360
L80610 77390
L80470 77390
L80420 77360
L80390 77310
L80390 77250
L80420 77200
L80470 77170
L80610 77170
L80670 77140
" />
<path d="M81680 76800
L81400 76800
L81370 77080
L81400 77050
L81460 77030
L81600 77030
L81650 77050
L81680 77080
L81710 77140
L81710 77280
L81680 77340
L81650 77360
L81600 77390
L81460 77390
L81400 77360
L81370 77340
" />
<path d="M81960 77340
L81990 77360
L81960 77390
L81930 77360
L81960 77340
L81960 77390
" />
<path d="M82550 77390
L82210 77390
" />
<path d="M82380 77390
L82380 76800
L82330 76890
L82270 76940
L82210 76970
" />
<path d="M82800 77340
L82830 77360
L82800 77390
L82780 77360
L82800 77340
L82800 77390
" />
<path d="M83370 76800
L83090 76800
L83060 77080
L83090 77050
L83140 77030
L83280 77030
L83340 77050
L83370 77080
L83390 77140
L83390 77280
L83370 77340
L83340 77360
L83280 77390
L83140 77390
L83090 77360
L83060 77340
" />
<path d="M83650 77170
L84100 77170
" />
<path d="M83870 77390
L83870 76940
" />
<path d="M84630 77390
L84630 76800
" />
<path d="M84630 77360
L84570 77390
L84460 77390
L84410 77360
L84380 77340
L84350 77280
L84350 77110
L84380 77050
L84410 77030
L84460 77000
L84570 77000
L84630 77030
" />
<path d="M84830 77000
L85050 77000
" />
<path d="M84910 77390
L84910 76890
L84940 76830
L85000 76800
L85050 76800
" />
<path d="M85220 77360
L85280 77390
L85390 77390
L85450 77360
L85470 77310
L85470 77280
L85450 77220
L85390 77200
L85300 77200
L85250 77170
L85220 77110
L85220 77080
L85250 77030
L85300 77000
L85390 77000
L85450 77030
" />
<path d="M85980 77000
L85980 77480
L85950 77530
L85920 77560
L85870 77590
L85780 77590
L85730 77560
" />
<path d="M85980 77360
L85920 77390
L85810 77390
L85750 77360
L85730 77340
L85700 77280
L85700 77110
L85730 77050
L85750 77030
L85810 77000
L85920 77000
L85980 77030
" />
<path d="M86570 77390
L86230 77390
" />
<path d="M86400 77390
L86400 76800
L86340 76890
L86290 76940
L86230 76970
" />
<path d="M86820 77170
L87270 77170
" />
<path d="M87520 76860
L87550 76830
L87610 76800
L87750 76800
L87810 76830
L87830 76860
L87860 76910
L87860 76970
L87830 77050
L87500 77390
L87860 77390
" />
<path d="M87970 76640
L88510 76640
" />
<path d="M88110 77390
L88110 76800
" />
<path d="M88110 77030
L88170 77000
L88280 77000
L88340 77030
L88370 77050
L88400 77110
L88400 77280
L88370 77340
L88340 77360
L88280 77390
L88170 77390
L88110 77360
" />
<path d="M88510 76640
L89040 76640
" />
<path d="M88650 77000
L88650 77590
" />
<path d="M88650 77030
L88700 77000
L88820 77000
L88870 77030
L88900 77050
L88930 77110
L88930 77280
L88900 77340
L88870 77360
L88820 77390
L88700 77390
L88650 77360
" />
<path d="M89040 76640
L89580 76640
" />
<path d="M89270 77390
L89210 77360
L89180 77340
L89150 77280
L89150 77110
L89180 77050
L89210 77030
L89270 77000
L89350 77000
L89410 77030
L89430 77050
L89460 77110
L89460 77280
L89430 77340
L89410 77360
L89350 77390
L89270 77390
" />
<path d="M89580 76640
L90140 76640
" />
<path d="M90020 77390
L89690 77390
" />
<path d="M89860 77390
L89860 76800
L89800 76890
L89740 76940
L89690 76970
" />
<path d="M90140 76640
L90700 76640
" />
<path d="M90390 76800
L90450 76800
L90500 76830
L90530 76860
L90560 76910
L90590 77030
L90590 77170
L90560 77280
L90530 77340
L90500 77360
L90450 77390
L90390 77390
L90330 77360
L90310 77340
L90280 77280
L90250 77170
L90250 77030
L90280 76910
L90310 76860
L90330 76830
L90390 76800
" />
<path d="M90700 76640
L91430 76640
" />
<path d="M90840 77170
L91290 77170
" />
<path d="M91060 77390
L91060 76940
" />
<path d="M91430 76640
L91990 76640
" />
<path d="M91880 77390
L91540 77390
" />
<path d="M91710 77390
L91710 76800
L91650 76890
L91600 76940
L91540 76970
" />
</g>
<g style="fill:#840000; fill-opacity:0.0; 
stroke:#840000; stroke-width:100; stroke-opacity:1; 
stroke-linecap:round; stroke-linejoin:round;">
</g>
<g style="fill:#840000; fill-opacity:0.0; 
stroke:#840000; stroke-width:60; stroke-opacity:1; 
stroke-linecap:round; stroke-linejoin:round;">
<path d="M69690 75400
L112210 75400
" />
</g>
<g style="fill:#840000; fill-opacity:0.0; 
stroke:#840000; stroke-width:100; stroke-opacity:1; 
stroke-linecap:round; stroke-linejoin:round;">
</g>
<g style="fill:#840000; fill-opacity:0.0; 
stroke:#840000; stroke-width:120; stroke-opacity:1; 
stroke-linecap:round; stroke-linejoin:round;">
<text x="103540" y="76320"
textLength="2340" font-size="780" lengthAdjust="spacingAndGlyphs"
text-anchor="start" opacity="0">Rev: </text>
<path d="M104090 76290
L103890 76010
" />
<path d="M103750 76290
L103750 75700
L103980 75700
L104030 75730
L104060 75760
L104090 75810
L104090 75900
L104060 75950
L104030 75980
L103980 76010
L103750 76010
" />
<path d="M104570 76260
L104510 76290
L104400 76290
L104340 76260
L104320 76210
L104320 75980
L104340 75930
L104400 75900
L104510 75900
L104570 75930
L104600 75980
L104600 76040
L104320 76100
" />
<path d="M104790 75900
L104930 76290
L105070 75900
" />
<path d="M105300 76240
L105330 76260
L105300 76290
L105270 76260
L105300 76240
L105300 76290
" />
<path d="M105300 75930
L105330 75950
L105300 75980
L105270 75950
L105300 75930
L105300 75980
" />
</g>
<g style="fill:#840000; fill-opacity:0.0; 
stroke:#840000; stroke-width:100; stroke-opacity:1; 
stroke-linecap:round; stroke-linejoin:round;">
</g>
<g style="fill:#840000; fill-opacity:0.0; 
stroke:#840000; stroke-width:60; stroke-opacity:1; 
stroke-linecap:round; stroke-linejoin:round;">
<text x="70080" y="76320"
textLength="3780" font-size="780" lengthAdjust="spacingAndGlyphs"
text-anchor="start" opacity="0">Size: A4</text>
<path d="M70220 76260
L70300 76290
L70440 76290
L70500 76260
L70530 76240
L70550 76180
L70550 76120
L70530 76070
L70500 76040
L70440 76010
L70330 75980
L70270 75950
L70250 75930
L70220 75870
L70220 75810
L70250 75760
L70270 75730
L70330 75700
L70470 75700
L70550 75730
" />
<path d="M70810 76290
L70810 75900
" />
<path d="M70810 75700
L70780 75730
L70810 75760
L70840 75730
L70810 75700
L70810 75760
" />
<path d="M71030 75900
L71340 75900
L71030 76290
L71340 76290
" />
<path d="M71790 76260
L71730 76290
L71620 76290
L71570 76260
L71540 76210
L71540 75980
L71570 75930
L71620 75900
L71730 75900
L71790 75930
L71820 75980
L71820 76040
L71540 76100
" />
<path d="M72070 76240
L72100 76260
L72070 76290
L72040 76260
L72070 76240
L72070 76290
" />
<path d="M72070 75930
L72100 75950
L72070 75980
L72040 75950
L72070 75930
L72070 75980
" />
<path d="M72770 76120
L73060 76120
" />
<path d="M72720 76290
L72910 75700
L73110 76290
" />
<path d="M73560 75900
L73560 76290
" />
<path d="M73420 75670
L73280 76100
L73650 76100
" />
</g>
<g style="fill:#840000; fill-opacity:0.0; 
stroke:#840000; stroke-width:100; stroke-opacity:1; 
stroke-linecap:round; stroke-linejoin:round;">
</g>
<g style="fill:#840000; fill-opacity:0.0; 
stroke:#840000; stroke-width:60; stroke-opacity:1; 
stroke-linecap:round; stroke-linejoin:round;">
<text x="103540" y="77420"
textLength="3350" font-size="780" lengthAdjust="spacingAndGlyphs"
text-anchor="start" opacity="0">Id: 6/7</text>
<path d="M103710 77390
L103710 76800
" />
<path d="M104240 77390
L104240 76800
" />
<path d="M104240 77360
L104180 77390
L104070 77390
L104010 77360
L103990 77340
L103960 77280
L103960 77110
L103990 77050
L104010 77030
L104070 77000
L104180 77000
L104240 77030
" />
<path d="M104520 77340
L104550 77360
L104520 77390
L104490 77360
L104520 77340
L104520 77390
" />
<path d="M104520 77030
L104550 77050
L104520 77080
L104490 77050
L104520 77030
L104520 77080
" />
<path d="M105500 76800
L105390 76800
L105340 76830
L105310 76860
L105250 76940
L105220 77050
L105220 77280
L105250 77340
L105280 77360
L105340 77390
L105450 77390
L105500 77360
L105530 77340
L105560 77280
L105560 77140
L105530 77080
L105500 77050
L105450 77030
L105340 77030
L105280 77050
L105250 77080
L105220 77140
" />
<path d="M106230 76770
L105730 77530
" />
<path d="M106370 76800
L106770 76800
L106520 77390
" />
</g>
<g style="fill:#840000; fill-opacity:0.0; 
stroke:#840000; stroke-width:100; stroke-opacity:1; 
stroke-linecap:round; stroke-linejoin:round;">
</g>
<g style="fill:#840000; fill-opacity:0.0; 
stroke:#840000; stroke-width:60; stroke-opacity:1; 
stroke-linecap:round; stroke-linejoin:round;">
<path d="M69690 73820
L112210 73820
" />
</g>
<g style="fill:#840000; fill-opacity:0.0; 
stroke:#840000; stroke-width:100; stroke-opacity:1; 
stroke-linecap:round; stroke-linejoin:round;">
</g>
<g style="fill:#840000; fill-opacity:0.0; 
stroke:#840000; stroke-width:160; stroke-opacity:1; 
stroke-linecap:round; stroke-linejoin:round;">
<text x="70080" y="74920"
textLength="3710" font-size="1050" lengthAdjust="spacingAndGlyphs"
text-anchor="start" opacity="0">Title: </text>
<path d="M70360 74090
L70810 74090
" />
<path d="M70480 74880
L70580 74090
" />
<path d="M70970 74880
L71040 74360
" />
<path d="M71070 74090
L71030 74130
L71060 74170
L71110 74130
L71070 74090
L71060 74170
" />
<path d="M71300 74360
L71600 74360
" />
<path d="M71450 74090
L71360 74770
L71390 74840
L71460 74880
L71540 74880
" />
<path d="M71910 74880
L71840 74840
L71820 74770
L71900 74090
" />
<path d="M72520 74840
L72440 74880
L72290 74880
L72220 74840
L72190 74770
L72230 74470
L72280 74390
L72360 74360
L72510 74360
L72580 74390
L72610 74470
L72600 74540
L72210 74620
" />
<path d="M72900 74810
L72930 74840
L72890 74880
L72860 74840
L72900 74810
L72890 74880
" />
<path d="M72950 74390
L72990 74430
L72940 74470
L72910 74430
L72950 74390
L72940 74470
" />
</g>
<g style="fill:#840000; fill-opacity:0.0; 
stroke:#840000; stroke-width:100; stroke-opacity:1; 
stroke-linecap:round; stroke-linejoin:round;">
</g>
<g style="fill:#840000; fill-opacity:0.0; 
stroke:#840000; stroke-width:60; stroke-opacity:1; 
stroke-linecap:round; stroke-linejoin:round;">
<text x="70080" y="73400"
textLength="6700" font-size="780" lengthAdjust="spacingAndGlyphs"
text-anchor="start" opacity="0">File: +12V.sch</text>
<path d="M70440 73060
L70250 73060
" />
<path d="M70250 73370
L70250 72780
L70530 72780
" />
<path d="M70750 73370
L70750 72980
" />
<path d="M70750 72780
L70720 72810
L70750 72840
L70780 72810
L70750 72780
L70750 72840
" />
<path d="M71120 73370
L71060 73340
L71030 73290
L71030 72780
" />
<path d="M71570 73340
L71510 73370
L71400 73370
L71340 73340
L71310 73290
L71310 73060
L71340 73010
L71400 72980
L71510 72980
L71570 73010
L71590 73060
L71590 73120
L71310 73180
" />
<path d="M71850 73320
L71880 73340
L71850 73370
L71820 73340
L71850 73320
L71850 73370
" />
<path d="M71850 73010
L71880 73030
L71850 73060
L71820 73030
L71850 73010
L71850 73060
" />
<path d="M72580 73150
L73030 73150
" />
<path d="M72800 73370
L72800 72920
" />
<path d="M73620 73370
L73280 73370
" />
<path d="M73450 73370
L73450 72780
L73390 72870
L73340 72920
L73280 72950
" />
<path d="M73840 72840
L73870 72810
L73930 72780
L74070 72780
L74120 72810
L74150 72840
L74180 72890
L74180 72950
L74150 73030
L73810 73370
L74180 73370
" />
<path d="M74350 72780
L74540 73370
L74740 72780
" />
<path d="M74940 73320
L74970 73340
L74940 73370
L74910 73340
L74940 73320
L74940 73370
" />
<path d="M75190 73340
L75250 73370
L75360 73370
L75420 73340
L75440 73290
L75440 73260
L75420 73200
L75360 73180
L75270 73180
L75220 73150
L75190 73090
L75190 73060
L75220 73010
L75270 72980
L75360 72980
L75420 73010
" />
<path d="M75950 73340
L75890 73370
L75780 73370
L75720 73340
L75700 73320
L75670 73260
L75670 73090
L75700 73030
L75720 73010
L75780 72980
L75890 72980
L75950 73010
" />
<path d="M76200 73370
L76200 72780
" />
<path d="M76450 73370
L76450 73060
L76430 73010
L76370 72980
L76290 72980
L76230 73010
L76200 73030
" />
</g>
<g style="fill:#840000; fill-opacity:0.0; 
stroke:#840000; stroke-width:100; stroke-opacity:1; 
stroke-linecap:round; stroke-linejoin:round;">
</g>
<g style="fill:#840000; fill-opacity:0.0; 
stroke:#840000; stroke-width:60; stroke-opacity:1; 
stroke-linecap:round; stroke-linejoin:round;">
<path d="M69690 71460
L112210 71460
" />
</g>
<g style="fill:#840000; fill-opacity:0.0; 
stroke:#840000; stroke-width:100; stroke-opacity:1; 
stroke-linecap:round; stroke-linejoin:round;">
</g>
<g style="fill:#840000; fill-opacity:0.0; 
stroke:#840000; stroke-width:60; stroke-opacity:1; 
stroke-linecap:round; stroke-linejoin:round;">
<text x="70080" y="72340"
textLength="9250" font-size="780" lengthAdjust="spacingAndGlyphs"
text-anchor="start" opacity="0">Sheet: /supplies12/</text>
<path d="M70220 72280
L70300 72310
L70440 72310
L70500 72280
L70530 72260
L70550 72200
L70550 72140
L70530 72090
L70500 72060
L70440 72030
L70330 72000
L70270 71970
L70250 71950
L70220 71890
L70220 71830
L70250 71780
L70270 71750
L70330 71720
L70470 71720
L70550 71750
" />
<path d="M70810 72310
L70810 71720
" />
<path d="M71060 72310
L71060 72000
L71030 71950
L70980 71920
L70890 71920
L70840 71950
L70810 71970
" />
<path d="M71570 72280
L71510 72310
L71400 72310
L71340 72280
L71310 72230
L71310 72000
L71340 71950
L71400 71920
L71510 71920
L71570 71950
L71590 72000
L71590 72060
L71310 72120
" />
<path d="M72070 72280
L72020 72310
L71900 72310
L71850 72280
L71820 72230
L71820 72000
L71850 71950
L71900 71920
L72020 71920
L72070 71950
L72100 72000
L72100 72060
L71820 72120
" />
<path d="M72270 71920
L72490 71920
" />
<path d="M72350 71720
L72350 72230
L72380 72280
L72440 72310
L72490 72310
" />
<path d="M72690 72260
L72720 72280
L72690 72310
L72660 72280
L72690 72260
L72690 72310
" />
<path d="M72690 71950
L72720 71970
L72690 72000
L72660 71970
L72690 71950
L72690 72000
" />
<path d="M73840 71690
L73340 72450
" />
<path d="M74010 72280
L74070 72310
L74180 72310
L74240 72280
L74260 72230
L74260 72200
L74240 72140
L74180 72120
L74090 72120
L74040 72090
L74010 72030
L74010 72000
L74040 71950
L74090 71920
L74180 71920
L74240 71950
" />
<path d="M74770 71920
L74770 72310
" />
<path d="M74520 71920
L74520 72230
L74540 72280
L74600 72310
L74680 72310
L74740 72280
L74770 72260
" />
<path d="M75050 71920
L75050 72510
" />
<path d="M75050 71950
L75110 71920
L75220 71920
L75270 71950
L75300 71970
L75330 72030
L75330 72200
L75300 72260
L75270 72280
L75220 72310
L75110 72310
L75050 72280
" />
<path d="M75580 71920
L75580 72510
" />
<path d="M75580 71950
L75640 71920
L75750 71920
L75810 71950
L75840 71970
L75860 72030
L75860 72200
L75840 72260
L75810 72280
L75750 72310
L75640 72310
L75580 72280
" />
<path d="M76200 72310
L76150 72280
L76120 72230
L76120 71720
" />
<path d="M76430 72310
L76430 71920
" />
<path d="M76430 71720
L76400 71750
L76430 71780
L76450 71750
L76430 71720
L76430 71780
" />
<path d="M76930 72280
L76880 72310
L76760 72310
L76710 72280
L76680 72230
L76680 72000
L76710 71950
L76760 71920
L76880 71920
L76930 71950
L76960 72000
L76960 72060
L76680 72120
" />
<path d="M77190 72280
L77240 72310
L77350 72310
L77410 72280
L77440 72230
L77440 72200
L77410 72140
L77350 72120
L77270 72120
L77210 72090
L77190 72030
L77190 72000
L77210 71950
L77270 71920
L77350 71920
L77410 71950
" />
<path d="M78000 72310
L77660 72310
" />
<path d="M77830 72310
L77830 71720
L77780 71810
L77720 71860
L77660 71890
" />
<path d="M78220 71780
L78250 71750
L78310 71720
L78450 71720
L78510 71750
L78530 71780
L78560 71830
L78560 71890
L78530 71970
L78200 72310
L78560 72310
" />
<path d="M79240 71690
L78730 72450
" />
</g>
<g style="fill:#840000; fill-opacity:0.0; 
stroke:#840000; stroke-width:100; stroke-opacity:1; 
stroke-linecap:round; stroke-linejoin:round;">
</g>
<g style="fill:#840000; fill-opacity:0.0; 
stroke:#840000; stroke-width:60; stroke-opacity:1; 
stroke-linecap:round; stroke-linejoin:round;">
<path d="M77560 75400
L77560 76580
" />
</g>
<g style="fill:#840000; fill-opacity:0.0; 
stroke:#840000; stroke-width:100; stroke-opacity:1; 
stroke-linecap:round; stroke-linejoin:round;">
</g>
<g style="fill:#840000; fill-opacity:0.0; 
stroke:#840000; stroke-width:60; stroke-opacity:1; 
stroke-linecap:round; stroke-linejoin:round;">
<path d="M102760 75400
L102760 77960
" />
</g>
<g style="fill:#840000; fill-opacity:0.0; 
stroke:#840000; stroke-width:0; stroke-opacity:1; 
stroke-linecap:round; stroke-linejoin:round;">
<g >
</g>
<g style="fill:#FFFFC2; fill-opacity:0.0; 
stroke:#FFFFC2; stroke-width:0; stroke-opacity:1; 
stroke-linecap:round; stroke-linejoin:round;">
</g>
<g style="fill:#FFFFC2; fill-opacity:0.6; 
stroke:#FFFFC2; stroke-width:0; stroke-opacity:1; 
stroke-linecap:round; stroke-linejoin:round;">
<rect x="62250" y="34250" width="4000" height="2750" rx="0" />
</g>
<g style="fill:#840000; fill-opacity:0.6; 
stroke:#840000; stroke-width:0; stroke-opacity:1; 
stroke-linecap:round; stroke-linejoin:round;">
</g>
<g style="fill:#840000; fill-opacity:0.0; 
stroke:#840000; stroke-width:100; stroke-opacity:1; 
stroke-linecap:round; stroke-linejoin:round;">
<rect x="62250" y="34250" width="4000" height="2750" rx="0" />
<rect x="62250" y="34250" width="4000" height="2750" rx="0" />
</g>
<g style="fill:#840000; fill-opacity:0.0; 
stroke:#840000; stroke-width:60; stroke-opacity:1; 
stroke-linecap:round; stroke-linejoin:round;">
<path d="M62250 35000
L61250 35000
" />
</g>
<g style="fill:#008484; fill-opacity:0.0; 
stroke:#008484; stroke-width:60; stroke-opacity:1; 
stroke-linecap:round; stroke-linejoin:round;">
<text x="62350" y="35250"
textLength="730" font-size="660" lengthAdjust="spacingAndGlyphs"
text-anchor="start" opacity="0">VI</text>
<path d="M62420 34720
L62590 35220
L62760 34720
" />
<path d="M62920 35220
L62920 34720
" />
</g>
<g style="fill:#840000; fill-opacity:0.0; 
stroke:#840000; stroke-width:60; stroke-opacity:1; 
stroke-linecap:round; stroke-linejoin:round;">
<text x="61750" y="34900"
textLength="540" font-size="660" lengthAdjust="spacingAndGlyphs"
text-anchor="middle" opacity="0">1</text>
<path d="M61890 34870
L61600 34870
" />
<path d="M61750 34870
L61750 34370
L61700 34440
L61650 34490
L61600 34510
" />
<path d="M64250 37000
L64250 38000
" />
</g>
<g style="fill:#008484; fill-opacity:0.0; 
stroke:#008484; stroke-width:60; stroke-opacity:1; 
stroke-linecap:round; stroke-linejoin:round;">
<g transform="rotate(-90 64250 36900)">
<text x="64250" y="37150"
textLength="1580" font-size="660" lengthAdjust="spacingAndGlyphs"
text-anchor="start" opacity="0">GND</text>
</g>
<path d="M64000 36480
L63970 36530
L63970 36600
L64000 36670
L64040 36720
L64090 36750
L64190 36770
L64260 36770
L64350 36750
L64400 36720
L64450 36670
L64470 36600
L64470 36560
L64450 36480
L64420 36460
L64260 36460
L64260 36560
" />
<path d="M64470 36250
L63970 36250
L64470 35960
L63970 35960
" />
<path d="M64470 35720
L63970 35720
L63970 35600
L64000 35530
L64040 35480
L64090 35460
L64190 35440
L64260 35440
L64350 35460
L64400 35480
L64450 35530
L64470 35600
L64470 35720
" />
</g>
<g style="fill:#840000; fill-opacity:0.0; 
stroke:#840000; stroke-width:60; stroke-opacity:1; 
stroke-linecap:round; stroke-linejoin:round;">
<g transform="rotate(-90 64150 37500)">
<text x="64150" y="37500"
textLength="540" font-size="660" lengthAdjust="spacingAndGlyphs"
text-anchor="middle" opacity="0">2</text>
</g>
<path d="M63670 37640
L63650 37610
L63620 37570
L63620 37450
L63650 37400
L63670 37380
L63720 37350
L63760 37350
L63840 37380
L64120 37660
L64120 37350
" />
<path d="M66250 35000
L67250 35000
" />
</g>
<g style="fill:#008484; fill-opacity:0.0; 
stroke:#008484; stroke-width:60; stroke-opacity:1; 
stroke-linecap:round; stroke-linejoin:round;">
<text x="66150" y="35250"
textLength="1010" font-size="660" lengthAdjust="spacingAndGlyphs"
text-anchor="end" opacity="0">VO</text>
<path d="M65210 34720
L65380 35220
L65540 34720
" />
<path d="M65810 34720
L65900 34720
L65950 34750
L66000 34790
L66020 34890
L66020 35050
L66000 35150
L65950 35200
L65900 35220
L65810 35220
L65760 35200
L65710 35150
L65690 35050
L65690 34890
L65710 34790
L65760 34750
L65810 34720
" />
</g>
<g style="fill:#840000; fill-opacity:0.0; 
stroke:#840000; stroke-width:60; stroke-opacity:1; 
stroke-linecap:round; stroke-linejoin:round;">
<text x="66750" y="34900"
textLength="540" font-size="660" lengthAdjust="spacingAndGlyphs"
text-anchor="middle" opacity="0">3</text>
<path d="M66580 34370
L66890 34370
L66720 34560
L66790 34560
L66840 34590
L66860 34610
L66890 34660
L66890 34780
L66860 34820
L66840 34850
L66790 34870
L66650 34870
L66600 34850
L66580 34820
" />
</g>
<g style="fill:#008484; fill-opacity:0.0; 
stroke:#008484; stroke-width:60; stroke-opacity:1; 
stroke-linecap:round; stroke-linejoin:round;">
<text x="62750" y="34020"
textLength="2010" font-size="660" lengthAdjust="spacingAndGlyphs"
text-anchor="middle" opacity="0">U501</text>
<path d="M61890 33490
L61890 33900
L61910 33940
L61940 33970
L61980 33990
L62080 33990
L62130 33970
L62150 33940
L62170 33900
L62170 33490
" />
<path d="M62650 33490
L62410 33490
L62390 33730
L62410 33710
L62460 33680
L62580 33680
L62630 33710
L62650 33730
L62670 33780
L62670 33900
L62650 33940
L62630 33970
L62580 33990
L62460 33990
L62410 33970
L62390 33940
" />
<path d="M62980 33490
L63030 33490
L63080 33520
L63100 33540
L63130 33590
L63150 33680
L63150 33800
L63130 33900
L63100 33940
L63080 33970
L63030 33990
L62980 33990
L62940 33970
L62910 33940
L62890 33900
L62860 33800
L62860 33680
L62890 33590
L62910 33540
L62940 33520
L62980 33490
" />
<path d="M63630 33990
L63340 33990
" />
<path d="M63480 33990
L63480 33490
L63440 33560
L63390 33610
L63340 33630
" />
<text x="65720" y="33770"
textLength="2940" font-size="660" lengthAdjust="spacingAndGlyphs"
text-anchor="middle" opacity="0">LM7812</text>
<path d="M64630 33740
L64390 33740
L64390 33240
" />
<path d="M64800 33740
L64800 33240
L64970 33600
L65130 33240
L65130 33740
" />
<path d="M65320 33240
L65660 33240
L65440 33740
" />
<path d="M65920 33460
L65870 33430
L65850 33410
L65820 33360
L65820 33340
L65850 33290
L65870 33270
L65920 33240
L66010 33240
L66060 33270
L66080 33290
L66110 33340
L66110 33360
L66080 33410
L66060 33430
L66010 33460
L65920 33460
L65870 33480
L65850 33500
L65820 33550
L65820 33650
L65850 33690
L65870 33720
L65920 33740
L66010 33740
L66060 33720
L66080 33690
L66110 33650
L66110 33550
L66080 33500
L66060 33480
L66010 33460
" />
<path d="M66580 33740
L66300 33740
" />
<path d="M66440 33740
L66440 33240
L66390 33310
L66350 33360
L66300 33380
" />
<path d="M66770 33290
L66800 33270
L66850 33240
L66970 33240
L67010 33270
L67040 33290
L67060 33340
L67060 33380
L67040 33460
L66750 33740
L67060 33740
" />
</g>
</g>
<g style="fill:#008484; fill-opacity:0.0; 
stroke:#008484; stroke-width:0; stroke-opacity:1; 
stroke-linecap:round; stroke-linejoin:round;">
<g >
</g>
<g style="fill:#840000; fill-opacity:0.0; 
stroke:#840000; stroke-width:0; stroke-opacity:1; 
stroke-linecap:round; stroke-linejoin:round;">
</g>
<g style="fill:#840000; fill-opacity:0.0; 
stroke:#840000; stroke-width:120; stroke-opacity:1; 
stroke-linecap:round; stroke-linejoin:round;">
<path d="M54848.4 39802.5 A1250 1250 0.0 0 0 53651.6 39802.5 " />
<path style="fill:#840000; fill-opacity:0.0; 
stroke:#840000; stroke-width:120; stroke-opacity:1; 
stroke-linecap:round; stroke-linejoin:round;fill:none"
d="M 53650,39300
54850,39300
" /> 
</g>
<g style="fill:#840000; fill-opacity:0.0; 
stroke:#840000; stroke-width:60; stroke-opacity:1; 
stroke-linecap:round; stroke-linejoin:round;">
<path style="fill:#840000; fill-opacity:0.0; 
stroke:#840000; stroke-width:60; stroke-opacity:1; 
stroke-linecap:round; stroke-linejoin:round;fill:none"
d="M 53750,38900
53950,38900
" /> 
<path style="fill:#840000; fill-opacity:0.0; 
stroke:#840000; stroke-width:60; stroke-opacity:1; 
stroke-linecap:round; stroke-linejoin:round;fill:none"
d="M 53850,39000
53850,38800
" /> 
<path d="M54250 39300
L54250 38500
" />
<path d="M54250 39700
L54250 40500
" />
</g>
<g style="fill:#008484; fill-opacity:0.0; 
stroke:#008484; stroke-width:60; stroke-opacity:1; 
stroke-linecap:round; stroke-linejoin:round;">
<text x="55340" y="39070"
textLength="1990" font-size="660" lengthAdjust="spacingAndGlyphs"
text-anchor="middle" opacity="0">C501</text>
<path d="M54780 38990
L54750 39020
L54680 39040
L54630 39040
L54560 39020
L54510 38970
L54490 38920
L54470 38830
L54470 38760
L54490 38660
L54510 38610
L54560 38570
L54630 38540
L54680 38540
L54750 38570
L54780 38590
" />
<path d="M55230 38540
L54990 38540
L54970 38780
L54990 38760
L55040 38730
L55160 38730
L55200 38760
L55230 38780
L55250 38830
L55250 38950
L55230 38990
L55200 39020
L55160 39040
L55040 39040
L54990 39020
L54970 38990
" />
<path d="M55560 38540
L55610 38540
L55660 38570
L55680 38590
L55700 38640
L55730 38730
L55730 38850
L55700 38950
L55680 38990
L55660 39020
L55610 39040
L55560 39040
L55510 39020
L55490 38990
L55470 38950
L55440 38850
L55440 38730
L55470 38640
L55490 38590
L55510 38570
L55560 38540
" />
<path d="M56200 39040
L55920 39040
" />
<path d="M56060 39040
L56060 38540
L56010 38610
L55970 38660
L55920 38680
" />
<text x="55060" y="40570"
textLength="1420" font-size="660" lengthAdjust="spacingAndGlyphs"
text-anchor="middle" opacity="0">1uF</text>
<path d="M54760 40540
L54470 40540
" />
<path d="M54610 40540
L54610 40040
L54570 40110
L54520 40160
L54470 40180
" />
<path d="M55190 40210
L55190 40540
" />
<path d="M54970 40210
L54970 40470
L55000 40520
L55040 40540
L55110 40540
L55160 40520
L55190 40490
" />
<path d="M55590 40280
L55420 40280
" />
<path d="M55420 40540
L55420 40040
L55660 40040
" />
</g>
</g>
<g style="fill:#008484; fill-opacity:0.0; 
stroke:#008484; stroke-width:0; stroke-opacity:1; 
stroke-linecap:round; stroke-linejoin:round;">
<g >
</g>
<g style="fill:#840000; fill-opacity:0.0; 
stroke:#840000; stroke-width:0; stroke-opacity:1; 
stroke-linecap:round; stroke-linejoin:round;">
</g>
<g style="fill:#840000; fill-opacity:0.0; 
stroke:#840000; stroke-width:130; stroke-opacity:1; 
stroke-linecap:round; stroke-linejoin:round;">
<path style="fill:#840000; fill-opacity:0.0; 
stroke:#840000; stroke-width:130; stroke-opacity:1; 
stroke-linecap:round; stroke-linejoin:round;fill:none"
d="M 56650,39700
57850,39700
" /> 
</g>
<g style="fill:#840000; fill-opacity:0.0; 
stroke:#840000; stroke-width:120; stroke-opacity:1; 
stroke-linecap:round; stroke-linejoin:round;">
<path style="fill:#840000; fill-opacity:0.0; 
stroke:#840000; stroke-width:120; stroke-opacity:1; 
stroke-linecap:round; stroke-linejoin:round;fill:none"
d="M 56650,39300
57850,39300
" /> 
</g>
<g style="fill:#840000; fill-opacity:0.0; 
stroke:#840000; stroke-width:60; stroke-opacity:1; 
stroke-linecap:round; stroke-linejoin:round;">
<path d="M57250 39300
L57250 38500
" />
<path d="M57250 39700
L57250 40500
" />
</g>
<g style="fill:#008484; fill-opacity:0.0; 
stroke:#008484; stroke-width:60; stroke-opacity:1; 
stroke-linecap:round; stroke-linejoin:round;">
<text x="58340" y="39070"
textLength="1990" font-size="660" lengthAdjust="spacingAndGlyphs"
text-anchor="middle" opacity="0">C502</text>
<path d="M57780 38990
L57750 39020
L57680 39040
L57630 39040
L57560 39020
L57510 38970
L57490 38920
L57470 38830
L57470 38760
L57490 38660
L57510 38610
L57560 38570
L57630 38540
L57680 38540
L57750 38570
L57780 38590
" />
<path d="M58230 38540
L57990 38540
L57970 38780
L57990 38760
L58040 38730
L58160 38730
L58200 38760
L58230 38780
L58250 38830
L58250 38950
L58230 38990
L58200 39020
L58160 39040
L58040 39040
L57990 39020
L57970 38990
" />
<path d="M58560 38540
L58610 38540
L58660 38570
L58680 38590
L58700 38640
L58730 38730
L58730 38850
L58700 38950
L58680 38990
L58660 39020
L58610 39040
L58560 39040
L58510 39020
L58490 38990
L58470 38950
L58440 38850
L58440 38730
L58470 38640
L58490 38590
L58510 38570
L58560 38540
" />
<path d="M58920 38590
L58940 38570
L58990 38540
L59110 38540
L59160 38570
L59180 38590
L59200 38640
L59200 38680
L59180 38760
L58890 39040
L59200 39040
" />
<text x="58530" y="40570"
textLength="2370" font-size="660" lengthAdjust="spacingAndGlyphs"
text-anchor="middle" opacity="0">100nF</text>
<path d="M57750 40540
L57470 40540
" />
<path d="M57610 40540
L57610 40040
L57560 40110
L57510 40160
L57470 40180
" />
<path d="M58060 40040
L58110 40040
L58160 40070
L58180 40090
L58200 40140
L58230 40230
L58230 40350
L58200 40450
L58180 40490
L58160 40520
L58110 40540
L58060 40540
L58010 40520
L57990 40490
L57970 40450
L57940 40350
L57940 40230
L57970 40140
L57990 40090
L58010 40070
L58060 40040
" />
<path d="M58540 40040
L58580 40040
L58630 40070
L58660 40090
L58680 40140
L58700 40230
L58700 40350
L58680 40450
L58660 40490
L58630 40520
L58580 40540
L58540 40540
L58490 40520
L58470 40490
L58440 40450
L58420 40350
L58420 40230
L58440 40140
L58470 40090
L58490 40070
L58540 40040
" />
<path d="M58920 40210
L58920 40540
" />
<path d="M58920 40260
L58940 40230
L58990 40210
L59060 40210
L59110 40230
L59130 40280
L59130 40540
" />
<path d="M59540 40280
L59370 40280
" />
<path d="M59370 40540
L59370 40040
L59610 40040
" />
</g>
</g>
<g style="fill:#008484; fill-opacity:0.0; 
stroke:#008484; stroke-width:0; stroke-opacity:1; 
stroke-linecap:round; stroke-linejoin:round;">
<g >
</g>
<g style="fill:#840000; fill-opacity:0.0; 
stroke:#840000; stroke-width:0; stroke-opacity:1; 
stroke-linecap:round; stroke-linejoin:round;">
</g>
<g style="fill:#840000; fill-opacity:0.0; 
stroke:#840000; stroke-width:130; stroke-opacity:1; 
stroke-linecap:round; stroke-linejoin:round;">
<path style="fill:#840000; fill-opacity:0.0; 
stroke:#840000; stroke-width:130; stroke-opacity:1; 
stroke-linecap:round; stroke-linejoin:round;fill:none"
d="M 69650,39700
70850,39700
" /> 
</g>
<g style="fill:#840000; fill-opacity:0.0; 
stroke:#840000; stroke-width:120; stroke-opacity:1; 
stroke-linecap:round; stroke-linejoin:round;">
<path style="fill:#840000; fill-opacity:0.0; 
stroke:#840000; stroke-width:120; stroke-opacity:1; 
stroke-linecap:round; stroke-linejoin:round;fill:none"
d="M 69650,39300
70850,39300
" /> 
</g>
<g style="fill:#840000; fill-opacity:0.0; 
stroke:#840000; stroke-width:60; stroke-opacity:1; 
stroke-linecap:round; stroke-linejoin:round;">
<path d="M70250 39300
L70250 38500
" />
<path d="M70250 39700
L70250 40500
" />
</g>
<g style="fill:#008484; fill-opacity:0.0; 
stroke:#008484; stroke-width:60; stroke-opacity:1; 
stroke-linecap:round; stroke-linejoin:round;">
<text x="71340" y="39070"
textLength="1990" font-size="660" lengthAdjust="spacingAndGlyphs"
text-anchor="middle" opacity="0">C503</text>
<path d="M70780 38990
L70750 39020
L70680 39040
L70630 39040
L70560 39020
L70510 38970
L70490 38920
L70470 38830
L70470 38760
L70490 38660
L70510 38610
L70560 38570
L70630 38540
L70680 38540
L70750 38570
L70780 38590
" />
<path d="M71230 38540
L70990 38540
L70970 38780
L70990 38760
L71040 38730
L71160 38730
L71200 38760
L71230 38780
L71250 38830
L71250 38950
L71230 38990
L71200 39020
L71160 39040
L71040 39040
L70990 39020
L70970 38990
" />
<path d="M71560 38540
L71610 38540
L71660 38570
L71680 38590
L71700 38640
L71730 38730
L71730 38850
L71700 38950
L71680 38990
L71660 39020
L71610 39040
L71560 39040
L71510 39020
L71490 38990
L71470 38950
L71440 38850
L71440 38730
L71470 38640
L71490 38590
L71510 38570
L71560 38540
" />
<path d="M71890 38540
L72200 38540
L72040 38730
L72110 38730
L72160 38760
L72180 38780
L72200 38830
L72200 38950
L72180 38990
L72160 39020
L72110 39040
L71970 39040
L71920 39020
L71890 38990
" />
<text x="71530" y="40570"
textLength="2370" font-size="660" lengthAdjust="spacingAndGlyphs"
text-anchor="middle" opacity="0">100nF</text>
<path d="M70750 40540
L70470 40540
" />
<path d="M70610 40540
L70610 40040
L70560 40110
L70510 40160
L70470 40180
" />
<path d="M71060 40040
L71110 40040
L71160 40070
L71180 40090
L71200 40140
L71230 40230
L71230 40350
L71200 40450
L71180 40490
L71160 40520
L71110 40540
L71060 40540
L71010 40520
L70990 40490
L70970 40450
L70940 40350
L70940 40230
L70970 40140
L70990 40090
L71010 40070
L71060 40040
" />
<path d="M71540 40040
L71580 40040
L71630 40070
L71660 40090
L71680 40140
L71700 40230
L71700 40350
L71680 40450
L71660 40490
L71630 40520
L71580 40540
L71540 40540
L71490 40520
L71470 40490
L71440 40450
L71420 40350
L71420 40230
L71440 40140
L71470 40090
L71490 40070
L71540 40040
" />
<path d="M71920 40210
L71920 40540
" />
<path d="M71920 40260
L71940 40230
L71990 40210
L72060 40210
L72110 40230
L72130 40280
L72130 40540
" />
<path d="M72540 40280
L72370 40280
" />
<path d="M72370 40540
L72370 40040
L72610 40040
" />
</g>
</g>
<g style="fill:#008484; fill-opacity:0.0; 
stroke:#008484; stroke-width:0; stroke-opacity:1; 
stroke-linecap:round; stroke-linejoin:round;">
<g >
</g>
<g style="fill:#840000; fill-opacity:0.0; 
stroke:#840000; stroke-width:0; stroke-opacity:1; 
stroke-linecap:round; stroke-linejoin:round;">
</g>
<g style="fill:#840000; fill-opacity:0.0; 
stroke:#840000; stroke-width:120; stroke-opacity:1; 
stroke-linecap:round; stroke-linejoin:round;">
<path d="M74348.4 39802.5 A1250 1250 0.0 0 0 73151.6 39802.5 " />
<path style="fill:#840000; fill-opacity:0.0; 
stroke:#840000; stroke-width:120; stroke-opacity:1; 
stroke-linecap:round; stroke-linejoin:round;fill:none"
d="M 73150,39300
74350,39300
" /> 
</g>
<g style="fill:#840000; fill-opacity:0.0; 
stroke:#840000; stroke-width:60; stroke-opacity:1; 
stroke-linecap:round; stroke-linejoin:round;">
<path style="fill:#840000; fill-opacity:0.0; 
stroke:#840000; stroke-width:60; stroke-opacity:1; 
stroke-linecap:round; stroke-linejoin:round;fill:none"
d="M 73250,38900
73450,38900
" /> 
<path style="fill:#840000; fill-opacity:0.0; 
stroke:#840000; stroke-width:60; stroke-opacity:1; 
stroke-linecap:round; stroke-linejoin:round;fill:none"
d="M 73350,39000
73350,38800
" /> 
<path d="M73750 39300
L73750 38500
" />
<path d="M73750 39700
L73750 40500
" />
</g>
<g style="fill:#008484; fill-opacity:0.0; 
stroke:#008484; stroke-width:60; stroke-opacity:1; 
stroke-linecap:round; stroke-linejoin:round;">
<text x="74840" y="39070"
textLength="1990" font-size="660" lengthAdjust="spacingAndGlyphs"
text-anchor="middle" opacity="0">C504</text>
<path d="M74280 38990
L74250 39020
L74180 39040
L74130 39040
L74060 39020
L74010 38970
L73990 38920
L73970 38830
L73970 38760
L73990 38660
L74010 38610
L74060 38570
L74130 38540
L74180 38540
L74250 38570
L74280 38590
" />
<path d="M74730 38540
L74490 38540
L74470 38780
L74490 38760
L74540 38730
L74660 38730
L74700 38760
L74730 38780
L74750 38830
L74750 38950
L74730 38990
L74700 39020
L74660 39040
L74540 39040
L74490 39020
L74470 38990
" />
<path d="M75060 38540
L75110 38540
L75160 38570
L75180 38590
L75200 38640
L75230 38730
L75230 38850
L75200 38950
L75180 38990
L75160 39020
L75110 39040
L75060 39040
L75010 39020
L74990 38990
L74970 38950
L74940 38850
L74940 38730
L74970 38640
L74990 38590
L75010 38570
L75060 38540
" />
<path d="M75660 38710
L75660 39040
" />
<path d="M75540 38520
L75420 38870
L75730 38870
" />
<text x="74560" y="40570"
textLength="1420" font-size="660" lengthAdjust="spacingAndGlyphs"
text-anchor="middle" opacity="0">1uF</text>
<path d="M74260 40540
L73970 40540
" />
<path d="M74110 40540
L74110 40040
L74070 40110
L74020 40160
L73970 40180
" />
<path d="M74690 40210
L74690 40540
" />
<path d="M74470 40210
L74470 40470
L74500 40520
L74540 40540
L74610 40540
L74660 40520
L74690 40490
" />
<path d="M75090 40280
L74920 40280
" />
<path d="M74920 40540
L74920 40040
L75160 40040
" />
</g>
</g>
<g style="fill:#008484; fill-opacity:0.0; 
stroke:#008484; stroke-width:0; stroke-opacity:1; 
stroke-linecap:round; stroke-linejoin:round;">
<g >
</g>
<g style="fill:#840000; fill-opacity:0.0; 
stroke:#840000; stroke-width:0; stroke-opacity:1; 
stroke-linecap:round; stroke-linejoin:round;">
</g>
<g style="fill:#840000; fill-opacity:0.0; 
stroke:#840000; stroke-width:80; stroke-opacity:1; 
stroke-linecap:round; stroke-linejoin:round;">
<path style="fill:#840000; fill-opacity:0.0; 
stroke:#840000; stroke-width:80; stroke-opacity:1; 
stroke-linecap:round; stroke-linejoin:round;fill:none"
d="M 52500,35500
52500,34500
" /> 
</g>
<g style="fill:#840000; fill-opacity:0.0; 
stroke:#840000; stroke-width:60; stroke-opacity:1; 
stroke-linecap:round; stroke-linejoin:round;">
<path style="fill:#840000; fill-opacity:0.0; 
stroke:#840000; stroke-width:60; stroke-opacity:1; 
stroke-linecap:round; stroke-linejoin:round;fill:none"
d="M 51500,35000
52500,35000
" /> 
</g>
<g style="fill:#840000; fill-opacity:0.0; 
stroke:#840000; stroke-width:80; stroke-opacity:1; 
stroke-linecap:round; stroke-linejoin:round;">
<path style="fill:#840000; fill-opacity:0.0; 
stroke:#840000; stroke-width:80; stroke-opacity:1; 
stroke-linecap:round; stroke-linejoin:round;fill:none"
d="M 51500,35500
51500,34500
52500,35000
Z" /> 
</g>
<g style="fill:#840000; fill-opacity:0.0; 
stroke:#840000; stroke-width:60; stroke-opacity:1; 
stroke-linecap:round; stroke-linejoin:round;">
<path d="M52500 35000
L53500 35000
" />
<path d="M51500 35000
L50500 35000
" />
</g>
<g style="fill:#008484; fill-opacity:0.0; 
stroke:#008484; stroke-width:60; stroke-opacity:1; 
stroke-linecap:round; stroke-linejoin:round;">
<text x="51990" y="36220"
textLength="1990" font-size="660" lengthAdjust="spacingAndGlyphs"
text-anchor="middle" opacity="0">D501</text>
<path d="M51140 36190
L51140 35690
L51260 35690
L51330 35720
L51380 35760
L51400 35810
L51430 35910
L51430 35980
L51400 36070
L51380 36120
L51330 36170
L51260 36190
L51140 36190
" />
<path d="M51880 35690
L51640 35690
L51620 35930
L51640 35910
L51690 35880
L51810 35880
L51850 35910
L51880 35930
L51900 35980
L51900 36100
L51880 36140
L51850 36170
L51810 36190
L51690 36190
L51640 36170
L51620 36140
" />
<path d="M52210 35690
L52260 35690
L52310 35720
L52330 35740
L52350 35790
L52380 35880
L52380 36000
L52350 36100
L52330 36140
L52310 36170
L52260 36190
L52210 36190
L52160 36170
L52140 36140
L52120 36100
L52090 36000
L52090 35880
L52120 35790
L52140 35740
L52160 35720
L52210 35690
" />
<path d="M52850 36190
L52570 36190
" />
<path d="M52710 36190
L52710 35690
L52660 35760
L52620 35810
L52570 35830
" />
<text x="51990" y="34220"
textLength="2770" font-size="660" lengthAdjust="spacingAndGlyphs"
text-anchor="middle" opacity="0">LL4148</text>
<path d="M50990 34190
L50750 34190
L50750 33690
" />
<path d="M51390 34190
L51150 34190
L51150 33690
" />
<path d="M51770 33860
L51770 34190
" />
<path d="M51650 33670
L51530 34020
L51840 34020
" />
<path d="M52290 34190
L52010 34190
" />
<path d="M52150 34190
L52150 33690
L52100 33760
L52060 33810
L52010 33830
" />
<path d="M52720 33860
L52720 34190
" />
<path d="M52600 33670
L52490 34020
L52790 34020
" />
<path d="M53060 33910
L53010 33880
L52990 33860
L52960 33810
L52960 33790
L52990 33740
L53010 33720
L53060 33690
L53150 33690
L53200 33720
L53220 33740
L53250 33790
L53250 33810
L53220 33860
L53200 33880
L53150 33910
L53060 33910
L53010 33930
L52990 33950
L52960 34000
L52960 34100
L52990 34140
L53010 34170
L53060 34190
L53150 34190
L53200 34170
L53220 34140
L53250 34100
L53250 34000
L53220 33950
L53200 33930
L53150 33910
" />
</g>
</g>
<g style="fill:#008484; fill-opacity:0.0; 
stroke:#008484; stroke-width:0; stroke-opacity:1; 
stroke-linecap:round; stroke-linejoin:round;">
<g >
</g>
<g style="fill:#840000; fill-opacity:0.0; 
stroke:#840000; stroke-width:0; stroke-opacity:1; 
stroke-linecap:round; stroke-linejoin:round;">
</g>
<g style="fill:#840000; fill-opacity:0.0; 
stroke:#840000; stroke-width:60; stroke-opacity:1; 
stroke-linecap:round; stroke-linejoin:round;">
<path style="fill:#840000; fill-opacity:0.0; 
stroke:#840000; stroke-width:60; stroke-opacity:1; 
stroke-linecap:round; stroke-linejoin:round;fill:none"
d="M 57250,30000
57250,29500
56850,29250
57250,29000
57650,29250
57250,29500
" /> 
<path d="M57250 30000
L57250 30000
" />
</g>
<g style="fill:#008484; fill-opacity:0.0; 
stroke:#008484; stroke-width:60; stroke-opacity:1; 
stroke-linecap:round; stroke-linejoin:round;">
<text x="57250" y="28270"
textLength="3770" font-size="660" lengthAdjust="spacingAndGlyphs"
text-anchor="middle" opacity="0">PWR_FLAG</text>
<path d="M55510 28240
L55510 27740
L55700 27740
L55750 27770
L55770 27790
L55790 27840
L55790 27910
L55770 27960
L55750 27980
L55700 28000
L55510 28000
" />
<path d="M55960 27740
L56080 28240
L56170 27880
L56270 28240
L56390 27740
" />
<path d="M56860 28240
L56700 28000
" />
<path d="M56580 28240
L56580 27740
L56770 27740
L56820 27770
L56840 27790
L56860 27840
L56860 27910
L56840 27960
L56820 27980
L56770 28000
L56580 28000
" />
<path d="M56960 28290
L57340 28290
" />
<path d="M57630 27980
L57460 27980
" />
<path d="M57460 28240
L57460 27740
L57700 27740
" />
<path d="M58130 28240
L57890 28240
L57890 27740
" />
<path d="M58270 28100
L58510 28100
" />
<path d="M58220 28240
L58390 27740
L58550 28240
" />
<path d="M58980 27770
L58940 27740
L58860 27740
L58790 27770
L58750 27810
L58720 27860
L58700 27960
L58700 28030
L58720 28120
L58750 28170
L58790 28220
L58860 28240
L58910 28240
L58980 28220
L59010 28190
L59010 28030
L58910 28030
" />
</g>
</g>
<g style="fill:#008484; fill-opacity:0.0; 
stroke:#008484; stroke-width:60; stroke-opacity:1; 
stroke-linecap:round; stroke-linejoin:round;">
</g>
<g style="fill:#008400; fill-opacity:0.0; 
stroke:#008400; stroke-width:60; stroke-opacity:1; 
stroke-linecap:round; stroke-linejoin:round;">
<path d="M44750 43500
L54250 43500
" />
<path d="M64250 43500
L70250 43500
" />
<path d="M73750 35000
L73750 38500
" />
<path d="M73750 43500
L73750 40500
" />
<path d="M70250 35000
L73750 35000
" />
<path d="M54250 35000
L54250 38500
" />
<path d="M71750 33000
L70250 33000
" />
<path d="M54250 35000
L57250 35000
" />
<path d="M54250 43500
L57250 43500
" />
<path d="M57250 35000
L57250 38500
" />
<path d="M57250 35000
L61250 35000
" />
<path d="M57250 43500
L64250 43500
" />
<path d="M70250 35000
L70250 38500
" />
<path d="M70250 43500
L73750 43500
" />
<path d="M70250 43500
L70250 40500
" />
<path d="M64250 43500
L64250 38000
" />
<path d="M70250 33000
L70250 35000
" />
<path d="M67250 35000
L70250 35000
" />
<path d="M57250 30000
L57250 35000
" />
<path d="M57250 40500
L57250 43500
" />
<path d="M54250 43500
L54250 40500
" />
<path d="M45500 35000
L50500 35000
" />
<path d="M53500 35000
L54250 35000
" />
</g>
<g style="fill:#848400; fill-opacity:0.0; 
stroke:#848400; stroke-width:60; stroke-opacity:1; 
stroke-linecap:round; stroke-linejoin:round;">
<text x="44050" y="43800"
textLength="1890" font-size="800" lengthAdjust="spacingAndGlyphs"
text-anchor="end" opacity="0">GND</text>
<path d="M42640 43200
L42590 43170
L42500 43170
L42420 43200
L42360 43250
L42330 43310
L42300 43420
L42300 43510
L42330 43620
L42360 43680
L42420 43740
L42500 43770
L42560 43770
L42640 43740
L42670 43710
L42670 43510
L42560 43510
" />
<path d="M42930 43770
L42930 43170
L43270 43770
L43270 43170
" />
<path d="M43560 43770
L43560 43170
L43700 43170
L43790 43200
L43840 43250
L43870 43310
L43900 43420
L43900 43510
L43870 43620
L43840 43680
L43790 43740
L43700 43770
L43560 43770
" />
</g>
<g style="fill:#848400; fill-opacity:0.0; 
stroke:#848400; stroke-width:100; stroke-opacity:1; 
stroke-linecap:round; stroke-linejoin:round;">
<path style="fill:#848400; fill-opacity:0.0; 
stroke:#848400; stroke-width:100; stroke-opacity:1; 
stroke-linecap:round; stroke-linejoin:round;fill:none"
d="M 44150,43500
44450,43800
44750,43800
44750,43200
44450,43200
Z" /> 
</g>
<g style="fill:#848400; fill-opacity:0.0; 
stroke:#848400; stroke-width:60; stroke-opacity:1; 
stroke-linecap:round; stroke-linejoin:round;">
<text x="44800" y="35300"
textLength="3830" font-size="800" lengthAdjust="spacingAndGlyphs"
text-anchor="end" opacity="0">+18V_IN</text>
<path d="M41140 35040
L41590 35040
" />
<path d="M41370 35270
L41370 34810
" />
<path d="M42190 35270
L41850 35270
" />
<path d="M42020 35270
L42020 34670
L41970 34750
L41910 34810
L41850 34840
" />
<path d="M42540 34920
L42480 34900
L42450 34870
L42420 34810
L42420 34780
L42450 34720
L42480 34700
L42540 34670
L42650 34670
L42710 34700
L42740 34720
L42770 34780
L42770 34810
L42740 34870
L42710 34900
L42650 34920
L42540 34920
L42480 34950
L42450 34980
L42420 35040
L42420 35150
L42450 35210
L42480 35240
L42540 35270
L42650 35270
L42710 35240
L42740 35210
L42770 35150
L42770 35040
L42740 34980
L42710 34950
L42650 34920
" />
<path d="M42940 34670
L43140 35270
L43340 34670
" />
<path d="M43390 35320
L43850 35320
" />
<path d="M43990 35270
L43990 34670
" />
<path d="M44280 35270
L44280 34670
L44620 35270
L44620 34670
" />
</g>
<g style="fill:#848400; fill-opacity:0.0; 
stroke:#848400; stroke-width:100; stroke-opacity:1; 
stroke-linecap:round; stroke-linejoin:round;">
<path style="fill:#848400; fill-opacity:0.0; 
stroke:#848400; stroke-width:100; stroke-opacity:1; 
stroke-linecap:round; stroke-linejoin:round;fill:none"
d="M 45500,35000
45200,34700
44900,34700
44900,35300
45200,35300
Z" /> 
</g>
<g style="fill:#848400; fill-opacity:0.0; 
stroke:#848400; stroke-width:60; stroke-opacity:1; 
stroke-linecap:round; stroke-linejoin:round;">
<text x="72450" y="33300"
textLength="4630" font-size="800" lengthAdjust="spacingAndGlyphs"
text-anchor="start" opacity="0">+12V_OUT</text>
<path d="M72620 33040
L73080 33040
" />
<path d="M72850 33270
L72850 32810
" />
<path d="M73680 33270
L73330 33270
" />
<path d="M73500 33270
L73500 32670
L73450 32750
L73390 32810
L73330 32840
" />
<path d="M73900 32720
L73930 32700
L73990 32670
L74130 32670
L74190 32700
L74220 32720
L74250 32780
L74250 32840
L74220 32920
L73880 33270
L74250 33270
" />
<path d="M74420 32670
L74620 33270
L74820 32670
" />
<path d="M74880 33320
L75330 33320
" />
<path d="M75590 32670
L75700 32670
L75760 32700
L75820 32750
L75850 32870
L75850 33070
L75820 33180
L75760 33240
L75700 33270
L75590 33270
L75530 33240
L75480 33180
L75450 33070
L75450 32870
L75480 32750
L75530 32700
L75590 32670
" />
<path d="M76100 32670
L76100 33150
L76130 33210
L76160 33240
L76220 33270
L76330 33270
L76390 33240
L76420 33210
L76450 33150
L76450 32670
" />
<path d="M76650 32670
L76990 32670
" />
<path d="M76820 33270
L76820 32670
" />
</g>
<g style="fill:#848400; fill-opacity:0.0; 
stroke:#848400; stroke-width:100; stroke-opacity:1; 
stroke-linecap:round; stroke-linejoin:round;">
<path style="fill:#848400; fill-opacity:0.0; 
stroke:#848400; stroke-width:100; stroke-opacity:1; 
stroke-linecap:round; stroke-linejoin:round;fill:none"
d="M 71750,33000
72050,33300
72350,33300
72350,32700
72050,32700
Z" /> 
</g>
<g style="fill:#848400; fill-opacity:0.0; 
stroke:#848400; stroke-width:0; stroke-opacity:1; 
stroke-linecap:round; stroke-linejoin:round;">
</g>
<g style="fill:#008400; fill-opacity:0.0; 
stroke:#008400; stroke-width:0; stroke-opacity:1; 
stroke-linecap:round; stroke-linejoin:round;">
</g>
<g style="fill:#008400; fill-opacity:1.0; 
stroke:#008400; stroke-width:100; stroke-opacity:1; 
stroke-linecap:round; stroke-linejoin:round;">
<circle cx="70250" cy="43500" r="200" /> 
</g>
<g style="fill:#008400; fill-opacity:1.0; 
stroke:#008400; stroke-width:0; stroke-opacity:1; 
stroke-linecap:round; stroke-linejoin:round;">
</g>
<g style="fill:#008400; fill-opacity:1.0; 
stroke:#008400; stroke-width:100; stroke-opacity:1; 
stroke-linecap:round; stroke-linejoin:round;">
<circle cx="70250" cy="35000" r="200" /> 
</g>
<g style="fill:#008400; fill-opacity:1.0; 
stroke:#008400; stroke-width:0; stroke-opacity:1; 
stroke-linecap:round; stroke-linejoin:round;">
</g>
<g style="fill:#008400; fill-opacity:1.0; 
stroke:#008400; stroke-width:100; stroke-opacity:1; 
stroke-linecap:round; stroke-linejoin:round;">
<circle cx="64250" cy="43500" r="200" /> 
</g>
<g style="fill:#008400; fill-opacity:1.0; 
stroke:#008400; stroke-width:0; stroke-opacity:1; 
stroke-linecap:round; stroke-linejoin:round;">
</g>
<g style="fill:#008400; fill-opacity:1.0; 
stroke:#008400; stroke-width:100; stroke-opacity:1; 
stroke-linecap:round; stroke-linejoin:round;">
<circle cx="57250" cy="43500" r="200" /> 
</g>
<g style="fill:#008400; fill-opacity:1.0; 
stroke:#008400; stroke-width:0; stroke-opacity:1; 
stroke-linecap:round; stroke-linejoin:round;">
</g>
<g style="fill:#008400; fill-opacity:1.0; 
stroke:#008400; stroke-width:100; stroke-opacity:1; 
stroke-linecap:round; stroke-linejoin:round;">
<circle cx="57250" cy="35000" r="200" /> 
</g>
<g style="fill:#008400; fill-opacity:1.0; 
stroke:#008400; stroke-width:0; stroke-opacity:1; 
stroke-linecap:round; stroke-linejoin:round;">
</g>
<g style="fill:#008400; fill-opacity:1.0; 
stroke:#008400; stroke-width:100; stroke-opacity:1; 
stroke-linecap:round; stroke-linejoin:round;">
<circle cx="54250" cy="43500" r="200" /> 
</g>
<g style="fill:#008400; fill-opacity:1.0; 
stroke:#008400; stroke-width:0; stroke-opacity:1; 
stroke-linecap:round; stroke-linejoin:round;">
</g>
<g style="fill:#008400; fill-opacity:1.0; 
stroke:#008400; stroke-width:100; stroke-opacity:1; 
stroke-linecap:round; stroke-linejoin:round;">
<circle cx="54250" cy="35000" r="200" /> 
</g> 
</svg>
